<?xml version="1.0" encoding="utf-8"?>
<!-- Generator: Adobe Illustrator 15.0.2, SVG Export Plug-In . SVG Version: 6.00 Build 0)  -->
<!DOCTYPE svg PUBLIC "-//W3C//DTD SVG 1.1//EN" "http://www.w3.org/Graphics/SVG/1.1/DTD/svg11.dtd">
<svg version="1.1" id="Ebene_1" xmlns="http://www.w3.org/2000/svg" xmlns:xlink="http://www.w3.org/1999/xlink" x="0px" y="0px"
	 width="128px" height="140px" viewBox="0 0 128 140" enable-background="new 0 0 128 140" xml:space="preserve">
<g>
	<path d="M107.99,105.918c-0.309-0.784-1.018-1.333-1.855-1.438l-55.316-6.916V17.5c0-1.936-1.564-3.5-3.5-3.5s-3.5,1.564-3.5,3.5
		v79.188l-41.23-5.155c-0.843-0.105-1.676,0.263-2.167,0.952c-0.49,0.692-0.557,1.6-0.178,2.362l13.744,27.489
		c1.117,2.246,3.416,3.664,5.926,3.664h68.952c2.504,0,4.877-1.109,6.477-3.031l12.277-14.731
		C108.158,107.587,108.301,106.698,107.99,105.918z"/>
	<path d="M39.009,20.377l1.309-2.877L24.092,33.727C9.83,47.989,1.818,67.331,1.818,87.501l38.5,3.5
		C29.248,68.863,28.769,42.911,39.009,20.377z"/>
	<path d="M82.318,98.001c0-20.02-8.643-39.061-23.706-52.245L54.318,42l1.142,3.042c6.006,16.016,5.6,33.736-1.142,49.459
		L82.318,98.001z"/>
</g>
<g>
	<g>
		<path d="M119.451,1.436l-15.58,15.58L76.605,9.615c-0.391,0-10.712,5.063,1.559,10.517l14.605,7.985l-15.58,15.58
			c-2.727-0.194-9.543-0.779-9.933,0c-1.558,3.311,7.791,5.843,9.544,7.79c1.947,1.753,4.479,11.101,7.789,9.543
			c0.975-0.585,0.195-7.984,0-10.517l15.385-15.385l7.986,14.8c5.258,12.27,10.32,1.948,10.32,1.559l-7.4-27.265l15.58-15.581
			C131.135,3.968,124.125-3.043,119.451,1.436z"/>
	</g>
</g>
<polygon points="123,0 123,2.592 125.284,4.875 128,4.875 128,0 "/>
</svg>
