<?xml version="1.0" encoding="utf-8"?>
<!-- Generator: Adobe Illustrator 15.0.2, SVG Export Plug-In . SVG Version: 6.00 Build 0)  -->
<!DOCTYPE svg PUBLIC "-//W3C//DTD SVG 1.1//EN" "http://www.w3.org/Graphics/SVG/1.1/DTD/svg11.dtd">
<svg version="1.1" id="Ebene_1" xmlns="http://www.w3.org/2000/svg" xmlns:xlink="http://www.w3.org/1999/xlink" x="0px" y="0px"
	 width="128px" height="140px" viewBox="0 0 128 140" enable-background="new 0 0 128 140" xml:space="preserve">
<g>
	<rect x="88.197" y="18.529" transform="matrix(0.7071 0.7071 -0.7071 0.7071 55.144 -53.575)" width="8.084" height="42.489"/>
	<rect x="108.182" y="10.946" transform="matrix(0.7072 0.707 -0.707 0.7072 45.528 -76.7251)" width="14.438" height="11.323"/>
	<path d="M86.532,59.525l-4.063,4.063c-1.116,1.111-3.059,1.111-4.175,0l-9.891-9.891c-0.557-0.556-0.865-1.3-0.865-2.089
		c0-0.788,0.309-1.532,0.865-2.088l4.078-4.078l-2.763-1.112c-3.558-1.435-7.353-1.83-10.645-1.119
		c-4.91,1.066-8.576,4.481-10.602,9.881c-4.164,11.106-11.167,12.473-18.584,13.92c-5.102,1-10.377,2.029-16.644,5.927
		c-4.144,2.576-8.851,7.76-9.636,14.594c-0.844,7.311,2.933,15.391,10.919,23.385l6.549,6.543
		c7.258,7.26,14.587,11.039,21.332,11.039c0.688,0,1.372-0.037,2.05-0.121c6.832-0.779,12.018-5.49,14.595-9.637
		c3.895-6.268,4.925-11.541,5.922-16.643c1.452-7.414,2.819-14.418,13.921-18.582c5.404-2.027,8.819-5.695,9.879-10.604
		c0.715-3.28,0.312-7.058-1.13-10.631L86.532,59.525z M64.291,83.236c-2.071,2.07-4.832,3.215-7.772,3.215
		c-2.938,0-5.696-1.143-7.768-3.215c-2.074-2.068-3.216-4.828-3.216-7.768s1.142-5.7,3.216-7.769c2.14-2.141,4.957-3.21,7.771-3.21
		c2.814,0,5.626,1.067,7.768,3.208C68.571,71.98,68.571,78.955,64.291,83.236z M46.941,99.363c0,0.785-0.308,1.525-0.862,2.09
		c-1.118,1.109-3.062,1.109-4.178,0L30.537,90.088c-1.149-1.154-1.149-3.027,0-4.178c0.56-0.557,1.3-0.863,2.089-0.863
		s1.532,0.309,2.089,0.863l11.364,11.365C46.633,97.834,46.941,98.574,46.941,99.363z"/>
	<path d="M52.927,71.873c-0.959,0.961-1.486,2.238-1.486,3.594c0,1.359,0.527,2.633,1.489,3.594c0.989,0.986,2.289,1.477,3.59,1.477
		s2.605-0.49,3.596-1.477c1.979-1.984,1.977-5.209-0.002-7.189C58.195,69.958,54.846,69.958,52.927,71.873z"/>
</g>
</svg>
