<?xml version="1.0" encoding="utf-8"?>
<!-- Generator: Adobe Illustrator 15.0.2, SVG Export Plug-In . SVG Version: 6.00 Build 0)  -->
<!DOCTYPE svg PUBLIC "-//W3C//DTD SVG 1.1//EN" "http://www.w3.org/Graphics/SVG/1.1/DTD/svg11.dtd">
<svg version="1.1" id="Ebene_1" xmlns="http://www.w3.org/2000/svg" xmlns:xlink="http://www.w3.org/1999/xlink" x="0px" y="0px"
	 width="140px" height="140px" viewBox="0 0 140 140" enable-background="new 0 0 140 140" xml:space="preserve">
<path d="M14.919,113.13h35.258c1.573,0,2.856,1.279,2.856,2.856v14.938l17.845-17.01c0.531-0.51,1.232-0.784,1.971-0.784h4.973
	c8.225,0,14.919-6.694,14.919-14.924v-12.06c0-8.238-6.701-14.94-14.941-14.94H14.938C6.703,71.206,0,77.908,0,86.146v12.06
	C-0.001,106.436,6.694,113.13,14.919,113.13z M19.065,92.166c0-0.756,0.298-1.482,0.831-2.006c0.498-0.495,1.232-0.778,2.024-0.778
	c0.008,0,0.008,0,0.011,0c0.782,0,1.505,0.283,2.011,0.792c0.522,0.518,0.836,1.258,0.836,1.992c0,0.749-0.312,1.497-0.836,2.014
	l-0.028,0.025c-1.025,1.05-2.966,1.061-4.034-0.033C19.363,93.671,19.065,92.938,19.065,92.166z M43.511,92.166
	c0-0.734,0.312-1.482,0.836-2.006c0.521-0.521,1.272-0.782,2.024-0.782c0.753,0,1.505,0.263,2.023,0.782
	c0.523,0.52,0.837,1.271,0.837,2.006c0,0.749-0.312,1.505-0.837,2.027c-1.061,1.059-2.993,1.055-4.049,0
	C43.823,93.671,43.511,92.915,43.511,92.166z M67.956,92.166c0-0.749,0.306-1.477,0.836-2.006c0.491-0.487,1.229-0.771,2.028-0.771
	c0.796,0,1.533,0.283,2.039,0.784c0.513,0.502,0.816,1.247,0.816,1.992c0,0.771-0.298,1.505-0.816,2.015l-0.033,0.024
	c-1.019,1.039-2.958,1.062-4.034-0.015C68.27,93.671,67.956,92.915,67.956,92.166z"/>
<path d="M79.874,65.594c0.108,0.011,0.214,0.033,0.323,0.047l0.549,0.08c0.382,0.051,0.767,0.102,1.138,0.174
	c0.148,0.029,0.294,0.073,0.439,0.109l0.574,0.146c0.315,0.076,0.629,0.149,0.934,0.24c0.164,0.051,0.328,0.117,0.495,0.175
	l0.538,0.196c0.283,0.094,0.562,0.196,0.836,0.305c0.17,0.073,0.334,0.152,0.498,0.229l0.481,0.229
	c0.271,0.124,0.538,0.247,0.793,0.385c0.187,0.098,0.363,0.204,0.537,0.312l0.371,0.218c0.262,0.153,0.523,0.306,0.777,0.473
	c0.186,0.127,0.364,0.258,0.546,0.393l0.283,0.211c0.251,0.178,0.502,0.36,0.749,0.556c0.178,0.146,0.349,0.294,0.516,0.447
	l0.232,0.207c0.239,0.207,0.477,0.418,0.705,0.635c0.182,0.183,0.359,0.371,0.633,0.658c0.236,0.25,0.473,0.506,0.697,0.768
	c0.188,0.218,0.363,0.449,0.57,0.712c0.211,0.276,0.422,0.546,0.618,0.829c0.178,0.254,0.345,0.516,0.509,0.773
	c0.186,0.295,0.366,0.582,0.534,0.879c0.156,0.272,0.298,0.543,0.439,0.826c0.155,0.305,0.309,0.613,0.446,0.922
	c0.131,0.291,0.247,0.582,0.363,0.873c0.127,0.323,0.247,0.646,0.356,0.971c0.102,0.302,0.195,0.604,0.282,0.92
	c0.096,0.33,0.183,0.669,0.263,1.01c0.073,0.312,0.138,0.626,0.195,0.938c0.062,0.35,0.116,0.697,0.16,1.055
	c0.043,0.326,0.08,0.65,0.105,0.967l0.147,2.258h2.266c8.238,0,14.94-6.699,14.94-14.939V59.717c0-8.228-6.694-14.923-14.923-14.923
	H65.538c-1.577,0-2.856-1.279-2.856-2.857V27L44.836,44.009c-0.534,0.509-1.234,0.785-1.973,0.785h-4.954
	c-8.235,0-14.938,6.695-14.938,14.923v5.771h54.822C78.5,65.489,79.194,65.525,79.874,65.594z"/>
</svg>
