<?xml version="1.0" encoding="utf-8"?>
<!-- Generator: Adobe Illustrator 15.0.2, SVG Export Plug-In . SVG Version: 6.00 Build 0)  -->
<!DOCTYPE svg PUBLIC "-//W3C//DTD SVG 1.1//EN" "http://www.w3.org/Graphics/SVG/1.1/DTD/svg11.dtd">
<svg version="1.1" id="Ebene_1" xmlns="http://www.w3.org/2000/svg" xmlns:xlink="http://www.w3.org/1999/xlink" x="0px" y="0px"
	 width="128px" height="140px" viewBox="0 0 128 140" enable-background="new 0 0 128 140" xml:space="preserve">
<g>
	<path d="M75.529,121.177c-2.635,0-4.776-1.977-4.941-4.612H57.412c-0.165,2.471-2.306,4.612-4.941,4.612s-4.776-1.977-4.941-4.612
		h-5.6c2.965,9.553,11.859,16.142,22.071,16.142c6.094,0,12.023-2.471,16.306-6.754c2.636-2.635,4.612-5.764,5.601-9.388h-5.436
		C80.306,119.2,78.164,121.177,75.529,121.177z"/>
	<path d="M52.471,38.823c2.635,0,4.776,1.977,4.941,4.612h13.176c0.165-2.471,2.307-4.612,4.941-4.612s4.776,1.977,4.941,4.612
		h6.259C84.918,32.399,75.529,24,64,24c-6.094,0-12.023,2.471-16.306,6.753c-3.459,3.459-5.765,7.906-6.424,12.683h6.259
		C47.694,40.8,49.835,38.823,52.471,38.823z"/>
	<path d="M52.471,94.823c2.635,0,4.776,1.977,4.941,4.611h13.176c0.165-2.471,2.307-4.611,4.941-4.611s4.776,1.977,4.941,4.611
		h6.588V60.729h-6.588c-0.165,2.471-2.307,4.612-4.941,4.612s-4.776-1.977-4.941-4.612H57.412c-0.165,2.471-2.306,4.612-4.941,4.612
		s-4.776-1.977-4.941-4.612h-6.588v38.706h6.588C47.694,96.8,49.835,94.823,52.471,94.823z"/>
	<path d="M100.235,41.294h-6.589c-1.811,0-3.293,1.482-3.293,3.294v2.141H77.176v-2.965c0-0.823-0.658-1.647-1.646-1.647
		c-0.823,0-1.646,0.824-1.646,1.647v2.965H54.118v-2.965c0-0.823-0.659-1.647-1.647-1.647c-0.824,0-1.647,0.824-1.647,1.647v2.965
		H37.647v-2.141c0-1.812-1.482-3.294-3.294-3.294h-6.588c-1.812,0-3.294,1.482-3.294,3.294v14.823c0,1.812,1.482,3.294,3.294,3.294
		h6.588c1.812,0,3.294-1.482,3.294-3.294V57.27h13.177v2.965c0,0.824,0.823,1.647,1.647,1.647c0.988,0,1.647-0.823,1.647-1.647
		V57.27h19.765v2.965c0,0.824,0.823,1.647,1.646,1.647c0.988,0,1.646-0.823,1.646-1.647V57.27h13.178v2.141
		c0,1.812,1.482,3.294,3.293,3.294h6.589c1.812,0,3.294-1.482,3.294-3.294V44.588C103.529,42.776,102.047,41.294,100.235,41.294z"/>
	<path d="M100.235,97.294h-6.589c-1.811,0-3.293,1.482-3.293,3.294v2.142H77.176v-2.965c0-0.824-0.658-1.647-1.646-1.647
		c-0.823,0-1.646,0.823-1.646,1.647v2.965H54.118v-2.965c0-0.824-0.659-1.647-1.647-1.647c-0.824,0-1.647,0.823-1.647,1.647v2.965
		H37.647v-2.142c0-1.812-1.482-3.294-3.294-3.294h-6.588c-1.812,0-3.294,1.482-3.294,3.294v14.823c0,1.812,1.482,3.295,3.294,3.295
		h6.588c1.812,0,3.294-1.482,3.294-3.295v-2.141h13.177v2.965c0,0.823,0.823,1.646,1.647,1.646c0.988,0,1.647-0.823,1.647-1.646
		v-2.965h19.765v2.965c0,0.823,0.823,1.646,1.646,1.646c0.988,0,1.646-0.823,1.646-1.646v-2.965h13.178v2.141
		c0,1.812,1.482,3.295,3.293,3.295h6.589c1.812,0,3.294-1.482,3.294-3.295v-14.823C103.529,98.776,102.047,97.294,100.235,97.294z"
		/>
</g>
</svg>
