<?xml version="1.0" encoding="utf-8"?>
<!-- Generator: Adobe Illustrator 15.0.2, SVG Export Plug-In . SVG Version: 6.00 Build 0)  -->
<!DOCTYPE svg PUBLIC "-//W3C//DTD SVG 1.1//EN" "http://www.w3.org/Graphics/SVG/1.1/DTD/svg11.dtd">
<svg version="1.1" id="Ebene_1" xmlns="http://www.w3.org/2000/svg" xmlns:xlink="http://www.w3.org/1999/xlink" x="0px" y="0px"
	 width="128px" height="140px" viewBox="0 0 128 140" enable-background="new 0 0 128 140" xml:space="preserve">
<g>
	<path d="M59.492,89.334c0-0.775,0.166-1.468,0.496-2.065c0.329-0.6,0.764-1.088,1.305-1.478c0.538-0.389,1.144-0.684,1.818-0.883
		c0.673-0.197,1.349-0.297,2.033-0.297c0.681,0,1.36,0.1,2.034,0.297c0.671,0.199,1.277,0.494,1.815,0.883
		c0.543,0.39,0.978,0.878,1.307,1.478c0.332,0.598,0.496,1.29,0.496,2.065v10.21c0,0.793-0.165,1.488-0.496,2.076
		c-0.329,0.59-0.764,1.077-1.307,1.467c-0.539,0.391-1.144,0.687-1.815,0.882c-0.674,0.197-1.354,0.298-2.034,0.298
		c-0.684,0-1.36-0.101-2.033-0.298c-0.675-0.195-1.28-0.491-1.818-0.882c-0.542-0.39-0.977-0.877-1.305-1.467
		c-0.33-0.588-0.496-1.283-0.496-2.076V89.334z M62.735,99.55c0,0.665,0.371,1.161,0.825,1.478c0.451,0.316,0.986,0.485,1.604,0.485
		c0.614,0,1.15-0.169,1.603-0.485c0.451-0.316,0.708-0.812,0.708-1.478V89.339c0-0.668-0.257-1.162-0.708-1.478
		c-0.452-0.317-0.989-0.53-1.603-0.53c-0.618,0-1.153,0.213-1.604,0.53c-0.454,0.315-0.825,0.81-0.825,1.478V99.55z"/>
	<polygon points="53.647,84.591 53.647,92.884 48.475,92.884 48.475,84.591 45.647,84.591 45.647,104.276 48.475,104.276 
		48.475,95.98 53.647,95.98 53.647,104.276 56.689,104.276 56.689,84.591 	"/>
	<polygon points="84.178,84.591 72.951,84.591 72.951,87.486 77.101,87.486 77.051,104.276 80.037,104.276 80.037,87.486 
		84.178,87.486 	"/>
	<path d="M104.996,102.14h22.844l-13.659-15.38l-13.599-15.382L86.981,56.044H18.65l13.599,15.334H9.354L22.956,86.76l0.104,0.104
		H0.16l13.655,15.382l13.606,15.379l13.6,15.336h68.331l-13.607-15.336l-0.101-0.15h22.9L104.996,102.14z M63.999,120.059
		c-15.256,0-27.623-11.441-27.623-25.556c0-14.117,12.367-25.561,27.623-25.561c15.259,0,27.627,11.444,27.627,25.561
		C91.626,108.617,79.258,120.059,63.999,120.059z"/>
</g>
</svg>
