<?xml version="1.0" encoding="utf-8"?>
<!-- Generator: Adobe Illustrator 15.0.2, SVG Export Plug-In . SVG Version: 6.00 Build 0)  -->
<!DOCTYPE svg PUBLIC "-//W3C//DTD SVG 1.1//EN" "http://www.w3.org/Graphics/SVG/1.1/DTD/svg11.dtd">
<svg version="1.1" id="Ebene_1" xmlns="http://www.w3.org/2000/svg" xmlns:xlink="http://www.w3.org/1999/xlink" x="0px" y="0px"
	 width="128px" height="140px" viewBox="0 0 128 140" enable-background="new 0 0 128 140" xml:space="preserve">
<path d="M41.772,42.999L7.841,56.57v72.382l33.932-13.571V42.999z M46.034,42.999v72.382l33.931,13.571V94.881L65.509,64.875
	c-0.729-1.925-1.344-4.737-1.344-6.927c0-2.536,0.56-4.904,1.521-7.068L46.034,42.999z M83.061,42.999
	c-8.122,0-14.669,6.772-14.669,15.162c0,1.927,0.536,4.384,1.168,6.078L83.097,92.76l13.536-28.521
	c0.634-1.694,1.168-4.15,1.168-6.078C97.801,49.771,91.182,42.999,83.061,42.999z M120.159,42.999l-19.617,7.846
	c0.981,2.176,1.555,4.551,1.555,7.104c0,2.19-0.61,5-1.342,6.927L86.227,95.021v33.931l33.933-13.571V42.999z M83.097,50.916
	c3.746,0,6.786,3.038,6.786,6.785s-3.04,6.785-6.786,6.785c-3.748,0-6.787-3.038-6.787-6.785S79.349,50.916,83.097,50.916z"/>
</svg>
