<?xml version="1.0" encoding="utf-8"?>
<!-- Generator: Adobe Illustrator 15.0.2, SVG Export Plug-In . SVG Version: 6.00 Build 0)  -->
<!DOCTYPE svg PUBLIC "-//W3C//DTD SVG 1.1//EN" "http://www.w3.org/Graphics/SVG/1.1/DTD/svg11.dtd">
<svg version="1.1" id="Ebene_1" xmlns="http://www.w3.org/2000/svg" xmlns:xlink="http://www.w3.org/1999/xlink" x="0px" y="0px"
	 width="128px" height="140px" viewBox="0 0 128 140" enable-background="new 0 0 128 140" xml:space="preserve">
<g>
	<path d="M105.62,51.19c0-3.547-2.885-6.432-6.436-6.432H77.163l-0.936,0.124l-0.654,0.873c-0.233,0.351-0.484,0.697-0.745,1.032
		l-0.332,0.44c-0.382,0.462-0.785,0.912-1.222,1.341l-5.752,5.755c-0.322,0.323-0.678,0.615-1.074,0.87
		c-0.102,0.045-0.202,0.098-0.346,0.183c-0.264,0.153-0.525,0.312-0.811,0.43c-0.124,0.045-0.25,0.078-0.379,0.111l-0.62,0.182
		c-0.085,0.026-0.166,0.059-0.251,0.078c-0.166,0.029-0.334,0.036-0.501,0.045l-0.606,0.056c-0.063,0.01-0.128,0.022-0.191,0.022
		H62.67c-0.306-0.006-0.608-0.059-0.906-0.097c-0.107-0.013-0.214-0.023-0.325-0.026c-0.325-0.062-0.641-0.176-0.958-0.287
		c-0.103-0.036-0.208-0.065-0.295-0.078c-0.33-0.137-0.641-0.319-0.954-0.502l-0.229-0.117c-0.381-0.248-0.739-0.538-1.061-0.854
		l-6.163-6.171L38.143,61.804c-0.967,0.963-2.652,0.963-3.622,0c-0.997-1.003-0.997-2.625,0-3.622l13.421-13.424h-19.13
		c-3.546,0-6.432,2.886-6.432,6.435v70.375c0,3.547,2.884,6.434,6.432,6.434h46.657v-27.585c0-1.414,1.153-2.56,2.563-2.56h27.588
		V51.19z M33.774,80.902c0-1.414,1.149-2.563,2.562-2.563h33.642c1.409,0,2.562,1.149,2.562,2.563c0,1.41-1.153,2.559-2.562,2.559
		H36.335C34.923,83.461,33.774,82.312,33.774,80.902z M36.335,93.707h11.016c1.413,0,2.561,1.146,2.561,2.561
		s-1.148,2.561-2.561,2.561H36.335c-1.412,0-2.562-1.146-2.562-2.561C33.774,94.854,34.923,93.707,36.335,93.707z"/>
	<path d="M92.944,21.01c0.912,0,1.771-0.354,2.414-1c0.869-0.87,1-1.885,1-2.413c0-0.531-0.131-1.55-1-2.417L81.144,0.962
		c-1.293-1.284-3.541-1.284-4.83,0.006c-1.33,1.329-1.33,3.494-0.004,4.826l14.219,14.219C91.173,20.655,92.032,21.01,92.944,21.01z
		"/>
	<path d="M44.435,33.62l18.332,18.296l6.899-6.979c1.106-1.091,1.987-2.361,2.614-3.765c0.785-1.703,1.187-3.514,1.187-5.396
		c0-0.596-0.042-1.211-0.127-1.833c-0.11-0.789,0.16-1.6,0.724-2.16l10.494-10.499l-9.521-9.51L64.535,22.261
		c-0.57,0.567-1.358,0.83-2.159,0.723c-4.015-0.567-8.095,0.788-10.995,3.674L44.435,33.62z"/>
	<polygon points="102.28,104 80.88,104 80.88,125.398 	"/>
</g>
</svg>
