<?xml version="1.0" encoding="utf-8"?>
<!-- Generator: Adobe Illustrator 15.0.2, SVG Export Plug-In . SVG Version: 6.00 Build 0)  -->
<!DOCTYPE svg PUBLIC "-//W3C//DTD SVG 1.1//EN" "http://www.w3.org/Graphics/SVG/1.1/DTD/svg11.dtd">
<svg version="1.1" id="Ebene_1" xmlns="http://www.w3.org/2000/svg" xmlns:xlink="http://www.w3.org/1999/xlink" x="0px" y="0px"
	 width="140px" height="140px" viewBox="0 0 140 140" enable-background="new 0 0 140 140" xml:space="preserve">
<path d="M47.797,112.393c-3.648,0-6.616,2.965-6.616,6.615v9.99h13.231v-9.99C54.412,115.357,51.446,112.393,47.797,112.393z"/>
<rect x="17.781" y="27" width="57.918" height="6.741"/>
<polygon points="2.537,60.148 20.501,60.148 28.75,39.515 16.429,39.515 "/>
<polygon points="44.91,39.515 34.97,39.515 26.721,60.148 44.91,60.148 "/>
<polygon points="50.683,39.515 50.683,60.148 68.878,60.148 60.624,39.515 "/>
<polygon points="92.697,60.148 77.152,39.515 66.844,39.515 75.097,60.148 "/>
<path d="M19.564,75.711v-9.784H0v9.784c0,5.393,4.388,9.784,9.784,9.784C15.177,85.495,19.564,81.104,19.564,75.711z"/>
<path d="M25.339,75.711c0,5.393,4.393,9.784,9.785,9.784c5.396,0,9.782-4.392,9.782-9.784v-9.784H25.339V75.711L25.339,75.711z"/>
<path d="M76.029,75.711c0,5.393,4.388,9.784,9.78,9.784c5.396,0,9.786-4.392,9.786-9.784v-9.784H76.026v9.784H76.029z"/>
<path d="M50.683,75.711c0,5.393,4.393,9.784,9.788,9.784c5.394,0,9.781-4.392,9.781-9.784v-9.784H50.683V75.711z"/>
<path d="M81.53,90.656c-2.655-0.762-5.075-2.239-6.992-4.26l-1.396-1.476l-1.401,1.476c-2.979,3.144-6.982,4.867-11.271,4.867
	c-4.292,0-8.297-1.725-11.274-4.867l-1.398-1.476l-1.396,1.476c-2.98,3.144-6.986,4.875-11.277,4.875
	c-4.289,0-8.293-1.731-11.271-4.875l-1.399-1.476l-1.398,1.476c-1.915,2.023-4.334,3.498-6.994,4.258l-1.394,0.398V129h22.735
	v-9.992c0-6.833,5.559-12.392,12.395-12.392c6.828,0,12.387,5.559,12.387,12.392V129h22.741V91.055L81.53,90.656z M31.745,100.629
	c0,1.795-1.455,3.249-3.249,3.249h-6.315c-1.794,0-3.249-1.454-3.249-3.249v-1.832h12.812V100.629z"/>
</svg>
