<?xml version="1.0" encoding="utf-8"?>
<!-- Generator: Adobe Illustrator 15.0.2, SVG Export Plug-In . SVG Version: 6.00 Build 0)  -->
<!DOCTYPE svg PUBLIC "-//W3C//DTD SVG 1.1//EN" "http://www.w3.org/Graphics/SVG/1.1/DTD/svg11.dtd">
<svg version="1.1" id="Ebene_1" xmlns="http://www.w3.org/2000/svg" xmlns:xlink="http://www.w3.org/1999/xlink" x="0px" y="0px"
	 width="128px" height="140px" viewBox="0 0 128 140" enable-background="new 0 0 128 140" xml:space="preserve">
<g transform="scale(0.03125 0.03125)">
	<path d="M2048.031,512c-997.344,0-1806,808.656-1806,1806c0,997.375,808.656,1805.969,1806,1805.969
		c997.438,0,1805.938-808.594,1805.938-1805.969C3853.969,1320.656,3045.469,512,2048.031,512z M1310.25,3454.281
		c39.125-108.094,60.5-224.594,60.5-346.219c0-438.594-277.969-812.344-667.281-954.547
		c35.906-299.469,170.156-576.719,386.75-793.328c255.844-255.797,596-396.688,957.812-396.688
		c361.844,0,701.875,140.891,957.781,396.688c216.688,216.609,350.812,493.859,386.906,793.328
		c-389.469,142.203-667.5,515.953-667.5,954.547c0,121.625,21.406,238.125,60.625,346.219
		c-217.656,141.875-471.875,218.188-737.812,218.188C1782.125,3672.469,1527.938,3596.156,1310.25,3454.281z M2188.188,2773
		c48.938,12.344,85.562,56.656,85.562,109.375v225.688c0,62.094-50.812,112.938-112.875,112.938h-225.719
		c-62.062,0-112.938-50.844-112.938-112.938v-225.688c0-52.719,36.625-97.031,85.594-109.375l83.75-1583.766h112.844L2188.188,2773z
		"/>
</g>
</svg>
