<?xml version="1.0" encoding="utf-8"?>
<!-- Generator: Adobe Illustrator 15.0.2, SVG Export Plug-In . SVG Version: 6.00 Build 0)  -->
<!DOCTYPE svg PUBLIC "-//W3C//DTD SVG 1.1//EN" "http://www.w3.org/Graphics/SVG/1.1/DTD/svg11.dtd">
<svg version="1.1" id="Ebene_1" xmlns="http://www.w3.org/2000/svg" xmlns:xlink="http://www.w3.org/1999/xlink" x="0px" y="0px"
	 width="128px" height="140px" viewBox="0 0 128 140" enable-background="new 0 0 128 140" xml:space="preserve">
<path d="M95.504,112.531c7.169-3.12,11.397-10.618,10.359-18.367l-7-52.032c-0.949-6.934-6.861-12.108-13.859-12.131h-42
	c-7,0.018-12.918,5.189-13.874,12.124l-7,52.039c-1.036,7.753,3.2,15.251,10.374,18.367l-9.478,9.491
	c-1.391,1.344-1.429,3.559-0.086,4.949s3.559,1.43,4.949,0.086c0.029-0.027,0.058-0.057,0.086-0.086l12.978-12.971h46.102
	l12.971,12.971c1.344,1.391,3.559,1.43,4.949,0.086c1.391-1.342,1.43-3.559,0.086-4.949c-0.027-0.028-0.057-0.057-0.086-0.086
	L95.504,112.531z M35.002,51.001h58.002l3.752,28H31.25L35.002,51.001z M43.003,103.501c-3.866,0-7-3.133-7-6.999s3.134-7,7-7
	s7,3.134,7,7S46.87,103.501,43.003,103.501z M78.004,96.502c0-3.866,3.134-7,7-7s7,3.134,7,7s-3.134,6.999-7,6.999
	S78.004,100.368,78.004,96.502z"/>
<rect x="40.145" y="20.607" transform="matrix(0.7071 -0.7071 0.7071 0.7071 2.2204 52.2382)" width="48.051" height="5.664"/>
<rect x="56.599" y="23.156" transform="matrix(0.7071 -0.7071 0.7071 0.7071 5.2361 64.6172)" width="48.051" height="5.663"/>
</svg>
