<?xml version="1.0" encoding="utf-8"?>
<!-- Generator: Adobe Illustrator 15.0.2, SVG Export Plug-In . SVG Version: 6.00 Build 0)  -->
<!DOCTYPE svg PUBLIC "-//W3C//DTD SVG 1.1//EN" "http://www.w3.org/Graphics/SVG/1.1/DTD/svg11.dtd">
<svg version="1.1" id="Ebene_1" xmlns="http://www.w3.org/2000/svg" xmlns:xlink="http://www.w3.org/1999/xlink" x="0px" y="0px"
	 width="128px" height="140px" viewBox="0 0 128 140" enable-background="new 0 0 128 140" xml:space="preserve">
<path d="M118.88,68.358c0-3.696-3.024-6.72-6.72-6.72h-7.133l-5.879-15.957c-0.852-2.312-3.442-4.893-5.758-5.735
	c0,0.001-8.111-2.948-29.391-2.948c-21.28,0-29.39,2.949-29.39,2.949c-2.316,0.842-4.906,3.423-5.759,5.735l-5.879,15.956H15.84
	c-3.696,0-6.72,3.024-6.72,6.72s3.024,6.72,6.72,6.72h2.181l-1.751,4.757c-0.853,2.312-1.549,6.219-1.549,8.683v29.12
	c0,4.928,4.032,8.96,8.96,8.96c4.928,0,8.96-4.032,8.96-8.96v-4.48h62.719v4.48c0,4.928,4.033,8.96,8.961,8.96
	s8.959-4.032,8.959-8.96v-29.12c0-2.464-0.695-6.371-1.549-8.683l-1.751-4.757h2.181C115.855,75.078,118.88,72.054,118.88,68.358z
	 M38.24,48.198h51.52l6.721,20.16H31.52L38.24,48.198z M30.4,95.238c-3.71,0-6.72-3.011-6.72-6.721c0-3.709,3.009-6.72,6.72-6.72
	s6.72,3.011,6.72,6.72C37.12,92.228,34.11,95.238,30.4,95.238z M78.212,105.461H49.788v-5.663h28.424V105.461z M97.6,95.238
	c-3.711,0-6.72-3.009-6.72-6.721c0-3.711,3.009-6.72,6.72-6.72c3.712,0,6.721,3.009,6.721,6.72
	C104.32,92.229,101.312,95.238,97.6,95.238z"/>
</svg>
