<?xml version="1.0" encoding="utf-8"?>
<!-- Generator: Adobe Illustrator 15.0.2, SVG Export Plug-In . SVG Version: 6.00 Build 0)  -->
<!DOCTYPE svg PUBLIC "-//W3C//DTD SVG 1.1//EN" "http://www.w3.org/Graphics/SVG/1.1/DTD/svg11.dtd">
<svg version="1.1" id="Ebene_1" xmlns="http://www.w3.org/2000/svg" xmlns:xlink="http://www.w3.org/1999/xlink" x="0px" y="0px"
	 width="128px" height="140px" viewBox="0 0 128 140" enable-background="new 0 0 128 140" xml:space="preserve">
<path d="M125.946,72.223c-0.069,0.024-0.135,0.035-0.181-0.035c-0.057-0.085,0.055-0.276,0-0.36c-0.118-0.182-0.59,0.18-0.707,0
	c-0.056-0.086,0.056-0.277,0-0.362c-0.111-0.171-0.36,0.171-0.472,0c-0.056-0.084,0.056-0.276,0-0.361
	c-0.117-0.181-0.589,0.182-0.707,0c-0.055-0.085,0.056-0.277,0-0.362c-0.064-0.098-0.814,0.099-0.942,0
	c-0.1-0.075-0.137-0.285-0.235-0.361c-0.07-0.053-0.181,0.085-0.235,0c-0.056-0.085,0.055-0.276,0-0.361
	c-0.049-0.073-0.614,0.072-0.707,0c-0.1-0.076-0.137-0.285-0.235-0.361c-0.189-0.146-0.519,0.144-0.707,0
	c-0.1-0.076-0.137-0.286-0.236-0.361c-0.188-0.146-0.518,0.144-0.707,0c-0.099-0.077-0.136-0.286-0.235-0.363
	c-0.147-0.114-0.794,0.114-0.942,0c-0.1-0.076-0.136-0.284-0.235-0.361c-0.07-0.054-0.166,0.054-0.236,0
	c-0.099-0.076-0.136-0.285-0.235-0.361c-0.07-0.054-0.18,0.085-0.235,0s0.056-0.277,0-0.362c-0.056-0.084-0.166,0.054-0.236,0
	c-0.062-0.048-0.675-0.987-0.706-1.083c-0.035-0.108,0.055-0.277,0-0.363c-0.057-0.083-0.157,0-0.236,0l-1.178-1.806
	c-0.078,0-0.181,0.085-0.235,0c-0.056-0.085,0.035-0.253,0-0.361c-0.05-0.153-0.157-0.241-0.236-0.363
	c-0.078-0.12-0.136-0.284-0.235-0.361c-0.07-0.054-0.165,0.054-0.235,0c-0.1-0.076-0.137-0.285-0.235-0.361
	c-0.07-0.054-0.166,0.054-0.236,0c-0.1-0.077-0.136-0.286-0.235-0.361c-0.07-0.054-0.18,0.085-0.235,0s0.056-0.277,0-0.363
	c-0.057-0.087-0.886,0.087-0.942,0c-0.056-0.085,0.055-0.275,0-0.361c-0.057-0.087-0.887,0.087-0.943,0
	c-0.055-0.085,0.056-0.275,0-0.361c-0.064-0.099-0.814,0.097-0.942,0c-0.099-0.077-0.136-0.286-0.235-0.363
	c-0.317-0.243-0.279-0.089-0.22,0.036c-0.048-0.078-0.124-0.2-0.252-0.396c-0.14-0.108-0.33,0.108-0.471,0
	c-0.1-0.076-0.137-0.285-0.236-0.361c-0.07-0.054-0.165,0.054-0.235,0c-0.198-0.153-0.272-0.571-0.471-0.724
	c-0.141-0.107-0.36,0.171-0.472,0c-0.056-0.083,0.056-0.275,0-0.361s-0.165,0.054-0.235,0c-0.1-0.076-0.137-0.285-0.236-0.361
	c-0.07-0.054-0.165,0.054-0.235,0c-0.1-0.077-0.136-0.285-0.235-0.362c-0.07-0.053-0.181,0.085-0.235,0
	c-0.056-0.084,0.055-0.276,0-0.361c-0.056-0.085-0.166,0.054-0.236,0c-0.099-0.076-0.136-0.285-0.235-0.361
	c-0.07-0.054-0.18,0.085-0.235,0s0.056-0.277,0-0.361c-0.056-0.085-0.166,0.054-0.236,0c-0.198-0.153-0.272-0.571-0.471-0.724
	c-0.07-0.054-0.181,0.085-0.235,0c-0.056-0.085,0.055-0.275,0-0.361c-0.056-0.085-0.166,0.054-0.236,0
	c-0.251-0.193-0.22-0.53-0.471-0.724c-0.07-0.054-0.181,0.085-0.235,0c-0.056-0.083,0.055-0.275,0-0.361
	c-0.056-0.085-0.181,0.085-0.236,0c-0.487-0.748,0.745,0.03-0.235-0.724c-0.07-0.054-0.181,0.085-0.235,0
	c-0.056-0.085,0.035-0.253,0-0.361c-0.142-0.433-0.566-0.65-0.707-1.084c-0.035-0.108,0.056-0.275,0-0.361s-0.181,0.085-0.235,0
	c-0.056-0.085,0.055-0.275,0-0.361c-0.056-0.085-0.181,0.085-0.236,0s0.056-0.276,0-0.363c-0.056-0.085-0.18,0.087-0.235,0
	c-0.487-0.747,0.745,0.03-0.235-0.722c-0.07-0.054-0.18,0.085-0.236,0c-0.056-0.085,0.057-0.277,0-0.361
	c-0.056-0.085-0.165,0.054-0.235,0c-0.1-0.077-0.136-0.286-0.235-0.363c-0.07-0.054-0.181,0.085-0.236,0
	c-0.055-0.083,0.056-0.275,0-0.361c-0.055-0.085-0.165,0.054-0.235,0c-0.099-0.076-0.136-0.285-0.235-0.361
	c-0.141-0.108-0.36,0.171-0.472,0c-0.056-0.085,0.056-0.277,0-0.361c-0.056-0.085-0.18,0.083-0.235,0
	c-0.056-0.085,0.056-0.277,0-0.363c-0.157-0.241-0.314,0.241-0.472,0c-0.056-0.085,0.056-0.275,0-0.361
	c-0.048-0.073-0.613,0.072-0.706,0c-0.1-0.076-0.137-0.285-0.235-0.361c-0.141-0.108-0.361,0.169-0.472,0
	c-0.487-0.748,0.745,0.028-0.236-0.722c-0.07-0.054-0.165,0.054-0.235,0c-0.198-0.153-0.272-0.571-0.472-0.723
	c-0.069-0.054-0.18,0.085-0.234,0c-0.057-0.085,0.055-0.276,0-0.361c-0.111-0.17-0.36,0.171-0.472,0
	c-0.056-0.085,0.055-0.277,0-0.361c-0.056-0.085-0.18,0.084-0.236,0c-0.055-0.085,0.057-0.277,0-0.362
	c-0.055-0.085-0.165,0.054-0.235,0c-0.98-0.752,0.252,0.025-0.235-0.722c-0.056-0.085-0.181,0.084-0.235,0
	c-0.056-0.085,0.055-0.277,0-0.362c-0.487-0.748,0.019,1.143-0.472-0.361c-0.162-0.498,0.285-0.324-0.235-0.722
	c-0.07-0.054-0.157,0-0.236,0c0-0.121,0.057-0.277,0-0.362c-0.055-0.085-0.18,0.085-0.235,0s0.056-0.276,0-0.361
	c-0.056-0.085-0.18,0.085-0.235,0c-0.056-0.085,0.056-0.276,0-0.361s-0.181,0.085-0.235,0c-0.056-0.085,0.055-0.277,0-0.361
	c-0.056-0.087-0.181,0.084-0.236,0c-0.055-0.087,0.056-0.277,0-0.362c-0.055-0.086-0.165,0.054-0.235,0
	c-0.1-0.077-0.136-0.286-0.235-0.362c-0.141-0.108-0.331,0.108-0.472,0c-0.1-0.077-0.136-0.286-0.235-0.361
	c-0.141-0.108-0.36,0.169-0.472,0c-0.055-0.085,0.056-0.277,0-0.363c-0.111-0.169-0.33,0.108-0.471,0
	c-0.1-0.075-0.137-0.285-0.235-0.361c-0.07-0.054-0.181,0.085-0.236,0s0.056-0.275,0-0.361c-0.111-0.171-0.359,0.17-0.472,0
	c-0.055-0.085,0.056-0.276,0-0.363c-0.055-0.083-0.165,0.054-0.235,0c-0.099-0.075-0.136-0.284-0.235-0.361
	c-0.07-0.054-0.165,0.054-0.235,0c-0.1-0.075-0.137-0.285-0.235-0.361c-0.07-0.054-0.181,0.085-0.236,0
	c-0.055-0.085,0.056-0.277,0-0.361c-0.111-0.171-0.359,0.17-0.472,0c-0.055-0.085,0.056-0.277,0-0.363
	c-0.048-0.073-0.612,0.072-0.706,0c-0.1-0.075-0.137-0.285-0.235-0.361c-0.141-0.108-0.36,0.171-0.472,0
	c-0.056-0.085,0.056-0.275,0-0.361s-0.166,0.054-0.236,0c-0.099-0.077-0.156-0.241-0.234-0.361c-0.079-0.122-0.187-0.21-0.236-0.363
	c-0.035-0.106,0.056-0.275,0-0.361s-0.18,0.085-0.235,0s0.056-0.276,0-0.361c-0.056-0.085-0.166,0.054-0.235,0
	c-0.1-0.077-0.137-0.286-0.236-0.361c-0.036-0.028-0.442-0.017-0.71-0.008c-0.012-0.099-0.156,0.008-0.232,0.008
	c-0.106,0-0.635-0.055-0.707,0c-0.099,0.075-0.136,0.285-0.235,0.361c-0.148,0.114-1.029-0.114-1.179,0
	c-0.099,0.076-0.136,0.284-0.235,0.361c-0.071,0.055-0.601,0-0.706,0h-1.414c-0.237,0-1.284-0.066-1.414,0
	c-0.105,0.054-0.136,0.285-0.235,0.361c-0.144,0.111-1.271-0.109-1.414,0c-0.1,0.077-0.136,0.286-0.235,0.363
	c-0.072,0.054-0.601,0-0.707,0h-1.414c-0.105,0-0.635-0.056-0.707,0c-0.099,0.076-0.136,0.284-0.235,0.361
	c-0.143,0.109-1.271-0.109-1.414,0c-0.099,0.076-0.136,0.285-0.235,0.361c-0.141,0.108-0.36-0.169-0.472,0
	c-0.055,0.085,0.057,0.277,0,0.361c-0.117,0.181-0.589-0.18-0.706,0c-0.056,0.085,0.055,0.277,0,0.363
	c-0.111,0.17-0.331-0.108-0.471,0c-0.099,0.076-0.136,0.284-0.235,0.361c-0.141,0.108-0.36-0.171-0.472,0
	c-0.056,0.085,0.056,0.275,0,0.361c-0.11,0.171-0.359-0.171-0.471,0c-0.056,0.085,0.055,0.277,0,0.361
	c-0.111,0.171-0.36-0.169-0.472,0c-0.056,0.087,0.056,0.277,0,0.363c-0.111,0.17-0.36-0.171-0.471,0
	c-0.056,0.085,0.055,0.275,0,0.361c-0.111,0.171-0.331-0.108-0.472,0c-0.1,0.076-0.137,0.286-0.235,0.361
	c-0.07,0.054-0.18-0.084-0.236,0c-0.055,0.085,0.057,0.277,0,0.363c-0.11,0.169-0.33-0.108-0.471,0
	c-0.1,0.075-0.137,0.284-0.235,0.361c-0.07,0.054-0.166-0.054-0.236,0c-0.099,0.076-0.136,0.285-0.235,0.362
	c-0.07,0.054-0.165-0.055-0.235,0c-0.1,0.076-0.137,0.284-0.236,0.362c-0.14,0.108-0.33-0.109-0.471,0
	c-0.1,0.075-0.137,0.285-0.235,0.361c-0.07,0.054-0.166-0.054-0.236,0c-0.099,0.077-0.136,0.285-0.235,0.361
	c-0.07,0.054-0.165-0.054-0.235,0c-0.1,0.076-0.137,0.284-0.235,0.361c-0.07,0.054-0.166-0.054-0.236,0
	c-0.1,0.076-0.136,0.286-0.235,0.362c-0.07,0.052-0.181-0.085-0.236,0c-0.055,0.085,0.056,0.276,0,0.361
	c-0.11,0.171-0.359-0.17-0.471,0c-0.056,0.085,0.056,0.276,0,0.361c-0.111,0.17-0.331-0.108-0.471,0
	c-0.101,0.076-0.137,0.286-0.236,0.361c-0.141,0.108-0.359-0.169-0.472,0c-0.055,0.085,0.057,0.277,0,0.362
	c-0.055,0.084-0.18-0.085-0.235,0c-0.056,0.084,0.056,0.276,0,0.361c-0.11,0.171-0.36-0.17-0.471,0
	c-0.056,0.085,0.056,0.276,0,0.361c-0.111,0.17-0.36-0.171-0.471,0c-0.055,0.085,0.055,0.277,0,0.362
	c-0.055,0.084-0.181-0.085-0.235,0c-0.056,0.084,0.055,0.275,0,0.361c-0.056,0.085-0.166-0.054-0.236,0
	c-0.099,0.077-0.136,0.285-0.235,0.361c-0.07,0.054-0.165-0.054-0.235,0c-0.198,0.152-0.272,0.57-0.472,0.723
	c-0.069,0.054-0.165-0.054-0.235,0c-0.099,0.075-0.136,0.285-0.235,0.359c-0.07,0.056-0.18-0.083-0.236,0
	c-0.055,0.085,0.057,0.277,0,0.363c-0.055,0.083-0.164-0.054-0.234,0c-0.1,0.076-0.137,0.285-0.236,0.361
	c-0.07,0.054-0.181-0.085-0.235,0c-0.056,0.085,0.055,0.275,0,0.361c-0.111,0.171-0.331-0.108-0.472,0
	c-0.099,0.077-0.136,0.286-0.235,0.361c-0.07,0.054-0.18-0.084-0.236,0c-0.055,0.085,0.036,0.254,0,0.362
	c-0.05,0.153-0.186,0.208-0.234,0.361c-0.036,0.108,0.055,0.277,0,0.361c-0.057,0.085-0.181-0.083-0.236,0
	c-0.056,0.085,0.056,0.277,0,0.363c-0.056,0.083-0.165-0.054-0.235,0c-0.199,0.151-0.272,0.569-0.472,0.722
	c-0.07,0.054-0.165-0.054-0.235,0c-0.199,0.153-0.272,0.571-0.472,0.724c-0.07,0.054-0.165-0.054-0.235,0
	c-0.198,0.153-0.272,0.569-0.472,0.722c-0.07,0.054-0.165-0.054-0.235,0c-0.198,0.153-0.272,0.571-0.471,0.724
	c-0.318,0.244-0.279,0.088-0.219-0.036c-0.047,0.078-0.125,0.201-0.252,0.397c-0.07,0.054-0.18-0.085-0.236,0
	c-0.055,0.085,0.057,0.276,0,0.361c-0.11,0.171-0.359-0.169-0.471,0c-0.314,0.482,0.393,0.363-0.235,0.363
	c-0.056,0.084,0.056,0.275,0,0.361s-0.165-0.054-0.235,0c-0.1,0.076-0.137,0.285-0.236,0.361c-0.07,0.054-0.18-0.083-0.235,0
	c-0.056,0.085,0.056,0.277,0,0.363c-0.11,0.169-0.36-0.171-0.471,0c-0.057,0.083,0.055,0.275,0,0.361
	c-0.118,0.18-0.589-0.181-0.707,0c-0.056,0.085,0,0.241,0,0.361c-0.079,0-0.181-0.085-0.236,0c-0.055,0.085,0.056,0.277,0,0.361
	c-0.11,0.171-0.36-0.169-0.471,0c-0.056,0.085,0.056,0.277,0,0.363c-0.056,0.084-0.165-0.054-0.235,0
	c-0.1,0.076-0.137,0.285-0.236,0.361c-0.07,0.054-0.165-0.054-0.235,0c-0.1,0.076-0.137,0.285-0.236,0.361
	c-0.14,0.108-0.359-0.17-0.471,0c-0.056,0.085,0.056,0.277,0,0.361c-0.111,0.17-0.36-0.169-0.471,0
	c-0.057,0.085,0.055,0.277,0,0.362c-0.057,0.084-0.166-0.054-0.236,0c-0.1,0.076-0.136,0.285-0.235,0.361
	c-0.141,0.108-0.331-0.108-0.472,0c-0.198,0.153-0.272,0.571-0.471,0.724c-0.07,0.052-0.165-0.054-0.235,0
	c-0.1,0.075-0.137,0.285-0.236,0.361c-0.141,0.108-0.36-0.171-0.472,0c-0.055,0.085,0.057,0.275,0,0.361
	c-0.11,0.171-0.33-0.108-0.471,0c-0.1,0.077-0.137,0.285-0.235,0.361c-0.07,0.054-0.166-0.052-0.235,0
	c-0.1,0.077-0.137,0.286-0.236,0.361c-0.07,0.055-0.165-0.053-0.235,0c-0.1,0.078-0.157,0.241-0.235,0.362
	c-0.079,0-0.166-0.054-0.236,0c-0.099,0.077-0.136,0.285-0.235,0.361c-0.07,0.054-0.165-0.054-0.235,0
	c-0.1,0.077-0.137,0.286-0.236,0.363c-0.141,0.108-0.33-0.109-0.471,0c-0.1,0.075-0.137,0.284-0.235,0.361
	c-0.07,0.054-0.166-0.054-0.236,0c-0.099,0.076-0.136,0.285-0.235,0.361c-0.141,0.108-0.36-0.17-0.472,0
	c-0.055,0.085,0.056,0.276,0,0.361c-0.11,0.171-0.359-0.169-0.47,0c-0.056,0.085,0.056,0.277,0,0.363
	c-0.056,0.084-0.165-0.054-0.235,0c-0.1,0.075-0.137,0.285-0.236,0.361c-0.07,0.054-0.165-0.054-0.235,0
	c-0.1,0.076-0.157,0.241-0.235,0.361c-0.079,0.122-0.137,0.285-0.236,0.363c-0.069,0.052-0.165-0.056-0.235,0
	c-0.1,0.075-0.136,0.284-0.235,0.361c-0.07,0.054-0.165-0.054-0.235,0c-0.1,0.075-0.137,0.285-0.236,0.361
	c-0.07,0.054-0.165-0.054-0.235,0c-0.98,0.752,0.252-0.025-0.235,0.724c-0.111,0.169-0.331-0.108-0.472,0
	c-0.1,0.075-0.137,0.285-0.235,0.361c-0.07,0.054-0.165-0.054-0.235,0c-0.283,0.216-0.425,0.867-0.707,1.084
	c-0.07,0.054-0.165-0.054-0.236,0c-0.099,0.076-0.136,0.285-0.235,0.361c-0.07,0.054-0.165-0.054-0.235,0
	c-0.1,0.077-0.136,0.285-0.235,0.361c-0.07,0.054-0.166-0.054-0.236,0c-0.1,0.077-0.136,0.286-0.235,0.363
	c-0.07,0.054-0.18-0.085-0.235,0c-0.056,0.084,0.056,0.275,0,0.361s-0.166-0.054-0.236,0c-0.099,0.076-0.136,0.285-0.235,0.361
	c-0.141,0.108-0.331-0.108-0.471,0c-0.1,0.077-0.137,0.285-0.236,0.361c-0.07,0.054-0.165-0.053-0.235,0
	c-0.1,0.076-0.137,0.286-0.235,0.361c-0.07,0.055-0.166-0.053-0.236,0c-0.099,0.076-0.136,0.286-0.235,0.362
	c-0.07,0.054-0.165-0.054-0.235,0c-0.1,0.076-0.137,0.286-0.235,0.361c-0.094,0.071-0.659-0.073-0.707,0
	c-0.056,0.085,0.055,0.276,0,0.362c-0.048,0.073-0.613-0.072-0.707,0c-0.099,0.075-0.136,0.284-0.235,0.36
	c-0.141,0.108-0.36-0.17-0.472,0c-0.056,0.086,0.056,0.276,0,0.361c-0.048,0.075-0.613-0.072-0.707,0
	c-0.099,0.076-0.136,0.286-0.235,0.361c-0.188,0.146-0.519-0.144-0.707,0c-0.1,0.076-0.136,0.286-0.235,0.362
	c-0.148,0.113-0.794-0.114-0.942,0c-0.1,0.076-0.137,0.284-0.235,0.361c-0.094,0.071-0.659-0.074-0.708,0
	c-0.055,0.085,0.056,0.275,0,0.362c-0.048,0.073-0.612-0.072-0.706,0c-0.1,0.074-0.137,0.284-0.235,0.36
	c-0.141,0.108-0.36-0.171-0.472,0c-0.056,0.086,0.056,0.276,0,0.361c-0.11,0.171-0.331-0.107-0.471,0
	c-0.1,0.076-0.137,0.284-0.236,0.361c-0.07,0.054-0.18-0.086-0.235,0c-0.056,0.085,0.056,0.276,0,0.36
	c-0.056,0.086-0.166-0.054-0.235,0c-0.1,0.076-0.137,0.286-0.236,0.362c-0.14,0.108-0.36-0.17-0.471,0
	c-0.056,0.084,0.056,0.276,0,0.361c-0.157,0.241-0.314-0.241-0.472,0c-0.056,0.085,0.056,0.275,0,0.361
	c-0.111,0.171-0.331-0.108-0.472,0c-0.099,0.076-0.136,0.284-0.235,0.362c-0.07,0.053-0.18-0.086-0.235,0
	c-0.056,0.084,0.056,0.275,0,0.36c-0.056,0.086-0.165-0.054-0.235,0c-0.1,0.077-0.137,0.285-0.235,0.361
	c-0.141,0.108-0.36-0.171-0.471,0c-0.056,0.086,0.056,0.277,0,0.361c-0.056,0.085-0.157,0-0.235,0h-1.179
	c-0.078,0-0.18-0.084-0.235,0c-0.056,0.085,0.056,0.276,0,0.362c-0.056,0.084-0.18-0.086-0.235,0c-0.056,0.084,0.056,0.275,0,0.361
	c-0.056,0.085-0.166-0.055-0.236,0c-0.099,0.076-0.136,0.284-0.235,0.36c-0.314,0.241-0.28,0.092-0.221-0.032
	c-0.048,0.079-0.124,0.2-0.25,0.394c-0.188,0.146-0.519-0.144-0.707,0c-0.1,0.076-0.137,0.286-0.236,0.362
	c-0.069,0.054-0.18-0.085-0.235,0c-0.056,0.084,0.056,0.275,0,0.361c-0.11,0.17-0.33-0.108-0.471,0
	c-0.1,0.076-0.137,0.286-0.236,0.36c-0.141,0.108-0.33-0.107-0.471,0c-0.1,0.076-0.137,0.286-0.235,0.362
	c-0.188,0.145-0.519-0.145-0.707,0c-0.1,0.075-0.137,0.285-0.236,0.361c-0.14,0.107-0.33-0.107-0.471,0
	c-0.1,0.076-0.137,0.284-0.235,0.361c-0.188,0.145-0.519-0.145-0.707,0c-0.1,0.076-0.137,0.286-0.235,0.36
	c-0.163,0.126-1.096-0.126-1.179,0c-0.056,0.086,0.056,0.277,0,0.361c-0.008,0.012-0.649,0-0.707,0H9.368
	c-0.105,0-0.635-0.054-0.706,0c-0.1,0.076-0.137,0.286-0.236,0.362c-0.07,0.054-0.157,0-0.235,0H6.541c-0.078,0-0.18-0.085-0.235,0
	s0.056,0.275,0,0.361c-0.058,0.087-0.887-0.087-0.942,0c-0.056,0.085,0.055,0.275,0,0.36c-0.157,0.241-0.314-0.239-0.472,0
	c-0.056,0.087,0.056,0.277,0,0.362c-0.056,0.086-0.18-0.085-0.235,0c-0.056,0.086,0.056,0.276,0,0.361
	c-0.487,0.747,0.019-1.143-0.472,0.361c-0.035,0.107,0.056,0.276,0,0.362c-0.056,0.084-0.18-0.086-0.235,0
	c-0.056,0.084,0.056,0.275,0,0.361c-0.111,0.169-0.36-0.171-0.472,0c-0.055,0.085,0.056,0.275,0,0.36
	c-0.055,0.086-0.18-0.085-0.235,0c-0.056,0.086,0.056,0.275,0,0.361c-0.056,0.085-0.181-0.086-0.235,0
	c-0.056,0.085,0.055,0.277,0,0.362c-0.056,0.085-0.18-0.085-0.236,0c-0.055,0.084,0.057,0.275,0,0.361
	c-0.11,0.17-0.33-0.108-0.471,0c-0.198,0.152-0.272,0.57-0.472,0.723c-0.07,0.053-0.156,0-0.235,0H0.415
	c-0.157,0-0.331-0.107-0.472,0c-0.07,0.053,0.056,0.276,0,0.361s-0.165-0.054-0.235,0c-0.1,0.076-0.137,0.284-0.235,0.361
	c-0.003,0.002-0.016,0.002-0.02,0.004v36.675h126.494V72.223z"/>
</svg>
