<?xml version="1.0" encoding="utf-8"?>
<!-- Generator: Adobe Illustrator 15.0.2, SVG Export Plug-In . SVG Version: 6.00 Build 0)  -->
<!DOCTYPE svg PUBLIC "-//W3C//DTD SVG 1.1//EN" "http://www.w3.org/Graphics/SVG/1.1/DTD/svg11.dtd">
<svg version="1.1" id="Ebene_1" xmlns="http://www.w3.org/2000/svg" xmlns:xlink="http://www.w3.org/1999/xlink" x="0px" y="0px"
	 width="1024px" height="1024px" viewBox="0 0 1024 1024" enable-background="new 0 0 1024 1024" xml:space="preserve">
<g transform="scale(0.03125 0.03125)">
	<path d="M9482.047,4613.555H19219v1947.406H9482.047V4613.555z M9482.047,10455.742H19219v1947.406H9482.047V10455.742z
		 M9482.047,16297.93H19219v1947.375H9482.047V16297.93z M3639.875,5587.273c0-1075.438,871.953-1947.406,1947.391-1947.406
		s1947.391,871.969,1947.391,1947.406s-871.953,1947.375-1947.391,1947.375S3639.875,6662.711,3639.875,5587.273z
		 M3639.875,11429.43c0-1075.438,871.953-1947.375,1947.391-1947.375s1947.391,871.938,1947.391,1947.375
		s-871.953,1947.406-1947.391,1947.406S3639.875,12504.867,3639.875,11429.43z M3639.875,17271.617
		c0-1075.438,871.953-1947.375,1947.391-1947.375s1947.391,871.938,1947.391,1947.375s-871.953,1947.406-1947.391,1947.406
		S3639.875,18347.055,3639.875,17271.617z"/>
</g>
</svg>
