<?xml version="1.0" encoding="utf-8"?>
<!-- Generator: Adobe Illustrator 15.0.2, SVG Export Plug-In . SVG Version: 6.00 Build 0)  -->
<!DOCTYPE svg PUBLIC "-//W3C//DTD SVG 1.1//EN" "http://www.w3.org/Graphics/SVG/1.1/DTD/svg11.dtd">
<svg version="1.1"
	 id="svg2" xmlns:svg="http://www.w3.org/2000/svg" xmlns:rdf="http://www.w3.org/1999/02/22-rdf-syntax-ns#" xmlns:cc="http://creativecommons.org/ns#" xmlns:dc="http://purl.org/dc/elements/1.1/"
	 xmlns="http://www.w3.org/2000/svg" xmlns:xlink="http://www.w3.org/1999/xlink" x="0px" y="0px" width="14px" height="14px"
	 viewBox="0 0 14 14" enable-background="new 0 0 14 14" xml:space="preserve">
<rect id="canvas" display="none" fill="none" width="14" height="14"/>
<g>
	<polygon fill="#339985" points="12,9 8,9 8,12 12,12 14,10.5 	"/>
	<polygon fill="#339985" points="0,7.5 2,9 6,9 6,6 2,6 	"/>
	<path fill="#339985" d="M7.593,5.442L7.495,4.485l-0.32-1.18l0.95,0.83l0.91,0.66l0.59-1l-1.04-0.47l-1.22-0.34l1.22-0.36
		l1.021-0.51l-0.58-0.96l-0.95,0.67l-0.9,0.84l0.27-1.18l0.1-1.16h-1.17l0.12,1.19l0.32,1.18l-0.93-0.84l-0.95-0.67l-0.55,0.97
		l1.04,0.49l1.2,0.34l-1.2,0.37l-1.03,0.51l0.58,0.97l0.93-0.68l0.9-0.86l-0.26,1.19L6.477,5.379C6.341,5.461,6.25,5.581,6.25,5.741
		v8.509h1.5V5.741C7.75,5.614,7.683,5.52,7.593,5.442z"/>
</g>
</svg>
