<?xml version="1.0" encoding="utf-8"?>
<!-- Generator: Adobe Illustrator 15.0.2, SVG Export Plug-In . SVG Version: 6.00 Build 0)  -->
<!DOCTYPE svg PUBLIC "-//W3C//DTD SVG 1.1//EN" "http://www.w3.org/Graphics/SVG/1.1/DTD/svg11.dtd">
<svg version="1.1"
	 id="svg2" xmlns:svg="http://www.w3.org/2000/svg" xmlns:rdf="http://www.w3.org/1999/02/22-rdf-syntax-ns#" xmlns:cc="http://creativecommons.org/ns#" xmlns:dc="http://purl.org/dc/elements/1.1/"
	 xmlns="http://www.w3.org/2000/svg" xmlns:xlink="http://www.w3.org/1999/xlink" x="0px" y="0px" width="16px" height="16px"
	 viewBox="0 0 16 16" enable-background="new 0 0 16 16" xml:space="preserve">
<rect id="canvas" display="none" fill="none" width="16" height="16"/>
<g>
	<g>
		<path fill="#95CC0D" d="M14.688,3.994c-0.427-0.43-0.901-0.736-1.398-0.949c-0.094-0.296-0.215-0.583-0.37-0.851
			c-0.259-0.445-0.586-0.804-0.941-1.113c-0.887,2.82,0.738,6.373-3.228,6.856V13.5C8.75,11.945,11.003,9,14,9
			c-1.355,0.903-1.69,2.214-2.02,3.381c0.927-0.572,1.827-1.227,2.707-1.985C16.552,8.791,16.319,5.637,14.688,3.994z M11.906,1.017
			C10.493-0.158,8.482-0.31,6.768,0.57C6.146,0.889,5.529,1.255,4.934,1.659C5.642,2.542,6.25,4,6.25,4S7,2,8,1c1,1,1.75,3,1.75,3
			S10.924,1.19,11.906,1.017z M4.252,2.148C1.66,4.113-0.325,6.905,0.044,10.363c0.241,2.255,1.87,4.79,4.496,4.527
			c0.357-0.036,0.702-0.091,1.048-0.146C3.497,13.845,4.554,10.702,2,9c2.997,0,5.25,3.034,5.25,4.5V7.938
			C3.762,7.5,4.592,4.726,4.252,2.148z"/>
	</g>
</g>
</svg>
