<?xml version="1.0" encoding="utf-8"?>
<!-- Generator: Adobe Illustrator 15.0.2, SVG Export Plug-In . SVG Version: 6.00 Build 0)  -->
<!DOCTYPE svg PUBLIC "-//W3C//DTD SVG 1.1//EN" "http://www.w3.org/Graphics/SVG/1.1/DTD/svg11.dtd">
<svg version="1.1"
	 id="svg2" xmlns:svg="http://www.w3.org/2000/svg" xmlns:rdf="http://www.w3.org/1999/02/22-rdf-syntax-ns#" xmlns:cc="http://creativecommons.org/ns#" xmlns:dc="http://purl.org/dc/elements/1.1/"
	 xmlns="http://www.w3.org/2000/svg" xmlns:xlink="http://www.w3.org/1999/xlink" x="0px" y="0px" width="14px" height="14px"
	 viewBox="0 0 14 14" enable-background="new 0 0 14 14" xml:space="preserve">
<rect id="canvas" display="none" fill="none" width="14" height="14"/>
<g>
	<g>
		<path fill="#00B1CC" d="M12,4h-2V3c0-1-1.01-2-2-2H6C5,1,4,2.021,4,3v1H2C0.644,4,0,4.644,0,6v5c0,1.356,0.749,2,2,2h10
			c1.252,0,2-0.748,2-2V6C14,4.686,13.377,4,12,4z M5.25,3.5c0-0.629,0.306-1.25,1.25-1.25h1c0.859,0,1.25,0.6,1.25,1.25V4h-3.5V3.5
			z M9.035,10.08l-0.91-0.66l-0.95-0.83l0.32,1.18l0.12,1.181h-1.16l0.09-1.181l0.26-1.189L5.905,9.439L4.975,10.12L4.396,9.15
			l1.029-0.51l1.2-0.371l-1.2-0.34l-1.04-0.49l0.551-0.97l0.949,0.67l0.931,0.84L6.495,6.8l-0.12-1.19h1.17l-0.1,1.16L7.175,7.95
			l0.9-0.84l0.95-0.67l0.58,0.96L8.585,7.91L7.365,8.27l1.22,0.34l1.04,0.471L9.035,10.08z"/>
	</g>
</g>
</svg>
