<?xml version="1.0" encoding="utf-8"?>
<!-- Generator: Adobe Illustrator 13.0.2, SVG Export Plug-In . SVG Version: 6.00 Build 14948)  -->
<!DOCTYPE svg PUBLIC "-//W3C//DTD SVG 1.0//EN" "http://www.w3.org/TR/2001/REC-SVG-20010904/DTD/svg10.dtd">
<svg version="1.0"
	 id="svg2" xmlns:dc="http://purl.org/dc/elements/1.1/" xmlns:cc="http://web.resource.org/cc/" xmlns:rdf="http://www.w3.org/1999/02/22-rdf-syntax-ns#" xmlns:svg="http://www.w3.org/2000/svg" xmlns:sodipodi="http://sodipodi.sourceforge.net/DTD/sodipodi-0.dtd" xmlns:inkscape="http://www.inkscape.org/namespaces/inkscape" sodipodi:version="0.32" sodipodi:docname="Handicapped Accessible sign (Outline).svg" sodipodi:docbase="C:\Documents and Settings\ltljltlj\Desktop\Signs\Guide Signs" inkscape:version="0.44"
	 xmlns="http://www.w3.org/2000/svg" xmlns:xlink="http://www.w3.org/1999/xlink" x="0px" y="0px" width="451px" height="451px"
	 viewBox="0 0 451 451" enable-background="new 0 0 451 451" xml:space="preserve">
<sodipodi:namedview  width="451px" height="451px" id="base" objecttolerance="10" guidetolerance="10" gridtolerance="10000" borderopacity="1.0" bordercolor="#666666" inkscape:cy="225.5" pagecolor="#ffffff" inkscape:cx="225.5" inkscape:zoom="1.7117517" inkscape:window-y="-4" inkscape:window-x="-4" inkscape:window-height="968" inkscape:window-width="1280" inkscape:current-layer="layer1" inkscape:document-units="px" inkscape:pageshadow="2" inkscape:pageopacity="0.0">
	</sodipodi:namedview>
<g id="layer1" inkscape:label="Layer 1" inkscape:groupmode="layer">
	<path id="rect1872" fill="#FFFFFF" stroke="#000000" d="M38,0.5h375c20.775,0,37.5,16.725,37.5,37.5v375
		c0,20.772-16.725,37.5-37.5,37.5H38c-20.772,0-37.5-16.728-37.5-37.5V38C0.5,17.225,17.225,0.5,38,0.5z"/>
	<path id="rect2760" fill="#0EBA00" d="M38,13h375c13.853,0,25,11.147,25,25v375c0,13.85-11.147,25-25,25H38
		c-13.85,0-25-11.15-25-25V38C13,24.15,24.15,13,38,13z"/>
	<path id="path1938" fill="#FFFFFF" d="M204.273,323.287c-8.012-0.71-15.221-2.207-22.313-4.635
		c-32.416-11.093-56.479-39.868-62.089-74.253c-0.327-2.01-0.719-4.793-0.869-6.185c-0.365-3.402-0.363-15.383,0.003-18.765
		c1.221-11.222,4.15-21.656,8.884-31.625c8.967-18.892,23.803-34.325,41.961-43.654l2.624-1.35l0.118,1.103
		c0.128,1.154,1.967,25.964,1.967,26.513c0,0.174-0.766,0.837-1.697,1.475c-3.951,2.691-8.72,6.979-11.959,10.749
		c-9.054,10.536-14.473,22.512-16.603,36.686c-0.393,2.614-0.461,3.942-0.472,9.172c-0.014,6.284,0.146,8.454,0.938,12.755
		c2.599,14.11,8.853,26.228,18.773,36.377c3.448,3.527,6.348,5.95,10.456,8.744c15.843,10.77,35.478,14.063,53.962,9.055
		c4.504-1.22,8.055-2.647,13.322-5.364c14.105-7.272,25.841-20.377,31.813-35.526c1.777-4.513,3.34-10.225,4.009-14.671
		c0.199-1.324,0.41-2.406,0.469-2.404c0.059,0,3.731,7.614,8.162,16.919l8.056,16.917l-1.043,1.993
		c-10.825,20.687-29.604,37.025-51.566,44.873c-6.855,2.45-12.834,3.854-20.459,4.804
		C217.599,323.377,207.386,323.563,204.273,323.287z M315.266,291.842c-0.214-0.505-8.709-20.911-18.878-45.35l-18.489-44.436
		h-46.017c-25.309,0-46.021-0.021-46.031-0.053c-0.014-0.029-2.039-29.037-4.51-64.463l-4.486-64.41l-0.723-1.613
		c-1.452-3.245-2.178-6.345-2.328-9.981c-0.529-12.559,8.186-23.719,20.438-26.175c2.631-0.525,6.745-0.476,9.514,0.119
		c7.49,1.608,13.777,6.522,17.237,13.472c1.938,3.89,2.755,7.34,2.76,11.636c0.011,8.193-3.675,15.657-10.229,20.717
		c-3.001,2.318-7.828,4.368-11.09,4.711l-1.314,0.138l0.093,1.079c0.112,1.301,2.751,49.652,2.751,50.411v0.532h32.182h32.181
		v12.018v12.019h-30.978H206.37l0.121,1.529c0.064,0.84,0.329,4.543,0.586,8.228l0.465,6.7l8.544-0.116
		c19.265-0.261,76.974-0.551,77.116-0.387c0.086,0.096,8.335,19.553,18.329,43.234c9.995,23.686,18.246,43.063,18.335,43.063
		c0.09,0.001,6.325-2.277,13.857-5.063c7.531-2.786,13.741-5.017,13.801-4.956c0.272,0.278,7.582,18.366,7.47,18.48
		c-0.127,0.129-48.339,19.549-48.998,19.735C315.753,292.73,315.549,292.501,315.266,291.842z"/>
</g>
<g enable-background="new    ">
	<path fill="#FFFFFF" d="M166.586,380.844c0,8.344-2.391,14.971-7.172,19.881s-11.391,7.365-19.828,7.365
		c-8.415,0-15.012-2.455-19.793-7.365c-4.78-4.91-7.172-11.537-7.172-19.881c0-8.414,2.392-15.064,7.172-19.951
		c4.781-4.887,11.378-7.33,19.793-7.33c8.391,0,14.988,2.443,19.793,7.33S166.586,372.43,166.586,380.844z M148.692,394.098
		c1.313-1.594,2.285-3.475,2.918-5.643s0.949-4.718,0.949-7.646c0-3.141-0.364-5.813-1.09-8.016
		c-0.728-2.203-1.677-3.984-2.849-5.344c-1.195-1.406-2.572-2.427-4.131-3.06s-3.182-0.949-4.869-0.949
		c-1.711,0-3.322,0.306-4.834,0.914c-1.512,0.609-2.899,1.617-4.166,3.023c-1.172,1.313-2.127,3.123-2.865,5.432
		c-0.737,2.31-1.106,4.986-1.106,8.033c0,3.117,0.356,5.771,1.072,7.963c0.715,2.191,1.657,3.979,2.829,5.361
		c1.173,1.383,2.544,2.401,4.113,3.059c1.57,0.656,3.223,0.984,4.957,0.984s3.387-0.334,4.957-1.002
		C146.148,396.541,147.519,395.504,148.692,394.098z"/>
	<path fill="#FFFFFF" d="M224.488,407h-13.007l-22.219-35.931V407h-12.375v-52.349h16.137l19.09,29.988v-29.988h12.375L224.488,407
		L224.488,407z"/>
	<path fill="#FFFFFF" d="M275.605,407h-37.758v-52.349h13.5v42.224h24.258V407z"/>
	<path fill="#FFFFFF" d="M329.781,354.653L310.48,386.75V407h-13.5v-19.617l-19.617-32.73h15.371l11.285,20.192l10.912-20.192
		H329.781L329.781,354.653z"/>
</g>
</svg>
