<?xml version="1.0" encoding="utf-8"?>
<!-- Generator: Adobe Illustrator 15.0.2, SVG Export Plug-In . SVG Version: 6.00 Build 0)  -->
<!DOCTYPE svg PUBLIC "-//W3C//DTD SVG 1.1//EN" "http://www.w3.org/Graphics/SVG/1.1/DTD/svg11.dtd">
<svg version="1.1" id="Ebene_1" xmlns="http://www.w3.org/2000/svg" xmlns:xlink="http://www.w3.org/1999/xlink" x="0px" y="0px"
	 width="1024px" height="140px" viewBox="0 0 1024 140" enable-background="new 0 0 1024 140" xml:space="preserve">
<g>
	<path fill="#FFFFFF" d="M172.058,37.282c1.378,1.417,3.217,2.197,5.181,2.197h9.864V25h-9.864c-1.942,0-3.763,0.751-5.127,2.112
		l-0.004,0.002c-1.347,1.351-2.097,3.157-2.107,5.094l0.005,0.226C170.058,34.252,170.78,35.963,172.058,37.282z"/>
	<g>
		<g>
			<path fill="#FFFFFF" d="M289.148,45.182H179.934c-5.485,0-9.933,4.527-9.933,10.109v63.602c0,5.582,4.448,10.107,9.933,10.107
				h109.215c5.485,0,9.933-4.525,9.933-10.107V55.291C299.081,49.709,294.634,45.182,289.148,45.182z M234.848,113.416
				c-14.473,0-26.206-11.733-26.206-26.205c0-14.474,11.733-26.207,26.206-26.207c14.473,0,26.205,11.733,26.205,26.207
				C261.053,101.683,249.321,113.416,234.848,113.416z"/>
		</g>
	</g>
	<circle fill="#FFFFFF" cx="234.541" cy="87.092" r="18.719"/>
</g>
<g>
	<path fill="#FFFFFF" d="M397.722,129.002c5.374,0,9.751-4.372,9.751-9.75V72.963c0-5.378-4.374-9.751-9.751-9.751h-86.97
		c-5.378,0-9.751,4.374-9.751,9.751v46.289c0,5.378,4.374,9.75,9.751,9.75H397.722z M324.01,99.262V80.678
		c0-1.974,1.605-3.577,3.576-3.577h53.302c1.968,0,3.578,1.604,3.578,3.577v18.584c0,1.973-1.609,3.573-3.578,3.573h-53.302
		C325.615,102.835,324.01,101.234,324.01,99.262z"/>
	<polygon fill="#FFFFFF" points="414.625,105.309 437.982,115 437.982,77.209 414.625,86.905 	"/>
	<path fill="#FFFFFF" d="M328.636,20.788c-9.724,0-17.634,7.91-17.634,17.639c0,9.719,7.91,17.629,17.634,17.629
		c9.724,0,17.636-7.91,17.636-17.629C346.272,28.698,338.36,20.788,328.636,20.788z"/>
	<path fill="#FFFFFF" d="M378.079,6.75c-13.595,0-24.653,11.065-24.653,24.658c0,13.593,11.059,24.654,24.653,24.654
		c13.597,0,24.658-11.061,24.658-24.654C402.736,17.815,391.676,6.75,378.079,6.75z M378.079,44.81
		c-7.39,0-13.397-6.014-13.397-13.402c0-7.392,6.007-13.402,13.397-13.402c7.388,0,13.397,6.01,13.397,13.402
		C391.476,38.795,385.466,44.81,378.079,44.81z"/>
	<path fill="#FFFFFF" d="M378.079,25.157c3.451,0,6.251,2.796,6.251,6.251c0,3.451-2.8,6.246-6.251,6.246
		c-3.45,0-6.251-2.795-6.251-6.246C371.828,27.953,374.628,25.157,378.079,25.157z"/>
	<rect x="331.161" y="84.251" fill="#FFFFFF" width="46.149" height="11.438"/>
</g>
<g>
	<path fill="#FFFFFF" d="M83.24,52.19c0-3.547-2.885-6.432-6.435-6.432H54.783l-0.935,0.124l-0.654,0.873
		c-0.234,0.351-0.485,0.697-0.746,1.032l-0.332,0.44c-0.381,0.462-0.785,0.912-1.222,1.341l-5.751,5.755
		c-0.322,0.323-0.678,0.615-1.075,0.87c-0.101,0.045-0.202,0.098-0.345,0.183c-0.264,0.153-0.526,0.312-0.811,0.43
		c-0.124,0.045-0.25,0.078-0.379,0.111l-0.62,0.182c-0.085,0.026-0.166,0.059-0.251,0.078c-0.166,0.029-0.334,0.036-0.501,0.045
		l-0.606,0.056c-0.063,0.01-0.128,0.022-0.191,0.022H40.29c-0.306-0.006-0.608-0.059-0.906-0.097
		c-0.107-0.013-0.214-0.023-0.325-0.026c-0.325-0.062-0.641-0.176-0.958-0.287c-0.103-0.036-0.208-0.065-0.295-0.078
		c-0.33-0.137-0.641-0.319-0.954-0.502l-0.229-0.117c-0.381-0.248-0.739-0.538-1.061-0.854l-6.163-6.171L15.763,62.804
		c-0.967,0.963-2.652,0.963-3.622,0c-0.997-1.003-0.997-2.625,0-3.622l13.421-13.424H6.432C2.886,45.758,0,48.644,0,52.193v70.375
		c0,3.547,2.884,6.434,6.432,6.434h46.657v-27.585c0-1.414,1.153-2.56,2.563-2.56H83.24V52.19z M73.294,59.28
		c0,0.668-0.28,1.329-0.766,1.814c-0.941,0.941-2.667,0.941-3.625-0.013c-0.462-0.449-0.736-1.124-0.736-1.801
		c0-0.677,0.274-1.341,0.75-1.814v-0.003c0.462-0.462,1.133-0.697,1.804-0.697s1.342,0.234,1.807,0.7
		C73.014,57.951,73.294,58.609,73.294,59.28z M11.394,81.902c0-1.413,1.149-2.563,2.562-2.563h33.641c1.41,0,2.563,1.15,2.563,2.563
		c0,1.41-1.153,2.559-2.563,2.559H13.955C12.543,84.461,11.394,83.312,11.394,81.902z M13.955,94.707h11.016
		c1.413,0,2.561,1.146,2.561,2.561c0,1.413-1.148,2.56-2.561,2.56H13.955c-1.412,0-2.562-1.146-2.562-2.56
		C11.394,95.854,12.543,94.707,13.955,94.707z"/>
	<path fill="#FFFFFF" d="M70.564,22.01c0.913,0,1.772-0.354,2.414-1c0.87-0.87,1-1.885,1-2.413c0-0.531-0.13-1.55-1-2.417
		L58.763,1.962c-1.293-1.284-3.54-1.284-4.83,0.006c-1.329,1.329-1.329,3.494-0.003,4.826l14.219,14.219
		C68.793,21.655,69.653,22.01,70.564,22.01z"/>
	<path fill="#FFFFFF" d="M22.055,34.62l18.332,18.296l6.899-6.979c1.107-1.091,1.987-2.361,2.615-3.765
		c0.785-1.703,1.186-3.514,1.186-5.396c0-0.596-0.042-1.211-0.127-1.833c-0.111-0.789,0.16-1.6,0.723-2.16l10.494-10.499l-9.52-9.51
		L42.155,23.261c-0.57,0.567-1.358,0.83-2.159,0.723c-4.015-0.567-8.095,0.788-10.995,3.674L22.055,34.62z"/>
	<polygon fill="#FFFFFF" points="79.615,100.976 58.215,100.976 58.215,122.375 	"/>
</g>
<g>
	<path fill="#FFFFFF" d="M99.027,100.992h69.214V25H99.027V100.992z M152.861,48.996v22.159c0,1.495-1.219,2.717-2.717,2.717
		h-33.021c-1.497,0-2.715-1.222-2.715-2.717V48.996c0-1.495,1.219-2.714,2.715-2.714h33.021
		C151.643,46.282,152.861,47.498,152.861,48.996z"/>
	<rect x="119.838" y="51.713" fill="#FFFFFF" width="27.593" height="16.726"/>
	<path fill="#FFFFFF" d="M93.598,101.172V28.01l-0.15-2.962l-2.673,1.45c-0.183,0.093-0.364,0.187-0.608,0.342
		c-0.104,0.062-0.205,0.125-0.304,0.193c-0.525,0.366-1.019,0.773-1.464,1.208c-0.074,0.072-0.145,0.152-0.257,0.276
		c-0.371,0.39-0.711,0.805-1.041,1.264c-0.088,0.124-0.18,0.249-0.264,0.38c-0.379,0.586-0.682,1.143-0.918,1.698
		c-0.037,0.083-0.066,0.166-0.086,0.231c-0.207,0.518-0.378,1.06-0.525,1.681c-0.038,0.166-0.074,0.331-0.107,0.507
		c-0.136,0.759-0.2,1.401-0.2,2.033v68.709l2.739-1.641c1.401-0.842,2.914-1.467,4.49-1.864L93.598,101.172z"/>
	<path fill="#FFFFFF" d="M85,117.731c0,6.238,5.075,11.313,11.311,11.313h71.929v-8.597H96.312c-1.497,0-2.713-1.222-2.713-2.717
		c0-1.494,1.217-2.717,2.713-2.717h71.929v-8.596H96.312C90.075,106.419,85,111.494,85,117.731z"/>
</g>
<rect x="524.983" y="18.441" transform="matrix(-0.707 -0.7072 0.7072 -0.707 874.9765 441.9932)" fill="#FFFFFF" width="8.112" height="42.641"/>
<rect x="545.082" y="10.794" transform="matrix(-0.7072 -0.707 0.707 -0.7072 931.2679 418.6434)" fill="#FFFFFF" width="14.489" height="11.364"/>
<path fill="#FFFFFF" d="M523.339,59.568l-4.078,4.078c-1.12,1.115-3.07,1.115-4.191,0l-9.926-9.927
	c-0.558-0.558-0.867-1.305-0.867-2.096c0-0.791,0.309-1.538,0.867-2.096l4.093-4.093l-2.772-1.116
	c-3.57-1.44-7.38-1.836-10.684-1.123c-4.927,1.07-8.606,4.497-10.64,9.917c-4.178,11.146-11.207,12.517-18.651,13.97
	c-5.12,1.004-10.414,2.036-16.703,5.95c-4.159,2.585-8.882,7.786-9.671,14.645c-0.847,7.337,2.943,15.446,10.958,23.468l6.573,6.568
	c7.284,7.285,14.639,11.077,21.408,11.077c0.691,0,1.377-0.037,2.058-0.12c6.856-0.784,12.061-5.511,14.647-9.672
	c3.908-6.291,4.942-11.582,5.943-16.703c1.457-7.44,2.829-14.47,13.972-18.649c5.423-2.033,8.85-5.714,9.914-10.641
	c0.717-3.292,0.313-7.083-1.134-10.669L523.339,59.568z M501.017,83.365c-2.079,2.079-4.849,3.227-7.8,3.227
	c-2.948,0-5.717-1.147-7.796-3.227c-2.081-2.077-3.227-4.846-3.227-7.796c0-2.949,1.146-5.721,3.227-7.797
	c2.148-2.149,4.975-3.222,7.798-3.222c2.825,0,5.646,1.071,7.796,3.219C505.313,72.068,505.313,79.068,501.017,83.365z
	 M483.605,99.55c0,0.787-0.309,1.53-0.866,2.096c-1.122,1.114-3.072,1.114-4.192,0L467.142,90.24c-1.153-1.158-1.153-3.037,0-4.191
	c0.562-0.558,1.305-0.867,2.097-0.867c0.792,0,1.537,0.31,2.096,0.867l11.405,11.405C483.296,98.013,483.605,98.758,483.605,99.55z"
	/>
<path fill="#FFFFFF" d="M489.613,71.96c-0.963,0.965-1.492,2.246-1.492,3.607c0,1.364,0.529,2.643,1.494,3.607
	c0.993,0.989,2.297,1.483,3.603,1.483c1.306,0,2.614-0.494,3.609-1.483c1.986-1.992,1.984-5.228-0.002-7.215
	C494.899,70.038,491.538,70.038,489.613,71.96z"/>
<path fill="#FFFFFF" d="M657.04,67.134l-0.709-0.533c-0.532-0.417-0.949-0.78-1.346-1.177c-0.367-0.352-0.794-0.846-1.204-1.405
	c-0.161-0.214-0.341-0.461-0.503-0.702c-0.804-1.209-1.401-2.53-1.785-3.934l-0.318-1.171l-1.21-0.084
	c-3.271-0.221-6.344-1.632-8.688-3.993c-0.371-0.351-0.793-0.846-1.199-1.398c-0.166-0.221-0.349-0.468-0.511-0.709
	c-0.78-1.164-1.365-2.432-1.743-3.785l-0.396-1.418l-1.457,0.182c-0.995,0.127-2.016,0.14-3.037,0.046l-0.406-0.055
	c-0.286-0.037-0.568-0.072-0.855-0.127l-0.468-0.104c-0.251-0.058-0.507-0.117-0.754-0.188c-0.153-0.045-0.307-0.091-0.488-0.153
	c-0.237-0.078-0.472-0.159-0.713-0.257c-0.158-0.062-0.321-0.13-0.472-0.195c-0.227-0.101-0.454-0.208-0.683-0.326
	c-0.149-0.075-0.298-0.149-0.441-0.23c-0.228-0.126-0.449-0.264-0.794-0.481l-0.292-0.185c-0.234-0.159-0.456-0.332-0.68-0.511
	l-1.383-1.115l-7.832,5.16l-0.943,0.647l0.211,1.119l0.053,0.214c0.149,0.481,0.247,0.982,0.345,1.496
	c0.022,0.11,0.048,0.221,0.11,0.494c0.104,0.689,0.159,1.372,0.159,2.036c0,7.505-6.109,13.605-13.62,13.605
	c-0.437,0-0.869-0.02-1.291-0.059l-0.43-0.058c-0.283-0.039-0.562-0.071-0.836-0.124l-0.488-0.111
	c-0.25-0.058-0.5-0.117-0.748-0.188c-0.152-0.039-0.298-0.091-0.493-0.156c-0.237-0.079-0.469-0.163-0.703-0.254
	c-0.163-0.065-0.324-0.13-0.484-0.202c-0.224-0.097-0.448-0.202-0.667-0.318c-0.158-0.078-0.312-0.156-0.464-0.241
	c-0.225-0.123-0.439-0.26-0.787-0.481l-0.284-0.182c-0.227-0.157-0.448-0.325-0.672-0.501l-1.421-1.197L571.979,78.6l88.931-8.825
	L657.04,67.134z"/>
<polygon fill="#FFFFFF" points="670.269,108.912 565,119.342 565,129.461 670.269,119.029 "/>
<path fill="#FFFFFF" d="M670.269,78.893l0.051-1.002l-1.138-0.617c-0.37-0.209-0.729-0.443-1.092-0.689l-0.237-0.15
	c-0.095-0.064-0.189-0.123-0.28-0.188c-0.409-0.312-0.797-0.65-1.174-1.008c-0.078-0.072-0.162-0.145-0.26-0.215l-0.569-0.574
	L565,84.434v29.766l105.269-10.438V78.893z M579.502,100.789c0,0.67-0.279,1.334-0.764,1.814c-0.94,0.941-2.68,0.924-3.606,0
	c-0.472-0.475-0.744-1.131-0.744-1.814c0-0.676,0.27-1.334,0.744-1.809c0.463-0.467,1.132-0.695,1.805-0.695
	c0.671,0,1.34,0.229,1.805,0.695C579.223,99.463,579.502,100.125,579.502,100.789z"/>
<path fill="#FFFFFF" d="M627.295,38.396c0.098,0.13,0.169,0.221,0.285,0.39c0.16,0.208,0.397,0.481,0.579,0.654
	c2.439,2.458,5.97,3.274,9.261,1.928c0.41-0.143,0.803-0.341,1.229-0.611c0.871-0.54,1.968-0.514,2.809,0.059
	c0.84,0.572,1.256,1.59,1.063,2.595c-0.055,0.286-0.087,0.663-0.081,1.313l1.698-0.117l0,0l-1.691,0.341
	c0.064,1.525,0.539,2.992,1.371,4.23c0.104,0.157,0.213,0.306,0.365,0.507c0.276,0.371,0.507,0.638,0.683,0.8
	c2.068,2.081,4.771,2.946,7.622,2.413l0.194-0.045c0.872-0.273,1.894-0.059,2.544,0.52c0.676,0.598,1.021,1.431,0.923,2.217
	l-0.014,0.299c0.014,1.639,0.498,3.232,1.398,4.591c0.098,0.143,0.208,0.299,0.352,0.481c0.283,0.384,0.514,0.65,0.684,0.807
	c1.665,1.678,3.765,2.562,6.073,2.562c1.301,0,2.458,0.962,2.634,2.191c0.182,1.262,0.624,2.426,1.353,3.512l0.339,0.461
	c0.256,0.352,0.49,0.618,0.669,0.787c0.279,0.279,0.569,0.54,0.869,0.768c0.903,0.709,1.901,1.211,2.945,1.477
	c0.767,0.215,1.506,0.318,2.26,0.318c4.689,0,8.507-3.811,8.507-8.493c0-1.678-0.495-3.304-1.412-4.669
	c-0.306-0.475-0.644-0.891-1.099-1.346c-0.387-0.39-0.852-0.767-1.378-1.119c-1.327-0.897-2.927-1.372-4.618-1.372
	c-1.301,0-2.458-0.962-2.634-2.192c-0.182-1.268-0.638-2.445-1.33-3.479c-0.309-0.482-0.646-0.898-1.099-1.346
	c-0.388-0.39-0.855-0.768-1.389-1.125c-1.327-0.898-2.924-1.373-4.617-1.373c-0.731,0-1.376,0.082-1.964,0.247
	c-0.806,0.228-1.678,0.042-2.328-0.494c-0.644-0.537-0.985-1.356-0.903-2.341v-0.188c0-1.678-0.495-3.304-1.409-4.669
	c-0.309-0.482-0.646-0.895-1.096-1.343c-0.39-0.39-0.858-0.771-1.386-1.128c-2.598-1.75-6.32-1.794-9.058-0.111
	c-0.865,0.534-1.958,0.501-2.794-0.071c-0.835-0.576-1.252-1.59-1.06-2.588c0.056-0.286,0.092-0.67,0.092-1.138
	c0-1.678-0.492-3.304-1.409-4.669c-0.306-0.478-0.647-0.891-1.099-1.346c-0.387-0.387-0.853-0.761-1.382-1.122
	c-1.33-0.894-2.927-1.369-4.621-1.369c-2.275,0-4.402,0.881-5.985,2.478c-1.623,1.626-2.521,3.766-2.521,6.029
	c0,1.625,0.461,3.199,1.385,4.617L627.295,38.396z"/>
<path fill="#FFFFFF" d="M596.229,59.416c0.277,0.377,0.507,0.643,0.683,0.806c1.662,1.671,3.763,2.562,6.075,2.562
	c4.688,0,8.506-3.811,8.506-8.493c0-1.678-0.495-3.304-1.408-4.669c-0.309-0.481-0.647-0.891-1.1-1.343
	c-0.387-0.387-0.852-0.764-1.385-1.125c-1.326-0.895-2.923-1.369-4.618-1.369c-2.275,0-4.402,0.881-5.988,2.478
	c-1.623,1.625-2.521,3.765-2.521,6.028c0,1.665,0.484,3.265,1.396,4.637C595.969,59.07,596.076,59.213,596.229,59.416z"/>
<path fill="#FFFFFF" d="M768.538,86.397l-1.395-1.476l-1.402,1.476c-2.978,3.143-6.982,4.867-11.271,4.867
	c-4.292,0-8.297-1.725-11.275-4.867l-1.398-1.476l-1.396,1.476c-2.98,3.143-6.986,4.874-11.277,4.874
	c-4.289,0-8.293-1.731-11.271-4.874l-1.4-1.476l-1.398,1.476c-1.915,2.023-4.334,3.497-6.994,4.258l-1.394,0.398V129h22.735v-9.992
	c0-6.833,5.559-12.392,12.395-12.392c6.828,0,12.387,5.559,12.387,12.392V129h22.741V91.054l-1.395-0.398
	C772.875,89.895,770.455,88.417,768.538,86.397z M715.484,103.177c0-0.753,0.312-1.483,0.87-2.033
	c0.492-0.502,1.234-0.787,2.03-0.787c0.793,0,1.535,0.285,2.049,0.805c0.517,0.51,0.826,1.259,0.826,2.016
	c0,0.763-0.305,1.512-0.841,2.048l-0.016,0.016c-1.017,1.029-2.984,1.077-4.074-0.034
	C715.8,104.688,715.484,103.932,715.484,103.177z"/>
<path fill="#FFFFFF" d="M741.797,112.392c-3.649,0-6.616,2.966-6.616,6.616v9.99h13.231v-9.99
	C748.412,115.357,745.446,112.392,741.797,112.392z"/>
<rect x="711.781" y="27" fill="#FFFFFF" width="57.918" height="6.741"/>
<polygon fill="#FFFFFF" points="696.537,60.148 714.501,60.148 722.75,39.515 710.429,39.515 "/>
<polygon fill="#FFFFFF" points="738.91,39.515 728.97,39.515 720.721,60.148 738.91,60.148 "/>
<polygon fill="#FFFFFF" points="744.683,39.515 744.683,60.148 762.878,60.148 754.624,39.515 "/>
<polygon fill="#FFFFFF" points="786.697,60.148 771.152,39.515 760.844,39.515 769.097,60.148 "/>
<path fill="#FFFFFF" d="M713.564,75.711v-9.784H694v9.784c0,5.393,4.388,9.784,9.784,9.784
	C709.177,85.495,713.564,81.104,713.564,75.711z"/>
<path fill="#FFFFFF" d="M719.339,75.711c0,5.393,4.392,9.784,9.785,9.784c5.397,0,9.782-4.392,9.782-9.784v-9.784h-19.567V75.711z"
	/>
<path fill="#FFFFFF" d="M770.029,75.711c0,5.393,4.388,9.784,9.781,9.784c5.396,0,9.786-4.392,9.786-9.784v-9.784h-19.57v9.784
	H770.029z"/>
<path fill="#FFFFFF" d="M744.683,75.711c0,5.393,4.392,9.784,9.788,9.784c5.393,0,9.781-4.392,9.781-9.784v-9.784h-19.569V75.711z"
	/>
<path fill="#FFFFFF" d="M803.09,90.739V77.27l-1.441,0.017c-1.775,0.019-3.435,0.715-4.664,1.953
	C795.705,80.51,795,82.202,795,84.007c0,3.663,2.982,6.681,6.648,6.718L803.09,90.739z"/>
<path fill="#FFFFFF" d="M897.264,77.286l-1.442-0.017v13.47l1.442-0.018c1.775-0.019,3.434-0.716,4.662-1.953
	c1.278-1.268,1.983-2.96,1.983-4.764C903.909,80.339,900.927,77.324,897.264,77.286z"/>
<path fill="#FFFFFF" d="M878.7,39.838h-58.493v8.56h28.535c0.139,0,0.274,0.017,0.409,0.044l0,0l0.066,0.011
	c0.133,0.033,0.294,0.098,0.579,0.245c0.204,0.114,0.349,0.218,0.458,0.327l19.259,19.263c0.109,0.111,0.213,0.253,0.327,0.449
	l0.065,0.125c0.084,0.172,0.142,0.319,0.186,0.49l0.005,0.035c0.027,0.133,0.044,0.275,0.044,0.411v20.924h8.56V39.838L878.7,39.838
	z"/>
<path fill="#FFFFFF" d="M807.37,90.722h15.059l1.051-0.13l0.335-0.952l0.07-0.224c0.113-0.418,0.248-0.832,0.4-1.235l0.097-0.277
	c0.188-0.462,0.417-0.936,0.682-1.415l0.209-0.342c0.209-0.355,0.436-0.697,0.721-1.089l0.229-0.308
	c0.382-0.485,0.719-0.871,1.063-1.217c2.492-2.492,5.808-3.867,9.332-3.867c3.525,0,6.84,1.375,9.333,3.867
	c0.34,0.344,0.678,0.727,1.058,1.21c0.079,0.107,0.157,0.211,0.278,0.379c0.239,0.33,0.465,0.669,0.678,1.029l0.206,0.341
	c0.27,0.483,0.492,0.942,0.713,1.507l0.065,0.182c0.152,0.406,0.286,0.817,0.399,1.238c0.021,0.077,0.047,0.149,0.077,0.231
	l0.271,1.074h16.167V71.938h-17.121c-1.182,0-2.14-0.96-2.14-2.141V52.679H807.37V90.722z"/>
<polygon fill="#FFFFFF" points="862.834,67.659 850.881,55.708 850.881,67.659 "/>
<path fill="#FFFFFF" d="M807.37,129h58.493V95.005h-15.059l-1.054,0.131l-0.334,0.949l-0.071,0.227
	c-0.114,0.419-0.247,0.832-0.402,1.241l-0.096,0.271c-0.188,0.463-0.416,0.937-0.68,1.415l-0.207,0.343
	c-0.21,0.349-0.436,0.691-0.716,1.078l-0.234,0.315c-0.386,0.495-0.726,0.881-1.063,1.219c-2.792,2.792-6.69,4.181-10.592,3.802
	l-0.391-0.053c-0.28-0.032-0.559-0.075-0.832-0.127c-0.145-0.03-0.283-0.06-0.446-0.095c-0.253-0.061-0.502-0.124-0.746-0.193
	c-0.152-0.044-0.302-0.091-0.451-0.139c-0.246-0.083-0.485-0.175-0.72-0.268l-0.41-0.163c-0.267-0.114-0.528-0.245-0.782-0.375
	l-0.287-0.146c-0.346-0.191-0.687-0.397-1.086-0.67l-0.154-0.115c-0.246-0.171-0.484-0.348-0.717-0.532l-0.326-0.283
	c-0.19-0.164-0.382-0.335-0.555-0.506c-0.112-0.109-0.221-0.218-0.336-0.335c-0.167-0.178-0.331-0.355-0.51-0.566
	c-0.094-0.105-0.186-0.215-0.273-0.323c-0.165-0.207-0.317-0.417-0.47-0.629l-0.235-0.329c-0.197-0.294-0.381-0.599-0.616-1.016
	c-0.191-0.348-0.36-0.704-0.519-1.074l-0.134-0.341c-0.103-0.258-0.199-0.52-0.284-0.781L823.55,95h-16.18V129z"/>
<rect x="870.141" y="95.005" fill="#FFFFFF" width="8.56" height="21.154"/>
<rect x="882.981" y="95.005" fill="#FFFFFF" width="8.557" height="8.315"/>
<path fill="#FFFFFF" d="M891.538,27h-58.489v8.561h47.791c1.181,0,2.142,0.958,2.142,2.139v53.022h8.557V27z"/>
<path fill="#FFFFFF" d="M830.312,86.559c-1.685,1.683-2.611,3.925-2.611,6.305c0,4.917,4,8.917,8.917,8.917
	c2.38,0,4.619-0.928,6.301-2.611c1.685-1.688,2.612-3.924,2.612-6.306c0-2.38-0.925-4.622-2.609-6.305
	c-1.685-1.684-3.924-2.612-6.304-2.612C834.233,83.946,831.994,84.875,830.312,86.559z"/>
<path fill="#FFFFFF" d="M921.92,112.13h35.258c1.573,0,2.856,1.279,2.856,2.856v14.938l17.845-17.01
	c0.531-0.509,1.232-0.784,1.971-0.784h4.972c8.225,0,14.919-6.695,14.919-14.924V85.147c0-8.239-6.701-14.941-14.941-14.941h-62.861
	c-8.235,0-14.938,6.702-14.938,14.941v12.059C907,105.435,913.695,112.13,921.92,112.13z M926.066,91.166
	c0-0.756,0.298-1.483,0.832-2.006c0.498-0.495,1.232-0.778,2.024-0.778c0.008,0,0.008,0,0.011,0c0.782,0,1.505,0.283,2.01,0.792
	c0.523,0.517,0.836,1.258,0.836,1.992c0,0.749-0.312,1.497-0.836,2.014l-0.028,0.025c-1.025,1.05-2.966,1.061-4.034-0.033
	C926.364,92.671,926.066,91.937,926.066,91.166z M950.512,91.166c0-0.734,0.312-1.483,0.836-2.006
	c0.52-0.521,1.272-0.782,2.024-0.782c0.753,0,1.505,0.262,2.024,0.782c0.523,0.52,0.836,1.271,0.836,2.006
	c0,0.749-0.312,1.505-0.836,2.028c-1.061,1.058-2.994,1.054-4.049,0C950.824,92.671,950.512,91.915,950.512,91.166z M974.957,91.166
	c0-0.749,0.306-1.476,0.836-2.006c0.491-0.487,1.229-0.771,2.028-0.771c0.796,0,1.534,0.283,2.039,0.784
	c0.513,0.502,0.817,1.247,0.817,1.992c0,0.771-0.298,1.505-0.817,2.014l-0.033,0.025c-1.018,1.039-2.958,1.061-4.034-0.015
	C975.27,92.671,974.957,91.915,974.957,91.166z"/>
<path fill="#FFFFFF" d="M986.875,64.594c0.108,0.011,0.214,0.033,0.323,0.047l0.549,0.08c0.382,0.051,0.767,0.102,1.138,0.174
	c0.148,0.029,0.294,0.073,0.439,0.109l0.574,0.146c0.316,0.076,0.629,0.149,0.934,0.24c0.164,0.051,0.328,0.117,0.495,0.175
	l0.538,0.196c0.283,0.094,0.562,0.196,0.836,0.305c0.17,0.073,0.334,0.152,0.498,0.229l0.482,0.229
	c0.27,0.124,0.538,0.247,0.793,0.385c0.186,0.098,0.363,0.204,0.537,0.312l0.371,0.218c0.262,0.153,0.523,0.306,0.777,0.473
	c0.186,0.127,0.364,0.258,0.546,0.393l0.283,0.211c0.251,0.178,0.502,0.36,0.749,0.556c0.178,0.146,0.349,0.294,0.516,0.447
	l0.232,0.207c0.24,0.207,0.477,0.418,0.705,0.636c0.182,0.182,0.36,0.371,0.633,0.658c0.236,0.25,0.473,0.505,0.697,0.767
	c0.189,0.218,0.364,0.45,0.571,0.712c0.211,0.276,0.422,0.546,0.618,0.829c0.178,0.254,0.345,0.516,0.509,0.774
	c0.185,0.294,0.366,0.581,0.534,0.879c0.156,0.272,0.298,0.542,0.439,0.825c0.156,0.306,0.309,0.614,0.447,0.923
	c0.131,0.291,0.247,0.582,0.363,0.873c0.127,0.323,0.247,0.646,0.356,0.97c0.102,0.302,0.196,0.604,0.283,0.92
	c0.095,0.33,0.182,0.669,0.262,1.01c0.073,0.313,0.138,0.626,0.196,0.938c0.062,0.349,0.116,0.697,0.16,1.054
	c0.043,0.327,0.08,0.65,0.105,0.967l0.148,2.257h2.265c8.239,0,14.941-6.698,14.941-14.938V58.717
	c0-8.228-6.695-14.923-14.923-14.923h-35.255c-1.577,0-2.856-1.279-2.856-2.857V26l-17.846,17.009
	c-0.534,0.509-1.235,0.785-1.973,0.785h-4.954c-8.235,0-14.938,6.695-14.938,14.923v5.771h54.822
	C985.501,64.489,986.195,64.525,986.875,64.594z"/>
</svg>
