<?xml version="1.0" encoding="utf-8"?>
<!-- Generator: Adobe Illustrator 15.0.2, SVG Export Plug-In . SVG Version: 6.00 Build 0)  -->
<!DOCTYPE svg PUBLIC "-//W3C//DTD SVG 1.1//EN" "http://www.w3.org/Graphics/SVG/1.1/DTD/svg11.dtd">
<svg version="1.1" id="Ebene_1" xmlns="http://www.w3.org/2000/svg" xmlns:xlink="http://www.w3.org/1999/xlink" x="0px" y="0px"
	 width="2433.514px" height="140px" viewBox="0 0 2433.514 140" enable-background="new 0 0 2433.514 140" xml:space="preserve">
<path d="M1502.979,59.001c-0.638-2.223-0.979-4.572-0.979-7c0-13.991,11.344-25.332,25.332-25.332
	c13.991,0,25.332,11.341,25.332,25.332c0,2.429-0.342,4.777-0.979,7.001"/>
<g>
	<path d="M171.801,48.746c1.206,1.24,2.815,1.923,4.533,1.923h8.631V38h-8.631c-1.699,0-3.292,0.657-4.483,1.848l-0.003,0.001
		c-1.182,1.183-1.834,2.763-1.847,4.458l0.004,0.198C170.051,46.096,170.683,47.592,171.801,48.746z"/>
	<g>
		<g>
			<path d="M274.254,55.66h-95.562c-4.799,0-8.691,3.96-8.691,8.845v55.652c0,4.884,3.895,8.844,8.691,8.844h95.562
				c4.803,0,8.692-3.96,8.692-8.844V64.504C282.946,59.62,279.055,55.66,274.254,55.66z M226.743,115.364
				c-12.665,0-22.931-10.267-22.931-22.931s10.266-22.933,22.931-22.933c12.663,0,22.929,10.269,22.929,22.933
				C249.671,105.1,239.406,115.364,226.743,115.364z"/>
		</g>
	</g>
	<circle cx="226.473" cy="92.331" r="16.378"/>
</g>
<g>
	<path d="M380.38,120.984c5.021,0,9.111-4.084,9.111-9.109V68.621c0-5.025-4.087-9.112-9.111-9.112h-81.269
		c-5.025,0-9.111,4.087-9.111,9.112v43.254c0,5.025,4.087,9.109,9.111,9.109H380.38z M311.502,93.195V75.83
		c0-1.846,1.498-3.342,3.34-3.342h49.809c1.839,0,3.342,1.498,3.342,3.342v17.365c0,1.844-1.502,3.339-3.342,3.339h-49.808
		C313.001,96.534,311.502,95.039,311.502,93.195z"/>
	<polygon points="396.174,98.846 418,107.9 418,72.589 396.174,81.648 	"/>
	<path d="M315.824,19.868c-9.088,0-16.479,7.391-16.479,16.482c0,9.082,7.392,16.473,16.479,16.473
		c9.086,0,16.479-7.391,16.479-16.473C332.303,27.259,324.91,19.868,315.824,19.868z"/>
	<path d="M362.025,6.75c-12.704,0-23.035,10.339-23.035,23.042c0,12.701,10.333,23.037,23.035,23.037
		c12.707,0,23.041-10.336,23.041-23.037C385.065,17.089,374.73,6.75,362.025,6.75z M362.025,42.314
		c-6.905,0-12.518-5.62-12.518-12.523c0-6.908,5.613-12.524,12.518-12.524c6.903,0,12.519,5.616,12.519,12.524
		C374.544,36.694,368.927,42.314,362.025,42.314z"/>
	<path d="M362.025,23.95c3.225,0,5.841,2.613,5.841,5.841c0,3.224-2.616,5.836-5.841,5.836s-5.841-2.612-5.841-5.836
		C356.183,26.563,358.8,23.95,362.025,23.95z"/>
	<rect x="318.183" y="79.169" width="43.123" height="10.688"/>
</g>
<g>
	<path d="M83.24,52.19c0-3.547-2.885-6.432-6.435-6.432H54.783l-0.935,0.124l-0.654,0.873c-0.234,0.351-0.485,0.697-0.746,1.032
		l-0.332,0.44c-0.381,0.462-0.785,0.912-1.222,1.341l-5.751,5.755c-0.322,0.323-0.681,0.615-1.075,0.87
		c-0.104,0.045-0.202,0.098-0.345,0.183c-0.267,0.153-0.526,0.312-0.812,0.43c-0.124,0.045-0.25,0.078-0.379,0.111l-0.62,0.182
		c-0.085,0.026-0.166,0.059-0.251,0.078c-0.166,0.029-0.334,0.036-0.501,0.045l-0.604,0.056c-0.063,0.01-0.128,0.022-0.191,0.022
		H40.29c-0.306-0.006-0.605-0.059-0.906-0.097c-0.104-0.013-0.214-0.023-0.322-0.026c-0.325-0.062-0.644-0.176-0.958-0.287
		c-0.104-0.036-0.208-0.065-0.295-0.078c-0.33-0.137-0.644-0.319-0.954-0.502l-0.229-0.117c-0.381-0.248-0.737-0.538-1.061-0.854
		L29.4,49.168L15.763,62.804c-0.97,0.963-2.652,0.963-3.622,0c-0.997-1.003-0.997-2.625,0-3.622l13.421-13.424H6.432
		C2.886,45.758,0,48.644,0,52.193v70.375c0,3.547,2.884,6.434,6.435,6.434h46.654v-27.585c0-1.414,1.153-2.56,2.563-2.56H83.24
		V52.19z M73.294,59.28c0,0.668-0.277,1.329-0.766,1.812c-0.941,0.941-2.667,0.941-3.625-0.013
		c-0.462-0.449-0.736-1.124-0.736-1.801c0-0.677,0.274-1.341,0.75-1.814v-0.003c0.462-0.462,1.133-0.697,1.807-0.697
		c0.671,0,1.342,0.234,1.807,0.7C73.014,57.951,73.294,58.609,73.294,59.28z M11.394,81.902c0-1.414,1.146-2.563,2.562-2.563h33.644
		c1.407,0,2.562,1.149,2.562,2.563c0,1.41-1.153,2.559-2.562,2.559H13.955C12.543,84.461,11.394,83.312,11.394,81.902z
		 M13.955,94.707h11.019c1.41,0,2.561,1.146,2.561,2.561c0,1.416-1.146,2.562-2.561,2.562H13.955c-1.412,0-2.562-1.146-2.562-2.562
		C11.394,95.854,12.543,94.707,13.955,94.707z"/>
	<path d="M70.564,22.01c0.913,0,1.771-0.354,2.414-1c0.87-0.87,1-1.885,1-2.413c0-0.531-0.13-1.55-1-2.417L58.763,1.962
		c-1.293-1.284-3.54-1.284-4.83,0.006c-1.329,1.329-1.329,3.494-0.003,4.826l14.219,14.219C68.793,21.655,69.653,22.01,70.564,22.01
		z"/>
	<path d="M22.055,34.62l18.332,18.296l6.896-6.979c1.107-1.091,1.987-2.361,2.615-3.765c0.785-1.703,1.186-3.514,1.186-5.396
		c0-0.596-0.042-1.211-0.127-1.833c-0.108-0.789,0.16-1.6,0.726-2.16l10.494-10.499l-9.521-9.51L42.155,23.261
		c-0.57,0.567-1.358,0.83-2.159,0.723c-4.015-0.567-8.095,0.788-10.995,3.674L22.055,34.62z"/>
	<polygon points="79.9,105 58.5,105 58.5,126.398 	"/>
</g>
<g>
	<path d="M99.027,100.992h69.214V25H99.027V100.992z M152.861,48.996v22.158c0,1.496-1.219,2.718-2.717,2.718h-33.021
		c-1.497,0-2.715-1.222-2.715-2.718V48.996c0-1.495,1.219-2.714,2.715-2.714h33.021C151.643,46.282,152.861,47.498,152.861,48.996z"
		/>
	<rect x="119.838" y="51.713" width="27.596" height="16.726"/>
	<path d="M93.598,101.172V28.01l-0.15-2.962l-2.673,1.45c-0.186,0.093-0.364,0.187-0.608,0.342
		c-0.104,0.062-0.205,0.125-0.304,0.193c-0.525,0.366-1.019,0.773-1.464,1.208c-0.074,0.072-0.146,0.152-0.257,0.276
		c-0.371,0.39-0.711,0.805-1.041,1.264c-0.088,0.124-0.183,0.249-0.267,0.38c-0.379,0.586-0.682,1.143-0.918,1.698
		c-0.037,0.083-0.063,0.166-0.086,0.231c-0.207,0.518-0.378,1.06-0.522,1.681c-0.038,0.166-0.074,0.331-0.107,0.507
		c-0.136,0.759-0.2,1.401-0.2,2.033v68.708l2.739-1.644c1.401-0.842,2.914-1.467,4.49-1.86L93.598,101.172z"/>
	<path d="M85,117.73c0,6.235,5.075,11.312,11.312,11.312h71.929v-8.599H96.312c-1.497,0-2.713-1.223-2.713-2.717
		s1.217-2.718,2.713-2.718h71.929v-8.597H96.312C90.075,106.419,85,111.494,85,117.73z"/>
</g>
<rect x="524.729" y="18.552" transform="matrix(-0.707 -0.7073 0.7073 -0.707 874.4406 441.9088)" width="8.082" height="42.491"/>
<rect x="544.678" y="10.952" transform="matrix(-0.7072 -0.707 0.707 -0.7072 930.4576 418.557)" width="14.438" height="11.323"/>
<path d="M523.041,59.525l-4.062,4.063c-1.116,1.111-3.059,1.111-4.175,0l-9.894-9.891c-0.556-0.556-0.861-1.3-0.861-2.089
	c0-0.788,0.308-1.532,0.861-2.088l4.078-4.078l-2.762-1.112c-3.557-1.435-7.354-1.83-10.646-1.119
	c-4.908,1.066-8.574,4.481-10.603,9.881c-4.164,11.106-11.167,12.473-18.584,13.92c-5.102,1-10.377,2.029-16.644,5.927
	c-4.146,2.576-8.854,7.76-9.639,14.594c-0.844,7.311,2.936,15.391,10.919,23.385l6.551,6.543
	c7.259,7.26,14.588,11.039,21.331,11.039c0.688,0,1.372-0.037,2.052-0.121c6.832-0.779,12.018-5.49,14.595-9.637
	c3.896-6.268,4.925-11.541,5.922-16.643c1.452-7.414,2.819-14.418,13.921-18.582c5.404-2.027,8.819-5.695,9.879-10.604
	c0.717-3.28,0.312-7.058-1.13-10.631L523.041,59.525z M500.802,83.236c-2.072,2.07-4.832,3.215-7.772,3.215
	c-2.938,0-5.696-1.143-7.768-3.215c-2.074-2.068-3.216-4.828-3.216-7.771s1.142-5.7,3.216-7.769c2.14-2.141,4.957-3.21,7.771-3.21
	c2.814,0,5.626,1.067,7.771,3.208C505.08,71.98,505.08,78.955,500.802,83.236z M483.449,99.363c0,0.785-0.308,1.525-0.859,2.09
	c-1.118,1.109-3.062,1.109-4.181,0l-11.361-11.365c-1.149-1.154-1.149-3.027,0-4.178c0.56-0.557,1.3-0.863,2.089-0.863
	s1.529,0.309,2.089,0.863l11.364,11.365C483.141,97.834,483.449,98.574,483.449,99.363z"/>
<path d="M489.436,71.873c-0.959,0.961-1.486,2.238-1.486,3.594c0,1.359,0.527,2.633,1.489,3.594c0.989,0.986,2.289,1.479,3.59,1.479
	s2.605-0.49,3.599-1.479c1.979-1.981,1.977-5.209-0.005-7.188C494.703,69.958,491.354,69.958,489.436,71.873z"/>
<path d="M657.04,67.134l-0.709-0.533c-0.529-0.417-0.946-0.78-1.346-1.177c-0.367-0.352-0.794-0.846-1.204-1.405
	c-0.161-0.214-0.341-0.461-0.503-0.702c-0.805-1.209-1.398-2.53-1.785-3.934l-0.315-1.171l-1.21-0.084
	c-3.271-0.221-6.347-1.632-8.688-3.993c-0.371-0.351-0.793-0.846-1.199-1.398c-0.166-0.221-0.349-0.468-0.511-0.709
	c-0.78-1.164-1.364-2.432-1.743-3.785l-0.396-1.418l-1.457,0.182c-0.994,0.127-2.016,0.14-3.036,0.046l-0.406-0.055
	c-0.285-0.037-0.565-0.072-0.854-0.127l-0.468-0.104c-0.251-0.058-0.51-0.117-0.757-0.188c-0.15-0.045-0.307-0.091-0.485-0.153
	c-0.236-0.078-0.475-0.159-0.713-0.257c-0.158-0.062-0.321-0.13-0.475-0.195c-0.228-0.101-0.454-0.208-0.684-0.326
	c-0.148-0.075-0.298-0.149-0.44-0.23c-0.229-0.126-0.446-0.264-0.794-0.481l-0.292-0.185c-0.231-0.159-0.456-0.332-0.681-0.511
	l-1.383-1.115l-7.832,5.16l-0.942,0.647l0.211,1.119l0.053,0.214c0.149,0.481,0.247,0.982,0.348,1.496
	c0.021,0.11,0.048,0.221,0.107,0.494c0.104,0.689,0.159,1.372,0.159,2.036c0,7.505-6.107,13.605-13.62,13.605
	c-0.438,0-0.869-0.02-1.291-0.059l-0.43-0.058c-0.283-0.039-0.562-0.071-0.837-0.124l-0.487-0.111
	c-0.25-0.058-0.5-0.117-0.748-0.188c-0.149-0.039-0.298-0.091-0.493-0.156c-0.234-0.079-0.469-0.163-0.7-0.254
	c-0.163-0.065-0.324-0.13-0.483-0.202c-0.225-0.097-0.448-0.202-0.667-0.318c-0.158-0.078-0.312-0.156-0.465-0.241
	c-0.228-0.123-0.438-0.26-0.786-0.481l-0.284-0.182c-0.228-0.157-0.448-0.325-0.673-0.501l-1.42-1.197L571.979,78.6l88.932-8.825
	L657.04,67.134z"/>
<polygon points="670.269,108.912 565,119.342 565,129.461 670.269,119.029 "/>
<path d="M670.269,78.893l0.052-1.002l-1.139-0.617c-0.37-0.209-0.729-0.439-1.092-0.688l-0.237-0.148
	c-0.095-0.062-0.188-0.123-0.279-0.188c-0.408-0.312-0.797-0.648-1.174-1.009c-0.078-0.071-0.162-0.146-0.261-0.216l-0.568-0.572
	L565,84.434V114.2l105.271-10.438L670.269,78.893L670.269,78.893z M579.505,100.789c0,0.67-0.279,1.334-0.767,1.814
	c-0.938,0.938-2.68,0.924-3.604,0c-0.475-0.479-0.743-1.131-0.743-1.814c0-0.676,0.27-1.334,0.743-1.809
	c0.464-0.467,1.132-0.695,1.806-0.695c0.67,0,1.34,0.229,1.805,0.695C579.223,99.463,579.505,100.125,579.505,100.789z"/>
<path d="M627.298,38.396c0.098,0.13,0.169,0.221,0.282,0.39c0.16,0.208,0.396,0.481,0.579,0.654
	c2.438,2.458,5.972,3.274,9.263,1.928c0.408-0.143,0.804-0.341,1.229-0.611c0.87-0.54,1.968-0.514,2.811,0.059
	c0.841,0.572,1.257,1.59,1.062,2.595c-0.055,0.286-0.087,0.663-0.08,1.313l1.697-0.117l0,0l-1.69,0.341
	c0.063,1.525,0.539,2.992,1.371,4.229c0.104,0.157,0.213,0.306,0.364,0.507c0.274,0.371,0.508,0.638,0.684,0.8
	c2.067,2.081,4.771,2.946,7.622,2.413l0.193-0.045c0.872-0.273,1.895-0.059,2.544,0.52c0.677,0.598,1.021,1.431,0.923,2.217
	l-0.014,0.299c0.014,1.639,0.498,3.232,1.396,4.591c0.101,0.143,0.208,0.299,0.354,0.481c0.283,0.384,0.514,0.65,0.685,0.807
	c1.664,1.678,3.767,2.562,6.072,2.562c1.302,0,2.458,0.962,2.635,2.191c0.185,1.262,0.623,2.426,1.354,3.512l0.339,0.461
	c0.256,0.352,0.49,0.616,0.669,0.787c0.278,0.278,0.568,0.538,0.869,0.768c0.9,0.709,1.898,1.211,2.942,1.478
	c0.77,0.217,1.507,0.317,2.263,0.317c4.688,0,8.507-3.811,8.507-8.493c0-1.678-0.495-3.304-1.412-4.669
	c-0.306-0.475-0.646-0.891-1.099-1.346c-0.39-0.39-0.854-0.767-1.379-1.119c-1.326-0.897-2.929-1.372-4.617-1.372
	c-1.303,0-2.458-0.962-2.635-2.192c-0.184-1.268-0.64-2.445-1.329-3.479c-0.312-0.482-0.646-0.898-1.102-1.346
	c-0.389-0.39-0.854-0.768-1.39-1.125c-1.327-0.898-2.924-1.373-4.617-1.373c-0.729,0-1.376,0.082-1.964,0.247
	c-0.808,0.228-1.678,0.042-2.328-0.494c-0.644-0.537-0.984-1.356-0.902-2.341v-0.188c0-1.678-0.493-3.304-1.406-4.669
	c-0.312-0.482-0.646-0.896-1.099-1.343c-0.391-0.39-0.855-0.771-1.387-1.128c-2.598-1.75-6.319-1.794-9.058-0.111
	c-0.865,0.534-1.958,0.501-2.796-0.071c-0.836-0.576-1.253-1.59-1.062-2.588c0.057-0.286,0.093-0.67,0.093-1.138
	c0-1.678-0.49-3.304-1.408-4.669c-0.308-0.478-0.646-0.891-1.101-1.346c-0.387-0.387-0.853-0.761-1.382-1.122
	c-1.33-0.894-2.927-1.369-4.621-1.369c-2.273,0-4.401,0.881-5.984,2.478c-1.621,1.626-2.521,3.766-2.521,6.029
	c0,1.625,0.461,3.199,1.386,4.617L627.298,38.396z"/>
<path d="M596.229,59.416c0.276,0.377,0.507,0.643,0.683,0.806c1.662,1.671,3.766,2.562,6.075,2.562c4.688,0,8.506-3.811,8.506-8.493
	c0-1.678-0.495-3.304-1.405-4.669c-0.312-0.481-0.646-0.891-1.103-1.343c-0.388-0.387-0.853-0.764-1.386-1.125
	c-1.325-0.895-2.923-1.369-4.617-1.369c-2.275,0-4.402,0.881-5.988,2.478c-1.623,1.625-2.521,3.765-2.521,6.028
	c0,1.665,0.481,3.265,1.396,4.637C595.969,59.07,596.076,59.213,596.229,59.416z"/>
<path d="M768.538,86.396l-1.396-1.479l-1.401,1.479c-2.979,3.144-6.979,4.867-11.271,4.867c-4.292,0-8.297-1.728-11.274-4.867
	l-1.396-1.479l-1.396,1.479c-2.979,3.144-6.984,4.875-11.274,4.875c-4.289,0-8.294-1.731-11.271-4.875l-1.397-1.479l-1.397,1.479
	c-1.915,2.021-4.334,3.498-6.994,4.258l-1.394,0.396V129h22.732v-9.992c0-6.833,5.562-12.392,12.396-12.392
	c6.828,0,12.387,5.559,12.387,12.392V129h22.741V91.055l-1.396-0.396C772.875,89.895,770.455,88.417,768.538,86.396z
	 M715.484,103.178c0-0.754,0.312-1.484,0.87-2.033c0.491-0.502,1.233-0.787,2.029-0.787c0.793,0,1.534,0.285,2.049,0.808
	c0.518,0.51,0.826,1.259,0.826,2.019c0,0.764-0.308,1.512-0.841,2.049l-0.019,0.016c-1.018,1.029-2.981,1.076-4.074-0.034
	C715.802,104.688,715.484,103.932,715.484,103.178z"/>
<path d="M741.8,112.393c-3.648,0-6.616,2.965-6.616,6.615v9.99h13.229v-9.99C748.412,115.357,745.446,112.393,741.8,112.393z"/>
<rect x="711.781" y="27" width="57.918" height="6.741"/>
<polygon points="696.537,60.148 714.504,60.148 722.75,39.515 710.429,39.515 "/>
<polygon points="738.91,39.515 728.97,39.515 720.721,60.148 738.91,60.148 "/>
<polygon points="744.683,39.515 744.683,60.148 762.881,60.148 754.625,39.515 "/>
<polygon points="786.697,60.148 771.152,39.515 760.844,39.515 769.097,60.148 "/>
<path d="M713.564,75.711v-9.784H694v9.784c0,5.393,4.391,9.784,9.784,9.784S713.564,81.104,713.564,75.711z"/>
<path d="M719.342,75.711c0,5.393,4.393,9.784,9.783,9.784c5.396,0,9.781-4.392,9.781-9.784v-9.784h-19.564V75.711L719.342,75.711z"
	/>
<path d="M770.029,75.711c0,5.393,4.389,9.784,9.78,9.784c5.396,0,9.786-4.392,9.786-9.784v-9.784h-19.569v9.784H770.029z"/>
<path d="M744.683,75.711c0,5.393,4.393,9.784,9.788,9.784c5.394,0,9.781-4.392,9.781-9.784v-9.784h-19.569V75.711z"/>
<path d="M803.093,90.738V77.27l-1.44,0.021c-1.773,0.021-3.436,0.715-4.664,1.953c-1.28,1.271-1.982,2.962-1.982,4.767
	c0,3.663,2.979,6.684,6.646,6.721L803.093,90.738z"/>
<path d="M897.264,77.286l-1.441-0.017v13.469l1.441-0.018c1.772-0.021,3.435-0.719,4.662-1.953c1.275-1.271,1.98-2.959,1.98-4.767
	C903.909,80.339,900.927,77.324,897.264,77.286z"/>
<path d="M878.7,39.838h-58.493v8.56h28.535c0.142,0,0.273,0.017,0.409,0.044l0,0l0.065,0.011c0.133,0.033,0.294,0.098,0.579,0.245
	c0.201,0.114,0.349,0.218,0.458,0.327l19.259,19.263c0.106,0.111,0.213,0.253,0.327,0.449l0.062,0.125
	c0.084,0.172,0.145,0.319,0.188,0.49l0.005,0.035c0.024,0.133,0.044,0.275,0.044,0.411v20.925h8.561V39.838L878.7,39.838z"/>
<path d="M807.37,90.723h15.062l1.052-0.131l0.335-0.951l0.069-0.225c0.11-0.418,0.248-0.832,0.397-1.234l0.1-0.274
	c0.188-0.466,0.417-0.938,0.683-1.416l0.209-0.345c0.209-0.354,0.438-0.693,0.721-1.088l0.229-0.309
	c0.383-0.484,0.72-0.871,1.062-1.217c2.492-2.492,5.811-3.867,9.332-3.867c3.525,0,6.841,1.375,9.333,3.867
	c0.342,0.344,0.681,0.727,1.061,1.21c0.079,0.106,0.156,0.211,0.275,0.379c0.239,0.33,0.468,0.669,0.681,1.028l0.206,0.342
	c0.271,0.482,0.489,0.941,0.713,1.507l0.062,0.183c0.151,0.405,0.286,0.816,0.398,1.237c0.021,0.077,0.048,0.149,0.077,0.231
	l0.271,1.074h16.167V71.938h-17.121c-1.183,0-2.14-0.959-2.14-2.141V52.679H807.37V90.723z"/>
<polygon points="862.834,67.659 850.884,55.708 850.884,67.659 "/>
<path d="M807.37,129h58.493V95.005h-15.06l-1.057,0.132l-0.334,0.948l-0.068,0.228c-0.113,0.418-0.247,0.832-0.401,1.24
	l-0.097,0.271c-0.188,0.463-0.416,0.938-0.683,1.414l-0.205,0.344c-0.211,0.35-0.438,0.691-0.718,1.078l-0.231,0.314
	c-0.389,0.496-0.729,0.881-1.062,1.219c-2.792,2.793-6.688,4.182-10.592,3.803l-0.392-0.053c-0.28-0.032-0.562-0.075-0.832-0.127
	c-0.146-0.03-0.283-0.062-0.445-0.096c-0.254-0.062-0.502-0.123-0.746-0.193c-0.151-0.043-0.303-0.09-0.451-0.139
	c-0.246-0.082-0.482-0.178-0.72-0.271l-0.41-0.163c-0.268-0.114-0.525-0.245-0.781-0.375l-0.285-0.146
	c-0.349-0.189-0.688-0.396-1.086-0.67l-0.154-0.115c-0.245-0.172-0.483-0.349-0.717-0.53l-0.326-0.283
	c-0.189-0.164-0.382-0.335-0.555-0.506c-0.112-0.106-0.224-0.22-0.338-0.335c-0.168-0.18-0.329-0.354-0.511-0.564
	c-0.094-0.104-0.187-0.217-0.271-0.322c-0.165-0.207-0.316-0.418-0.473-0.629l-0.232-0.33c-0.196-0.293-0.381-0.601-0.615-1.018
	c-0.189-0.348-0.359-0.701-0.52-1.072l-0.137-0.342c-0.104-0.259-0.196-0.521-0.282-0.779L823.552,95H807.37V129z"/>
<rect x="870.141" y="95.005" width="8.561" height="21.154"/>
<rect x="882.981" y="95.005" width="8.557" height="8.315"/>
<path d="M891.538,27h-58.486v8.561h47.791c1.182,0,2.143,0.958,2.143,2.139v53.022h8.56L891.538,27L891.538,27z"/>
<path d="M830.312,86.559c-1.685,1.687-2.61,3.926-2.61,6.308c0,4.918,4,8.918,8.917,8.918c2.381,0,4.619-0.931,6.304-2.611
	c1.686-1.688,2.609-3.924,2.609-6.307c0-2.382-0.925-4.621-2.606-6.308c-1.687-1.684-3.924-2.608-6.307-2.608
	C834.233,83.945,831.994,84.875,830.312,86.559z"/>
<path d="M1035.932,112.13h35.258c1.573,0,2.855,1.279,2.855,2.856v14.938l17.846-17.01c0.53-0.51,1.229-0.784,1.971-0.784h4.974
	c8.227,0,14.918-6.694,14.918-14.924v-12.06c0-8.238-6.699-14.94-14.938-14.94h-62.861c-8.232,0-14.938,6.702-14.938,14.94v12.06
	C1021.011,105.436,1027.707,112.13,1035.932,112.13z M1040.078,91.166c0-0.756,0.299-1.482,0.831-2.006
	c0.498-0.495,1.232-0.778,2.024-0.778c0.008,0,0.008,0,0.011,0c0.782,0,1.505,0.283,2.011,0.792
	c0.522,0.518,0.838,1.258,0.838,1.992c0,0.749-0.312,1.497-0.838,2.014l-0.026,0.025c-1.024,1.05-2.966,1.061-4.033-0.033
	C1040.377,92.671,1040.078,91.938,1040.078,91.166z M1064.524,91.166c0-0.734,0.312-1.482,0.836-2.006
	c0.521-0.521,1.271-0.782,2.023-0.782c0.753,0,1.506,0.263,2.021,0.782c0.523,0.52,0.837,1.271,0.837,2.006
	c0,0.749-0.312,1.505-0.837,2.027c-1.061,1.059-2.993,1.055-4.049,0C1064.838,92.671,1064.524,91.915,1064.524,91.166z
	 M1088.969,91.166c0-0.749,0.307-1.477,0.836-2.006c0.491-0.487,1.229-0.771,2.028-0.771c0.796,0,1.531,0.283,2.037,0.784
	c0.515,0.502,0.816,1.247,0.816,1.992c0,0.771-0.298,1.505-0.816,2.015l-0.031,0.024c-1.021,1.039-2.958,1.062-4.034-0.015
	C1089.283,92.671,1088.969,91.915,1088.969,91.166z"/>
<path d="M1100.886,64.594c0.106,0.011,0.215,0.033,0.322,0.047l0.55,0.08c0.383,0.051,0.768,0.102,1.139,0.174
	c0.147,0.029,0.294,0.073,0.438,0.109l0.572,0.146c0.315,0.076,0.629,0.149,0.936,0.24c0.164,0.051,0.328,0.117,0.494,0.175
	l0.538,0.196c0.282,0.094,0.562,0.196,0.837,0.305c0.17,0.073,0.334,0.152,0.498,0.229l0.479,0.229
	c0.271,0.124,0.538,0.247,0.793,0.385c0.188,0.098,0.363,0.204,0.537,0.312l0.371,0.218c0.262,0.153,0.521,0.306,0.775,0.473
	c0.188,0.127,0.363,0.258,0.547,0.393l0.282,0.211c0.25,0.178,0.502,0.36,0.748,0.556c0.179,0.146,0.352,0.294,0.519,0.447
	l0.229,0.207c0.239,0.207,0.479,0.418,0.705,0.636c0.183,0.182,0.359,0.371,0.633,0.658c0.236,0.25,0.476,0.506,0.697,0.771
	c0.188,0.218,0.363,0.446,0.57,0.712c0.211,0.273,0.422,0.546,0.617,0.829c0.179,0.254,0.346,0.517,0.51,0.771
	c0.186,0.295,0.365,0.582,0.534,0.879c0.153,0.272,0.298,0.543,0.438,0.826c0.155,0.305,0.312,0.613,0.446,0.922
	c0.131,0.291,0.247,0.582,0.362,0.873c0.128,0.323,0.247,0.646,0.354,0.974c0.104,0.302,0.195,0.604,0.282,0.92
	c0.096,0.33,0.183,0.669,0.263,1.01c0.073,0.312,0.139,0.626,0.195,0.938c0.062,0.351,0.116,0.697,0.16,1.056
	c0.043,0.326,0.079,0.649,0.104,0.967l0.147,2.259h2.266c8.238,0,14.939-6.699,14.939-14.938v-12.07
	c0-8.228-6.693-14.923-14.925-14.923h-35.255c-1.577,0-2.854-1.279-2.854-2.857V26l-17.849,17.009
	c-0.531,0.509-1.231,0.785-1.973,0.785h-4.954c-8.232,0-14.938,6.695-14.938,14.923v5.771h54.819
	C1099.513,64.489,1100.207,64.525,1100.886,64.594z"/>
<path d="M1172.666,86.882c0.381,6.438,1.791,12.726,4.193,18.683c3.486,8.619,9.076,16.438,16.17,22.604l0.341,0.294l2.492,0.207
	V85.414h-23.285L1172.666,86.882z"/>
<path d="M1152.86,88.495c1.863,16.405,12.606,30.532,28.041,36.86l5.005,2.054l-3.399-4.208c-3.987-4.936-7.188-10.346-9.505-16.075
	c-2.63-6.521-4.149-13.381-4.521-20.399l-0.07-1.312h-15.801l0.145,1.853C1152.783,87.684,1152.816,88.098,1152.86,88.495z"/>
<path d="M1168.481,79.938c0.373-7.015,1.892-13.877,4.522-20.394c2.313-5.732,5.515-11.143,9.495-16.075l3.401-4.208l-5.004,2.053
	c-15.434,6.331-26.177,20.448-28.033,36.838c-0.05,0.416-0.083,0.847-0.116,1.277l-0.141,1.818h15.807L1168.481,79.938z"/>
<path d="M1193.034,38.496c-7.099,6.166-12.688,13.982-16.175,22.606c-2.402,5.958-3.812,12.241-4.197,18.681l-0.088,1.471h23.29V38
	l-2.494,0.201L1193.034,38.496z"/>
<path d="M1222.959,85.414h-23.281v43.256l2.49-0.207l0.341-0.294c7.093-6.167,12.683-13.985,16.169-22.606
	c2.4-5.955,3.813-12.244,4.194-18.683L1222.959,85.414z"/>
<path d="M1242.784,87.266l0.146-1.852h-15.801l-0.069,1.311c-0.371,7.021-1.896,13.881-4.521,20.401
	c-2.316,5.728-5.516,11.138-9.504,16.075l-3.399,4.208l5.005-2.054c15.433-6.328,26.179-20.455,28.038-36.86
	C1242.719,88.098,1242.752,87.684,1242.784,87.266z"/>
<path d="M1227.122,81.248h15.808l-0.144-1.818c-0.034-0.431-0.065-0.861-0.114-1.277c-1.855-16.388-12.604-30.508-28.032-36.838
	l-5.005-2.053l3.398,4.208c3.984,4.933,7.186,10.344,9.5,16.074c2.629,6.517,4.148,13.38,4.521,20.396L1227.122,81.248z"/>
<path d="M1202.166,38.201L1199.674,38v43.251h23.287l-0.087-1.469c-0.383-6.439-1.796-12.726-4.196-18.683
	c-3.486-8.622-9.076-16.438-16.176-22.606L1202.166,38.201z"/>
<path d="M1281.574,55.283c0.012-0.122,0.034-0.245,0.058-0.362l0.104-0.672c0.046-0.341,0.093-0.681,0.164-1.016l0.34-1.598h-4.45
	c-6.774,0-12.285,5.511-12.285,12.286v8.687c0,5.146,2.296,9.945,6.302,13.164l0,0l0.096,0.069c0.377,0.3,0.768,0.586,1.169,0.853
	c0.125,0.088,0.254,0.158,0.383,0.232l0.252,0.152c0.233,0.145,0.465,0.283,0.704,0.413c0.166,0.091,0.337,0.171,0.511,0.251
	l0.275,0.135c0.205,0.1,0.41,0.198,0.614,0.284c0.196,0.085,0.396,0.159,0.6,0.233l0.206,0.073c0.214,0.08,0.432,0.161,0.658,0.233
	c0.229,0.07,0.466,0.139,0.775,0.221c0.236,0.062,0.478,0.128,0.715,0.184c0.264,0.06,0.524,0.104,0.794,0.151
	c0.247,0.044,0.493,0.083,0.743,0.116c0.259,0.032,0.52,0.061,0.779,0.078s0.526,0.035,0.793,0.044
	c0.162,0.004,0.328,0.007,0.492,0.007c0.077,0,0.155,0,0.233-0.003l0.788-0.032l0.302-0.191c0.369-0.236,0.745-0.451,1.141-0.686
	l0.321-0.188c0.573-0.318,1.159-0.612,1.753-0.881l1.397-0.775l-1.069-1.479c-0.36-0.453-0.707-0.914-1.035-1.388
	c-0.104-0.149-0.208-0.305-0.308-0.46l-0.102-0.152c-0.245-0.367-0.474-0.74-0.697-1.119l-0.118-0.201
	c-0.067-0.115-0.141-0.233-0.208-0.354c-0.291-0.528-0.562-1.065-0.816-1.608l-0.249-0.56c-0.212-0.479-0.407-0.961-0.59-1.45
	l-0.148-0.394c-0.214-0.601-0.396-1.214-0.562-1.828l-0.13-0.499c-0.146-0.586-0.276-1.178-0.384-1.77l-0.041-0.204
	c-0.11-0.658-0.193-1.324-0.256-1.985l-0.042-0.486c-0.051-0.681-0.088-1.361-0.088-2.054V57.5
	C1281.45,56.78,1281.492,56.031,1281.574,55.283z"/>
<path d="M1272.885,119.598v-10.445c0-0.586,0.027-1.168,0.073-1.75l0.046-0.502c0.043-0.436,0.099-0.869,0.161-1.301l0.07-0.473
	c0.102-0.561,0.21-1.122,0.377-1.77l0.041-0.153c0.123-0.474,0.266-0.944,0.413-1.408l0.169-0.491
	c0.146-0.418,0.307-0.83,0.477-1.24l0.156-0.383c0.229-0.521,0.474-1.031,0.736-1.535l0.178-0.315
	c0.217-0.399,0.448-0.798,0.688-1.188l0.271-0.431c0.259-0.396,0.531-0.786,0.812-1.167l1.312-1.765l-1.89-0.509
	c-0.147-0.041-0.293-0.092-0.438-0.141l-0.591-0.186c-0.188-0.059-0.384-0.115-0.573-0.186c-0.183-0.062-0.356-0.141-0.538-0.214
	l-0.521-0.212c-0.194-0.079-0.388-0.154-0.577-0.24c-0.171-0.078-0.337-0.166-0.504-0.252l-0.528-0.269
	c-0.183-0.089-0.365-0.183-0.548-0.283c-0.168-0.095-0.334-0.198-0.499-0.306l-0.462-0.286c-0.186-0.11-0.367-0.222-0.627-0.394
	l-0.521-0.358l-0.604,0.18c-6.216,1.843-10.552,7.666-10.552,14.163v8.344c0,4.115,3.342,7.467,7.454,7.467h6.538V119.598
	L1272.885,119.598z"/>
<path d="M1293.818,86.283l0.162,0.125c0.068,0.056,0.138,0.111,0.3,0.227c2.877,2.225,6.317,3.713,9.938,4.311
	c1.176,0.201,2.421,0.306,3.699,0.306c5.131,0,10.142-1.767,14.108-4.974c5.331-4.276,8.388-10.666,8.388-17.521V57.5
	c0-9.098-7.404-16.5-16.512-16.5h-11.979c-6.372,0-12.229,3.722-14.922,9.483c-1.05,2.189-1.578,4.551-1.578,7.017v11.254
	C1285.426,75.611,1288.48,81.996,1293.818,86.283z"/>
<path d="M1334.306,57.5v11.254c0,0.688-0.037,1.371-0.088,2.051l-0.043,0.489c-0.062,0.664-0.145,1.33-0.253,1.985l-0.041,0.207
	c-0.106,0.59-0.235,1.182-0.387,1.768l-0.128,0.501c-0.167,0.611-0.353,1.224-0.562,1.828l-0.149,0.392
	c-0.184,0.488-0.376,0.975-0.59,1.447l-0.248,0.559c-0.254,0.545-0.527,1.086-0.818,1.611c-0.067,0.12-0.138,0.238-0.208,0.355
	l-0.118,0.199c-0.226,0.377-0.452,0.752-0.696,1.119l-0.102,0.152c-0.1,0.154-0.199,0.312-0.308,0.46
	c-0.328,0.47-0.676,0.933-1.034,1.382l-1.071,1.48l1.399,0.773c0.594,0.271,1.178,0.562,1.752,0.883l0.32,0.188
	c0.396,0.231,0.771,0.446,1.142,0.685l0.3,0.193l0.79,0.032c0.078,0.002,0.156,0.002,0.233,0.002c0.163,0,0.329-0.002,0.491-0.007
	c0.269-0.008,0.529-0.022,0.794-0.043c0.265-0.021,0.521-0.049,0.778-0.078c0.249-0.033,0.496-0.072,0.744-0.116
	c0.269-0.048,0.53-0.095,0.793-0.153c0.239-0.055,0.479-0.115,0.714-0.182c0.312-0.083,0.548-0.146,0.779-0.223
	c0.228-0.071,0.439-0.151,0.657-0.231l0.205-0.075c0.201-0.074,0.399-0.146,0.599-0.231c0.205-0.087,0.41-0.187,0.614-0.284
	l0.275-0.135c0.172-0.08,0.344-0.16,0.51-0.252c0.24-0.131,0.473-0.271,0.705-0.412l0.252-0.152c0.13-0.072,0.26-0.146,0.384-0.232
	c0.405-0.267,0.795-0.554,1.171-0.853l0.095-0.069l0,0c4.004-3.22,6.299-8.016,6.299-13.162v-8.688
	c0-6.774-5.509-12.289-12.284-12.289h-4.447l0.339,1.603c0.071,0.333,0.116,0.672,0.163,1.011l0.104,0.674
	c0.021,0.12,0.043,0.24,0.057,0.36C1334.269,56.029,1334.311,56.775,1334.306,57.5z"/>
<path d="M1342.875,119.604h6.541c4.112,0,7.453-3.354,7.453-7.468v-8.343c0-6.498-4.336-12.32-10.552-14.163l-0.604-0.181
	l-0.521,0.359c-0.261,0.172-0.444,0.28-0.627,0.394l-0.463,0.286c-0.164,0.104-0.33,0.21-0.501,0.306
	c-0.181,0.101-0.362,0.192-0.547,0.283l-0.529,0.269c-0.166,0.086-0.333,0.174-0.504,0.252c-0.189,0.086-0.385,0.161-0.579,0.24
	l-0.521,0.212c-0.182,0.073-0.354,0.147-0.538,0.212c-0.188,0.069-0.384,0.127-0.573,0.188l-0.589,0.185
	c-0.146,0.046-0.294,0.101-0.439,0.142l-1.888,0.508l1.312,1.765c0.28,0.381,0.556,0.771,0.812,1.168l0.271,0.431
	c0.24,0.389,0.473,0.785,0.688,1.188l0.178,0.313c0.265,0.506,0.511,1.017,0.734,1.537l0.157,0.383
	c0.171,0.41,0.329,0.822,0.479,1.24l0.168,0.491c0.149,0.464,0.29,0.935,0.413,1.408l0.042,0.153
	c0.163,0.646,0.277,1.207,0.376,1.77l0.072,0.471c0.062,0.434,0.118,0.866,0.161,1.303l0.046,0.503
	c0.044,0.581,0.07,1.163,0.07,1.75V119.6V119.604L1342.875,119.604z"/>
<path d="M1324.313,89.143l-0.69,0.479c-0.478,0.332-0.968,0.645-1.463,0.939l-0.426,0.235c-0.381,0.222-0.768,0.438-1.161,0.642
	l-0.626,0.303c-0.34,0.16-0.679,0.324-1.021,0.472c-0.228,0.104-0.455,0.188-0.689,0.283c-0.336,0.137-0.678,0.267-1.02,0.386
	c-0.236,0.084-0.475,0.164-0.713,0.243c-0.353,0.11-0.708,0.219-1.062,0.313l-0.693,0.194c-0.396,0.099-0.799,0.185-1.196,0.267
	l-0.6,0.125c-0.601,0.11-1.212,0.209-1.814,0.279c-1.743,0.197-3.595,0.225-5.396,0.076l-0.729-0.083
	c-0.494-0.051-0.988-0.11-1.479-0.188c-0.186-0.028-0.371-0.067-0.555-0.104l-0.295-0.059c-0.446-0.088-0.893-0.18-1.334-0.291
	c-0.266-0.062-0.527-0.139-0.869-0.23c-0.426-0.12-0.852-0.249-1.274-0.391c-0.286-0.096-0.568-0.196-0.857-0.301
	c-0.415-0.155-0.82-0.322-1.334-0.541c-0.243-0.103-0.479-0.209-0.723-0.312c-0.409-0.191-0.812-0.4-1.214-0.615l-0.246-0.128
	c-0.172-0.088-0.343-0.18-0.512-0.271c-0.438-0.246-0.857-0.514-1.284-0.788l-1.385-0.898l-0.954,0.265
	c-0.154,0.035-0.309,0.074-0.479,0.13c-7.45,2.485-12.672,9.146-13.288,16.969c-0.046,0.519-0.065,1.042-0.065,1.565l0.004,11.088
	l0.017,0.186c0.106,5.312,4.526,9.628,9.852,9.628h42.478c5.442,0,9.873-4.429,9.873-9.873v-11.022
	c0-8.586-5.744-16.281-13.96-18.721L1324.313,89.143z"/>
<path d="M1368.173,129h78.294c3.754,0,6.805-3.055,6.805-6.807V63.039c0-3.752-3.051-6.804-6.805-6.804h-78.294
	c-3.757,0-6.807,3.052-6.807,6.804v59.154C1361.366,125.945,1364.416,129,1368.173,129z M1371.408,92.615
	c0-8.094,6.585-14.68,14.682-14.68h42.457c8.094,0,14.677,6.586,14.677,14.68c0,8.096-6.583,14.681-14.677,14.681h-42.457
	C1377.993,107.298,1371.408,100.713,1371.408,92.615z"/>
<path d="M1386.09,101.641h42.457c4.977,0,9.021-4.05,9.021-9.023c0-4.979-4.048-9.021-9.021-9.021h-42.457
	c-4.979,0-9.022,4.045-9.022,9.021C1377.065,97.592,1381.114,101.641,1386.09,101.641z M1404.489,92.615
	c0-0.74,0.304-1.473,0.822-2.008c0.506-0.504,1.262-0.754,2.012-0.754c0.743,0,1.485,0.244,1.987,0.74
	c0.531,0.549,0.835,1.281,0.835,2.021c0,0.732-0.3,1.46-0.822,2.003c-1.095,1.057-2.967,1.019-3.998,0.015
	C1404.793,94.088,1404.489,93.355,1404.489,92.615z M1426.852,94.616L1426.852,94.616c-1.026,1.024-2.945,1.044-3.993,0
	c-0.531-0.534-0.841-1.267-0.841-2c0-0.74,0.308-1.47,0.841-2.007c0.486-0.481,1.218-0.76,2.006-0.76h0.007
	c0.783,0.004,1.499,0.276,1.98,0.765c0.521,0.521,0.821,1.252,0.821,2.002C1427.677,93.361,1427.377,94.094,1426.852,94.616z
	 M1387.783,90.607c0.482-0.481,1.209-0.763,1.999-0.763c0.002,0,0.006,0,0.013,0c0.775,0.005,1.497,0.275,1.978,0.763
	c0.535,0.535,0.842,1.268,0.842,2.008c0,0.732-0.305,1.465-0.842,2.001c-1.048,1.049-2.928,1.038-3.987,0
	c-0.523-0.522-0.824-1.255-0.824-2.001C1386.959,91.864,1387.26,91.135,1387.783,90.607z"/>
<path d="M1433.691,50.582V40.379c0-14.54-11.83-26.376-26.374-26.376s-26.375,11.836-26.375,26.376v10.202h9.424V40.379
	c0-9.346,7.604-16.946,16.951-16.946s16.949,7.601,16.949,16.946v10.202L1433.691,50.582L1433.691,50.582z"/>
<g>
	<g>
		<path d="M1681.104,52.53c0-14.099-11.43-25.53-25.527-25.53c-14.097,0-25.527,11.429-25.527,25.53
			c0,1.165,0.104,2.302,0.256,3.425l25.271,4.551l25.272-4.551C1680.998,54.833,1681.104,53.695,1681.104,52.53z"/>
		<path d="M1701.485,76.729V55L1658,62.832v53.122l43.485-7.832V94.757"/>
		<path d="M1610,94.755v13.366l43.486,7.832V62.834L1610,55.001v21.728"/>
	</g>
	<path d="M1608.093,90.738V77.27l-1.44,0.021c-1.773,0.021-3.436,0.715-4.664,1.953c-1.279,1.271-1.982,2.962-1.982,4.767
		c0,3.663,2.979,6.684,6.646,6.721L1608.093,90.738z"/>
	<path d="M1705.442,77.286l-1.439-0.017v13.469l1.439-0.018c1.774-0.021,3.437-0.719,4.662-1.953
		c1.277-1.271,1.982-2.959,1.982-4.767C1712.089,80.339,1709.105,77.324,1705.442,77.286z"/>
	
		<rect x="1655.108" y="117.254" transform="matrix(-0.9842 0.1772 -0.1772 -0.9842 3353.3257 -58.2096)" width="48.307" height="6.739"/>
	
		<rect x="1608.199" y="117.307" transform="matrix(0.9842 0.1772 -0.1772 0.9842 47.2249 -287.3792)" width="48.572" height="6.777"/>
</g>
<path d="M1570.769,128.79c5.374,0,9.751-4.372,9.751-9.75V72.751c0-5.378-4.374-9.751-9.751-9.751h-86.971
	c-5.378,0-9.751,4.374-9.751,9.751v46.289c0,5.378,4.374,9.75,9.751,9.75H1570.769L1570.769,128.79z"/>
<g>
	<path fill="#FFFFFF" d="M1517,40.784c0-0.756,0.3-1.482,0.832-2.006c0.498-0.495,1.231-0.778,2.023-0.778c0.008,0,0.008,0,0.011,0
		c0.782,0,1.505,0.283,2.013,0.792c0.521,0.518,0.836,1.258,0.836,1.992c0,0.749-0.312,1.497-0.836,2.014l-0.028,0.025
		c-1.024,1.05-2.966,1.061-4.033-0.033C1517.3,42.289,1517,41.555,1517,40.784z"/>
	<path fill="#FFFFFF" d="M1532.002,40.785c0-0.756,0.299-1.482,0.83-2.006c0.498-0.496,1.232-0.779,2.024-0.779
		c0.008,0,0.008,0,0.011,0c0.782,0,1.506,0.283,2.012,0.793c0.521,0.518,0.837,1.258,0.837,1.992c0,0.748-0.312,1.496-0.837,2.014
		l-0.027,0.025c-1.024,1.048-2.966,1.06-4.033-0.033C1532.301,42.289,1532.002,41.556,1532.002,40.785z"/>
</g>
<image overflow="visible" enable-background="new    " width="600" height="315" xlink:href="../../../../../../private/var/folders/by/qxcbwlzs5qqf2mmwx00k4c3h0000gp/T/noun-project.png"  transform="matrix(1.345 0 0 1.345 1755.0183 146.2207)">
</image>
<polygon points="2095.011,111.389 2061.775,78.152 2094.011,45.915 2075.096,27 2042.859,59.237 2010.927,27.304 1992.011,46.219 
	2023.945,78.152 1991.011,111.084 2009.927,130 2042.859,97.066 2076.096,130.305 "/>
<polygon points="1836.004,63.364 1799.513,63.364 1799.513,27 1772.494,27 1772.494,63.364 1736.004,63.364 1736.004,90.637 
	1772.494,90.637 1772.494,127 1799.513,127 1799.513,90.637 1836.004,90.637 "/>
<rect x="2244.513" y="-244.94" transform="matrix(-0.7071 0.7071 -0.7071 -0.7071 3769.3809 -2024.4585)" width="118.913" height="26.749"/>
<rect x="2245.544" y="-244.639" transform="matrix(0.7071 0.7071 -0.7071 0.7071 511.5863 -1697.6122)" width="118.914" height="26.75"/>
<rect x="2018.033" y="-303.016" width="102" height="101.998"/>
<polygon points="1969.912,128 1907.919,26 1845.912,128 "/>
<g>
	<g>
		<polygon points="2154.119,97 2186,128.881 2186,27 2122,27 2122,129.118 		"/>
	</g>
</g>
<polygon points="2330.36,66.292 2291.066,27 2267.945,50.121 2244.825,27 2205.53,66.292 2267.912,128.671 2267.945,128.639 
	2267.979,128.671 "/>
</svg>
