<?xml version="1.0" encoding="utf-8"?>
<!-- Generator: Adobe Illustrator 15.0.2, SVG Export Plug-In . SVG Version: 6.00 Build 0)  -->
<!DOCTYPE svg PUBLIC "-//W3C//DTD SVG 1.1//EN" "http://www.w3.org/Graphics/SVG/1.1/DTD/svg11.dtd">
<svg version="1.1"
	 id="svg2" xmlns:svg="http://www.w3.org/2000/svg" xmlns:rdf="http://www.w3.org/1999/02/22-rdf-syntax-ns#" xmlns:cc="http://creativecommons.org/ns#" xmlns:dc="http://purl.org/dc/elements/1.1/"
	 xmlns="http://www.w3.org/2000/svg" xmlns:xlink="http://www.w3.org/1999/xlink" x="0px" y="0px" width="16px" height="16px"
	 viewBox="0 0 16 16" enable-background="new 0 0 16 16" xml:space="preserve">
<rect id="canvas" display="none" fill="none" width="16" height="16"/>
<path fill="#734A08" d="M9.022,0.072C8.854,0.112,8.679,0.144,8.5,0.17v2.205L14,5H2l5.5-2.625V0.25
	c-0.381,0-0.738-0.037-1.081-0.092C2.758,0.892,0,4.123,0,8c0,4.419,3.582,8,8,8c4.419,0,8-3.581,8-8
	C16,3.929,12.957,0.575,9.022,0.072z M14,7h-1v4h1v1H2v-1h1V7H2V6h12V7z"/>
<path fill="#734A08" d="M10,9c0-1-1-1.5-2-1.5S6,8,6,9v2h4V9z"/>
</svg>
