<?xml version="1.0" encoding="utf-8"?>
<!-- Generator: Adobe Illustrator 15.0.2, SVG Export Plug-In . SVG Version: 6.00 Build 0)  -->
<!DOCTYPE svg PUBLIC "-//W3C//DTD SVG 1.1//EN" "http://www.w3.org/Graphics/SVG/1.1/DTD/svg11.dtd">
<svg version="1.1"
	 id="svg2" xmlns:svg="http://www.w3.org/2000/svg" xmlns:rdf="http://www.w3.org/1999/02/22-rdf-syntax-ns#" xmlns:cc="http://creativecommons.org/ns#" xmlns:dc="http://purl.org/dc/elements/1.1/"
	 xmlns="http://www.w3.org/2000/svg" xmlns:xlink="http://www.w3.org/1999/xlink" x="0px" y="0px" width="14px" height="14px"
	 viewBox="0 0 14 14" enable-background="new 0 0 14 14" xml:space="preserve">
<rect id="canvas" display="none" fill="none" width="14" height="14"/>
<rect x="1.681" y="1.25" fill="#11D1AC" width="4" height="4"/>
<g>
	<g>
		<path d="M7,9.223c-0.728,0-1.319,0.854-1.319,1.902v2.873h2.637v-2.873C8.316,10.075,7.727,9.223,7,9.223z M0,0v14h4.529v-2.874
			c0-1.965,1.108-3.563,2.471-3.563c1.359,0,2.468,1.601,2.468,3.563V14H14V0H0z M3.115,7.5H1.167L1.083,7.284
			c0.371-0.219,0.675-0.46,0.912-0.724s0.356-0.519,0.356-0.764c0-0.13-0.041-0.235-0.122-0.314
			C2.147,5.403,2.033,5.364,1.887,5.364c-0.139,0-0.255,0.026-0.35,0.078c-0.095,0.052-0.188,0.12-0.278,0.202l-0.152-0.22
			C1.16,5.357,1.237,5.29,1.336,5.22c0.1-0.069,0.217-0.127,0.35-0.174C1.82,5,1.955,4.976,2.091,4.976
			c0.194,0,0.358,0.033,0.49,0.1C2.713,5.143,2.811,5.23,2.875,5.34s0.096,0.231,0.096,0.364c0,0.256-0.123,0.513-0.368,0.772
			C2.357,6.735,2.045,6.972,1.667,7.188l1.16-0.108l0.152-0.336L3.23,6.796L3.115,7.5z M5.535,7.5H3.586L3.502,7.284
			c0.371-0.219,0.675-0.46,0.912-0.724s0.356-0.519,0.356-0.764c0-0.13-0.041-0.235-0.122-0.314
			C4.567,5.403,4.453,5.364,4.307,5.364c-0.139,0-0.255,0.026-0.35,0.078c-0.095,0.052-0.188,0.12-0.278,0.202l-0.152-0.22
			C3.58,5.357,3.657,5.29,3.756,5.22c0.1-0.069,0.217-0.127,0.35-0.174C4.24,5,4.375,4.976,4.511,4.976
			c0.194,0,0.358,0.033,0.49,0.1C5.133,5.143,5.23,5.23,5.294,5.34s0.096,0.231,0.096,0.364c0,0.256-0.123,0.513-0.368,0.772
			C4.777,6.735,4.465,6.972,4.086,7.188l1.16-0.108l0.152-0.336L5.65,6.796L5.535,7.5z M12.317,5.25h-4v-4h4V5.25z"/>
	</g>
</g>
</svg>
