<?xml version="1.0" encoding="utf-8"?>
<!-- Generator: Adobe Illustrator 15.0.2, SVG Export Plug-In . SVG Version: 6.00 Build 0)  -->
<!DOCTYPE svg PUBLIC "-//W3C//DTD SVG 1.1//EN" "http://www.w3.org/Graphics/SVG/1.1/DTD/svg11.dtd">
<svg version="1.1"
	 id="tourism_apartment" xmlns:svg="http://www.w3.org/2000/svg" xmlns:rdf="http://www.w3.org/1999/02/22-rdf-syntax-ns#" xmlns:cc="http://creativecommons.org/ns#" xmlns:dc="http://purl.org/dc/elements/1.1/"
	 xmlns="http://www.w3.org/2000/svg" xmlns:xlink="http://www.w3.org/1999/xlink" x="0px" y="0px" width="14px" height="14px"
	 viewBox="0 0 14 14" enable-background="new 0 0 14 14" xml:space="preserve">
<rect id="canvas" display="none" fill="none" width="14" height="14"/>
<path d="M3.454,3.986v2.562c0.723-0.088,1.452-0.088,2.173,0V3.986C4.905,3.899,4.176,3.899,3.454,3.986z"/>
<path d="M9.777,5.723v2.45c0.691,0.084,1.389,0.084,2.082,0v-2.45C11.167,5.807,10.469,5.807,9.777,5.723z"/>
<path d="M13.574,2.293L13.574,2.293c-0.824,0.427-1.705,0.634-2.693,0.634c-0.89,0-1.797-0.174-2.696-0.388v-0.53
	c0-0.126-0.083-0.235-0.205-0.268C7.896,1.72,7.812,1.697,7.729,1.675C6.445,1.344,5.118,1,3.794,1C2.958,1,2.191,1.14,1.465,1.418
	v0.716H0v9.701V14h1.561v-2.165V9.704c0.692-0.285,1.425-0.434,2.233-0.434c1.204,0,2.444,0.311,3.649,0.621v0.539
	c0,0.126,0.086,0.237,0.209,0.268c1.041,0.258,2.182,0.498,3.229,0.498c1.085,0,2.053-0.229,2.962-0.697L14,10.417V2.073
	L13.574,2.293z M7.658,7.035C6.996,6.794,6.314,6.63,5.627,6.548v2.325c-0.608-0.111-1.22-0.187-1.831-0.187
	c-0.117,0-0.229,0.01-0.342,0.016V6.548C2.813,6.623,2.181,6.775,1.561,6.989V4.429c0.62-0.215,1.253-0.365,1.893-0.442V1.599
	c0.113-0.006,0.224-0.017,0.341-0.017c0.604,0,1.218,0.079,1.832,0.196v2.208c0.688,0.082,1.369,0.246,2.031,0.488V7.035z
	 M13.417,7.84c-0.512,0.157-1.031,0.271-1.558,0.333v2.359c-0.316,0.05-0.639,0.082-0.978,0.082c-0.425,0-0.853-0.042-1.282-0.106
	V8.172C9.123,8.117,8.65,8.023,8.185,7.896V5.378c0.522,0.164,1.055,0.28,1.593,0.345V3.431c0.367,0.047,0.735,0.078,1.104,0.078
	c0.339,0,0.661-0.029,0.978-0.074v2.288c0.525-0.063,1.047-0.175,1.558-0.333V7.84z"/>
</svg>
