<?xml version="1.0" encoding="utf-8"?>
<!-- Generator: Adobe Illustrator 13.0.2, SVG Export Plug-In . SVG Version: 6.00 Build 14948)  -->
<!DOCTYPE svg PUBLIC "-//W3C//DTD SVG 1.0//EN" "http://www.w3.org/TR/2001/REC-SVG-20010904/DTD/svg10.dtd">
<svg version="1.0"
	 id="svg2" xmlns:dc="http://purl.org/dc/elements/1.1/" xmlns:cc="http://web.resource.org/cc/" xmlns:rdf="http://www.w3.org/1999/02/22-rdf-syntax-ns#" xmlns:svg="http://www.w3.org/2000/svg" xmlns:sodipodi="http://sodipodi.sourceforge.net/DTD/sodipodi-0.dtd" xmlns:inkscape="http://www.inkscape.org/namespaces/inkscape" sodipodi:version="0.32" inkscape:version="0.44" sodipodi:docbase="C:\Documents and Settings\ltljltlj\Desktop\Signs\Guide Signs" sodipodi:docname="Handicapped Accessible sign (Outline).svg"
	 xmlns="http://www.w3.org/2000/svg" xmlns:xlink="http://www.w3.org/1999/xlink" x="0px" y="0px" width="451px" height="451px"
	 viewBox="0 0 451 451" enable-background="new 0 0 451 451" xml:space="preserve">
<sodipodi:namedview  height="451px" width="451px" id="base" bordercolor="#666666" borderopacity="1.0" gridtolerance="10000" guidetolerance="10" objecttolerance="10" inkscape:zoom="1.7117517" inkscape:cx="225.5" pagecolor="#ffffff" inkscape:cy="225.5" inkscape:pageopacity="0.0" inkscape:pageshadow="2" inkscape:document-units="px" inkscape:current-layer="layer1" inkscape:window-width="1280" inkscape:window-height="968" inkscape:window-x="-4" inkscape:window-y="-4">
	</sodipodi:namedview>
<g id="layer1" inkscape:label="Layer 1" inkscape:groupmode="layer">
	<path id="rect1872" fill="#FFFFFF" stroke="#000000" d="M38,0.5h375c20.775,0,37.5,16.725,37.5,37.5v375
		c0,20.773-16.725,37.5-37.5,37.5H38c-20.773,0-37.5-16.727-37.5-37.5V38C0.5,17.225,17.225,0.5,38,0.5z"/>
	<path id="rect2760" fill="#FF0000" d="M38,13h375c13.852,0,25,11.148,25,25v375c0,13.85-11.148,25-25,25H38
		c-13.85,0-25-11.15-25-25V38C13,24.15,24.15,13,38,13z"/>
	<path id="path1938" fill="#FFFFFF" d="M180.952,412.829c-10.417-0.924-19.79-2.869-29.008-6.023
		c-42.147-14.423-73.435-51.839-80.729-96.543c-0.426-2.613-0.935-6.232-1.13-8.042c-0.477-4.424-0.475-20.001,0.004-24.397
		c1.585-14.588,5.396-28.156,11.55-41.117c11.658-24.562,30.948-44.629,54.559-56.76l3.411-1.753l0.156,1.433
		c0.164,1.501,2.554,33.759,2.554,34.473c0,0.228-0.992,1.088-2.206,1.914c-5.138,3.503-11.337,9.074-15.549,13.977
		c-11.771,13.701-18.816,29.271-21.584,47.698c-0.511,3.399-0.601,5.126-0.613,11.925c-0.018,8.172,0.19,10.992,1.22,16.584
		c3.379,18.348,11.511,34.1,24.411,47.298c4.483,4.587,8.25,7.735,13.596,11.368c20.599,14,46.125,18.283,70.16,11.772
		c5.856-1.586,10.472-3.444,17.321-6.977c18.34-9.455,33.598-26.494,41.362-46.191c2.313-5.867,4.343-13.294,5.212-19.075
		c0.26-1.721,0.533-3.128,0.608-3.126c0.076,0.001,4.853,9.9,10.612,21.998l10.476,21.996l-1.356,2.591
		c-14.075,26.895-38.493,48.142-67.048,58.344c-8.914,3.187-16.688,5.012-26.603,6.246
		C198.28,412.946,185.001,413.188,180.952,412.829z M325.265,371.944c-0.278-0.654-11.323-27.188-24.545-58.963l-24.04-57.771
		h-59.828c-32.906,0-59.84-0.03-59.854-0.068s-2.649-37.754-5.859-83.813l-5.835-83.745l-0.938-2.098
		c-1.89-4.219-2.83-8.25-3.029-12.979c-0.688-16.326,10.645-30.837,26.575-34.03c3.421-0.686,8.771-0.619,12.371,0.154
		c9.737,2.091,17.912,8.479,22.411,17.514c2.518,5.059,3.582,9.543,3.588,15.129c0.012,10.654-4.778,20.356-13.3,26.937
		c-3.902,3.014-10.18,5.68-14.42,6.125l-1.709,0.18l0.121,1.403c0.146,1.688,3.575,64.557,3.575,65.544v0.69h41.842h41.841v15.625
		v15.625h-40.276H183.68l0.155,1.987c0.085,1.093,0.43,5.907,0.763,10.698l0.604,8.711l11.108-0.15
		c25.046-0.34,100.078-0.717,100.267-0.504c0.111,0.125,10.836,25.423,23.831,56.216s23.724,55.988,23.839,55.99
		c0.116,0.001,8.225-2.961,18.018-6.584c9.793-3.622,17.867-6.522,17.943-6.444c0.354,0.362,9.858,23.881,9.713,24.028
		c-0.165,0.168-62.851,25.417-63.707,25.66C325.895,373.099,325.631,372.801,325.265,371.944z"/>
	<path fill="none" stroke="#FF0000" stroke-width="20" d="M431,431"/>
	<path fill="none" stroke="#FF0000" stroke-width="20" d="M20,20"/>
	<line fill="#FFFFFF" stroke="#FFFFFF" stroke-width="50" x1="20" y1="431" x2="431" y2="20"/>
</g>
</svg>
