<?xml version="1.0" encoding="utf-8"?>
<!-- Generator: Adobe Illustrator 13.0.2, SVG Export Plug-In . SVG Version: 6.00 Build 14948)  -->
<!DOCTYPE svg PUBLIC "-//W3C//DTD SVG 1.0//EN" "http://www.w3.org/TR/2001/REC-SVG-20010904/DTD/svg10.dtd">
<svg version="1.0"
	 id="svg2" xmlns:dc="http://purl.org/dc/elements/1.1/" xmlns:cc="http://web.resource.org/cc/" xmlns:sodipodi="http://sodipodi.sourceforge.net/DTD/sodipodi-0.dtd" xmlns:svg="http://www.w3.org/2000/svg" xmlns:inkscape="http://www.inkscape.org/namespaces/inkscape" xmlns:rdf="http://www.w3.org/1999/02/22-rdf-syntax-ns#" sodipodi:docname="Handicapped Accessible sign (Outline).svg" inkscape:version="0.44" sodipodi:version="0.32" sodipodi:docbase="C:\Documents and Settings\ltljltlj\Desktop\Signs\Guide Signs"
	 xmlns="http://www.w3.org/2000/svg" xmlns:xlink="http://www.w3.org/1999/xlink" x="0px" y="0px" width="451px" height="451px"
	 viewBox="0 0 451 451" enable-background="new 0 0 451 451" xml:space="preserve">
<sodipodi:namedview  height="451px" width="451px" id="base" bordercolor="#666666" inkscape:cx="225.5" pagecolor="#ffffff" inkscape:zoom="1.7117517" borderopacity="1.0" objecttolerance="10" guidetolerance="10" gridtolerance="10000" inkscape:cy="225.5" inkscape:window-y="-4" inkscape:pageopacity="0.0" inkscape:window-height="968" inkscape:window-x="-4" inkscape:pageshadow="2" inkscape:window-width="1280" inkscape:current-layer="layer1" inkscape:document-units="px">
	</sodipodi:namedview>
<g id="layer1" inkscape:label="Layer 1" inkscape:groupmode="layer">
	<path id="rect1872" fill="#FFFFFF" stroke="#000000" d="M38,0.5h375c20.775,0,37.5,16.725,37.5,37.5v375
		c0,20.774-16.725,37.5-37.5,37.5H38c-20.774,0-37.5-16.726-37.5-37.5V38C0.5,17.225,17.225,0.5,38,0.5z"/>
	<path id="rect2760" fill="#757575" d="M38,13h375c13.851,0,25,11.149,25,25v375c0,13.85-11.149,25-25,25H38
		c-13.85,0-25-11.15-25-25V38C13,24.15,24.15,13,38,13z"/>
	<path id="path1938" fill="#FFFFFF" d="M160.952,412.829c-10.417-0.923-19.79-2.869-29.008-6.023
		c-42.147-14.423-73.434-51.839-80.728-96.543c-0.426-2.613-0.935-6.232-1.13-8.042c-0.477-4.424-0.475-20.001,0.004-24.397
		c1.585-14.588,5.396-28.157,11.549-41.118c11.659-24.561,30.949-44.629,54.559-56.759l3.411-1.753l0.156,1.432
		c0.164,1.501,2.554,33.759,2.554,34.473c0,0.227-0.992,1.088-2.206,1.914c-5.138,3.503-11.337,9.074-15.549,13.977
		c-11.771,13.701-18.816,29.27-21.584,47.698c-0.511,3.399-0.6,5.126-0.613,11.925c-0.018,8.171,0.19,10.992,1.22,16.584
		c3.379,18.347,11.51,34.099,24.411,47.297c4.483,4.587,8.25,7.736,13.595,11.369c20.599,14,46.125,18.283,70.161,11.772
		c5.856-1.586,10.471-3.444,17.321-6.977c18.34-9.455,33.598-26.494,41.362-46.191c2.313-5.867,4.343-13.294,5.212-19.075
		c0.26-1.721,0.533-3.128,0.609-3.126c0.076,0.001,4.852,9.9,10.612,21.998l10.475,21.996l-1.356,2.591
		c-14.075,26.894-38.493,48.141-67.048,58.344c-8.914,3.186-16.688,5.011-26.602,6.246
		C178.28,412.946,165.001,413.188,160.952,412.829z M305.265,371.944c-0.278-0.655-11.323-27.188-24.545-58.963l-24.04-57.772
		h-59.828c-32.906,0-59.84-0.03-59.853-0.068c-0.014-0.038-2.65-37.754-5.86-83.814l-5.835-83.745l-0.938-2.097
		c-1.89-4.219-2.83-8.25-3.029-12.98c-0.688-16.326,10.644-30.837,26.575-34.03c3.421-0.686,8.771-0.619,12.371,0.154
		c9.737,2.091,17.912,8.479,22.411,17.514c2.518,5.058,3.582,9.543,3.588,15.129c0.012,10.654-4.778,20.356-13.3,26.936
		c-3.902,3.014-10.179,5.68-14.42,6.125l-1.709,0.18l0.121,1.403c0.146,1.689,3.576,64.557,3.576,65.544v0.691h41.841h41.841v15.625
		v15.625h-40.276H163.68l0.156,1.987c0.085,1.093,0.429,5.907,0.762,10.698l0.605,8.711l11.108-0.15
		c25.046-0.34,100.078-0.717,100.267-0.504c0.111,0.125,10.836,25.423,23.831,56.216s23.723,55.988,23.839,55.99
		c0.116,0.001,8.224-2.961,18.017-6.584c9.793-3.622,17.867-6.522,17.944-6.444c0.354,0.362,9.858,23.88,9.712,24.028
		c-0.165,0.168-62.85,25.417-63.707,25.66C305.895,373.099,305.63,372.801,305.265,371.944z"/>
	<path fill="none" stroke="#FF0000" stroke-width="20" d="M431,431"/>
	<path fill="none" stroke="#FF0000" stroke-width="20" d="M20,20"/>
	<path fill="none" stroke="#FF0000" stroke-width="20" d="M431,20"/>
	<path fill="none" stroke="#FF0000" stroke-width="20" d="M20,431"/>
</g>
<g>
	<path fill="#FFFFFF" d="M392.642,80.082c0,7.239-1.058,13.636-3.169,19.191c-2.113,5.556-5.103,10.375-8.97,14.46
		c-3.867,4.087-8.505,7.743-13.911,10.969c-5.408,3.226-11.513,6.163-18.315,8.815v24.514h-37.813v-36.233
		c5.084-1.363,9.685-2.761,13.804-4.195c4.117-1.433,8.433-3.765,12.944-6.992c4.225-2.869,7.536-6.204,9.937-10.004
		c2.398-3.8,3.599-8.104,3.599-12.909c0-7.17-2.31-12.281-6.929-15.329c-4.619-3.048-11.118-4.572-19.497-4.572
		c-5.156,0-10.976,1.111-17.456,3.33c-6.482,2.221-12.407,5.086-17.778,8.594h-4.297V46.957c4.582-1.934,11.637-3.956,21.162-6.069
		c9.523-2.111,19.191-3.169,29.004-3.169c17.688,0,31.725,3.907,42.109,11.719C387.449,57.251,392.642,67.467,392.642,80.082z
		 M351.285,201h-43.398v-28.359h43.398V201z"/>
</g>
</svg>
