<?xml version="1.0" encoding="utf-8"?>
<!-- Generator: Adobe Illustrator 13.0.2, SVG Export Plug-In . SVG Version: 6.00 Build 14948)  -->
<!DOCTYPE svg PUBLIC "-//W3C//DTD SVG 1.0//EN" "http://www.w3.org/TR/2001/REC-SVG-20010904/DTD/svg10.dtd">
<svg version="1.0"
	 id="svg2" xmlns:dc="http://purl.org/dc/elements/1.1/" xmlns:cc="http://web.resource.org/cc/" xmlns:rdf="http://www.w3.org/1999/02/22-rdf-syntax-ns#" xmlns:svg="http://www.w3.org/2000/svg" xmlns:sodipodi="http://sodipodi.sourceforge.net/DTD/sodipodi-0.dtd" xmlns:inkscape="http://www.inkscape.org/namespaces/inkscape" sodipodi:version="0.32" sodipodi:docname="Handicapped Accessible sign (Outline).svg" sodipodi:docbase="C:\Documents and Settings\ltljltlj\Desktop\Signs\Guide Signs" inkscape:version="0.44"
	 xmlns="http://www.w3.org/2000/svg" xmlns:xlink="http://www.w3.org/1999/xlink" x="0px" y="0px" width="451px" height="451px"
	 viewBox="0 0 451 451" enable-background="new 0 0 451 451" xml:space="preserve">
<sodipodi:namedview  width="451px" height="451px" id="base" objecttolerance="10" guidetolerance="10" gridtolerance="10000" borderopacity="1.0" bordercolor="#666666" inkscape:cy="225.5" pagecolor="#ffffff" inkscape:cx="225.5" inkscape:zoom="1.7117517" inkscape:window-y="-4" inkscape:window-x="-4" inkscape:window-height="968" inkscape:window-width="1280" inkscape:current-layer="layer1" inkscape:document-units="px" inkscape:pageshadow="2" inkscape:pageopacity="0.0">
	</sodipodi:namedview>
<g id="layer1" inkscape:label="Layer 1" inkscape:groupmode="layer">
	<path id="rect1872" fill="#FFFFFF" stroke="#000000" d="M38,0.5h375c20.775,0,37.5,16.725,37.5,37.5v375
		c0,20.772-16.725,37.5-37.5,37.5H38c-20.772,0-37.5-16.728-37.5-37.5V38C0.5,17.225,17.225,0.5,38,0.5z"/>
	<path id="rect2760" fill="#E8AB00" d="M38,13h375c13.853,0,25,11.147,25,25v375c0,13.85-11.147,25-25,25H38
		c-13.85,0-25-11.15-25-25V38C13,24.15,24.15,13,38,13z"/>
	<path id="path1938" fill="#FFFFFF" d="M204.273,323.287c-8.012-0.71-15.221-2.207-22.313-4.635
		c-32.416-11.093-56.479-39.868-62.089-74.253c-0.327-2.01-0.719-4.793-0.869-6.185c-0.365-3.402-0.363-15.383,0.003-18.765
		c1.221-11.222,4.15-21.656,8.884-31.625c8.967-18.892,23.803-34.325,41.961-43.654l2.624-1.35l0.118,1.103
		c0.128,1.154,1.967,25.964,1.967,26.513c0,0.174-0.766,0.837-1.697,1.475c-3.951,2.691-8.72,6.979-11.959,10.749
		c-9.054,10.536-14.473,22.512-16.603,36.686c-0.393,2.614-0.461,3.942-0.472,9.172c-0.014,6.284,0.146,8.454,0.938,12.755
		c2.599,14.11,8.853,26.228,18.773,36.377c3.448,3.527,6.348,5.95,10.456,8.744c15.843,10.77,35.478,14.063,53.962,9.055
		c4.504-1.22,8.055-2.647,13.322-5.364c14.105-7.272,25.841-20.377,31.813-35.526c1.777-4.513,3.34-10.225,4.009-14.671
		c0.199-1.324,0.41-2.406,0.469-2.404c0.059,0,3.731,7.614,8.162,16.919l8.056,16.917l-1.043,1.993
		c-10.825,20.687-29.604,37.025-51.566,44.873c-6.855,2.45-12.834,3.854-20.459,4.804
		C217.599,323.377,207.386,323.563,204.273,323.287z M315.266,291.842c-0.214-0.505-8.709-20.911-18.878-45.35l-18.489-44.436
		h-46.017c-25.309,0-46.021-0.021-46.031-0.053c-0.014-0.029-2.039-29.037-4.51-64.463l-4.486-64.41l-0.723-1.613
		c-1.452-3.245-2.178-6.345-2.328-9.981c-0.529-12.559,8.186-23.719,20.438-26.175c2.631-0.525,6.745-0.476,9.514,0.119
		c7.49,1.608,13.777,6.522,17.237,13.472c1.938,3.89,2.755,7.34,2.76,11.636c0.011,8.193-3.675,15.657-10.229,20.717
		c-3.001,2.318-7.828,4.368-11.09,4.711l-1.314,0.138l0.093,1.079c0.112,1.301,2.751,49.652,2.751,50.411v0.532h32.182h32.181
		v12.018v12.019h-30.978H206.37l0.121,1.529c0.064,0.84,0.329,4.543,0.586,8.228l0.465,6.7l8.544-0.116
		c19.265-0.261,76.974-0.551,77.116-0.387c0.086,0.096,8.335,19.553,18.329,43.234c9.995,23.686,18.246,43.063,18.335,43.063
		c0.09,0.001,6.325-2.277,13.857-5.063c7.531-2.786,13.741-5.017,13.801-4.956c0.272,0.278,7.582,18.366,7.47,18.48
		c-0.127,0.129-48.339,19.549-48.998,19.735C315.753,292.73,315.549,292.501,315.266,291.842z"/>
</g>
<g>
	<path fill="#FFFFFF" d="M96.437,406H58.679v-52.348h13.5v42.223h24.258V406z"/>
	<path fill="#FFFFFF" d="M132.859,406h-30.656v-9.281h8.578v-33.785h-8.578v-9.281h30.656v9.281h-8.578v33.785h8.578V406z"/>
	<path fill="#FFFFFF" d="M198.742,406h-13.43v-35.051l-9.703,22.746h-9.316l-9.703-22.746V406h-12.727v-52.348h15.68l11.777,26.262
		l11.742-26.262h15.68V406z"/>
	<path fill="#FFFFFF" d="M240.402,406h-30.656v-9.281h8.578v-33.785h-8.578v-9.281h30.656v9.281h-8.578v33.785h8.578V406z"/>
	<path fill="#FFFFFF" d="M292.363,363.778h-16.348V406h-13.5v-42.223h-16.348v-10.125h46.195V363.778z"/>
	<path fill="#FFFFFF" d="M338.347,406h-37.863v-52.348h37.863v10.125h-24.434v9.035h22.676v10.125h-22.676v12.938h24.434V406z"/>
	<path fill="#FFFFFF" d="M399.133,379.879c0,4.875-1.113,9.24-3.34,13.096s-5.039,6.814-8.438,8.877
		c-2.555,1.547-5.355,2.625-8.402,3.234S372.297,406,368.125,406h-18.457v-52.348h18.984c4.266,0,7.945,0.357,11.039,1.072
		s5.695,1.729,7.805,3.041c3.609,2.203,6.451,5.174,8.525,8.912S399.133,374.817,399.133,379.879z M385.176,379.774
		c0-3.445-0.627-6.393-1.881-8.842s-3.24-4.365-5.959-5.748c-1.383-0.68-2.795-1.143-4.236-1.389s-3.615-0.369-6.521-0.369h-3.41
		v32.766h3.41c3.211,0,5.566-0.146,7.066-0.439s2.965-0.826,4.395-1.6c2.461-1.406,4.266-3.287,5.414-5.643
		S385.176,383.242,385.176,379.774z"/>
</g>
</svg>
