<?xml version="1.0" encoding="UTF-8" standalone="no"?>
<!-- Created with Inkscape (http://www.inkscape.org/) -->
<svg
   xmlns:dc="http://purl.org/dc/elements/1.1/"
   xmlns:cc="http://web.resource.org/cc/"
   xmlns:rdf="http://www.w3.org/1999/02/22-rdf-syntax-ns#"
   xmlns:svg="http://www.w3.org/2000/svg"
   xmlns="http://www.w3.org/2000/svg"
   xmlns:sodipodi="http://sodipodi.sourceforge.net/DTD/sodipodi-0.dtd"
   xmlns:inkscape="http://www.inkscape.org/namespaces/inkscape"
   width="451"
   height="451"
   id="svg2"
   sodipodi:version="0.32"
   inkscape:version="0.44"
   version="1.0"
   sodipodi:docbase="C:\Documents and Settings\ltljltlj\Desktop\Signs\Guide Signs"
   sodipodi:docname="Handicapped Accessible sign (Outline).svg">
  <defs
     id="defs4" />
  <sodipodi:namedview
     id="base"
     pagecolor="#ffffff"
     bordercolor="#666666"
     borderopacity="1.0"
     gridtolerance="10000"
     guidetolerance="10"
     objecttolerance="10"
     inkscape:pageopacity="0.0"
     inkscape:pageshadow="2"
     inkscape:zoom="1.7117517"
     inkscape:cx="225.5"
     inkscape:cy="225.5"
     inkscape:document-units="px"
     inkscape:current-layer="layer1"
     width="451px"
     height="451px"
     inkscape:window-width="1280"
     inkscape:window-height="968"
     inkscape:window-x="-4"
     inkscape:window-y="-4" />
  <metadata
     id="metadata7">
    <rdf:RDF>
      <cc:Work
         rdf:about="">
        <dc:format>image/svg+xml</dc:format>
        <dc:type
           rdf:resource="http://purl.org/dc/dcmitype/StillImage" />
      </cc:Work>
    </rdf:RDF>
  </metadata>
  <g
     inkscape:label="Layer 1"
     inkscape:groupmode="layer"
     id="layer1">
    <path
       style="color:black;fill:white;fill-opacity:1;fill-rule:nonzero;stroke:black;stroke-width:1;stroke-linecap:butt;stroke-linejoin:miter;marker:none;marker-start:none;marker-mid:none;marker-end:none;stroke-miterlimit:4;stroke-dashoffset:0;stroke-opacity:1;visibility:visible;display:inline;overflow:visible"
       d="M 38,0.5 L 413,0.5 C 433.775,0.5 450.5,17.225 450.5,38 L 450.5,413 C 450.5,433.775 433.775,450.5 413,450.5 L 38,450.5 C 17.225,450.5 0.5,433.775 0.5,413 L 0.5,38 C 0.5,17.225 17.225,0.5 38,0.5 z "
       id="rect1872" />
    <path
       style="color:black;fill:#003f87;fill-opacity:1;fill-rule:nonzero;stroke:none;stroke-width:0.8735441;stroke-linecap:butt;stroke-linejoin:miter;marker:none;marker-start:none;marker-mid:none;marker-end:none;stroke-miterlimit:4;stroke-dashoffset:0;stroke-opacity:1;visibility:visible;display:inline;overflow:visible"
       d="M 38,13 L 413,13 C 426.85,13 438,24.15 438,38 L 438,413 C 438,426.85 426.85,438 413,438 L 38,438 C 24.15,438 13,426.85 13,413 L 13,38 C 13,24.15 24.15,13 38,13 z "
       id="rect2760" />
    <path
       style="fill:white;fill-opacity:1"
       d="M 180.95162,412.82907 C 170.53495,411.90677 161.16201,409.96067 151.94382,406.80617 C 109.79687,392.38297 78.510312,354.96676 71.216908,310.26326 C 70.790437,307.64926 70.282041,304.03036 70.087124,302.22106 C 69.6105,297.79686 69.612455,282.22036 70.090182,277.82385 C 71.67532,263.23595 75.486767,249.66635 81.639749,236.70495 C 93.298848,212.14475 112.58901,192.07665 136.19821,179.94634 L 139.60891,178.19394 L 139.76542,179.62564 C 139.92948,181.12634 142.31911,213.38385 142.31911,214.09765 C 142.31911,214.32405 141.32655,215.18565 140.11345,216.01245 C 134.9749,219.51455 128.77578,225.08665 124.56408,229.98885 C 112.79305,243.68995 105.74817,259.25835 102.98032,277.68685 C 102.46979,281.08596 102.38089,282.81306 102.36657,289.61126 C 102.34935,297.78216 102.55697,300.60376 103.58696,306.19596 C 106.96593,324.54186 115.09625,340.29466 127.99757,353.49246 C 132.48116,358.07906 136.24798,361.22916 141.59269,364.86166 C 162.19152,378.86177 187.71757,383.14497 211.75343,376.63427 C 217.61021,375.04787 222.22405,373.18947 229.07519,369.65757 C 247.41526,360.20266 262.67292,343.16366 270.43768,323.46586 C 272.75057,317.59846 274.77978,310.17176 275.64952,304.39116 C 275.90847,302.66996 276.18253,301.26296 276.25852,301.26466 C 276.3345,301.26626 281.11023,311.16566 286.87123,323.26326 L 297.3458,345.25886 L 295.98941,347.85026 C 281.91335,374.74307 257.49563,395.99067 228.9415,406.19357 C 220.02693,409.37887 212.25305,411.20427 202.33989,412.43997 C 198.27987,412.94597 185.001,413.18757 180.95162,412.82907 z M 325.26484,371.94337 C 324.98677,371.28847 313.94158,344.75516 300.72001,312.98056 L 276.6808,255.20845 L 216.85215,255.20845 C 183.94641,255.20845 157.01261,255.17765 156.99926,255.13995 C 156.98592,255.10225 154.34912,217.38595 151.13972,171.32584 L 145.30444,87.580344 L 144.36562,85.483744 C 142.47671,81.265343 141.53584,77.233743 141.33641,72.503442 C 140.64806,56.17704 151.98011,41.665839 167.91152,38.473038 C 171.33246,37.787438 176.68257,37.854138 180.28324,38.627338 C 190.02058,40.718239 198.19526,47.106739 202.69382,56.14104 C 205.21203,61.198341 206.27598,65.683941 206.28222,71.269842 C 206.29409,81.924043 201.50376,91.625944 192.98251,98.205645 C 189.07993,101.21914 182.8033,103.88494 178.5618,104.33054 L 176.85342,104.50994 L 176.97476,105.91374 C 177.12076,107.60274 180.55059,170.47024 180.55059,171.45734 L 180.55059,172.14824 L 222.39136,172.14824 L 264.23212,172.14824 L 264.23212,187.77344 L 264.23212,203.39865 L 223.95623,203.39865 L 183.68037,203.39865 L 183.83626,205.38605 C 183.92201,206.47915 184.26491,211.29335 184.59825,216.08445 L 185.20433,224.79535 L 196.31196,224.64485 C 221.35834,224.30545 296.39063,223.92805 296.579,224.14045 C 296.69055,224.26635 307.41423,249.56345 320.40941,280.35646 C 333.4046,311.14946 344.13222,336.34506 344.24854,336.34676 C 344.36488,336.34836 352.4724,333.38586 362.26521,329.76316 C 372.05802,326.14056 380.13276,323.24056 380.20903,323.31886 C 380.56269,323.68136 390.06797,347.19806 389.92116,347.34716 C 389.75615,347.51476 327.07136,372.76357 326.21478,373.00757 C 325.89457,373.09867 325.62927,372.80147 325.26484,371.94337 z "
       id="path1938" />
  </g>
</svg>
