<?xml version="1.0" standalone="no"?>
<!DOCTYPE svg PUBLIC "-//W3C//DTD SVG 1.1//EN" "http://www.w3.org/Graphics/SVG/1.1/DTD/svg11.dtd" >
<svg xmlns="http://www.w3.org/2000/svg">
<metadata>Generated by IcoMoon</metadata>
<defs>
<font id="redaktor" horiz-adv-x="1024">
<font-face units-per-em="1024" ascent="960" descent="-64" />
<missing-glyph horiz-adv-x="1024" />
<glyph unicode="&#x20;" horiz-adv-x="512" d="" />
<glyph unicode="&#x21;" glyph-name="followMutual" horiz-adv-x="1493" d="M0 454.805c0-225.973 183.2-409.163 409.184-409.163 114.677 0 218.283 47.264 292.587 123.307l-290.699 289.856 286.773 285.995c-73.973 73.643-176 119.2-288.661 119.2-225.984 0-409.184-183.189-409.184-409.195zM1081.931 853.333c-112.661 0-214.699-45.557-288.661-119.2l286.784-285.995-290.72-289.856c74.304-76.043 177.92-123.307 292.597-123.307 225.995 0 409.184 183.189 409.184 409.163 0 226.005-183.2 409.195-409.184 409.195z" />
<glyph unicode="&#x22;" glyph-name="mapAeroNautical" horiz-adv-x="1173" d="M885.237 117.995c-2.464 6.272-8.139 10.645-14.848 11.499l-442.517 55.317v640.523c0 15.488-12.512 28-28 28s-28-12.512-28-28v-633.504l-329.835 41.237c-6.741 0.853-13.408-2.101-17.333-7.605-3.915-5.547-4.448-12.811-1.419-18.891l109.952-219.915c8.928-17.973 27.317-29.323 47.403-29.323h551.605c20.032 0 39.008 8.875 51.808 24.245l98.219 117.856c4.309 5.216 5.451 12.32 2.965 18.56zM333.397 802.315l10.475 23.019-129.803-129.813c-114.101-114.091-178.197-268.832-178.197-430.187l308-28c-88.555 177.109-92.395 384.715-10.475 564.981zM679.861 181.333c0 160.171-69.141 312.48-189.643 417.963l-34.347 30.037 9.131-24.341c48.043-128.128 44.8-269.877-9.131-395.669l223.989-27.989zM1170.005 960h-40v-0.16c-9.525 0.405-19.477-2.795-28.384-11.328l-124.64-124.64-218.123 59.211c-3.136 0-85.696-40.512 12.469-84.139l116.843-63.883-124.651-124.629c-21.813 1.557-76.331 6.229-79.456 0-12.469-26.485 62.325-46.741 76.341-62.315 15.584-14.027 35.829-88.811 62.315-76.341 7.797 4.683 1.557 63.872 0 84.128l123.083 123.083 63.883-118.4c42.059-98.155 82.549-15.584 82.549-12.469l-59.2 218.112 124.651 124.651c9.451 9.451 12.896 20.085 12.224 30.133h0.096v38.987z" />
<glyph unicode="&#x23;" glyph-name="trending" d="M321.008-64c-68.246 142.008-31.902 223.378 20.55 300.044 57.44 83.956 72.244 167.066 72.244 167.066s45.154-58.7 27.092-150.508c79.772 88.8 94.824 230.28 82.782 284.464 180.314-126.012 257.376-398.856 153.522-601.066 552.372 312.532 137.398 780.172 65.154 832.85 24.082-52.676 28.648-141.85-20-185.126-82.352 312.276-285.972 376.276-285.972 376.276 24.082-161.044-87.296-337.144-194.696-468.73-3.774 64.216-7.782 108.528-41.55 169.98-7.58-116.656-96.732-211.748-120.874-328.628-32.702-158.286 24.496-274.18 241.748-396.622z" />
<glyph unicode="&#x24;" glyph-name="mapHike" horiz-adv-x="1173" d="M409.888 665.056c0.853 6.272 2.624 12.139 4.309 18.048l-122.933 13.109-4.363-40.939 104.8-124.501 18.187 134.283zM385.899 488l-103.712 123.221-15.328-143.787c-3.797-35.648 22.005-67.616 57.664-71.424l61.973-6.624c-6.187 18.176-8.843 37.792-6.101 58.080l5.504 40.533zM595.851 691.243c-8.992 24.896-36.469 37.856-61.387 28.821-24.896-8.992-37.803-36.459-28.8-61.376l58.187-161.141c5.28-14.656 17.355-25.835 32.416-29.952l150.805-41.472c4.245-1.163 8.533-1.728 12.725-1.728 21.056 0 40.352 13.973 46.208 35.264 7.029 25.547-7.989 51.925-33.525 58.944l-126.859 34.88-49.771 137.76zM304.395 708.096l131.061-13.621c7.243-0.747 14.421-0.053 21.376 1.504-7.723-11.371-13.259-24.363-15.264-38.784l-18.869-135.712 81.76 45.12-28.896 77.973c-7.744 20.885-5.6 42.805 3.851 61.216 1.205 0.832 2.539 1.451 3.691 2.368 8.096 6.368 14.144 14.592 18.293 23.691 2.709 5.952 4.747 12.224 5.483 18.805 0.565 5.067 0.309 10.005-0.331 14.837-2.251 16.928-11.467 31.979-24.96 42.069 1.589 2.741 3.115 5.483 4.544 8.192 1.483-5.995 3.52-11.947 6.208-17.771 0 0 88.629 44.096 77.568 83.413 34.837-48.373 104.341-0.021 104.363-0.021-23.019 50.24-82.421 72.299-132.651 49.269-1.557-0.704-3.072-1.472-4.587-2.229 0.747 7.765-0.907 14.443-5.323 20.491-2.752 3.669-6.901 7.125-12.661 9.216-5.749 2.101-13.301 2.56-20.064 0.715-6.848-1.771-12.267-5.333-16.469-8.661-4.288-3.445-7.392-6.827-10.091-10.144-5.248-6.592-8.779-12.629-11.787-18.464-5.963-11.627-9.931-22.432-13.355-32.96-3.392-10.539-6.027-20.779-8.587-30.581-2.496-9.781-4.917-19.243-7.509-27.648-0.939-2.923-1.963-5.739-3.008-8.299l51.595-14.997c-3.179-5.333-6.688-10.816-11.104-16.224-4.501-5.536-9.899-11.179-16.992-16.139-6.944-4.971-16.341-8.789-25.728-9.173-9.461-0.352-17.941 2.187-24.331 6.101-6.464 3.861-11.328 8.736-14.997 14.123-1.867 2.72-3.541 5.483-4.832 8.491-0.64 1.504-1.248 3.029-1.845 4.533-0.459 1.643-0.971 3.147-1.323 4.875 1.76 0.053 3.349-0.149 5.035-0.139 1.525-0.096 3.040-0.192 4.587-0.224 3.029-0.096 5.909-0.288 8.661-0.309 5.461-0.149 10.315 0.032 14.187 0.832 3.883 0.853 6.325 2.219 7.456 3.712 1.173 1.451 1.653 2.581 3.008 4.405 1.632 2.261 3.541 6.091 5.397 10.624l-108.875 11.317c-17.109 1.781-34.229-3.136-47.627-13.664-13.376-10.539-21.931-25.803-23.755-42.528-3.776-34.731 22.037-65.888 57.696-69.6zM690.891 48.672l-187.595-50.027c14.24 6.88 25.536 19.584 29.877 36.053l46.859 178.112c2.656 10.165 2.421 20.875-0.715 30.891l-20.064 64.384 67.605-45.163 16.128-111.349c4.053-27.861 27.957-47.936 55.317-47.925 2.667 0 5.376 0.203 8.075 0.587 30.613 4.405 51.787 32.8 47.349 63.371l-19.723 136.011c-2.261 15.701-11.115 29.707-24.288 38.507l-108.011 72.139c0.117 0.821 0.267 1.856 0.469 3.189l2.005 14.795-16.427 4.512c-25.035 6.891-45.163 25.515-53.995 49.931l-18.283 50.624-98.165-55.595c0 0-3.904-28.864-5.216-38.496-1.099-8.128-1.323-34.869 2.283-46.411 5.685-18.261 22.763-73.003 22.763-73.003l30.571-98.048-42.752-162.603c-7.861-29.899 9.995-60.491 39.872-68.341 4.779-1.237 9.557-1.856 14.261-1.856 1.408 0 2.784 0.235 4.181 0.352l-39.669-10.581h-336.939v-46.731h343.061l247.275 65.941h357.547v46.731h-363.659z" />
<glyph unicode="&#x25;" glyph-name="mapHobby" horiz-adv-x="1173" d="M387.712 94.315c-17.675 17.675-18.773 45.312-2.197 64.107l-88.427 88.416c-17.696-15.477-46.432-15.477-64.117 2.197-17.675 17.696-18.773 45.333-2.197 64.117l-37.568 37.568c-44.213-83.989-28.747-187.893 39.776-256.416 40.896-40.907 97.259-64.107 154.752-64.107 35.36-0.011 69.621 7.723 100.587 25.429l-36.469 36.469c-18.816-16.587-46.464-15.467-64.139 2.219zM785.632 801.685c17.685-17.685 18.784-45.312 2.197-64.107l88.427-88.427c17.685 15.477 46.443 15.477 64.117-2.197 17.664-17.685 18.773-45.323 2.208-64.117l41.995-42.005c61.909 86.208 55.275 205.568-22.091 282.933-40.907 40.885-97.259 64.096-154.752 64.107-46.421 0-91.733-14.379-128.224-42.005l42.005-42.005c18.784 16.608 46.432 15.509 64.117-2.176zM409.835 425.899c17.685-17.685 18.773-45.323 2.219-64.107l88.416-88.416c17.685 15.467 46.421 15.467 64.096-2.208s18.773-45.323 2.219-64.117l44.203-44.203 259.744 259.733-44.203 44.213c-17.685-15.477-46.443-15.456-64.107 2.208-17.685 17.675-18.784 45.323-2.219 64.096l-88.416 88.427c-17.685-15.477-46.421-15.477-64.107 2.208s-18.784 45.323-2.219 64.107l-44.213 44.213-259.733-259.755 44.203-44.213c18.795 16.587 46.432 15.488 64.117-2.187zM1089.568 464.587l-44.203 44.213c-12.16 12.16-32.053 12.16-44.213 0l-14.379-14.379-88.416 88.427 19.893 19.893c5.525 5.525 6.645 15.467 0 22.101-5.515 5.515-16.565 5.504-22.091-0.021l-19.893-19.883-132.629 132.64 19.893 19.883c5.525 5.525 6.624 15.477 0 22.112-5.547 5.525-16.587 5.525-22.101 0l-19.893-19.904-88.437 88.437 14.368 14.368c12.16 12.149 12.16 32.043 0 44.203l-44.213 44.213c-12.16 12.149-32.043 12.149-44.213 0l-99.467-99.467c-12.16-12.16-12.16-32.053 0-44.224l44.203-44.213c12.16-12.16 32.053-12.149 44.224 0.011l14.357 14.368 88.437-88.437-19.893-19.893c-5.536-5.547-5.525-16.587 0-22.112 6.635-6.624 16.576-5.525 22.101 0l19.893 19.904 132.651-132.64-19.893-19.893c-5.547-5.536-5.536-16.576 0-22.101 6.613-6.624 16.555-5.525 22.091 0.011l19.883 19.893 88.437-88.427-14.368-14.379c-12.171-12.16-12.171-32.053-0.011-44.213l44.213-44.213c12.16-12.171 32.053-12.171 44.224 0l99.477 99.477c12.149 12.192 12.139 32.085-0.032 44.245zM713.771 88.8l-44.213 44.213c-12.16 12.149-32.053 12.16-44.213-0.011l-14.379-14.379-88.427 88.416 19.893 19.893c5.536 5.536 6.635 15.488 0 22.101-5.525 5.525-16.565 5.525-22.101-0.021l-19.893-19.893-132.619 132.651 19.893 19.893c5.525 5.536 6.635 15.477 0 22.101-5.525 5.547-16.565 5.547-22.101 0l-19.893-19.883-88.427 88.416 14.379 14.379c12.16 12.171 12.16 32.053 0 44.213l-44.213 44.203c-12.16 12.16-32.043 12.16-44.213 0l-99.467-99.477c-12.149-12.149-12.16-32.053 0-44.213l44.213-44.213c12.16-12.16 32.043-12.16 44.213 0.011l14.368 14.379 88.427-88.437-19.893-19.883c-5.536-5.547-5.525-16.576 0-22.112 6.635-6.613 16.576-5.525 22.112 0l19.893 19.904 132.64-132.64-19.893-19.893c-5.536-5.536-5.536-16.587-0.011-22.091 6.635-6.624 16.565-5.525 22.091 0l19.893 19.893 88.437-88.437-14.379-14.357c-12.149-12.16-12.171-32.064-0.011-44.213l44.203-44.213c12.16-12.16 32.053-12.171 44.235 0l99.467 99.467c12.171 12.192 12.16 32.085-0.011 44.235z" />
<glyph unicode="&#x26;" glyph-name="more" d="M362.667 808.75c0 83.521 67.719 151.25 151.24 151.25 83.531 0 151.24-67.729 151.24-151.25 0-83.526-67.708-151.255-151.24-151.255-83.521 0-151.24 67.729-151.24 151.255zM362.667 447.99c0 83.542 67.719 151.25 151.24 151.25 83.531 0 151.24-67.708 151.24-151.25 0-83.531-67.708-151.25-151.24-151.25-83.521 0-151.24 67.719-151.24 151.25zM362.667 87.24c0 83.521 67.719 151.229 151.24 151.229 83.531 0 151.24-67.708 151.24-151.229 0-83.531-67.708-151.24-151.24-151.24-83.521 0-151.24 67.708-151.24 151.24z" />
<glyph unicode="&#x27;" glyph-name="mapTopo" horiz-adv-x="1173" d="M1173.312 431.968c-0.629-0.213-1.248-0.309-1.664 0.331-0.544 0.779 0.512 2.549 0 3.328-1.109 1.685-5.483-1.675-6.56 0-0.523 0.789 0.523 2.571 0 3.349-1.024 1.589-3.349-1.579-4.373 0-0.523 0.779 0.523 2.56 0 3.339-1.088 1.685-5.472-1.685-6.549 0-0.533 0.789 0.523 2.571 0 3.36-0.619 0.907-7.563-0.917-8.736 0-0.949 0.693-1.28 2.645-2.197 3.349-0.64 0.48-1.664-0.8-2.176 0-0.512 0.789 0.512 2.56 0 3.339-0.448 0.683-5.685-0.661-6.549 0-0.917 0.704-1.259 2.645-2.176 3.349-1.749 1.355-4.821-1.333-6.549 0-0.928 0.704-1.28 2.667-2.197 3.349-1.739 1.355-4.8-1.333-6.549 0-0.928 0.715-1.28 2.645-2.187 3.36-1.355 1.067-7.36-1.056-8.736 0-0.928 0.704-1.237 2.645-2.165 3.349-0.661 0.501-1.557-0.501-2.197 0-0.917 0.704-1.269 2.645-2.187 3.349-0.651 0.491-1.664-0.779-2.187 0-0.491 0.789 0.523 2.56 0 3.349-0.501 0.779-1.536-0.501-2.165 0-0.587 0.448-6.283 9.163-6.56 10.048-0.32 1.003 0.512 2.571 0 3.371-0.523 0.757-1.451 0-2.176 0l-10.933 16.747c-0.715 0-1.675-0.8-2.155 0-0.544 0.779 0.309 2.347 0 3.349-0.48 1.419-1.483 2.229-2.208 3.36-0.725 1.109-1.259 2.635-2.176 3.339-0.651 0.491-1.547-0.501-2.187 0-0.939 0.715-1.259 2.645-2.165 3.349-0.661 0.501-1.557-0.501-2.208 0-0.917 0.704-1.237 2.645-2.165 3.349-0.661 0.501-1.675-0.789-2.176 0-0.512 0.789 0.512 2.571 0 3.36-0.533 0.811-8.224-0.8-8.747 0-0.512 0.789 0.523 2.56 0 3.349-0.533 0.811-8.224-0.811-8.736 0-0.512 0.789 0.512 2.549 0 3.349-0.597 0.917-7.563-0.896-8.736 0-0.917 0.715-1.248 2.656-2.165 3.36-2.933 2.261-2.592 0.832-2.048-0.331-0.448 0.725-1.152 1.856-2.336 3.68-1.301 1.003-3.072-1.003-4.373 0-0.928 0.693-1.269 2.635-2.197 3.339-0.64 0.501-1.515-0.501-2.165 0-1.845 1.408-2.507 5.301-4.384 6.72-1.291 0.981-3.328-1.589-4.363 0-0.533 0.768 0.533 2.549 0 3.339-0.533 0.8-1.525-0.501-2.176 0-0.917 0.715-1.259 2.656-2.187 3.349-0.661 0.501-1.536-0.491-2.165 0-0.939 0.715-1.28 2.645-2.197 3.36-0.661 0.491-1.675-0.789-2.187 0-0.501 0.779 0.512 2.56 0 3.339-0.501 0.789-1.525-0.491-2.187 0-0.917 0.704-1.259 2.645-2.176 3.349-0.651 0.501-1.653-0.789-2.187 0-0.491 0.789 0.533 2.571 0 3.349-0.501 0.789-1.536-0.501-2.165 0-1.856 1.419-2.528 5.301-4.384 6.72-0.64 0.501-1.675-0.8-2.187 0-0.501 0.789 0.533 2.549 0 3.349-0.501 0.789-1.536-0.501-2.165 0-2.336 1.781-2.048 4.907-4.384 6.709-0.64 0.501-1.664-0.789-2.165 0-0.544 0.768 0.501 2.549 0 3.349-0.544 0.789-1.675-0.789-2.187 0-4.523 6.944 6.891-0.288-2.187 6.709-0.661 0.501-1.675-0.789-2.176 0-0.523 0.789 0.32 2.347 0 3.349-1.312 4.021-5.237 6.027-6.56 10.059-0.32 0.992 0.512 2.549 0 3.339-0.512 0.811-1.675-0.779-2.165 0-0.523 0.8 0.501 2.56 0 3.36-0.523 0.779-1.685-0.789-2.197 0-0.512 0.779 0.523 2.56 0 3.371-0.512 0.779-1.675-0.811-2.176 0-4.512 6.923 6.901-0.288-2.176 6.688-0.661 0.491-1.675-0.8-2.187 0-0.533 0.789 0.523 2.571 0 3.339-0.533 0.789-1.547-0.491-2.197 0-0.928 0.715-1.259 2.656-2.176 3.371-0.651 0.491-1.675-0.8-2.187 0-0.512 0.768 0.523 2.549 0 3.339-0.512 0.789-1.525-0.501-2.176 0-0.907 0.704-1.269 2.645-2.176 3.349-1.301 0.992-3.339-1.579-4.384 0-0.512 0.789 0.523 2.571 0 3.349-0.512 0.789-1.653-0.779-2.165 0-0.523 0.789 0.523 2.56 0 3.349-1.461 2.24-2.912-2.229-4.373 0-0.523 0.789 0.523 2.56 0 3.36-0.459 0.672-5.685-0.672-6.56 0-0.917 0.704-1.259 2.645-2.176 3.339-1.312 1.003-3.328-1.568-4.373 0-4.523 6.933 6.901-0.267-2.187 6.699-0.651 0.501-1.536-0.501-2.176 0-1.845 1.419-2.517 5.301-4.384 6.699-0.651 0.512-1.664-0.789-2.165 0-0.523 0.789 0.501 2.56 0 3.349-1.045 1.568-3.328-1.589-4.384 0-0.512 0.789 0.523 2.571 0 3.349-0.512 0.789-1.664-0.779-2.176 0-0.523 0.789 0.533 2.56 0 3.349-0.523 0.789-1.536-0.501-2.187 0-9.088 6.976 2.347-0.224-2.176 6.699-0.544 0.8-1.675-0.779-2.187 0-0.512 0.8 0.523 2.571 0 3.36-4.512 6.933 0.181-10.603-4.363 3.349-1.515 4.619 2.645 2.997-2.187 6.688-0.651 0.512-1.472 0-2.176 0 0 1.12 0.512 2.571 0 3.349-0.512 0.789-1.685-0.779-2.176 0-0.533 0.789 0.501 2.56 0 3.36-0.533 0.789-1.685-0.8-2.197 0-0.512 0.789 0.533 2.56 0 3.339-0.512 0.789-1.664-0.779-2.176 0-0.523 0.789 0.512 2.571 0 3.349-0.523 0.811-1.685-0.789-2.176 0-0.523 0.811 0.512 2.571 0 3.349-0.523 0.811-1.536-0.501-2.197 0-0.917 0.715-1.259 2.656-2.187 3.36-1.291 1.003-3.061-1.003-4.352 0-0.928 0.715-1.269 2.656-2.197 3.349-1.312 1.003-3.328-1.568-4.363 0-0.523 0.789 0.523 2.571 0 3.371-1.035 1.568-3.051-1.003-4.373 0-0.928 0.693-1.259 2.645-2.165 3.339-0.651 0.512-1.685-0.779-2.197 0-0.523 0.789 0.512 2.56 0 3.36-1.035 1.579-3.328-1.579-4.384 0-0.501 0.789 0.523 2.56 0 3.371-0.501 0.757-1.536-0.512-2.165 0-0.917 0.693-1.259 2.635-2.197 3.339-0.651 0.512-1.525-0.491-2.165 0-0.939 0.693-1.259 2.645-2.176 3.36-0.661 0.491-1.685-0.789-2.197 0-0.501 0.789 0.512 2.56 0 3.339-1.003 1.589-3.328-1.568-4.373 0-0.501 0.789 0.523 2.571 0 3.36-0.437 0.683-5.685-0.661-6.549 0-0.928 0.704-1.269 2.656-2.187 3.36-1.301 1.003-3.328-1.589-4.363 0-0.523 0.789 0.523 2.549 0 3.339s-1.547-0.491-2.187 0c-0.928 0.715-1.44 2.24-2.165 3.349-0.725 1.131-1.749 1.941-2.197 3.371-0.331 0.981 0.523 2.549 0 3.339-0.533 0.8-1.664-0.789-2.165 0-0.512 0.789 0.512 2.56 0 3.349-0.523 0.789-1.557-0.501-2.197 0-0.928 0.715-1.259 2.645-2.176 3.339-0.341 0.256-4.107 0.16-6.592 0.075-0.128 0.917-1.44-0.075-2.144-0.075-0.992 0-5.899 0.512-6.571 0-0.907-0.693-1.248-2.645-2.165-3.339-1.387-1.056-9.557 1.056-10.944 0-0.917-0.704-1.237-2.635-2.155-3.349-0.672-0.512-5.589 0-6.56 0h-13.12c-2.187 0-11.904 0.619-13.109 0-0.971-0.501-1.269-2.645-2.197-3.339-1.312-1.035-11.776 1.013-13.109 0-0.917-0.715-1.237-2.656-2.165-3.371-0.661-0.501-5.579 0-6.56 0h-13.109c-0.992 0-5.899 0.523-6.549 0-0.939-0.704-1.259-2.635-2.187-3.349-1.333-1.003-11.787 1.003-13.109 0-0.939-0.704-1.269-2.645-2.187-3.339-1.323-1.003-3.339 1.568-4.373 0-0.512-0.789 0.533-2.581 0-3.36-1.099-1.664-5.472 1.675-6.549 0-0.523-0.779 0.512-2.56 0-3.36-1.035-1.568-3.072 1.013-4.363 0-0.917-0.704-1.269-2.624-2.165-3.339-1.323-1.013-3.349 1.579-4.384 0-0.523-0.789 0.512-2.56 0-3.36-1.045-1.579-3.339 1.589-4.373 0-0.523-0.779 0.501-2.571 0-3.339-1.045-1.589-3.328 1.557-4.384 0-0.512-0.811 0.512-2.571 0-3.371-1.035-1.579-3.328 1.579-4.363 0-0.523-0.789 0.501-2.56 0-3.36-1.035-1.568-3.061 1.013-4.373 0-0.939-0.693-1.28-2.645-2.187-3.339-0.661-0.501-1.653 0.779-2.187 0-0.512-0.789 0.544-2.571 0-3.371-1.024-1.568-3.051 1.003-4.352 0-0.939-0.693-1.28-2.635-2.197-3.349-0.651-0.491-1.536 0.501-2.176 0-0.928-0.704-1.269-2.645-2.176-3.36-0.651-0.501-1.536 0.501-2.187 0-0.939-0.704-1.269-2.635-2.187-3.349-1.291-1.003-3.061 1.013-4.363 0-0.939-0.693-1.269-2.645-2.197-3.349-0.651-0.501-1.547 0.501-2.176 0-0.917-0.704-1.248-2.645-2.176-3.339-0.661-0.512-1.547 0.491-2.176 0-0.928-0.715-1.269-2.645-2.197-3.36-0.64-0.491-1.536 0.501-2.176 0-0.939-0.693-1.259-2.645-2.176-3.349-0.661-0.48-1.685 0.789-2.197 0-0.501-0.789 0.533-2.56 0-3.339-1.013-1.579-3.328 1.579-4.352 0-0.533-0.789 0.512-2.56 0-3.349-1.045-1.579-3.083 1.003-4.373 0-0.939-0.704-1.269-2.656-2.197-3.349-1.312-1.003-3.328 1.568-4.373 0-0.523-0.8 0.523-2.571 0-3.36-0.523-0.779-1.675 0.8-2.187 0-0.533-0.779 0.523-2.56 0-3.339-1.024-1.589-3.339 1.568-4.384 0-0.512-0.8 0.523-2.571 0-3.36-1.024-1.568-3.339 1.589-4.363 0-0.523-0.789 0.501-2.56 0-3.349-0.523-0.779-1.685 0.789-2.187 0-0.512-0.779 0.512-2.549 0-3.349-0.512-0.789-1.536 0.491-2.176 0-0.928-0.715-1.269-2.645-2.187-3.349-0.651-0.491-1.525 0.512-2.176 0-1.835-1.408-2.528-5.28-4.384-6.699-0.651-0.501-1.536 0.501-2.176 0-0.928-0.693-1.269-2.645-2.187-3.328-0.651-0.523-1.664 0.768-2.197 0-0.501-0.789 0.533-2.571 0-3.371-0.501-0.768-1.515 0.491-2.165 0-0.928-0.704-1.269-2.645-2.197-3.339-0.651-0.501-1.675 0.789-2.187 0-0.512-0.8 0.523-2.56 0-3.36-1.024-1.579-3.061 1.013-4.373 0-0.917-0.704-1.269-2.645-2.187-3.339-0.64-0.501-1.664 0.779-2.187 0-0.512-0.789 0.331-2.368 0-3.36-0.459-1.419-1.728-1.92-2.176-3.349-0.331-1.003 0.523-2.56 0-3.339-0.523-0.8-1.664 0.768-2.187 0-0.512-0.8 0.523-2.571 0-3.371-0.512-0.768-1.525 0.501-2.187 0-1.845-1.397-2.517-5.269-4.373-6.699-0.651-0.491-1.525 0.501-2.176 0-1.845-1.419-2.517-5.291-4.384-6.709-0.64-0.501-1.525 0.501-2.176 0-1.835-1.419-2.517-5.269-4.384-6.688-0.651-0.501-1.547 0.491-2.187 0-1.835-1.419-2.528-5.301-4.363-6.72-2.955-2.261-2.592-0.821-2.037 0.331-0.437-0.725-1.152-1.867-2.336-3.68-0.651-0.501-1.675 0.789-2.187 0s0.523-2.56 0-3.349c-1.024-1.589-3.328 1.568-4.373 0-2.912-4.459 3.659-3.36-2.176-3.36-0.512-0.779 0.523-2.549 0-3.349-0.512-0.8-1.536 0.501-2.176 0-0.928-0.704-1.28-2.656-2.197-3.349-0.64-0.501-1.675 0.768-2.176 0-0.523-0.789 0.512-2.571 0-3.371-1.024-1.557-3.339 1.579-4.373 0-0.523-0.768 0.512-2.549 0-3.339-1.099-1.675-5.461 1.685-6.56 0-0.512-0.789 0-2.24 0-3.349-0.736 0-1.675 0.789-2.187 0-0.512-0.8 0.512-2.571 0-3.349-1.024-1.589-3.339 1.568-4.373 0-0.512-0.789 0.523-2.56 0-3.36-0.512-0.779-1.536 0.491-2.176 0-0.928-0.704-1.28-2.645-2.197-3.349-0.651-0.501-1.525 0.501-2.176 0-0.928-0.704-1.269-2.645-2.187-3.349-1.301-1.003-3.339 1.579-4.373 0-0.512-0.789 0.523-2.571 0-3.339-1.024-1.568-3.339 1.557-4.363 0-0.533-0.789 0.501-2.581 0-3.36-0.533-0.779-1.536 0.501-2.187 0-0.928-0.693-1.269-2.635-2.187-3.349-1.312-1.003-3.083 1.003-4.373 0-1.835-1.419-2.528-5.291-4.373-6.72-0.651-0.48-1.536 0.501-2.176 0-0.928-0.683-1.269-2.635-2.197-3.339-1.301-1.003-3.339 1.579-4.373 0-0.523-0.789 0.523-2.539 0-3.339-1.024-1.589-3.072 1.003-4.373 0-0.939-0.715-1.28-2.645-2.187-3.349-0.651-0.491-1.547 0.48-2.187 0-0.928-0.715-1.269-2.656-2.197-3.339-0.64-0.512-1.536 0.491-2.176 0-0.917-0.725-1.461-2.24-2.187-3.36-0.725 0-1.536 0.501-2.197 0-0.907-0.715-1.248-2.656-2.176-3.349-0.651-0.491-1.525 0.512-2.176 0-0.928-0.704-1.28-2.645-2.197-3.36-1.312-1.003-3.061 1.003-4.373 0-0.917-0.704-1.269-2.645-2.187-3.349-0.651-0.501-1.536 0.501-2.187 0-0.917-0.704-1.259-2.645-2.176-3.349-1.312-1.003-3.339 1.579-4.373 0-0.512-0.779 0.523-2.549 0-3.339-1.024-1.589-3.328 1.557-4.363 0-0.512-0.789 0.512-2.571 0-3.36-0.512-0.779-1.525 0.491-2.176 0-0.917-0.693-1.269-2.645-2.197-3.349-0.651-0.501-1.536 0.491-2.176 0-0.928-0.704-1.461-2.229-2.187-3.349-0.736-1.131-1.269-2.645-2.187-3.371-0.64-0.469-1.536 0.533-2.187 0-0.917-0.683-1.259-2.624-2.176-3.339-0.661-0.501-1.536 0.491-2.197 0-0.917-0.693-1.269-2.645-2.187-3.349-0.651-0.491-1.536 0.501-2.176 0-9.099-6.965 2.336 0.235-2.187-6.72-1.024-1.568-3.061 1.003-4.373 0-0.917-0.693-1.28-2.645-2.176-3.339-0.651-0.501-1.536 0.491-2.187 0-2.613-2.005-3.936-8.043-6.549-10.048-0.651-0.501-1.536 0.491-2.187 0-0.928-0.704-1.269-2.656-2.187-3.349-0.651-0.501-1.536 0.501-2.176 0-0.928-0.704-1.259-2.645-2.187-3.349-0.64-0.501-1.536 0.501-2.187 0-0.928-0.725-1.259-2.645-2.176-3.36-0.651-0.501-1.675 0.789-2.187 0-0.512-0.779 0.523-2.56 0-3.349-0.512-0.8-1.547 0.501-2.187 0-0.928-0.704-1.269-2.645-2.176-3.349-1.323-0.992-3.083 1.013-4.373 0-0.928-0.715-1.269-2.635-2.187-3.339-0.661-0.512-1.536 0.48-2.187 0-0.928-0.704-1.269-2.667-2.176-3.36-0.661-0.501-1.547 0.491-2.187 0-0.928-0.704-1.269-2.645-2.187-3.339-0.661-0.512-1.536 0.48-2.176 0-0.939-0.704-1.28-2.667-2.187-3.339-0.875-0.661-6.112 0.661-6.56 0-0.512-0.8 0.512-2.56 0-3.36-0.448-0.672-5.685 0.672-6.549 0-0.917-0.693-1.269-2.645-2.187-3.328-1.323-1.013-3.339 1.557-4.384 0-0.523-0.8 0.512-2.571 0-3.349-0.448-0.683-5.685 0.661-6.56 0-0.907-0.693-1.259-2.667-2.187-3.349-1.739-1.344-4.811 1.333-6.549 0-0.928-0.704-1.269-2.645-2.176-3.349-1.365-1.067-7.36 1.056-8.736 0-0.928-0.715-1.269-2.624-2.187-3.328-0.864-0.661-6.112 0.661-6.571 0-0.512-0.789 0.523-2.56 0-3.371-0.448-0.661-5.675 0.661-6.549 0-0.917-0.683-1.259-2.635-2.176-3.328-1.312-1.013-3.328 1.589-4.384 0-0.512-0.789 0.523-2.549 0-3.349-1.013-1.589-3.061 1.013-4.363 0-0.928-0.693-1.269-2.635-2.187-3.349-0.651-0.491-1.685 0.8-2.187 0-0.523-0.789 0.523-2.549 0-3.328-0.523-0.789-1.547 0.501-2.176 0-0.917-0.693-1.269-2.656-2.197-3.349-1.301-1.003-3.339 1.568-4.373 0-0.512-0.768 0.523-2.571 0-3.36-1.451-2.219-2.901 2.251-4.373 0-0.523-0.768 0.512-2.528 0-3.317-1.045-1.611-3.083 0.992-4.384 0-0.917-0.725-1.269-2.667-2.187-3.371-0.64-0.501-1.664 0.8-2.176 0-0.512-0.779 0.523-2.56 0-3.349-0.512-0.789-1.536 0.512-2.176 0-0.928-0.704-1.269-2.635-2.176-3.349-1.312-0.981-3.339 1.611-4.373 0-0.512-0.789 0.523-2.549 0-3.328-0.512-0.789-1.451 0-2.176 0h-10.944c-0.725 0-1.675 0.779-2.187 0-0.512-0.789 0.523-2.56 0-3.339-0.512-0.789-1.664 0.779-2.176 0-0.523-0.789 0.512-2.56 0-3.36-0.523-0.779-1.536 0.512-2.197 0-0.917-0.704-1.259-2.624-2.176-3.339-2.923-2.219-2.613-0.843-2.059 0.299-0.437-0.715-1.152-1.845-2.315-3.659-1.749-1.344-4.821 1.333-6.56 0-0.928-0.683-1.269-2.656-2.197-3.349-0.64-0.512-1.675 0.789-2.176 0-0.523-0.789 0.512-2.539 0-3.339-1.024-1.589-3.061 1.013-4.373 0-0.928-0.704-1.269-2.645-2.187-3.328-1.323-1.003-3.072 0.981-4.373 0-0.928-0.715-1.269-2.656-2.187-3.36-1.739-1.355-4.811 1.323-6.56 0-0.928-0.704-1.269-2.645-2.187-3.36-1.301-0.992-3.061 1.024-4.373 0-0.928-0.683-1.269-2.624-2.176-3.328-1.739-1.333-4.811 1.333-6.56 0-0.917-0.715-1.269-2.656-2.187-3.328-1.504-1.173-10.155 1.152-10.933 0-0.512-0.789 0.523-2.571 0-3.349-0.064-0.117-6.016 0-6.549 0h-15.808c-0.981 0-5.899 0.491-6.549 0-0.928-0.704-1.28-2.656-2.197-3.36-0.651-0.501-1.461 0-2.176 0h-15.307c-0.725 0-1.675 0.789-2.176 0-0.512-0.789 0.512-2.539 0-3.339-0.544-0.8-8.235 0.8-8.736 0-0.523-0.789 0.501-2.56 0-3.339-1.451-2.229-2.912 2.219-4.384 0-0.523-0.8 0.523-2.56 0-3.349-0.523-0.8-1.675 0.789-2.187 0-0.512-0.8 0.523-2.56 0-3.349-4.512-6.912 0.181 10.603-4.384-3.349-0.32-0.971 0.533-2.549 0-3.339-0.512-0.789-1.664 0.789-2.176 0-0.523-0.789 0.523-2.549 0-3.339-1.035-1.557-3.339 1.568-4.384 0-0.512-0.779 0.523-2.56 0-3.349-0.512-0.779-1.664 0.789-2.187 0-0.523-0.779 0.523-2.549 0-3.339s-1.675 0.789-2.187 0c-0.512-0.789 0.512-2.56 0-3.349-0.512-0.8-1.664 0.789-2.187 0-0.512-0.779 0.523-2.549 0-3.349-1.024-1.568-3.072 1.003-4.373 0-1.835-1.419-2.528-5.291-4.384-6.688-0.651-0.523-1.451 0-2.187 0h-10.901c-1.461 0-3.072 0.971-4.384 0-0.64-0.523 0.533-2.571 0-3.371-0.512-0.779-1.525 0.501-2.176 0-0.917-0.693-1.269-2.624-2.176-3.339-0.021-0.224-0.149-0.224-0.181-0.235v-340.203h1173.333v487.307h-0.021z" />
<glyph unicode="&#x28;" glyph-name="login" d="M384 448h-320v128h320v128l192-192-192-192zM1024 960v-832l-384-192v192h-384v256h64v-192h320v576l256 128h-576v-256h-64v320z" />
<glyph unicode="&#x29;" glyph-name="logout" d="M768 320v128h-320v128h320v128l192-192zM704 384v-256h-320v-192l-384 192v832h704v-320h-64v256h-512l256-128v-576h256v192z" />
<glyph unicode="&#x2a;" glyph-name="map" horiz-adv-x="1056" d="M456.875 704.439c0 27.072 5.973 52.331 16.224 75.435l-209.728 84.117v-772.491l362.112-144.832v363.616l-154.272 320.224c-7.776 20.544-14.336 50.549-14.336 73.931zM0 785.378v-772.491l196.544 78.613v772.491zM845.099 780.247c10.464-23.232 16.597-48.576 16.597-75.808 0-23.371-6.517-53.365-14.325-73.931l-155.051-321.728v-362.112l362.144 144.832v772.491l-209.365-83.744zM815.829 723.522c0 89.536-70.645 161.813-157.312 161.813s-156.544-72.277-156.544-161.813c0-20.576 5.728-46.795 12.459-64.875l144.48-304.395 144.448 304.395c6.784 18.080 12.469 44.299 12.469 64.875zM658.912 656.002c-40 0-72.437 32.427-72.437 72.416 0 40 32.437 72.416 72.437 72.416 39.979 0 72.416-32.416 72.416-72.416 0-39.989-32.437-72.416-72.416-72.416z" />
<glyph unicode="&#x2b;" glyph-name="add" d="M970.667 561.44h-350.155v345.227h-217.003v-345.227h-350.176v-217.003h350.176v-355.072h217.003v355.072h350.155z" />
<glyph unicode="&#x2c;" glyph-name="order" horiz-adv-x="1408" d="M0 768h896v-192h-896v192zM0 512h896v-192h-896v192zM0 256h896v-192h-896v192zM992 384l192-192 192 192zM1376 448l-192 192-192-192z" />
<glyph unicode="&#x2d;" glyph-name="remove" d="M64 554.667h901.803v-213.333h-901.803v213.333z" />
<glyph unicode="&#x2e;" glyph-name="mapStreet" horiz-adv-x="1173" d="M1176 570.667c0 39.595-32.405 72-72 72h-76.416l-62.987 170.965c-9.131 24.768-36.885 52.427-61.685 61.451-0.011-0.011-86.912 31.584-314.923 31.584-228 0-314.891-31.595-314.891-31.595-24.811-9.024-52.565-36.672-61.696-61.451l-62.997-170.955h-76.405c-39.595 0-72-32.405-72-72 0-39.605 32.405-72 72-72h23.36l-18.763-50.965c-9.131-24.768-16.597-66.635-16.597-93.035v-312.011c0-52.8 43.2-95.989 96-95.989s96 43.189 96 95.989v48.011h671.989v-48.011c0-52.8 43.211-95.989 96.011-95.989s95.989 43.189 95.989 95.989v312.011c0 26.4-7.445 68.256-16.597 93.035l-18.752 50.965h23.36c39.595 0 72 32.395 72 72zM312 786.667h552l72.011-216h-696.011l72 216zM228 282.656c-39.755 0-72 32.267-72 72.011s32.235 72.011 72 72.011 72-32.267 72-72.011c0-39.765-32.245-72.011-72-72.011zM740.267 173.131h-304.533v60.683h304.533v-60.683zM948 282.656c-39.765 0-72 32.245-72 72.011s32.235 72.011 72 72.011c39.776 0 72.011-32.245 72.011-72.011s-32.235-72.011-72.011-72.011z" />
<glyph unicode="&#x2f;" horiz-adv-x="1173" d="M1062.355 475.156c0 0 7.823 46.965 30.178 106.245 22.375 59.275 45.864 119.662 45.864 119.662s-21.26 68.224-33.553 133.085c-12.313 64.86-36.895 115.189-36.895 115.189s-108.481-40.256-142.011-46.965c-33.562-6.714-93.969-23.495-93.969-23.495 4.781 1.307 9.864-7.459 15.051-22.287 44.219-12.59 85.959-36.223 120.771-71.035 109.042-109.048 109.042-285.829 0-394.866-31.437-31.437-68.54-53.761-107.99-67.073l28.115-162.718-57.051-203.564c0 0 58.158 12.302 116.301 25.73 58.146 13.417 118.542 35.791 118.542 35.791s-3.353 22.355 19.010 109.584c22.366 87.249 39.136 125.27 39.136 125.27s-2.218 20.145-16.77 88.355c-14.551 68.227-44.729 133.090-44.729 133.090z" />
<glyph unicode="&#x30;" glyph-name="reject" d="M1011.264 126.912l-346.72 346.741 346.699 346.688-316.811 0.992-1.333-1.312-187.467-187.467-188.811 188.779-316.821-0.992 346.72-346.688-346.72-346.741 158.912-158.912 346.72 346.731 346.709-346.731z" />
<glyph unicode="&#x31;" glyph-name="public" d="M232.523 408.779c4.213-71.2 19.808-140.736 46.379-206.613 38.517-95.317 100.331-181.76 178.816-249.952l3.776-3.253 27.563-2.293v478.347h-257.493l0.96-16.235zM13.525 390.923c20.565-181.419 139.371-337.632 310.080-407.605l55.339-22.72-37.579 46.539c-44.107 54.571-79.477 114.4-105.12 177.76-29.067 72.107-45.867 147.968-49.973 225.557l-0.779 14.517h-174.741l1.6-20.501c0.309-4.565 0.672-9.141 1.173-13.547zM186.261 485.557c4.128 77.579 20.907 153.44 49.973 225.536 25.579 63.371 61.003 123.232 105.024 177.771l37.6 46.528-55.349-22.709c-170.688-70.016-289.493-226.123-309.984-407.381-0.587-4.608-0.917-9.365-1.269-14.112l-1.589-20.085h174.816l0.779 14.453zM457.771 943.851c-78.507-68.203-140.331-154.635-178.88-250.005-26.56-65.888-42.165-135.349-46.421-206.581l-0.981-16.267h257.579v478.336l-27.584-2.219-3.712-3.264zM788.672 425.003h-257.451v-478.336l27.541 2.293 3.776 3.253c78.421 68.203 140.256 154.635 178.784 249.973 26.549 65.856 42.187 135.403 46.4 206.613l0.949 16.203zM1007.915 404.523l1.589 20.491h-174.72l-0.747-14.496c-4.085-77.632-20.981-153.504-50.005-225.589-25.611-63.349-61.003-123.179-105.109-177.76l-37.568-46.539 55.339 22.72c170.688 69.973 289.525 226.187 310.059 407.605 0.427 4.373 0.789 8.949 1.163 13.568zM834.72 471.072h174.795l-1.568 20.096c-0.395 4.779-0.736 9.525-1.28 14.123-20.491 181.205-139.36 337.365-309.973 407.36l-55.36 22.709 37.568-46.528c44.043-54.56 79.456-114.411 105.056-177.76 29.077-72.085 45.856-147.968 50.005-225.557l0.757-14.443zM558.741 947.115l-27.563 2.219v-478.293h257.515l-0.949 16.245c-4.224 71.2-19.861 140.736-46.421 206.592-38.517 95.349-100.363 181.781-178.88 250.005l-3.701 3.232z" />
<glyph unicode="&#x32;" glyph-name="group" horiz-adv-x="1088" d="M242.005 732.949c0.128 1.301 0.373 2.613 0.629 3.861l1.109 7.168c0.501 3.637 1.003 7.253 1.749 10.827l3.627 17.067h-47.467c-72.277 0-131.072-58.805-131.072-131.083v-92.683c0-54.901 24.48-106.101 67.221-140.448v0l1.067-0.725c4.021-3.211 8.192-6.261 12.459-9.109 1.333-0.939 2.709-1.685 4.085-2.464l2.688-1.621c2.485-1.547 4.96-3.019 7.531-4.405 1.771-0.971 3.584-1.824 5.44-2.677l2.944-1.451c2.165-1.077 4.352-2.112 6.517-3.029 2.101-0.907 4.224-1.696 6.443-2.485l2.197-0.747c2.293-0.853 4.608-1.717 6.997-2.475 2.443-0.725 5.003-1.483 8.277-2.357 2.517-0.661 5.109-1.365 7.627-1.995 2.837-0.64 5.579-1.109 8.459-1.579 2.645-0.469 5.269-0.885 7.936-1.237 2.773-0.331 5.557-0.661 8.32-0.832 2.752-0.181 5.6-0.352 8.459-0.469 1.728-0.043 3.499-0.075 5.259-0.075 0.811 0 1.621 0 2.453 0.032l8.395 0.341 3.232 2.005c3.936 2.517 7.936 4.811 12.192 7.339l3.403 2.005c6.123 3.381 12.373 6.517 18.731 9.408l14.88 8.256-11.403 15.776c-3.808 4.843-7.541 9.76-11.019 14.827-1.12 1.579-2.208 3.264-3.317 4.907l-1.12 1.589c-2.603 3.915-5.088 7.893-7.445 11.936l-1.248 2.144c-0.725 1.205-1.504 2.464-2.229 3.776-3.104 5.621-5.984 11.349-8.704 17.141l-2.645 5.995c-2.272 5.109-4.32 10.251-6.293 15.456l-1.557 4.224c-2.272 6.421-4.224 12.949-5.995 19.499l-1.376 5.333c-1.568 6.251-2.944 12.565-4.107 18.891l-0.437 2.165c-1.163 7.029-2.059 14.123-2.731 21.184l-0.437 5.163c-0.544 7.285-0.939 14.539-0.939 21.931v120.064c-0.096 7.659 0.341 15.648 1.216 23.637zM149.301 46.773v111.435c0 6.251 0.288 12.459 0.789 18.677l0.48 5.355c0.459 4.661 1.067 9.269 1.728 13.877l0.747 5.056c1.088 5.995 2.229 11.979 4.021 18.88l0.437 1.632c1.323 5.056 2.837 10.069 4.405 15.029l1.813 5.237c1.547 4.459 3.275 8.843 5.088 13.216l1.664 4.085c2.443 5.557 5.045 11.008 7.829 16.384l1.92 3.339c2.315 4.224 4.768 8.512 7.339 12.672l2.901 4.629c2.752 4.213 5.643 8.363 8.651 12.437l14.005 18.837-20.171 5.44c-1.557 0.437-3.125 0.992-4.693 1.525l-6.293 1.995c-2.016 0.64-4.128 1.216-6.123 2.005-1.941 0.661-3.776 1.504-5.739 2.283l-5.557 2.261c-2.059 0.843-4.149 1.632-6.155 2.549-1.835 0.832-3.605 1.771-5.376 2.699l-5.621 2.869c-1.963 0.96-3.904 1.973-5.856 3.019-1.792 1.024-3.563 2.123-5.312 3.285l-4.939 3.040c-2.005 1.173-3.925 2.389-6.688 4.224l-5.557 3.787-6.443-1.92c-66.336-19.701-112.597-81.813-112.597-151.125v-89.024c0-43.915 35.669-79.68 79.52-79.68l69.792-0.011zM393.984 402.197l1.728-1.333c0.704-0.597 1.483-1.184 3.211-2.421 30.688-23.744 67.371-39.616 106.016-45.995 12.555-2.144 25.824-3.285 39.467-3.285 54.741 0 108.203 18.88 150.507 53.088 56.885 45.6 89.504 113.792 89.504 186.933v120.107c0 97.077-78.997 176.043-176.171 176.043h-127.808c-67.979 0-130.464-39.712-159.2-101.163-11.189-23.349-16.843-48.565-16.843-74.88v-120.075c0.043-73.163 32.629-141.28 89.589-187.019zM847.285 709.291v-120.075c0-7.339-0.395-14.635-0.939-21.888l-0.459-5.205c-0.661-7.093-1.547-14.187-2.709-21.184l-0.437-2.208c-1.109-6.293-2.496-12.608-4.128-18.859l-1.355-5.344c-1.792-6.517-3.787-13.056-5.995-19.499l-1.568-4.192c-2.005-5.195-4.021-10.421-6.293-15.435l-2.635-5.973c-2.731-5.813-5.621-11.584-8.725-17.184-0.725-1.28-1.483-2.539-2.229-3.787l-1.248-2.123c-2.421-4.032-4.832-8.032-7.435-11.936l-1.099-1.589c-1.088-1.621-2.123-3.328-3.296-4.907-3.477-5.035-7.232-9.984-11.019-14.752l-11.413-15.776 14.891-8.235c6.357-2.901 12.597-6.005 18.699-9.44l3.413-2.005c4.224-2.453 8.224-4.747 12.181-7.307l3.211-2.048 8.448-0.341c0.832-0.021 1.643-0.021 2.453-0.021 1.728 0 3.499 0.021 5.227 0.075 2.891 0.085 5.643 0.235 8.48 0.459s5.557 0.523 8.288 0.832c2.677 0.352 5.301 0.768 7.947 1.237 2.88 0.512 5.621 1.013 8.459 1.632 2.517 0.587 5.109 1.216 7.627 1.941 3.317 0.885 5.835 1.557 8.277 2.368 2.453 0.757 4.683 1.611 7.019 2.464l2.176 0.8c2.144 0.779 4.245 1.557 6.379 2.443 2.187 0.939 4.373 2.005 6.56 3.019l2.933 1.472c1.835 0.832 3.669 1.685 5.451 2.688 2.56 1.397 5.045 2.891 7.52 4.395l2.688 1.6c1.376 0.736 2.773 1.557 4.085 2.443 4.331 2.88 8.48 5.941 12.501 9.109l1.045 0.704c42.72 34.379 67.211 85.557 67.211 140.437v92.693c0 72.267-58.805 131.125-131.072 131.125h-47.445l3.627-17.12c0.747-3.552 1.227-7.157 1.728-10.773l1.12-7.189c0.213-1.28 0.459-2.56 0.608-3.84 0.853-8.011 1.301-15.968 1.248-23.701zM938.699 46.709h69.781c43.893 0 79.52 35.776 79.52 79.68v89.024c0 69.323-46.261 131.424-112.565 151.104l-6.453 1.931-5.547-3.829c-2.816-1.835-4.747-2.955-6.688-4.203l-4.949-3.051c-1.749-1.109-3.52-2.24-5.355-3.275-1.963-1.088-3.851-2.048-5.856-3.019l-5.621-2.88c-1.771-0.917-3.541-1.856-5.376-2.688-2.016-0.917-4.128-1.707-6.165-2.549l-5.568-2.261c-1.941-0.779-3.776-1.568-5.749-2.272-2.005-0.725-4.085-1.355-6.080-2.005l-6.283-1.973c-1.557-0.512-3.147-1.099-4.672-1.536l-20.16-5.429 13.995-18.837c2.987-4.096 5.973-8.224 8.672-12.459l2.869-4.619c2.56-4.16 5.088-8.373 7.349-12.672l1.899-3.328c2.816-5.397 5.44-10.869 7.829-16.405l1.643-4.085c1.835-4.373 3.509-8.768 5.109-13.227l1.792-5.216c1.557-4.981 3.104-10.005 4.416-15.029l0.437-1.611c1.749-6.891 2.933-12.875 4.021-18.891l0.725-5.045c0.661-4.64 1.269-9.216 1.728-13.899l0.48-5.376c0.501-6.208 0.747-12.405 0.747-18.677v-111.413l0.075 0.021zM719.339 371.701l-7.371-5.109c-5.099-3.541-10.325-6.891-15.616-10.005l-4.544-2.496c-4.064-2.389-8.213-4.672-12.384-6.869l-6.688-3.243c-3.627-1.696-7.232-3.445-10.891-5.035-2.421-1.109-4.853-2.005-7.339-3.019-3.584-1.461-7.243-2.859-10.901-4.117-2.475-0.896-5.067-1.749-7.605-2.592-3.755-1.163-7.541-2.336-11.317-3.339l-7.403-2.048c-4.224-1.077-8.523-1.995-12.768-2.869l-6.4-1.333c-6.4-1.152-12.917-2.229-19.349-2.965-18.581-2.091-38.347-2.411-57.557-0.8l-7.797 0.885c-5.248 0.544-10.496 1.152-15.776 2.005-2.005 0.288-3.957 0.704-5.92 1.109l-3.168 0.64c-4.725 0.939-9.525 1.931-14.229 3.104-2.837 0.661-5.6 1.493-9.248 2.443-4.565 1.269-9.109 2.667-13.589 4.192-3.061 1.024-6.059 2.080-9.141 3.211-4.437 1.643-8.725 3.424-14.229 5.771-2.581 1.109-5.109 2.229-7.712 3.328-4.373 2.016-8.672 4.245-12.96 6.549l-2.624 1.355c-1.835 0.96-3.648 1.941-5.461 2.891-4.672 2.624-9.141 5.493-13.685 8.416l-14.773 9.568-10.197-2.827c-1.643-0.373-3.317-0.789-5.109-1.408-79.477-26.496-135.2-97.568-141.781-181.045-0.48-5.557-0.661-11.125-0.661-16.683l0.043-118.293 0.192-2.005c1.12-56.683 48.277-102.731 105.12-102.731h453.205c58.037 0 105.333 47.253 105.333 105.333v117.579c0 91.605-61.28 173.707-148.949 199.744l-8.747 2.709z" />
<glyph unicode="&#x33;" glyph-name="private" d="M167.275-64h697.152c33.429 0 60.608 27.2 60.608 60.608v526.731c0 33.419-27.179 60.597-60.608 60.597h-697.152c-33.461 0-60.608-27.179-60.608-60.597v-526.731c0-33.408 27.147-60.608 60.608-60.608zM196.075 259.979c0 72.075 58.645 130.72 130.731 130.72h378.048c72.075 0 130.699-58.645 130.699-130.72 0-72.085-58.624-130.72-130.699-130.72h-378.048c-72.085-0.011-130.731 58.624-130.731 130.72zM326.805 179.616h378.048c44.352 0 80.331 36.075 80.331 80.331 0 44.331-36.032 80.32-80.331 80.32h-378.048c-44.331 0-80.309-36.021-80.309-80.32-0.043-44.267 36.011-80.331 80.309-80.331zM490.656 259.979c0 6.592 2.688 13.109 7.317 17.888 4.501 4.48 11.243 6.709 17.92 6.709 6.613 0 13.195-2.176 17.664-6.56 4.736-4.917 7.467-11.403 7.467-18.005 0-6.507-2.709-13.013-7.339-17.845-9.749-9.408-26.411-9.088-35.595-0.139-4.747 4.853-7.435 11.371-7.435 17.952zM689.781 242.165v0c-9.131-9.12-26.208-9.301-35.552 0-4.725 4.747-7.488 11.285-7.488 17.803 0 6.592 2.741 13.099 7.488 17.877 4.309 4.288 10.859 6.763 17.867 6.763h0.075c6.965-0.032 13.333-2.432 17.611-6.795 4.651-4.64 7.307-11.157 7.307-17.845 0.021-6.624-2.645-13.141-7.307-17.803zM341.888 277.867c4.277 4.277 10.763 6.805 17.803 6.805 0.011 0 0.053 0 0.107 0 6.901-0.064 13.333-2.443 17.621-6.805 4.768-4.768 7.509-11.296 7.509-17.888 0-6.517-2.731-13.045-7.509-17.813-9.344-9.344-26.069-9.248-35.477 0-4.661 4.651-7.339 11.179-7.339 17.813-0.053 6.699 2.624 13.195 7.285 17.888zM750.667 634.272v90.859c0 129.472-105.344 234.869-234.837 234.869-129.515 0-234.848-105.397-234.848-234.869v-90.859h83.915v90.859c0 83.221 67.712 150.891 150.944 150.891 83.211 0 150.891-67.691 150.891-150.891v-90.859h83.936z" />
<glyph unicode="&#x34;" glyph-name="link" d="M438.406 321.271c-13.635 0-27.26 5.167-37.667 15.563-97.406 97.406-97.406 255.953 0 353.365l196.615 196.615c47.187 47.198 109.958 73.187 176.666 73.187 66.76 0 129.5-25.99 176.677-73.187 97.448-97.417 97.448-255.937 0-353.354l-89.875-89.896c-20.792-20.781-54.49-20.781-75.292 0-20.781 20.813-20.781 54.536 0 75.323l89.875 89.875c55.896 55.901 55.896 146.849 0 202.75-27.062 27.073-63.073 41.984-101.385 41.984-38.25 0-74.26-14.911-101.375-41.984l-196.604-196.604c-55.875-55.906-55.875-146.854 0-202.76 20.792-20.792 20.792-54.531 0-75.313-10.375-10.396-24-15.563-37.635-15.563zM249.729-64c-66.719 0-129.479 25.979-176.677 73.177-97.406 97.406-97.406 255.927 0 353.344l89.896 89.854c20.771 20.813 54.5 20.813 75.292 0 20.802-20.781 20.802-54.521 0-75.313l-89.885-89.844c-55.885-55.906-55.885-146.844 0-202.75 27.104-27.073 63.094-41.99 101.375-41.99 38.302 0 74.313 14.917 101.385 41.99l196.604 196.604c55.906 55.906 55.906 146.844 0 202.755-20.802 20.797-20.802 54.516 0 75.297 20.802 20.802 54.531 20.802 75.292 0 97.448-97.417 97.448-255.937 0.042-353.354l-196.646-196.594c-47.167-47.198-109.927-73.177-176.677-73.177z" />
<glyph unicode="&#x35;" glyph-name="accept" horiz-adv-x="1429" d="M1271.093 928l-653.973-653.984-307.317 307.317h-305.195l612.757-612.267 806.325 806.336z" />
<glyph unicode="&#x36;" glyph-name="tentativeAccept" horiz-adv-x="1301" d="M369.205 456.277h46.997v-43.797h-46.997v43.797zM467.136 721.429c-7.723 9.675-18.539 17.291-32.491 22.827-13.963 5.547-30.368 8.309-49.227 8.309-27.947 0-54.208-7.968-78.827-23.893v-50.357c22.805 20.299 47.829 30.443 75.061 30.443 41.397 0 62.101-18.069 62.101-54.208 0-7.765-2.517-15.104-7.573-22.027-5.056-6.933-11.061-13.611-18.016-20.043-6.955-6.443-14.037-13.536-21.248-21.291-7.189-7.765-13.195-18.24-18.016-31.435-4.821-13.216-7.232-28.395-7.232-45.557v-18.805h42.080v17.323c0 12.373 2.539 23.467 7.68 33.291 5.12 9.824 11.403 18.112 18.869 24.875l22.677 20.555c7.595 6.923 13.963 15.723 19.104 26.357 5.131 10.645 7.723 22.731 7.723 36.267 0 12.896-1.867 24.928-5.557 36.107-3.701 11.168-9.408 21.589-17.109 31.264zM95.307 560.864c0 165.536 134.197 299.733 299.744 299.733s299.744-134.197 299.744-299.733c0-107.573-56.693-201.856-141.813-254.741l68.725-68.715c101.781 71.445 168.373 189.632 168.373 323.445 0 218.176-176.864 395.040-395.040 395.040s-395.040-176.864-395.040-395.040 176.864-395.040 395.040-395.040c25.12 0 49.685 2.443 73.525 6.933l-88.736 88.747c-158.485 7.925-284.523 138.923-284.523 299.371zM1185.6 616.224l-466.667-466.667-36.373 36.363c-44.213-31.211-93.707-55.349-146.933-70.837l183.2-183.189 0.171 0.16 0.117-0.117 575.381 575.403-108.896 108.885z" />
<glyph unicode="&#x37;" glyph-name="chat" horiz-adv-x="1141" d="M146.912 111.339h347.445c15.477 0 28.128-12.608 28.128-28.149v-147.189l175.84 167.605c5.216 5.024 12.107 7.733 19.435 7.733h49.024c81.077 0 146.987 65.952 146.987 147.051v118.827c0 81.173-66.005 147.221-147.189 147.221h-619.392c-81.12-0.011-147.189-66.048-147.189-147.232v-118.827c-0.096-81.099 65.877-147.040 146.912-147.040zM187.776 317.888c0 7.445 2.944 14.603 8.203 19.776 4.907 4.875 12.139 7.669 19.915 7.669 0.096 0 0.096 0 0.139 0 7.68 0 14.816-2.795 19.797-7.797 5.141-5.109 8.256-12.405 8.256-19.637 0-7.371-3.061-14.752-8.256-19.829l-0.245-0.245c-10.059-10.357-29.237-10.464-39.723 0.32-5.141 4.928-8.085 12.149-8.085 19.744zM428.672 317.888c0 7.232 3.061 14.603 8.235 19.776 5.12 5.12 12.512 7.712 19.904 7.712 7.424 0 14.837-2.603 19.915-7.712 5.141-5.12 8.256-12.533 8.256-19.776 0-7.371-3.083-14.827-8.256-19.968-10.464-10.443-29.483-10.4-39.893 0-5.088 5.152-8.16 12.587-8.16 19.968zM669.525 317.888c0 7.381 3.061 14.549 8.235 19.776 4.853 4.8 12.128 7.595 20 7.595 7.829 0 15.083-2.784 20.075-7.723 5.067-4.949 8.043-12.288 8.043-19.637 0-7.595-2.955-14.827-8.043-19.851l-0.309-0.235c-10.059-10.229-29.152-10.464-39.765 0.149-5.131 5.109-8.235 12.544-8.235 19.925zM786.955 579.733c1.045-0.117 2.112-0.331 3.179-0.469l5.408-0.779c3.787-0.512 7.605-1.013 11.264-1.728 1.429-0.277 2.891-0.715 4.309-1.067l5.632-1.44c3.083-0.757 6.197-1.461 9.216-2.368 1.611-0.501 3.232-1.141 4.864-1.728l5.301-1.92c2.784-0.928 5.547-1.931 8.245-3.008 1.675-0.715 3.296-1.493 4.907-2.251l4.715-2.261c2.677-1.227 5.312-2.432 7.808-3.797 1.845-0.96 3.563-2.005 5.291-3.072l3.637-2.155c2.603-1.504 5.131-3.019 7.648-4.672 1.845-1.248 3.573-2.539 5.387-3.872l2.773-2.080c2.453-1.749 4.949-3.541 7.371-5.472 1.771-1.429 3.477-2.901 5.109-4.405l2.251-2.037c2.368-2.037 4.736-4.117 6.944-6.261 1.813-1.803 3.541-3.659 6.24-6.485 2.325-2.464 4.693-4.981 6.869-7.584 1.856-2.144 3.584-4.395 5.621-7.019 2.069-2.688 4.16-5.376 6.059-8.171 1.792-2.496 3.424-5.109 5.045-7.595 1.824-2.901 3.573-5.739 5.227-8.661 1.525-2.667 2.944-5.344 4.331-8.139 1.525-2.997 3.061-6.016 4.384-9.088 1.291-2.869 2.432-5.739 3.541-8.608 1.269-3.157 2.443-6.357 3.499-9.6 1.024-2.965 1.909-5.941 2.763-9.067 0.96-3.253 1.824-6.581 2.613-9.941 0.704-3.083 1.365-6.176 1.909-9.248 0.619-3.456 1.131-6.88 1.557-10.411 0.416-3.221 0.779-6.4 1.035-9.536l1.429-22.261h22.368c81.131 0 147.189 66.005 147.189 147.189v118.933c0 81.077-65.941 147.051-147.072 147.051h-347.349c-15.552 0-28.139 12.597-28.139 28.149v147.2l-175.872-167.605c-5.237-5.024-12.128-7.744-19.435-7.744h-48.832c-81.109 0-147.179-65.963-147.179-147.040v-56.864h540.16c7.253 0.011 14.080-0.341 20.779-1.013z" />
<glyph unicode="&#x38;" glyph-name="bookmark" d="M512.512 258.069l318.112-319.691v1021.621h-638.624v-1024z" />
<glyph unicode="&#x39;" glyph-name="tentativeReject" horiz-adv-x="1301" d="M804.181 467.733h46.304v-43.168h-46.304v43.168zM852.416 621.6c-6.859-6.347-13.835-13.333-20.939-20.971-7.083-7.648-13.003-17.973-17.749-30.965-4.757-13.013-7.125-27.968-7.125-44.875v-18.528h41.461v17.067c0 12.192 2.507 23.125 7.563 32.8 5.045 9.675 11.232 17.835 18.581 24.501l22.347 20.245c7.467 6.827 13.749 15.488 18.827 25.973 5.056 10.485 7.595 22.389 7.595 35.723 0 12.704-1.835 24.565-5.472 35.563s-9.259 21.269-16.843 30.795c-7.605 9.536-18.272 17.035-32.011 22.485-13.749 5.461-29.909 8.192-48.501 8.192-27.52 0-53.397-7.851-77.643-23.541v-49.611c22.453 20 47.125 29.995 73.952 29.995 40.779 0 61.173-17.803 61.173-53.408 0-7.637-2.475-14.88-7.456-21.707-4.992-6.816-10.901-13.387-17.76-19.733zM1001.429 919.947c-192.864 94.88-426.123 15.445-521.003-177.408-50.592-102.827-51.499-217.088-12.203-315.776l-39.659-39.669-128.171 128.128-215.061-0.672 235.349-235.339-235.349-235.339 107.872-107.872 235.349 235.339 235.349-235.339 107.861 107.872-235.339 235.339 235.317 235.339-215.040 0.672-0.907-0.885-13.056-13.067c-15.765 64.821-9.824 135.296 21.931 199.829 71.989 146.325 248.971 206.592 395.307 134.603 146.325-71.989 206.592-248.971 134.603-395.307-69.771-141.824-238.155-202.805-381.685-140.896l-117.045-39.851c19.115-14.336 39.765-27.168 61.984-38.101 192.853-94.88 426.112-15.456 520.992 177.408 94.88 192.853 15.445 426.112-177.397 520.992z" />
<glyph unicode="&#x3a;" horiz-adv-x="1173" d="M615.479 820.481c61.364 40.996 135.354 55.036 205.415 42.215-4.405 11.063-8.709 17.309-12.782 16.188 0 0-43.603 19.010-98.405 38.027-54.802 19.010-133.085 24.604-133.085 24.604 15.045-1.335 27.847-59.529 38.856-121.034z" />
<glyph unicode="&#x3c;" glyph-name="followFollower" horiz-adv-x="1493" d="M712.619 735.253c-73.269 72.949-174.347 118.080-285.941 118.080-223.861 0-405.344-181.472-405.344-405.344 0-223.851 181.483-405.323 405.344-405.323 113.589 0 216.224 46.816 289.835 122.144l-287.968 287.136 284.075 283.307zM1081.376 853.333c-183.061 0-337.707-121.355-388.032-287.989h116.779v-234.667h-116.789c50.325-166.635 204.981-288.011 388.043-288.011 223.851 0 405.333 181.483 405.333 405.333 0 223.861-181.483 405.333-405.333 405.333z" />
<glyph unicode="&#x3d;" horiz-adv-x="1173" d="M607.802 361.105l18.020-116.335-50.312-221.46c0 0 24.593-2.241 100.646-27.937 76.042-25.739 130.844-38.041 130.844-38.041l57.043 203.564-26.98 156.063c-77.614-19.022-161.792-4.27-229.26 44.145z" />
<glyph unicode="&#x3e;" glyph-name="followFollowing" horiz-adv-x="1493" d="M1079.499 451.947l-287.968-287.136c73.611-75.328 176.245-122.144 289.835-122.144 223.861 0 405.344 181.483 405.344 405.323 0 223.872-181.483 405.344-405.344 405.344-111.595 0-212.672-45.131-285.952-118.080l284.085-283.307zM21.333 448c0-223.851 181.483-405.333 405.333-405.333 183.061 0 337.717 121.376 388.043 288.011h-116.789v234.667h116.779c-50.325 166.635-204.971 287.989-388.032 287.989-223.851 0-405.333-181.472-405.333-405.333z" />
<glyph unicode="&#x3f;" glyph-name="stack" d="M1024 640l-512 256-512-256 512-256 512 256zM512 811.030l342.058-171.030-342.058-171.030-342.058 171.030 342.058 171.030zM921.444 499.278l102.556-51.278-512-256-512 256 102.556 51.278 409.444-204.722zM921.444 307.278l102.556-51.278-512-256-512 256 102.556 51.278 409.444-204.722z" />
<glyph unicode="&#x40;" glyph-name="redaktorBW" d="M852.208 673.171v-262.364c0-83.568-34.8-154.834-104.821-213.606-70.031-58.763-150.047-88.154-240.489-88.154-52.712 0-109.819 12.724-171.301 38.352l-16.748-31.348 92.96 174.843c28.809-19.126 63.338-30.335 100.517-30.335 100.236 0 181.716 81.28 181.716 181.716 0 65.817-35.101 123.315-87.421 155.205l80.698 151.783c0.371-0.151 0.722-0.281 1.094-0.431l61.472 115.027c-69.811 30.846-147.539 46.059-232.772 46.059-151.713 0-266.75-52.722-345.31-158.386v143.164h-122.753v-671.665h122.743v262.374c0 83.568 35.011 154.633 104.821 213.606 70.021 58.773 150.047 88.154 240.489 88.154 52.411 0 109.126-12.583 170.177-37.891l-80.708-151.773c-27.515 16.768-59.716 26.572-94.265 26.501-100.446 0-181.927-81.27-181.927-181.726 0-63.138 32.362-118.779 81.381-151.352l-101.811-191.52-35.834-67.061c70.031-30.836 147.549-46.059 232.772-46.249 151.713 0 266.96 52.932 345.32 158.587v-143.174h122.743v671.665h-122.743z" />
<glyph unicode="&#x41;" glyph-name="article" d="M160 917.333v-970.667h692.832v970.667h-692.832zM241.429 530.933h194.069c8.107 0 14.784-9.557 14.784-21.333 0-11.733-6.656-21.291-14.784-21.291h-194.069c-8.149 0-14.784 9.557-14.784 21.291 0.011 11.765 6.624 21.333 14.784 21.333zM226.656 592.832c0 11.776 6.624 21.333 14.784 21.333h194.069c8.107 0 14.784-9.557 14.784-21.333 0-11.733-6.656-21.291-14.784-21.291h-194.080c-8.139 0.011-14.773 9.557-14.773 21.291zM241.429 447.712h194.069c8.107 0 14.784-9.557 14.784-21.333 0-11.744-6.656-21.291-14.784-21.291h-194.069c-8.149 0-14.784 9.557-14.784 21.291 0.011 11.776 6.624 21.333 14.784 21.333zM241.429 364.48h194.069c8.107 0 14.784-9.557 14.784-21.333 0-11.755-6.656-21.291-14.784-21.291h-194.069c-8.149 0-14.784 9.557-14.784 21.291 0.011 11.765 6.624 21.333 14.784 21.333zM506.411 38.859h-279.755v209.077h279.765l-0.011-209.077zM506.411 323.317v294.325h129.323v-294.325h-129.323zM783.552 38.859h-194.048c-8.16 0-14.805 9.557-14.805 21.291 0 11.776 6.624 21.333 14.805 21.333h194.048c8.16 0 14.805-9.557 14.805-21.333 0-11.744-6.645-21.291-14.805-21.291zM783.552 122.080h-194.048c-8.16 0-14.805 9.557-14.805 21.291 0 11.776 6.624 21.333 14.805 21.333h194.048c8.16 0 14.805-9.557 14.805-21.333 0-11.701-6.645-21.291-14.805-21.291zM783.552 205.323h-194.048c-8.16 0-14.805 9.557-14.805 21.291 0 11.776 6.624 21.323 14.805 21.323h194.048c8.16 0 14.805-9.557 14.805-21.323 0-11.723-6.645-21.291-14.805-21.291zM798.357 323.317h-129.333v294.325h129.333v-294.325zM798.357 666.891h-291.947v49.931h291.947v-49.931zM798.357 764.715h-583.883v111.008h583.883v-111.008z" />
<glyph unicode="&#x42;" horiz-adv-x="1173" d="M250.989-0.374c-16.645 9.167-24.364 12.542-38.811 26.989 14.453-14.447 20.915-24.229 22.885-42.937l-0.217-0.22c54.76-9.948 89.041-17.199 89.041-17.199l3.085 109.333-75.983-75.966z" />
<glyph unicode="&#x43;" glyph-name="collection" d="M257.419 205.483h638.635v701.184h-638.635v-701.184zM754.144 685.248v-204.459c0-13.813-11.253-25.077-25.077-25.077h-304.672c-13.824 0-25.045 11.264-25.045 25.077v204.459c0 13.792 11.243 25.045 25.045 25.045h304.672c13.835 0 25.077-11.221 25.077-25.045zM449.44 660.192h254.635v-154.336h-254.635v154.336zM207.339 203.829v675.083l-1.397 27.328-24.661-13.387c-1.717-0.853-3.36-1.728-5.611-3.147-0.949-0.587-1.899-1.152-2.805-1.781-4.832-3.381-9.397-7.125-13.504-11.157-0.683-0.661-1.355-1.387-2.389-2.528-3.413-3.605-6.549-7.435-9.6-11.669-0.8-1.131-1.675-2.304-2.443-3.52-3.499-5.397-6.304-10.539-8.48-15.669-0.331-0.768-0.587-1.536-0.789-2.112-1.909-4.789-3.488-9.792-4.821-15.531-0.341-1.536-0.672-3.051-0.981-4.672-1.259-6.997-1.856-12.917-1.856-18.752v-633.984l25.28 15.189c12.928 7.776 26.88 13.547 41.429 17.131l12.629 3.179zM128 51.040c0-57.504 46.827-104.373 104.373-104.373h663.68v79.339h-663.68c-13.813 0-25.045 11.307-25.045 25.067 0 13.792 11.243 25.109 25.045 25.109h663.68v79.339h-663.68c-57.547-0.117-104.373-46.944-104.373-104.48z" />
<glyph unicode="&#x44;" horiz-adv-x="1173" d="M329.266 209.543l-53.47 202.98 71.577 267.301c-9.943 69.24-40.564 134.397-63.751 200.172 0 0-82.756 40.265-140.911 51.443-36.35 6.999-69.266 8.749-89.608 8.808-12.22 0.031-19.849-0.562-21.105-0.974 0 0 33.548-58.158 52.558-124.141 19.022-65.978 27.957-114.069 27.957-114.069s-24.598-57.043-36.906-110.719c-12.296-53.681-25.719-102.887-25.719-102.887s25.719-71.574 41.379-134.219c15.661-62.625 16.764-108.469 16.764-108.469s-17.879-45.844-33.548-108.489c-15.655-62.645-22.36-137.572-22.36-137.572s41.377 8.958 127.485-5.582c8.323-1.397 16.296-2.78 24.062-4.115-5.306 3.186-10.578 7.332-16.171 12.917-14.458 14.458-19.905 27.322-22.902 42.937l4.631 4.626c18.72-0.906 28.49-8.407 42.943-22.874-14.447 14.47-17.817 22.188-26.989 38.834l144.083 144.091z" />
<glyph unicode="&#x45;" glyph-name="event" d="M782.752 474.901l-6.005 4.512c-4.48 3.531-8.021 6.624-11.403 9.984-3.104 2.987-6.731 7.157-10.208 11.893-1.365 1.813-2.891 3.893-4.256 5.952-6.848 10.229-11.84 21.429-15.125 33.344l-2.677 9.92-10.261 0.704c-27.723 1.867-53.792 13.845-73.611 33.845-3.147 2.965-6.709 7.168-10.165 11.829-1.408 1.877-2.965 3.968-4.341 6.016-6.592 9.867-11.552 20.608-14.763 32.075l-3.349 12.011-12.352-1.536c-8.405-1.088-17.088-1.184-25.696-0.395l-3.435 0.469c-2.421 0.32-4.821 0.608-7.264 1.067l-3.957 0.885c-2.133 0.501-4.309 0.992-6.432 1.6-1.269 0.373-2.592 0.768-4.107 1.28-1.984 0.661-4.021 1.344-6.037 2.187-1.333 0.523-2.688 1.099-4.032 1.653-1.952 0.864-3.851 1.76-5.813 2.763-1.227 0.64-2.517 1.259-3.712 1.941-1.941 1.077-3.776 2.251-6.72 4.085l-2.485 1.568c-1.952 1.344-3.851 2.805-5.771 4.331l-11.733 9.44-66.389-43.723-7.957-5.504 1.781-9.461 0.448-1.824c1.28-4.064 2.101-8.32 2.955-12.672 0.171-0.928 0.416-1.877 0.896-4.171 0.885-5.856 1.355-11.648 1.355-17.269 0-63.605-51.765-115.307-115.435-115.307-3.723 0-7.371 0.181-10.955 0.512l-3.637 0.491c-2.411 0.32-4.768 0.597-7.104 1.056l-4.117 0.928c-2.123 0.512-4.235 1.003-6.347 1.589-1.259 0.32-2.517 0.779-4.171 1.312-1.995 0.661-3.979 1.397-5.941 2.165-1.376 0.544-2.741 1.099-4.075 1.707-1.92 0.832-3.787 1.707-5.643 2.688-1.344 0.661-2.645 1.323-3.957 2.048-1.931 1.035-3.723 2.197-6.656 4.064l-2.4 1.557c-1.952 1.323-3.808 2.752-5.717 4.245l-12.032 10.133-180.075-125.184 753.717 74.805-32.832 22.389zM894.869 120.8l-892.181-88.384v-85.749l892.181 88.395zM530.688 718.464c0.821-1.109 1.419-1.877 2.379-3.307 1.355-1.76 3.36-4.075 4.917-5.547 20.672-20.832 50.603-27.744 78.496-16.341 3.456 1.195 6.816 2.891 10.421 5.173 7.349 4.576 16.683 4.373 23.829-0.512 7.115-4.843 10.635-13.461 9.003-21.995-0.491-2.421-0.757-5.621-0.672-11.125l14.347 0.992-14.293-2.88c0.533-12.949 4.565-25.376 11.616-35.84 0.885-1.333 1.813-2.613 3.072-4.32 2.336-3.136 4.309-5.397 5.813-6.773 17.493-17.632 40.427-24.971 64.597-20.448l1.621 0.373c7.371 2.315 16.075 0.523 21.557-4.395 5.76-5.088 8.661-12.16 7.84-18.784l-0.128-2.549c0.128-13.899 4.213-27.371 11.829-38.912 0.843-1.216 1.749-2.517 2.987-4.064 2.4-3.264 4.373-5.504 5.835-6.848 14.091-14.208 31.915-21.707 51.435-21.707 11.051 0 20.832-8.171 22.357-18.581 1.557-10.688 5.28-20.544 11.477-29.76l2.869-3.915c2.176-2.987 4.149-5.227 5.664-6.667 2.347-2.379 4.811-4.565 7.371-6.517 7.627-6.005 16.085-10.261 24.917-12.523 6.528-1.856 12.779-2.688 19.189-2.688 39.744 0 72.096 32.299 72.096 71.989 0 14.219-4.192 28-11.947 39.563-2.603 4.043-5.483 7.563-9.333 11.424-3.307 3.307-7.221 6.496-11.68 9.483-11.243 7.573-24.832 11.616-39.136 11.616-11.029 0-20.832 8.16-22.336 18.571-1.557 10.763-5.419 20.736-11.275 29.493-2.635 4.075-5.461 7.605-9.333 11.403-3.317 3.317-7.253 6.517-11.787 9.536-11.253 7.595-24.789 11.637-39.125 11.637-6.176 0-11.669-0.683-16.651-2.091-6.869-1.941-14.219-0.352-19.744 4.192-5.472 4.555-8.32 11.488-7.637 19.84v1.589c0 14.219-4.171 28-11.904 39.584-2.645 4.064-5.483 7.584-9.333 11.381-3.328 3.296-7.221 6.528-11.765 9.557-22.016 14.827-53.536 15.2-76.757 0.928-7.328-4.501-16.608-4.235-23.712 0.608-7.083 4.885-10.603 13.472-9.003 21.931 0.523 2.421 0.8 5.675 0.8 9.653 0 14.219-4.149 28-11.925 39.563-2.624 4.053-5.483 7.552-9.355 11.413-3.285 3.275-7.211 6.443-11.701 9.504-11.253 7.605-24.789 11.627-39.136 11.627-19.264 0-37.28-7.467-50.709-21.013-13.739-13.781-21.376-31.925-21.376-51.093 0-13.781 3.904-27.104 11.755-39.136l1.664-2.293zM267.371 540.309c2.315-3.189 4.288-5.472 5.771-6.848 14.091-14.176 31.925-21.717 51.509-21.717 39.723 0 72.085 32.309 72.085 72 0 14.229-4.213 28-11.915 39.573-2.635 4.053-5.461 7.552-9.333 11.381-3.317 3.275-7.253 6.475-11.776 9.525-11.211 7.584-24.779 11.605-39.125 11.605-19.264 0-37.291-7.477-50.731-21.003-13.76-13.76-21.365-31.915-21.365-51.093 0-14.101 4.085-27.68 11.829-39.307 0.832-1.184 1.739-2.389 3.051-4.117zM895.339 383.733l-9.685 5.227c-3.115 1.771-6.176 3.712-9.248 5.835l-2.005 1.248c-0.811 0.533-1.589 1.035-2.357 1.6-3.456 2.624-6.763 5.483-9.952 8.544-0.661 0.608-1.376 1.237-2.229 1.835l-4.789 4.843-852.384-84.587v-252.288l892.213 88.469-0.032 210.773 0.469 8.501z" />
<glyph unicode="&#x46;" horiz-adv-x="1173" d="M551.603 414.637c-87.156 109.604-80.089 269.525 21.308 370.916 0.257 0.26 0.531 0.505 0.793 0.759-12.265 72.187-26.964 153.614-44.786 155.197 0 0-14.549-15.661-98.417-35.78-83.874-20.137-123.026-25.73-123.026-25.73 23.187-65.778 53.828-130.931 63.751-200.172l-71.569-267.307 48.494-184.105 113.12 113.157c18.192-3.5 28.485-8.438 42.949-22.885 14.441-14.447 20.385-25.761 22.871-42.957l-175.585-175.593-3.759-133.864c0 0 57.031 12.322 107.36 27.991 50.323 15.635 72.686 29.052 72.686 29.052l50.323 216.978-26.515 174.343z" />
<glyph unicode="&#x47;" glyph-name="page" d="M85.067 298.773v123.936l-13.237-0.192c-16.309-0.192-31.648-6.581-42.912-17.973-11.797-11.691-18.251-27.243-18.251-43.872 0-33.696 27.413-61.515 61.163-61.856l13.237-0.043zM951.712 422.56l-13.237 0.149v-123.936l13.237 0.171c16.299 0.192 31.616 6.635 42.891 17.973 11.733 11.701 18.219 27.232 18.219 43.883 0.043 33.675-27.403 61.408-61.109 61.76zM780.864 767.211h-538.315v-78.795h262.613c1.323 0 2.507-0.16 3.776-0.395v0l0.576-0.117c1.227-0.288 2.688-0.885 5.323-2.24 1.845-1.056 3.211-2.005 4.224-3.008l177.216-177.28c0.992-1.024 1.973-2.336 3.029-4.128l0.576-1.141c0.768-1.589 1.323-2.944 1.717-4.512l0.043-0.309c0.224-1.237 0.405-2.539 0.405-3.787v-192.576h78.805l0.011 468.288zM124.427 298.901h138.603l9.707 1.216 3.093 8.747 0.608 2.069c1.013 3.84 2.283 7.659 3.648 11.339l0.917 2.507c1.739 4.299 3.851 8.651 6.283 13.035l1.931 3.2c1.92 3.253 4.021 6.368 6.656 10.005l2.123 2.859c3.541 4.448 6.645 8.021 9.771 11.2 22.923 22.923 53.483 35.595 85.877 35.595 32.427 0 62.955-12.672 85.899-35.595 3.136-3.168 6.251-6.688 9.771-11.136 0.715-0.981 1.44-1.941 2.539-3.488 2.197-3.029 4.299-6.155 6.251-9.461l1.909-3.147c2.496-4.437 4.491-8.661 6.56-13.867l0.576-1.696c1.365-3.712 2.624-7.499 3.648-11.36 0.181-0.715 0.437-1.387 0.693-2.133l2.507-9.899h148.768v172.896h-157.579c-10.88 0-19.691 8.821-19.691 19.712v157.536h-361.067v-350.133zM634.848 511.147l-109.973 109.995v-109.995zM124.427-53.333h538.293v312.843h-138.613l-9.717-1.216-3.072-8.725-0.629-2.101c-1.003-3.829-2.261-7.659-3.669-11.392l-0.917-2.496c-1.728-4.256-3.829-8.64-6.272-13.013l-1.888-3.168c-1.941-3.221-4.021-6.368-6.613-9.92l-2.112-2.891c-3.595-4.555-6.72-8.117-9.792-11.211-25.685-25.707-61.547-38.485-97.483-35.008l-3.616 0.491c-2.571 0.288-5.163 0.683-7.659 1.163-1.333 0.277-2.613 0.587-4.075 0.896-2.357 0.565-4.64 1.131-6.869 1.771-1.387 0.395-2.816 0.832-4.139 1.291-2.272 0.747-4.448 1.632-6.656 2.475l-3.755 1.504c-2.475 1.056-4.832 2.261-7.189 3.456l-2.624 1.333c-3.2 1.739-6.325 3.648-9.995 6.176l-1.419 1.045c-2.24 1.579-4.427 3.243-6.603 4.885l-2.997 2.603c-1.728 1.515-3.509 3.083-5.109 4.661-1.024 0.981-2.069 2.027-3.115 3.083-1.547 1.653-3.019 3.253-4.715 5.195-0.864 0.96-1.728 1.995-2.496 2.944-1.515 1.909-2.891 3.851-4.352 5.792l-2.133 3.040c-1.781 2.699-3.509 5.536-5.664 9.376-1.717 3.189-3.275 6.443-4.779 9.856l-1.259 3.157c-0.971 2.389-1.792 4.779-2.581 7.157l-4.821 17.845h-148.896v-312.896zM702.091 259.52h78.795v-194.677h-78.795v194.677zM820.256 259.52h78.763v-76.533h-78.763v76.533zM899.019 885.333h-538.24v-78.795h439.808c10.891 0 19.744-8.821 19.744-19.68v-487.968h78.795l-0.107 586.443zM335.552 337.227c-15.509-15.531-23.989-36.128-23.989-58.059 0-45.259 36.811-82.059 82.037-82.059 21.909 0 42.507 8.587 58.016 24.032 15.531 15.531 24.011 36.107 24.011 58.027 0 21.941-8.523 42.517-23.989 58.059-15.509 15.509-36.117 23.989-58.037 23.989-21.952 0.064-42.571-8.491-58.048-23.989z" />
<glyph unicode="&#x48;" horiz-adv-x="1173" d="M565.649 384.741c-113.578 113.594-113.578 297.761 0 411.345 113.589 113.578 297.756 113.578 411.35 0 113.583-113.583 113.583-297.75 0-411.345-113.594-113.606-297.759-113.606-411.35 0zM578.005 397.094c109.037-109.085 281.714-113.165 390.756-4.135 109.053 109.068 104.947 281.74-4.126 390.782-109.042 109.048-281.72 113.151-390.759 4.12-109.048-109.053-104.927-281.72 4.129-390.768z" />
<glyph unicode="&#x49;" glyph-name="image" d="M57.856 623.968c10.176-10.453 23.765-16.224 38.251-16.224h72.832v106.923h-72.832c-14.336 0-27.787-5.547-37.835-15.616h-0.021c-9.973-9.973-15.477-23.307-15.584-37.621l0.032-1.664c0.384-13.419 5.728-26.037 15.157-35.797zM922.475 565.611h-806.464c-40.501 0-73.344-33.408-73.344-74.635v-469.664c0-41.216 32.875-74.645 73.344-74.645h806.464c40.544 0 73.365 33.429 73.365 74.645v469.664c0 41.227-32.843 74.635-73.365 74.635zM521.536 61.771c-106.891 0-193.525 86.624-193.525 193.515 0 106.869 86.635 193.547 193.525 193.547 106.869 0 193.493-86.677 193.493-193.547-0.011-106.901-86.635-193.515-193.493-193.515zM657.472 256.139c0-76.336-61.883-138.219-138.219-138.219s-138.219 61.883-138.219 138.219c0 76.336 61.883 138.219 138.219 138.219s138.219-61.883 138.219-138.219z" />
<glyph unicode="&#x4a;" horiz-adv-x="1173" d="M527.984 465.86l-24.026-17.114c14.12-26.577 32.139-50.944 53.47-72.235 21.861-21.855 46.282-39.697 72.229-53.478l17.105 24.043c-25.397 12.968-48.616 29.845-68.755 50.032-20.752 20.715-37.332 43.976-50.024 68.752z" />
<glyph unicode="&#x4b;" horiz-adv-x="1173" d="M504.218 318.678c7.256-7.239 12.364-13.708 15.962-20.543l61.677 61.677c-4.453 8.822-10.264 16.897-17.224 23.896-7.016 6.991-15.082 12.79-23.907 17.218l-63.647-63.616c9.593-3.581 17.447-8.944 27.138-18.632z" />
<glyph unicode="&#x4c;" glyph-name="code" d="M0 896v-896h1024v896h-1024zM960 64h-896v768h896v-768zM896 768h-768v-640h768v640zM448 448h-64v-64h-64v-64h-64v64h64v64h64v64h-64v64h-64v64h64v-64h64v-64h64v-64zM704 320h-192v64h192v-64z" />
<glyph unicode="&#x4e;" glyph-name="note" d="M833.355 548.341c0 27.787-22.603 50.4-50.421 50.4h-172.48l-7.339-0.981-5.12-6.837c-1.835-2.752-3.787-5.472-5.835-8.085l-2.624-3.445c-2.955-3.616-6.144-7.136-9.557-10.496l-45.045-45.088c-2.539-2.539-5.333-4.821-8.416-6.816-0.811-0.341-1.579-0.757-2.709-1.44-2.080-1.195-4.117-2.432-6.357-3.36-0.971-0.363-1.973-0.608-2.965-0.853l-4.864-1.451c-0.661-0.203-1.291-0.469-1.963-0.597-1.301-0.224-2.613-0.267-3.925-0.363l-4.736-0.427c-0.491-0.075-1.003-0.171-1.493-0.171h-0.587c-2.4 0.032-4.736 0.448-7.104 0.757-0.811 0.085-1.675 0.171-2.517 0.203-2.549 0.459-5.045 1.376-7.509 2.24-0.811 0.267-1.632 0.512-2.304 0.597-2.592 1.099-5.045 2.517-7.477 3.947l-1.792 0.917c-2.976 1.931-5.771 4.213-8.32 6.699l-48.288 48.331-106.805-106.827c-7.595-7.541-20.779-7.541-28.373 0-7.797 7.872-7.797 20.576 0 28.373l105.131 105.163h-149.835c-27.776 0-50.389-22.624-50.389-50.421v-551.253c0-27.787 22.592-50.389 50.4-50.389h365.451v216.064c0 11.083 9.024 20.053 20.064 20.053h216.107v365.557zM270.581 315.605c0 11.072 8.981 20.075 20.064 20.075h263.52c11.019 0 20.085-9.003 20.085-20.075 0-11.051-9.045-20.053-20.085-20.053h-263.52c-11.061 0.011-20.064 9.003-20.064 20.053zM290.645 215.307h86.304c11.051 0 20.064-8.981 20.064-20.064 0-11.093-8.971-20.075-20.064-20.075h-86.304c-11.061 0-20.064 8.981-20.064 20.075 0 11.083 9.003 20.064 20.064 20.064zM734.059 784.757c7.147 0 13.877 2.763 18.891 7.84 6.837 6.805 7.851 14.773 7.851 18.891 0 4.149-1.024 12.149-7.851 18.933l-111.328 111.381c-10.123 10.048-27.733 10.048-37.835-0.043-10.421-10.421-10.421-27.371-0.021-37.803l111.371-111.381c5.056-5.035 11.776-7.819 18.923-7.819zM354.091 685.984l143.584-143.317 54.037 54.667c8.661 8.544 15.563 18.475 20.48 29.493 6.123 13.333 9.291 27.531 9.291 42.261 0 4.672-0.331 9.493-1.003 14.357-0.853 6.176 1.248 12.544 5.685 16.917l82.187 82.229-74.56 74.507-82.251-82.144c-4.469-4.437-10.645-6.507-16.917-5.664-31.445 4.437-63.413-6.176-86.123-28.789l-54.411-54.517zM807.189 134.667h-167.627v-167.595z" />
<glyph unicode="&#x50;" glyph-name="place" d="M749.941 338.731l-12.853 13.611-12.853-13.611c-27.435-28.928-64.245-44.789-103.733-44.789-39.499 0-76.352 15.915-103.733 44.789l-12.853 13.611-12.853-13.611c-27.413-28.928-64.267-44.864-103.744-44.864s-76.341 15.936-103.723 44.864l-12.853 13.611-12.853-13.611c-17.621-18.603-39.893-32.203-64.373-39.189l-12.832-3.637v-349.237h209.173v91.957c0 62.88 51.189 114.027 114.080 114.027 62.816 0 114.005-51.157 114.005-114.027v-91.957h209.269v349.184l-12.853 3.648c-24.501 7.029-46.795 20.629-64.416 39.232zM503.883 99.488c-33.557 0-60.896-27.275-60.896-60.853v-91.936h121.76v91.936c-0.021 33.589-27.307 60.853-60.864 60.853zM227.637 885.333h532.992v-62.037h-532.992v62.037zM87.349 580.288h165.344l75.872 189.888h-113.376zM477.291 770.176h-91.477l-75.915-189.888h167.392zM530.421 770.176v-189.888h167.456l-75.979 189.888zM917.045 580.288l-143.051 189.888h-94.869l75.957-189.888zM244.043 437.067v90.048h-180.043v-90.048c0-49.632 40.405-90.027 90.048-90.027 49.621-0.021 89.995 40.384 89.995 90.027zM297.216 437.067c0-49.632 40.448-90.027 90.027-90.027 49.664 0 90.005 40.405 90.005 90.027v90.048h-180.032v-90.048zM763.648 437.067c0-49.632 40.395-90.027 90.016-90.027 49.643 0 90.016 40.405 90.016 90.027v90.048h-180.053v-90.048h0.021zM530.421 437.067c0-49.632 40.437-90.027 90.059-90.027 49.664 0 90.016 40.405 90.016 90.027v90.048h-180.075v-90.048z" />
<glyph unicode="&#x51;" glyph-name="poll" d="M512.010 960c-282.776 0-512.010-229.255-512.010-512.010 0-282.76 229.234-511.99 512.010-511.99 282.76 0 511.99 229.229 511.99 511.99 0 282.755-229.229 512.010-511.99 512.010zM302.839 125.844c11.089 30.667 17.151 63.687 17.151 98.167 0 124.333-78.797 230.302-189.167 270.62 10.156 84.891 48.229 163.49 109.63 224.911 72.531 72.526 168.984 112.459 271.557 112.459s198.969-39.932 271.531-112.458c61.396-61.422 99.437-140.021 109.687-224.911-110.417-40.318-189.25-146.286-189.25-270.62 0-34.479 6.063-67.5 17.187-98.167-61.708-40.208-133.771-61.833-209.156-61.833-75.395 0-147.463 21.625-209.171 61.833zM551.729 319.010c13.875-3.51 24.271-16.073 24.271-31.021v-63.979c0-17.604-14.417-32.021-32.021-32.021h-63.969c-17.609 0-32.031 14.417-32.031 32.021v63.979c0 14.948 10.396 27.51 24.266 31.021l23.755 449h31.979l23.75-449z" />
<glyph unicode="&#x52;" d="M694.033 442.265c0-100.446-81.481-181.716-181.716-181.716-100.446 0-181.927 81.481-181.927 181.716 0 100.456 81.491 181.726 181.927 181.726 100.236 0.211 181.716-81.27 181.716-181.726z" />
<glyph unicode="&#x53;" d="M749.875 863.849l-61.472-115.027c-61.482 25.628-118.569 38.342-171.301 38.342-90.442 0-170.468-29.381-240.489-88.154-69.811-58.973-104.821-130.038-104.821-213.606v-262.364h-122.743v671.655h122.743v-143.174c78.571 105.664 193.607 158.386 345.31 158.386 85.234 0 162.962-15.212 232.772-46.059z" />
<glyph unicode="&#x54;" d="M274.115 32.352l61.472 115.047c61.482-25.638 118.579-38.352 171.301-38.352 90.442 0 170.468 29.391 240.489 88.154 70.031 58.773 104.821 130.038 104.821 213.606v262.364h122.743v-671.665h-122.733v143.174c-78.36-105.644-193.607-158.587-345.32-158.587-85.224 0.201-162.751 15.413-232.772 46.259z" />
<glyph unicode="&#x55;" glyph-name="audio" d="M623.989 297.44c0-64.572-52.346-116.917-116.917-116.917s-116.917 52.346-116.917 116.917c0 64.572 52.346 116.917 116.917 116.917s116.917-52.346 116.917-116.917zM507.072 609.227c-21.525 0-38.965 17.461-38.965 38.955 0 21.557 17.44 38.965 38.965 38.965 21.536 0 38.965-17.419 38.965-38.965 0-21.493-17.429-38.955-38.965-38.955zM818.859 882.016h-623.605c-42.997 0-77.931-34.88-77.931-77.931v-779.467c0.011-43.061 34.933-77.952 77.941-77.952h623.595c43.061 0 77.963 34.891 77.963 77.963v779.467c-0.011 43.051-34.901 77.92-77.963 77.92zM507.072 765.131c64.587 0 116.917-52.384 116.917-116.949 0-64.555-52.331-116.885-116.917-116.885-64.608 0-116.939 52.331-116.939 116.885 0 64.565 52.331 116.949 116.939 116.949zM507.072 102.571c-107.616 0-194.869 87.232-194.869 194.869 0 107.627 87.253 194.848 194.869 194.848s194.869-87.221 194.869-194.848c0-107.637-87.253-194.869-194.869-194.869z" />
<glyph unicode="&#x56;" glyph-name="video" horiz-adv-x="1067" d="M751.061-53.333c41.749 0 75.733 33.952 75.733 75.712v359.445c0 41.76-33.963 75.733-75.733 75.733h-675.349c-41.76 0-75.712-33.973-75.712-75.733v-359.445c0-41.76 33.963-75.712 75.712-75.712h675.349zM178.677 177.6v144.32c0 15.339 12.448 27.776 27.755 27.776h413.92c15.296 0 27.776-12.448 27.776-27.776v-144.32c0-15.328-12.48-27.755-27.776-27.755h-413.909c-15.307 0.011-27.765 12.437-27.765 27.755zM882.315 130.645l181.376-75.243v293.461l-181.376-75.307zM214.603 786.987c-75.531 0-136.949-61.429-136.949-136.981 0-75.467 61.429-136.885 136.949-136.885 75.499 0 136.939 61.419 136.939 136.885 0 75.563-61.44 136.981-136.939 136.981zM598.539 896c-105.579 0-191.424-85.909-191.424-191.499 0-105.557 85.867-191.456 191.424-191.456 105.6 0 191.456 85.899 191.456 191.456 0 105.6-85.867 191.499-191.456 191.499zM598.539 600.448c-57.376 0-104.032 46.699-104.032 104.064 0 57.419 46.656 104.075 104.032 104.075 57.355 0 104.021-46.656 104.021-104.075 0-57.365-46.667-104.064-104.021-104.064zM598.539 753.056c26.795 0 48.544-21.707 48.544-48.533 0-26.805-21.749-48.491-48.544-48.491-26.816 0-48.544 21.696-48.544 48.491-0.011 26.827 21.739 48.533 48.544 48.533zM234.208 294.165h358.357v-88.821h-358.357v88.821z" />
<glyph unicode="&#x5e;" glyph-name="mapHumanitarian" horiz-adv-x="1173" d="M545.248 494.069c0 7.125 1.525 13.493 4.555 18.965 3.019 5.525 7.019 10.005 11.989 13.589 4.949 3.563 10.517 6.283 16.704 8.117 6.187 1.803 12.405 2.72 18.688 2.72 6.261 0 12.491-0.917 18.688-2.72 6.165-1.835 11.744-4.544 16.672-8.117 4.992-3.595 8.981-8.064 12.011-13.589 3.051-5.493 4.555-11.84 4.555-18.965v-93.835c0-7.285-1.515-13.653-4.555-19.072-3.029-5.419-7.019-9.899-12.011-13.472-4.96-3.605-10.507-6.325-16.672-8.117-6.197-1.813-12.437-2.741-18.688-2.741-6.293 0-12.512 0.928-18.688 2.741-6.197 1.792-11.765 4.512-16.704 8.117-4.971 3.573-8.981 8.053-11.989 13.472-3.029 5.419-4.555 11.787-4.555 19.072v93.835zM575.040 400.203c0-6.112 3.413-10.677 7.584-13.579 4.139-2.912 9.067-4.469 14.741-4.469 5.632 0 10.571 1.557 14.731 4.469 4.149 2.891 6.496 7.456 6.496 13.579v93.824c0 6.144-2.357 10.667-6.496 13.579-4.16 2.912-9.099 4.875-14.731 4.875-5.675 0-10.603-1.963-14.741-4.875-4.171-2.891-7.584-7.445-7.584-13.579v-93.824zM491.531 537.664v-76.213h-47.531v76.213h-25.995v-180.896h25.995v76.235h47.531v-76.235h27.947v180.896zM772.096 537.664h-103.179v-26.613h38.144l-0.469-154.283h27.445v154.283h38.059zM963.403 376.373h209.931l-125.515 141.365-124.971 141.344-124.992 140.917h-627.936l124.971-140.917h-210.4l124.992-141.344 0.96-0.949h-210.443l125.483-141.365 125.035-141.323 124.971-140.939h627.936l-125.024 140.928-0.917 1.387h210.432l-124.512 140.896zM586.656 211.723c-140.203 0-253.845 105.141-253.845 234.859 0 129.728 113.643 234.901 253.845 234.901 140.224 0 253.888-105.173 253.888-234.901 0-129.717-113.664-234.859-253.888-234.859zM0 960h117.333v-117.333h-117.333v117.333zM0 53.333h117.333v-117.333h-117.333v117.333zM1056 960h117.333v-117.333h-117.333v117.333zM1056 53.333h117.333v-117.333h-117.333v117.333z" />
<glyph unicode="&#x5f;" glyph-name="mapPublicTransport" horiz-adv-x="1173" d="M850.379 55.168c60.011 26.112 95.392 88.875 86.709 153.749l-58.592 435.595c-7.936 58.048-57.44 101.365-116.021 101.557h-351.605c-58.603-0.149-108.149-43.435-116.149-101.493l-58.603-435.648c-8.672-64.896 26.795-127.659 86.848-153.749l-79.349-79.456c-11.648-11.253-11.957-29.792-0.715-41.419 11.243-11.659 29.792-11.968 41.429-0.736 0.235 0.224 0.48 0.48 0.725 0.736l108.651 108.576h385.941l108.587-108.576c11.253-11.659 29.803-11.968 41.429-0.736 11.659 11.243 11.968 29.792 0.725 41.451-0.224 0.224-0.469 0.459-0.725 0.704l-79.285 79.445zM343.872 570.261h485.568l31.413-234.4h-548.384l31.403 234.4zM410.859 130.763c-32.363 0-58.603 26.229-58.603 58.592 0 32.341 26.24 58.603 58.603 58.603 32.373 0 58.603-26.261 58.603-58.603-0.011-32.363-26.229-58.592-58.603-58.592zM703.861 189.355c0 32.341 26.24 58.603 58.603 58.603s58.603-26.261 58.603-58.603c0-32.363-26.24-58.592-58.603-58.592s-58.603 26.229-58.603 58.592zM747.039 926.476l-284.439-284.439-33.534 33.534 284.439 284.439 33.534-33.534zM884.759 905.163l-284.439-284.439-33.518 33.518 284.439 284.439 33.518-33.518z" />
<glyph unicode="&#x61;" glyph-name="announce" horiz-adv-x="1109" d="M1108.203 488.224l-473.088 471.776v-270.101c-69.216 3.157-293.067-0.725-457.045-158.731-133.845-128.8-192.736-327.136-174.976-589.227 0.139-2.112 0.64-4.085 1.408-5.941 94.699 228.693 319.957 389.643 582.891 389.643 16.085 0 31.957-0.8 47.723-1.995v-307.157l473.088 471.733z" />
<glyph unicode="&#x62;" glyph-name="block" d="M272.224 17.856c72.181-41.781 155.84-65.856 245.077-65.856 89.835 0 174.005 24.373 246.507 66.699l-245.365 245.344-246.219-246.187zM942.123 687.691l-267.915-267.904 250.4-250.379c52.619 78.144 83.339 172.171 83.339 273.248 0 89.227-24.043 172.875-65.824 245.035zM791.979 849.045c-78.432 53.173-173.003 84.288-274.677 84.288-101.099 0-195.136-30.752-273.301-83.371l274.443-274.411 273.536 273.493zM93.323 689.131c-42.293-72.491-66.656-156.661-66.656-246.464 0-101.664 31.083-196.213 84.235-274.613l251.765 251.733-269.344 269.344z" />
<glyph unicode="&#x63;" glyph-name="create" d="M511.989 949.333c-276.437 0-501.323-224.885-501.323-501.323 0-253.824 189.643-464.043 434.667-496.757v230.080c0 2.891 0.192 5.643 0.491 8.331-115.136 29.515-200.491 134.144-200.491 258.347 0 147.040 119.616 266.656 266.656 266.656 147.029 0 266.656-119.616 266.656-266.656 0-126.037-87.936-231.861-205.664-259.531 0.224-2.315 0.352-4.683 0.352-7.147v-230.763c247.573 30.368 439.979 241.792 439.979 497.44 0 276.437-224.896 501.323-501.323 501.323z" />
<glyph unicode="&#x64;" glyph-name="delete" d="M1021.813 802.432l-155.339 155.275-354.443-354.411-356.736 356.704-155.296-155.296 356.715-356.715-356.715-356.683 155.275-155.307 356.757 356.715 354.464-354.432 155.317 155.307-354.475 354.4z" />
<glyph unicode="&#x65;" glyph-name="leave" d="M643.904 610.955h347.541c-67.349 190.667-249.301 327.712-462.741 327.712-270.56 0-490.667-220.107-490.667-490.667s220.107-490.667 490.667-490.667c213.44 0 395.381 137.045 462.741 327.712h-347.541v325.909z" />
<glyph unicode="&#x66;" glyph-name="follow" horiz-adv-x="1387" d="M972.523 853.333c-111.595 0-212.651-45.131-285.963-118.101l284.064-283.296-287.957-287.157c73.589-75.307 176.224-122.112 289.856-122.112 223.851 0 405.365 181.472 405.365 405.333s-181.493 405.333-405.365 405.333zM160.181 321.163v237.973h418.891v255.125c-52.651 25.024-111.552 39.072-173.739 39.072-223.851 0-405.333-181.472-405.333-405.323 0-223.861 181.483-405.344 405.333-405.344 62.187 0 121.088 14.016 173.739 39.061v239.435h-418.891z" />
<glyph unicode="&#x67;" glyph-name="flag" horiz-adv-x="1050" d="M1049.579 960h-1049.579v-1010.357h107.904v362.944h941.685l-0.011 647.413zM941.685 420.501h-387.477v215.797h-387.456v215.797h387.456v-215.797h387.477v-215.797z" />
<glyph unicode="&#x68;" glyph-name="dislike" horiz-adv-x="1216" d="M588.363 828.96c-195.712 236.437-588.363 101.408-588.363-212.032 0-83.424 44.619-165.013 110.901-242.528l363.125 362.613c7.637 7.147 19.029 7.467 26.453-0.171l110.773-106.347c63.413-60.875 151.989 37.152 92.267 91.915l-115.157 106.549zM1207.296 616.757c-5.12 305.664-375.2 445.717-577.557 224.576l99.221-91.413c96.715-88.896-44.256-242.037-143.648-146.4l-97.685 93.995-351.627-351.115c0.021-0.021 0.043-0.043 0.064-0.075l-28.395-27.008c-69.109-65.739 33.76-165.568 96.043-103.563l34.048 33.621c0.117-0.107 0.235-0.213 0.363-0.309l12.885 13.397 9.451 9.333-0.267 0.213 287.787 299.147c17.141 17.632 44.288-8.309 27.147-26.123l-299.339-310.901-38.347-36.939c-66.325-63.883 32.299-160.789 92.075-100.533l43.701 43.691c0.021-0.021 0.043-0.043 0.064-0.053l4.971 5.088 5.749 5.728-0.064 0.053 296.053 302.421c17.269 17.472 43.861-8.779 26.592-26.272l-273.632-279.605-23.147-22.027c-61.685-58.667 30.133-147.776 85.717-92.427l41.152 40.651 260.491 250.976c17.781 17.12 43.797-9.995 25.941-26.944l-253.376-244.32 0.245-0.331-24.48-25.877c-44-46.507 28.48-109.781 68.043-66.016l35.456 38.933c204.469 158.976 562.357 367.584 558.304 616.427z" />
<glyph unicode="&#x69;" glyph-name="invite" horiz-adv-x="1077" d="M591.157 938.667c-213.429 0-395.381-137.045-462.731-327.712h467.68v-325.909h-467.68c67.349-190.667 249.301-327.712 462.731-327.712 270.56 0 490.688 220.107 490.688 490.667s-220.128 490.667-490.688 490.667zM523.147 504.373h-512.48v-117.333h512.48z" />
<glyph unicode="&#x6a;" glyph-name="join" d="M301.856 285.045h-269.856c45.76-129.515 144.405-234.219 269.856-288.107v288.107zM301.856 899.061c-125.451-53.888-224.096-158.592-269.856-288.107h269.856v288.107zM494.731 938.667c-56.235 0-110.272-9.6-160.619-27.104l463.552-463.563-463.552-463.563c50.347-17.504 104.373-27.104 160.619-27.104 270.56 0 490.688 220.107 490.688 490.667s-220.128 490.667-490.688 490.667z" />
<glyph unicode="&#x6c;" glyph-name="like" horiz-adv-x="1216" d="M844.235 960c-93.408 0-180.736-36.629-247.829-103.467-63.051 53.099-141.045 81.803-225.301 81.803-177.173 0-360.437-133.579-360.437-357.131 0-72.587 28.821-146.144 87.872-223.872-0.501-0.608-1.12-1.141-1.611-1.749l-1.739-1.739 0.213-0.203c-24.939-32.395-30.891-72.597-15.595-110.891 18.304-45.803 64.107-77.909 111.68-78.443 1.035-10.677 3.659-21.408 7.925-31.989 18.155-45.024 63.36-76.469 109.952-76.469 17.675 0 34.891 4.459 50.411 12.832 18.379-41.099 60.608-69.429 104.245-69.429 7.605 0 15.125 0.853 22.453 2.507 0.565-1.547 1.184-3.072 1.835-4.608 15.776-36.565 52.533-61.152 91.467-61.152 26.101 0 50.443 11.019 68.405 30.891l29.323 32.203c30.133 23.307 64.064 47.947 99.915 73.995 192.213 139.627 431.424 313.387 427.872 530.208-3.733 223.275-186.507 356.704-361.056 356.704zM371.115 831.669c74.272 0 141.781-32.139 190.080-90.485l110.4-102.763c0.267-0.256 0.501-0.469 0.661-0.661-0.939-3.264-5.781-8.235-8.245-8.459-0.021 0-1.376 0.416-3.829 2.773l-100.885 96.875c-13.259 13.195-30.741 20.448-49.365 20.448-4.736 0-9.408-0.501-13.984-1.429l-3.083 2.965-5.248-5.237c-9.675-3.232-18.677-8.491-26.357-15.669l-290.805-290.357c-35.669 51.307-53.12 97.941-53.12 141.536 0 156.789 129.035 250.464 253.781 250.464zM196.203 273.301c-0.875-0.864-2.475-2.315-3.531-2.315-3.733 0-11.179 4.757-13.803 11.339-0.875 2.197-1.621 4.085 3.84 9.28l58.453 55.648-0.651 0.981 253.728 253.344 10.336-9.952-257.525-267.659-50.848-50.667zM737.707 176.085l99.499 95.936c20.971 19.925 27.669 49.931 17.088 76.427-10.816 27.051-37.333 45.227-66.005 45.227-17.931 0-35.147-7.040-48.555-19.904l-238.773-230.101-37.813-37.323c-0.021-0.021-0.032-0.032-0.053-0.053-2.251 1.013-5.109 3.829-5.973 5.941 0.352 0.491 0.971 1.237 2.016 2.24l21.184 20.192 251.456 256.896c20.32 20.565 26.123 49.664 15.147 75.968-11.029 26.432-37.397 44.181-65.611 44.181-18.592 0-36.235-7.488-49.888-21.291l-270.859-276.693-49.536-49.589c-1.109-1.109-1.877-1.579-1.675-1.589-2.443 0.011-8.757 4.107-11.019 9.696-0.789 1.963-1.355 3.371 3.307 7.872l35.104 33.803 275.275 285.856c3.552 3.691 6.645 7.648 9.269 11.808 8.352-1.589 16.864-2.389 25.504-2.389 59.989 0 117.824 40.907 140.64 99.477 21.707 55.712 7.861 113.579-36.949 154.741l-47.733 44c41.429 29.877 90.219 45.92 141.483 45.92 122.976 0 251.765-94.208 254.411-251.829 2.517-154.229-193.237-303.307-360.939-425.419z" />
<glyph unicode="&#x6d;" glyph-name="move" d="M1029.333 144h-810.667v821.333h810.667v-821.333zM453.333 378.667h341.333v352h-341.333v-352zM749.813-64h-755.147v745.408h117.333v-628.075h637.813z" />
<glyph unicode="&#x6e;" glyph-name="arrive" horiz-adv-x="1280" d="M1253.6 865.547c-56.853-29.397-117.557-43.648-185.632-43.648-61.333 0-123.851 12-185.856 26.731v36.576c0 8.597-5.771 16.171-14.101 18.357-5.739 1.536-11.52 3.072-17.259 4.576-88.459 22.88-179.915 46.528-271.211 46.528-57.6 0-110.464-9.611-160.405-28.811v-49.365h-100.981v-767.136l107.499 22.752v-105.6l-107.499-22.731v101.931c-98.485-21.792-211.339-40.917-312.821-58.112l8.533-50.432 3.637-21.536 4.885-28.907c105.835 17.941 206.549 35.019 295.765 54.037v-62.443h107.499v88.085c45.504 12.32 86.069 25.749 120.608 40.757 15.563-77.824 84.256-136.491 166.677-136.491 93.92 0 170.037 76.128 170.037 170.016s-76.128 170.005-170.037 170.005c-54.123 0-102.272-25.397-133.408-64.832l-3.413 1.035-12.405-12.373c-22.731-22.688-72.928-43.211-138.048-61.963v222.283c47.68 19.584 98.187 29.856 153.888 29.856 82.987 0 168.448-21.355 251.509-42.816v-37.12c0-8.704 5.963-16.341 14.443-18.464 71.691-17.717 150.251-34.283 222.475-34.283 74.688 0 141.44 15.691 204.064 48.032l10.859 5.611v575.019l-29.301-15.125zM845.781 538.773c-45.611 16.597-92.565 27.893-139.936 33.589 0-53.397 0-106.848 0-160.256-41.899 7.669-84.075 12.832-126.187 12.832-8.053-0.043-15.723-0.683-23.552-1.067 0 49.493 0 98.997 0 148.48-44.16-5.291-87.787-15.691-130.443-30.453v176.512c42.656 14.784 86.293 25.152 130.443 30.443 0 54.837 0 109.717 0 164.544 7.829 0.405 15.467 1.12 23.509 1.12 41.632 0 83.936-5.44 126.229-13.493 0-50.731 0-101.429 0-152.171-49.749 5.995-99.989 5.995-149.739 0 0-58.816 0-117.643 0-176.491 49.749 6.027 99.989 6.027 149.739 0 0 58.805 0 117.675 0 176.48 47.36-5.707 94.325-16.992 139.936-33.589v-176.48zM1242.72 483.317c-35.253-10.923-71.104-18.645-107.328-22.955 0 56.256 0 112.555 0 168.811-47.712-5.749-95.893-5.749-143.563 0 0-56.256 0-112.555 0-168.811 47.669-5.749 95.797-5.749 143.52 0 0-54.219 0-108.437 0-162.656-21.749-3.392-43.979-5.611-67.371-5.611-29.237 0.032-58.795 2.901-88.384 7.339 0 53.643 0 107.328 0 160.96-32.779 3.797-65.365 10.304-97.472 19.040v173.525c35.979-11.349 72.661-19.328 109.707-23.787 0 52.64 0 105.312 0 157.963 25.333-3.221 50.741-5.451 76.149-5.451 23.296 0 45.557 2.048 67.371 5.152 0-52.576 0-105.099 0-157.664 36.192 4.352 72.128 12.021 107.36 22.955v-168.811z" />
<glyph unicode="&#x6f;" glyph-name="offer" horiz-adv-x="1099" d="M549.792-59.115c-297.28 0-539.125 240.448-539.125 539.115h234.667c0-170.667 136.576-304.448 304.459-304.448s304.469 133.781 304.469 304.448h234.667c0-298.667-241.856-539.115-539.136-539.115zM808.8 700.992c0-143.046-115.962-259.008-259.008-259.008s-259.008 115.962-259.008 259.008c0 143.046 115.962 259.008 259.008 259.008s259.008-115.962 259.008-259.008z" />
<glyph unicode="&#x71;" glyph-name="question" horiz-adv-x="1141" d="M409.515 650.667c4.64-53.333 2.539-86.517-6.272-120.405-8.843-33.92-21.589-61.749-38.304-86.336-16.715-24.619-35.307-45.024-55.723-62.645-20.437-17.664-39.701-34.475-57.803-51.189-18.112-16.725-33.429-33.899-45.963-51.872-12.533-17.984-18.805-39.328-18.805-64.235 0-32.245 9.28-58.251 27.861-78.080 18.56-19.808 51.061-29.707 97.504-29.707 14.848 0 30.645 1.621 47.349 4.875 16.715 3.275 33.429 7.915 50.155 13.941 16.704 6.059 32.725 13.024 48.053 20.896 15.328 7.893 29.013 16.501 41.088 25.771l68.256-134.347c-35.317-24.373-75.701-44.523-121.184-60.459-45.515-15.936-100.768-23.872-165.76-23.872-87.296 0-155.787 20.875-205.461 62.667-49.675 41.771-74.507 98.891-74.507 171.307 0 47.371 6.261 86.357 18.805 117.003s28.32 56.875 47.36 78.709c19.019 21.792 39.456 41.088 61.28 57.792 21.813 16.715 42.24 34.581 61.291 53.621 19.029 19.029 34.827 38.24 47.36 63.317s18.805 50.581 18.805 93.248h154.613zM215.893 854.144c0 32.491 10.208 58.261 30.645 77.301 20.416 19.019 47.36 28.555 80.789 28.555 35.275 0 63.136-9.536 83.563-28.555 20.427-19.040 30.645-44.811 30.645-77.301 0-32.501-10.219-58.496-30.645-77.995-20.437-19.499-48.288-29.248-83.563-29.248-33.429 0-60.384 9.749-80.789 29.248-20.437 19.499-30.645 45.493-30.645 77.995zM726.325 234.667c-4.651 42.667-2.325 93.888 6.965 127.797 9.28 33.877 22.048 65.408 38.304 90.005 16.235 24.587 34.837 47.093 55.723 65.205 20.896 18.101 40.395 36.085 58.496 52.789 18.112 16.715 33.195 34.421 45.269 52.523 12.053 18.112 18.112 39.84 18.112 64.917 0 32.491-9.067 58.56-27.168 78.059-18.101 19.488-50.389 29.28-96.811 29.28-14.859 0-30.635-1.611-47.349-4.864-16.704-3.275-33.429-7.883-50.144-13.92-16.704-6.037-32.725-13.003-48.053-20.885-15.328-7.893-29.035-16-41.099-24.373l-69.632 133.739c35.285 24.128 75.904 44.096 121.867 59.893 45.984 15.776 101.461 23.669 166.464 23.669 87.264 0 155.509-21.12 204.736-63.371 49.205-42.261 73.813-99.125 73.813-170.624 0-47.36-6.261-86.603-18.795-117.696-12.533-31.125-28.107-57.589-46.667-79.403-18.581-21.824-38.997-41.088-61.28-57.792s-42.72-34.603-61.28-53.621c-18.581-19.040-34.357-45.632-47.349-70.699-13.024-25.067-19.499-57.973-19.499-100.64h-154.624zM698.464 45.963c0 32.48 10.208 58.251 30.645 77.291 20.416 19.019 47.349 28.565 80.789 28.565 35.285 0 63.147-9.547 83.573-28.565 20.405-19.040 30.635-44.811 30.635-77.291 0-32.523-10.229-58.496-30.635-77.995-20.427-19.499-48.288-29.248-83.573-29.248-33.44 0-60.373 9.749-80.789 29.248-20.437 19.488-30.645 45.472-30.645 77.995z" />
<glyph unicode="&#x72;" glyph-name="read" horiz-adv-x="1109" d="M797.813 699.829c0 137.792-111.691 249.504-249.44 249.504-137.781 0-249.461-111.701-249.461-249.504 0-11.381 1.013-22.496 2.496-33.472l246.965-44.48 246.933 44.48c1.483 10.976 2.507 22.091 2.507 33.472zM89.685 314.101v131.616l-14.048-0.203c-17.344-0.213-33.589-6.976-45.6-19.083-12.501-12.427-19.371-28.939-19.371-46.603 0-35.787 29.12-65.312 64.971-65.675l14.048-0.053zM1041.003 445.557l-14.059 0.16v-131.616l14.059 0.171c17.333 0.213 33.579 7.029 45.557 19.083 12.459 12.416 19.349 28.917 19.349 46.603 0.053 35.776-29.141 65.227-64.907 65.6zM549.771-62.251l467.541 84.811-13.205 72.8-455.147-82.549-455.136 82.549-13.205-72.8 469.088-85.077z" />
<glyph unicode="&#x73;" glyph-name="listen" horiz-adv-x="1280" d="M886.24 165.419c0 137.792-111.712 249.504-249.472 249.504s-249.451-111.691-249.451-249.504c0-11.392 1.024-22.496 2.507-33.483l246.944-44.469 246.955 44.469c1.472 10.965 2.517 22.080 2.517 33.483zM1152.299 408.256c0.96 12.779 1.579 25.653 1.579 38.677h-0.192c-2.165 283.264-233.173 513.067-516.907 513.067-283.744 0-514.72-229.792-516.885-513.067h-0.021c0-0.171 0.011-0.32 0.011-0.48-0.011-1.173-0.085-2.336-0.085-3.499h0.171c0.096-11.648 0.64-23.179 1.493-34.624-72.683-43.136-121.461-122.347-121.461-213.035 0-110.933 72.981-204.832 173.547-236.299v292.203h58.635v-302.944c5.088-0.309 10.197-0.523 15.36-0.523 23.723 0 46.667 3.317 68.405 9.568v475.979c-21.739 6.24-44.683 9.568-68.405 9.568-5.173 0-10.272-0.213-15.36-0.523v-56.949c-3.029 19.968-4.768 40.341-4.8 61.12 1.931 224.181 184.811 405.995 409.408 405.995 225.611 0 409.195-183.435 409.493-409.003-0.171-20.107-1.899-39.829-4.864-59.179v58.005c-5.077 0.309-10.176 0.523-15.328 0.523-23.733 0-46.667-3.328-68.416-9.568v-475.979c21.749-6.261 44.683-9.568 68.416-9.568 5.141 0 10.251 0.213 15.328 0.523v302.955h58.635v-292.224c100.587 31.456 173.579 125.355 173.579 236.309 0 90.635-48.704 169.824-121.333 212.971z" />
<glyph unicode="&#x74;" glyph-name="travel" horiz-adv-x="1387" d="M1271.947 960l-13.419-13.387c-34.891-34.816-135.755-64.629-256.235-90.645-26.699 58.432-85.525 99.115-153.973 99.115-89.76 0-163.029-69.909-168.768-158.229-352.203-59.947-535.915-98.688-535.915-211.253 0-120.661 214.955-157.355 487.381-203.893 116.043-19.797 351.627-60.021 394.101-97.355-12.896-9.611-54.293-30.869-185.589-60.085-104.853-23.339-231.029-43.957-332.405-60.512-145.515-23.787-255.445-42.891-341.867-62.272l80.501 169.653c5.515 14.72 10.165 36.107 10.165 52.896 0 73.013-57.611 131.936-128.277 131.936-70.677 0-127.648-58.923-127.648-131.936 0-16.789 4.672-38.176 10.165-52.896l107.253-225.973c-6.869-1.792-13.739-3.605-20.256-5.429l17.12-61.067c107.157 30.059 268.096 56.341 410.080 79.531 401.824 65.675 611.499 105.536 611.499 225.131 0 120.651-214.933 157.333-487.392 203.829-116.224 19.851-352.384 60.192-394.315 97.568 47.275 38.549 310.315 84.171 452.576 108.299 30.251-46.112 82.336-76.619 141.589-76.619 80.821 0 148.309 56.651 165.184 132.384 165.995 35.232 292.576 77.152 338.357 143.915l24.544 35.776-104.459 31.52zM148.96 65.195l-2.4-3.115 2.091 4.416 0.309-1.301zM68.907 328.011c0 32.629 26.443 59.051 59.072 59.051 32.587 0 59.051-26.432 59.051-59.051 0-32.597-26.453-59.040-59.051-59.040-32.629 0-59.072 26.443-59.072 59.040z" />
<glyph unicode="&#x75;" glyph-name="update" horiz-adv-x="1248" d="M514.315 152.245h-129.803l237.941 391.435 237.899-391.435h-129.792v-216.224h514.293l-622.4 1023.979-622.453-1023.979h514.315z" />
<glyph unicode="&#x76;" glyph-name="view" horiz-adv-x="1280" d="M1189.696 436.437c-14.549-29.749-30.624-58.293-48.395-85.771-2.005-2.997-3.979-6.155-5.984-9.141-3.531-5.483 7.669 11.083 2.453 3.691-0.917-1.419-1.856-2.645-2.752-4.043-4.747-7.061-9.813-13.931-14.72-20.629-9.333-12.501-18.987-24.821-28.939-36.629-20.384-24.309-42.133-47.211-65.109-68.341-2.613-2.464-5.205-4.757-7.819-7.040-4.608-4.224 9.813 8.629 3.232 2.805-1.227-1.045-2.315-2.101-3.52-2.976-6.133-5.291-12.416-10.581-18.869-15.68-11.776-9.525-23.744-18.507-36.139-27.136-28.491-19.893-58.208-37.333-88.853-52.149 3.691 1.771 7.371 3.541 11.040 5.291-54.229-26.059-111.232-44.043-169.568-53.184 4.139 0.693 8.117 1.227 12.245 1.941-60.053-9.152-121.024-9.152-181.216 0 4.139-0.704 8.117-1.237 12.256-1.941-58.368 9.141-115.349 27.125-169.589 53.184 3.68-1.749 7.36-3.52 11.040-5.291-27.275 13.227-53.781 28.555-79.36 45.621-12.395 8.288-24.501 17.109-36.448 26.443-5.813 4.587-11.499 9.141-17.163 13.739-2.912 2.443-5.973 4.928-8.885 7.573-1.216 1.056-2.293 2.101-3.52 2.987-1.227 1.056-2.293 2.112-3.52 2.987 1.995-1.771 3.829-3.52 5.824-5.109-23.595 19.904-45.504 43.328-66.016 67.104-10.112 11.637-19.915 23.776-29.419 36.117-4.597 5.995-9.195 12.16-13.643 18.315-2.283 3.339-4.736 6.528-7.029 9.867-0.928 1.408-1.845 2.645-2.763 4.043-0.917 1.429-1.835 2.645-2.752 4.064 1.536-2.293 2.912-4.395 4.448-6.699-21.141 29.237-38.912 62.88-54.997 95.819 0-17.781 0-35.584 0-53.365 14.549 29.76 30.635 58.304 48.405 85.781 1.995 2.987 3.979 6.155 5.973 9.141 3.531 5.483-7.669-11.093-2.453-3.691 0.928 1.408 1.835 2.645 2.752 4.053 4.757 7.040 9.803 13.92 14.709 20.608 9.344 12.501 18.987 24.821 28.939 36.629 20.384 24.309 42.133 47.211 65.109 68.352 2.613 2.464 5.205 4.747 7.819 7.040 4.597 4.224-9.813-8.629-3.221-2.816 1.227 1.045 2.293 2.112 3.531 2.997 6.123 5.291 12.395 10.56 18.848 15.669 11.787 9.515 23.744 18.496 36.139 27.115 28.501 19.904 58.219 37.355 88.864 52.149-3.68-1.771-7.36-3.531-11.040-5.291 54.219 26.069 111.232 44.032 169.579 53.184-4.149-0.683-8.128-1.227-12.245-1.931 60.043 9.163 121.013 9.163 181.216 0-4.139 0.693-8.117 1.237-12.245 1.931 58.357-9.152 115.328-27.115 169.568-53.184-3.691 1.76-7.36 3.52-11.040 5.291 27.275-13.216 53.781-28.533 79.339-45.621 12.416-8.277 24.523-17.088 36.459-26.421 5.813-4.587 11.499-9.163 17.141-13.739 2.923-2.475 5.995-4.939 8.917-7.573 1.205-1.056 2.293-2.112 3.499-2.987 1.237-1.077 2.315-2.123 3.52-3.008-1.995 1.771-3.808 3.531-5.813 5.109 23.584-19.723 45.504-43.328 66.016-67.115 10.112-11.627 19.915-23.776 29.419-36.107 4.597-5.995 9.184-12.16 13.643-18.325 2.293-3.339 4.725-6.507 7.029-9.856 0.907-1.408 1.824-2.645 2.741-4.053 0.939-1.419 1.856-2.645 2.773-4.043-1.536 2.283-2.912 4.395-4.459 6.688 21.141-29.248 38.912-62.88 54.997-96 11.787-24.139 42.283-34.176 62.816-19.019 21.141 15.68 29.109 46.485 16.555 72.213-49.632 101.461-117.195 189.184-197.451 259.989-77.525 68.341-168.053 118.197-262.869 144.608-102.325 28.533-209.099 30.656-312.341 7.573-96.363-21.675-189.653-67.637-269.76-132.629-82.421-66.229-152.427-150.773-205.589-249.419-10.4-19.2-23.413-39.989-20.683-63.413 2.155-18.315 13.493-35.925 21.92-51.595 13.312-24.661 28.021-48.267 43.509-71.339 29.557-44.043 62.485-84.907 99.253-121.184 76.907-76.096 166.219-133.867 263.189-168.203 98.656-34.891 203.744-43.531 305.92-27.851 99.403 15.339 195.915 54.603 281.077 115.541 85.781 61.312 159.157 142.688 217.067 237.621 13.173 21.664 25.429 44.043 36.619 67.115 11.787 24.139 5.664 58.827-16.544 72.213-21.451 13.589-50.101 7.061-62.667-18.667zM388.064 502.421c0-137.771 111.701-249.493 249.451-249.493 137.771 0 249.472 111.701 249.472 249.493 0 11.392-1.024 22.507-2.496 33.483l-246.965 44.48-246.933-44.48c-1.493-10.976-2.528-22.091-2.528-33.483z" />
<glyph unicode="&#x78;" glyph-name="ignore" d="M519.349 938.667c-268.725 0-487.349-218.635-487.349-487.36 0-21.931 1.6-43.477 4.416-64.64h965.888c2.827 21.163 4.416 42.709 4.416 64.64 0 268.725-218.624 487.36-487.371 487.36zM483.787 672.459h-255.029v58.859h255.029v-58.859zM809.952 672.459h-255.040v58.859h255.029v-58.859zM63.093 280.171c69.451-184.544 247.744-316.213 456.256-316.213 208.533 0 386.827 131.669 456.267 316.213h-912.523z" />
<glyph unicode="&#x7a;" glyph-name="shareSystem" d="M864 256c-45.16 0-85.92-18.738-115.012-48.83l-431.004 215.502c1.314 8.252 2.016 16.706 2.016 25.328s-0.702 17.076-2.016 25.326l431.004 215.502c29.092-30.090 69.852-48.828 115.012-48.828 88.366 0 160 71.634 160 160s-71.634 160-160 160-160-71.634-160-160c0-8.622 0.704-17.076 2.016-25.326l-431.004-215.504c-29.092 30.090-69.852 48.83-115.012 48.83-88.366 0-160-71.636-160-160 0-88.368 71.634-160 160-160 45.16 0 85.92 18.738 115.012 48.828l431.004-215.502c-1.312-8.25-2.016-16.704-2.016-25.326 0-88.368 71.634-160 160-160s160 71.632 160 160c0 88.364-71.634 160-160 160z" />
<glyph unicode="&#xa7;" glyph-name="mapBike" horiz-adv-x="1280" d="M262.507 453.067c139.051 0 251.851-112.64 251.851-251.328 0-138.709-112.811-251.36-251.851-251.36-139.029 0.021-251.84 112.629-251.84 251.36 0 138.688 112.811 251.328 251.84 251.328zM1018.080 453.067c139.040 0 251.851-111.765 251.851-249.237 0-137.653-112.832-249.205-251.851-249.205-139.040 0-251.851 111.552-251.851 249.205 0 137.472 112.811 249.237 251.851 249.237zM321.12 502.219c-16.789 7.52-30.251 22.219-35.499 41.28-8.928 33.557 11.019 68.213 44.597 77.131l458.603 122.955c33.557 8.917 68-11.029 77.12-44.597 8.213-31.125-8.416-63.136-37.621-74.677l-31.104-54.048h243.979c23.253 0 41.963-18.891 41.963-41.973 0-23.253-18.709-41.973-41.963-41.973h-316.587c-3.851 0-7.872 0.512-11.893 1.579-3.317 1.045-6.453 2.443-9.44 4.192v0h-0.171c-6.475 3.861-11.563 9.109-15.061 15.051-3.499 6.293-5.6 13.461-5.6 20.981v0 0 0.171c0 3.136 0.352 6.304 1.067 9.44v0 0 0 0c1.045 4.203 2.603 8.235 4.683 11.733l25.045 43.541-260.437-69.781 291.733-168.448c13.483-7.872 21.003-22.037 21.003-36.555 0-6.987-1.92-14.165-5.6-20.789l-137.813-238.592c-11.541-20.128-37.259-26.933-57.355-15.392-19.936 11.531-26.933 37.259-15.211 57.365l116.661 202.187-345.099 199.221zM920.459 881.803c49.483 13.931 101.088-14.667 115.371-64.235 14.379-49.749-14.293-101.717-64.021-116.075s-101.707 14.315-116.085 64.032c-3.349 11.595-4.331 23.136-3.253 34.56l-90.859 15.808c-4.789 0.811-8.288 4.715-8.544 9.355-0.245 4.672 2.859 9.024 7.392 10.347 59.147 17.099 159.296 46.016 159.296 46.016l0.704 0.192z" />
</font>
</defs>
</svg>
