<!-- Generated by IcoMoon.io -->
<svg version="1.1" xmlns="http://www.w3.org/2000/svg" width="32" height="32" viewBox="0 0 32 32">
<title>application</title>
<path d="M22.689 2h-13.353c-0.927 0-1.669 0.742-1.669 1.669v25.995c0 0.927 0.742 1.669 1.669 1.669h13.353c0.927 0 1.669-0.742 1.669-1.669v-25.995c-0-0.927-0.742-1.669-1.67-1.669zM14.065 3.7h3.833c0.309 0 0.557 0.247 0.557 0.556s-0.247 0.556-0.557 0.556h-3.833c-0.309 0-0.556-0.247-0.556-0.556s0.248-0.556 0.556-0.556zM16.012 29.541c-0.773 0-1.422-0.618-1.422-1.391s0.618-1.391 1.422-1.391c0.773 0 1.391 0.618 1.391 1.391s-0.618 1.391-1.391 1.391zM22.194 24.936h-12.363v-18.453h12.363v18.453z"></path>
<path d="M15.667 18.5c-1.379 0-2.5-1.121-2.5-2.5s1.121-2.5 2.5-2.5 2.5 1.121 2.5 2.5-1.121 2.5-2.5 2.5zM15.667 15.167c-0.459 0-0.833 0.374-0.833 0.833s0.374 0.833 0.833 0.833 0.833-0.374 0.833-0.833c0-0.459-0.374-0.833-0.833-0.833z"></path>
</svg>
