<!-- Generated by IcoMoon.io -->
<svg version="1.1" xmlns="http://www.w3.org/2000/svg" width="40" height="32" viewBox="0 0 40 32">
<title>arrive</title>
<path d="M39.175 2.952c-1.777 0.919-3.674 1.364-5.801 1.364-1.917 0-3.87-0.375-5.808-0.835v-1.143c0-0.269-0.18-0.505-0.441-0.574-0.179-0.048-0.36-0.096-0.539-0.143-2.764-0.715-5.622-1.454-8.475-1.454-1.8 0-3.452 0.3-5.013 0.9v1.543h-3.156v23.973l3.359-0.711v3.3l-3.359 0.71v-3.185c-3.078 0.681-6.604 1.279-9.776 1.816l0.267 1.576 0.114 0.673 0.153 0.903c3.307-0.561 6.455-1.094 9.243-1.689v1.951h3.359v-2.753c1.422-0.385 2.69-0.805 3.769-1.274 0.486 2.432 2.633 4.265 5.209 4.265 2.935 0 5.314-2.379 5.314-5.313s-2.379-5.313-5.314-5.313c-1.691 0-3.196 0.794-4.169 2.026l-0.107-0.032-0.388 0.387c-0.71 0.709-2.279 1.35-4.314 1.936v-6.946c1.49-0.612 3.068-0.933 4.809-0.933 2.593 0 5.264 0.667 7.86 1.338v1.16c0 0.272 0.186 0.511 0.451 0.577 2.24 0.554 4.695 1.071 6.952 1.071 2.334 0 4.42-0.49 6.377-1.501l0.339-0.175v-17.969l-0.916 0.473zM26.431 13.163c-1.425-0.519-2.893-0.872-4.373-1.050 0 1.669 0 3.339 0 5.008-1.309-0.24-2.627-0.401-3.943-0.401-0.252 0.001-0.491 0.021-0.736 0.033 0-1.547 0-3.094 0-4.64-1.38 0.165-2.743 0.49-4.076 0.952v-5.516c1.333-0.462 2.697-0.786 4.076-0.951 0-1.714 0-3.429 0-5.142 0.245-0.013 0.483-0.035 0.735-0.035 1.301 0 2.623 0.17 3.945 0.422 0 1.585 0 3.17 0 4.755-1.555-0.187-3.125-0.187-4.679 0 0 1.838 0 3.676 0 5.515 1.555-0.188 3.125-0.188 4.679 0 0-1.838 0-3.677 0-5.515 1.48 0.178 2.948 0.531 4.373 1.050v5.515zM38.835 14.896c-1.102 0.341-2.222 0.583-3.354 0.717 0-1.758 0-3.517 0-5.275-1.491 0.18-2.997 0.18-4.486 0 0 1.758 0 3.517 0 5.275 1.49 0.18 2.994 0.18 4.485 0 0 1.694 0 3.389 0 5.083-0.68 0.106-1.374 0.175-2.105 0.175-0.914-0.001-1.837-0.091-2.762-0.229 0-1.676 0-3.354 0-5.030-1.024-0.119-2.043-0.322-3.046-0.595v-5.423c1.124 0.355 2.271 0.604 3.428 0.743 0-1.645 0-3.291 0-4.936 0.792 0.101 1.586 0.17 2.38 0.17 0.728 0 1.424-0.064 2.105-0.161 0 1.643 0 3.284 0 4.927 1.131-0.136 2.254-0.376 3.355-0.717v5.275z"></path>
</svg>
