<!-- Generated by IcoMoon.io -->
<svg version="1.1" xmlns="http://www.w3.org/2000/svg" width="32" height="32" viewBox="0 0 32 32">
<title>article</title>
<path d="M5 1.333v30.333h21.651v-30.333h-21.651zM7.545 13.408h6.065c0.253 0 0.462 0.299 0.462 0.667 0 0.367-0.208 0.665-0.462 0.665h-6.065c-0.255 0-0.462-0.299-0.462-0.665s0.207-0.667 0.462-0.667zM7.083 11.474c0-0.368 0.207-0.667 0.462-0.667h6.065c0.253 0 0.462 0.299 0.462 0.667 0 0.367-0.208 0.665-0.462 0.665h-6.065c-0.254-0-0.462-0.299-0.462-0.665zM7.545 16.009h6.065c0.253 0 0.462 0.299 0.462 0.667s-0.208 0.665-0.462 0.665h-6.065c-0.255 0-0.462-0.299-0.462-0.665 0-0.368 0.207-0.667 0.462-0.667zM7.545 18.61h6.065c0.253 0 0.462 0.299 0.462 0.667s-0.208 0.665-0.462 0.665h-6.065c-0.255 0-0.462-0.299-0.462-0.665s0.207-0.667 0.462-0.667zM15.825 28.786h-8.742v-6.534h8.743l-0 6.534zM15.825 19.896v-9.198h4.041v9.198h-4.041zM24.486 28.786h-6.064c-0.255 0-0.463-0.299-0.463-0.665 0-0.368 0.207-0.667 0.463-0.667h6.064c0.255 0 0.463 0.299 0.463 0.667s-0.208 0.665-0.463 0.665zM24.486 26.185h-6.064c-0.255 0-0.463-0.299-0.463-0.665 0-0.368 0.207-0.667 0.463-0.667h6.064c0.255 0 0.463 0.299 0.463 0.667 0 0.366-0.208 0.665-0.463 0.665zM24.486 23.584h-6.064c-0.255 0-0.463-0.299-0.463-0.665 0-0.368 0.207-0.666 0.463-0.666h6.064c0.255 0 0.463 0.299 0.463 0.666 0 0.366-0.208 0.665-0.463 0.665zM24.949 19.896h-4.042v-9.198h4.042v9.198zM24.949 9.16h-9.123v-1.56h9.123v1.56zM24.949 6.103h-18.246v-3.469h18.246v3.469z"></path>
</svg>
