<?xml version="1.0" encoding="utf-8"?>
<!-- Generator: Adobe Illustrator 15.0.2, SVG Export Plug-In . SVG Version: 6.00 Build 0)  -->
<!DOCTYPE svg PUBLIC "-//W3C//DTD SVG 1.1//EN" "http://www.w3.org/Graphics/SVG/1.1/DTD/svg11.dtd">
<svg version="1.1" id="Ebene_1" xmlns="http://www.w3.org/2000/svg" xmlns:xlink="http://www.w3.org/1999/xlink" x="0px" y="0px"
	 width="32px" height="32px" viewBox="0 0 32 32" enable-background="new 0 0 32 32" xml:space="preserve">
<title>audio</title>
<path d="M19.5,20.705c0,2.018-1.637,3.654-3.654,3.654c-2.018,0-3.654-1.637-3.654-3.654s1.636-3.654,3.654-3.654
	C17.863,17.051,19.5,18.688,19.5,20.705z M15.846,10.962c-0.673,0-1.218-0.546-1.218-1.217c0-0.674,0.545-1.218,1.218-1.218
	s1.218,0.544,1.218,1.218C17.064,10.417,16.52,10.962,15.846,10.962z M25.589,2.437H6.101c-1.344,0-2.435,1.09-2.435,2.435V29.23
	c0,1.346,1.092,2.436,2.436,2.436h19.487c1.347,0,2.437-1.09,2.437-2.436V4.872C28.025,3.527,26.934,2.437,25.589,2.437z
	 M15.846,6.09c2.017,0,3.654,1.637,3.654,3.655s-1.635,3.653-3.654,3.653s-3.654-1.635-3.654-3.653S13.827,6.09,15.846,6.09z
	 M15.846,26.795c-3.363,0-6.09-2.727-6.09-6.09c0-3.364,2.727-6.089,6.09-6.089c3.363,0,6.089,2.726,6.089,6.089
	S19.209,26.795,15.846,26.795L15.846,26.795z"/>
</svg>
