<!-- Generated by IcoMoon.io -->
<svg version="1.1" xmlns="http://www.w3.org/2000/svg" width="32" height="32" viewBox="0 0 32 32">
<title>bell</title>
<path d="M32 24.964c0-8.987-7.988-6.99-7.988-13.98 0-0.579-0.056-1.074-0.158-1.496-0.525-3.527-2.876-6.357-5.922-7.219 0.027-0.123 0.041-0.251 0.041-0.381 0-1.039-0.898-1.888-1.997-1.888s-1.997 0.849-1.997 1.888c0 0.13 0.014 0.258 0.041 0.381-3.416 0.967-5.958 4.409-6.031 8.532-0.001 0.060-0.002 0.121-0.002 0.182 0 6.99-7.988 4.993-7.988 13.98 0 2.378 5.323 4.368 12.45 4.87 0.672 1.26 1.999 2.119 3.527 2.119s2.855-0.859 3.527-2.119c7.127-0.502 12.45-2.492 12.45-4.87 0-0.007-0.001-0.014-0.001-0.021l0.047 0.021zM25.783 26.651c-1.692 0.451-3.687 0.776-5.828 0.956-0.178-2.041-1.89-3.643-3.978-3.643s-3.8 1.602-3.978 3.643c-2.141-0.18-4.136-0.505-5.828-0.956-2.329-0.621-3.442-1.316-3.85-1.688 0.408-0.372 1.521-1.067 3.85-1.688 2.708-0.723 6.19-1.12 9.806-1.12s7.098 0.398 9.806 1.12c2.329 0.621 3.442 1.316 3.85 1.688-0.407 0.371-1.521 1.066-3.849 1.688z"></path>
</svg>
