<!-- Generated by IcoMoon.io -->
<svg version="1.1" xmlns="http://www.w3.org/2000/svg" width="32" height="32" viewBox="0 0 32 32">
<title>block</title>
<path d="M8.507 29.442c2.256 1.306 4.87 2.058 7.659 2.058 2.807 0 5.438-0.762 7.703-2.084l-7.668-7.667-7.694 7.693z"></path>
<path d="M29.441 8.51l-8.372 8.372 7.825 7.824c1.644-2.442 2.604-5.38 2.604-8.539 0-2.788-0.751-5.402-2.057-7.657z"></path>
<path d="M24.749 3.467c-2.451-1.662-5.406-2.634-8.584-2.634-3.159 0-6.098 0.961-8.541 2.605l8.576 8.575 8.548-8.547z"></path>
<path d="M2.916 8.465c-1.322 2.265-2.083 4.896-2.083 7.702 0 3.177 0.971 6.132 2.632 8.582l7.868-7.867-8.417-8.417z"></path>
</svg>
