<!-- Generated by IcoMoon.io -->
<svg version="1.1" xmlns="http://www.w3.org/2000/svg" width="32" height="32" viewBox="0 0 32 32">
<title>bold</title>
<path d="M8.091 7.054l-2.704-0.451v-2.149h5.165c0.785 0 1.803-0.046 3.051-0.139 0.3-0.023 0.659-0.046 1.075-0.069s0.901-0.035 1.456-0.035c3.489 0 5.933 0.491 7.332 1.473 1.398 0.983 2.097 2.444 2.097 4.385 0 1.71-0.515 3.137-1.543 4.281s-2.375 1.843-4.039 2.097c2.288-0.023 4.085 0.497 5.391 1.56s1.959 2.542 1.959 4.437c0 2.404-0.844 4.333-2.531 5.789s-4.507 2.184-8.459 2.184c-1.040 0-1.999-0.035-2.877-0.104-0.231 0-0.624-0.017-1.179-0.052s-1.121-0.052-1.699-0.052h-5.235v-2.080l2.739-0.347v-20.731zM14.677 15.721h1.629c1.41 0 2.462-0.439 3.155-1.317s1.040-2.115 1.040-3.709c0-1.525-0.358-2.635-1.075-3.328s-1.906-1.040-3.57-1.040c-0.439 0-1.352 0.047-2.739 0.139v9.221c0.254 0.023 0.774 0.035 1.56 0.035zM16.168 28.236c1.964 0 3.385-0.462 4.264-1.387s1.317-2.265 1.317-4.021c0-1.687-0.399-2.895-1.196-3.622s-2.063-1.092-3.796-1.092c-1.941 0-3.154 0.023-3.64 0.069v9.741c0.531 0.208 1.548 0.312 3.051 0.312z"></path>
</svg>
