<!-- Generated by IcoMoon.io -->
<svg version="1.1" xmlns="http://www.w3.org/2000/svg" width="36" height="32" viewBox="0 0 36 32">
<title>chat</title>
<path d="M4.591 26.521h10.858c0.484 0 0.879 0.394 0.879 0.88v4.6l5.495-5.238c0.163-0.157 0.378-0.242 0.607-0.242h1.532c2.534 0 4.593-2.061 4.593-4.595v-3.713c0-2.537-2.063-4.601-4.6-4.601h-19.356c-2.535 0-4.6 2.064-4.6 4.601v3.713c-0.003 2.534 2.059 4.595 4.591 4.595zM5.868 20.066c0-0.233 0.092-0.456 0.256-0.618 0.153-0.152 0.379-0.24 0.622-0.24 0.003 0 0.003 0 0.004 0 0.24 0 0.463 0.087 0.619 0.244 0.161 0.16 0.258 0.388 0.258 0.614 0 0.23-0.096 0.461-0.258 0.62l-0.008 0.008c-0.314 0.324-0.914 0.327-1.241-0.010-0.161-0.154-0.253-0.38-0.253-0.617zM13.396 20.066c0-0.226 0.096-0.456 0.257-0.618 0.16-0.16 0.391-0.241 0.622-0.241s0.464 0.081 0.622 0.241c0.161 0.16 0.258 0.392 0.258 0.618 0 0.23-0.096 0.463-0.258 0.624-0.327 0.326-0.921 0.325-1.247 0-0.159-0.161-0.255-0.393-0.255-0.624zM20.923 20.066c0-0.231 0.096-0.455 0.257-0.618 0.152-0.15 0.379-0.237 0.625-0.237 0.245 0 0.471 0.087 0.627 0.241 0.158 0.155 0.251 0.384 0.251 0.614 0 0.237-0.092 0.463-0.251 0.62l-0.010 0.007c-0.314 0.32-0.911 0.327-1.243-0.005-0.16-0.16-0.257-0.392-0.257-0.623z"></path>
<path d="M24.592 11.883c0.033 0.004 0.066 0.010 0.099 0.015l0.169 0.024c0.118 0.016 0.238 0.032 0.352 0.054 0.045 0.009 0.090 0.022 0.135 0.033l0.176 0.045c0.096 0.024 0.194 0.046 0.288 0.074 0.050 0.016 0.101 0.036 0.152 0.054l0.166 0.060c0.087 0.029 0.173 0.060 0.258 0.094 0.052 0.022 0.103 0.047 0.153 0.070l0.147 0.071c0.084 0.038 0.166 0.076 0.244 0.119 0.058 0.030 0.111 0.063 0.165 0.096l0.114 0.067c0.081 0.047 0.16 0.094 0.239 0.146 0.058 0.039 0.112 0.079 0.168 0.121l0.087 0.065c0.077 0.055 0.155 0.111 0.23 0.171 0.055 0.045 0.109 0.091 0.16 0.138l0.070 0.064c0.074 0.064 0.148 0.129 0.217 0.196 0.057 0.056 0.111 0.114 0.195 0.203 0.073 0.077 0.147 0.156 0.215 0.237 0.058 0.067 0.112 0.137 0.176 0.219 0.065 0.084 0.13 0.168 0.189 0.255 0.056 0.078 0.107 0.16 0.158 0.237 0.057 0.091 0.112 0.179 0.163 0.271 0.048 0.083 0.092 0.167 0.135 0.254 0.048 0.094 0.096 0.188 0.137 0.284 0.040 0.090 0.076 0.179 0.111 0.269 0.040 0.099 0.076 0.199 0.109 0.3 0.032 0.093 0.060 0.186 0.086 0.283 0.030 0.102 0.057 0.206 0.082 0.311 0.022 0.096 0.043 0.193 0.060 0.289 0.019 0.108 0.035 0.215 0.049 0.325 0.013 0.101 0.024 0.2 0.032 0.298l0.045 0.696h0.699c2.535 0 4.6-2.063 4.6-4.6v-3.717c0-2.534-2.061-4.595-4.596-4.595h-10.855c-0.486 0-0.879-0.394-0.879-0.88v-4.6l-5.496 5.238c-0.164 0.157-0.379 0.242-0.607 0.242h-1.526c-2.535 0-4.599 2.061-4.599 4.595v1.777h16.88c0.227-0 0.44 0.011 0.649 0.032z"></path>
</svg>
