<!-- Generated by IcoMoon.io -->
<svg version="1.1" xmlns="http://www.w3.org/2000/svg" width="32" height="32" viewBox="0 0 32 32">
<title>closed</title>
<path d="M16 1c-8.468 0-15.333 6.865-15.333 15.333s6.865 15.333 15.333 15.333c8.468 0 15.333-6.865 15.333-15.333s-6.865-15.333-15.333-15.333zM3.542 16.333c0-6.881 5.577-12.458 12.458-12.458 2.716 0 5.229 0.87 7.276 2.345l-17.39 17.388c-1.475-2.047-2.344-4.559-2.344-7.275zM16 28.792c-2.697 0-5.194-0.857-7.233-2.314l17.379-17.376c1.456 2.039 2.313 4.535 2.313 7.232 0 6.881-5.578 12.458-12.458 12.458z"></path>
</svg>
