<?xml version="1.0" encoding="utf-8"?>
<!-- Generator: Adobe Illustrator 15.0.2, SVG Export Plug-In . SVG Version: 6.00 Build 0)  -->
<!DOCTYPE svg PUBLIC "-//W3C//DTD SVG 1.1//EN" "http://www.w3.org/Graphics/SVG/1.1/DTD/svg11.dtd">
<svg version="1.1" id="Ebene_1" xmlns="http://www.w3.org/2000/svg" xmlns:xlink="http://www.w3.org/1999/xlink" x="0px" y="0px"
	 width="32px" height="32px" viewBox="0 0 32 32" enable-background="new 0 0 32 32" xml:space="preserve">
<title>collection</title>
<path d="M8.044,23.579h19.957V1.667H8.044V23.579z M23.566,8.586v6.389c0,0.432-0.352,0.784-0.783,0.784h-9.521
	c-0.432,0-0.783-0.352-0.783-0.784V8.586c0-0.431,0.351-0.783,0.783-0.783h9.521C23.215,7.803,23.566,8.154,23.566,8.586z
	 M14.045,9.369h7.957v4.823h-7.957V9.369z M6.479,23.63V2.534L6.435,1.68L5.664,2.098C5.61,2.125,5.559,2.152,5.489,2.196
	C5.459,2.214,5.43,2.232,5.401,2.252C5.25,2.358,5.107,2.475,4.979,2.601C4.958,2.622,4.937,2.644,4.904,2.68
	c-0.107,0.113-0.205,0.232-0.3,0.365C4.579,3.08,4.552,3.117,4.528,3.155c-0.109,0.169-0.197,0.329-0.265,0.49
	c-0.01,0.024-0.018,0.048-0.025,0.066c-0.06,0.15-0.109,0.306-0.151,0.485C4.076,4.244,4.066,4.291,4.056,4.342
	C4.017,4.561,3.998,4.746,3.998,4.928V24.74l0.79-0.475c0.404-0.244,0.84-0.424,1.295-0.535L6.479,23.63L6.479,23.63z M4,28.404
	c0,1.798,1.463,3.263,3.262,3.263h20.74v-2.479H7.262c-0.432,0-0.783-0.353-0.783-0.783c0-0.43,0.351-0.784,0.783-0.784h20.74
	v-2.479H7.262C5.464,25.145,4,26.607,4,28.406V28.404z"/>
</svg>
