<!-- Generated by IcoMoon.io -->
<svg version="1.1" xmlns="http://www.w3.org/2000/svg" width="32" height="32" viewBox="0 0 32 32">
<title>create</title>
<path d="M16 0.333c-8.639 0-15.666 7.028-15.666 15.666 0 7.932 5.926 14.501 13.583 15.524v-7.19c0-0.090 0.006-0.176 0.015-0.26-3.598-0.922-6.265-4.192-6.265-8.073 0-4.595 3.738-8.333 8.333-8.333s8.333 3.738 8.333 8.333c0 3.939-2.748 7.246-6.427 8.11 0.007 0.072 0.011 0.146 0.011 0.223v7.211c7.737-0.949 13.749-7.556 13.749-15.545 0-8.639-7.028-15.666-15.666-15.666z"></path>
</svg>
