<!-- Generated by IcoMoon.io -->
<svg version="1.1" xmlns="http://www.w3.org/2000/svg" width="38" height="32" viewBox="0 0 38 32">
<title>dislike</title>
<path d="M18.386 4.095c-6.116-7.389-18.386-3.169-18.386 6.626 0 2.607 1.394 5.157 3.466 7.579l11.348-11.332c0.239-0.223 0.595-0.233 0.827 0.005l3.462 3.323c1.982 1.902 4.75-1.161 2.883-2.872l-3.599-3.33z"></path>
<path d="M37.728 10.726c-0.16-9.552-11.725-13.929-18.049-7.018l3.101 2.857c3.022 2.778-1.383 7.564-4.489 4.575l-3.053-2.937-10.988 10.972c0.001 0.001 0.001 0.001 0.002 0.002l-0.887 0.844c-2.16 2.054 1.055 5.174 3.001 3.236l1.064-1.051c0.004 0.003 0.007 0.007 0.011 0.010l0.403-0.419 0.295-0.292-0.008-0.007 8.993-9.348c0.536-0.551 1.384 0.26 0.848 0.816l-9.354 9.716-1.198 1.154c-2.073 1.996 1.009 5.025 2.877 3.142l1.366-1.365c0.001 0.001 0.001 0.001 0.002 0.002l0.155-0.159 0.18-0.179-0.002-0.002 9.252-9.451c0.54-0.546 1.371 0.274 0.831 0.821l-8.551 8.738-0.723 0.688c-1.928 1.833 0.942 4.618 2.679 2.888l1.286-1.27 8.14-7.843c0.556-0.535 1.369 0.312 0.811 0.842l-7.918 7.635 0.008 0.010-0.765 0.809c-1.375 1.453 0.89 3.431 2.126 2.063l1.108-1.217c6.39-4.968 17.574-11.487 17.447-19.263z"></path>
</svg>
