<!-- Generated by IcoMoon.io -->
<svg version="1.1" xmlns="http://www.w3.org/2000/svg" width="40" height="32" viewBox="0 0 40 32">
<title>download</title>
<path d="M23.826 13.972v-14.056h-6.042v14.056h-7.15l1.636 1.636 17.069-0.001 1.635-1.635z"></path>
<path d="M36.111 15.704h-6.988l-8.318 8.317-8.318-8.317h-8.598c-1.779 0-3.222 1.442-3.222 3.222v9.667c0 1.779 1.443 3.222 3.222 3.222h32.222c1.78 0 3.222-1.443 3.222-3.222v-9.667c-0-1.78-1.443-3.222-3.223-3.222zM26.243 30.164c-1.334 0-2.417-1.083-2.417-2.417s1.082-2.417 2.417-2.417c1.334 0 2.417 1.083 2.417 2.417s-1.083 2.417-2.417 2.417zM33.392 30.164c-1.334 0-2.417-1.083-2.417-2.417s1.083-2.417 2.417-2.417c1.334 0 2.417 1.083 2.417 2.417s-1.082 2.417-2.417 2.417z"></path>
</svg>
