<!-- Generated by IcoMoon.io -->
<svg version="1.1" xmlns="http://www.w3.org/2000/svg" width="32" height="32" viewBox="0 0 32 32">
<title>edited</title>
<path d="M8.028 28.521l1.762-1.762-4.55-4.55-1.762 1.762v2.072h2.478v2.478l2.072-0zM18.155 10.554c0-0.252-0.174-0.426-0.426-0.426-0.116 0-0.232 0.039-0.329 0.136l-10.495 10.494c-0.097 0.096-0.136 0.213-0.136 0.329 0 0.252 0.174 0.426 0.426 0.426 0.116 0 0.232-0.039 0.329-0.136l10.494-10.494c0.097-0.097 0.136-0.213 0.136-0.329v0zM17.109 6.836l8.055 8.055-16.109 16.109h-8.055v-8.055l16.109-16.109zM30.333 8.695c0 0.658-0.271 1.297-0.716 1.743l-3.214 3.214-8.055-8.054 3.214-3.195c0.445-0.465 1.084-0.736 1.743-0.736s1.297 0.271 1.762 0.736l4.55 4.531c0.446 0.465 0.717 1.104 0.717 1.762z"></path>
</svg>
