<!-- Generated by IcoMoon.io -->
<svg version="1.1" xmlns="http://www.w3.org/2000/svg" width="32" height="32" viewBox="0 0 32 32">
<title>edit</title>
<path d="M23.305 28.521h2.072v-2.478h2.478v-2.072l-1.762-1.762-4.55 4.55 1.762 1.762zM13.179 10.554c0 0.116 0.039 0.232 0.136 0.329l10.494 10.494c0.097 0.097 0.213 0.136 0.329 0.136 0.252 0 0.426-0.174 0.426-0.426 0-0.116-0.039-0.232-0.136-0.328l-10.495-10.494c-0.096-0.097-0.213-0.136-0.328-0.136-0.252 0-0.426 0.174-0.426 0.426v0zM30.333 22.945v8.055h-8.055l-16.109-16.109 8.055-8.055 16.109 16.109zM1.717 6.933l4.55-4.531c0.464-0.465 1.103-0.736 1.762-0.736s1.297 0.271 1.743 0.736l3.214 3.195-8.055 8.054-3.214-3.214c-0.445-0.445-0.716-1.084-0.716-1.743s0.271-1.297 0.717-1.762z"></path>
</svg>
