<?xml version="1.0" encoding="utf-8"?>
<!-- Generator: Adobe Illustrator 15.0.2, SVG Export Plug-In . SVG Version: 6.00 Build 0)  -->
<!DOCTYPE svg PUBLIC "-//W3C//DTD SVG 1.1//EN" "http://www.w3.org/Graphics/SVG/1.1/DTD/svg11.dtd">
<svg version="1.1" id="Ebene_1" xmlns="http://www.w3.org/2000/svg" xmlns:xlink="http://www.w3.org/1999/xlink" x="0px" y="0px"
	 width="32px" height="32px" viewBox="0 0 32 32" enable-background="new 0 0 32 32" xml:space="preserve">
<title>event</title>
<path d="M24.461,15.159l-0.188-0.141c-0.141-0.11-0.252-0.207-0.356-0.312c-0.097-0.093-0.21-0.224-0.319-0.372
	c-0.043-0.057-0.09-0.122-0.133-0.186c-0.214-0.32-0.369-0.67-0.473-1.042l-0.084-0.31l-0.321-0.022
	c-0.866-0.058-1.681-0.433-2.3-1.058c-0.098-0.093-0.21-0.224-0.318-0.37c-0.044-0.059-0.093-0.124-0.136-0.188
	c-0.206-0.308-0.36-0.644-0.461-1.002l-0.104-0.375l-0.387,0.048c-0.263,0.034-0.533,0.037-0.803,0.012l-0.107-0.015
	c-0.076-0.01-0.15-0.019-0.227-0.033L17.62,9.765c-0.067-0.016-0.136-0.031-0.201-0.05c-0.04-0.012-0.081-0.024-0.128-0.04
	c-0.062-0.021-0.126-0.042-0.189-0.068c-0.041-0.016-0.084-0.034-0.125-0.052c-0.062-0.027-0.121-0.055-0.183-0.086
	c-0.038-0.02-0.079-0.039-0.116-0.061c-0.061-0.034-0.117-0.07-0.21-0.128L16.39,9.231c-0.061-0.042-0.12-0.088-0.18-0.135
	l-0.367-0.295l-2.075,1.366l-0.249,0.172l0.056,0.296l0.014,0.057c0.04,0.127,0.066,0.26,0.092,0.396
	c0.005,0.029,0.013,0.059,0.028,0.13c0.028,0.183,0.042,0.364,0.042,0.54c0,1.988-1.618,3.603-3.607,3.603
	c-0.116,0-0.23-0.006-0.342-0.016L9.688,15.33c-0.075-0.01-0.149-0.019-0.222-0.033l-0.129-0.029
	c-0.066-0.016-0.132-0.031-0.198-0.05c-0.039-0.01-0.079-0.024-0.13-0.041c-0.062-0.021-0.124-0.044-0.186-0.068
	c-0.043-0.017-0.086-0.034-0.127-0.053c-0.06-0.026-0.118-0.053-0.176-0.084c-0.042-0.021-0.083-0.041-0.124-0.064
	c-0.06-0.032-0.116-0.069-0.208-0.127l-0.075-0.049c-0.061-0.041-0.119-0.086-0.179-0.133l-0.376-0.317l-5.627,3.911l23.553-2.337
	l-1.025-0.7L24.461,15.159z M27.965,26.225L0.084,28.986v2.681l27.881-2.763V26.225z M16.584,7.548
	c0.025,0.035,0.044,0.059,0.074,0.103c0.042,0.055,0.105,0.127,0.154,0.173c0.646,0.651,1.58,0.867,2.453,0.511
	c0.107-0.037,0.213-0.09,0.325-0.162c0.229-0.143,0.521-0.137,0.745,0.016c0.223,0.151,0.332,0.421,0.281,0.687
	c-0.016,0.076-0.024,0.176-0.021,0.348l0.448-0.031l-0.446,0.09c0.016,0.405,0.143,0.793,0.362,1.12
	c0.028,0.042,0.058,0.082,0.097,0.135c0.072,0.098,0.135,0.169,0.182,0.212c0.547,0.551,1.263,0.78,2.019,0.639l0.052-0.012
	c0.229-0.072,0.502-0.016,0.674,0.137c0.18,0.159,0.271,0.38,0.244,0.587l-0.004,0.08c0.004,0.434,0.133,0.855,0.37,1.216
	c0.026,0.038,0.056,0.079,0.093,0.127c0.076,0.102,0.138,0.172,0.183,0.214c0.44,0.444,0.997,0.678,1.606,0.678
	c0.346,0,0.651,0.255,0.699,0.581c0.049,0.334,0.165,0.642,0.359,0.93l0.09,0.122c0.068,0.093,0.13,0.163,0.177,0.208
	c0.073,0.074,0.15,0.143,0.229,0.204c0.238,0.188,0.504,0.321,0.779,0.391c0.205,0.059,0.399,0.084,0.601,0.084
	c1.241,0,2.253-1.009,2.253-2.25c0-0.444-0.131-0.875-0.373-1.236c-0.081-0.126-0.171-0.236-0.292-0.357
	c-0.103-0.103-0.226-0.203-0.365-0.296c-0.351-0.237-0.776-0.363-1.223-0.363c-0.345,0-0.651-0.255-0.698-0.58
	c-0.049-0.336-0.169-0.648-0.352-0.922c-0.082-0.127-0.172-0.238-0.293-0.356c-0.104-0.104-0.227-0.204-0.367-0.298
	c-0.352-0.237-0.775-0.364-1.223-0.364c-0.193,0-0.365,0.021-0.521,0.065c-0.215,0.061-0.444,0.011-0.617-0.131
	c-0.171-0.142-0.26-0.359-0.239-0.62v-0.05c0-0.444-0.129-0.875-0.371-1.237c-0.084-0.127-0.172-0.237-0.293-0.356
	c-0.104-0.103-0.226-0.204-0.367-0.299c-0.688-0.463-1.674-0.475-2.399-0.029c-0.229,0.141-0.519,0.132-0.741-0.019
	c-0.221-0.153-0.33-0.421-0.281-0.685c0.017-0.076,0.025-0.177,0.025-0.302c0-0.444-0.13-0.875-0.373-1.236
	c-0.082-0.127-0.171-0.236-0.292-0.357c-0.103-0.102-0.225-0.201-0.366-0.297c-0.352-0.238-0.774-0.363-1.223-0.363
	c-0.602,0-1.165,0.233-1.585,0.657c-0.429,0.431-0.668,0.998-0.668,1.597c0,0.431,0.122,0.847,0.367,1.223L16.584,7.548
	L16.584,7.548z M8.355,13.115c0.072,0.1,0.134,0.171,0.18,0.214c0.44,0.443,0.998,0.679,1.61,0.679c1.241,0,2.253-1.01,2.253-2.25
	c0-0.445-0.132-0.875-0.372-1.237c-0.082-0.127-0.171-0.236-0.292-0.356c-0.104-0.102-0.227-0.202-0.368-0.298
	c-0.35-0.237-0.774-0.363-1.223-0.363c-0.602,0-1.165,0.234-1.585,0.656c-0.43,0.43-0.668,0.997-0.668,1.597
	c0,0.441,0.128,0.865,0.37,1.228C8.286,13.022,8.314,13.06,8.355,13.115L8.355,13.115z M27.979,18.008l-0.303-0.162
	c-0.097-0.056-0.193-0.117-0.289-0.183l-0.062-0.039c-0.025-0.017-0.051-0.032-0.074-0.05c-0.107-0.082-0.211-0.172-0.311-0.268
	c-0.021-0.019-0.043-0.039-0.07-0.057l-0.15-0.15L0.082,19.742v7.884l27.882-2.765l-0.001-6.588L27.979,18.008L27.979,18.008z"/>
</svg>
