<!-- Generated by IcoMoon.io -->
<svg version="1.1" xmlns="http://www.w3.org/2000/svg" width="34" height="32" viewBox="0 0 34 32">
<title>group</title>
<path d="M7.563 7.095c0.004-0.041 0.012-0.082 0.020-0.121l0.035-0.224c0.016-0.114 0.031-0.227 0.055-0.338l0.113-0.533h-1.483c-2.259 0-4.096 1.838-4.096 4.096v2.896c0 1.716 0.765 3.316 2.101 4.389v0l0.033 0.022c0.126 0.1 0.256 0.196 0.389 0.285 0.042 0.029 0.085 0.052 0.128 0.077l0.084 0.050c0.078 0.049 0.155 0.094 0.235 0.138 0.055 0.030 0.112 0.057 0.17 0.084l0.092 0.045c0.068 0.034 0.136 0.066 0.204 0.095 0.066 0.028 0.132 0.053 0.201 0.078l0.069 0.023c0.072 0.027 0.144 0.053 0.219 0.077 0.076 0.022 0.156 0.047 0.259 0.074 0.079 0.021 0.16 0.043 0.238 0.063 0.089 0.020 0.174 0.035 0.264 0.049 0.083 0.015 0.165 0.028 0.248 0.039 0.087 0.010 0.174 0.021 0.26 0.026s0.175 0.011 0.264 0.015c0.054 0.001 0.109 0.002 0.164 0.002 0.025 0 0.051 0 0.077-0.001l0.262-0.010 0.101-0.063c0.123-0.079 0.248-0.15 0.381-0.229l0.106-0.063c0.191-0.106 0.387-0.204 0.585-0.294l0.465-0.258-0.356-0.493c-0.119-0.152-0.236-0.305-0.344-0.464-0.035-0.049-0.069-0.102-0.104-0.153l-0.035-0.049c-0.081-0.122-0.159-0.246-0.233-0.373l-0.039-0.067c-0.023-0.038-0.047-0.077-0.070-0.118-0.097-0.176-0.187-0.355-0.272-0.536l-0.083-0.187c-0.071-0.16-0.135-0.32-0.197-0.483l-0.049-0.132c-0.071-0.201-0.132-0.405-0.187-0.609l-0.043-0.167c-0.049-0.195-0.092-0.393-0.128-0.59l-0.014-0.068c-0.036-0.22-0.064-0.441-0.085-0.662l-0.014-0.161c-0.017-0.228-0.029-0.454-0.029-0.685v-3.752c-0.003-0.239 0.011-0.489 0.038-0.739z"></path>
<path d="M4.666 28.538v-3.482c0-0.195 0.009-0.389 0.025-0.584l0.015-0.167c0.014-0.146 0.033-0.29 0.054-0.434l0.023-0.158c0.034-0.187 0.070-0.374 0.126-0.59l0.014-0.051c0.041-0.158 0.089-0.314 0.138-0.469l0.057-0.164c0.048-0.139 0.102-0.276 0.159-0.413l0.052-0.128c0.076-0.174 0.158-0.344 0.245-0.512l0.060-0.104c0.072-0.132 0.149-0.266 0.229-0.396l0.091-0.145c0.086-0.132 0.176-0.262 0.27-0.389l0.438-0.589-0.63-0.17c-0.049-0.014-0.098-0.031-0.147-0.048l-0.197-0.062c-0.063-0.020-0.129-0.038-0.191-0.063-0.061-0.021-0.118-0.047-0.179-0.071l-0.174-0.071c-0.064-0.026-0.13-0.051-0.192-0.079-0.057-0.026-0.113-0.055-0.168-0.085l-0.176-0.090c-0.061-0.030-0.122-0.062-0.183-0.094-0.056-0.032-0.111-0.066-0.166-0.103l-0.154-0.095c-0.063-0.037-0.123-0.075-0.209-0.132l-0.174-0.118-0.201 0.060c-2.073 0.616-3.519 2.557-3.519 4.723v2.782c0 1.372 1.115 2.49 2.485 2.49h2.181z"></path>
<path d="M12.312 17.431l0.054 0.042c0.022 0.019 0.046 0.037 0.1 0.076 0.959 0.742 2.105 1.238 3.313 1.437 0.392 0.067 0.807 0.103 1.233 0.103 1.711 0 3.381-0.59 4.703-1.659 1.777-1.425 2.797-3.556 2.797-5.842v-3.753c0-3.034-2.469-5.502-5.505-5.502h-3.994c-2.124 0-4.077 1.241-4.975 3.161-0.35 0.73-0.526 1.518-0.526 2.34v3.752c0.001 2.286 1.020 4.415 2.8 5.844z"></path>
<path d="M26.478 7.835v3.752c0 0.229-0.012 0.457-0.029 0.684l-0.015 0.163c-0.021 0.222-0.048 0.443-0.085 0.662l-0.014 0.069c-0.035 0.197-0.078 0.394-0.129 0.589l-0.042 0.167c-0.056 0.204-0.118 0.408-0.187 0.609l-0.049 0.131c-0.063 0.162-0.126 0.326-0.197 0.482l-0.082 0.187c-0.085 0.182-0.176 0.362-0.273 0.537-0.023 0.040-0.046 0.079-0.070 0.118l-0.039 0.066c-0.076 0.126-0.151 0.251-0.232 0.373l-0.034 0.049c-0.034 0.051-0.066 0.104-0.103 0.153-0.108 0.157-0.226 0.312-0.344 0.461l-0.357 0.493 0.465 0.257c0.199 0.091 0.394 0.188 0.585 0.295l0.107 0.063c0.132 0.076 0.257 0.148 0.381 0.228l0.1 0.064 0.264 0.011c0.026 0.001 0.051 0.001 0.077 0.001 0.054 0 0.109-0.001 0.163-0.002 0.090-0.003 0.176-0.007 0.265-0.014s0.174-0.017 0.259-0.026c0.084-0.011 0.166-0.024 0.248-0.039 0.090-0.016 0.176-0.032 0.264-0.051 0.079-0.019 0.16-0.038 0.238-0.061 0.104-0.028 0.182-0.049 0.259-0.074 0.076-0.024 0.146-0.050 0.219-0.077l0.068-0.025c0.067-0.024 0.132-0.049 0.199-0.076 0.068-0.029 0.137-0.063 0.205-0.094l0.091-0.046c0.058-0.026 0.115-0.053 0.17-0.084 0.080-0.044 0.158-0.090 0.235-0.137l0.084-0.050c0.043-0.023 0.087-0.049 0.128-0.076 0.135-0.090 0.265-0.186 0.391-0.285l0.033-0.022c1.335-1.075 2.101-2.674 2.101-4.389v-2.897c0-2.258-1.838-4.098-4.096-4.098h-1.482l0.113 0.535c0.023 0.111 0.038 0.224 0.054 0.337l0.035 0.225c0.007 0.040 0.015 0.080 0.019 0.12 0.026 0.25 0.040 0.499 0.039 0.74z"></path>
<path d="M29.334 28.54h2.181c1.372 0 2.485-1.118 2.485-2.49v-2.782c0-2.166-1.446-4.107-3.518-4.722l-0.202-0.060-0.173 0.119c-0.088 0.058-0.148 0.092-0.209 0.132l-0.155 0.095c-0.055 0.035-0.11 0.070-0.167 0.103-0.061 0.034-0.12 0.064-0.183 0.094l-0.176 0.090c-0.055 0.029-0.111 0.058-0.168 0.084-0.063 0.029-0.129 0.053-0.193 0.079l-0.174 0.071c-0.061 0.024-0.118 0.049-0.18 0.071s-0.128 0.042-0.19 0.063l-0.196 0.062c-0.049 0.016-0.098 0.034-0.146 0.048l-0.63 0.17 0.437 0.589c0.093 0.128 0.187 0.257 0.271 0.389l0.090 0.145c0.080 0.13 0.159 0.262 0.229 0.396l0.060 0.104c0.088 0.169 0.17 0.34 0.244 0.513l0.051 0.128c0.057 0.137 0.11 0.274 0.16 0.413l0.056 0.163c0.049 0.156 0.097 0.313 0.138 0.469l0.014 0.050c0.055 0.215 0.092 0.402 0.126 0.59l0.023 0.158c0.021 0.145 0.040 0.288 0.054 0.434l0.015 0.168c0.016 0.194 0.023 0.388 0.023 0.584v3.482l0.002-0.001z"></path>
<path d="M22.479 18.384l-0.23 0.16c-0.159 0.111-0.323 0.215-0.488 0.313l-0.142 0.078c-0.127 0.074-0.257 0.146-0.387 0.215l-0.209 0.101c-0.113 0.053-0.226 0.108-0.34 0.158-0.076 0.035-0.152 0.063-0.229 0.094-0.112 0.046-0.226 0.090-0.34 0.129-0.077 0.028-0.158 0.055-0.238 0.081-0.117 0.036-0.236 0.073-0.354 0.104l-0.231 0.064c-0.132 0.034-0.267 0.063-0.399 0.090l-0.2 0.042c-0.2 0.036-0.404 0.070-0.605 0.092-0.58 0.065-1.198 0.076-1.799 0.025l-0.244-0.028c-0.164-0.017-0.328-0.036-0.493-0.063-0.063-0.009-0.124-0.022-0.185-0.035l-0.099-0.020c-0.148-0.029-0.298-0.061-0.445-0.097-0.089-0.021-0.175-0.047-0.289-0.076-0.143-0.040-0.285-0.083-0.425-0.131-0.096-0.032-0.189-0.065-0.286-0.1-0.139-0.051-0.273-0.107-0.445-0.18-0.081-0.035-0.16-0.070-0.241-0.104-0.137-0.063-0.271-0.133-0.405-0.205l-0.082-0.042c-0.057-0.030-0.114-0.061-0.171-0.090-0.146-0.082-0.286-0.172-0.428-0.263l-0.462-0.299-0.319 0.089c-0.051 0.012-0.104 0.025-0.16 0.044-2.484 0.828-4.225 3.049-4.431 5.658-0.015 0.174-0.021 0.348-0.021 0.521l0.001 3.697 0.006 0.063c0.035 1.771 1.509 3.21 3.285 3.21h14.163c1.813 0 3.292-1.477 3.292-3.292v-3.673c0-2.863-1.915-5.428-4.655-6.242l-0.274-0.085z"></path>
</svg>
