<?xml version="1.0" encoding="utf-8"?>
<!-- Generator: Adobe Illustrator 15.0.2, SVG Export Plug-In . SVG Version: 6.00 Build 0)  -->
<!DOCTYPE svg PUBLIC "-//W3C//DTD SVG 1.1//EN" "http://www.w3.org/Graphics/SVG/1.1/DTD/svg11.dtd">
<svg version="1.1" id="Ebene_1" xmlns="http://www.w3.org/2000/svg" xmlns:xlink="http://www.w3.org/1999/xlink" x="0px" y="0px"
	 width="34px" height="32px" viewBox="0 0 34 32" enable-background="new 0 0 34 32" xml:space="preserve">
<title>group</title>
<path d="M7.563,7.095c0.004-0.041,0.012-0.082,0.02-0.121L7.618,6.75c0.016-0.114,0.031-0.227,0.055-0.338l0.113-0.533H6.303
	c-2.259,0-4.096,1.838-4.096,4.096v2.896c0,1.716,0.765,3.316,2.101,4.389l0,0l0.033,0.022c0.126,0.1,0.256,0.196,0.389,0.284
	c0.042,0.029,0.085,0.053,0.128,0.078l0.084,0.049c0.078,0.05,0.155,0.095,0.235,0.139c0.055,0.029,0.112,0.057,0.17,0.084
	l0.092,0.045c0.068,0.034,0.136,0.066,0.204,0.096c0.066,0.027,0.132,0.053,0.201,0.077l0.069,0.023
	c0.072,0.026,0.144,0.053,0.219,0.077c0.076,0.021,0.156,0.047,0.259,0.074c0.079,0.021,0.16,0.043,0.238,0.062
	c0.089,0.02,0.174,0.035,0.264,0.049c0.083,0.016,0.165,0.028,0.248,0.039c0.087,0.01,0.174,0.021,0.26,0.025
	c0.086,0.006,0.175,0.012,0.264,0.016c0.054,0.001,0.109,0.002,0.164,0.002c0.025,0,0.051,0,0.077-0.001l0.262-0.01l0.101-0.063
	c0.123-0.078,0.248-0.15,0.381-0.229l0.106-0.063c0.191-0.106,0.387-0.204,0.585-0.294l0.465-0.258L9.45,17.091
	c-0.119-0.151-0.236-0.305-0.344-0.464c-0.035-0.049-0.069-0.102-0.104-0.153l-0.035-0.049c-0.081-0.122-0.159-0.246-0.233-0.373
	l-0.039-0.067c-0.023-0.038-0.047-0.077-0.07-0.118c-0.097-0.176-0.187-0.355-0.272-0.536L8.27,15.144
	c-0.071-0.16-0.135-0.32-0.197-0.483l-0.049-0.132c-0.071-0.201-0.132-0.405-0.187-0.609l-0.043-0.167
	c-0.049-0.195-0.092-0.393-0.128-0.59l-0.014-0.068c-0.036-0.22-0.064-0.441-0.085-0.662l-0.014-0.161
	c-0.017-0.228-0.029-0.454-0.029-0.685V7.835C7.521,7.596,7.535,7.346,7.563,7.095L7.563,7.095z M4.666,28.538v-3.481
	c0-0.195,0.009-0.39,0.025-0.584l0.015-0.168c0.014-0.146,0.033-0.289,0.054-0.434l0.023-0.158c0.034-0.188,0.07-0.374,0.126-0.59
	l0.014-0.051c0.041-0.158,0.089-0.314,0.138-0.469l0.057-0.164c0.048-0.14,0.102-0.276,0.159-0.414l0.052-0.127
	c0.076-0.174,0.158-0.344,0.245-0.513l0.06-0.104c0.072-0.132,0.149-0.267,0.229-0.396l0.091-0.145
	c0.086-0.132,0.176-0.263,0.27-0.39l0.438-0.588l-0.63-0.171c-0.049-0.014-0.098-0.03-0.147-0.048l-0.197-0.062
	c-0.063-0.02-0.129-0.037-0.191-0.062c-0.061-0.021-0.118-0.047-0.179-0.07l-0.174-0.072c-0.064-0.025-0.13-0.051-0.192-0.078
	c-0.057-0.026-0.113-0.055-0.168-0.085l-0.176-0.091c-0.061-0.029-0.122-0.062-0.183-0.094c-0.056-0.031-0.111-0.065-0.166-0.103
	l-0.154-0.095c-0.063-0.037-0.123-0.075-0.209-0.133l-0.174-0.117l-0.201,0.06c-2.073,0.616-3.519,2.558-3.519,4.724v2.781
	c0,1.372,1.115,2.49,2.485,2.49h2.181L4.666,28.538z M12.312,17.432l0.054,0.041c0.022,0.02,0.046,0.037,0.1,0.076
	c0.959,0.742,2.105,1.238,3.313,1.438c0.392,0.066,0.807,0.103,1.233,0.103c1.71,0,3.38-0.59,4.703-1.659
	c1.777-1.425,2.797-3.556,2.797-5.842V7.835c0-3.034-2.469-5.502-5.505-5.502h-3.994c-2.124,0-4.077,1.241-4.975,3.161
	c-0.35,0.73-0.526,1.518-0.526,2.34v3.752c0.001,2.286,1.02,4.415,2.8,5.844V17.432z M26.479,7.835v3.752
	c0,0.229-0.013,0.457-0.029,0.684l-0.016,0.163c-0.021,0.222-0.047,0.443-0.084,0.662l-0.015,0.069
	c-0.035,0.197-0.078,0.394-0.129,0.589l-0.042,0.167c-0.057,0.204-0.118,0.408-0.188,0.609l-0.049,0.131
	c-0.062,0.162-0.126,0.326-0.197,0.482l-0.082,0.187c-0.084,0.182-0.176,0.362-0.272,0.537c-0.022,0.04-0.046,0.079-0.069,0.118
	l-0.039,0.066c-0.076,0.126-0.151,0.251-0.232,0.373l-0.034,0.049c-0.034,0.05-0.065,0.104-0.103,0.153
	c-0.108,0.157-0.227,0.312-0.344,0.461l-0.357,0.493l0.465,0.257c0.199,0.091,0.395,0.188,0.585,0.295l0.106,0.063
	c0.133,0.076,0.258,0.147,0.381,0.228l0.101,0.063l0.265,0.012c0.025,0.001,0.051,0.001,0.076,0.001
	c0.055,0,0.109-0.001,0.163-0.002c0.091-0.003,0.177-0.007,0.265-0.015c0.09-0.006,0.174-0.017,0.26-0.025
	c0.084-0.012,0.166-0.023,0.248-0.039c0.09-0.016,0.176-0.032,0.264-0.051c0.079-0.02,0.16-0.038,0.238-0.061
	c0.104-0.029,0.182-0.05,0.259-0.074c0.076-0.024,0.146-0.051,0.219-0.078l0.068-0.024c0.067-0.024,0.132-0.049,0.198-0.075
	c0.068-0.029,0.138-0.063,0.205-0.095l0.092-0.046c0.058-0.025,0.115-0.053,0.17-0.084c0.08-0.044,0.158-0.09,0.234-0.137
	l0.084-0.051c0.043-0.022,0.088-0.049,0.129-0.076c0.135-0.09,0.265-0.186,0.391-0.284l0.033-0.022
	c1.334-1.075,2.101-2.674,2.101-4.389V9.974c0-2.258-1.838-4.098-4.096-4.098h-1.482l0.113,0.535
	c0.022,0.111,0.038,0.224,0.054,0.337l0.035,0.225c0.007,0.04,0.016,0.08,0.02,0.12c0.025,0.25,0.039,0.499,0.039,0.74V7.835z
	 M29.334,28.54h2.182c1.371,0,2.484-1.118,2.484-2.49v-2.782c0-2.166-1.445-4.106-3.518-4.722l-0.203-0.06l-0.172,0.119
	c-0.088,0.058-0.148,0.092-0.209,0.131l-0.155,0.096c-0.056,0.035-0.11,0.07-0.167,0.104c-0.061,0.033-0.12,0.063-0.184,0.094
	l-0.176,0.09c-0.055,0.029-0.111,0.058-0.168,0.084c-0.062,0.029-0.129,0.053-0.193,0.079l-0.174,0.071
	c-0.061,0.023-0.117,0.049-0.18,0.07s-0.128,0.042-0.189,0.062l-0.196,0.062c-0.05,0.016-0.099,0.034-0.146,0.049l-0.631,0.17
	l0.438,0.588c0.093,0.129,0.187,0.258,0.271,0.39l0.091,0.146c0.079,0.129,0.158,0.262,0.229,0.396l0.06,0.104
	c0.089,0.168,0.171,0.34,0.244,0.512l0.052,0.129c0.057,0.137,0.109,0.273,0.159,0.412l0.056,0.164
	c0.049,0.156,0.098,0.312,0.139,0.469l0.014,0.05c0.055,0.215,0.092,0.401,0.126,0.59l0.022,0.158
	c0.021,0.146,0.041,0.288,0.055,0.435l0.016,0.168c0.016,0.193,0.022,0.388,0.022,0.584v3.481L29.334,28.54L29.334,28.54z
	 M22.479,18.384l-0.229,0.16c-0.159,0.11-0.323,0.215-0.487,0.313l-0.143,0.078c-0.127,0.073-0.258,0.146-0.387,0.215l-0.209,0.101
	c-0.113,0.054-0.227,0.108-0.34,0.158c-0.076,0.034-0.152,0.063-0.229,0.094c-0.112,0.046-0.226,0.09-0.341,0.129
	c-0.076,0.028-0.157,0.056-0.237,0.081c-0.117,0.036-0.235,0.073-0.354,0.104l-0.23,0.064c-0.132,0.034-0.268,0.062-0.398,0.09
	l-0.201,0.043c-0.199,0.035-0.403,0.069-0.604,0.092c-0.58,0.064-1.198,0.076-1.799,0.024l-0.244-0.028
	c-0.164-0.017-0.328-0.035-0.493-0.062c-0.063-0.01-0.124-0.021-0.185-0.035l-0.099-0.02c-0.148-0.029-0.298-0.062-0.445-0.098
	c-0.089-0.021-0.175-0.047-0.289-0.076c-0.143-0.039-0.285-0.082-0.425-0.131c-0.096-0.031-0.189-0.064-0.286-0.1
	c-0.139-0.051-0.273-0.107-0.445-0.18c-0.081-0.035-0.16-0.07-0.241-0.104c-0.137-0.063-0.271-0.133-0.405-0.205l-0.082-0.042
	c-0.057-0.029-0.114-0.061-0.171-0.09c-0.146-0.082-0.286-0.172-0.428-0.264l-0.462-0.299l-0.319,0.09
	c-0.051,0.012-0.104,0.024-0.16,0.043c-2.484,0.828-4.225,3.05-4.431,5.658c-0.015,0.174-0.021,0.349-0.021,0.521l0.001,3.697
	l0.006,0.062c0.035,1.771,1.509,3.211,3.285,3.211h14.162c1.813,0,3.293-1.478,3.293-3.293v-3.673c0-2.862-1.916-5.428-4.655-6.241
	l-0.274-0.086L22.479,18.384z"/>
</svg>
