<?xml version="1.0" encoding="utf-8"?>
<!-- Generator: Adobe Illustrator 15.0.2, SVG Export Plug-In . SVG Version: 6.00 Build 0)  -->
<!DOCTYPE svg PUBLIC "-//W3C//DTD SVG 1.1//EN" "http://www.w3.org/Graphics/SVG/1.1/DTD/svg11.dtd">
<svg version="1.1" id="Ebene_1" xmlns="http://www.w3.org/2000/svg" xmlns:xlink="http://www.w3.org/1999/xlink" x="0px" y="0px"
	 width="32px" height="32px" viewBox="0 0 32 32" enable-background="new 0 0 32 32" xml:space="preserve">
<title>image</title>
<path fill="#FFFFFF" d="M1.808,10.502L1.808,10.502c0.318,0.326,0.743,0.506,1.195,0.506h2.276V7.667H3.003
	c-0.448,0-0.868,0.173-1.182,0.488H1.82C1.508,8.467,1.336,8.883,1.333,9.331l0.001,0.052C1.346,9.802,1.513,10.197,1.808,10.502z
	 M28.827,12.325H3.625c-1.266,0-2.292,1.044-2.292,2.332v14.677c0,1.288,1.027,2.333,2.292,2.333h25.202
	c1.267,0,2.293-1.045,2.293-2.333V14.657C31.12,13.369,30.094,12.325,28.827,12.325z M16.298,28.07c-3.34,0-6.048-2.707-6.048-6.047
	s2.707-6.048,6.048-6.048s6.048,2.708,6.048,6.048C22.346,25.361,19.639,28.07,16.298,28.07z M16.227,17.677
	c2.385,0,4.319,1.935,4.319,4.319s-1.934,4.318-4.319,4.318s-4.319-1.934-4.319-4.318S13.842,17.677,16.227,17.677z"/>
</svg>
