<!-- Generated by IcoMoon.io -->
<svg version="1.1" xmlns="http://www.w3.org/2000/svg" width="38" height="32" viewBox="0 0 38 32">
<title>like</title>
<path d="M26.382 0c-2.919 0-5.648 1.145-7.745 3.233-1.97-1.659-4.408-2.556-7.041-2.556-5.537 0-11.264 4.174-11.264 11.16 0 2.268 0.901 4.567 2.746 6.996-0.016 0.019-0.035 0.036-0.050 0.055l-0.054 0.054 0.007 0.006c-0.779 1.012-0.965 2.269-0.487 3.465 0.572 1.431 2.003 2.435 3.49 2.451 0.032 0.334 0.114 0.669 0.248 1 0.567 1.407 1.98 2.39 3.436 2.39 0.552 0 1.090-0.139 1.575-0.401 0.574 1.284 1.894 2.17 3.258 2.17 0.238 0 0.473-0.027 0.702-0.078 0.018 0.048 0.037 0.096 0.057 0.144 0.493 1.143 1.642 1.911 2.858 1.911 0.816 0 1.576-0.344 2.138-0.965l0.916-1.006c0.942-0.728 2.002-1.498 3.122-2.312 6.007-4.363 13.482-9.793 13.371-16.569-0.117-6.977-5.828-11.147-11.283-11.147zM11.597 4.010c2.321 0 4.431 1.004 5.94 2.828l3.45 3.211c0.008 0.008 0.016 0.015 0.021 0.021-0.029 0.102-0.181 0.257-0.258 0.264-0.001 0-0.043-0.013-0.12-0.087l-3.153-3.027c-0.414-0.412-0.961-0.639-1.543-0.639-0.148 0-0.294 0.016-0.437 0.045l-0.096-0.093-0.164 0.164c-0.302 0.101-0.584 0.265-0.824 0.49l-9.088 9.074c-1.115-1.603-1.66-3.061-1.66-4.423 0-4.9 4.032-7.827 7.931-7.827zM6.131 21.459c-0.027 0.027-0.077 0.072-0.11 0.072-0.117 0-0.349-0.149-0.431-0.354-0.027-0.069-0.051-0.128 0.12-0.29l1.827-1.739-0.020-0.031 7.929-7.917 0.323 0.311-8.048 8.364-1.589 1.583zM23.053 24.497l3.109-2.998c0.655-0.623 0.865-1.56 0.534-2.388-0.338-0.845-1.167-1.413-2.063-1.413-0.56 0-1.098 0.22-1.517 0.622l-7.462 7.191-1.182 1.166c-0.001 0.001-0.001 0.001-0.002 0.002-0.070-0.032-0.16-0.12-0.187-0.186 0.011-0.015 0.030-0.039 0.063-0.070l0.662-0.631 7.858-8.028c0.635-0.643 0.816-1.552 0.473-2.374-0.345-0.826-1.169-1.381-2.050-1.381-0.581 0-1.132 0.234-1.559 0.665l-8.464 8.647-1.548 1.55c-0.035 0.035-0.059 0.049-0.052 0.050-0.076-0-0.274-0.128-0.344-0.303-0.025-0.061-0.042-0.105 0.103-0.246l1.097-1.056 8.602-8.933c0.111-0.115 0.208-0.239 0.29-0.369 0.261 0.050 0.527 0.075 0.797 0.075 1.875 0 3.682-1.278 4.395-3.109 0.678-1.741 0.246-3.549-1.155-4.836l-1.492-1.375c1.295-0.934 2.819-1.435 4.421-1.435 3.843 0 7.868 2.944 7.95 7.87 0.079 4.82-6.039 9.478-11.279 13.294z"></path>
</svg>
