<?xml version="1.0" encoding="utf-8"?>
<!-- Generator: Adobe Illustrator 15.0.2, SVG Export Plug-In . SVG Version: 6.00 Build 0)  -->
<!DOCTYPE svg PUBLIC "-//W3C//DTD SVG 1.1//EN" "http://www.w3.org/Graphics/SVG/1.1/DTD/svg11.dtd">
<svg version="1.1" id="Ebene_1" xmlns="http://www.w3.org/2000/svg" xmlns:xlink="http://www.w3.org/1999/xlink" x="0px" y="0px"
	 width="32px" height="32px" viewBox="0 0 32 32" enable-background="new 0 0 32 32" xml:space="preserve">
<title>link</title>
<path d="M13.7,19.96c-0.426,0-0.852-0.161-1.177-0.485c-3.044-3.044-3.044-8,0-11.043l6.144-6.144C20.143,0.812,22.104,0,24.188,0
	c2.086,0,4.047,0.812,5.521,2.287c3.045,3.044,3.045,7.998,0,11.042L26.9,16.138c-0.65,0.649-1.703,0.649-2.354,0
	c-0.648-0.65-0.648-1.704,0-2.354l2.809-2.809c1.748-1.747,1.748-4.589,0-6.336c-0.846-0.846-1.971-1.312-3.168-1.312
	c-1.194,0-2.32,0.466-3.168,1.312l-6.144,6.144c-1.746,1.747-1.746,4.589,0,6.336c0.65,0.65,0.65,1.704,0,2.354
	C14.552,19.798,14.126,19.959,13.7,19.96L13.7,19.96z M7.804,32c-2.085,0-4.046-0.812-5.521-2.287
	c-3.044-3.044-3.044-7.998,0-11.042l2.809-2.808c0.649-0.65,1.703-0.65,2.353,0c0.65,0.649,0.65,1.704,0,2.354l-2.809,2.809
	c-1.746,1.746-1.746,4.589,0,6.336c0.847,0.846,1.972,1.312,3.168,1.312c1.196,0,2.322-0.466,3.168-1.312l6.144-6.145
	c1.747-1.746,1.747-4.589,0-6.336c-0.65-0.65-0.65-1.704,0-2.353c0.649-0.649,1.704-0.65,2.353,0
	c3.045,3.044,3.045,7.998,0.002,11.042l-6.146,6.144C11.851,31.189,9.89,32.001,7.804,32L7.804,32z"/>
</svg>
