<!-- Generated by IcoMoon.io -->
<svg version="1.1" xmlns="http://www.w3.org/2000/svg" width="40" height="32" viewBox="0 0 40 32">
<title>listen</title>
<path d="M27.695 24.831c0-4.306-3.491-7.797-7.796-7.797s-7.795 3.49-7.795 7.797c0 0.356 0.032 0.703 0.078 1.046l7.717 1.39 7.717-1.39c0.046-0.343 0.079-0.69 0.079-1.046z"></path>
<path d="M36.009 17.242c0.030-0.399 0.049-0.802 0.049-1.209h-0.006c-0.068-8.852-7.287-16.033-16.153-16.033s-16.085 7.181-16.153 16.033h-0.001c0 0.005 0 0.010 0 0.015-0 0.037-0.003 0.073-0.003 0.109h0.005c0.003 0.364 0.020 0.724 0.047 1.082-2.271 1.348-3.796 3.823-3.796 6.657 0 3.467 2.281 6.401 5.423 7.384v-9.131h1.832v9.467c0.159 0.010 0.319 0.016 0.48 0.016 0.741 0 1.458-0.104 2.138-0.299v-14.874c-0.679-0.195-1.396-0.299-2.138-0.299-0.162 0-0.321 0.007-0.48 0.016v1.78c-0.095-0.624-0.149-1.261-0.15-1.91 0.060-7.006 5.775-12.687 12.794-12.687 7.050 0 12.787 5.732 12.797 12.781-0.005 0.628-0.059 1.245-0.152 1.849v-1.813c-0.159-0.010-0.318-0.016-0.479-0.016-0.742 0-1.458 0.104-2.138 0.299v14.874c0.68 0.196 1.396 0.299 2.138 0.299 0.161 0 0.32-0.007 0.479-0.016v-9.467h1.832v9.132c3.143-0.983 5.424-3.917 5.424-7.385 0-2.832-1.522-5.307-3.792-6.655z"></path>
</svg>
