<!-- Generated by IcoMoon.io -->
<svg version="1.1" xmlns="http://www.w3.org/2000/svg" width="33" height="32" viewBox="0 0 33 32">
<title>map</title>
<path d="M14.277 7.986c0-0.846 0.187-1.635 0.507-2.357l-6.554-2.629v24.14l11.316 4.526v-11.363l-4.821-10.007c-0.243-0.642-0.448-1.58-0.448-2.31z"></path>
<path d="M0 5.457v24.14l6.142-2.457v-24.14z"></path>
<path d="M26.409 5.617c0.327 0.726 0.519 1.518 0.519 2.369 0 0.73-0.204 1.668-0.448 2.31l-4.845 10.054v11.316l11.317-4.526v-24.14l-6.543 2.617z"></path>
<path d="M25.495 7.39c0-2.798-2.208-5.057-4.916-5.057s-4.892 2.259-4.892 5.057c0 0.643 0.179 1.462 0.389 2.027l4.515 9.512 4.514-9.512c0.212-0.565 0.39-1.384 0.39-2.027zM20.591 9.5c-1.25 0-2.264-1.013-2.264-2.263s1.014-2.263 2.264-2.263c1.249 0 2.263 1.013 2.263 2.263s-1.014 2.263-2.263 2.263z"></path>
</svg>
