<!-- Generated by IcoMoon.io -->
<svg version="1.1" xmlns="http://www.w3.org/2000/svg" width="37" height="32" viewBox="0 0 37 32">
<title>mapAeroNautical</title>
<path d="M27.664 26.313c-0.077-0.196-0.254-0.333-0.464-0.359l-13.829-1.729v-20.016c0-0.484-0.391-0.875-0.875-0.875s-0.875 0.391-0.875 0.875v19.797l-10.307-1.289c-0.211-0.027-0.419 0.066-0.542 0.238-0.122 0.173-0.139 0.4-0.044 0.59l3.436 6.872c0.279 0.562 0.854 0.916 1.481 0.916h17.238c0.626 0 1.219-0.277 1.619-0.758l3.069-3.683c0.135-0.163 0.17-0.385 0.093-0.58z"></path>
<path d="M10.419 4.928l0.327-0.719-4.056 4.057c-3.566 3.565-5.569 8.401-5.569 13.443l9.625 0.875c-2.767-5.535-2.887-12.022-0.327-17.656z"></path>
<path d="M21.246 24.333c0-5.005-2.161-9.765-5.926-13.061l-1.073-0.939 0.285 0.761c1.501 4.004 1.4 8.434-0.285 12.365l7 0.875z"></path>
<path d="M36.563 0h-1.25v0.005c-0.298-0.013-0.609 0.087-0.887 0.354l-3.895 3.895-6.816-1.85c-0.098 0-2.678 1.266 0.39 2.629l3.651 1.996-3.895 3.895c-0.682-0.049-2.385-0.195-2.483 0-0.39 0.828 1.948 1.461 2.386 1.947 0.487 0.438 1.12 2.775 1.947 2.386 0.244-0.146 0.049-1.996 0-2.629l3.846-3.846 1.996 3.7c1.314 3.067 2.58 0.487 2.58 0.39l-1.85-6.816 3.895-3.895c0.295-0.295 0.403-0.628 0.382-0.942h0.003v-1.218z"></path>
</svg>
