<!-- Generated by IcoMoon.io -->
<svg version="1.1" xmlns="http://www.w3.org/2000/svg" width="40" height="32" viewBox="0 0 40 32">
<title>mapBike</title>
<path d="M8.203 15.842c4.345 0 7.87 3.52 7.87 7.854s-3.525 7.855-7.87 7.855c-4.345-0.001-7.87-3.52-7.87-7.855 0-4.334 3.525-7.854 7.87-7.854zM31.815 15.842c4.345 0 7.87 3.493 7.87 7.789 0 4.302-3.526 7.788-7.87 7.788s-7.87-3.486-7.87-7.788c0-4.296 3.525-7.789 7.87-7.789zM10.035 14.306c-0.525-0.235-0.945-0.694-1.109-1.29-0.279-1.049 0.344-2.132 1.394-2.41l14.331-3.842c1.049-0.279 2.125 0.345 2.41 1.394 0.257 0.973-0.263 1.973-1.176 2.334l-0.972 1.689h7.624c0.727 0 1.311 0.59 1.311 1.312 0 0.727-0.585 1.312-1.311 1.312h-9.893c-0.12 0-0.246-0.016-0.372-0.049-0.104-0.033-0.202-0.076-0.295-0.131v0h-0.005c-0.202-0.121-0.361-0.285-0.471-0.47-0.109-0.197-0.175-0.421-0.175-0.656v0 0-0.005c0-0.098 0.011-0.197 0.033-0.295v0 0 0 0c0.033-0.131 0.081-0.257 0.146-0.367l0.783-1.361-8.139 2.181 9.117 5.264c0.421 0.246 0.656 0.689 0.656 1.142 0 0.218-0.060 0.443-0.175 0.65l-4.307 7.456c-0.361 0.629-1.164 0.842-1.792 0.481-0.623-0.36-0.842-1.164-0.475-1.793l3.646-6.318-10.784-6.226zM28.764 2.444c1.546-0.435 3.159 0.458 3.605 2.007 0.449 1.555-0.447 3.179-2.001 3.627s-3.178-0.447-3.628-2.001c-0.105-0.362-0.135-0.723-0.102-1.080l-2.839-0.494c-0.15-0.025-0.259-0.147-0.267-0.292-0.008-0.146 0.089-0.282 0.231-0.323 1.848-0.534 4.978-1.438 4.978-1.438l0.022-0.006z"></path>
</svg>
