<!-- Generated by IcoMoon.io -->
<svg version="1.1" xmlns="http://www.w3.org/2000/svg" width="37" height="32" viewBox="0 0 37 32">
<title>mapHobby</title>
<path d="M12.116 27.053c-0.552-0.552-0.587-1.416-0.069-2.003l-2.763-2.763c-0.553 0.484-1.451 0.484-2.004-0.069s-0.587-1.417-0.069-2.004l-1.174-1.174c-1.382 2.625-0.898 5.872 1.243 8.013 1.278 1.278 3.039 2.003 4.836 2.003 1.105 0 2.176-0.241 3.143-0.795l-1.14-1.14c-0.588 0.518-1.452 0.483-2.004-0.069z"></path>
<path d="M24.551 4.947c0.553 0.553 0.587 1.416 0.069 2.003l2.763 2.763c0.553-0.484 1.451-0.484 2.004 0.069s0.587 1.416 0.069 2.004l1.312 1.313c1.935-2.694 1.727-6.424-0.69-8.842-1.278-1.278-3.039-2.003-4.836-2.003-1.451 0-2.867 0.449-4.007 1.313l1.313 1.313c0.587-0.519 1.451-0.485 2.004 0.068z"></path>
<path d="M12.807 16.691c0.553 0.553 0.587 1.416 0.069 2.003l2.763 2.763c0.553-0.483 1.451-0.483 2.003 0.069s0.587 1.416 0.069 2.004l1.381 1.381 8.117-8.117-1.381-1.382c-0.553 0.484-1.451 0.483-2.003-0.069s-0.587-1.416-0.069-2.003l-2.763-2.763c-0.553 0.484-1.451 0.484-2.003-0.069s-0.587-1.416-0.069-2.003l-1.382-1.382-8.117 8.117 1.381 1.382c0.587-0.518 1.451-0.484 2.004 0.068z"></path>
<path d="M34.049 15.482l-1.381-1.382c-0.38-0.38-1.002-0.38-1.382 0l-0.449 0.449-2.763-2.763 0.622-0.622c0.173-0.173 0.208-0.483 0-0.691-0.172-0.172-0.518-0.172-0.69 0.001l-0.622 0.621-4.145-4.145 0.622-0.621c0.173-0.173 0.207-0.484 0-0.691-0.173-0.173-0.518-0.173-0.691 0l-0.622 0.622-2.764-2.764 0.449-0.449c0.38-0.38 0.38-1.001 0-1.381l-1.382-1.382c-0.38-0.38-1.001-0.38-1.382 0l-3.108 3.108c-0.38 0.38-0.38 1.002 0 1.382l1.381 1.382c0.38 0.38 1.002 0.38 1.382-0l0.449-0.449 2.764 2.764-0.622 0.622c-0.173 0.173-0.173 0.518 0 0.691 0.207 0.207 0.518 0.173 0.691 0l0.622-0.622 4.145 4.145-0.622 0.622c-0.173 0.173-0.173 0.518 0 0.691 0.207 0.207 0.517 0.173 0.69-0l0.621-0.622 2.764 2.763-0.449 0.449c-0.38 0.38-0.38 1.002-0 1.382l1.382 1.382c0.38 0.38 1.002 0.38 1.382 0l3.109-3.109c0.38-0.381 0.379-1.003-0.001-1.383z"></path>
<path d="M22.305 27.225l-1.382-1.382c-0.38-0.38-1.002-0.38-1.382 0l-0.449 0.449-2.763-2.763 0.622-0.622c0.173-0.173 0.207-0.484 0-0.691-0.173-0.173-0.518-0.173-0.691 0.001l-0.622 0.622-4.144-4.145 0.622-0.622c0.173-0.173 0.207-0.484 0-0.691-0.173-0.173-0.518-0.173-0.691 0l-0.622 0.621-2.763-2.763 0.449-0.449c0.38-0.38 0.38-1.002 0-1.382l-1.382-1.381c-0.38-0.38-1.001-0.38-1.382 0l-3.108 3.109c-0.38 0.38-0.38 1.002 0 1.382l1.382 1.382c0.38 0.38 1.001 0.38 1.382-0l0.449-0.449 2.763 2.764-0.622 0.621c-0.173 0.173-0.173 0.518 0 0.691 0.207 0.207 0.518 0.173 0.691 0l0.622-0.622 4.145 4.145-0.622 0.622c-0.173 0.173-0.173 0.518-0 0.69 0.207 0.207 0.518 0.173 0.69 0l0.622-0.622 2.764 2.764-0.449 0.449c-0.38 0.38-0.38 1.002-0 1.382l1.381 1.382c0.38 0.38 1.002 0.38 1.382 0l3.108-3.108c0.38-0.381 0.38-1.003-0-1.382z"></path>
</svg>
