<!-- Generated by IcoMoon.io -->
<svg version="1.1" xmlns="http://www.w3.org/2000/svg" width="37" height="32" viewBox="0 0 37 32">
<title>mapHike</title>
<path d="M12.809 9.217c0.027-0.196 0.082-0.379 0.135-0.564l-3.842-0.41-0.136 1.279 3.275 3.891 0.568-4.196z"></path>
<path d="M12.059 14.75l-3.241-3.851-0.479 4.493c-0.119 1.114 0.688 2.113 1.802 2.232l1.937 0.207c-0.193-0.568-0.276-1.181-0.191-1.815l0.172-1.267z"></path>
<path d="M18.62 8.399c-0.281-0.778-1.14-1.183-1.918-0.901-0.778 0.281-1.181 1.139-0.9 1.918l1.818 5.036c0.165 0.458 0.542 0.807 1.013 0.936l4.713 1.296c0.133 0.036 0.267 0.054 0.398 0.054 0.658 0 1.261-0.437 1.444-1.102 0.22-0.798-0.25-1.623-1.048-1.842l-3.964-1.090-1.555-4.305z"></path>
<path d="M9.512 7.872l4.096 0.426c0.226 0.023 0.451 0.002 0.668-0.047-0.241 0.355-0.414 0.761-0.477 1.212l-0.59 4.241 2.555-1.41-0.903-2.437c-0.242-0.653-0.175-1.338 0.12-1.913 0.038-0.026 0.079-0.045 0.115-0.074 0.253-0.199 0.442-0.456 0.572-0.74 0.085-0.186 0.148-0.382 0.171-0.588 0.018-0.158 0.010-0.313-0.010-0.464-0.070-0.529-0.358-0.999-0.78-1.315 0.050-0.086 0.097-0.171 0.142-0.256 0.046 0.187 0.11 0.373 0.194 0.555 0 0 2.77-1.378 2.424-2.607 1.089 1.512 3.261 0.001 3.261 0.001-0.719-1.57-2.576-2.259-4.145-1.54-0.049 0.022-0.096 0.046-0.143 0.070 0.023-0.243-0.028-0.451-0.166-0.64-0.086-0.115-0.216-0.223-0.396-0.288s-0.416-0.080-0.627-0.022c-0.214 0.055-0.383 0.167-0.515 0.271-0.134 0.108-0.231 0.213-0.315 0.317-0.164 0.206-0.274 0.395-0.368 0.577-0.186 0.363-0.31 0.701-0.417 1.030-0.106 0.329-0.188 0.649-0.268 0.956-0.078 0.306-0.154 0.601-0.235 0.864-0.029 0.091-0.061 0.179-0.094 0.259l1.612 0.469c-0.099 0.167-0.209 0.338-0.347 0.507-0.141 0.173-0.309 0.349-0.531 0.504-0.217 0.155-0.511 0.275-0.804 0.287-0.296 0.011-0.561-0.068-0.76-0.191-0.202-0.121-0.354-0.273-0.469-0.441-0.058-0.085-0.111-0.171-0.151-0.265-0.020-0.047-0.039-0.095-0.058-0.142-0.014-0.051-0.030-0.098-0.041-0.152 0.055-0.002 0.105 0.005 0.157 0.004 0.048 0.003 0.095 0.006 0.143 0.007 0.095 0.003 0.185 0.009 0.271 0.010 0.171 0.005 0.322-0.001 0.443-0.026 0.121-0.027 0.198-0.069 0.233-0.116 0.037-0.045 0.052-0.081 0.094-0.138 0.051-0.071 0.111-0.19 0.169-0.332l-3.402-0.354c-0.535-0.056-1.070 0.098-1.488 0.427s-0.685 0.806-0.742 1.329c-0.118 1.085 0.689 2.059 1.803 2.175z"></path>
<path d="M21.59 28.479l-5.862 1.563c0.445-0.215 0.798-0.612 0.934-1.127l1.464-5.566c0.083-0.318 0.076-0.652-0.022-0.965l-0.627-2.012 2.113 1.411 0.504 3.48c0.127 0.871 0.874 1.498 1.729 1.498 0.083 0 0.168-0.006 0.252-0.018 0.957-0.138 1.618-1.025 1.48-1.98l-0.616-4.25c-0.071-0.491-0.347-0.928-0.759-1.203l-3.375-2.254c0.004-0.026 0.008-0.058 0.015-0.1l0.063-0.462-0.513-0.141c-0.782-0.215-1.411-0.797-1.687-1.56l-0.571-1.582-3.068 1.737c0 0-0.122 0.902-0.163 1.203-0.034 0.254-0.041 1.090 0.071 1.45 0.178 0.571 0.711 2.281 0.711 2.281l0.955 3.064-1.336 5.081c-0.246 0.934 0.312 1.89 1.246 2.136 0.149 0.039 0.299 0.058 0.446 0.058 0.044 0 0.087-0.007 0.131-0.011l-1.24 0.331h-10.529v1.46h10.721l7.727-2.061h11.173v-1.46h-11.364z"></path>
</svg>
