<!-- Generated by IcoMoon.io -->
<svg version="1.1" xmlns="http://www.w3.org/2000/svg" width="37" height="32" viewBox="0 0 37 32">
<title>mapOSM</title>
<path fill="#000" d="M33.199 15.151c0 0 0.244-1.468 0.943-3.32s1.433-3.739 1.433-3.739-0.664-2.132-1.049-4.159c-0.385-2.027-1.153-3.6-1.153-3.6s-3.39 1.258-4.438 1.468c-1.049 0.21-2.937 0.734-2.937 0.734 0.149-0.041 0.308 0.233 0.47 0.696 1.382 0.393 2.686 1.132 3.774 2.22 3.408 3.408 3.408 8.932 0 12.34-0.982 0.982-2.142 1.68-3.375 2.096l0.879 5.085-1.783 6.361c0 0 1.817-0.384 3.634-0.804s3.704-1.118 3.704-1.118-0.105-0.699 0.594-3.425c0.699-2.727 1.223-3.915 1.223-3.915s-0.069-0.63-0.524-2.761c-0.455-2.132-1.398-4.159-1.398-4.159z"></path>
<path fill="#ccc" d="M19.234 4.36c1.918-1.281 4.23-1.72 6.419-1.319-0.138-0.346-0.272-0.541-0.399-0.506 0 0-1.363-0.594-3.075-1.188s-4.159-0.769-4.159-0.769c0.47 0.042 0.87 1.86 1.214 3.782z"></path>
<path fill="#ccc" d="M18.994 18.715l0.563 3.635-1.572 6.921c0 0 0.769 0.070 3.145 0.873 2.376 0.804 4.089 1.189 4.089 1.189l1.783-6.361-0.843-4.877c-2.425 0.594-5.056 0.133-7.164-1.38z"></path>
<path fill="#000" d="M7.843 30.012c-0.52-0.286-0.761-0.392-1.213-0.843 0.452 0.451 0.654 0.757 0.715 1.342l-0.007 0.007c1.711 0.311 2.783 0.537 2.783 0.537l0.096-3.417-2.374 2.374z"></path>
<path fill="#000" d="M10.29 23.452l-1.671-6.343 2.237-8.353c-0.311-2.164-1.268-4.2-1.992-6.255 0 0-2.586-1.258-4.403-1.608-1.136-0.219-2.165-0.273-2.8-0.275-0.382-0.001-0.62 0.018-0.66 0.030 0 0 1.048 1.817 1.642 3.879s0.874 3.565 0.874 3.565-0.769 1.783-1.153 3.46c-0.384 1.678-0.804 3.215-0.804 3.215s0.804 2.237 1.293 4.194c0.489 1.957 0.524 3.39 0.524 3.39s-0.559 1.433-1.048 3.39c-0.489 1.958-0.699 4.299-0.699 4.299s1.293-0.28 3.984 0.174c0.26 0.044 0.509 0.087 0.752 0.129-0.166-0.1-0.331-0.229-0.505-0.404-0.452-0.452-0.622-0.854-0.716-1.342l0.145-0.145c0.585 0.028 0.89 0.263 1.342 0.715-0.451-0.452-0.557-0.693-0.843-1.214l4.503-4.503z"></path>
<path fill="#ccc" d="M17.238 17.043c-2.724-3.425-2.503-8.423 0.666-11.591 0.008-0.008 0.017-0.016 0.025-0.024-0.383-2.256-0.843-4.8-1.4-4.85 0 0-0.455 0.489-3.076 1.118s-3.845 0.804-3.845 0.804c0.725 2.056 1.682 4.092 1.992 6.255l-2.237 8.353 1.515 5.753 3.535-3.536c0.569 0.109 0.89 0.264 1.342 0.715s0.637 0.805 0.715 1.342l-5.487 5.487-0.117 4.183c0 0 1.782-0.385 3.355-0.875 1.573-0.489 2.271-0.908 2.271-0.908l1.573-6.781-0.829-5.448z"></path>
<path fill="#1a171b" d="M17.677 17.977c-3.549-3.55-3.549-9.305 0-12.855s9.305-3.549 12.855 0c3.549 3.549 3.549 9.305 0 12.855s-9.305 3.55-12.855 0zM18.063 17.591c3.407 3.409 8.804 3.536 12.211 0.129 3.408-3.408 3.28-8.804-0.129-12.212s-8.804-3.536-12.211-0.129c-3.408 3.408-3.279 8.804 0.129 12.211z"></path>
<path fill="#000" d="M16.5 15.442l-0.751 0.535c0.441 0.831 1.004 1.592 1.671 2.257 0.683 0.683 1.446 1.241 2.257 1.671l0.535-0.751c-0.794-0.405-1.519-0.933-2.149-1.564-0.648-0.647-1.167-1.374-1.563-2.149z"></path>
<path fill="#000" d="M15.757 20.041c0.227 0.226 0.386 0.428 0.499 0.642l1.927-1.927c-0.139-0.276-0.321-0.528-0.538-0.747-0.219-0.218-0.471-0.4-0.747-0.538l-1.989 1.988c0.3 0.112 0.545 0.279 0.848 0.582z"></path>
</svg>
