<!-- Generated by IcoMoon.io -->
<svg version="1.1" xmlns="http://www.w3.org/2000/svg" width="37" height="32" viewBox="0 0 37 32">
<title>mapPublicTransport</title>
<path d="M26.574 28.276c1.875-0.816 2.981-2.777 2.71-4.805l-1.831-13.612c-0.248-1.814-1.795-3.168-3.626-3.174h-10.988c-1.831 0.005-3.38 1.357-3.63 3.172l-1.831 13.614c-0.271 2.028 0.837 3.989 2.714 4.805l-2.48 2.483c-0.364 0.352-0.374 0.931-0.022 1.294 0.351 0.364 0.931 0.374 1.295 0.023 0.007-0.007 0.015-0.015 0.023-0.023l3.395-3.393h12.061l3.393 3.393c0.352 0.364 0.931 0.374 1.295 0.023 0.364-0.351 0.374-0.931 0.023-1.295-0.007-0.007-0.015-0.014-0.023-0.022l-2.478-2.483zM10.746 12.179h15.174l0.982 7.325h-17.137l0.981-7.325zM12.839 25.914c-1.011 0-1.831-0.82-1.831-1.831s0.82-1.831 1.831-1.831c1.012 0 1.831 0.821 1.831 1.831s-0.82 1.831-1.831 1.831zM21.996 24.083c0-1.011 0.82-1.831 1.831-1.831s1.831 0.821 1.831 1.831c0 1.011-0.82 1.831-1.831 1.831s-1.831-0.82-1.831-1.831z"></path>
<path d="M23.345 1.048l-8.889 8.889-1.048-1.048 8.889-8.889 1.048 1.048z"></path>
<path d="M27.649 1.714l-8.889 8.889-1.047-1.047 8.889-8.889 1.047 1.047z"></path>
</svg>
