<!-- Generated by IcoMoon.io -->
<svg version="1.1" xmlns="http://www.w3.org/2000/svg" width="37" height="32" viewBox="0 0 37 32">
<title>mapStreet</title>
<path d="M35.333 12.381c0-1.145-0.937-2.082-2.082-2.082h-2.209l-1.821-4.943c-0.264-0.716-1.067-1.516-1.783-1.777-0.001 0-2.513-0.913-9.105-0.913s-9.104 0.913-9.104 0.913c-0.718 0.261-1.52 1.060-1.784 1.777l-1.821 4.943h-2.209c-1.144 0-2.081 0.937-2.081 2.082s0.937 2.082 2.082 2.082h0.675l-0.542 1.473c-0.264 0.716-0.48 1.927-0.48 2.69v9.021c0 1.527 1.249 2.775 2.776 2.775s2.776-1.248 2.776-2.775v-1.388h19.428v1.388c0 1.527 1.249 2.775 2.776 2.775s2.775-1.248 2.775-2.775v-9.021c0-0.763-0.215-1.973-0.48-2.69l-0.542-1.473h0.675c1.144 0 2.081-0.937 2.081-2.082zM10.354 6.136h15.959l2.082 6.245h-20.123l2.082-6.245zM7.925 20.708c-1.15 0-2.082-0.933-2.082-2.082s0.932-2.082 2.082-2.082c1.15 0 2.081 0.933 2.081 2.082s-0.932 2.082-2.081 2.082zM22.736 23.875h-8.805v-1.755h8.805v1.755zM28.742 20.708c-1.15 0-2.082-0.932-2.082-2.082s0.932-2.082 2.082-2.082c1.15 0 2.082 0.932 2.082 2.082s-0.932 2.082-2.082 2.082z"></path>
</svg>
