<!-- Generated by IcoMoon.io -->
<svg version="1.1" xmlns="http://www.w3.org/2000/svg" width="37" height="32" viewBox="0 0 37 32">
<title>mapTopo</title>
<path d="M31.077 26.934c-6.32-3.524-11.054-7.939-11.054-7.939-0.020 0.001-0.042 0.002-0.063 0.002-0.722 0-1.392-0.663-1.392-0.663l-0.851 0.602c0.019-0.119-0.236-0.16-0.59-0.16-0.768 0-2.017 0.191-2.017 0.191-3.036 2.329-6.090 4.321-8.995 6.011-1.316 0.767-2.604 1.478-3.84 2.12 0.398 0.318 0.741 0.586 0.819 0.586 0.195 0-3.428 2.278-3.428 2.278l2.9-1.15v0.502l2.265-0.585 2.362-0.72-2.22 1.953 3.652-1.953 0.726 0.972 2.145-2.927-0.322 2.509 1.622-1.172c0 0-2.461 3.345-2.267 3.428 0.002 0.002 0.005 0.002 0.008 0.002 0.273 0 3.749-3.262 3.749-3.262s-1.437 2.508-1.075 2.677c0.030 0.013 0.089 0.020 0.172 0.020 0.917 0 4.828-0.843 6.67-2.531 0.632-0.577 1.123-0.775 1.498-0.775 0.821 0 1.093 0.945 1.093 0.945l2.981 2.007-1.232-1.462c0 0 0.202-0.024 0.51-0.024 0.613 0 1.652 0.094 2.341 0.65 0.194 0.155 0.313 0.218 0.383 0.218 0.306 0-0.383-1.221-0.383-1.221s4.795 2.090 5.314 2.174c0.015 0.002 0.026 0.004 0.036 0.004 0.374 0-1.527-1.425-1.527-1.425l3.11 0.753 2.798 0.358c0.008-0.081 0.017-0.163 0.022-0.244-2.058-0.748-4.058-1.71-5.923-2.748z"></path>
<path d="M31.693 16.667c0-6.984-5.838-12.667-13.013-12.667s-13.013 5.682-13.013 12.667c0 1.868 0.408 3.666 1.213 5.346l0.672-0.305c0.153-0.054 0.316-0.097 0.498-0.114 2.533-1.747 4.969-3.602 7.257-5.584 0.045-0.039 0.096-0.064 0.149-0.074 0.052-0.009 1.277-0.22 2.058-0.22 0.275 0 0.468 0.025 0.608 0.086l0.643-0.516c0.058-0.046 0.122-0.070 0.186-0.070 0.082 0 0.165 0 0.232 0.076 0.006 0.006 0.583 0.595 1.16 0.595l0.048-0.080h0.015c0.081 0 0.16 0.115 0.225 0.184 0.049 0.053 3.249 3.422 7.842 6.807-0.003 0.004-0.005 0.009-0.008 0.013l0.187 0.118c0.074 0.054 0.147 0.108 0.222 0.162 0.003-0.006 0.006-0.011 0.009-0.017l0.733 0.461c1.359-2.046 2.078-4.422 2.078-6.87z"></path>
</svg>
