<!-- Generated by IcoMoon.io -->
<svg version="1.1" xmlns="http://www.w3.org/2000/svg" width="32" height="32" viewBox="0 0 32 32">
<title>mention</title>
<path d="M1.693 19.224c0-2.198 0.48-4.288 1.44-6.269s2.197-3.639 3.71-4.974 3.214-2.392 5.104-3.171c1.89-0.779 3.77-1.169 5.642-1.169 1.288 0 2.625 0.228 4.010 0.683s2.725 1.13 4.020 2.023 2.357 2.157 3.19 3.793c0.832 1.636 1.249 3.485 1.249 5.546 0 2.56-0.559 4.802-1.677 6.725s-2.747 2.885-4.885 2.885c-0.826 0-1.519-0.249-2.078-0.747s-0.948-1.045-1.167-1.641c-0.377 0.693-1.006 1.264-1.887 1.714s-1.948 0.674-3.199 0.674c-1.896 0-3.391-0.444-4.484-1.331s-1.641-2.105-1.641-3.654c0-0.652 0.106-1.27 0.319-1.854s0.598-1.171 1.158-1.761c0.559-0.59 1.431-1.060 2.616-1.411s2.634-0.526 4.348-0.526c0.425 0 1.063 0.024 1.914 0.073-0.024-0.726-0.237-1.272-0.638-1.638s-1.185-0.549-2.352-0.549c-1.969 0-3.701 0.246-5.195 0.738l0.529-2.993c2.042-0.599 3.706-0.905 4.995-0.916 4.132 0 6.198 1.719 6.198 5.155 0 0.6-0.094 1.526-0.283 2.776s-0.283 2.23-0.283 2.941c0 1.612 0.498 2.417 1.495 2.417 0.851 0 1.698-0.619 2.543-1.858s1.267-2.978 1.267-5.219c0-1.935-0.535-3.655-1.604-5.16s-2.364-2.618-3.883-3.341c-1.519-0.722-3.087-1.084-4.703-1.084-3.488 0-6.581 1.315-9.279 3.944s-4.047 5.723-4.047 9.281c0 1.535 0.267 2.925 0.802 4.171s1.188 2.216 1.96 2.91c0.771 0.694 1.637 1.274 2.598 1.74s1.801 0.78 2.525 0.939c0.723 0.159 1.346 0.239 1.868 0.239 3.135 0 5.985-0.632 8.549-1.896l-0.419 2.716c-2.236 1.045-4.934 1.568-8.094 1.568-1.288 0-2.607-0.233-3.956-0.698s-2.665-1.16-3.947-2.085c-1.282-0.925-2.327-2.229-3.135-3.912-0.808-1.684-1.212-3.616-1.212-5.795zM12.63 20.244c0 0.804 0.844 1.207 2.534 1.207 1.349 0 2.285-0.261 2.807-0.782s0.844-1.416 0.966-2.686c-0.328-0.022-0.814-0.039-1.458-0.051-3.233 0-4.849 0.771-4.849 2.312z"></path>
</svg>
