<!-- Generated by IcoMoon.io -->
<svg version="1.1" xmlns="http://www.w3.org/2000/svg" width="32" height="32" viewBox="0 0 32 32">
<title>more</title>
<path d="M11.333 4.727c0-2.61 2.116-4.727 4.726-4.727s4.726 2.117 4.726 4.727c0 2.61-2.116 4.727-4.726 4.727s-4.726-2.117-4.726-4.727zM11.333 16c0-2.611 2.116-4.727 4.726-4.727s4.726 2.116 4.726 4.727c0 2.61-2.116 4.727-4.726 4.727s-4.726-2.116-4.726-4.727zM11.333 27.274c0-2.61 2.116-4.726 4.726-4.726s4.726 2.116 4.726 4.726c0 2.61-2.116 4.726-4.726 4.726s-4.726-2.116-4.726-4.726z"></path>
</svg>
