<?xml version="1.0" encoding="utf-8"?>
<!-- Generator: Adobe Illustrator 15.0.2, SVG Export Plug-In . SVG Version: 6.00 Build 0)  -->
<!DOCTYPE svg PUBLIC "-//W3C//DTD SVG 1.1//EN" "http://www.w3.org/Graphics/SVG/1.1/DTD/svg11.dtd">
<svg version="1.1" id="Ebene_1" xmlns="http://www.w3.org/2000/svg" xmlns:xlink="http://www.w3.org/1999/xlink" x="0px" y="0px"
	 width="32px" height="32px" viewBox="0 0 32 32" enable-background="new 0 0 32 32" xml:space="preserve">
<title>note</title>
<path d="M26.042,12.864c0-0.868-0.706-1.575-1.576-1.575h-5.39l-0.229,0.031l-0.16,0.214c-0.058,0.086-0.119,0.171-0.183,0.253
	l-0.082,0.108c-0.092,0.113-0.192,0.223-0.299,0.328l-1.408,1.409c-0.079,0.079-0.167,0.151-0.263,0.213
	c-0.025,0.011-0.049,0.024-0.085,0.045c-0.065,0.037-0.129,0.076-0.199,0.105c-0.03,0.011-0.062,0.019-0.093,0.027l-0.152,0.045
	c-0.021,0.006-0.04,0.015-0.061,0.019c-0.041,0.007-0.082,0.008-0.123,0.011l-0.148,0.013c-0.015,0.002-0.031,0.005-0.047,0.005
	h-0.018c-0.075-0.001-0.148-0.014-0.222-0.024c-0.025-0.003-0.052-0.005-0.079-0.006c-0.08-0.014-0.158-0.043-0.235-0.07
	c-0.025-0.008-0.051-0.016-0.072-0.019c-0.081-0.034-0.158-0.079-0.234-0.123l-0.056-0.029c-0.093-0.06-0.18-0.132-0.26-0.209
	l-1.509-1.51l-3.338,3.338c-0.237,0.236-0.649,0.236-0.887,0c-0.244-0.246-0.244-0.643,0-0.887l3.285-3.286H7.238
	c-0.868,0-1.575,0.707-1.575,1.576v17.227c0,0.868,0.706,1.575,1.575,1.575h11.42v-6.752c0-0.346,0.281-0.627,0.627-0.627h6.753
	V12.865L26.042,12.864z M8.456,20.137c0-0.346,0.281-0.627,0.627-0.627h8.235c0.344,0,0.627,0.281,0.627,0.627
	s-0.282,0.627-0.627,0.627H9.083C8.737,20.764,8.456,20.482,8.456,20.137z M9.083,23.271h2.697c0.345,0,0.627,0.281,0.627,0.627
	c0,0.347-0.28,0.627-0.627,0.627H9.083c-0.346,0-0.627-0.28-0.627-0.627C8.456,23.553,8.737,23.271,9.083,23.271z M22.939,5.476
	c0.223,0,0.434-0.086,0.59-0.245c0.214-0.213,0.244-0.462,0.244-0.59s-0.031-0.38-0.244-0.592L20.05,0.568
	c-0.315-0.314-0.866-0.314-1.182,0.001c-0.326,0.326-0.326,0.855-0.001,1.181l3.48,3.481c0.157,0.157,0.367,0.244,0.59,0.244
	L22.939,5.476z M11.065,8.563l4.487,4.479l1.689-1.708c0.271-0.267,0.485-0.577,0.64-0.922c0.191-0.417,0.29-0.86,0.29-1.321
	c0-0.146-0.01-0.297-0.03-0.449c-0.027-0.193,0.039-0.392,0.178-0.529l2.568-2.57l-2.33-2.328l-2.571,2.567
	c-0.14,0.139-0.333,0.203-0.529,0.177c-0.983-0.139-1.982,0.193-2.691,0.9L11.065,8.563L11.065,8.563z M25.225,25.792h-5.238v5.237
	L25.225,25.792z"/>
</svg>
