<?xml version="1.0" encoding="utf-8"?>
<!-- Generator: Adobe Illustrator 15.0.2, SVG Export Plug-In . SVG Version: 6.00 Build 0)  -->
<!DOCTYPE svg PUBLIC "-//W3C//DTD SVG 1.1//EN" "http://www.w3.org/Graphics/SVG/1.1/DTD/svg11.dtd">
<svg version="1.1" id="Ebene_1" xmlns="http://www.w3.org/2000/svg" xmlns:xlink="http://www.w3.org/1999/xlink" x="0px" y="0px"
	 width="32px" height="32px" viewBox="0 0 32 32" enable-background="new 0 0 32 32" xml:space="preserve">
<title>orderedcollectionpage</title>
<path d="M2.658,20.663V16.79l-0.414,0.006c-0.51,0.006-0.989,0.206-1.341,0.562c-0.369,0.365-0.57,0.852-0.57,1.371
	c0,1.054,0.857,1.922,1.911,1.934L2.658,20.663z M29.741,16.795l-0.413-0.005v3.873l0.413-0.005c0.509-0.006,0.987-0.208,1.34-0.562
	c0.367-0.365,0.569-0.851,0.569-1.371C31.65,17.673,30.794,16.807,29.741,16.795L29.741,16.795z M24.402,6.025H7.58v2.462h8.207
	c0.041,0,0.078,0.005,0.118,0.012l0,0l0.018,0.004c0.038,0.009,0.084,0.028,0.166,0.07c0.058,0.033,0.1,0.062,0.132,0.094
	l5.538,5.54c0.031,0.032,0.062,0.073,0.095,0.129l0.019,0.036c0.024,0.05,0.042,0.092,0.054,0.141l0.001,0.01
	c0.007,0.039,0.013,0.079,0.013,0.118v6.018h2.463V6.025L24.402,6.025z M3.888,20.66h4.331l0.303-0.038l0.097-0.272l0.019-0.065
	c0.032-0.12,0.071-0.239,0.114-0.354l0.029-0.078c0.054-0.134,0.12-0.27,0.196-0.406l0.06-0.1c0.06-0.103,0.126-0.199,0.208-0.313
	l0.066-0.089c0.111-0.139,0.208-0.252,0.305-0.351c0.716-0.716,1.671-1.112,2.684-1.112c1.013,0,1.967,0.396,2.684,1.112
	c0.098,0.099,0.195,0.209,0.305,0.349c0.022,0.031,0.045,0.061,0.079,0.108c0.069,0.095,0.134,0.193,0.195,0.296l0.06,0.098
	c0.078,0.14,0.14,0.271,0.205,0.434l0.018,0.053c0.043,0.116,0.082,0.234,0.114,0.355c0.006,0.021,0.014,0.043,0.022,0.066
	l0.078,0.309h4.649v-5.403h-4.924c-0.34,0-0.615-0.276-0.615-0.616V9.718H3.887L3.888,20.66L3.888,20.66z M19.839,14.027
	l-3.437-3.437v3.437H19.839z M3.888,31.667H20.71v-9.776h-4.332l-0.304,0.039l-0.096,0.272l-0.02,0.065
	c-0.031,0.121-0.071,0.239-0.115,0.356l-0.029,0.078c-0.054,0.133-0.12,0.271-0.196,0.407l-0.059,0.099
	c-0.061,0.101-0.126,0.199-0.207,0.31l-0.066,0.09c-0.112,0.143-0.21,0.254-0.306,0.351c-0.803,0.803-1.923,1.202-3.046,1.094
	l-0.113-0.015c-0.08-0.01-0.161-0.021-0.239-0.036c-0.042-0.008-0.082-0.019-0.127-0.028c-0.074-0.018-0.145-0.035-0.215-0.055
	c-0.043-0.012-0.088-0.025-0.129-0.04c-0.071-0.022-0.139-0.051-0.208-0.077l-0.117-0.047c-0.077-0.033-0.151-0.07-0.225-0.107
	l-0.082-0.043c-0.1-0.054-0.198-0.113-0.312-0.192l-0.044-0.033c-0.07-0.049-0.138-0.101-0.206-0.153l-0.094-0.08
	c-0.054-0.047-0.11-0.097-0.16-0.146c-0.032-0.031-0.065-0.062-0.097-0.096C9.518,23.85,9.472,23.8,9.419,23.74
	c-0.027-0.03-0.054-0.063-0.078-0.092c-0.047-0.061-0.09-0.121-0.136-0.182l-0.067-0.095c-0.056-0.085-0.11-0.173-0.177-0.293
	c-0.054-0.101-0.102-0.201-0.149-0.308l-0.039-0.1c-0.03-0.074-0.056-0.148-0.081-0.224l-0.151-0.558H3.888V31.667L3.888,31.667z
	 M21.939,21.891h2.463v6.084h-2.463V21.891z M25.633,21.891h2.463v2.392h-2.463V21.891z M28.094,2.333h-16.82v2.462h13.744
	c0.34,0,0.617,0.276,0.617,0.615v15.249h2.463L28.094,2.333z M10.486,19.462c-0.485,0.485-0.75,1.129-0.75,1.813
	c0,1.414,1.15,2.564,2.564,2.564c0.685,0,1.328-0.27,1.813-0.751c0.485-0.485,0.75-1.128,0.75-1.813s-0.266-1.328-0.75-1.813
	c-0.485-0.483-1.129-0.75-1.814-0.75C11.613,18.71,10.969,18.977,10.486,19.462L10.486,19.462z M2.991,5.469v-0.68l0.984-0.625
	h0.656V9.5H4.053V4.766L2.991,5.469z"/>
</svg>
