<?xml version="1.0" encoding="utf-8"?>
<!-- Generator: Adobe Illustrator 15.0.2, SVG Export Plug-In . SVG Version: 6.00 Build 0)  -->
<!DOCTYPE svg PUBLIC "-//W3C//DTD SVG 1.1//EN" "http://www.w3.org/Graphics/SVG/1.1/DTD/svg11.dtd">
<svg version="1.1" id="Ebene_1" xmlns="http://www.w3.org/2000/svg" xmlns:xlink="http://www.w3.org/1999/xlink" x="0px" y="0px"
	 width="32px" height="32px" viewBox="0 0 32 32" enable-background="new 0 0 32 32" xml:space="preserve">
<title>orderedcollection</title>
<path d="M4.044,23.579h19.957V1.667H4.044V23.579z M19.566,8.586v6.389c0,0.432-0.352,0.784-0.783,0.784H9.262
	c-0.432,0-0.783-0.352-0.783-0.784V8.586c0-0.431,0.351-0.783,0.783-0.783h9.521C19.215,7.803,19.566,8.154,19.566,8.586z
	 M10.045,9.369h7.957v4.823h-7.957V9.369z M2.479,23.63V2.534L2.435,1.68L1.664,2.098C1.61,2.125,1.559,2.152,1.489,2.196
	C1.459,2.214,1.43,2.232,1.401,2.252C1.25,2.358,1.107,2.475,0.979,2.601C0.958,2.622,0.937,2.644,0.904,2.68
	c-0.107,0.113-0.205,0.232-0.3,0.365C0.579,3.08,0.552,3.117,0.528,3.155c-0.109,0.169-0.197,0.329-0.265,0.49
	c-0.01,0.024-0.018,0.048-0.025,0.066c-0.06,0.15-0.109,0.306-0.151,0.485C0.076,4.244,0.066,4.291,0.056,4.342
	C0.017,4.561-0.002,4.746-0.002,4.928V24.74l0.79-0.475c0.404-0.244,0.84-0.424,1.295-0.535L2.479,23.63L2.479,23.63z M0,28.404
	c0,1.798,1.463,3.263,3.262,3.263h20.74v-2.479H3.262c-0.432,0-0.783-0.354-0.783-0.783c0-0.432,0.351-0.785,0.783-0.785h20.74
	v-2.479H3.262C1.464,25.145,0,26.607,0,28.404z M26.158,1.637v-0.68l0.984-0.625h0.655v5.336h-0.577V0.934L26.158,1.637z
	 M26.3,24.666c0-0.219,0.033-0.432,0.101-0.637c0.066-0.203,0.166-0.396,0.303-0.576c0.136-0.18,0.326-0.323,0.568-0.43
	c0.244-0.105,0.526-0.158,0.848-0.158c1.21,0,1.814,0.837,1.814,2.512c0,0.508-0.063,0.951-0.189,1.328s-0.277,0.668-0.453,0.871
	s-0.384,0.365-0.626,0.484s-0.451,0.194-0.626,0.227c-0.176,0.031-0.354,0.047-0.536,0.047c-0.271,0-0.53-0.031-0.776-0.094v-0.543
	c0.211,0.062,0.438,0.094,0.684,0.094c0.01,0,0.021,0,0.031,0c0.121,0,0.242-0.008,0.358-0.023c0.117-0.015,0.265-0.058,0.443-0.127
	c0.178-0.068,0.335-0.164,0.47-0.285s0.262-0.299,0.38-0.531c0.118-0.234,0.193-0.512,0.224-0.831
	c-0.314,0.237-0.713,0.356-1.196,0.356c-0.562,0-1.004-0.15-1.33-0.451S26.301,25.186,26.3,24.666L26.3,24.666z M26.878,24.669
	c0,0.362,0.106,0.642,0.32,0.84s0.52,0.298,0.92,0.298c0.538,0,0.95-0.152,1.235-0.457c-0.004-0.367-0.041-0.683-0.106-0.943
	c-0.065-0.262-0.142-0.455-0.226-0.58c-0.082-0.125-0.19-0.223-0.323-0.291c-0.134-0.069-0.235-0.107-0.306-0.115
	c-0.072-0.008-0.164-0.012-0.275-0.012c-0.266,0-0.489,0.049-0.672,0.148c-0.182,0.098-0.309,0.227-0.383,0.383
	s-0.125,0.289-0.148,0.401C26.889,24.453,26.877,24.562,26.878,24.669L26.878,24.669z"/>
</svg>
