<!-- Generated by IcoMoon.io -->
<svg version="1.1" xmlns="http://www.w3.org/2000/svg" width="32" height="32" viewBox="0 0 32 32">
<title>organization</title>
<path d="M19.833 9.539c0 1.246 1.010 2.257 2.257 2.257s2.256-1.010 2.256-2.257c0-0.103-0.009-0.203-0.022-0.303l-2.234-0.402-2.233 0.402c-0.015 0.1-0.024 0.2-0.024 0.303z"></path>
<path d="M11.833 3.833h8.333v1.5h2.333v-3.833h-13v3.833h2.333z"></path>
<path d="M7.833 5.333v-2.099c0.488-0.198 0.833-0.675 0.833-1.235 0-0.736-0.597-1.333-1.333-1.333s-1.333 0.597-1.333 1.333c0 0.559 0.345 1.036 0.833 1.235v2.099h-1.5v26.667h6.667v-4h8v4h6.667v-26.667h-18.833zM15 26.439h-8v-4.773h8v4.773zM15 19.439h-8v-4.773h8v4.773zM15 12.439h-8v-4.772h8v4.772zM25 26.439h-8v-4.773h8v4.773zM25 19.439h-8v-4.773h8v4.773zM25 12.439h-8v-4.772h8v4.772z"></path>
<path d="M9.167 1.75c0 0.966-0.784 1.75-1.75 1.75s-1.75-0.784-1.75-1.75c0-0.967 0.784-1.75 1.75-1.75s1.75 0.783 1.75 1.75z"></path>
<path d="M0 30.667h4.167v1.333h-4.167v-1.333z"></path>
<path d="M27.833 30.667h4.167v1.333h-4.167v-1.333z"></path>
</svg>
