<?xml version="1.0" encoding="utf-8"?>
<!-- Generator: Adobe Illustrator 15.0.2, SVG Export Plug-In . SVG Version: 6.00 Build 0)  -->
<!DOCTYPE svg PUBLIC "-//W3C//DTD SVG 1.1//EN" "http://www.w3.org/Graphics/SVG/1.1/DTD/svg11.dtd">
<svg version="1.1" id="Ebene_1" xmlns="http://www.w3.org/2000/svg" xmlns:xlink="http://www.w3.org/1999/xlink" x="0px" y="0px"
	 width="32px" height="32px" viewBox="0 0 32 32" enable-background="new 0 0 32 32" xml:space="preserve">
<title>page</title>
<path d="M19.839,14.002l-3.437-3.437v3.437H19.839z M8.463,6H6v14.684h2.463V8.462h7.324c0.041,0,0.078,0.005,0.118,0.012
	l0.018,0.004c0.038,0.009,0.084,0.028,0.166,0.07c0.058,0.033,0.1,0.063,0.132,0.094l5.538,5.54
	c0.031,0.032,0.062,0.073,0.095,0.129l0.019,0.036c0.024,0.05,0.042,0.092,0.054,0.141l0.001,0.01
	c0.007,0.039,0.013,0.079,0.013,0.118v6.018h2.463V6H8.463z M24.402,21.667h-2.463V28H8.463v-6.333H6v8.796h18.402v-2.245l0,0
	V21.667z"/>
</svg>
