<?xml version="1.0" encoding="utf-8"?>
<!-- Generator: Adobe Illustrator 15.0.2, SVG Export Plug-In . SVG Version: 6.00 Build 0)  -->
<!DOCTYPE svg PUBLIC "-//W3C//DTD SVG 1.1//EN" "http://www.w3.org/Graphics/SVG/1.1/DTD/svg11.dtd">
<svg version="1.1" id="Ebene_1" xmlns="http://www.w3.org/2000/svg" xmlns:xlink="http://www.w3.org/1999/xlink" x="0px" y="0px"
	 width="32px" height="32px" viewBox="0 0 32 32" enable-background="new 0 0 32 32" xml:space="preserve">
<title>person</title>
<path d="M11.145,16.857l0.056,0.043c0.023,0.02,0.048,0.039,0.103,0.078c0.986,0.764,2.165,1.273,3.407,1.479
	c0.403,0.068,0.83,0.105,1.268,0.105c1.759,0,3.477-0.606,4.837-1.707c1.826-1.464,2.875-3.656,2.875-6.006V6.99
	c0-3.119-2.537-5.657-5.66-5.657h-4.107c-2.184,0-4.192,1.276-5.116,3.251c-0.36,0.75-0.541,1.561-0.541,2.406v3.858
	C8.268,13.199,9.316,15.388,11.145,16.857L11.145,16.857z M21.6,17.838l-0.236,0.164c-0.164,0.114-0.332,0.221-0.502,0.322
	l-0.146,0.08c-0.131,0.076-0.264,0.15-0.398,0.22l-0.215,0.104c-0.117,0.055-0.231,0.11-0.35,0.162
	c-0.078,0.034-0.156,0.063-0.236,0.096c-0.115,0.048-0.231,0.093-0.35,0.133c-0.079,0.029-0.163,0.056-0.244,0.084
	c-0.12,0.037-0.242,0.074-0.363,0.107l-0.238,0.065c-0.135,0.035-0.273,0.063-0.409,0.092l-0.206,0.043
	c-0.206,0.037-0.415,0.072-0.622,0.095c-0.597,0.067-1.232,0.078-1.85,0.026l-0.25-0.028c-0.169-0.019-0.337-0.037-0.507-0.064
	c-0.064-0.01-0.127-0.021-0.19-0.035l-0.102-0.021c-0.152-0.029-0.306-0.062-0.457-0.1c-0.091-0.021-0.18-0.048-0.297-0.078
	c-0.147-0.041-0.293-0.086-0.437-0.135c-0.098-0.033-0.195-0.066-0.294-0.104c-0.143-0.053-0.281-0.109-0.457-0.186
	c-0.083-0.035-0.164-0.072-0.248-0.107c-0.141-0.064-0.279-0.137-0.417-0.211l-0.084-0.043c-0.059-0.031-0.117-0.062-0.175-0.093
	c-0.15-0.085-0.294-0.176-0.44-0.271l-0.475-0.309l-0.328,0.092c-0.053,0.012-0.107,0.025-0.164,0.045
	c-2.554,0.851-4.344,3.135-4.556,5.817c-0.015,0.179-0.021,0.357-0.021,0.536l0.001,3.801l0.006,0.064
	c0.036,1.82,1.551,3.301,3.378,3.301h14.563c1.864,0,3.385-1.518,3.385-3.385v-3.777c0-2.943-1.969-5.582-4.786-6.418L21.6,17.838
	L21.6,17.838z"/>
</svg>
