<!-- Generated by IcoMoon.io -->
<svg version="1.1" xmlns="http://www.w3.org/2000/svg" width="32" height="32" viewBox="0 0 32 32">
<title>person</title>
<path d="M11.145 16.858l0.056 0.043c0.023 0.019 0.048 0.038 0.103 0.078 0.986 0.763 2.165 1.273 3.407 1.478 0.403 0.069 0.83 0.105 1.268 0.105 1.759 0 3.477-0.606 4.837-1.706 1.827-1.465 2.876-3.657 2.876-6.007v-3.859c0-3.119-2.538-5.657-5.661-5.657h-4.107c-2.184 0-4.192 1.276-5.116 3.251-0.36 0.75-0.541 1.561-0.541 2.406v3.858c0.001 2.351 1.049 4.54 2.879 6.010z"></path>
<path d="M21.599 17.838l-0.236 0.164c-0.164 0.114-0.332 0.221-0.502 0.322l-0.146 0.080c-0.131 0.076-0.264 0.15-0.398 0.22l-0.215 0.104c-0.117 0.055-0.232 0.111-0.35 0.162-0.078 0.035-0.156 0.064-0.236 0.097-0.115 0.047-0.232 0.092-0.35 0.132-0.079 0.029-0.163 0.056-0.244 0.084-0.12 0.037-0.242 0.075-0.363 0.107l-0.238 0.066c-0.135 0.035-0.274 0.064-0.41 0.092l-0.206 0.043c-0.206 0.037-0.415 0.072-0.622 0.095-0.597 0.067-1.232 0.078-1.85 0.026l-0.25-0.029c-0.169-0.018-0.337-0.037-0.507-0.064-0.064-0.009-0.127-0.022-0.19-0.035l-0.102-0.021c-0.152-0.030-0.306-0.063-0.457-0.1-0.091-0.021-0.18-0.048-0.297-0.078-0.147-0.041-0.293-0.086-0.437-0.135-0.098-0.033-0.195-0.066-0.294-0.103-0.143-0.053-0.281-0.11-0.457-0.186-0.083-0.036-0.164-0.072-0.248-0.107-0.141-0.065-0.279-0.137-0.417-0.211l-0.084-0.044c-0.059-0.031-0.117-0.062-0.175-0.092-0.15-0.085-0.294-0.176-0.44-0.271l-0.475-0.308-0.328 0.091c-0.053 0.012-0.107 0.026-0.164 0.045-2.554 0.851-4.344 3.135-4.556 5.818-0.015 0.178-0.021 0.357-0.021 0.536l0.001 3.801 0.006 0.064c0.036 1.821 1.551 3.301 3.378 3.301h14.563c1.865 0 3.385-1.518 3.385-3.385v-3.777c0-2.943-1.969-5.582-4.786-6.418l-0.282-0.087z"></path>
</svg>
