<?xml version="1.0" encoding="utf-8"?>
<!-- Generator: Adobe Illustrator 15.0.2, SVG Export Plug-In . SVG Version: 6.00 Build 0)  -->
<!DOCTYPE svg PUBLIC "-//W3C//DTD SVG 1.1//EN" "http://www.w3.org/Graphics/SVG/1.1/DTD/svg11.dtd">
<svg version="1.1" id="Ebene_1" xmlns="http://www.w3.org/2000/svg" xmlns:xlink="http://www.w3.org/1999/xlink" x="0px" y="0px"
	 width="32px" height="32px" viewBox="0 0 32 32" enable-background="new 0 0 32 32" xml:space="preserve">
<title>place</title>
<path d="M23.436,19.415l-0.401-0.425l-0.402,0.425c-0.856,0.903-2.008,1.399-3.241,1.399c-1.234,0-2.387-0.496-3.243-1.399
	l-0.402-0.425l-0.402,0.425c-0.857,0.903-2.008,1.401-3.242,1.401s-2.386-0.498-3.241-1.401L8.459,18.99l-0.402,0.425
	c-0.551,0.581-1.247,1.006-2.012,1.226l-0.401,0.113v10.914h6.537v-2.874c0-1.965,1.6-3.563,3.565-3.563
	c1.963,0,3.562,1.6,3.562,3.563v2.874h6.541V20.756l-0.402-0.113c-0.766-0.221-1.463-0.646-2.014-1.227L23.436,19.415z
	 M15.746,26.891c-1.049,0-1.903,0.853-1.903,1.902v2.873h3.806v-2.873C17.646,27.743,16.795,26.891,15.746,26.891z M7.114,2.333
	H23.77v1.939H7.114V2.333z M2.73,11.866h5.167l2.371-5.934H6.725L2.73,11.866z M14.915,5.932h-2.859l-2.372,5.934h5.231V5.932z
	 M16.576,5.932v5.934h5.232l-2.373-5.934H16.576z M28.658,11.866l-4.471-5.934h-2.965l2.375,5.934H28.658z M7.626,16.342v-2.814H2
	v2.814c0,1.551,1.263,2.812,2.814,2.812C6.365,19.154,7.626,17.893,7.626,16.342z M9.288,16.342c0,1.551,1.264,2.812,2.813,2.812
	c1.552,0,2.813-1.262,2.813-2.812v-2.814H9.288V16.342z M23.863,16.342c0,1.551,1.263,2.812,2.813,2.812
	c1.552,0,2.813-1.262,2.813-2.812v-2.814h-5.627V16.342L23.863,16.342z M16.576,16.342c0,1.551,1.264,2.812,2.814,2.812
	s2.812-1.262,2.812-2.812v-2.814h-5.627V16.342z"/>
</svg>
