<!-- Generated by IcoMoon.io -->
<svg version="1.1" xmlns="http://www.w3.org/2000/svg" width="32" height="32" viewBox="0 0 32 32">
<title>poll</title>
<path d="M16 0c-8.837 0-16 7.164-16 16s7.164 16 16 16c8.836 0 16-7.163 16-16s-7.163-16-16-16zM9.464 26.067c0.347-0.958 0.536-1.99 0.536-3.068 0-3.885-2.462-7.197-5.911-8.457 0.317-2.653 1.507-5.109 3.426-7.028 2.267-2.266 5.281-3.514 8.486-3.514s6.218 1.248 8.485 3.514c1.919 1.919 3.107 4.376 3.428 7.028-3.451 1.26-5.914 4.571-5.914 8.457 0 1.077 0.189 2.109 0.537 3.068-1.928 1.256-4.18 1.932-6.536 1.932s-4.608-0.676-6.537-1.932zM17.242 20.031c0.434 0.11 0.758 0.502 0.758 0.969v1.999c0 0.55-0.451 1.001-1.001 1.001h-1.999c-0.55 0-1.001-0.451-1.001-1.001v-1.999c0-0.467 0.325-0.86 0.758-0.969l0.742-14.031h0.999l0.742 14.031z"></path>
</svg>
