<!-- Generated by IcoMoon.io -->
<svg version="1.1" xmlns="http://www.w3.org/2000/svg" width="32" height="32" viewBox="0 0 32 32">
<title>private</title>
<path d="M5.227 32h21.786c1.045 0 1.894-0.85 1.894-1.894v-16.46c0-1.044-0.849-1.894-1.894-1.894h-21.786c-1.046 0-1.894 0.849-1.894 1.894v16.46c0 1.044 0.848 1.894 1.894 1.894zM6.127 21.876c0-2.252 1.833-4.085 4.085-4.085h11.814c2.252 0 4.084 1.833 4.084 4.085s-1.832 4.085-4.084 4.085h-11.814c-2.253 0-4.085-1.832-4.085-4.085z"></path>
<path d="M10.213 24.387h11.814c1.386 0 2.51-1.127 2.51-2.51 0-1.385-1.126-2.51-2.51-2.51h-11.814c-1.385 0-2.51 1.126-2.51 2.51-0.001 1.383 1.125 2.51 2.51 2.51zM15.333 21.876c0-0.206 0.084-0.41 0.229-0.559 0.141-0.14 0.351-0.21 0.56-0.21 0.207 0 0.412 0.068 0.552 0.205 0.148 0.154 0.233 0.356 0.233 0.563 0 0.203-0.085 0.407-0.229 0.558-0.305 0.294-0.825 0.284-1.112 0.004-0.148-0.152-0.232-0.355-0.232-0.561zM21.556 22.432v0c-0.285 0.285-0.819 0.291-1.111 0-0.148-0.148-0.234-0.353-0.234-0.556 0-0.206 0.086-0.409 0.234-0.559 0.135-0.134 0.339-0.211 0.558-0.211h0.002c0.218 0.001 0.417 0.076 0.55 0.212 0.145 0.145 0.228 0.349 0.228 0.558 0.001 0.207-0.083 0.411-0.228 0.556zM10.684 21.317c0.134-0.134 0.336-0.213 0.556-0.213 0 0 0.002 0 0.003 0 0.216 0.002 0.417 0.076 0.551 0.213 0.149 0.149 0.235 0.353 0.235 0.559 0 0.204-0.085 0.408-0.235 0.557-0.292 0.292-0.815 0.289-1.109 0-0.146-0.145-0.229-0.349-0.229-0.557-0.002-0.209 0.082-0.412 0.228-0.559z"></path>
<path d="M23.458 10.179v-2.839c0-4.046-3.292-7.34-7.339-7.34s-7.339 3.294-7.339 7.34v2.839h2.622v-2.839c0-2.601 2.116-4.715 4.717-4.715s4.715 2.115 4.715 4.715v2.839h2.623z"></path>
</svg>
