<?xml version="1.0" encoding="utf-8"?>
<!-- Generator: Adobe Illustrator 15.0.2, SVG Export Plug-In . SVG Version: 6.00 Build 0)  -->
<!DOCTYPE svg PUBLIC "-//W3C//DTD SVG 1.1//EN" "http://www.w3.org/Graphics/SVG/1.1/DTD/svg11.dtd">
<svg version="1.1" id="Ebene_1" xmlns="http://www.w3.org/2000/svg" xmlns:xlink="http://www.w3.org/1999/xlink" x="0px" y="0px"
	 width="32px" height="32px" viewBox="0 0 32 32" enable-background="new 0 0 32 32" xml:space="preserve">
<title>profile</title>
<path d="M21.932,18l-0.236,0.164c-0.163,0.113-0.332,0.221-0.502,0.322l-0.146,0.08c-0.132,0.076-0.264,0.149-0.397,0.22
	l-0.215,0.104c-0.117,0.055-0.232,0.11-0.351,0.161c-0.077,0.035-0.155,0.064-0.235,0.097c-0.115,0.047-0.232,0.093-0.351,0.133
	c-0.079,0.029-0.163,0.057-0.243,0.084c-0.119,0.037-0.242,0.074-0.363,0.107l-0.238,0.065c-0.135,0.035-0.273,0.063-0.41,0.092
	l-0.206,0.043c-0.206,0.037-0.415,0.072-0.622,0.095c-0.598,0.068-1.232,0.078-1.85,0.026l-0.25-0.028
	c-0.169-0.019-0.337-0.037-0.507-0.064c-0.064-0.01-0.127-0.021-0.19-0.035l-0.102-0.021c-0.152-0.029-0.306-0.062-0.457-0.1
	c-0.091-0.021-0.18-0.049-0.297-0.078c-0.147-0.041-0.293-0.086-0.437-0.135c-0.098-0.033-0.195-0.066-0.294-0.104
	c-0.143-0.053-0.281-0.109-0.457-0.186c-0.083-0.035-0.164-0.072-0.248-0.105c-0.141-0.065-0.279-0.138-0.417-0.211l-0.084-0.045
	c-0.059-0.031-0.117-0.062-0.175-0.092c-0.15-0.085-0.294-0.176-0.44-0.271l-0.475-0.308l-0.328,0.091
	c-0.053,0.012-0.107,0.025-0.164,0.045C7.69,18.998,5.9,21.282,5.688,23.965c-0.015,0.18-0.021,0.358-0.021,0.536l0.001,3.801
	l0.006,0.064c0.036,1.821,1.551,3.301,3.378,3.301h14.563c1.865,0,3.385-1.519,3.385-3.384v-3.777c0-2.943-1.969-5.581-4.786-6.418
	L21.932,18L21.932,18z M0,0v18h13.437c-0.641-0.258-1.247-0.6-1.792-1.021c-0.055-0.039-0.08-0.059-0.103-0.076l-0.056-0.043
	c-1.83-1.47-2.878-3.658-2.879-6.01V6.99c0-0.845,0.182-1.656,0.541-2.406c0.923-1.974,2.931-3.251,5.115-3.251h4.107
	c3.122,0,5.661,2.537,5.661,5.657v3.859c0,2.351-1.049,4.542-2.877,6.006c-0.594,0.481-1.26,0.861-1.965,1.145h12.81V0H0L0,0z"/>
</svg>
