<!-- Generated by IcoMoon.io -->
<svg version="1.1" xmlns="http://www.w3.org/2000/svg" width="32" height="32" viewBox="0 0 32 32">
<title>public</title>
<path d="M7.266 17.226c0.132 2.225 0.619 4.398 1.449 6.457 1.204 2.979 3.135 5.68 5.588 7.811l0.118 0.102 0.861 0.072v-14.948h-8.047l0.030 0.507z"></path>
<path d="M0.423 17.784c0.643 5.669 4.355 10.551 9.69 12.738l1.729 0.71-1.174-1.454c-1.378-1.705-2.484-3.575-3.285-5.555-0.908-2.253-1.433-4.624-1.562-7.049l-0.024-0.454h-5.461l0.050 0.641c0.010 0.143 0.021 0.286 0.037 0.423z"></path>
<path d="M5.821 14.826c0.129-2.424 0.653-4.795 1.562-7.048 0.799-1.98 1.906-3.851 3.282-5.555l1.175-1.454-1.73 0.71c-5.334 2.188-9.047 7.066-9.687 12.731-0.018 0.144-0.029 0.293-0.040 0.441l-0.050 0.628h5.463l0.024-0.452z"></path>
<path d="M14.305 0.505c-2.453 2.131-4.385 4.832-5.59 7.813-0.83 2.059-1.318 4.23-1.451 6.456l-0.031 0.508h8.049v-14.948l-0.862 0.069-0.116 0.102z"></path>
<path d="M24.646 16.719h-8.045v14.948l0.861-0.072 0.118-0.102c2.451-2.131 4.383-4.832 5.587-7.812 0.83-2.058 1.318-4.231 1.45-6.457l0.030-0.506z"></path>
<path d="M31.497 17.359l0.050-0.64h-5.46l-0.023 0.453c-0.128 2.426-0.656 4.797-1.563 7.050-0.8 1.98-1.906 3.849-3.285 5.555l-1.174 1.454 1.729-0.71c5.334-2.187 9.048-7.068 9.689-12.738 0.013-0.137 0.025-0.28 0.036-0.424z"></path>
<path d="M26.085 15.279h5.462l-0.049-0.628c-0.012-0.149-0.023-0.298-0.040-0.441-0.64-5.663-4.355-10.543-9.687-12.73l-1.73-0.71 1.174 1.454c1.376 1.705 2.483 3.575 3.283 5.555 0.909 2.253 1.433 4.624 1.563 7.049l0.024 0.451z"></path>
<path d="M17.461 0.403l-0.861-0.069v14.947h8.047l-0.030-0.508c-0.132-2.225-0.621-4.398-1.451-6.456-1.204-2.98-3.136-5.681-5.59-7.813l-0.116-0.101z"></path>
</svg>
