<!-- Generated by IcoMoon.io -->
<svg version="1.1" xmlns="http://www.w3.org/2000/svg" width="36" height="32" viewBox="0 0 36 32">
<title>question</title>
<path d="M12.797 9.667c0.145 1.667 0.079 2.704-0.196 3.763-0.276 1.060-0.675 1.93-1.197 2.698-0.522 0.769-1.103 1.407-1.741 1.958-0.639 0.552-1.241 1.077-1.806 1.6s-1.045 1.059-1.436 1.621c-0.392 0.562-0.588 1.229-0.588 2.007 0 1.008 0.29 1.82 0.871 2.44s1.596 0.928 3.047 0.928c0.464 0 0.958-0.051 1.48-0.152s1.045-0.247 1.567-0.436c0.522-0.189 1.023-0.407 1.502-0.653s0.907-0.516 1.284-0.805l2.133 4.198c-1.104 0.762-2.366 1.391-3.787 1.889-1.422 0.498-3.149 0.746-5.18 0.746-2.728 0-4.868-0.652-6.421-1.958s-2.328-3.090-2.328-5.353c0-1.48 0.196-2.699 0.588-3.656s0.885-1.777 1.48-2.46c0.594-0.681 1.233-1.284 1.915-1.806s1.32-1.081 1.915-1.676c0.595-0.595 1.088-1.195 1.48-1.979s0.588-1.581 0.588-2.914h4.832zM6.747 3.308c0-1.015 0.319-1.821 0.958-2.416s1.48-0.892 2.525-0.892c1.102 0 1.973 0.298 2.611 0.892s0.958 1.4 0.958 2.416c0 1.016-0.319 1.828-0.958 2.437s-1.509 0.914-2.611 0.914c-1.045 0-1.887-0.305-2.525-0.914-0.639-0.609-0.958-1.422-0.958-2.437z"></path>
<path d="M22.698 22.667c-0.145-1.333-0.073-2.934 0.218-3.994 0.29-1.059 0.689-2.044 1.197-2.813s1.089-1.472 1.741-2.038c0.653-0.566 1.262-1.128 1.828-1.65s1.037-1.076 1.415-1.641c0.377-0.566 0.566-1.245 0.566-2.029 0-1.015-0.283-1.83-0.849-2.439s-1.575-0.915-3.025-0.915c-0.464 0-0.957 0.050-1.48 0.152s-1.045 0.246-1.567 0.435c-0.522 0.189-1.023 0.406-1.502 0.653s-0.907 0.5-1.284 0.762l-2.176-4.179c1.103-0.754 2.372-1.378 3.808-1.872s3.171-0.74 5.202-0.74c2.727 0 4.86 0.66 6.398 1.98s2.307 3.098 2.307 5.332c0 1.48-0.196 2.706-0.587 3.678s-0.878 1.8-1.458 2.481c-0.581 0.682-1.219 1.284-1.915 1.806s-1.335 1.081-1.915 1.676c-0.581 0.595-1.074 1.426-1.48 2.209s-0.609 1.812-0.609 3.145h-4.832zM21.827 28.564c0-1.015 0.319-1.82 0.958-2.415s1.48-0.893 2.525-0.893c1.103 0 1.973 0.298 2.612 0.893s0.957 1.4 0.957 2.415c0 1.016-0.32 1.828-0.957 2.437s-1.509 0.914-2.612 0.914c-1.045 0-1.887-0.305-2.525-0.914s-0.958-1.421-0.958-2.437z"></path>
</svg>
