<!-- Generated by IcoMoon.io -->
<svg version="1.1" xmlns="http://www.w3.org/2000/svg" width="32" height="32" viewBox="0 0 32 32">
<title>quote</title>
<path d="M7.939 18.91v-0.485c0.555-0.486 1.092-1.283 1.612-2.392s0.78-2.392 0.78-3.848c0-0.67-0.104-1.213-0.312-1.629s-0.509-0.867-0.901-1.352c-0.347-0.416-0.607-0.785-0.78-1.109s-0.26-0.728-0.26-1.213c0-0.693 0.225-1.259 0.676-1.699s1.023-0.659 1.716-0.659 1.329 0.266 1.907 0.797c0.577 0.532 1.034 1.237 1.369 2.115s0.503 1.815 0.503 2.808c0 1.549-0.272 2.999-0.815 4.351s-1.208 2.496-1.993 3.432c-0.786 0.936-1.537 1.601-2.253 1.993h-0.035l-1.213-1.109zM17.576 18.91v-0.485c0.555-0.486 1.092-1.283 1.612-2.392s0.78-2.392 0.78-3.848c0-0.67-0.104-1.213-0.312-1.629s-0.509-0.867-0.901-1.352c-0.346-0.416-0.607-0.785-0.78-1.109s-0.26-0.728-0.26-1.213c0-0.693 0.225-1.259 0.676-1.699s1.011-0.659 1.681-0.659c0.693 0 1.335 0.266 1.924 0.797s1.051 1.237 1.387 2.115c0.335 0.879 0.503 1.815 0.503 2.808 0 1.549-0.272 2.999-0.815 4.351s-1.208 2.496-1.993 3.432c-0.786 0.936-1.537 1.601-2.253 1.993h-0.035l-1.213-1.109z"></path>
</svg>
