<!-- Generated by IcoMoon.io -->
<svg version="1.1" xmlns="http://www.w3.org/2000/svg" width="35" height="32" viewBox="0 0 35 32">
<title>read</title>
<path d="M24.932 8.13c0-4.306-3.49-7.797-7.795-7.797-4.306 0-7.796 3.491-7.796 7.797 0 0.356 0.032 0.703 0.078 1.046l7.718 1.39 7.717-1.39c0.046-0.343 0.078-0.69 0.078-1.046z"></path>
<path d="M2.803 20.184v-4.113l-0.439 0.006c-0.542 0.007-1.050 0.218-1.425 0.596-0.391 0.388-0.605 0.904-0.605 1.456 0 1.118 0.91 2.041 2.030 2.052l0.439 0.002z"></path>
<path d="M32.531 16.076l-0.439-0.005v4.113l0.439-0.005c0.542-0.007 1.049-0.22 1.424-0.596 0.389-0.388 0.605-0.904 0.605-1.456 0.002-1.118-0.911-2.038-2.028-2.050z"></path>
<path d="M17.18 31.945l14.611-2.65-0.413-2.275-14.223 2.58-14.223-2.58-0.413 2.275 14.659 2.659z"></path>
</svg>
