<!-- Generated by IcoMoon.io -->
<svg version="1.1" xmlns="http://www.w3.org/2000/svg" width="32" height="32" viewBox="0 0 32 32">
<title>redaktorBW</title>
<path d="M26.631 8.963v8.199c0 2.611-1.087 4.839-3.276 6.675s-4.689 2.755-7.515 2.755c-1.647 0-3.432-0.398-5.353-1.198l-0.523 0.98 2.905-5.464c0.9 0.598 1.979 0.948 3.141 0.948 3.132 0 5.679-2.54 5.679-5.679 0-2.057-1.097-3.854-2.732-4.85l2.522-4.743c0.012 0.005 0.023 0.009 0.034 0.013l1.921-3.595c-2.182-0.964-4.611-1.439-7.274-1.439-4.741 0-8.336 1.648-10.791 4.95v-4.474h-3.836v20.99h3.836v-8.199c0-2.611 1.094-4.832 3.276-6.675 2.188-1.837 4.689-2.755 7.515-2.755 1.638 0 3.41 0.393 5.318 1.184l-2.522 4.743c-0.86-0.524-1.866-0.83-2.946-0.828-3.139 0-5.685 2.54-5.685 5.679 0 1.973 1.011 3.712 2.543 4.73l-3.182 5.985-1.12 2.096c2.188 0.964 4.611 1.439 7.274 1.445 4.741 0 8.342-1.654 10.791-4.956v4.474h3.836v-20.99h-3.836z"></path>
</svg>
