<!-- Generated by IcoMoon.io -->
<svg version="1.1" xmlns="http://www.w3.org/2000/svg" width="32" height="32" viewBox="0 0 32 32">
<title>redaktor</title>
<path fill="#3e373c" d="M21.689 16.179c0 3.139-2.546 5.679-5.679 5.679-3.139 0-5.685-2.546-5.685-5.679 0-3.139 2.547-5.679 5.685-5.679 3.132-0.007 5.679 2.54 5.679 5.679z"></path>
<path fill="#ff7a00" d="M23.434 3.005l-1.921 3.595c-1.921-0.801-3.705-1.198-5.353-1.198-2.826 0-5.327 0.918-7.515 2.755-2.182 1.843-3.276 4.064-3.276 6.675v8.199h-3.836v-20.989h3.836v4.474c2.455-3.302 6.050-4.95 10.791-4.95 2.664 0 5.093 0.475 7.274 1.439z"></path>
<path fill="#3e373c" d="M8.566 28.989l1.921-3.595c1.921 0.801 3.706 1.198 5.353 1.198 2.826 0 5.327-0.918 7.515-2.755s3.276-4.064 3.276-6.675v-8.199h3.836v20.99h-3.835v-4.474c-2.449 3.301-6.050 4.956-10.791 4.956-2.663-0.006-5.086-0.482-7.274-1.446z"></path>
</svg>
