<!-- Generated by IcoMoon.io -->
<svg version="1.1" xmlns="http://www.w3.org/2000/svg" width="47" height="32" viewBox="0 0 47 32">
<title>relationship</title>
<path d="M31.811 1.333c-3.181 0-6.088 1.165-8.325 3.086-2.282-2.12-5.338-3.419-8.699-3.419-7.062 0-12.787 5.725-12.787 12.787 0 7.062 5.725 12.786 12.787 12.786 0.117 0 0.233-0.006 0.35-0.009 1.912 2.427 4.874 3.989 8.196 3.989 3.17 0 6.012-1.423 7.927-3.661 0.183 0.007 0.366 0.014 0.55 0.014 7.062 0 12.787-5.725 12.787-12.786s-5.725-12.787-12.786-12.787zM23.333 28.22c-2.060 0-3.942-0.774-5.373-2.046 1.931-0.494 3.684-1.428 5.15-2.688 1.478 1.374 3.281 2.399 5.281 2.954-1.387 1.112-3.146 1.78-5.058 1.78zM23.466 22.257l-8.62-8.595 8.285-8.263 8.62 8.597-8.286 8.261z"></path>
</svg>
