<!-- Generated by IcoMoon.io -->
<svg version="1.1" xmlns="http://www.w3.org/2000/svg" width="32" height="32" viewBox="0 0 32 32">
<title>reply</title>
<path d="M15.896 5c-7.859 0-14.229 5.176-14.229 11.561 0 3.628 2.058 6.865 5.276 8.984 0.039 0.261 0.060 0.527 0.060 0.798 0 1.943-1.652 3.643-3.557 4.576v0.748c3.527-0.081 7.175-0.629 10.232-3.685 0.723 0.092 1.464 0.141 2.218 0.141 7.859 0 14.229-5.176 14.229-11.561s-6.37-11.561-14.229-11.561zM7.896 20.333c-1.104 0-2-0.896-2-2s0.896-2 2-2 2 0.896 2 2-0.896 2-2 2zM15.896 20.333c-1.104 0-2-0.896-2-2s0.896-2 2-2 2 0.896 2 2-0.896 2-2 2zM23.896 20.333c-1.104 0-2-0.896-2-2s0.896-2 2-2 2 0.896 2 2-0.896 2-2 2z"></path>
</svg>
