<!-- Generated by IcoMoon.io -->
<svg version="1.1" xmlns="http://www.w3.org/2000/svg" width="32" height="32" viewBox="0 0 32 32">
<title>service</title>
<path d="M13 22c1.562 0 2.833-1.271 2.833-2.833s-1.271-2.833-2.833-2.833-2.833 1.271-2.833 2.833 1.271 2.833 2.833 2.833zM13 18c0.643 0 1.167 0.523 1.167 1.167s-0.523 1.167-1.167 1.167-1.167-0.523-1.167-1.167 0.523-1.167 1.167-1.167z"></path>
<path d="M19 22c1.563 0 2.833-1.271 2.833-2.833s-1.271-2.833-2.833-2.833-2.833 1.271-2.833 2.833 1.271 2.833 2.833 2.833zM19 18c0.643 0 1.167 0.523 1.167 1.167s-0.523 1.167-1.167 1.167-1.167-0.523-1.167-1.167 0.523-1.167 1.167-1.167z"></path>
<path d="M29.333 1c-1.379 0-2.5 1.121-2.5 2.5 0 1.086 0.697 2.010 1.667 2.354v10.33c-2.385-4.468-7.091-7.517-12.5-7.517-5.285 0-9.9 2.911-12.333 7.212v-10.025c0.969-0.344 1.667-1.268 1.667-2.354 0-1.379-1.121-2.5-2.5-2.5s-2.5 1.121-2.5 2.5c0 1.086 0.697 2.010 1.667 2.354v14.847c-0.097 0.642-0.155 1.298-0.162 1.965h-0.004v3h28.333v-3h-0.005c-0.005-0.393-0.029-0.782-0.065-1.167h0.070v-15.646c0.969-0.344 1.667-1.268 1.667-2.354 0-1.379-1.121-2.5-2.5-2.5zM2.833 2.667c0.46 0 0.833 0.374 0.833 0.833s-0.374 0.833-0.833 0.833-0.833-0.374-0.833-0.833 0.374-0.833 0.833-0.833zM9.5 20.666v-2.666c0-1.137 0.53-1.833 0.819-1.833h11.361c0.289 0 0.819 0.696 0.819 1.833v2.666c0 1.137-0.531 1.834-0.819 1.834h-11.361c-0.289 0-0.819-0.696-0.819-1.834zM23.732 22.667c0.275-0.564 0.435-1.25 0.435-2v-2.666c0-1.963-1.092-3.5-2.486-3.5h-11.361c-1.394 0-2.486 1.537-2.486 3.5v2.666c0 0.75 0.16 1.437 0.435 2h-3.431c0.090-6.080 5.061-11 11.162-11s11.073 4.92 11.162 11h-3.43zM29.333 4.333c-0.46 0-0.833-0.374-0.833-0.833s0.374-0.833 0.833-0.833 0.833 0.374 0.833 0.833-0.374 0.833-0.833 0.833z"></path>
<path d="M15.66 31.667c-3.649 0-6.507-2.16-6.507-4.917h2.333c0 1.4 1.911 2.583 4.174 2.583s4.174-1.183 4.174-2.583h2.333c0 2.757-2.858 4.917-6.507 4.917z"></path>
</svg>
