<?xml version="1.0" encoding="utf-8"?>
<!-- Generator: Adobe Illustrator 15.0.2, SVG Export Plug-In . SVG Version: 6.00 Build 0)  -->
<!DOCTYPE svg PUBLIC "-//W3C//DTD SVG 1.1//EN" "http://www.w3.org/Graphics/SVG/1.1/DTD/svg11.dtd">
<svg version="1.1" id="Ebene_1" xmlns="http://www.w3.org/2000/svg" xmlns:xlink="http://www.w3.org/1999/xlink" x="0px" y="0px"
	 width="32px" height="32px" viewBox="0 0 32 32" enable-background="new 0 0 32 32" xml:space="preserve">
<title>service</title>
<path d="M12.666,22.001c1.562,0,2.833-1.271,2.833-2.833s-1.271-2.833-2.833-2.833s-2.833,1.271-2.833,2.833
	S11.104,22.001,12.666,22.001z M12.666,18.001c0.643,0,1.167,0.523,1.167,1.167s-0.523,1.167-1.167,1.167s-1.167-0.523-1.167-1.167
	S12.022,18.001,12.666,18.001z M18.666,22.001c1.562,0,2.833-1.271,2.833-2.833s-1.271-2.833-2.833-2.833s-2.833,1.271-2.833,2.833
	S17.104,22.001,18.666,22.001z M18.666,18.001c0.643,0,1.167,0.523,1.167,1.167s-0.522,1.167-1.167,1.167s-1.167-0.523-1.167-1.167
	S18.021,18.001,18.666,18.001z M28.999,1.001c-1.379,0-2.5,1.121-2.5,2.5c0,1.086,0.696,2.01,1.667,2.354v10.33
	c-2.385-4.468-7.091-7.517-12.5-7.517c-5.285,0-9.9,2.911-12.333,7.212V5.855C4.302,5.511,5,4.587,5,3.501
	c0-1.379-1.121-2.5-2.5-2.5S0,2.122,0,3.501c0,1.086,0.697,2.01,1.667,2.354v14.847C1.57,21.344,1.512,22,1.505,22.667H1.501v3
	h28.333v-3h-0.005c-0.005-0.393-0.029-0.782-0.065-1.167h0.07V5.854c0.969-0.344,1.667-1.268,1.667-2.354c0-1.379-1.121-2.5-2.5-2.5
	L28.999,1.001z M2.499,2.668c0.46,0,0.833,0.374,0.833,0.833S2.958,4.334,2.499,4.334S1.666,3.96,1.666,3.501
	S2.04,2.668,2.499,2.668z M9.166,20.667v-2.666c0-1.137,0.53-1.833,0.819-1.833h11.361c0.289,0,0.819,0.696,0.819,1.833v2.666
	c0,1.137-0.531,1.834-0.819,1.834H9.985C9.696,22.501,9.166,21.806,9.166,20.667z M23.398,22.668c0.274-0.563,0.435-1.25,0.435-2
	v-2.666c0-1.963-1.092-3.5-2.485-3.5H9.986c-1.394,0-2.486,1.537-2.486,3.5v2.666c0,0.75,0.16,1.437,0.435,2H4.504
	c0.09-6.08,5.061-11,11.162-11c6.102,0,11.073,4.92,11.162,11H23.398z M28.999,4.334c-0.46,0-0.833-0.374-0.833-0.833
	s0.374-0.833,0.833-0.833s0.833,0.374,0.833,0.833S29.458,4.334,28.999,4.334z M15.326,31.668c-3.649,0-6.507-2.16-6.507-4.917
	h2.333c0,1.4,1.911,2.583,4.174,2.583c2.263,0,4.174-1.183,4.174-2.583h2.333C21.833,29.508,18.975,31.668,15.326,31.668z"/>
</svg>
