<!-- Generated by IcoMoon.io -->
<svg version="1.1" xmlns="http://www.w3.org/2000/svg" width="41" height="32" viewBox="0 0 41 32">
<title>tentativeReject</title>
<path d="M25.131 15.383h1.447v1.349h-1.447v-1.349z"></path>
<path d="M26.638 10.575c-0.214 0.198-0.432 0.417-0.654 0.655s-0.406 0.562-0.555 0.968c-0.149 0.407-0.223 0.874-0.223 1.402v0.579h1.296v-0.533c0-0.381 0.078-0.723 0.236-1.025s0.351-0.557 0.581-0.766l0.698-0.633c0.233-0.213 0.43-0.484 0.588-0.812s0.237-0.7 0.237-1.116c0-0.397-0.057-0.768-0.171-1.111s-0.289-0.665-0.526-0.962c-0.238-0.298-0.571-0.532-1-0.703s-0.935-0.256-1.516-0.256c-0.86 0-1.669 0.245-2.426 0.736v1.55c0.702-0.625 1.473-0.937 2.311-0.937 1.274 0 1.912 0.556 1.912 1.669 0 0.239-0.077 0.465-0.233 0.678s-0.341 0.418-0.555 0.617z"></path>
<path d="M31.295 1.252c-6.027-2.965-13.316-0.483-16.281 5.544-1.581 3.213-1.609 6.784-0.381 9.868l-1.239 1.24-4.005-4.004-6.721 0.021 7.355 7.354-7.355 7.354 3.371 3.371 7.355-7.354 7.355 7.354 3.371-3.371-7.354-7.354 7.354-7.354-6.72-0.021-0.028 0.028-0.408 0.408c-0.493-2.026-0.307-4.228 0.685-6.245 2.25-4.573 7.78-6.456 12.353-4.206s6.456 7.78 4.206 12.353c-2.18 4.432-7.442 6.338-11.928 4.403l-3.658 1.245c0.597 0.448 1.243 0.849 1.937 1.191 6.027 2.965 13.316 0.483 16.281-5.544s0.483-13.316-5.544-16.281z"></path>
</svg>
