<!-- Generated by IcoMoon.io -->
<svg version="1.1" xmlns="http://www.w3.org/2000/svg" width="32" height="32" viewBox="0 0 32 32">
<title>timezone</title>
<path d="M16 0c-8.837 0-16 7.163-16 16s7.163 16 16 16 16-7.163 16-16-7.163-16-16-16zM25.053 21.333c0.286-1.348 0.466-2.78 0.525-4.267h4.248c-0.111 1.473-0.454 2.904-1.023 4.267h-3.751zM6.947 10.667c-0.286 1.348-0.466 2.78-0.525 4.267h-4.248c0.111-1.473 0.454-2.904 1.022-4.267h3.751zM22.868 10.667c0.32 1.365 0.513 2.795 0.576 4.267h-6.378v-4.267h5.801zM17.067 8.533v-6.245c0.486 0.142 0.968 0.379 1.441 0.712 0.886 0.625 1.734 1.587 2.451 2.783 0.496 0.827 0.925 1.747 1.283 2.75h-5.176zM11.041 5.784c0.718-1.196 1.565-2.158 2.451-2.783 0.473-0.333 0.955-0.571 1.441-0.712v6.245h-5.176c0.358-1.002 0.787-1.923 1.283-2.749zM14.933 10.667v4.267h-6.377c0.063-1.472 0.256-2.901 0.576-4.267h5.801zM3.196 21.333c-0.569-1.363-0.911-2.794-1.023-4.267h4.248c0.059 1.487 0.239 2.918 0.525 4.267h-3.751zM8.556 17.067h6.377v4.267h-5.801c-0.32-1.365-0.513-2.795-0.576-4.267v0zM14.933 23.467v6.244c-0.486-0.142-0.968-0.379-1.441-0.712-0.886-0.625-1.734-1.587-2.451-2.783-0.496-0.827-0.925-1.747-1.283-2.749l5.176 0zM20.959 26.216c-0.717 1.196-1.565 2.158-2.451 2.783-0.473 0.333-0.955 0.571-1.441 0.712v-6.245h5.175c-0.358 1.002-0.787 1.923-1.283 2.749zM17.067 21.333v-4.267h6.377c-0.063 1.472-0.256 2.901-0.576 4.267h-5.801zM25.578 14.933c-0.059-1.487-0.239-2.918-0.525-4.267h3.751c0.569 1.363 0.911 2.793 1.023 4.267h-4.248zM27.689 8.533h-3.197c-0.621-1.959-1.479-3.676-2.51-5.048 1.418 0.678 2.702 1.587 3.824 2.709 0.716 0.716 1.345 1.498 1.883 2.339zM6.195 6.195c1.122-1.122 2.406-2.031 3.824-2.709-1.031 1.371-1.889 3.089-2.51 5.048h-3.197c0.538-0.841 1.168-1.623 1.883-2.339zM4.312 23.467h3.197c0.621 1.959 1.479 3.676 2.511 5.048-1.418-0.678-2.702-1.587-3.824-2.709-0.716-0.716-1.346-1.498-1.883-2.339zM25.805 25.805c-1.122 1.122-2.406 2.031-3.824 2.709 1.031-1.371 1.889-3.089 2.51-5.048h3.197c-0.538 0.841-1.168 1.623-1.883 2.339z"></path>
</svg>
