<!-- Generated by IcoMoon.io -->
<svg version="1.1" xmlns="http://www.w3.org/2000/svg" width="43" height="32" viewBox="0 0 43 32">
<title>travel</title>
<path d="M39.748 0l-0.419 0.418c-1.090 1.088-4.242 2.020-8.007 2.833-0.834-1.826-2.673-3.097-4.812-3.097-2.805 0-5.095 2.185-5.274 4.945-11.006 1.873-16.747 3.084-16.747 6.602 0 3.771 6.717 4.917 15.231 6.372 3.626 0.619 10.988 1.876 12.316 3.042-0.403 0.3-1.697 0.965-5.8 1.878-3.277 0.729-7.22 1.374-10.388 1.891-4.547 0.743-7.983 1.34-10.683 1.946l2.516-5.302c0.172-0.46 0.318-1.128 0.318-1.653 0-2.282-1.8-4.123-4.009-4.123s-3.989 1.841-3.989 4.123c0 0.525 0.146 1.193 0.318 1.653l3.352 7.062c-0.215 0.056-0.429 0.113-0.633 0.17l0.535 1.908c3.349-0.939 8.378-1.761 12.815-2.485 12.557-2.052 19.109-3.298 19.109-7.035 0-3.77-6.717-4.917-15.231-6.37-3.632-0.62-11.012-1.881-12.322-3.049 1.477-1.205 9.697-2.63 14.143-3.384 0.945 1.441 2.573 2.394 4.425 2.394 2.526 0 4.635-1.77 5.162-4.137 5.187-1.101 9.143-2.411 10.574-4.497l0.767-1.118-3.264-0.985zM4.655 27.963l-0.075 0.097 0.065-0.138 0.010 0.041zM2.153 19.75c0-1.020 0.826-1.845 1.846-1.845 1.018 0 1.845 0.826 1.845 1.845s-0.827 1.845-1.845 1.845c-1.020 0-1.846-0.826-1.846-1.845z"></path>
</svg>
