<!-- Generated by IcoMoon.io -->
<svg version="1.1" xmlns="http://www.w3.org/2000/svg" width="40" height="32" viewBox="0 0 40 32">
<title>upload</title>
<path d="M16.979 17.118h6.041v-7.008h7.089l-10.11-10.11-10.11 10.11h7.089z"></path>
<path d="M36.111 15.667h-13.090v8.056h-6.041v-8.056h-13.090c-1.78 0-3.222 1.442-3.222 3.222v9.667c0 1.779 1.443 3.222 3.222 3.222h32.222c1.78 0 3.222-1.443 3.222-3.222v-9.667c-0-1.78-1.443-3.222-3.223-3.222zM33.392 30.127c-1.334 0-2.417-1.083-2.417-2.417s1.083-2.417 2.417-2.417c1.334 0 2.417 1.082 2.417 2.417s-1.082 2.417-2.417 2.417z"></path>
</svg>
