<?xml version="1.0" encoding="utf-8"?>
<!-- Generator: Adobe Illustrator 15.0.2, SVG Export Plug-In . SVG Version: 6.00 Build 0)  -->
<!DOCTYPE svg PUBLIC "-//W3C//DTD SVG 1.1//EN" "http://www.w3.org/Graphics/SVG/1.1/DTD/svg11.dtd">
<svg version="1.1" id="Ebene_1" xmlns="http://www.w3.org/2000/svg" xmlns:xlink="http://www.w3.org/1999/xlink" x="0px" y="0px"
	 width="33px" height="32px" viewBox="0 0 33 32" enable-background="new 0 0 33 32" xml:space="preserve">
<title>video</title>
<path d="M23.471,31.667c1.305,0,2.367-1.062,2.367-2.366V18.068c0-1.305-1.061-2.367-2.367-2.367H2.366
	C1.061,15.701,0,16.764,0,18.068v11.232c0,1.305,1.061,2.366,2.366,2.366H23.471z M5.584,24.45v-4.511
	c0-0.479,0.389-0.867,0.867-0.867h12.936c0.477,0,0.867,0.389,0.867,0.867v4.511c0,0.479-0.391,0.866-0.867,0.866H6.451
	C5.973,25.316,5.583,24.928,5.584,24.45L5.584,24.45z M27.572,25.917l5.668,2.351v-9.17l-5.668,2.353V25.917z M6.706,5.407
	c-2.36,0-4.28,1.92-4.28,4.281c0,2.358,1.92,4.278,4.28,4.278s4.279-1.919,4.279-4.278C10.985,7.327,9.065,5.407,6.706,5.407z
	 M18.704,2c-3.299,0-5.982,2.685-5.982,5.984c0,3.299,2.683,5.983,5.982,5.983c3.3,0,5.983-2.684,5.983-5.983
	C24.688,4.684,22.004,2,18.704,2z M18.704,11.236c-1.793,0-3.251-1.459-3.251-3.252c0-1.794,1.458-3.252,3.251-3.252
	s3.251,1.458,3.251,3.252C21.955,9.777,20.497,11.236,18.704,11.236z M18.704,6.467c0.837,0,1.517,0.678,1.517,1.517
	c0,0.839-0.68,1.515-1.517,1.515c-0.838,0-1.517-0.678-1.517-1.515C17.188,7.146,17.866,6.467,18.704,6.467z M7.319,20.807h11.199
	v2.776H7.319V20.807z"/>
</svg>
