<!-- Generated by IcoMoon.io -->
<svg version="1.1" xmlns="http://www.w3.org/2000/svg" width="40" height="32" viewBox="0 0 40 32">
<title>view</title>
<path d="M37.178 16.361c-0.455 0.93-0.957 1.822-1.512 2.68-0.063 0.094-0.124 0.192-0.187 0.286-0.11 0.171 0.24-0.346 0.077-0.115-0.029 0.044-0.058 0.083-0.086 0.126-0.148 0.221-0.307 0.435-0.46 0.645-0.292 0.391-0.593 0.776-0.904 1.145-0.637 0.76-1.317 1.475-2.035 2.136-0.082 0.077-0.163 0.149-0.244 0.22-0.144 0.132 0.307-0.27 0.101-0.088-0.038 0.033-0.072 0.066-0.11 0.093-0.192 0.165-0.388 0.331-0.59 0.49-0.368 0.298-0.742 0.578-1.129 0.848-0.89 0.622-1.819 1.167-2.777 1.63 0.115-0.055 0.23-0.111 0.345-0.165-1.695 0.814-3.476 1.376-5.299 1.662 0.129-0.022 0.254-0.038 0.383-0.061-1.877 0.286-3.782 0.286-5.663 0 0.129 0.022 0.254 0.039 0.383 0.061-1.824-0.286-3.605-0.848-5.3-1.662 0.115 0.055 0.23 0.11 0.345 0.165-0.852-0.413-1.681-0.892-2.48-1.426-0.387-0.259-0.766-0.535-1.139-0.826-0.182-0.143-0.359-0.286-0.536-0.429-0.091-0.076-0.187-0.154-0.278-0.237-0.038-0.033-0.072-0.066-0.11-0.093-0.038-0.033-0.072-0.066-0.11-0.093 0.062 0.055 0.12 0.11 0.182 0.16-0.737-0.622-1.422-1.354-2.063-2.097-0.316-0.364-0.622-0.743-0.919-1.129-0.144-0.187-0.287-0.38-0.426-0.572-0.071-0.104-0.148-0.204-0.22-0.308-0.029-0.044-0.058-0.083-0.086-0.126s-0.057-0.083-0.086-0.127c0.048 0.072 0.091 0.137 0.139 0.209-0.661-0.914-1.216-1.965-1.719-2.994 0 0.556 0 1.112 0 1.668 0.455-0.93 0.957-1.822 1.513-2.681 0.062-0.093 0.124-0.192 0.187-0.286 0.11-0.171-0.24 0.347-0.077 0.115 0.029-0.044 0.057-0.083 0.086-0.127 0.149-0.22 0.306-0.435 0.46-0.644 0.292-0.391 0.593-0.776 0.904-1.145 0.637-0.76 1.317-1.475 2.035-2.136 0.082-0.077 0.163-0.148 0.244-0.22 0.144-0.132-0.307 0.27-0.101 0.088 0.038-0.033 0.072-0.066 0.11-0.094 0.191-0.165 0.387-0.33 0.589-0.49 0.368-0.297 0.742-0.578 1.129-0.847 0.891-0.622 1.819-1.167 2.777-1.63-0.115 0.055-0.23 0.11-0.345 0.165 1.694-0.815 3.476-1.376 5.299-1.662-0.13 0.021-0.254 0.038-0.383 0.060 1.876-0.286 3.782-0.286 5.663 0-0.129-0.022-0.254-0.039-0.383-0.060 1.824 0.286 3.604 0.847 5.299 1.662-0.115-0.055-0.23-0.11-0.345-0.165 0.852 0.413 1.681 0.892 2.479 1.426 0.388 0.259 0.766 0.534 1.139 0.826 0.182 0.143 0.359 0.286 0.536 0.429 0.091 0.077 0.187 0.154 0.279 0.237 0.038 0.033 0.072 0.066 0.109 0.093 0.039 0.034 0.072 0.066 0.11 0.094-0.062-0.055-0.119-0.11-0.182-0.16 0.737 0.616 1.422 1.354 2.063 2.097 0.316 0.363 0.622 0.743 0.919 1.128 0.144 0.187 0.287 0.38 0.426 0.573 0.072 0.104 0.148 0.203 0.22 0.308 0.028 0.044 0.057 0.083 0.086 0.127s0.058 0.083 0.087 0.126c-0.048-0.071-0.091-0.137-0.139-0.209 0.661 0.914 1.216 1.965 1.719 3 0.368 0.754 1.321 1.068 1.963 0.594 0.661-0.49 0.91-1.453 0.517-2.257-1.551-3.171-3.662-5.912-6.17-8.125-2.423-2.136-5.252-3.694-8.215-4.519-3.198-0.892-6.534-0.958-9.761-0.237-3.011 0.677-5.927 2.114-8.43 4.145-2.576 2.070-4.763 4.712-6.425 7.794-0.325 0.6-0.732 1.25-0.646 1.982 0.067 0.572 0.422 1.123 0.685 1.612 0.416 0.771 0.876 1.508 1.36 2.229 0.924 1.376 1.953 2.653 3.102 3.787 2.403 2.378 5.194 4.183 8.225 5.256 3.083 1.090 6.367 1.36 9.56 0.87 3.106-0.479 6.122-1.706 8.784-3.611 2.681-1.916 4.974-4.459 6.783-7.426 0.412-0.677 0.795-1.376 1.144-2.097 0.368-0.754 0.177-1.838-0.517-2.257-0.67-0.425-1.566-0.221-1.958 0.583z"></path>
<path d="M12.127 14.299c0 4.305 3.491 7.797 7.795 7.797s7.796-3.491 7.796-7.797c0-0.356-0.032-0.703-0.078-1.046l-7.718-1.39-7.717 1.39c-0.047 0.343-0.079 0.69-0.079 1.046z"></path>
</svg>
