<?xml version="1.0" encoding="utf-8"?>
<!-- Generator: Adobe Illustrator 15.0.2, SVG Export Plug-In . SVG Version: 6.00 Build 0)  -->
<!DOCTYPE svg PUBLIC "-//W3C//DTD SVG 1.1//EN" "http://www.w3.org/Graphics/SVG/1.1/DTD/svg11.dtd">
<svg version="1.1" id="Ebene_1" xmlns="http://www.w3.org/2000/svg" xmlns:xlink="http://www.w3.org/1999/xlink" x="0px" y="0px"
	 width="2515.257px" height="593.706px" viewBox="0 -229.206 2515.257 593.706"
	 enable-background="new 0 -229.206 2515.257 593.706" xml:space="preserve">
<g>
	<path d="M171.801,238.764c1.206,1.239,2.815,1.923,4.533,1.923h8.631v-12.67h-8.631c-1.699,0-3.292,0.657-4.483,1.849l-0.003,0.001
		c-1.182,1.183-1.834,2.763-1.847,4.458l0.004,0.198C170.051,236.113,170.683,237.609,171.801,238.764z"/>
	<g>
		<g>
			<path d="M274.254,245.678h-95.562c-4.799,0-8.691,3.96-8.691,8.846v55.651c0,4.885,3.895,8.845,8.691,8.845h95.562
				c4.803,0,8.692-3.96,8.692-8.845v-55.652C282.946,249.638,279.055,245.678,274.254,245.678z M226.743,305.382
				c-12.665,0-22.931-10.266-22.931-22.93s10.266-22.934,22.931-22.934c12.663,0,22.929,10.27,22.929,22.934
				C249.671,295.118,239.406,305.382,226.743,305.382z"/>
		</g>
	</g>
	<circle cx="226.473" cy="282.35" r="16.378"/>
</g>
<g>
	<path d="M380.38,311.003c5.021,0,9.111-4.084,9.111-9.109V258.64c0-5.025-4.087-9.113-9.111-9.113h-81.269
		c-5.025,0-9.111,4.088-9.111,9.113v43.254c0,5.025,4.087,9.109,9.111,9.109H380.38z M311.502,283.214v-17.365
		c0-1.846,1.498-3.342,3.34-3.342h49.809c1.839,0,3.342,1.498,3.342,3.342v17.365c0,1.844-1.502,3.339-3.342,3.339h-49.808
		C313.001,286.553,311.502,285.058,311.502,283.214z"/>
	<polygon points="396.174,288.864 418,297.919 418,262.607 396.174,271.667 	"/>
	<path d="M315.824,209.884c-9.088,0-16.479,7.392-16.479,16.483c0,9.082,7.392,16.474,16.479,16.474
		c9.086,0,16.479-7.392,16.479-16.474C332.303,217.275,324.91,209.884,315.824,209.884z"/>
	<path d="M362.025,196.766c-12.704,0-23.035,10.339-23.035,23.043c0,12.702,10.333,23.038,23.035,23.038
		c12.707,0,23.041-10.336,23.041-23.038C385.065,207.104,374.73,196.766,362.025,196.766z M362.025,232.331
		c-6.905,0-12.518-5.62-12.518-12.523c0-6.908,5.613-12.524,12.518-12.524c6.903,0,12.519,5.616,12.519,12.524
		C374.544,226.711,368.927,232.331,362.025,232.331z"/>
	<path d="M362.025,213.967c3.225,0,5.841,2.612,5.841,5.841c0,3.225-2.616,5.836-5.841,5.836s-5.841-2.611-5.841-5.836
		C356.183,216.579,358.8,213.967,362.025,213.967z"/>
	<rect x="318.183" y="269.188" width="43.123" height="10.688"/>
</g>
<g>
	<path d="M83.24,242.208c0-3.548-2.885-6.433-6.435-6.433H54.783l-0.935,0.124l-0.654,0.873c-0.234,0.351-0.485,0.697-0.746,1.032
		l-0.332,0.439c-0.381,0.462-0.785,0.912-1.222,1.341l-5.751,5.756c-0.322,0.323-0.681,0.615-1.075,0.87
		c-0.104,0.045-0.202,0.098-0.345,0.183c-0.267,0.153-0.526,0.312-0.812,0.431c-0.124,0.045-0.25,0.077-0.379,0.11l-0.62,0.183
		c-0.085,0.025-0.166,0.059-0.251,0.078c-0.166,0.028-0.334,0.035-0.501,0.045l-0.604,0.056c-0.063,0.01-0.128,0.021-0.191,0.021
		H40.29c-0.306-0.006-0.605-0.059-0.906-0.097c-0.104-0.013-0.214-0.022-0.322-0.025c-0.325-0.062-0.644-0.177-0.958-0.287
		c-0.104-0.036-0.208-0.065-0.295-0.078c-0.33-0.138-0.644-0.319-0.954-0.502l-0.229-0.117c-0.381-0.248-0.737-0.538-1.061-0.854
		l-6.165-6.171l-13.637,13.637c-0.97,0.963-2.652,0.963-3.622,0c-0.997-1.003-0.997-2.625,0-3.622l13.421-13.425H6.432
		c-3.546,0-6.432,2.886-6.432,6.436v70.376c0,3.547,2.884,6.434,6.435,6.434h46.654v-27.585c0-1.414,1.153-2.56,2.563-2.56H83.24
		V242.208z M73.294,249.298c0,0.668-0.277,1.329-0.766,1.812c-0.941,0.941-2.667,0.941-3.625-0.013
		c-0.462-0.449-0.736-1.125-0.736-1.802s0.274-1.341,0.75-1.814v-0.003c0.462-0.462,1.133-0.696,1.807-0.696
		c0.671,0,1.342,0.233,1.807,0.699C73.014,247.969,73.294,248.627,73.294,249.298z M11.394,271.921c0-1.414,1.146-2.563,2.562-2.563
		H47.6c1.407,0,2.562,1.149,2.562,2.563c0,1.41-1.153,2.559-2.562,2.559H13.955C12.543,274.479,11.394,273.331,11.394,271.921z
		 M13.955,284.726h11.019c1.41,0,2.561,1.146,2.561,2.561c0,1.416-1.146,2.562-2.561,2.562H13.955c-1.412,0-2.562-1.146-2.562-2.562
		C11.394,285.872,12.543,284.726,13.955,284.726z"/>
	<path d="M70.564,212.026c0.913,0,1.771-0.354,2.414-1c0.87-0.87,1-1.886,1-2.413c0-0.531-0.13-1.551-1-2.417l-14.215-14.219
		c-1.293-1.284-3.54-1.284-4.83,0.006c-1.329,1.329-1.329,3.494-0.003,4.826l14.219,14.22
		C68.793,211.671,69.653,212.026,70.564,212.026z"/>
	<path d="M22.055,224.637l18.332,18.297l6.896-6.979c1.107-1.091,1.987-2.36,2.615-3.765c0.785-1.703,1.186-3.515,1.186-5.396
		c0-0.596-0.042-1.211-0.127-1.833c-0.108-0.789,0.16-1.6,0.726-2.16l10.494-10.499l-9.521-9.511l-10.501,10.487
		c-0.57,0.567-1.358,0.83-2.159,0.723c-4.015-0.566-8.095,0.788-10.995,3.675L22.055,224.637z"/>
	<polygon points="79.9,295.019 58.5,295.019 58.5,316.417 	"/>
</g>
<g>
	<path d="M99.027,291.011h69.214v-75.994H99.027V291.011z M152.861,239.014v22.159c0,1.496-1.219,2.718-2.717,2.718h-33.021
		c-1.497,0-2.715-1.222-2.715-2.718v-22.159c0-1.495,1.219-2.715,2.715-2.715h33.021C151.643,236.3,152.861,237.516,152.861,239.014
		z"/>
	<rect x="119.838" y="241.73" width="27.596" height="16.727"/>
	<path d="M93.598,291.19v-73.164l-0.15-2.962l-2.673,1.45c-0.186,0.093-0.364,0.187-0.608,0.342
		c-0.104,0.062-0.205,0.125-0.304,0.193c-0.525,0.365-1.019,0.772-1.464,1.208c-0.074,0.071-0.146,0.151-0.257,0.275
		c-0.371,0.391-0.711,0.805-1.041,1.264c-0.088,0.124-0.183,0.249-0.267,0.381c-0.379,0.586-0.682,1.144-0.918,1.698
		c-0.037,0.083-0.063,0.166-0.086,0.23c-0.207,0.519-0.378,1.061-0.522,1.682c-0.038,0.166-0.074,0.331-0.107,0.507
		c-0.136,0.759-0.2,1.401-0.2,2.033v68.71l2.739-1.646c1.401-0.843,2.914-1.468,4.49-1.858L93.598,291.19z"/>
	<path d="M85,307.749c0,6.233,5.075,11.312,11.312,11.312h71.929v-8.599H96.312c-1.497,0-2.713-1.223-2.713-2.717
		s1.217-2.72,2.713-2.72h71.929v-8.597H96.312C90.075,296.438,85,301.513,85,307.749z"/>
</g>
<rect x="524.729" y="208.565" transform="matrix(-0.7069 -0.7073 0.7073 -0.7069 740.0276 766.2685)" width="8.083" height="42.497"/>
<rect x="544.688" y="200.959" transform="matrix(-0.7072 -0.707 0.707 -0.7072 796.1246 742.9521)" width="14.438" height="11.324"/>
<path d="M523.041,249.543l-4.062,4.063c-1.116,1.111-3.059,1.111-4.175,0l-9.894-9.892c-0.556-0.556-0.861-1.3-0.861-2.089
	c0-0.788,0.308-1.532,0.861-2.089l4.078-4.078l-2.762-1.111c-3.557-1.436-7.354-1.83-10.646-1.119
	c-4.908,1.065-8.574,4.48-10.603,9.881c-4.164,11.106-11.167,12.474-18.584,13.921c-5.102,1-10.377,2.029-16.644,5.928
	c-4.146,2.576-8.854,7.76-9.639,14.594c-0.844,7.311,2.936,15.391,10.919,23.385l6.551,6.543
	c7.259,7.26,14.588,11.039,21.331,11.039c0.688,0,1.372-0.037,2.052-0.121c6.832-0.779,12.018-5.49,14.595-9.637
	c3.896-6.268,4.925-11.541,5.922-16.643c1.452-7.414,2.819-14.418,13.921-18.582c5.404-2.027,8.819-5.695,9.879-10.604
	c0.717-3.28,0.312-7.059-1.13-10.632L523.041,249.543z M500.802,273.255c-2.072,2.07-4.832,3.215-7.771,3.215
	s-5.696-1.143-7.77-3.215c-2.074-2.068-3.216-4.828-3.216-7.771s1.142-5.7,3.216-7.77c2.14-2.141,4.957-3.21,7.771-3.21
	c2.814,0,5.626,1.067,7.771,3.208C505.08,261.999,505.08,268.974,500.802,273.255z M483.449,289.382c0,0.785-0.308,1.525-0.859,2.09
	c-1.118,1.109-3.062,1.109-4.181,0l-11.361-11.365c-1.149-1.154-1.149-3.027,0-4.178c0.56-0.557,1.3-0.863,2.089-0.863
	c0.789,0,1.529,0.309,2.089,0.863l11.364,11.365C483.141,287.853,483.449,288.593,483.449,289.382z"/>
<path d="M489.436,261.892c-0.959,0.961-1.486,2.238-1.486,3.594c0,1.359,0.527,2.633,1.489,3.594
	c0.989,0.986,2.289,1.479,3.59,1.479c1.301,0,2.604-0.49,3.599-1.479c1.979-1.979,1.977-5.209-0.005-7.188
	C494.703,259.977,491.354,259.977,489.436,261.892z"/>
<path d="M657.04,257.152l-0.709-0.533c-0.529-0.417-0.946-0.78-1.346-1.177c-0.367-0.353-0.794-0.846-1.204-1.405
	c-0.161-0.214-0.341-0.461-0.503-0.702c-0.807-1.209-1.398-2.529-1.785-3.935l-0.315-1.171l-1.21-0.084
	c-3.271-0.221-6.347-1.632-8.688-3.992c-0.371-0.352-0.793-0.847-1.199-1.398c-0.166-0.221-0.349-0.468-0.511-0.709
	c-0.78-1.164-1.364-2.433-1.743-3.785l-0.396-1.418l-1.457,0.182c-0.992,0.127-2.016,0.14-3.034,0.046l-0.406-0.055
	c-0.285-0.037-0.565-0.072-0.854-0.127l-0.468-0.104c-0.251-0.058-0.51-0.117-0.757-0.188c-0.15-0.045-0.307-0.092-0.485-0.153
	c-0.234-0.078-0.475-0.159-0.713-0.257c-0.158-0.062-0.319-0.13-0.475-0.195c-0.229-0.101-0.454-0.208-0.686-0.326
	c-0.146-0.075-0.298-0.148-0.438-0.229c-0.229-0.126-0.446-0.265-0.794-0.481l-0.292-0.185c-0.231-0.159-0.456-0.332-0.683-0.511
	l-1.383-1.115l-7.832,5.16l-0.94,0.646l0.211,1.119l0.053,0.214c0.149,0.481,0.247,0.982,0.348,1.497
	c0.021,0.109,0.049,0.221,0.107,0.493c0.104,0.689,0.159,1.372,0.159,2.036c0,7.506-6.107,13.605-13.62,13.605
	c-0.438,0-0.869-0.02-1.291-0.059l-0.431-0.059c-0.282-0.038-0.562-0.07-0.837-0.124l-0.486-0.11c-0.25-0.059-0.5-0.117-0.748-0.188
	c-0.149-0.039-0.298-0.091-0.493-0.155c-0.234-0.079-0.469-0.163-0.7-0.255c-0.163-0.064-0.324-0.13-0.481-0.201
	c-0.227-0.098-0.448-0.202-0.667-0.318c-0.158-0.078-0.312-0.156-0.467-0.241c-0.228-0.123-0.438-0.26-0.784-0.48l-0.284-0.183
	c-0.229-0.156-0.448-0.325-0.673-0.501l-1.42-1.196l-21.249,14.774l88.932-8.825L657.04,257.152z"/>
<polygon points="670.269,298.931 565,309.36 565,319.479 670.269,309.048 "/>
<path d="M670.269,268.911l0.054-1.002l-1.141-0.617c-0.37-0.209-0.729-0.438-1.092-0.688l-0.237-0.148
	c-0.095-0.062-0.188-0.123-0.277-0.188c-0.408-0.312-0.797-0.648-1.174-1.009c-0.078-0.071-0.162-0.146-0.263-0.216l-0.566-0.572
	L565,274.452v29.767l105.271-10.438L670.269,268.911L670.269,268.911z M579.505,290.808c0,0.67-0.279,1.334-0.767,1.814
	c-0.938,0.938-2.68,0.924-3.604,0c-0.475-0.479-0.743-1.131-0.743-1.814c0-0.676,0.27-1.334,0.743-1.809
	c0.464-0.467,1.132-0.695,1.806-0.695c0.67,0,1.34,0.229,1.805,0.695C579.223,289.481,579.505,290.144,579.505,290.808z"/>
<path d="M627.298,228.413c0.098,0.13,0.169,0.221,0.282,0.39c0.16,0.208,0.396,0.481,0.579,0.654
	c2.438,2.458,5.972,3.274,9.263,1.929c0.408-0.144,0.804-0.342,1.229-0.611c0.868-0.541,1.968-0.515,2.811,0.059
	c0.841,0.572,1.257,1.59,1.062,2.596c-0.057,0.285-0.089,0.663-0.08,1.312l1.695-0.117l0,0l-1.688,0.341
	c0.062,1.525,0.539,2.992,1.371,4.229c0.104,0.157,0.213,0.306,0.362,0.507c0.274,0.371,0.509,0.638,0.686,0.8
	c2.065,2.082,4.771,2.947,7.622,2.414l0.191-0.045c0.872-0.273,1.896-0.06,2.544,0.52c0.679,0.599,1.021,1.432,0.924,2.217
	l-0.015,0.3c0.015,1.639,0.498,3.231,1.396,4.591c0.101,0.144,0.208,0.299,0.354,0.481c0.283,0.384,0.515,0.649,0.687,0.807
	c1.664,1.678,3.767,2.562,6.071,2.562c1.302,0,2.457,0.962,2.636,2.19c0.185,1.262,0.623,2.426,1.354,3.512l0.339,0.462
	c0.257,0.353,0.49,0.616,0.669,0.786c0.278,0.279,0.568,0.539,0.869,0.769c0.9,0.709,1.898,1.211,2.942,1.478
	c0.77,0.219,1.507,0.317,2.263,0.317c4.688,0,8.507-3.812,8.507-8.493c0-1.678-0.495-3.304-1.411-4.669
	c-0.307-0.476-0.646-0.892-1.1-1.347c-0.39-0.39-0.854-0.767-1.379-1.119c-1.326-0.896-2.93-1.371-4.617-1.371
	c-1.303,0-2.458-0.963-2.635-2.192c-0.185-1.269-0.641-2.445-1.329-3.479c-0.312-0.481-0.646-0.898-1.103-1.346
	c-0.39-0.391-0.854-0.769-1.391-1.125c-1.327-0.898-2.924-1.373-4.616-1.373c-0.729,0-1.377,0.082-1.965,0.247
	c-0.808,0.228-1.678,0.042-2.328-0.494c-0.644-0.537-0.982-1.356-0.9-2.341v-0.188c0-1.678-0.493-3.304-1.406-4.67
	c-0.312-0.481-0.646-0.896-1.099-1.343c-0.393-0.39-0.855-0.771-1.389-1.128c-2.598-1.75-6.317-1.794-9.058-0.11
	c-0.865,0.533-1.958,0.501-2.796-0.071c-0.836-0.576-1.253-1.59-1.062-2.588c0.059-0.286,0.094-0.67,0.094-1.139
	c0-1.678-0.489-3.304-1.407-4.669c-0.31-0.479-0.646-0.892-1.103-1.347c-0.387-0.387-0.853-0.761-1.382-1.121
	c-1.33-0.895-2.927-1.369-4.621-1.369c-2.271,0-4.399,0.881-5.982,2.478c-1.621,1.626-2.521,3.767-2.521,6.029
	c0,1.625,0.461,3.199,1.386,4.617L627.298,228.413z"/>
<path d="M596.229,249.434c0.274,0.377,0.507,0.644,0.683,0.807c1.662,1.671,3.766,2.562,6.075,2.562
	c4.688,0,8.506-3.812,8.506-8.494c0-1.678-0.495-3.304-1.405-4.669c-0.312-0.481-0.646-0.892-1.103-1.344
	c-0.39-0.387-0.854-0.764-1.388-1.125c-1.323-0.895-2.923-1.368-4.617-1.368c-2.273,0-4.4,0.881-5.986,2.478
	c-1.623,1.625-2.521,3.766-2.521,6.028c0,1.665,0.481,3.266,1.396,4.638C595.969,249.088,596.076,249.23,596.229,249.434z"/>
<path d="M768.538,276.415l-1.396-1.479l-1.399,1.479c-2.979,3.144-6.979,4.867-11.271,4.867s-8.297-1.729-11.272-4.867l-1.396-1.479
	l-1.396,1.479c-2.979,3.144-6.984,4.875-11.274,4.875c-4.289,0-8.294-1.731-11.271-4.875l-1.397-1.479l-1.396,1.479
	c-1.915,2.021-4.334,3.498-6.994,4.258l-1.396,0.396v37.95h22.732v-9.992c0-6.833,5.562-12.392,12.396-12.392
	c6.827,0,12.388,5.559,12.388,12.392v9.992h22.74v-37.945l-1.396-0.396C772.875,279.913,770.455,278.436,768.538,276.415z
	 M715.484,293.196c0-0.754,0.312-1.484,0.87-2.033c0.489-0.502,1.231-0.787,2.027-0.787c0.793,0,1.534,0.285,2.049,0.81
	c0.52,0.511,0.826,1.259,0.826,2.021c0,0.764-0.308,1.512-0.841,2.049l-0.021,0.016c-1.018,1.029-2.979,1.076-4.072-0.033
	C715.802,294.706,715.484,293.95,715.484,293.196z"/>
<path d="M741.8,302.411c-3.646,0-6.616,2.965-6.616,6.615v9.99h13.229v-9.99C748.412,305.376,745.446,302.411,741.8,302.411z"/>
<rect x="711.781" y="217.017" width="57.918" height="6.741"/>
<polygon points="696.537,250.166 714.504,250.166 722.75,229.532 710.429,229.532 "/>
<polygon points="738.91,229.532 728.97,229.532 720.721,250.166 738.91,250.166 "/>
<polygon points="744.683,229.532 744.683,250.166 762.881,250.166 754.625,229.532 "/>
<polygon points="786.697,250.166 771.152,229.532 760.844,229.532 769.097,250.166 "/>
<path d="M713.563,265.729v-9.784H694v9.784c0,5.393,4.391,9.784,9.784,9.784C709.177,275.514,713.563,271.122,713.563,265.729z"/>
<path d="M719.342,265.729c0,5.393,4.395,9.784,9.783,9.784c5.396,0,9.781-4.392,9.781-9.784v-9.784h-19.564V265.729L719.342,265.729
	z"/>
<path d="M770.029,265.729c0,5.393,4.389,9.784,9.78,9.784c5.396,0,9.784-4.392,9.784-9.784v-9.784h-19.567v9.784H770.029z"/>
<path d="M744.683,265.729c0,5.393,4.395,9.784,9.788,9.784c5.395,0,9.781-4.392,9.781-9.784v-9.784h-19.569V265.729z"/>
<path d="M803.093,280.757v-13.469l-1.438,0.021c-1.773,0.021-3.438,0.715-4.664,1.953c-1.28,1.271-1.982,2.962-1.982,4.768
	c0,3.662,2.979,6.684,6.646,6.721L803.093,280.757z"/>
<path d="M897.264,267.305l-1.439-0.017v13.469l1.439-0.018c1.772-0.021,3.437-0.721,4.662-1.953c1.275-1.271,1.98-2.959,1.98-4.769
	C903.909,270.357,900.927,267.343,897.264,267.305z"/>
<path d="M878.7,229.854h-58.493v8.561h28.535c0.142,0,0.271,0.018,0.409,0.044l0,0l0.063,0.012c0.133,0.032,0.294,0.098,0.579,0.244
	c0.201,0.114,0.35,0.219,0.458,0.327l19.259,19.265c0.106,0.11,0.213,0.253,0.327,0.448l0.062,0.125
	c0.084,0.173,0.145,0.319,0.188,0.49l0.005,0.035c0.024,0.133,0.044,0.275,0.044,0.411v20.925h8.562L878.7,229.854L878.7,229.854z"
	/>
<path d="M807.37,280.741h15.062l1.054-0.131l0.335-0.951l0.067-0.225c0.11-0.418,0.248-0.832,0.397-1.234l0.1-0.272
	c0.188-0.468,0.417-0.938,0.683-1.416l0.209-0.347c0.209-0.354,0.438-0.691,0.723-1.088l0.229-0.309
	c0.385-0.484,0.722-0.871,1.062-1.217c2.492-2.492,5.811-3.867,9.332-3.867c3.523,0,6.841,1.375,9.333,3.867
	c0.342,0.344,0.681,0.727,1.061,1.21c0.079,0.106,0.156,0.211,0.275,0.379c0.239,0.33,0.468,0.669,0.681,1.028l0.206,0.342
	c0.271,0.482,0.489,0.941,0.713,1.507l0.062,0.183c0.149,0.405,0.286,0.816,0.396,1.237c0.021,0.077,0.048,0.149,0.077,0.231
	l0.271,1.074h16.167v-18.787h-17.121c-1.183,0-2.14-0.959-2.14-2.141v-17.118H807.37V280.741z"/>
<polygon points="862.834,257.678 850.884,245.726 850.884,257.678 "/>
<path d="M807.37,319.019h58.493v-33.995h-15.062l-1.057,0.132l-0.334,0.948l-0.068,0.228c-0.111,0.418-0.247,0.832-0.399,1.24
	l-0.099,0.271c-0.188,0.463-0.416,0.938-0.683,1.414l-0.205,0.344c-0.211,0.35-0.438,0.691-0.718,1.078l-0.231,0.314
	c-0.389,0.496-0.729,0.881-1.062,1.219c-2.792,2.793-6.688,4.182-10.594,3.803l-0.392-0.053c-0.28-0.032-0.562-0.075-0.832-0.127
	c-0.146-0.03-0.283-0.062-0.444-0.096c-0.255-0.062-0.503-0.123-0.746-0.193c-0.15-0.043-0.304-0.09-0.45-0.139
	c-0.246-0.082-0.482-0.18-0.722-0.271l-0.408-0.163c-0.27-0.114-0.525-0.245-0.781-0.375l-0.285-0.146
	c-0.349-0.189-0.688-0.396-1.086-0.67l-0.154-0.115c-0.245-0.172-0.481-0.351-0.717-0.53l-0.326-0.283
	c-0.188-0.164-0.382-0.335-0.555-0.506c-0.112-0.106-0.225-0.22-0.338-0.335c-0.168-0.18-0.329-0.354-0.512-0.564
	c-0.094-0.104-0.188-0.217-0.271-0.322c-0.165-0.207-0.315-0.418-0.473-0.629l-0.232-0.33c-0.194-0.293-0.381-0.601-0.615-1.018
	c-0.188-0.348-0.357-0.701-0.52-1.072l-0.138-0.342c-0.104-0.259-0.195-0.521-0.281-0.779l-0.523-1.938H807.37V319.019z"/>
<rect x="870.141" y="285.023" width="8.562" height="21.154"/>
<rect x="882.981" y="285.023" width="8.557" height="8.315"/>
<path d="M891.538,217.017h-58.486v8.562h47.791c1.184,0,2.145,0.958,2.145,2.139v53.024h8.56L891.538,217.017L891.538,217.017z"/>
<path d="M830.312,276.577c-1.685,1.688-2.608,3.926-2.608,6.31c0,4.918,4,8.918,8.917,8.918c2.381,0,4.619-0.933,6.304-2.611
	c1.688-1.688,2.609-3.924,2.609-6.307c0-2.384-0.925-4.621-2.606-6.31c-1.687-1.684-3.924-2.606-6.307-2.606
	C834.233,273.964,831.994,274.894,830.312,276.577z"/>
<path d="M1035.932,302.148h35.26c1.571,0,2.854,1.279,2.854,2.856v14.938l17.846-17.01c0.53-0.51,1.229-0.784,1.973-0.784h4.974
	c8.229,0,14.918-6.694,14.918-14.924v-12.06c0-8.238-6.699-14.94-14.938-14.94h-62.86c-8.232,0-14.938,6.702-14.938,14.94v12.06
	C1021.011,295.454,1027.707,302.148,1035.932,302.148z M1040.078,281.185c0-0.756,0.299-1.482,0.831-2.006
	c0.498-0.495,1.232-0.778,2.022-0.778c0.01,0,0.01,0,0.013,0c0.78,0,1.505,0.283,2.011,0.792c0.521,0.518,0.838,1.258,0.838,1.992
	c0,0.749-0.312,1.497-0.838,2.014l-0.026,0.025c-1.022,1.05-2.966,1.061-4.031-0.033
	C1040.377,282.689,1040.078,281.956,1040.078,281.185z M1064.524,281.185c0-0.734,0.312-1.482,0.836-2.006
	c0.521-0.521,1.271-0.782,2.021-0.782c0.753,0,1.506,0.263,2.021,0.782c0.521,0.52,0.837,1.271,0.837,2.006
	c0,0.749-0.312,1.505-0.837,2.027c-1.062,1.059-2.993,1.055-4.049,0C1064.838,282.689,1064.524,281.934,1064.524,281.185z
	 M1088.969,281.185c0-0.749,0.309-1.477,0.836-2.006c0.491-0.487,1.229-0.771,2.028-0.771c0.796,0,1.531,0.283,2.037,0.784
	c0.515,0.502,0.816,1.247,0.816,1.992c0,0.771-0.3,1.505-0.816,2.015l-0.031,0.024c-1.021,1.039-2.958,1.062-4.034-0.015
	C1089.283,282.689,1088.969,281.934,1088.969,281.185z"/>
<path d="M1100.886,254.612c0.106,0.011,0.215,0.033,0.322,0.047l0.55,0.08c0.384,0.051,0.77,0.102,1.141,0.174
	c0.146,0.029,0.294,0.073,0.438,0.109l0.572,0.146c0.313,0.076,0.629,0.149,0.936,0.24c0.164,0.051,0.328,0.117,0.494,0.175
	l0.538,0.196c0.282,0.094,0.562,0.196,0.837,0.305c0.17,0.073,0.334,0.152,0.498,0.229l0.479,0.229
	c0.271,0.124,0.538,0.247,0.793,0.386c0.188,0.098,0.361,0.203,0.537,0.312l0.369,0.218c0.264,0.153,0.521,0.307,0.775,0.474
	c0.188,0.127,0.363,0.258,0.547,0.393l0.282,0.211c0.25,0.178,0.502,0.36,0.748,0.556c0.179,0.146,0.353,0.295,0.519,0.447
	l0.229,0.207c0.239,0.207,0.479,0.418,0.705,0.636c0.183,0.183,0.358,0.371,0.633,0.658c0.236,0.25,0.476,0.506,0.697,0.771
	c0.188,0.218,0.363,0.445,0.569,0.712c0.212,0.272,0.423,0.546,0.616,0.829c0.181,0.254,0.347,0.518,0.511,0.771
	c0.187,0.295,0.364,0.582,0.533,0.879c0.153,0.271,0.299,0.543,0.438,0.826c0.155,0.305,0.312,0.611,0.446,0.922
	c0.131,0.291,0.246,0.582,0.36,0.873c0.128,0.321,0.247,0.646,0.354,0.974c0.104,0.302,0.194,0.604,0.281,0.92
	c0.097,0.33,0.184,0.669,0.264,1.01c0.072,0.312,0.139,0.626,0.194,0.938c0.062,0.351,0.115,0.697,0.159,1.056
	c0.043,0.326,0.079,0.649,0.104,0.968l0.146,2.258h2.268c8.236,0,14.938-6.699,14.938-14.938v-12.07
	c0-8.229-6.691-14.924-14.925-14.924h-35.255c-1.577,0-2.854-1.279-2.854-2.857v-14.939l-17.849,17.01
	c-0.531,0.509-1.23,0.785-1.973,0.785h-4.954c-8.232,0-14.938,6.694-14.938,14.923v5.771h54.819
	C1099.513,254.507,1100.207,254.543,1100.886,254.612z"/>
<path d="M1172.666,276.9c0.381,6.438,1.791,12.726,4.193,18.683c3.484,8.619,9.074,16.438,16.17,22.604l0.341,0.294l2.492,0.207
	v-43.256h-23.285L1172.666,276.9z"/>
<path d="M1152.86,278.514c1.861,16.405,12.604,30.532,28.041,36.86l5.005,2.054l-3.399-4.208
	c-3.987-4.936-7.188-10.346-9.505-16.075c-2.63-6.521-4.149-13.381-4.521-20.399l-0.07-1.312h-15.801l0.145,1.853
	C1152.783,277.702,1152.816,278.116,1152.86,278.514z"/>
<path d="M1168.481,269.956c0.373-7.015,1.892-13.876,4.521-20.395c2.312-5.731,5.515-11.144,9.495-16.075l3.4-4.208l-5.005,2.053
	c-15.434,6.331-26.177,20.449-28.031,36.84c-0.052,0.416-0.083,0.847-0.116,1.277l-0.143,1.816h15.809L1168.481,269.956z"/>
<path d="M1193.034,228.513c-7.1,6.167-12.688,13.983-16.175,22.607c-2.402,5.958-3.812,12.241-4.197,18.682l-0.088,1.471h23.29
	v-43.256l-2.494,0.201L1193.034,228.513z"/>
<path d="M1222.959,275.433h-23.281v43.256l2.49-0.207l0.341-0.294c7.093-6.167,12.684-13.985,16.169-22.606
	c2.4-5.955,3.813-12.244,4.194-18.683L1222.959,275.433z"/>
<path d="M1242.784,277.284l0.146-1.852h-15.801l-0.069,1.311c-0.369,7.021-1.896,13.881-4.521,20.401
	c-2.316,5.728-5.516,11.138-9.504,16.075l-3.399,4.208l5.005-2.054c15.435-6.328,26.181-20.455,28.038-36.86
	C1242.719,278.116,1242.752,277.702,1242.784,277.284z"/>
<path d="M1227.122,271.267h15.808l-0.144-1.818c-0.034-0.431-0.065-0.861-0.114-1.277c-1.854-16.387-12.604-30.508-28.032-36.838
	l-5.005-2.053l3.398,4.208c3.982,4.933,7.186,10.345,9.5,16.074c2.629,6.518,4.146,13.381,4.521,20.397L1227.122,271.267z"/>
<path d="M1202.166,228.218l-2.492-0.201v43.253h23.287l-0.087-1.47c-0.383-6.438-1.796-12.726-4.196-18.683
	c-3.485-8.622-9.076-16.438-16.176-22.607L1202.166,228.218z"/>
<path d="M1281.574,245.301c0.012-0.122,0.034-0.245,0.058-0.362l0.104-0.672c0.046-0.341,0.093-0.681,0.163-1.016l0.341-1.598h-4.45
	c-6.774,0-12.285,5.511-12.285,12.286v8.687c0,5.146,2.296,9.945,6.302,13.164l0,0l0.098,0.069c0.377,0.3,0.768,0.587,1.168,0.853
	c0.125,0.088,0.255,0.158,0.384,0.232l0.252,0.152c0.232,0.145,0.465,0.283,0.704,0.413c0.166,0.091,0.337,0.171,0.511,0.251
	l0.274,0.135c0.204,0.1,0.409,0.198,0.613,0.284c0.196,0.085,0.396,0.159,0.602,0.233l0.206,0.071
	c0.214,0.08,0.432,0.161,0.656,0.233c0.229,0.068,0.468,0.139,0.775,0.221c0.236,0.062,0.479,0.128,0.715,0.186
	c0.265,0.06,0.524,0.104,0.794,0.149c0.247,0.044,0.493,0.083,0.743,0.116c0.259,0.031,0.521,0.062,0.779,0.078
	c0.259,0.017,0.525,0.033,0.793,0.044c0.162,0.004,0.328,0.007,0.492,0.007c0.076,0,0.153,0,0.231-0.003l0.788-0.032l0.302-0.189
	c0.369-0.236,0.745-0.451,1.143-0.688l0.319-0.188c0.573-0.317,1.159-0.611,1.754-0.881l1.396-0.774l-1.069-1.479
	c-0.358-0.453-0.707-0.914-1.034-1.388c-0.104-0.149-0.207-0.306-0.309-0.46l-0.102-0.152c-0.245-0.367-0.476-0.74-0.697-1.119
	l-0.118-0.201c-0.067-0.113-0.141-0.231-0.208-0.354c-0.291-0.527-0.562-1.064-0.816-1.607l-0.249-0.561
	c-0.212-0.479-0.405-0.961-0.59-1.449l-0.146-0.395c-0.214-0.602-0.396-1.214-0.562-1.828l-0.13-0.499
	c-0.146-0.586-0.275-1.178-0.384-1.771l-0.041-0.203c-0.11-0.658-0.193-1.324-0.256-1.985l-0.042-0.485
	c-0.051-0.682-0.088-1.362-0.088-2.055v-11.255C1281.45,246.798,1281.492,246.049,1281.574,245.301z"/>
<path d="M1272.885,309.616v-10.445c0-0.586,0.027-1.168,0.073-1.75l0.046-0.502c0.043-0.436,0.099-0.869,0.161-1.301l0.07-0.473
	c0.102-0.561,0.21-1.122,0.377-1.77l0.041-0.153c0.123-0.474,0.266-0.944,0.412-1.408l0.17-0.491c0.146-0.418,0.307-0.83,0.477-1.24
	l0.156-0.383c0.229-0.521,0.474-1.031,0.734-1.535l0.18-0.313c0.217-0.397,0.447-0.798,0.688-1.188l0.271-0.432
	c0.259-0.396,0.529-0.785,0.812-1.167l1.312-1.765l-1.892-0.51c-0.146-0.041-0.293-0.092-0.438-0.142l-0.591-0.187
	c-0.188-0.059-0.386-0.114-0.573-0.187c-0.183-0.062-0.355-0.141-0.538-0.214l-0.521-0.212c-0.193-0.079-0.389-0.153-0.576-0.239
	c-0.172-0.078-0.338-0.166-0.504-0.253l-0.528-0.269c-0.183-0.09-0.365-0.184-0.548-0.283c-0.168-0.096-0.334-0.198-0.499-0.307
	l-0.462-0.285c-0.188-0.11-0.367-0.223-0.627-0.396l-0.521-0.356l-0.604,0.18c-6.217,1.844-10.553,7.666-10.553,14.163v8.344
	c0,4.115,3.343,7.468,7.453,7.468h6.538H1272.885L1272.885,309.616z"/>
<path d="M1293.818,276.302l0.161,0.125c0.067,0.056,0.139,0.111,0.301,0.227c2.877,2.225,6.315,3.713,9.938,4.311
	c1.176,0.201,2.421,0.308,3.699,0.308c5.131,0,10.142-1.769,14.108-4.976c5.331-4.274,8.388-10.666,8.388-17.521v-11.258
	c0-9.099-7.404-16.5-16.512-16.5h-11.979c-6.372,0-12.229,3.722-14.922,9.482c-1.05,2.189-1.578,4.552-1.578,7.018v11.255
	C1285.426,265.63,1288.479,272.015,1293.818,276.302z"/>
<path d="M1334.306,247.518v11.255c0,0.688-0.037,1.371-0.088,2.051l-0.043,0.489c-0.062,0.664-0.145,1.33-0.253,1.985l-0.041,0.207
	c-0.104,0.59-0.235,1.182-0.387,1.768l-0.128,0.501c-0.167,0.611-0.354,1.224-0.562,1.828l-0.147,0.392
	c-0.186,0.488-0.376,0.977-0.59,1.447l-0.248,0.559c-0.255,0.545-0.527,1.086-0.818,1.611c-0.067,0.12-0.138,0.238-0.208,0.355
	l-0.118,0.199c-0.226,0.377-0.452,0.752-0.696,1.119l-0.102,0.15c-0.102,0.152-0.199,0.312-0.309,0.46
	c-0.327,0.472-0.677,0.935-1.034,1.382l-1.07,1.479l1.397,0.773c0.596,0.271,1.18,0.562,1.752,0.883l0.32,0.188
	c0.396,0.231,0.771,0.446,1.143,0.685l0.301,0.193l0.79,0.032c0.078,0.002,0.155,0.002,0.231,0.002c0.163,0,0.329-0.002,0.491-0.007
	c0.27-0.008,0.529-0.022,0.794-0.043c0.266-0.021,0.521-0.049,0.778-0.078c0.249-0.033,0.495-0.072,0.743-0.116
	c0.27-0.048,0.529-0.095,0.793-0.153c0.238-0.055,0.479-0.115,0.715-0.182c0.312-0.083,0.548-0.146,0.777-0.223
	c0.229-0.071,0.439-0.151,0.657-0.231l0.205-0.075c0.201-0.074,0.399-0.146,0.599-0.23c0.205-0.088,0.41-0.188,0.614-0.283
	l0.275-0.137c0.172-0.078,0.344-0.158,0.51-0.252c0.24-0.131,0.473-0.271,0.705-0.412l0.252-0.15c0.13-0.07,0.26-0.146,0.384-0.23
	c0.405-0.269,0.795-0.556,1.171-0.854l0.097-0.067l0,0c4.004-3.222,6.299-8.018,6.299-13.162v-8.688
	c0-6.774-5.511-12.29-12.284-12.29h-4.447l0.339,1.604c0.071,0.333,0.116,0.672,0.163,1.011l0.104,0.674
	c0.021,0.12,0.043,0.24,0.057,0.36C1334.269,246.047,1334.312,246.793,1334.306,247.518z"/>
<path d="M1342.875,309.622h6.541c4.112,0,7.453-3.354,7.453-7.467v-8.344c0-6.498-4.336-12.32-10.552-14.163l-0.604-0.181
	l-0.521,0.359c-0.263,0.172-0.444,0.278-0.627,0.394l-0.463,0.286c-0.164,0.104-0.33,0.209-0.502,0.306
	c-0.182,0.101-0.361,0.192-0.548,0.283l-0.527,0.269c-0.166,0.086-0.333,0.174-0.505,0.252c-0.188,0.086-0.386,0.161-0.578,0.24
	l-0.521,0.212c-0.182,0.073-0.354,0.147-0.538,0.212c-0.188,0.069-0.384,0.127-0.572,0.188l-0.589,0.185
	c-0.146,0.047-0.295,0.102-0.438,0.143l-1.888,0.509l1.312,1.765c0.28,0.383,0.558,0.771,0.812,1.168l0.271,0.432
	c0.24,0.39,0.475,0.785,0.688,1.188l0.178,0.312c0.265,0.506,0.511,1.018,0.734,1.537l0.155,0.383
	c0.172,0.41,0.329,0.822,0.479,1.24l0.168,0.49c0.147,0.465,0.29,0.936,0.413,1.408l0.042,0.152
	c0.163,0.646,0.275,1.207,0.376,1.771l0.07,0.472c0.062,0.435,0.118,0.865,0.161,1.303l0.046,0.504
	c0.045,0.581,0.07,1.162,0.07,1.75v10.439v0.004H1342.875z"/>
<path d="M1324.313,279.161l-0.69,0.479c-0.478,0.332-0.968,0.646-1.463,0.938l-0.426,0.234c-0.382,0.223-0.77,0.438-1.161,0.643
	l-0.626,0.304c-0.34,0.159-0.679,0.323-1.021,0.472c-0.228,0.104-0.455,0.188-0.688,0.283c-0.336,0.137-0.679,0.268-1.021,0.386
	c-0.234,0.084-0.475,0.164-0.713,0.243c-0.353,0.109-0.708,0.219-1.062,0.312l-0.693,0.193c-0.396,0.1-0.799,0.186-1.196,0.268
	l-0.6,0.125c-0.601,0.109-1.212,0.209-1.814,0.279c-1.743,0.196-3.595,0.225-5.396,0.075l-0.729-0.083
	c-0.493-0.051-0.986-0.109-1.479-0.188c-0.188-0.027-0.371-0.066-0.556-0.104l-0.296-0.06c-0.444-0.088-0.893-0.18-1.334-0.291
	c-0.266-0.062-0.525-0.139-0.868-0.229c-0.427-0.118-0.853-0.249-1.273-0.392c-0.286-0.096-0.568-0.195-0.857-0.301
	c-0.415-0.154-0.818-0.321-1.334-0.541c-0.242-0.104-0.479-0.209-0.723-0.312c-0.409-0.19-0.812-0.399-1.214-0.614l-0.246-0.127
	c-0.172-0.09-0.343-0.182-0.512-0.271c-0.438-0.246-0.857-0.514-1.284-0.788l-1.385-0.897l-0.954,0.264
	c-0.154,0.035-0.311,0.074-0.479,0.132c-7.449,2.483-12.672,9.146-13.288,16.969c-0.046,0.521-0.063,1.042-0.063,1.563l0.004,11.088
	l0.017,0.188c0.106,5.312,4.526,9.629,9.854,9.629h42.478c5.442,0,9.873-4.43,9.873-9.873v-11.021
	c0-8.586-5.744-16.281-13.96-18.721L1324.313,279.161z"/>
<path d="M1368.173,319.019h78.294c3.754,0,6.806-3.055,6.806-6.807v-59.154c0-3.753-3.052-6.805-6.806-6.805h-78.294
	c-3.757,0-6.807,3.052-6.807,6.805v59.154C1361.366,315.964,1364.416,319.019,1368.173,319.019z M1371.408,282.634
	c0-8.094,6.585-14.68,14.682-14.68h42.457c8.094,0,14.677,6.586,14.677,14.68c0,8.096-6.583,14.681-14.677,14.681h-42.457
	C1377.993,297.316,1371.408,290.731,1371.408,282.634z"/>
<path d="M1386.09,291.659h42.457c4.979,0,9.021-4.05,9.021-9.021c0-4.979-4.048-9.021-9.021-9.021h-42.457
	c-4.979,0-9.021,4.045-9.021,9.021C1377.065,287.61,1381.114,291.659,1386.09,291.659z M1404.489,282.634
	c0-0.74,0.304-1.473,0.822-2.008c0.506-0.504,1.262-0.754,2.012-0.754c0.743,0,1.483,0.244,1.985,0.738
	c0.531,0.551,0.837,1.281,0.837,2.021c0,0.732-0.302,1.461-0.822,2.004c-1.096,1.057-2.967,1.02-3.998,0.015
	C1404.793,284.106,1404.489,283.374,1404.489,282.634z M1426.853,284.635L1426.853,284.635c-1.025,1.024-2.944,1.044-3.992,0
	c-0.531-0.534-0.842-1.267-0.842-2c0-0.74,0.309-1.47,0.842-2.007c0.484-0.481,1.218-0.76,2.006-0.76h0.007
	c0.783,0.004,1.499,0.274,1.979,0.764c0.521,0.521,0.821,1.253,0.821,2.003C1427.677,283.38,1427.377,284.112,1426.853,284.635z
	 M1387.783,280.626c0.48-0.481,1.209-0.764,1.999-0.764c0.002,0,0.006,0,0.013,0c0.775,0.006,1.497,0.274,1.978,0.764
	c0.535,0.535,0.844,1.268,0.844,2.008c0,0.732-0.307,1.465-0.844,2.001c-1.048,1.049-2.928,1.038-3.985,0
	c-0.523-0.522-0.824-1.255-0.824-2.001C1386.959,281.882,1387.26,281.153,1387.783,280.626z"/>
<path d="M1433.691,240.6v-10.204c0-14.54-11.83-26.377-26.374-26.377c-14.545,0-26.375,11.837-26.375,26.377v10.203h9.424v-10.203
	c0-9.346,7.604-16.946,16.951-16.946c9.347,0,16.947,7.602,16.947,16.946v10.203L1433.691,240.6L1433.691,240.6z"/>
<g>
	<g>
		<path d="M1681.104,242.548c0-14.1-11.432-25.531-25.527-25.531c-14.098,0-25.527,11.43-25.527,25.531
			c0,1.165,0.104,2.302,0.256,3.425l25.271,4.552l25.271-4.552C1680.998,244.851,1681.104,243.713,1681.104,242.548z"/>
		<path d="M1701.485,266.747v-21.729L1658,252.851v53.122l43.485-7.832v-13.365"/>
		<path d="M1610,284.773v13.366l43.486,7.832v-53.119L1610,245.019v21.729"/>
	</g>
	<path d="M1608.093,280.757v-13.469l-1.438,0.021c-1.773,0.021-3.438,0.715-4.664,1.953c-1.279,1.271-1.982,2.962-1.982,4.768
		c0,3.662,2.979,6.684,6.646,6.721L1608.093,280.757z"/>
	<path d="M1705.442,267.305l-1.439-0.017v13.469l1.439-0.018c1.772-0.021,3.437-0.721,4.662-1.953
		c1.275-1.271,1.98-2.959,1.98-4.769C1712.089,270.357,1709.104,267.343,1705.442,267.305z"/>
	
		<rect x="1655.109" y="307.3" transform="matrix(-0.9842 0.1772 -0.1772 -0.9842 3387.0042 318.8868)" width="48.309" height="6.739"/>
	<rect x="1608.2" y="307.319" transform="matrix(0.9842 0.1772 -0.1772 0.9842 80.8923 -284.3611)" width="48.574" height="6.777"/>
</g>
<polygon points="2095.011,301.407 2061.774,268.171 2094.011,235.933 2075.096,217.017 2042.858,249.255 2010.927,217.32 
	1992.011,236.236 2023.944,268.171 1991.011,301.103 2009.927,320.019 2042.858,287.085 2076.096,320.323 "/>
<polygon points="1836.004,253.382 1799.513,253.382 1799.513,217.017 1772.494,217.017 1772.494,253.382 1736.004,253.382 
	1736.004,280.655 1772.494,280.655 1772.494,317.019 1799.513,317.019 1799.513,280.655 1836.004,280.655 "/>
<rect x="2244.51" y="-424.951" transform="matrix(-0.7071 0.7071 -0.7071 -0.7071 3642.0859 -2331.7556)" width="118.911" height="26.749"/>
<rect x="2245.54" y="-424.643" transform="matrix(0.7071 0.7071 -0.7071 0.7071 384.3071 -1750.3357)" width="118.911" height="26.749"/>
<rect x="2018.033" y="-483.025" width="102" height="101.998"/>
<polygon fill="none" stroke="#000000" stroke-width="22" stroke-miterlimit="10" points="1926.45,-104.206 1882.688,-176.206 
	1838.921,-104.206 "/>
<g>
	<g>
		<polygon points="2154.119,287.019 2186,318.899 2186,217.017 2122,217.017 2122,319.137 		"/>
	</g>
</g>
<polygon points="1482.661,-180.965 1466.905,-196.719 1430.948,-160.764 1394.76,-196.951 1379.005,-181.197 1415.192,-145.008 
	1379.005,-108.823 1394.758,-93.067 1430.948,-129.255 1466.907,-93.298 1482.661,-109.054 1446.704,-145.008 "/>
<g>
	<rect x="1568.039" y="-191.951" width="22" height="92.998"/>
	<rect x="1532.539" y="-156.951" width="93" height="22"/>
</g>
<circle fill="none" stroke="#000000" stroke-width="22" stroke-miterlimit="10" cx="1279.257" cy="-145.259" r="38.684"/>
<rect x="2353.674" y="-180.453" fill="none" stroke="#000000" stroke-width="22" stroke-miterlimit="10" width="71" height="71"/>
<polyline fill="none" stroke="#000000" stroke-width="22" stroke-miterlimit="10" points="1802.149,-411.591 1852.354,-461.796 
	1902.56,-411.591 "/>
<rect x="1466.501" y="-665.946" transform="matrix(-0.7071 0.7071 -0.7071 -0.7071 2118.2529 -2138.3259)" fill="none" stroke="#000000" stroke-width="22" stroke-miterlimit="10" width="70.999" height="70.999"/>
<polygon fill="none" stroke="#000000" stroke-width="22" stroke-miterlimit="10" points="1106.163,-109.943 1085.957,-144.943 
	1106.163,-179.943 1146.575,-179.943 1166.782,-144.943 1146.575,-109.943 "/>
<rect x="1676.59" y="-156.953" width="93" height="22"/>
<rect x="2079.274" y="-200.967" transform="matrix(0.7071 0.7071 -0.7071 0.7071 511.2231 -1519.8845)" width="22" height="116.251"/>
<g>
	<polygon points="721.739,-369.622 721.739,-342.367 721.739,-305.411 721.739,-274.419 769.475,-322.017 	"/>
	<rect x="657.652" y="-340.222" width="64.086" height="36.412"/>
</g>
<polyline points="2025.028,-156.949 2072.468,-109.511 2056.913,-93.956 1994.015,-156.85 "/>
<rect x="1618.573" y="-482.529" fill="none" stroke="#000000" stroke-width="22" stroke-miterlimit="10" width="71" height="71"/>
<polygon fill="none" stroke="#000000" stroke-width="22" stroke-miterlimit="10" points="143.708,2.467 114.868,-26.371 
	97.897,-9.401 80.929,-26.371 52.089,2.467 97.874,48.251 97.897,48.227 97.923,48.251 "/>
<polygon points="2292.704,-109.416 2271.21,-130.909 2271.21,-130.91 2238.114,-164.005 2221.702,-180.417 2221.702,-180.416 
	2221.565,-180.551 2189.11,-180.449 2207.214,-162.347 2276.425,-93.137 "/>
<polygon points="2189.11,-109.416 2210.604,-130.909 2210.603,-130.91 2243.7,-164.005 2260.11,-180.417 2260.11,-180.416 
	2260.247,-180.551 2292.702,-180.449 2274.601,-162.347 2205.39,-93.137 "/>
<polyline points="1710.758,-611.738 1758.199,-564.3 1742.644,-548.745 1679.743,-611.64 "/>
<rect x="1728.298" y="-618.858" transform="matrix(-0.7071 0.7071 -0.7071 -0.7071 2567.8374 -2198.814)" width="22" height="102.511"/>
<path d="M990.334-171.676c0-14.099-11.43-25.53-25.525-25.53c-14.099,0-25.527,11.429-25.527,25.53c0,1.165,0.104,2.302,0.256,3.425
	l25.271,4.551l25.27-4.551C990.229-169.373,990.334-170.511,990.334-171.676z"/>
<g>
	<path d="M917.873-132.206v-13.469l-1.438,0.021c-1.774,0.021-3.438,0.715-4.665,1.953c-1.279,1.271-1.982,2.962-1.982,4.768
		c0,3.662,2.979,6.684,6.647,6.721L917.873-132.206z"/>
	<path d="M1015.22-145.658l-1.439-0.017v13.469l1.439-0.018c1.772-0.021,3.436-0.72,4.662-1.953c1.275-1.271,1.98-2.959,1.98-4.768
		C1021.866-142.605,1018.88-145.62,1015.22-145.658z"/>
	<polygon points="964.952,-93.697 1012.796,-102.376 1011.445,-109.825 964.871,-101.377 918.296,-109.825 916.944,-102.376 
		964.79,-93.697 964.794,-93.669 964.871,-93.682 964.947,-93.669 	"/>
</g>
<path d="M820.928-115.638c0-14.098-11.432-25.529-25.527-25.529c-14.098,0-25.527,11.429-25.527,25.529
	c0,1.166,0.104,2.303,0.256,3.426l25.271,4.551l25.271-4.551C820.822-113.334,820.928-114.472,820.928-115.638z"/>
<path d="M848.154-140.486c0.098-1.308,0.164-2.625,0.164-3.958h-0.021c-0.221-28.984-23.86-52.499-52.895-52.499
	c-29.034,0-52.671,23.514-52.892,52.499h-0.002c0,0.017,0.001,0.034,0.001,0.05c-0.001,0.12-0.009,0.238-0.009,0.357h0.018
	c0.009,1.192,0.065,2.372,0.153,3.544c-7.439,4.413-12.43,12.52-12.43,21.798c0,11.351,7.468,20.959,17.759,24.179v-29.899h6v30.999
	c0.521,0.032,1.043,0.053,1.572,0.053c2.428,0,4.775-0.34,7-0.979v-48.705c-2.225-0.638-4.572-0.979-7-0.979
	c-0.529,0-1.052,0.021-1.572,0.053v5.828c-0.31-2.043-0.488-4.128-0.491-6.255c0.197-22.939,18.911-41.543,41.894-41.543
	c23.087,0,41.873,18.769,41.904,41.85c-0.017,2.058-0.193,4.078-0.499,6.056v-5.937c-0.52-0.032-1.041-0.053-1.568-0.053
	c-2.427,0-4.775,0.342-7,0.979v48.705c2.225,0.64,4.572,0.979,7,0.979c0.527,0,1.049-0.021,1.568-0.053v-30.999h6v29.901
	c10.293-3.218,17.763-12.828,17.763-24.181C860.57-127.967,855.586-136.071,848.154-140.486z"/>
<g>
	<g>
		<path d="M671.296-143.193c-1.489,3.045-3.135,5.965-4.953,8.777c-0.204,0.307-0.407,0.63-0.611,0.937
			c-0.361,0.559,0.784-1.135,0.251-0.378c-0.094,0.144-0.188,0.271-0.281,0.414c-0.487,0.721-1.003,1.424-1.506,2.109
			c-0.955,1.279-1.942,2.541-2.961,3.749c-2.086,2.487-4.312,4.83-6.662,6.993c-0.268,0.253-0.533,0.487-0.801,0.721
			c-0.471,0.433,1.004-0.883,0.33-0.288c-0.126,0.107-0.235,0.216-0.36,0.306c-0.627,0.541-1.27,1.082-1.93,1.604
			c-1.206,0.974-2.429,1.894-3.698,2.775c-2.916,2.037-5.957,3.822-9.092,5.336c0.377-0.18,0.754-0.361,1.13-0.541
			c-5.548,2.667-11.381,4.506-17.353,5.442c0.424-0.072,0.831-0.126,1.254-0.198c-6.145,0.936-12.384,0.936-18.543,0
			c0.423,0.072,0.83,0.125,1.254,0.198c-5.974-0.937-11.805-2.776-17.354-5.442c0.376,0.18,0.753,0.36,1.13,0.541
			c-2.791-1.352-5.504-2.921-8.121-4.668c-1.269-0.848-2.508-1.749-3.731-2.704c-0.595-0.469-1.176-0.937-1.755-1.406
			c-0.298-0.251-0.611-0.504-0.91-0.775c-0.125-0.108-0.235-0.216-0.359-0.306c-0.126-0.108-0.235-0.216-0.361-0.306
			c0.205,0.181,0.392,0.36,0.596,0.522c-2.414-2.036-4.656-4.433-6.755-6.866c-1.036-1.19-2.038-2.433-3.011-3.695
			c-0.47-0.613-0.94-1.244-1.396-1.875c-0.235-0.342-0.485-0.667-0.72-1.009c-0.094-0.144-0.188-0.271-0.282-0.415
			c-0.095-0.145-0.189-0.271-0.283-0.415c0.157,0.235,0.298,0.451,0.455,0.686c-2.164-2.992-3.982-6.435-5.628-9.805
			c0,1.82,0,3.641,0,5.461c1.489-3.045,3.135-5.966,4.953-8.778c0.205-0.306,0.407-0.63,0.612-0.936
			c0.361-0.56-0.784,1.135-0.251,0.378c0.094-0.144,0.188-0.27,0.282-0.415c0.487-0.721,1.003-1.424,1.505-2.109
			c0.956-1.279,1.943-2.541,2.962-3.749c2.085-2.487,4.311-4.83,6.663-6.993c0.267-0.253,0.533-0.487,0.8-0.721
			c0.47-0.433-1.004,0.882-0.331,0.288c0.126-0.108,0.235-0.217,0.361-0.307c0.627-0.541,1.269-1.082,1.929-1.604
			c1.207-0.974,2.43-1.893,3.699-2.776c2.916-2.037,5.957-3.821,9.092-5.335c-0.376,0.18-0.753,0.361-1.129,0.541
			c5.549-2.668,11.381-4.506,17.354-5.443c-0.424,0.071-0.832,0.126-1.254,0.198c6.144-0.938,12.383-0.938,18.543,0
			c-0.423-0.072-0.83-0.127-1.254-0.198c5.972,0.937,11.803,2.774,17.353,5.443c-0.377-0.18-0.753-0.361-1.13-0.541
			c2.791,1.352,5.504,2.919,8.121,4.668c1.27,0.847,2.508,1.748,3.73,2.703c0.595,0.469,1.177,0.938,1.755,1.406
			c0.299,0.253,0.612,0.505,0.911,0.775c0.124,0.108,0.234,0.216,0.358,0.306c0.127,0.109,0.236,0.217,0.361,0.307
			c-0.204-0.18-0.392-0.361-0.596-0.522c2.414,2.018,4.656,4.434,6.755,6.867c1.035,1.189,2.038,2.433,3.011,3.695
			c0.47,0.613,0.94,1.244,1.396,1.875c0.234,0.342,0.485,0.666,0.72,1.009c0.094,0.144,0.188,0.27,0.281,0.415
			c0.095,0.144,0.188,0.27,0.282,0.414c-0.156-0.234-0.298-0.451-0.455-0.685c2.164,2.993,3.982,6.435,5.628,9.823
			c1.207,2.469,4.326,3.497,6.427,1.946c2.164-1.604,2.979-4.758,1.693-7.39c-5.079-10.381-11.992-19.357-20.205-26.602
			c-7.931-6.993-17.196-12.094-26.898-14.797c-10.471-2.92-21.396-3.136-31.962-0.775c-9.86,2.217-19.407,6.921-27.604,13.572
			c-8.434,6.776-15.598,15.428-21.038,25.521c-1.065,1.965-2.397,4.092-2.116,6.489c0.22,1.875,1.38,3.677,2.243,5.28
			c1.363,2.523,2.868,4.939,4.452,7.299c3.024,4.506,6.395,8.688,10.157,12.4c7.87,7.787,17.008,13.698,26.932,17.212
			c10.095,3.569,20.849,4.453,31.303,2.849c10.173-1.569,20.049-5.587,28.763-11.823c8.778-6.273,16.286-14.6,22.211-24.314
			c1.348-2.218,2.603-4.506,3.746-6.868c1.207-2.469,0.58-6.02-1.692-7.39C675.513-146.493,672.581-145.825,671.296-143.193z"/>
	</g>
</g>
<path d="M589.264-149.944c0,14.098,11.431,25.529,25.526,25.529c14.098,0,25.527-11.429,25.527-25.529
	c0-1.166-0.104-2.303-0.256-3.426l-25.271-4.551l-25.27,4.551C589.371-152.248,589.264-151.11,589.264-149.944z"/>
<polygon fill="none" stroke="#000000" stroke-width="22" stroke-miterlimit="10" points="984.599,-290.014 1037.238,-322.006 
	984.599,-354.005 "/>
<rect x="930.976" y="-340.118" fill="none" stroke="#000000" stroke-width="22" stroke-miterlimit="10" width="53.086" height="36.218"/>
<g>
	<g>
		<path d="M1045.637-462.007c-10.25,0-19.533,4.145-26.266,10.848l26.093,26.023l-26.452,26.376
			c6.76,6.918,16.188,11.218,26.624,11.218c20.564,0,37.234-16.669,37.234-37.233
			C1082.871-445.337,1066.202-462.007,1045.637-462.007z"/>
	</g>
</g>
<path d="M1019.01-433.5c0-11.861-9.645-21.503-21.5-21.503c-11.857,0-21.5,9.643-21.5,21.503"/>
<path d="M976.01-415.995c0,11.85,9.645,21.492,21.5,21.492c11.854,0,21.5-9.643,21.5-21.492"/>
<circle cx="844.617" cy="-478.779" r="24.813"/>
<g>
	<g>
		<path d="M894.098-503.592c-6.832,0-13.018,2.762-17.505,7.229l17.39,17.343l-17.628,17.579c4.505,4.61,10.789,7.476,17.744,7.476
			c13.705,0,24.814-11.109,24.814-24.814C918.913-492.483,907.803-503.592,894.098-503.592z"/>
	</g>
</g>
<circle cx="894.026" cy="-544.78" r="24.814"/>
<g>
	<g>
		<path d="M844.66-545.02l17.39-17.343c-4.487-4.467-10.673-7.229-17.505-7.229c-13.705,0-24.814,11.109-24.814,24.813
			c0,13.705,11.109,24.814,24.814,24.814c6.955,0,13.238-2.866,17.744-7.476L844.66-545.02z"/>
	</g>
</g>
<polyline fill="#FFFFFF" points="867.285,-382.777 892.479,-407.898 867.767,-432.542 "/>
<polyline fill="#FFFFFF" points="870.479,-432.542 870.479,-433.594 845.285,-408.47 869.998,-383.829 869.998,-382.777 "/>
<g>
	<g>
		<path d="M844.544-436.471c-13.704,0-24.813,11.109-24.813,24.813c0,13.705,11.109,24.814,24.813,24.814
			c6.16,0,11.793-2.246,16.129-5.962l-16.38-16.38l18.867-18.867C858.615-433.213,851.962-436.471,844.544-436.471z
			 M894.025-436.471c-7.417,0-14.07,3.257-18.615,8.417l18.868,18.868l-16.381,16.381c4.336,3.716,9.969,5.962,16.128,5.962
			c13.705,0,24.814-11.109,24.814-24.814C918.84-425.361,907.73-436.471,894.025-436.471z"/>
	</g>
</g>
<rect x="8.513" y="-535.214" width="76.73" height="11"/>
<rect x="8.513" y="-535.215" width="11" height="97.684"/>
<path d="M36.486-510.426v83.336l48.748-24.748v-83.336L36.486-510.426z M48.349-460.728c-1.226,1.233-2.889,1.932-4.662,1.953
	l-1.439,0.018v-13.469l1.439,0.017c3.66,0.038,6.645,3.053,6.642,6.713C50.329-463.687,49.624-461.999,48.349-460.728z"/>
<path d="M1330.413-801.723c-27.396,0-49.684,22.288-49.684,49.684s22.288,49.684,49.684,49.684
	c27.396,0,49.685-22.288,49.685-49.684S1357.81-801.723,1330.413-801.723z"/>
<g>
	<path d="M246.282-149.022h-38.873c-0.2,1.807-0.312,3.641-0.312,5.5s0.111,3.693,0.312,5.5h38.873V-149.022z"/>
	<g>
		<path d="M256.781-193.206c-21.613,0-40.036,13.876-46.855,33.184h47.356v33h-47.356c6.819,19.308,25.243,33.184,46.855,33.184
			c27.396,0,49.685-22.288,49.685-49.684S284.178-193.206,256.781-193.206z"/>
		<rect x="197.944" y="-149.022" width="48.045" height="11"/>
	</g>
</g>
<g>
	<g>
		<path d="M455.57-181.084c-11.587,0-22.08,4.685-29.691,12.263l29.497,29.417l-29.902,29.816
			c7.642,7.821,18.299,12.682,30.096,12.682c23.247,0,42.091-18.844,42.091-42.09C497.661-162.24,478.816-181.084,455.57-181.084z"
			/>
	</g>
</g>
<g>
	<g>
		<path d="M373.312-126.68v-24.135h42.486v-25.876c-5.341-2.538-11.314-3.962-17.622-3.962c-22.704,0-41.111,18.406-41.111,41.11
			c0,22.708,18.408,41.114,41.111,41.114c6.307,0,12.28-1.424,17.622-3.962v-24.288H373.312z"/>
	</g>
</g>
<path fill="none" stroke="#000000" stroke-width="11" stroke-miterlimit="10" d="M1450.382-503.583
	c-21.612,0-40.035,13.876-46.855,33.184h47.356v33h-47.356c6.82,19.308,25.243,33.184,46.855,33.184
	c27.396,0,49.686-22.288,49.686-49.684S1477.778-503.583,1450.382-503.583z"/>
<polyline fill="none" stroke="#000000" stroke-width="22" stroke-miterlimit="10" points="1233.354,-263.209 1189.594,-335.209 
	1145.825,-263.209 "/>
<path fill="none" stroke="#000000" stroke-width="22" stroke-miterlimit="10" d="M1233.354-263.209"/>
<path fill="none" stroke="#000000" stroke-width="22" stroke-miterlimit="10" d="M1145.825-263.209"/>
<g>
	<g>
		<path d="M583.209-341.857c-13.551,0-25.821,5.479-34.722,14.341l34.494,34.401l-34.968,34.868
			c8.937,9.146,21.4,14.831,35.195,14.831c27.185,0,49.222-22.037,49.222-49.221C632.431-319.821,610.394-341.857,583.209-341.857z"
			/>
	</g>
</g>
<g>
	<g>
		<path d="M501.465-282.082v-21.488h34.375v-24.461c-3.828-1.358-7.945-2.104-12.239-2.104c-20.212,0-36.601,16.387-36.601,36.6
			c0,20.216,16.389,36.603,36.601,36.603c4.293,0,8.411-0.746,12.239-2.104v-23.046H501.465z"/>
	</g>
</g>
<g>
	<g>
		<path d="M402.597-321.831c-10.25,0-19.532,4.145-26.265,10.848l26.093,26.023l-26.452,26.376
			c6.76,6.918,16.188,11.218,26.624,11.218c20.564,0,37.234-16.67,37.234-37.233C439.831-305.161,423.161-321.831,402.597-321.831z"
			/>
	</g>
</g>
<g>
	<g>
		<path d="M324.267-273.604v-22h44.727v-20.009c-6.19-4.517-13.812-7.189-22.062-7.189c-20.694,0-37.473,16.777-37.473,37.472
			c0,20.698,16.779,37.475,37.473,37.475c8.25,0,15.873-2.672,22.062-7.189v-18.56H324.267z"/>
	</g>
</g>
<rect x="71.994" y="-186.206" fill="none" stroke="#000000" stroke-width="22" stroke-miterlimit="10" width="60" height="60"/>
<polyline fill="none" stroke="#000000" stroke-width="11" stroke-miterlimit="10" points="375.403,-526.003 446.403,-526.003 
	446.403,-455.003 "/>
<polygon points="247.699,-41.634 230.729,-24.664 213.761,-41.634 169.363,2.76 222.927,56.323 230.805,64.153 236.042,58.813 
	292.096,2.76 "/>
<polyline fill="none" stroke="#000000" stroke-width="11" stroke-miterlimit="10" points="114.998,-99.206 43.998,-99.206 
	43.998,-170.206 "/>
<g>
	<path d="M397.054,15.069H369.73c4.632,13.115,14.622,23.717,27.324,29.173V15.069z"/>
	<path d="M397.054-47.104c-12.703,5.456-22.692,16.059-27.324,29.173h27.324V-47.104z"/>
	<path d="M416.585-51.115c-5.696,0-11.166,0.972-16.265,2.745l46.939,46.939L400.32,45.508c5.099,1.773,10.569,2.745,16.265,2.745
		c27.396,0,49.685-22.288,49.685-49.684S443.982-51.115,416.585-51.115z"/>
</g>
<path d="M585.057-17.931h35.192c-6.819-19.308-25.243-33.184-46.855-33.184c-27.396,0-49.685,22.288-49.685,49.684
	s22.288,49.684,49.685,49.684c21.612,0,40.036-13.876,46.855-33.184h-35.192V-17.931z"/>
</svg>
