<?xml version="1.0" encoding="utf-8"?>
<!-- Generator: Adobe Illustrator 15.0.2, SVG Export Plug-In . SVG Version: 6.00 Build 0)  -->
<!DOCTYPE svg PUBLIC "-//W3C//DTD SVG 1.1//EN" "http://www.w3.org/Graphics/SVG/1.1/DTD/svg11.dtd">
<svg version="1.1" id="Ebene_1" xmlns="http://www.w3.org/2000/svg" xmlns:xlink="http://www.w3.org/1999/xlink" x="0px" y="0px"
	 width="140px" height="140px" viewBox="0 0 140 140" enable-background="new 0 0 140 140" xml:space="preserve">
<path d="M61.62,43C34.493,43,10.529,59.312,0.568,84.562L0,85.999l0.568,1.439C10.525,112.687,34.491,129,61.618,129
	s51.09-16.312,61.049-41.56l0.566-1.439l-0.566-1.437C112.708,59.315,88.745,43.001,61.62,43z M114.321,87.069
	c-9.286,20.712-29.972,34.094-52.703,34.094c-22.729,0-43.417-13.382-52.703-34.096l-0.479-1.068l0.479-1.069
	c9.287-20.711,29.974-34.092,52.703-34.092c22.729,0.001,43.416,13.383,52.703,34.095l0.477,1.068L114.321,87.069z"/>
<path d="M62.001,62.179c-13.135,0-23.822,10.686-23.822,23.821c0,13.135,10.688,23.818,23.822,23.818S85.822,99.134,85.822,86
	C85.822,72.864,75.136,62.179,62.001,62.179z"/>
</svg>
