<?xml version="1.0" encoding="utf-8"?>
<!-- Generator: Adobe Illustrator 15.0.2, SVG Export Plug-In . SVG Version: 6.00 Build 0)  -->
<!DOCTYPE svg PUBLIC "-//W3C//DTD SVG 1.1//EN" "http://www.w3.org/Graphics/SVG/1.1/DTD/svg11.dtd">
<svg version="1.1" id="Ebene_1" xmlns="http://www.w3.org/2000/svg" xmlns:xlink="http://www.w3.org/1999/xlink" x="0px" y="0px"
	 width="96px" height="96px" viewBox="0 0 96 96" enable-background="new 0 0 96 96" xml:space="preserve">
<path d="M4.81,76.285c-2.296,1.97-2.425,5.33-0.287,7.47l8.722,8.722c2.14,2.138,5.5,2.009,7.47-0.287l33.924-39.578
	c3.463,1.842,7.415,2.889,11.611,2.889c13.669,0,24.75-11.081,24.75-24.75c0-2.5-0.372-4.914-1.062-7.188L75.639,37.861
	c-2.14,2.139-5.64,2.139-7.779,0l-8.721-8.722c-2.14-2.139-2.14-5.639,0-7.778L73.438,7.062C71.162,6.372,68.749,6,66.249,6
	c-13.669,0-24.75,11.081-24.75,24.75c0,4.196,1.046,8.148,2.889,11.611L4.81,76.285L4.81,76.285z"/>
</svg>
