<?xml version="1.0" encoding="utf-8"?>
<!-- Generator: Adobe Illustrator 15.0.2, SVG Export Plug-In . SVG Version: 6.00 Build 0)  -->
<!DOCTYPE svg PUBLIC "-//W3C//DTD SVG 1.1//EN" "http://www.w3.org/Graphics/SVG/1.1/DTD/svg11.dtd">
<svg version="1.1" id="Ebene_1" xmlns="http://www.w3.org/2000/svg" xmlns:xlink="http://www.w3.org/1999/xlink" x="0px" y="0px"
	 width="96px" height="96px" viewBox="0 0 96 96" enable-background="new 0 0 96 96" xml:space="preserve">
<g>
	<g>
		<path d="M68.066,6h-40.06C25.226,6,23,8.226,23,11.008v77.985C23,91.775,25.226,94,28.007,94h40.06
			c2.781,0,5.008-2.225,5.008-5.007V11.008C73.074,8.226,70.848,6,68.066,6z M42.194,11.1h11.498c0.928,0,1.67,0.742,1.67,1.669
			c0,0.927-0.742,1.669-1.67,1.669H42.194c-0.927,0-1.669-0.742-1.669-1.669C40.525,11.842,41.268,11.1,42.194,11.1z M48.036,88.622
			c-2.318,0-4.265-1.854-4.265-4.173s1.854-4.172,4.265-4.172c2.318,0,4.173,1.854,4.173,4.172S50.354,88.622,48.036,88.622z
			 M66.581,74.807h-37.09v-55.36h37.09V74.807z"/>
	</g>
</g>
<g>
	<path d="M47,55.5c-4.136,0-7.5-3.364-7.5-7.5s3.364-7.5,7.5-7.5s7.5,3.364,7.5,7.5S51.136,55.5,47,55.5z M47,45.5
		c-1.378,0-2.5,1.122-2.5,2.5c0,1.379,1.122,2.5,2.5,2.5s2.5-1.121,2.5-2.5C49.5,46.622,48.378,45.5,47,45.5z"/>
</g>
</svg>
