<?xml version="1.0" encoding="utf-8"?>
<!-- Generator: Adobe Illustrator 15.0.2, SVG Export Plug-In . SVG Version: 6.00 Build 0)  -->
<!DOCTYPE svg PUBLIC "-//W3C//DTD SVG 1.1//EN" "http://www.w3.org/Graphics/SVG/1.1/DTD/svg11.dtd">
<svg version="1.1" id="Ebene_1" xmlns="http://www.w3.org/2000/svg" xmlns:xlink="http://www.w3.org/1999/xlink" x="0px" y="0px"
	 width="120px" height="96px" viewBox="0 0 120 96" enable-background="new 0 0 120 96" xml:space="preserve">
<path d="M117.525,8.855c-5.33,2.756-11.021,4.092-17.403,4.092c-5.75,0-11.611-1.125-17.424-2.506V9.489V7.012
	c0-0.806-0.541-1.516-1.322-1.721c-0.538-0.144-1.08-0.288-1.618-0.429C71.465,2.717,62.891,0.5,54.332,0.5
	c-5.4,0-10.356,0.901-15.038,2.701v4.628h-9.467v71.919l10.078-2.133v9.9l-10.078,2.131V80.09
	c-9.233,2.043-19.813,3.836-29.327,5.448l0.8,4.728l0.341,2.019l0.458,2.71c9.922-1.682,19.364-3.283,27.728-5.066v5.854h10.078
	v-8.258c4.266-1.155,8.069-2.414,11.307-3.821C52.671,91,59.111,96.5,66.838,96.5c8.805,0,15.941-7.137,15.941-15.939
	c0-8.802-7.137-15.938-15.941-15.938c-5.074,0-9.588,2.381-12.507,6.078l-0.32-0.097l-1.163,1.16
	c-2.131,2.127-6.837,4.051-12.942,5.809V56.734c4.47-1.836,9.205-2.799,14.427-2.799c7.78,0,15.792,2.002,23.579,4.014v0.99v0.428
	v2.062c0,0.816,0.559,1.532,1.354,1.731c6.721,1.661,14.086,3.214,20.857,3.214c7.002,0,13.26-1.471,19.131-4.503l1.018-0.526V7.437
	L117.525,8.855z M79.292,39.49c-4.276-1.556-8.678-2.615-13.119-3.149c0,5.006,0,10.017,0,15.024
	c-3.928-0.719-7.882-1.203-11.83-1.203c-0.755,0.004-1.474,0.064-2.208,0.1c0-4.64,0-9.281,0-13.92
	c-4.14,0.496-8.23,1.471-12.229,2.855V22.649c3.999-1.386,8.09-2.358,12.229-2.854c0-5.141,0-10.286,0-15.426
	c0.734-0.038,1.45-0.105,2.204-0.105c3.903,0,7.869,0.51,11.834,1.265c0,4.756,0,9.509,0,14.266c-4.664-0.562-9.374-0.562-14.038,0
	c0,5.514,0,11.029,0,16.546c4.664-0.565,9.374-0.565,14.038,0c0-5.513,0-11.032,0-16.545c4.44,0.535,8.843,1.593,13.119,3.149V39.49
	z M116.505,44.689c-3.305,1.024-6.666,1.748-10.062,2.152c0-5.274,0-10.552,0-15.826c-4.473,0.539-8.99,0.539-13.459,0
	c0,5.274,0,10.552,0,15.826c4.469,0.539,8.981,0.539,13.455,0c0,5.083,0,10.166,0,15.249c-2.039,0.318-4.123,0.526-6.316,0.526
	c-2.741-0.003-5.512-0.272-8.286-0.688c0-5.029,0-10.062,0-15.09c-3.073-0.356-6.128-0.966-9.138-1.785V28.785
	c3.373,1.064,6.812,1.812,10.285,2.23c0-4.935,0-9.873,0-14.809c2.375,0.302,4.757,0.511,7.139,0.511
	c2.184,0,4.271-0.192,6.316-0.483c0,4.929,0,9.853,0,14.781c3.393-0.408,6.762-1.127,10.065-2.152V44.689z"/>
</svg>
