<?xml version="1.0" encoding="utf-8"?>
<!-- Generator: Adobe Illustrator 15.0.2, SVG Export Plug-In . SVG Version: 6.00 Build 0)  -->
<!DOCTYPE svg PUBLIC "-//W3C//DTD SVG 1.1//EN" "http://www.w3.org/Graphics/SVG/1.1/DTD/svg11.dtd">
<svg version="1.1" id="Ebene_1" xmlns="http://www.w3.org/2000/svg" xmlns:xlink="http://www.w3.org/1999/xlink" x="0px" y="0px"
	 width="96px" height="96px" viewBox="0 0 96 96" enable-background="new 0 0 96 96" xml:space="preserve">
<path d="M15,4v91h64.953V4H15z M22.634,40.225h18.194c0.76,0,1.386,0.896,1.386,2c0,1.1-0.624,1.996-1.386,1.996H22.634
	c-0.764,0-1.386-0.896-1.386-1.996C21.249,41.122,21.869,40.225,22.634,40.225z M21.249,34.422c0-1.104,0.621-2,1.386-2h18.194
	c0.76,0,1.386,0.896,1.386,2c0,1.1-0.624,1.996-1.386,1.996H22.634C21.871,36.417,21.249,35.522,21.249,34.422z M22.634,48.027
	h18.194c0.76,0,1.386,0.896,1.386,2c0,1.101-0.624,1.996-1.386,1.996H22.634c-0.764,0-1.386-0.896-1.386-1.996
	C21.249,48.923,21.869,48.027,22.634,48.027z M22.634,55.83h18.194c0.76,0,1.386,0.896,1.386,2c0,1.102-0.624,1.996-1.386,1.996
	H22.634c-0.764,0-1.386-0.896-1.386-1.996C21.249,56.727,21.869,55.83,22.634,55.83z M47.476,86.357H21.249V66.756h26.228
	L47.476,86.357z M47.476,59.689V32.096H59.6v27.593H47.476z M73.458,86.357H55.266c-0.765,0-1.388-0.896-1.388-1.996
	c0-1.104,0.621-2,1.388-2h18.192c0.765,0,1.388,0.896,1.388,2C74.846,85.462,74.223,86.357,73.458,86.357z M73.458,78.555H55.266
	c-0.765,0-1.388-0.896-1.388-1.996c0-1.104,0.621-2,1.388-2h18.192c0.765,0,1.388,0.896,1.388,2
	C74.846,77.656,74.223,78.555,73.458,78.555z M73.458,70.751H55.266c-0.765,0-1.388-0.896-1.388-1.996
	c0-1.104,0.621-1.999,1.388-1.999h18.192c0.765,0,1.388,0.896,1.388,1.999C74.846,69.854,74.223,70.751,73.458,70.751z
	 M74.846,59.689H62.721V32.096h12.125V59.689z M74.846,27.479h-27.37v-4.681h27.37V27.479z M74.846,18.308H20.107V7.901h54.739
	V18.308z"/>
</svg>
