<?xml version="1.0" encoding="utf-8"?>
<!-- Generator: Adobe Illustrator 15.0.2, SVG Export Plug-In . SVG Version: 6.00 Build 0)  -->
<!DOCTYPE svg PUBLIC "-//W3C//DTD SVG 1.1//EN" "http://www.w3.org/Graphics/SVG/1.1/DTD/svg11.dtd">
<svg version="1.1" id="Ebene_1" xmlns="http://www.w3.org/2000/svg" xmlns:xlink="http://www.w3.org/1999/xlink" x="0px" y="0px"
	 width="128px" height="140px" viewBox="0 0 128 140" enable-background="new 0 0 128 140" xml:space="preserve">
<g>
	<g>
		<g>
			<path d="M22.381,11.689v116.619h83.238V11.689H22.381z M64,117.232H30.388V92.111H64V117.232z M32.164,58.112H55.48
				c0.976,0,1.776,1.148,1.776,2.562c0,1.41-0.8,2.558-1.776,2.558H32.164c-0.979,0-1.775-1.148-1.775-2.558
				C30.388,59.261,31.183,58.112,32.164,58.112z M30.388,50.675c0-1.414,0.795-2.562,1.775-2.562H55.48
				c0.976,0,1.776,1.148,1.776,2.562c0,1.41-0.8,2.558-1.776,2.558H32.164C31.185,53.233,30.388,52.085,30.388,50.675z
				 M32.164,68.112H55.48c0.976,0,1.776,1.148,1.776,2.563c0,1.41-0.8,2.558-1.776,2.558H32.164c-0.979,0-1.775-1.147-1.775-2.558
				C30.388,69.26,31.183,68.112,32.164,68.112z M32.164,78.111H55.48c0.976,0,1.776,1.148,1.776,2.562c0,1.41-0.8,2.559-1.776,2.559
				H32.164c-0.979,0-1.775-1.148-1.775-2.559C30.388,79.26,31.183,78.111,32.164,78.111z M97.297,117.232H73.98
				c-0.979,0-1.775-1.148-1.775-2.559c0-1.414,0.795-2.562,1.775-2.562h23.316c0.977,0,1.777,1.148,1.777,2.562
				C99.074,116.084,98.273,117.232,97.297,117.232z M64,83.058V47.695h15.536v35.363H64z M97.297,107.232H73.98
				c-0.979,0-1.775-1.148-1.775-2.559c0-1.414,0.795-2.562,1.775-2.562h23.316c0.977,0,1.777,1.148,1.777,2.562
				C99.074,106.084,98.273,107.232,97.297,107.232z M97.297,97.232H73.98c-0.979,0-1.775-1.148-1.775-2.559
				c0-1.414,0.795-2.562,1.775-2.562h23.316c0.977,0,1.777,1.148,1.777,2.562C99.074,96.084,98.273,97.232,97.297,97.232z
				 M99.074,83.058H83.535V47.695h15.539V83.058z M99.074,41.779H64v-6h35.075V41.779z M99.074,30.025H28.925V16.688h70.149V30.025z
				"/>
		</g>
	</g>
</g>
</svg>
