<?xml version="1.0" encoding="utf-8"?>
<!-- Generator: Adobe Illustrator 15.0.2, SVG Export Plug-In . SVG Version: 6.00 Build 0)  -->
<!DOCTYPE svg PUBLIC "-//W3C//DTD SVG 1.1//EN" "http://www.w3.org/Graphics/SVG/1.1/DTD/svg11.dtd">
<svg version="1.1" id="Ebene_1" xmlns="http://www.w3.org/2000/svg" xmlns:xlink="http://www.w3.org/1999/xlink" x="0px" y="0px"
	 width="128px" height="140px" viewBox="0 0 128 140" enable-background="new 0 0 128 140" xml:space="preserve">
<g transform="scale(0.03125 0.03125)">
	<path d="M1409.719,2856.375h-182.375v1276.562h182.375c50.125,0,91.188-41.031,91.188-91.156V2947.562
		C1500.906,2897.406,1459.844,2856.375,1409.719,2856.375z"/>
	<path d="M2686.281,2856.375c-50.125,0-91.188,41.031-91.188,91.188v1094.219c0,50.125,41.062,91.156,91.188,91.156h182.375
		V2856.375H2686.281z"/>
	<path d="M3506.938,2674c0-805.703-653.156-1458.938-1458.938-1458.938c-805.719,0-1458.938,653.234-1458.938,1458.938
		c0,175,30.875,342.75,87.344,498.219c-55.469,94.656-87.344,204.844-87.344,322.438c0,321.531,237.844,587.531,547.094,631.812
		v-1263.5c-90.906,13-175.688,45.062-250.031,92.25c-15.312-76.219-23.531-154.938-23.531-235.625
		c0-654.672,530.719-1185.391,1185.406-1185.391c654.656,0,1185.406,530.719,1185.406,1185.391c0,80.688-8.031,159.5-23.406,235.625
		c-74.375-47.094-159.156-79.344-250.156-92.344v1263.594c309.344-44.281,547.094-310.281,547.094-631.812
		c0-117.531-31.812-227.781-87.281-322.344C3476.125,3016.844,3506.938,2849,3506.938,2674z"/>
</g>
</svg>
