<?xml version="1.0" encoding="utf-8"?>
<!-- Generator: Adobe Illustrator 15.0.2, SVG Export Plug-In . SVG Version: 6.00 Build 0)  -->
<!DOCTYPE svg PUBLIC "-//W3C//DTD SVG 1.1//EN" "http://www.w3.org/Graphics/SVG/1.1/DTD/svg11.dtd">
<svg version="1.1" id="Ebene_1" xmlns="http://www.w3.org/2000/svg" xmlns:xlink="http://www.w3.org/1999/xlink" x="0px" y="0px"
	 width="96px" height="96px" viewBox="0 0 96 96" enable-background="new 0 0 96 96" xml:space="preserve">
<g>
	<rect x="66.845" y="9.577" transform="matrix(-0.707 -0.7073 0.7073 -0.707 101.0121 94.0206)" width="6.28" height="33.013"/>
	<rect x="83.539" y="2.465" transform="matrix(0.707 -0.7072 0.7072 0.707 20.0539 64.5544)" width="8.797" height="11.218"/>
	<path d="M65.52,41.414l-3.155,3.156c-0.867,0.863-2.378,0.863-3.244,0l-7.687-7.685c-0.433-0.431-0.67-1.009-0.67-1.623
		c0-0.611,0.239-1.189,0.67-1.623l3.168-3.168l-2.146-0.863c-2.765-1.115-5.714-1.421-8.271-0.869
		c-3.813,0.828-6.661,3.481-8.237,7.676c-3.235,8.628-8.675,9.691-14.438,10.815c-3.963,0.777-8.062,1.577-12.931,4.606
		C5.357,53.837,1.7,57.863,1.09,63.173C0.435,68.854,3.371,75.13,9.573,81.34l5.089,5.084C20.302,92.064,25.996,95,31.234,95
		c0.535,0,1.066-0.029,1.594-0.094c5.308-0.605,9.336-4.266,11.339-7.487c3.026-4.87,3.826-8.965,4.601-12.931
		c1.129-5.76,2.19-11.2,10.815-14.436c4.198-1.574,6.853-4.424,7.675-8.238c0.559-2.549,0.243-5.483-0.878-8.259L65.52,41.414z
		 M34.092,73.986c-0.868,0.863-2.378,0.863-3.248,0l-8.827-8.828c-0.893-0.896-0.893-2.352,0-3.246
		c0.435-0.432,1.011-0.67,1.623-0.67c0.613,0,1.188,0.24,1.623,0.67l8.828,8.829c0.43,0.437,0.669,1.01,0.669,1.622
		C34.76,72.973,34.521,73.548,34.092,73.986z M48.241,59.836c-1.61,1.607-3.754,2.497-6.037,2.497c-2.284,0-4.425-0.888-6.037-2.497
		c-1.611-1.607-2.498-3.752-2.498-6.038s0.887-4.428,2.498-6.036c1.663-1.664,3.851-2.494,6.038-2.494
		c2.186,0,4.371,0.829,6.037,2.492C51.564,51.092,51.564,56.509,48.241,59.836z"/>
	<path d="M39.411,51.007c-0.745,0.747-1.154,1.739-1.154,2.792c0,1.057,0.41,2.047,1.157,2.793c0.768,0.766,1.778,1.148,2.79,1.148
		c1.01,0,2.022-0.381,2.795-1.148c1.538-1.537,1.536-4.047-0.003-5.585C43.503,49.52,40.9,49.52,39.411,51.007z"/>
</g>
</svg>
