<?xml version="1.0" encoding="utf-8"?>
<!-- Generator: Adobe Illustrator 15.0.2, SVG Export Plug-In . SVG Version: 6.00 Build 0)  -->
<!DOCTYPE svg PUBLIC "-//W3C//DTD SVG 1.1//EN" "http://www.w3.org/Graphics/SVG/1.1/DTD/svg11.dtd">
<svg version="1.1" id="Ebene_1" xmlns="http://www.w3.org/2000/svg" xmlns:xlink="http://www.w3.org/1999/xlink" x="0px" y="0px"
	 width="96px" height="96px" viewBox="0 0 96 96" enable-background="new 0 0 96 96" xml:space="preserve">
<g>
	<circle cx="47.538" cy="62.115" r="10.961"/>
	<path d="M47.538,32.885c-2.018,0-3.653-1.637-3.653-3.652c0-2.021,1.635-3.653,3.653-3.653c2.019,0,3.653,1.633,3.653,3.653
		C51.191,31.248,49.557,32.885,47.538,32.885z"/>
	<path d="M76.768,7.311H69.46H25.616h-7.311c-4.031,0-7.306,3.27-7.306,7.306v73.075C11,91.729,14.274,95,18.306,95h58.462
		c4.037,0,7.309-3.271,7.309-7.309V14.616C84.076,10.58,80.805,7.311,76.768,7.311z M47.538,18.269
		c6.055,0,10.961,4.911,10.961,10.964c0,6.052-4.906,10.958-10.961,10.958c-6.057,0-10.963-4.906-10.963-10.958
		C36.575,23.18,41.481,18.269,47.538,18.269z M47.538,80.384c-10.089,0-18.269-8.178-18.269-18.269
		c0-10.09,8.18-18.267,18.269-18.267s18.269,8.177,18.269,18.267C65.807,72.206,57.627,80.384,47.538,80.384z"/>
</g>
</svg>
