<?xml version="1.0" encoding="utf-8"?>
<!-- Generator: Adobe Illustrator 15.0.2, SVG Export Plug-In . SVG Version: 6.00 Build 0)  -->
<!DOCTYPE svg PUBLIC "-//W3C//DTD SVG 1.1//EN" "http://www.w3.org/Graphics/SVG/1.1/DTD/svg11.dtd">
<svg version="1.1" id="Ebene_1" xmlns="http://www.w3.org/2000/svg" xmlns:xlink="http://www.w3.org/1999/xlink" x="0px" y="0px"
	 width="96px" height="96px" viewBox="0 0 96 96" enable-background="new 0 0 96 96" xml:space="preserve">
<path d="M96,74.891c0-26.961-23.965-20.97-23.965-41.939c0-1.737-0.168-3.222-0.473-4.487c-1.576-10.58-8.627-19.071-17.766-21.658
	c0.082-0.37,0.124-0.752,0.124-1.143C53.921,2.548,51.225,0,47.93,0s-5.991,2.548-5.991,5.664c0,0.391,0.043,0.773,0.124,1.143
	C31.814,9.708,24.19,20.034,23.971,32.404c-0.004,0.18-0.006,0.362-0.006,0.547C23.965,53.921,0,47.93,0,74.891
	c0,7.135,15.969,13.105,37.349,14.611c2.015,3.781,5.997,6.357,10.581,6.357c4.584,0,8.566-2.576,10.581-6.357
	c21.38-1.506,37.349-7.477,37.349-14.611c0-0.021-0.002-0.043-0.002-0.064L96,74.891z M77.348,79.954
	c-5.077,1.354-11.062,2.329-17.484,2.869c-0.534-6.124-5.671-10.929-11.934-10.929c-6.262,0-11.399,4.805-11.934,10.929
	c-6.422-0.54-12.407-1.515-17.484-2.869c-6.986-1.864-10.326-3.949-11.549-5.063c1.223-1.115,4.562-3.2,11.549-5.064
	c8.123-2.168,18.57-3.361,29.417-3.361c10.848,0,21.295,1.193,29.418,3.361c6.986,1.864,10.326,3.949,11.549,5.064
	C87.674,76.005,84.334,78.09,77.348,79.954z"/>
</svg>
