<?xml version="1.0" encoding="utf-8"?>
<!-- Generator: Adobe Illustrator 15.0.2, SVG Export Plug-In . SVG Version: 6.00 Build 0)  -->
<!DOCTYPE svg PUBLIC "-//W3C//DTD SVG 1.1//EN" "http://www.w3.org/Graphics/SVG/1.1/DTD/svg11.dtd">
<svg version="1.1" id="Ebene_1" xmlns="http://www.w3.org/2000/svg" xmlns:xlink="http://www.w3.org/1999/xlink" x="0px" y="0px"
	 width="96px" height="96px" viewBox="0 0 96 96" enable-background="new 0 0 96 96" xml:space="preserve">
<g>
	<g>
		<path d="M96,74.891c0-26.96-23.965-20.97-23.965-41.938c0-1.737-0.168-3.222-0.473-4.487c-1.576-10.58-8.627-19.071-17.767-21.658
			c0.082-0.37,0.124-0.752,0.124-1.143C53.921,2.548,51.225,0,47.93,0c-3.295,0-5.991,2.548-5.991,5.664
			c0,0.391,0.043,0.773,0.124,1.143C31.814,9.708,24.19,20.034,23.971,32.404c-0.004,0.18-0.006,0.362-0.006,0.547
			C23.965,53.921,0,47.93,0,74.891c0,7.135,15.969,13.105,37.349,14.611c2.015,3.781,5.997,6.357,10.581,6.357
			c4.583,0,8.566-2.576,10.582-6.357c21.379-1.506,37.348-7.477,37.348-14.611c0-0.021-0.002-0.043-0.002-0.063L96,74.891z
			 M41.684,10.622c4.136-0.151,8.275-0.151,12.411,0c0.402,0.015,0.768,0.137,1.058,0.328c0.291,0.191,0.504,0.453,0.602,0.75
			c0.045,0.135,0.065,0.277,0.058,0.422c-0.532,10.455-1.459,20.9-1.538,31.366c-0.007,0.788-0.645,1.428-1.433,1.428h-9.904
			c-0.789,0-1.426-0.64-1.433-1.428c-0.08-10.465-1.007-20.911-1.539-31.366C39.926,11.336,40.695,10.659,41.684,10.622z
			 M54.225,51.165v10.189c0,0.783-0.635,1.417-1.417,1.417h-9.924c-0.783,0-1.417-0.634-1.417-1.417V51.165
			c0-0.783,0.635-1.417,1.417-1.417h9.924C53.59,49.748,54.225,50.382,54.225,51.165z M77.348,79.954
			c-5.076,1.354-11.062,2.329-17.484,2.869c-0.533-6.124-5.67-10.929-11.933-10.929c-6.262,0-11.399,4.805-11.934,10.929
			c-6.422-0.54-12.407-1.515-17.484-2.869c-6.986-1.864-10.326-3.949-11.549-5.063c1.223-1.115,4.562-3.199,11.549-5.063
			c8.123-2.168,18.57-3.361,29.417-3.361c10.848,0,21.295,1.193,29.418,3.361c6.985,1.864,10.325,3.948,11.549,5.063
			C87.674,76.005,84.334,78.09,77.348,79.954z"/>
	</g>
</g>
</svg>
