<?xml version="1.0" encoding="utf-8"?>
<!-- Generator: Adobe Illustrator 15.0.2, SVG Export Plug-In . SVG Version: 6.00 Build 0)  -->
<!DOCTYPE svg PUBLIC "-//W3C//DTD SVG 1.1//EN" "http://www.w3.org/Graphics/SVG/1.1/DTD/svg11.dtd">
<svg version="1.1" id="Ebene_1" xmlns="http://www.w3.org/2000/svg" xmlns:xlink="http://www.w3.org/1999/xlink" x="0px" y="0px"
	 width="128px" height="140px" viewBox="0 0 128 140" enable-background="new 0 0 128 140" xml:space="preserve">
<path d="M26.26,71.884c13.89,0,25.16,11.253,25.16,25.107c0,13.857-11.27,25.11-25.16,25.11S1.1,110.849,1.1,96.991
	C1.1,83.137,12.37,71.884,26.26,71.884z M101.74,71.884c13.891,0,25.16,11.165,25.16,24.899c0,13.751-11.27,24.897-25.16,24.897
	s-25.16-11.146-25.16-24.897C76.58,83.049,87.85,71.884,101.74,71.884z M32.114,66.973c-1.677-0.751-3.022-2.219-3.546-4.124
	c-0.892-3.354,1.101-6.814,4.455-7.705l45.813-12.283c3.354-0.891,6.796,1.101,7.705,4.455c0.821,3.11-0.839,6.308-3.757,7.461
	l-3.11,5.399h24.373c2.324,0,4.194,1.887,4.194,4.193c0,2.324-1.87,4.193-4.194,4.193H72.422c-0.384,0-0.786-0.052-1.188-0.157
	c-0.332-0.104-0.646-0.244-0.943-0.419l0,0h-0.018l0,0l0,0c-0.646-0.385-1.154-0.909-1.503-1.503
	c-0.349-0.629-0.56-1.345-0.56-2.097l0,0l0,0V64.37l0,0c0-0.314,0.035-0.629,0.106-0.943l0,0l0,0l0,0l0,0
	c0.104-0.419,0.261-0.822,0.47-1.171l2.499-4.35l-26.016,6.971l29.143,16.827c1.346,0.786,2.098,2.202,2.098,3.651
	c0,0.699-0.192,1.416-0.56,2.079l-13.768,23.834c-1.153,2.01-3.722,2.69-5.73,1.537c-1.991-1.153-2.691-3.721-1.52-5.73
	l11.654-20.198L32.114,66.973L32.114,66.973z M91.988,29.052c4.943-1.392,10.098,1.466,11.528,6.418
	c1.436,4.969-1.429,10.161-6.397,11.596s-10.16-1.429-11.596-6.397c-0.335-1.159-0.433-2.312-0.326-3.453l-9.075-1.58
	c-0.479-0.08-0.828-0.47-0.854-0.935c-0.025-0.466,0.285-0.901,0.739-1.033c5.908-1.707,15.913-4.597,15.913-4.597L91.988,29.052z"
	/>
</svg>
