<?xml version="1.0" encoding="utf-8"?>
<!-- Generator: Adobe Illustrator 15.0.2, SVG Export Plug-In . SVG Version: 6.00 Build 0)  -->
<!DOCTYPE svg PUBLIC "-//W3C//DTD SVG 1.1//EN" "http://www.w3.org/Graphics/SVG/1.1/DTD/svg11.dtd">
<svg version="1.1" id="Ebene_1" xmlns="http://www.w3.org/2000/svg" xmlns:xlink="http://www.w3.org/1999/xlink" x="0px" y="0px"
	 width="96px" height="96px" viewBox="0 0 96 96" enable-background="new 0 0 96 96" xml:space="preserve">
<g>
	<path d="M25.521,88.326c6.767,3.917,14.61,6.174,22.976,6.174c8.422,0,16.313-2.285,23.11-6.253L48.604,65.246L25.521,88.326z"/>
	<path d="M88.324,25.529L63.207,50.645l23.475,23.473c4.933-7.326,7.813-16.141,7.813-25.617
		C94.495,40.136,92.241,32.294,88.324,25.529z"/>
	<path d="M74.248,10.402C66.895,5.417,58.029,2.5,48.497,2.5c-9.478,0-18.294,2.883-25.622,7.816l25.729,25.726L74.248,10.402z"/>
	<path d="M8.749,25.394C4.784,32.19,2.5,40.081,2.5,48.5c0,9.531,2.914,18.395,7.897,25.745L34,50.645L8.749,25.394z"/>
</g>
</svg>
