<?xml version="1.0" encoding="utf-8"?>
<!-- Generator: Adobe Illustrator 15.0.2, SVG Export Plug-In . SVG Version: 6.00 Build 0)  -->
<!DOCTYPE svg PUBLIC "-//W3C//DTD SVG 1.1//EN" "http://www.w3.org/Graphics/SVG/1.1/DTD/svg11.dtd">
<svg version="1.1" id="Ebene_1" xmlns="http://www.w3.org/2000/svg" xmlns:xlink="http://www.w3.org/1999/xlink" x="0px" y="0px"
	 width="96px" height="96px" viewBox="0 0 96 96" enable-background="new 0 0 96 96" xml:space="preserve">
<g enable-background="new    ">
	<path d="M24.272,21.163l-8.112-1.352v-6.448h15.496c2.356,0,5.408-0.138,9.152-0.416c0.9-0.068,1.976-0.138,3.224-0.208
		c1.248-0.068,2.704-0.104,4.368-0.104c10.468,0,17.8,1.474,21.997,4.42c4.193,2.948,6.292,7.332,6.292,13.156
		c0,5.131-1.544,9.412-4.629,12.844s-7.124,5.529-12.116,6.292c6.864-0.068,12.255,1.491,16.173,4.681
		c3.916,3.189,5.876,7.627,5.876,13.312c0,7.212-2.532,13-7.592,17.368c-5.062,4.368-13.521,6.552-25.377,6.552
		c-3.12,0-5.997-0.104-8.631-0.312c-0.694,0-1.872-0.052-3.536-0.155c-1.664-0.104-3.364-0.156-5.096-0.156H16.056v-6.24l8.216-1.04
		V21.163z M44.032,47.163h4.888c4.229,0,7.385-1.316,9.464-3.952c2.08-2.634,3.12-6.344,3.12-11.128
		c0-4.576-1.075-7.904-3.225-9.984s-5.719-3.12-10.711-3.12c-1.318,0-4.056,0.14-8.216,0.416v27.664
		C40.114,47.128,41.674,47.163,44.032,47.163z M48.504,84.707c5.893,0,10.156-1.387,12.792-4.16
		c2.634-2.772,3.952-6.795,3.952-12.064c0-5.061-1.196-8.684-3.588-10.867c-2.393-2.185-6.188-3.276-11.389-3.276
		c-5.823,0-9.463,0.069-10.919,0.208v29.224C40.946,84.395,43.996,84.707,48.504,84.707z"/>
</g>
</svg>
