<?xml version="1.0" encoding="utf-8"?>
<!-- Generator: Adobe Illustrator 15.0.2, SVG Export Plug-In . SVG Version: 6.00 Build 0)  -->
<!DOCTYPE svg PUBLIC "-//W3C//DTD SVG 1.1//EN" "http://www.w3.org/Graphics/SVG/1.1/DTD/svg11.dtd">
<svg version="1.1" id="Ebene_1" xmlns="http://www.w3.org/2000/svg" xmlns:xlink="http://www.w3.org/1999/xlink" x="0px" y="0px"
	 width="107px" height="96px" viewBox="0.5 0.5 107 96" enable-background="new 0.5 0.5 107 96" xml:space="preserve">
<g>
	<path d="M14.273,80.062h32.573c1.451,0,2.637,1.182,2.637,2.639V96.5l16.485-15.713c0.489-0.471,1.135-0.725,1.822-0.725h4.596
		c7.601,0,13.78-6.183,13.78-13.786v-11.14c0-7.61-6.188-13.802-13.799-13.802H14.299C6.694,41.335,0.5,47.526,0.5,55.137v11.14
		C0.491,73.88,6.676,80.062,14.273,80.062z M18.104,60.698c0-0.698,0.276-1.369,0.769-1.854c0.46-0.457,1.138-0.719,1.867-0.719
		c0.009,0,0.009,0,0.013,0c0.72,0,1.389,0.262,1.856,0.731c0.482,0.479,0.774,1.163,0.774,1.841c0,0.691-0.287,1.383-0.774,1.859
		l-0.023,0.023c-0.943,0.971-2.741,0.981-3.724-0.03C18.38,62.087,18.104,61.41,18.104,60.698z M40.688,60.698
		c0-0.678,0.287-1.369,0.772-1.854c0.48-0.48,1.173-0.723,1.866-0.723c0.696,0,1.391,0.244,1.867,0.723
		c0.482,0.48,0.774,1.175,0.774,1.854c0,0.691-0.289,1.39-0.774,1.872c-0.981,0.979-2.764,0.975-3.74,0
		C40.976,62.087,40.688,61.39,40.688,60.698z M63.268,60.698c0-0.692,0.287-1.364,0.772-1.854c0.455-0.45,1.137-0.712,1.875-0.712
		c0.734,0,1.414,0.261,1.882,0.724c0.475,0.464,0.754,1.152,0.754,1.841c0,0.712-0.277,1.39-0.754,1.861l-0.029,0.022
		c-0.943,0.959-2.733,0.981-3.728-0.014C63.559,62.087,63.268,61.39,63.268,60.698z"/>
	<path d="M74.277,36.15c0.098,0.011,0.198,0.031,0.298,0.044l0.507,0.073c0.355,0.048,0.713,0.095,1.056,0.162
		c0.134,0.026,0.271,0.067,0.404,0.1l0.528,0.135c0.289,0.071,0.581,0.137,0.864,0.222c0.151,0.047,0.303,0.107,0.456,0.162
		l0.497,0.18c0.261,0.087,0.52,0.181,0.773,0.282c0.157,0.067,0.309,0.14,0.46,0.211l0.442,0.212
		c0.251,0.115,0.498,0.228,0.732,0.356c0.173,0.09,0.334,0.188,0.496,0.288l0.341,0.202c0.244,0.141,0.481,0.283,0.717,0.438
		c0.173,0.117,0.335,0.238,0.505,0.363l0.26,0.195c0.23,0.164,0.464,0.332,0.691,0.513c0.166,0.134,0.326,0.272,0.479,0.413
		l0.211,0.191c0.222,0.191,0.444,0.386,0.651,0.587c0.17,0.169,0.332,0.343,0.585,0.608c0.218,0.231,0.44,0.467,0.644,0.711
		c0.174,0.201,0.336,0.412,0.527,0.658c0.194,0.252,0.39,0.504,0.568,0.766c0.168,0.234,0.321,0.479,0.473,0.712
		c0.171,0.272,0.335,0.538,0.49,0.812c0.143,0.25,0.276,0.501,0.406,0.763c0.143,0.281,0.287,0.564,0.411,0.852
		c0.121,0.269,0.228,0.538,0.332,0.807c0.119,0.296,0.229,0.596,0.328,0.9c0.096,0.278,0.179,0.557,0.259,0.85
		c0.09,0.305,0.171,0.617,0.245,0.932c0.066,0.289,0.128,0.579,0.179,0.867c0.058,0.324,0.106,0.645,0.146,0.976
		c0.039,0.302,0.073,0.6,0.097,0.894l0.134,2.087h2.097c7.606,0,13.799-6.188,13.799-13.799v-11.15
		c0-7.601-6.182-13.786-13.788-13.786H61.013c-1.458,0-2.638-1.181-2.638-2.639V0.5L41.887,16.213
		c-0.491,0.471-1.137,0.726-1.822,0.726h-4.578c-7.604,0-13.798,6.184-13.798,13.785v5.331h50.64
		C73.009,36.054,73.649,36.087,74.277,36.15z"/>
</g>
</svg>
