<?xml version="1.0" encoding="utf-8"?>
<!-- Generator: Adobe Illustrator 15.0.2, SVG Export Plug-In . SVG Version: 6.00 Build 0)  -->
<!DOCTYPE svg PUBLIC "-//W3C//DTD SVG 1.1//EN" "http://www.w3.org/Graphics/SVG/1.1/DTD/svg11.dtd">
<svg version="1.1" id="Ebene_1" xmlns="http://www.w3.org/2000/svg" xmlns:xlink="http://www.w3.org/1999/xlink" x="0px" y="0px"
	 width="96px" height="96px" viewBox="0 0 96 96" enable-background="new 0 0 96 96" xml:space="preserve">
<path d="M48,3C22.596,3,2,23.595,2,49c0,25.405,20.596,46,46,46c25.405,0,46-20.595,46-46C94,23.595,73.405,3,48,3z M10.625,49
	c0-20.642,16.732-37.375,37.375-37.375c8.148,0,15.688,2.609,21.828,7.036l-7.656,7.657l-0.003-0.003L47.793,40.689l0.004,0.003
	L33.674,54.816l-0.004-0.004l-2.516,2.517L19.295,69.188l-1.637,1.637C13.233,64.685,10.625,57.147,10.625,49z M48,86.375
	c-8.092,0-15.582-2.572-21.7-6.942l1.62-1.62l11.859-11.858l2.402-2.403l0.004,0.004L56.561,49.18l-0.004-0.004l8.266-8.266
	l0.003,0.004l13.61-13.61C82.805,33.421,85.375,40.91,85.375,49C85.375,69.642,68.642,86.375,48,86.375z"/>
</svg>
