<?xml version="1.0" encoding="utf-8"?>
<!-- Generator: Adobe Illustrator 15.0.2, SVG Export Plug-In . SVG Version: 6.00 Build 0)  -->
<!DOCTYPE svg PUBLIC "-//W3C//DTD SVG 1.1//EN" "http://www.w3.org/Graphics/SVG/1.1/DTD/svg11.dtd">
<svg version="1.1" id="Ebene_1" xmlns="http://www.w3.org/2000/svg" xmlns:xlink="http://www.w3.org/1999/xlink" x="0px" y="0px"
	 width="96px" height="96px" viewBox="0 0 96 96" enable-background="new 0 0 96 96" xml:space="preserve">
<g>
	<path d="M24.133,70.736h59.872V5H24.133V70.736z M70.701,25.758v19.168c0,1.295-1.055,2.351-2.351,2.351H39.787
		c-1.296,0-2.348-1.056-2.348-2.351V25.758c0-1.293,1.054-2.348,2.348-2.348h28.563C69.647,23.41,70.701,24.462,70.701,25.758z"/>
	<rect x="42.135" y="28.107" width="23.872" height="14.469"/>
	<path d="M19.438,70.891V7.602L19.307,5.04l-2.312,1.255c-0.161,0.08-0.315,0.162-0.526,0.295c-0.089,0.055-0.178,0.108-0.263,0.167
		c-0.453,0.317-0.881,0.668-1.266,1.046c-0.064,0.062-0.127,0.13-0.224,0.237c-0.32,0.338-0.614,0.697-0.9,1.094
		c-0.075,0.106-0.157,0.216-0.229,0.33c-0.328,0.506-0.591,0.988-0.795,1.469c-0.031,0.072-0.055,0.144-0.074,0.198
		c-0.179,0.449-0.327,0.918-0.452,1.456c-0.032,0.144-0.063,0.286-0.092,0.438C12.056,13.681,12,14.236,12,14.783v59.436l2.37-1.424
		c1.212-0.729,2.52-1.27,3.884-1.606L19.438,70.891z"/>
	<path d="M12,85.215C12,90.606,16.39,95,21.785,95h62.22v-7.438h-62.22c-1.295,0-2.348-1.06-2.348-2.35
		c0-1.293,1.054-2.354,2.348-2.354h62.22v-7.438h-62.22C16.39,75.431,12,79.821,12,85.215z"/>
</g>
</svg>
