<?xml version="1.0" encoding="utf-8"?>
<!-- Generator: Adobe Illustrator 15.0.2, SVG Export Plug-In . SVG Version: 6.00 Build 0)  -->
<!DOCTYPE svg PUBLIC "-//W3C//DTD SVG 1.1//EN" "http://www.w3.org/Graphics/SVG/1.1/DTD/svg11.dtd">
<svg version="1.1" id="Ebene_1" xmlns="http://www.w3.org/2000/svg" xmlns:xlink="http://www.w3.org/1999/xlink" x="0px" y="0px"
	 width="128px" height="140px" viewBox="0 0 128 140" enable-background="new 0 0 128 140" xml:space="preserve">
<g>
	<path d="M36.406,25v75.992h69.215V25H36.406z M51.788,71.154V48.996c0-1.495,1.219-2.714,2.715-2.714h16.375v5.431H57.217v16.726
		h13.661v5.433H54.502C53.005,73.872,51.788,72.65,51.788,71.154z"/>
	<path d="M29.609,101.516l1.368-0.344V28.01l-0.15-2.962l-2.673,1.45c-0.183,0.093-0.364,0.187-0.608,0.342
		c-0.104,0.062-0.205,0.125-0.304,0.193c-0.525,0.366-1.019,0.773-1.464,1.208c-0.074,0.072-0.145,0.152-0.257,0.276
		c-0.371,0.39-0.711,0.805-1.041,1.264c-0.088,0.124-0.18,0.249-0.264,0.38c-0.379,0.586-0.682,1.143-0.918,1.698
		c-0.037,0.083-0.066,0.166-0.086,0.231c-0.207,0.518-0.378,1.06-0.525,1.681c-0.038,0.166-0.074,0.331-0.107,0.507
		c-0.136,0.759-0.2,1.401-0.2,2.033v68.708l2.739-1.641C26.521,102.537,28.033,101.912,29.609,101.516z"/>
	<path d="M22.379,117.73c0,6.238,5.075,11.313,11.311,11.313h71.929v-8.597H33.691c-1.497,0-2.713-1.223-2.713-2.717
		s1.217-2.717,2.713-2.717h71.93v-8.597h-71.93C27.455,106.419,22.379,111.494,22.379,117.73z"/>
</g>
</svg>
