<?xml version="1.0" encoding="utf-8"?>
<!-- Generator: Adobe Illustrator 15.0.2, SVG Export Plug-In . SVG Version: 6.00 Build 0)  -->
<!DOCTYPE svg PUBLIC "-//W3C//DTD SVG 1.1//EN" "http://www.w3.org/Graphics/SVG/1.1/DTD/svg11.dtd">
<svg version="1.1" id="Ebene_1" xmlns="http://www.w3.org/2000/svg" xmlns:xlink="http://www.w3.org/1999/xlink" x="0px" y="0px"
	 width="96px" height="96px" viewBox="0 0 96 96" enable-background="new 0 0 96 96" xml:space="preserve">
<g>
	<path d="M47.999,1C22.083,1,1,22.083,1,47.999C1,71.795,18.779,91.503,41.75,94.57V73c0-0.271,0.018-0.529,0.046-0.781
		C31.002,69.452,23,59.643,23,47.999C23,34.214,34.214,23,47.999,23c13.784,0,24.999,11.214,24.999,24.999
		c0,11.816-8.244,21.737-19.281,24.331c0.021,0.217,0.033,0.439,0.033,0.67v21.634c23.21-2.847,41.248-22.668,41.248-46.635
		C94.998,22.083,73.914,1,47.999,1z"/>
</g>
</svg>
