<?xml version="1.0" encoding="utf-8"?>
<!-- Generator: Adobe Illustrator 15.0.2, SVG Export Plug-In . SVG Version: 6.00 Build 0)  -->
<!DOCTYPE svg PUBLIC "-//W3C//DTD SVG 1.1//EN" "http://www.w3.org/Graphics/SVG/1.1/DTD/svg11.dtd">
<svg version="1.1" id="Ebene_1" xmlns="http://www.w3.org/2000/svg" xmlns:xlink="http://www.w3.org/1999/xlink" x="0px" y="0px"
	 width="114px" height="96px" viewBox="0 0 114 96" enable-background="new 0 0 114 96" xml:space="preserve">
<path d="M55.159,12.285C36.811-9.881,0,2.778,0,32.163c0,7.821,4.183,15.47,10.397,22.737L44.44,20.905
	c0.716-0.67,1.784-0.7,2.48,0.016l10.385,9.97c5.945,5.707,14.249-3.483,8.65-8.617L55.159,12.285z"/>
<path d="M113.184,32.179C112.704,3.523,78.009-9.607,59.038,11.125l9.302,8.57c9.067,8.334-4.149,22.691-13.467,13.725l-9.158-8.812
	L12.75,57.525c0.002,0.002,0.004,0.004,0.006,0.007l-2.662,2.532c-6.479,6.163,3.165,15.522,9.004,9.709l3.192-3.152
	c0.011,0.01,0.022,0.02,0.034,0.029l1.208-1.256l0.886-0.875l-0.025-0.02l26.98-28.045c1.607-1.653,4.152,0.779,2.545,2.449
	L25.855,68.05l-3.595,3.463c-6.218,5.989,3.028,15.074,8.632,9.425l4.097-4.096c0.002,0.002,0.004,0.004,0.006,0.005l0.466-0.477
	L36,75.833l-0.006-0.005l27.755-28.352c1.619-1.638,4.112,0.823,2.493,2.463L40.589,76.152l-2.17,2.065
	c-5.783,5.5,2.825,13.854,8.036,8.665l3.858-3.811l24.421-23.529c1.667-1.605,4.106,0.937,2.432,2.526L53.412,84.973l0.023,0.031
	l-2.295,2.426c-4.125,4.36,2.67,10.292,6.379,6.189l3.324-3.65C80.012,75.065,113.564,55.508,113.184,32.179z"/>
</svg>
