<?xml version="1.0" encoding="utf-8"?>
<!-- Generator: Adobe Illustrator 15.0.2, SVG Export Plug-In . SVG Version: 6.00 Build 0)  -->
<!DOCTYPE svg PUBLIC "-//W3C//DTD SVG 1.1//EN" "http://www.w3.org/Graphics/SVG/1.1/DTD/svg11.dtd">
<svg version="1.1" id="Ebene_1" xmlns="http://www.w3.org/2000/svg" xmlns:xlink="http://www.w3.org/1999/xlink" x="0px" y="0px"
	 width="120px" height="96px" viewBox="-12 0 120 96" enable-background="new -12 0 120 96" xml:space="preserve">
<g>
	<polygon points="59.479,41.917 59.479,-0.25 41.354,-0.25 41.354,41.917 19.905,41.917 24.813,46.825 76.021,46.823 80.927,41.917 
			"/>
	<path d="M96.333,47.112H75.369L50.415,72.064L25.462,47.112H-0.333c-5.338,0-9.667,4.326-9.667,9.667v29
		c0,5.338,4.328,9.666,9.667,9.666h96.667c5.339,0,9.667-4.328,9.667-9.666v-29C106,51.438,101.672,47.112,96.333,47.112z
		 M66.729,90.492c-4.003,0-7.25-3.249-7.25-7.25c0-4.002,3.247-7.25,7.25-7.25c4.002,0,7.25,3.248,7.25,7.25
		C73.979,87.243,70.731,90.492,66.729,90.492z M88.177,90.492c-4.002,0-7.25-3.249-7.25-7.25c0-4.002,3.248-7.25,7.25-7.25
		c4.003,0,7.25,3.248,7.25,7.25C95.427,87.243,92.18,90.492,88.177,90.492z"/>
</g>
</svg>
