<?xml version="1.0" encoding="utf-8"?>
<!-- Generator: Adobe Illustrator 15.0.2, SVG Export Plug-In . SVG Version: 6.00 Build 0)  -->
<!DOCTYPE svg PUBLIC "-//W3C//DTD SVG 1.1//EN" "http://www.w3.org/Graphics/SVG/1.1/DTD/svg11.dtd">
<svg version="1.1" id="Ebene_1" xmlns="http://www.w3.org/2000/svg" xmlns:xlink="http://www.w3.org/1999/xlink" x="0px" y="0px"
	 width="96px" height="96px" viewBox="0 0 96 96" enable-background="new 0 0 96 96" xml:space="preserve">
<path d="M69.915,85.564h6.215v-7.434h7.435v-6.217l-5.285-5.285l-13.65,13.65L69.915,85.564L69.915,85.564z M39.536,31.662
	c0,0.348,0.116,0.696,0.407,0.986L71.426,64.13c0.29,0.291,0.639,0.408,0.987,0.408c0.755,0,1.278-0.522,1.278-1.279
	c0-0.347-0.116-0.696-0.407-0.985L41.8,30.791c-0.289-0.291-0.638-0.407-0.985-0.407C40.059,30.384,39.536,30.907,39.536,31.662
	L39.536,31.662z M91,68.836V93H66.836L18.509,44.673l24.164-24.164L91,68.836z M5.15,20.799L18.8,7.207
	C20.193,5.813,22.109,5,24.085,5s3.892,0.813,5.228,2.208l9.643,9.584L14.791,40.955l-9.643-9.642C3.812,29.977,3,28.06,3,26.085
	S3.812,22.193,5.15,20.799z"/>
</svg>
