<?xml version="1.0" encoding="utf-8"?>
<!-- Generator: Adobe Illustrator 15.0.2, SVG Export Plug-In . SVG Version: 6.00 Build 0)  -->
<!DOCTYPE svg PUBLIC "-//W3C//DTD SVG 1.1//EN" "http://www.w3.org/Graphics/SVG/1.1/DTD/svg11.dtd">
<svg version="1.1" id="Ebene_1" xmlns="http://www.w3.org/2000/svg" xmlns:xlink="http://www.w3.org/1999/xlink" x="0px" y="0px"
	 width="96px" height="96px" viewBox="0 0 96 96" enable-background="new 0 0 96 96" xml:space="preserve">
<path d="M24.085,85.564l5.286-5.285l-13.65-13.65l-5.286,5.285v6.217h7.435v7.434H24.085L24.085,85.564z M54.464,31.662
	c0-0.755-0.522-1.278-1.278-1.278c-0.348,0-0.697,0.116-0.986,0.407L20.716,62.273c-0.291,0.289-0.407,0.639-0.407,0.986
	c0,0.756,0.523,1.279,1.278,1.279c0.349,0,0.697-0.117,0.987-0.408l31.482-31.482C54.348,32.358,54.464,32.01,54.464,31.662
	L54.464,31.662z M51.327,20.509l24.164,24.164L27.164,93H3V68.836L51.327,20.509z M91,26.085c0,1.975-0.813,3.892-2.149,5.228
	l-9.642,9.642L55.045,16.792l9.642-9.584C66.023,5.813,67.939,5,69.915,5c1.975,0,3.892,0.813,5.285,2.207l13.65,13.592
	C90.187,22.193,91,24.11,91,26.085z"/>
</svg>
