<?xml version="1.0" encoding="utf-8"?>
<!-- Generator: Adobe Illustrator 15.0.2, SVG Export Plug-In . SVG Version: 6.00 Build 0)  -->
<!DOCTYPE svg PUBLIC "-//W3C//DTD SVG 1.1//EN" "http://www.w3.org/Graphics/SVG/1.1/DTD/svg11.dtd">
<svg version="1.1" id="Ebene_1" xmlns="http://www.w3.org/2000/svg" xmlns:xlink="http://www.w3.org/1999/xlink" x="0px" y="0px"
	 width="96px" height="96px" viewBox="0 0 96 96" enable-background="new 0 0 96 96" xml:space="preserve">
<path d="M73.383,45.478l-0.563-0.423c-0.42-0.331-0.752-0.621-1.069-0.936c-0.291-0.28-0.631-0.671-0.957-1.115
	c-0.128-0.17-0.271-0.365-0.399-0.558c-0.642-0.959-1.11-2.009-1.418-3.126l-0.251-0.93l-0.962-0.066
	c-2.599-0.175-5.043-1.298-6.901-3.173c-0.295-0.278-0.629-0.672-0.953-1.109c-0.132-0.176-0.278-0.372-0.407-0.564
	c-0.618-0.925-1.083-1.932-1.384-3.007l-0.314-1.126l-1.158,0.144c-0.788,0.102-1.602,0.111-2.409,0.037l-0.322-0.044
	c-0.227-0.03-0.452-0.057-0.681-0.1l-0.371-0.083c-0.2-0.047-0.404-0.093-0.603-0.15c-0.119-0.035-0.243-0.072-0.385-0.12
	c-0.186-0.062-0.377-0.126-0.566-0.205c-0.125-0.049-0.252-0.103-0.378-0.155c-0.183-0.081-0.361-0.165-0.545-0.259
	c-0.115-0.06-0.236-0.118-0.348-0.182c-0.182-0.101-0.354-0.211-0.63-0.383l-0.233-0.147c-0.183-0.126-0.361-0.263-0.541-0.406
	l-1.1-0.885l-6.224,4.099l-0.746,0.516l0.167,0.887l0.042,0.171c0.12,0.381,0.197,0.78,0.277,1.188
	c0.016,0.087,0.039,0.176,0.084,0.391c0.083,0.549,0.127,1.092,0.127,1.619c0,5.963-4.853,10.81-10.822,10.81
	c-0.349,0-0.691-0.017-1.027-0.048l-0.341-0.046c-0.226-0.03-0.447-0.056-0.666-0.099l-0.386-0.087
	c-0.199-0.048-0.397-0.094-0.595-0.149c-0.118-0.03-0.236-0.073-0.391-0.123c-0.187-0.062-0.373-0.131-0.557-0.203
	c-0.129-0.051-0.257-0.103-0.382-0.16c-0.18-0.078-0.355-0.16-0.529-0.252c-0.126-0.062-0.248-0.124-0.371-0.192
	c-0.181-0.097-0.349-0.206-0.624-0.381l-0.225-0.146c-0.183-0.124-0.357-0.258-0.536-0.398l-1.128-0.95L5.8,54.59l70.661-7.013
	L73.383,45.478z"/>
<polygon points="83.894,78.675 0.252,86.961 0.252,95 83.894,86.713 "/>
<path d="M49.752,22.644c0.077,0.104,0.133,0.176,0.223,0.31c0.127,0.165,0.315,0.382,0.461,0.52
	c1.938,1.953,4.744,2.601,7.359,1.532c0.324-0.112,0.639-0.271,0.977-0.485c0.689-0.429,1.564-0.41,2.234,0.048
	c0.667,0.454,0.997,1.262,0.844,2.062c-0.046,0.227-0.071,0.527-0.063,1.043l1.345-0.093l0,0l-1.34,0.27
	c0.05,1.214,0.428,2.379,1.089,3.36c0.083,0.125,0.17,0.245,0.288,0.405c0.219,0.294,0.404,0.506,0.545,0.635
	c1.64,1.653,3.79,2.341,6.056,1.917l0.152-0.035c0.691-0.217,1.507-0.049,2.021,0.412c0.54,0.477,0.812,1.14,0.735,1.761
	l-0.012,0.239c0.012,1.303,0.395,2.566,1.109,3.648c0.079,0.114,0.164,0.236,0.28,0.381c0.225,0.306,0.41,0.516,0.547,0.642
	c1.321,1.332,2.992,2.035,4.822,2.035c1.036,0,1.953,0.766,2.096,1.742c0.146,1.002,0.495,1.926,1.076,2.79l0.269,0.367
	c0.204,0.28,0.389,0.49,0.531,0.625c0.22,0.223,0.451,0.428,0.691,0.611c0.715,0.563,1.508,0.962,2.336,1.174
	c0.612,0.174,1.198,0.252,1.799,0.252c3.726,0,6.759-3.028,6.759-6.749c0-1.333-0.393-2.625-1.12-3.709
	c-0.244-0.379-0.514-0.709-0.875-1.071c-0.31-0.31-0.677-0.609-1.095-0.889c-1.054-0.71-2.328-1.089-3.669-1.089
	c-1.034,0-1.953-0.765-2.094-1.741c-0.146-1.009-0.508-1.944-1.057-2.765c-0.247-0.382-0.512-0.713-0.875-1.069
	c-0.311-0.311-0.68-0.611-1.105-0.894c-1.055-0.712-2.324-1.091-3.668-1.091c-0.579,0-1.094,0.064-1.561,0.196
	c-0.644,0.182-1.333,0.033-1.851-0.393c-0.513-0.427-0.78-1.077-0.716-1.86v-0.149c0-1.333-0.391-2.625-1.116-3.711
	c-0.248-0.381-0.514-0.711-0.875-1.067c-0.312-0.309-0.677-0.612-1.103-0.896c-2.064-1.39-5.019-1.425-7.196-0.087
	c-0.687,0.422-1.557,0.397-2.223-0.057c-0.664-0.458-0.994-1.263-0.844-2.056c0.049-0.227,0.075-0.532,0.075-0.905
	c0-1.333-0.389-2.625-1.118-3.709c-0.246-0.38-0.514-0.708-0.877-1.07c-0.308-0.307-0.676-0.604-1.097-0.891
	C57.866,12.377,56.597,12,55.252,12c-1.806,0-3.495,0.7-4.754,1.97c-1.288,1.292-2.004,2.993-2.004,4.79
	c0,1.292,0.366,2.541,1.102,3.669L49.752,22.644z"/>
<path d="M25.066,39.346c0.217,0.299,0.402,0.513,0.541,0.642c1.321,1.329,2.993,2.036,4.829,2.036c3.724,0,6.758-3.029,6.758-6.75
	c0-1.334-0.395-2.625-1.117-3.71c-0.247-0.38-0.512-0.708-0.875-1.067c-0.311-0.307-0.68-0.607-1.104-0.893
	c-1.051-0.711-2.323-1.088-3.668-1.088c-1.806,0-3.496,0.701-4.756,1.969c-1.29,1.29-2.003,2.992-2.003,4.79
	c0,1.322,0.383,2.595,1.109,3.685C24.858,39.071,24.943,39.184,25.066,39.346z"/>
<path d="M83.938,54.025l-0.908-0.49c-0.292-0.166-0.579-0.348-0.867-0.547l-0.188-0.117c-0.076-0.05-0.149-0.097-0.221-0.15
	c-0.324-0.246-0.634-0.514-0.933-0.801c-0.062-0.057-0.129-0.116-0.209-0.172l-0.449-0.454l-79.911,7.93v23.652l83.645-8.294
	l-0.003-19.76L83.938,54.025z"/>
</svg>
