<?xml version="1.0" encoding="utf-8"?>
<!-- Generator: Adobe Illustrator 15.0.2, SVG Export Plug-In . SVG Version: 6.00 Build 0)  -->
<!DOCTYPE svg PUBLIC "-//W3C//DTD SVG 1.1//EN" "http://www.w3.org/Graphics/SVG/1.1/DTD/svg11.dtd">
<svg version="1.1" id="Ebene_1" xmlns="http://www.w3.org/2000/svg" xmlns:xlink="http://www.w3.org/1999/xlink" x="0px" y="0px"
	 width="140px" height="140px" viewBox="0 0 140 140" enable-background="new 0 0 140 140" xml:space="preserve">
<path d="M92.04,67.134l-0.709-0.533c-0.532-0.417-0.949-0.78-1.346-1.177c-0.367-0.352-0.794-0.846-1.204-1.405
	c-0.161-0.214-0.341-0.461-0.503-0.702c-0.805-1.209-1.401-2.53-1.785-3.934l-0.318-1.171l-1.21-0.084
	c-3.271-0.221-6.344-1.632-8.688-3.993c-0.371-0.351-0.793-0.846-1.199-1.398c-0.166-0.221-0.349-0.468-0.511-0.709
	c-0.78-1.164-1.365-2.432-1.743-3.785l-0.396-1.418l-1.457,0.182c-0.994,0.127-2.016,0.14-3.036,0.046l-0.406-0.055
	c-0.286-0.037-0.568-0.072-0.855-0.127l-0.468-0.104c-0.251-0.058-0.507-0.117-0.754-0.188c-0.153-0.045-0.307-0.091-0.488-0.153
	c-0.236-0.078-0.472-0.159-0.713-0.257c-0.158-0.062-0.321-0.13-0.472-0.195c-0.228-0.101-0.454-0.208-0.684-0.326
	c-0.148-0.075-0.298-0.149-0.44-0.23c-0.229-0.126-0.449-0.264-0.794-0.481l-0.292-0.185c-0.234-0.159-0.456-0.332-0.681-0.511
	l-1.383-1.115l-7.832,5.16l-0.942,0.647l0.211,1.119l0.053,0.214c0.149,0.481,0.247,0.982,0.345,1.496
	c0.022,0.11,0.048,0.221,0.11,0.494c0.104,0.689,0.159,1.372,0.159,2.036c0,7.505-6.109,13.605-13.62,13.605
	c-0.438,0-0.869-0.02-1.291-0.059l-0.43-0.058c-0.283-0.039-0.562-0.071-0.837-0.124l-0.487-0.111
	c-0.25-0.058-0.5-0.117-0.748-0.188c-0.152-0.039-0.298-0.091-0.493-0.156c-0.237-0.079-0.469-0.163-0.703-0.254
	c-0.163-0.065-0.324-0.13-0.483-0.202c-0.225-0.097-0.448-0.202-0.667-0.318c-0.158-0.078-0.312-0.156-0.465-0.241
	c-0.225-0.123-0.438-0.26-0.786-0.481l-0.284-0.182c-0.228-0.157-0.448-0.325-0.673-0.501l-1.42-1.197L6.979,78.6l88.932-8.825
	L92.04,67.134z"/>
<polygon points="105.269,108.912 0,119.342 0,129.461 105.269,119.029 "/>
<path d="M105.269,78.893l0.052-1.002l-1.139-0.617c-0.37-0.209-0.729-0.442-1.092-0.688l-0.237-0.149
	c-0.095-0.064-0.188-0.123-0.279-0.188c-0.409-0.312-0.797-0.649-1.174-1.009c-0.078-0.071-0.162-0.145-0.261-0.215l-0.568-0.573
	L0,84.434V114.2l105.269-10.438V78.893z M14.502,100.789c0,0.67-0.279,1.334-0.764,1.814c-0.94,0.94-2.68,0.924-3.606,0
	c-0.472-0.476-0.743-1.131-0.743-1.814c0-0.676,0.27-1.334,0.743-1.809c0.464-0.467,1.132-0.695,1.806-0.695
	c0.67,0,1.34,0.229,1.805,0.695C14.223,99.463,14.502,100.125,14.502,100.789z"/>
<path d="M62.295,38.396c0.098,0.13,0.169,0.221,0.285,0.39c0.16,0.208,0.396,0.481,0.579,0.654c2.438,2.458,5.97,3.274,9.261,1.928
	c0.41-0.143,0.803-0.341,1.229-0.611c0.87-0.54,1.968-0.514,2.809,0.059c0.84,0.572,1.256,1.59,1.062,2.595
	c-0.055,0.286-0.087,0.663-0.08,1.313l1.697-0.117l0,0l-1.69,0.341c0.063,1.525,0.539,2.992,1.371,4.23
	c0.104,0.157,0.213,0.306,0.364,0.507c0.276,0.371,0.508,0.638,0.684,0.8c2.067,2.081,4.771,2.946,7.622,2.413l0.193-0.045
	c0.872-0.273,1.895-0.059,2.544,0.52c0.677,0.598,1.021,1.431,0.923,2.217l-0.014,0.299c0.014,1.639,0.498,3.232,1.398,4.591
	c0.098,0.143,0.208,0.299,0.352,0.481c0.283,0.384,0.514,0.65,0.685,0.807c1.664,1.678,3.765,2.562,6.072,2.562
	c1.302,0,2.458,0.962,2.635,2.191c0.182,1.262,0.623,2.426,1.353,3.512l0.339,0.461c0.256,0.352,0.49,0.617,0.669,0.787
	c0.279,0.279,0.569,0.539,0.869,0.768c0.903,0.709,1.901,1.211,2.945,1.477c0.767,0.215,1.506,0.318,2.26,0.318
	c4.689,0,8.507-3.811,8.507-8.493c0-1.678-0.495-3.304-1.412-4.669c-0.306-0.475-0.644-0.891-1.099-1.346
	c-0.387-0.39-0.853-0.767-1.378-1.119c-1.327-0.897-2.927-1.372-4.618-1.372c-1.301,0-2.458-0.962-2.634-2.192
	c-0.182-1.268-0.638-2.445-1.33-3.479c-0.309-0.482-0.646-0.898-1.099-1.346c-0.389-0.39-0.855-0.768-1.39-1.125
	c-1.327-0.898-2.924-1.373-4.617-1.373c-0.73,0-1.376,0.082-1.964,0.247c-0.806,0.228-1.678,0.042-2.328-0.494
	c-0.644-0.537-0.984-1.356-0.902-2.341v-0.188c0-1.678-0.495-3.304-1.409-4.669c-0.309-0.482-0.646-0.896-1.096-1.343
	c-0.391-0.39-0.858-0.771-1.387-1.128c-2.598-1.75-6.319-1.794-9.058-0.111c-0.865,0.534-1.958,0.501-2.794-0.071
	c-0.835-0.576-1.252-1.59-1.061-2.588c0.057-0.286,0.093-0.67,0.093-1.138c0-1.678-0.492-3.304-1.409-4.669
	c-0.307-0.478-0.647-0.891-1.1-1.346c-0.387-0.387-0.853-0.761-1.382-1.122C72.516,25.475,70.919,25,69.225,25
	c-2.274,0-4.401,0.881-5.984,2.478c-1.623,1.626-2.521,3.766-2.521,6.029c0,1.625,0.461,3.199,1.386,4.617L62.295,38.396z"/>
<path d="M31.229,59.416c0.276,0.377,0.507,0.643,0.683,0.806c1.662,1.671,3.763,2.562,6.075,2.562c4.688,0,8.506-3.811,8.506-8.493
	c0-1.678-0.495-3.304-1.408-4.669c-0.309-0.481-0.646-0.891-1.1-1.343c-0.388-0.387-0.853-0.764-1.386-1.125
	c-1.325-0.895-2.923-1.369-4.617-1.369c-2.275,0-4.402,0.881-5.988,2.478c-1.623,1.625-2.521,3.765-2.521,6.028
	c0,1.665,0.484,3.265,1.396,4.637C30.969,59.07,31.076,59.213,31.229,59.416z"/>
</svg>
