<?xml version="1.0" encoding="utf-8"?>
<!-- Generator: Adobe Illustrator 15.0.2, SVG Export Plug-In . SVG Version: 6.00 Build 0)  -->
<!DOCTYPE svg PUBLIC "-//W3C//DTD SVG 1.1//EN" "http://www.w3.org/Graphics/SVG/1.1/DTD/svg11.dtd">
<svg version="1.1" id="Ebene_1" xmlns="http://www.w3.org/2000/svg" xmlns:xlink="http://www.w3.org/1999/xlink" x="0px" y="0px"
	 width="140px" height="96px" viewBox="0 0 140 96" enable-background="new 0 0 140 96" xml:space="preserve">
<g>
	<g>
		<path d="M0,47.362c0,21.185,17.175,38.359,38.361,38.359c10.751,0,20.464-4.431,27.43-11.56L38.538,46.987l26.885-26.812
			C58.488,13.271,48.923,9,38.361,9C17.175,9,0,26.174,0,47.362z"/>
	</g>
</g>
<g>
	<g>
		<path d="M101.431,10c-10.562,0-20.128,4.271-27.062,11.175l26.886,26.812L74,75.161c6.966,7.129,16.68,11.56,27.431,11.56
			c21.187,0,38.361-17.174,38.361-38.359C139.792,27.174,122.617,10,101.431,10z"/>
	</g>
</g>
</svg>
