<?xml version="1.0" encoding="utf-8"?>
<!-- Generator: Adobe Illustrator 15.0.2, SVG Export Plug-In . SVG Version: 6.00 Build 0)  -->
<!DOCTYPE svg PUBLIC "-//W3C//DTD SVG 1.1//EN" "http://www.w3.org/Graphics/SVG/1.1/DTD/svg11.dtd">
<svg version="1.1" id="Ebene_1" xmlns="http://www.w3.org/2000/svg" xmlns:xlink="http://www.w3.org/1999/xlink" x="0px" y="0px"
	 width="128px" height="140px" viewBox="0 0 128 140" enable-background="new 0 0 128 140" xml:space="preserve">
<g>
	<g>
		<path d="M39.813,53C26.109,53,15,64.109,15,77.813c0,13.705,11.109,24.814,24.813,24.814c5.735,0,11.004-1.96,15.205-5.228
			L38.904,81.285l19.683-19.683C54.038,56.337,47.318,53,39.813,53z M88.312,53c-7.57,0-14.337,3.399-18.887,8.746l19.539,19.54
			L72.961,97.289c4.225,3.337,9.551,5.339,15.352,5.339c13.705,0,24.814-11.109,24.814-24.814C113.127,64.109,102.018,53,88.312,53z
			"/>
	</g>
</g>
</svg>
