<?xml version="1.0" encoding="utf-8"?>
<!-- Generator: Adobe Illustrator 15.0.2, SVG Export Plug-In . SVG Version: 6.00 Build 0)  -->
<!DOCTYPE svg PUBLIC "-//W3C//DTD SVG 1.1//EN" "http://www.w3.org/Graphics/SVG/1.1/DTD/svg11.dtd">
<svg version="1.1" id="Ebene_1" xmlns="http://www.w3.org/2000/svg" xmlns:xlink="http://www.w3.org/1999/xlink" x="0px" y="0px"
	 width="130px" height="96px" viewBox="0 0 130 96" enable-background="new 0 0 130 96" xml:space="preserve">
<g>
	<g>
		<g>
			<path d="M91.174,10c-10.462,0-19.936,4.231-26.809,11.072l26.631,26.559L64,74.552C70.899,81.612,80.521,86,91.174,86
				c20.986,0,38.003-17.013,38.003-38C129.177,27.013,112.162,10,91.174,10z"/>
		</g>
	</g>
	<g>
		<g>
			<path d="M15.017,59.891v-22.31h39.271V13.663C49.352,11.317,43.83,10,38,10C17.014,10,0,27.013,0,47.999
				C0,68.986,17.014,86,38,86c5.83,0,11.352-1.314,16.288-3.662V59.891H15.017z"/>
		</g>
	</g>
</g>
</svg>
