<?xml version="1.0" encoding="utf-8"?>
<!-- Generator: Adobe Illustrator 15.0.2, SVG Export Plug-In . SVG Version: 6.00 Build 0)  -->
<!DOCTYPE svg PUBLIC "-//W3C//DTD SVG 1.1//EN" "http://www.w3.org/Graphics/SVG/1.1/DTD/svg11.dtd">
<svg version="1.1" id="Ebene_1" xmlns="http://www.w3.org/2000/svg" xmlns:xlink="http://www.w3.org/1999/xlink" x="0px" y="0px"
	 width="140px" height="96px" viewBox="0 0 140 96" enable-background="new 0 0 140 96" xml:space="preserve">
<g>
</g>
<path d="M66.808,21.07C59.939,14.231,50.463,10,40.001,10C19.014,10,2,27.013,2,48.001C2,68.987,19.014,86,40.001,86
	c10.649,0,20.271-4.389,27.172-11.451L40.176,47.63L66.808,21.07z"/>
<path d="M101.379,10c-17.162,0-31.66,11.377-36.378,26.999h10.948v22H65C69.718,74.621,84.217,86,101.379,86
	c20.986,0,38-17.014,38-38C139.379,27.013,122.365,10,101.379,10z"/>
</svg>
