<?xml version="1.0" encoding="utf-8"?>
<!-- Generator: Adobe Illustrator 15.0.2, SVG Export Plug-In . SVG Version: 6.00 Build 0)  -->
<!DOCTYPE svg PUBLIC "-//W3C//DTD SVG 1.1//EN" "http://www.w3.org/Graphics/SVG/1.1/DTD/svg11.dtd">
<svg version="1.1" id="Ebene_1" xmlns="http://www.w3.org/2000/svg" xmlns:xlink="http://www.w3.org/1999/xlink" x="0px" y="0px"
	 width="140px" height="96px" viewBox="0 0 140 96" enable-background="new 0 0 140 96" xml:space="preserve">
<path d="M101.203,47.63L74.206,74.549C81.107,81.611,90.729,86,101.378,86c20.987,0,38.001-17.014,38.001-37.999
	c0-20.988-17.014-38.001-38.001-38.001c-10.462,0-19.938,4.231-26.808,11.07L101.203,47.63z"/>
<path d="M2,48c0,20.986,17.014,38,38,38c17.162,0,31.661-11.379,36.379-27.001H65.43v-22h10.948C71.66,21.377,57.162,10,40,10
	C19.014,10,2,27.013,2,48z"/>
</svg>
