<?xml version="1.0" encoding="utf-8"?>
<!-- Generator: Adobe Illustrator 15.0.2, SVG Export Plug-In . SVG Version: 6.00 Build 0)  -->
<!DOCTYPE svg PUBLIC "-//W3C//DTD SVG 1.1//EN" "http://www.w3.org/Graphics/SVG/1.1/DTD/svg11.dtd">
<svg version="1.1" id="Ebene_1" xmlns="http://www.w3.org/2000/svg" xmlns:xlink="http://www.w3.org/1999/xlink" x="0px" y="0px"
	 width="140px" height="140px" viewBox="0 0 140 140" enable-background="new 0 0 140 140" xml:space="preserve">
<path d="M22.682,55.283c0.012-0.122,0.034-0.245,0.056-0.362l0.104-0.672c0.046-0.341,0.093-0.681,0.164-1.016l0.34-1.598h-4.45
	c-6.776,0-12.286,5.511-12.286,12.286v8.687c0,5.146,2.295,9.945,6.3,13.163l0,0l0.096,0.07c0.377,0.3,0.768,0.586,1.169,0.853
	c0.125,0.085,0.254,0.158,0.383,0.232l0.252,0.152c0.233,0.144,0.465,0.284,0.704,0.413c0.166,0.091,0.337,0.171,0.511,0.251
	l0.275,0.135c0.205,0.1,0.41,0.198,0.615,0.284c0.196,0.085,0.396,0.159,0.599,0.233l0.206,0.076
	c0.214,0.08,0.431,0.161,0.658,0.233c0.23,0.073,0.466,0.139,0.777,0.221c0.237,0.064,0.476,0.128,0.714,0.181
	c0.263,0.06,0.526,0.106,0.794,0.154c0.247,0.044,0.494,0.083,0.744,0.116c0.258,0.032,0.518,0.058,0.78,0.078
	s0.526,0.036,0.793,0.044c0.162,0.004,0.328,0.007,0.492,0.007c0.077,0,0.155,0,0.234-0.003l0.789-0.032l0.3-0.193
	c0.37-0.237,0.746-0.452,1.141-0.684l0.321-0.189c0.574-0.319,1.159-0.613,1.753-0.882l1.399-0.775l-1.071-1.478
	c-0.36-0.453-0.707-0.915-1.035-1.386c-0.106-0.152-0.208-0.305-0.307-0.46l-0.1-0.155c-0.245-0.366-0.474-0.74-0.697-1.119
	l-0.12-0.201c-0.068-0.115-0.139-0.233-0.208-0.353c-0.291-0.529-0.563-1.067-0.817-1.609l-0.249-0.559
	c-0.212-0.479-0.407-0.961-0.59-1.451l-0.148-0.393c-0.214-0.6-0.398-1.214-0.564-1.828l-0.129-0.499
	c-0.147-0.586-0.277-1.178-0.383-1.769l-0.042-0.205c-0.111-0.658-0.194-1.324-0.254-1.985l-0.042-0.488
	c-0.051-0.679-0.088-1.362-0.088-2.052V57.5C22.559,56.78,22.601,56.031,22.682,55.283z"/>
<path d="M13.993,119.598v-10.445c0-0.587,0.029-1.168,0.073-1.751l0.046-0.501c0.043-0.436,0.098-0.872,0.162-1.302l0.071-0.472
	c0.1-0.561,0.21-1.122,0.377-1.769l0.041-0.154c0.123-0.474,0.264-0.944,0.413-1.408l0.169-0.492
	c0.147-0.417,0.305-0.829,0.476-1.239l0.157-0.384c0.227-0.521,0.472-1.03,0.736-1.535l0.178-0.317
	c0.217-0.401,0.448-0.798,0.688-1.186l0.272-0.431c0.259-0.396,0.531-0.786,0.812-1.167l1.312-1.765l-1.89-0.508
	c-0.147-0.041-0.293-0.093-0.438-0.139l-0.591-0.185c-0.19-0.058-0.384-0.116-0.573-0.185c-0.183-0.064-0.359-0.14-0.538-0.213
	l-0.523-0.212c-0.194-0.079-0.388-0.155-0.577-0.241c-0.171-0.078-0.337-0.166-0.504-0.251l-0.528-0.269
	c-0.183-0.089-0.367-0.183-0.548-0.283c-0.168-0.095-0.334-0.198-0.499-0.305l-0.462-0.287c-0.185-0.11-0.367-0.222-0.627-0.393
	l-0.522-0.359l-0.605,0.18C4.336,91.474,0,97.298,0,103.795v8.343c0,4.116,3.342,7.467,7.454,7.467h6.539V119.598z"/>
<path d="M34.926,86.283l0.162,0.125c0.069,0.056,0.138,0.111,0.3,0.227c2.877,2.224,6.317,3.713,9.938,4.31
	c1.176,0.202,2.421,0.304,3.701,0.304c5.129,0,10.14-1.765,14.109-4.972c5.331-4.278,8.388-10.665,8.388-17.522V57.5
	c0-9.098-7.407-16.5-16.512-16.5H43.03c-6.372,0-12.228,3.722-14.921,9.483c-1.048,2.189-1.579,4.551-1.579,7.017v11.254
	C26.532,75.611,29.588,81.996,34.926,86.283z"/>
<path d="M75.414,57.5v11.254c0,0.688-0.037,1.371-0.087,2.051l-0.043,0.489c-0.06,0.664-0.143,1.33-0.253,1.985l-0.041,0.208
	c-0.107,0.589-0.236,1.181-0.385,1.767l-0.128,0.501c-0.167,0.611-0.352,1.224-0.563,1.828l-0.15,0.391
	c-0.183,0.489-0.376,0.973-0.59,1.448l-0.248,0.559c-0.254,0.545-0.527,1.085-0.818,1.611c-0.069,0.12-0.138,0.238-0.208,0.355
	l-0.119,0.199c-0.225,0.378-0.453,0.752-0.697,1.119l-0.1,0.155c-0.1,0.154-0.201,0.31-0.308,0.46
	c-0.328,0.468-0.675,0.93-1.034,1.382l-1.071,1.48l1.399,0.775c0.594,0.269,1.178,0.563,1.752,0.883l0.321,0.188
	c0.395,0.232,0.771,0.446,1.141,0.684l0.3,0.194l0.79,0.032c0.078,0.002,0.156,0.002,0.233,0.002c0.164,0,0.33-0.002,0.492-0.007
	c0.268-0.007,0.531-0.022,0.794-0.043c0.264-0.021,0.521-0.047,0.78-0.078c0.249-0.033,0.496-0.072,0.744-0.116
	c0.267-0.048,0.53-0.095,0.793-0.155c0.239-0.053,0.477-0.115,0.714-0.18c0.312-0.083,0.547-0.147,0.779-0.222
	c0.226-0.072,0.44-0.152,0.657-0.232l0.205-0.077c0.202-0.073,0.402-0.147,0.599-0.232c0.205-0.086,0.41-0.185,0.614-0.284
	l0.277-0.135c0.171-0.08,0.342-0.16,0.508-0.251c0.242-0.13,0.473-0.27,0.706-0.413l0.252-0.152
	c0.129-0.074,0.259-0.148,0.383-0.233c0.405-0.266,0.795-0.553,1.171-0.852l0.095-0.07l0,0c4.004-3.219,6.299-8.015,6.299-13.163
	v-8.687c0-6.774-5.509-12.289-12.286-12.289h-4.448l0.339,1.603c0.071,0.333,0.117,0.672,0.163,1.011l0.104,0.674
	c0.021,0.12,0.043,0.24,0.055,0.36C75.377,56.029,75.419,56.775,75.414,57.5z"/>
<path d="M83.982,119.603h6.542c4.112,0,7.453-3.353,7.453-7.467v-8.343c0-6.498-4.336-12.321-10.552-14.163l-0.605-0.181l-0.52,0.36
	c-0.261,0.171-0.445,0.282-0.627,0.393l-0.463,0.286c-0.164,0.106-0.33,0.21-0.501,0.306c-0.18,0.101-0.362,0.193-0.547,0.283
	l-0.529,0.269c-0.166,0.085-0.333,0.173-0.504,0.251c-0.19,0.086-0.385,0.162-0.579,0.241l-0.521,0.212
	c-0.18,0.073-0.355,0.147-0.538,0.212c-0.189,0.069-0.383,0.127-0.574,0.185l-0.589,0.185c-0.146,0.046-0.294,0.098-0.439,0.139
	l-1.888,0.509l1.311,1.764c0.282,0.381,0.555,0.771,0.812,1.168l0.271,0.43c0.242,0.388,0.472,0.785,0.69,1.187l0.178,0.316
	c0.263,0.506,0.509,1.014,0.734,1.536l0.157,0.383c0.171,0.411,0.33,0.822,0.479,1.24l0.168,0.492
	c0.149,0.463,0.29,0.935,0.413,1.408l0.042,0.154c0.163,0.646,0.277,1.207,0.376,1.769l0.072,0.471
	c0.064,0.431,0.119,0.866,0.161,1.303l0.046,0.501c0.044,0.582,0.071,1.164,0.071,1.75v10.444V119.603z"/>
<path d="M65.421,89.142l-0.69,0.477c-0.478,0.332-0.968,0.643-1.463,0.941l-0.426,0.236c-0.381,0.222-0.767,0.438-1.161,0.642
	l-0.626,0.3c-0.34,0.162-0.679,0.326-1.023,0.472c-0.226,0.102-0.456,0.189-0.69,0.283c-0.336,0.137-0.678,0.267-1.02,0.386
	c-0.236,0.084-0.472,0.164-0.712,0.243c-0.351,0.112-0.708,0.219-1.062,0.316l-0.695,0.194c-0.395,0.099-0.797,0.185-1.196,0.267
	l-0.598,0.125c-0.601,0.11-1.212,0.208-1.817,0.279c-1.743,0.197-3.593,0.225-5.396,0.076l-0.729-0.083
	c-0.494-0.051-0.988-0.11-1.478-0.189c-0.186-0.03-0.372-0.069-0.555-0.105l-0.295-0.057c-0.446-0.087-0.891-0.18-1.333-0.29
	c-0.265-0.065-0.528-0.139-0.87-0.233c-0.425-0.12-0.85-0.249-1.274-0.391c-0.286-0.094-0.57-0.196-0.859-0.299
	c-0.415-0.157-0.821-0.324-1.334-0.541c-0.243-0.102-0.48-0.208-0.721-0.314c-0.409-0.193-0.812-0.402-1.214-0.616l-0.246-0.127
	c-0.172-0.088-0.343-0.18-0.512-0.272c-0.437-0.247-0.858-0.515-1.284-0.789l-1.385-0.898l-0.954,0.265
	c-0.154,0.035-0.308,0.074-0.479,0.128c-7.451,2.486-12.671,9.146-13.289,16.968c-0.045,0.518-0.065,1.042-0.065,1.568l0.004,11.088
	l0.015,0.183c0.108,5.312,4.528,9.628,9.851,9.628h42.476c5.444,0,9.873-4.429,9.873-9.873v-11.025
	c0-8.585-5.744-16.281-13.96-18.719L65.421,89.142z"/>
</svg>
