<?xml version="1.0" encoding="utf-8"?>
<!-- Generator: Adobe Illustrator 15.0.2, SVG Export Plug-In . SVG Version: 6.00 Build 0)  -->
<!DOCTYPE svg PUBLIC "-//W3C//DTD SVG 1.1//EN" "http://www.w3.org/Graphics/SVG/1.1/DTD/svg11.dtd">
<svg version="1.1" id="Ebene_1" xmlns="http://www.w3.org/2000/svg" xmlns:xlink="http://www.w3.org/1999/xlink" x="0px" y="0px"
	 width="101.965px" height="96px" viewBox="0 0 101.965 96" enable-background="new 0 0 101.965 96" xml:space="preserve">
<g>
	<path d="M22.688,21.286c0.012-0.122,0.035-0.245,0.059-0.362l0.104-0.672c0.047-0.341,0.094-0.68,0.164-1.015l0.34-1.6h-4.45
		c-6.776,0-12.288,5.513-12.288,12.289v8.689c0,5.147,2.295,9.947,6.302,13.167l0,0l0.1,0.067c0.377,0.301,0.768,0.588,1.168,0.854
		c0.125,0.088,0.254,0.157,0.383,0.231l0.252,0.151c0.233,0.146,0.465,0.283,0.706,0.413c0.166,0.091,0.336,0.171,0.51,0.251
		l0.276,0.136c0.203,0.102,0.408,0.198,0.611,0.284c0.197,0.085,0.396,0.159,0.604,0.233l0.206,0.07
		c0.215,0.08,0.432,0.16,0.656,0.231c0.229,0.067,0.469,0.14,0.776,0.221c0.236,0.062,0.479,0.128,0.715,0.188
		c0.266,0.06,0.523,0.104,0.793,0.147c0.248,0.045,0.494,0.084,0.744,0.116c0.26,0.031,0.521,0.062,0.78,0.078
		c0.258,0.017,0.525,0.033,0.793,0.044c0.162,0.004,0.328,0.007,0.493,0.007c0.076,0,0.152,0,0.23-0.003l0.787-0.031l0.303-0.188
		c0.369-0.236,0.744-0.451,1.143-0.688l0.319-0.188c0.574-0.317,1.16-0.611,1.756-0.883l1.395-0.773l-1.069-1.479
		c-0.357-0.455-0.707-0.916-1.033-1.391c-0.105-0.148-0.207-0.306-0.311-0.46L26.9,49.273c-0.244-0.366-0.477-0.739-0.698-1.119
		l-0.117-0.2c-0.068-0.113-0.141-0.231-0.209-0.354c-0.291-0.527-0.561-1.064-0.816-1.607l-0.248-0.562
		c-0.213-0.479-0.405-0.961-0.59-1.449l-0.146-0.396c-0.213-0.602-0.396-1.214-0.562-1.828l-0.129-0.5
		c-0.147-0.586-0.276-1.178-0.385-1.771l-0.041-0.203c-0.109-0.659-0.193-1.324-0.256-1.986l-0.041-0.484
		c-0.051-0.683-0.088-1.363-0.088-2.056V23.502C22.565,22.784,22.606,22.035,22.688,21.286z"/>
	<path d="M13.997,85.615V75.168c0-0.586,0.027-1.168,0.074-1.751l0.045-0.502c0.043-0.437,0.1-0.869,0.162-1.301l0.07-0.474
		c0.102-0.562,0.209-1.123,0.377-1.771l0.041-0.153c0.124-0.474,0.266-0.943,0.413-1.408l0.17-0.492
		c0.145-0.418,0.307-0.828,0.477-1.238l0.156-0.383c0.229-0.521,0.473-1.032,0.734-1.536l0.18-0.313
		c0.217-0.396,0.447-0.798,0.688-1.188l0.272-0.434c0.258-0.396,0.529-0.785,0.811-1.166l1.313-1.767l-1.891-0.51
		c-0.146-0.041-0.293-0.093-0.44-0.144l-0.59-0.187c-0.189-0.06-0.387-0.114-0.574-0.188c-0.182-0.062-0.354-0.141-0.538-0.214
		l-0.521-0.212c-0.193-0.079-0.389-0.152-0.577-0.238c-0.172-0.078-0.338-0.166-0.504-0.254l-0.527-0.269
		c-0.184-0.091-0.366-0.185-0.549-0.283c-0.168-0.096-0.334-0.198-0.498-0.308l-0.463-0.285c-0.188-0.11-0.368-0.225-0.627-0.396
		L11.16,55.45l-0.604,0.18C4.337,57.477,0,63.3,0,69.798v8.347c0,4.116,3.344,7.47,7.455,7.47h6.539L13.997,85.615L13.997,85.615
		L13.997,85.615z"/>
	<path d="M36.936,52.294l0.162,0.125c0.066,0.056,0.139,0.11,0.301,0.228c2.877,2.226,6.316,3.713,9.939,4.312
		c1.177,0.201,2.421,0.308,3.7,0.308c5.132,0,10.144-1.77,14.11-4.977c5.332-4.275,8.391-10.668,8.391-17.525v-11.26
		C73.539,14.403,66.133,7,57.023,7H45.041c-6.373,0-12.231,3.723-14.925,9.484c-1.049,2.189-1.579,4.553-1.579,7.02v11.257
		C28.541,41.62,31.596,48.006,36.936,52.294z"/>
	<path d="M79.434,23.504v11.257c0,0.688-0.037,1.372-0.088,2.052l-0.044,0.488c-0.062,0.665-0.145,1.33-0.254,1.986l-0.041,0.207
		c-0.104,0.59-0.233,1.182-0.387,1.768l-0.127,0.501c-0.168,0.611-0.354,1.224-0.562,1.828l-0.147,0.393
		c-0.188,0.487-0.377,0.977-0.591,1.447l-0.246,0.56c-0.256,0.545-0.527,1.086-0.818,1.611c-0.068,0.12-0.139,0.238-0.209,0.355
		l-0.117,0.199c-0.227,0.378-0.453,0.753-0.697,1.119l-0.103,0.148c-0.103,0.152-0.198,0.312-0.31,0.46
		c-0.325,0.472-0.678,0.937-1.032,1.384l-1.07,1.479l1.396,0.771c0.597,0.272,1.182,0.563,1.754,0.885l0.32,0.188
		c0.396,0.229,0.771,0.445,1.142,0.685l0.301,0.192l0.792,0.032c0.078,0.002,0.154,0.002,0.23,0.002c0.162,0,0.328-0.002,0.49-0.007
		c0.271-0.009,0.528-0.022,0.795-0.043c0.266-0.021,0.521-0.05,0.776-0.078c0.251-0.033,0.497-0.072,0.745-0.116
		c0.27-0.048,0.527-0.095,0.793-0.152c0.236-0.056,0.479-0.114,0.715-0.183c0.311-0.083,0.547-0.146,0.776-0.222
		c0.229-0.071,0.438-0.151,0.657-0.23l0.205-0.076c0.201-0.072,0.397-0.146,0.598-0.229c0.205-0.088,0.41-0.188,0.615-0.283
		l0.274-0.138c0.173-0.078,0.345-0.158,0.511-0.252c0.24-0.132,0.474-0.271,0.705-0.412l0.252-0.149
		c0.129-0.07,0.26-0.146,0.383-0.229c0.406-0.271,0.795-0.558,1.173-0.854l0.098-0.065l0,0c4.005-3.224,6.302-8.021,6.302-13.166
		v-8.69c0-6.775-5.514-12.293-12.289-12.293h-4.447l0.34,1.605c0.07,0.333,0.115,0.671,0.162,1.01l0.104,0.674
		c0.021,0.12,0.044,0.24,0.058,0.36C79.396,22.033,79.438,22.779,79.434,23.504z"/>
	<path d="M88.003,85.621h6.542c4.115,0,7.455-3.354,7.455-7.471v-8.346c0-6.498-4.337-12.32-10.553-14.166l-0.605-0.181l-0.52,0.358
		c-0.264,0.173-0.445,0.277-0.627,0.395l-0.465,0.286c-0.164,0.104-0.33,0.21-0.502,0.308c-0.184,0.102-0.36,0.191-0.549,0.282
		l-0.527,0.271c-0.166,0.086-0.332,0.174-0.504,0.252c-0.188,0.086-0.387,0.16-0.578,0.238l-0.521,0.213
		c-0.182,0.072-0.354,0.146-0.539,0.213c-0.188,0.067-0.383,0.127-0.57,0.188l-0.588,0.186c-0.146,0.047-0.295,0.103-0.438,0.144
		l-1.89,0.509l1.312,1.766c0.28,0.385,0.56,0.771,0.813,1.168l0.269,0.434c0.24,0.391,0.478,0.785,0.688,1.188l0.179,0.312
		c0.264,0.506,0.51,1.02,0.733,1.538l0.154,0.383c0.172,0.41,0.329,0.822,0.479,1.24l0.168,0.489
		c0.146,0.467,0.291,0.938,0.414,1.408l0.041,0.151c0.164,0.646,0.275,1.207,0.377,1.771l0.068,0.474
		c0.062,0.435,0.119,0.864,0.162,1.303l0.045,0.504c0.047,0.582,0.07,1.163,0.07,1.751v10.441v0.004L88.003,85.621L88.003,85.621z"
		/>
	<path d="M67.438,55.152l-0.69,0.479c-0.478,0.332-0.968,0.646-1.464,0.938l-0.426,0.234c-0.381,0.223-0.771,0.438-1.162,0.644
		l-0.627,0.304c-0.34,0.159-0.678,0.323-1.021,0.473c-0.228,0.104-0.455,0.188-0.688,0.282c-0.336,0.138-0.678,0.269-1.021,0.386
		c-0.232,0.084-0.475,0.164-0.713,0.244c-0.352,0.108-0.707,0.219-1.061,0.312l-0.694,0.191c-0.396,0.102-0.8,0.188-1.197,0.27
		l-0.6,0.125c-0.601,0.107-1.212,0.209-1.814,0.277c-1.741,0.196-3.595,0.227-5.396,0.076l-0.731-0.084
		c-0.492-0.051-0.984-0.107-1.479-0.188c-0.188-0.027-0.371-0.066-0.555-0.104l-0.297-0.061c-0.443-0.088-0.893-0.182-1.334-0.291
		c-0.266-0.062-0.525-0.141-0.867-0.229c-0.428-0.119-0.854-0.25-1.274-0.394c-0.287-0.097-0.568-0.194-0.857-0.301
		c-0.416-0.154-0.818-0.321-1.334-0.541c-0.242-0.104-0.479-0.209-0.723-0.312c-0.41-0.189-0.813-0.398-1.215-0.615l-0.246-0.127
		c-0.172-0.09-0.342-0.182-0.512-0.271c-0.438-0.246-0.857-0.515-1.283-0.789l-1.385-0.897l-0.956,0.266
		c-0.154,0.035-0.311,0.074-0.479,0.132c-7.451,2.483-12.675,9.147-13.292,16.974c-0.045,0.521-0.062,1.043-0.062,1.563l0.004,11.09
		l0.018,0.188c0.105,5.313,4.526,9.631,9.855,9.631h42.489c5.44,0,9.875-4.43,9.875-9.875V74.133
		c0-8.588-5.746-16.285-13.965-18.726L67.438,55.152z"/>
</g>
</svg>
