<?xml version="1.0" encoding="utf-8"?>
<!-- Generator: Adobe Illustrator 15.0.2, SVG Export Plug-In . SVG Version: 6.00 Build 0)  -->
<!DOCTYPE svg PUBLIC "-//W3C//DTD SVG 1.1//EN" "http://www.w3.org/Graphics/SVG/1.1/DTD/svg11.dtd">
<svg version="1.1" id="Ebene_1" xmlns="http://www.w3.org/2000/svg" xmlns:xlink="http://www.w3.org/1999/xlink" x="0px" y="0px"
	 width="128px" height="140px" viewBox="0 0 128 140" enable-background="new 0 0 128 140" xml:space="preserve">
<g>
	<path d="M49.788,44.383c0.103-0.761,0.318-1.473,0.523-2.189l-14.915-1.591l-0.53,4.967L47.58,60.676L49.788,44.383z"/>
	<path d="M46.878,65.864l-12.582-14.95l-1.86,17.445c-0.462,4.325,2.67,8.204,6.996,8.667l7.519,0.802
		c-0.75-2.204-1.073-4.584-0.74-7.047L46.878,65.864z"/>
	<path d="M72.35,41.207c-1.09-3.021-4.425-4.593-7.447-3.497c-3.021,1.091-4.588,4.424-3.495,7.447l7.059,19.55
		c0.64,1.779,2.106,3.135,3.931,3.635l18.297,5.03c0.516,0.142,1.035,0.21,1.545,0.21c2.554,0,4.896-1.693,5.605-4.278
		c0.854-3.099-0.969-6.299-4.066-7.151l-15.391-4.231L72.35,41.207z"/>
	<path d="M36.989,39.161l14.112,1.467l1.789,0.186c0.878,0.091,1.75,0.007,2.594-0.182c-0.937,1.379-1.609,2.956-1.852,4.705
		l-2.289,16.465l9.919-5.474l-3.505-9.46c-0.939-2.533-0.68-5.193,0.467-7.427c0.146-0.1,0.308-0.176,0.448-0.287
		c0.982-0.773,1.716-1.771,2.219-2.875c0.329-0.722,0.577-1.482,0.665-2.282c0.068-0.614,0.038-1.213-0.04-1.799
		c-0.273-2.054-1.391-3.879-3.028-5.105c0.193-0.333,0.377-0.665,0.551-0.993c0.18,0.727,0.427,1.449,0.753,2.155
		c0,0,10.754-5.349,9.412-10.12c4.226,5.869,12.659,0.003,12.662,0.003c-2.794-6.095-10-8.771-16.095-5.978
		c-0.188,0.086-0.373,0.179-0.555,0.271c0.09-0.942-0.111-1.753-0.646-2.486C64.236,9.5,63.733,9.08,63.034,8.826
		c-0.697-0.254-1.613-0.31-2.434-0.086c-0.83,0.215-1.488,0.646-1.998,1.051c-0.52,0.418-0.897,0.828-1.224,1.231
		c-0.637,0.799-1.065,1.532-1.431,2.24c-0.724,1.411-1.205,2.722-1.621,3.999c-0.411,1.279-0.731,2.521-1.041,3.71
		c-0.303,1.188-0.597,2.334-0.911,3.355c-0.114,0.355-0.238,0.696-0.364,1.007l6.259,1.82c-0.385,0.648-0.812,1.313-1.346,1.968
		c-0.546,0.672-1.202,1.356-2.062,1.958c-0.843,0.604-1.983,1.066-3.122,1.114c-1.148,0.043-2.176-0.265-2.952-0.741
		c-0.784-0.468-1.375-1.06-1.819-1.712c-0.227-0.331-0.429-0.666-0.586-1.031c-0.078-0.182-0.151-0.367-0.224-0.55
		c-0.056-0.199-0.118-0.382-0.161-0.591c0.214-0.006,0.407,0.018,0.611,0.016c0.185,0.012,0.369,0.023,0.557,0.027
		c0.367,0.012,0.717,0.035,1.051,0.037c0.662,0.018,1.252-0.004,1.721-0.101c0.47-0.103,0.767-0.269,0.905-0.451
		c0.142-0.176,0.201-0.313,0.364-0.534c0.198-0.275,0.43-0.739,0.656-1.289L38.653,23.9c-2.076-0.216-4.153,0.38-5.778,1.657
		c-1.623,1.279-2.661,3.131-2.882,5.16C29.531,34.931,32.663,38.711,36.989,39.161z"/>
	<path d="M83.879,119.165l-22.759,6.069c1.727-0.834,3.099-2.374,3.625-4.373l5.685-21.61c0.322-1.233,0.293-2.532-0.086-3.747
		l-2.436-7.811l8.203,5.479l1.957,13.51c0.492,3.381,3.394,5.815,6.711,5.813c0.324,0,0.652-0.022,0.98-0.07
		c3.713-0.534,6.284-3.979,5.746-7.688l-2.393-16.502c-0.275-1.905-1.348-3.604-2.948-4.672l-9.698-6.477l-3.406-2.275
		c0.015-0.1,0.033-0.225,0.057-0.387l0.242-1.794l-1.992-0.548c-3.038-0.835-5.48-3.095-6.551-6.057l-2.217-6.141l-11.91,6.745
		c0,0-0.474,3.502-0.633,4.67c-0.133,0.985-0.16,4.23,0.277,5.631c0.69,2.215,2.762,8.856,2.762,8.856l3.709,11.896l-5.188,19.726
		c-0.954,3.627,1.212,7.339,4.837,8.292c0.58,0.15,1.161,0.225,1.731,0.225c0.171,0,0.338-0.029,0.507-0.042l-4.813,1.283H13v5.67
		h41.622l30-8H128v-5.67H83.879z"/>
</g>
</svg>
