<?xml version="1.0" encoding="utf-8"?>
<!-- Generator: Adobe Illustrator 15.0.2, SVG Export Plug-In . SVG Version: 6.00 Build 0)  -->
<!DOCTYPE svg PUBLIC "-//W3C//DTD SVG 1.1//EN" "http://www.w3.org/Graphics/SVG/1.1/DTD/svg11.dtd">
<svg version="1.1" id="Ebene_1" xmlns="http://www.w3.org/2000/svg" xmlns:xlink="http://www.w3.org/1999/xlink" x="0px" y="0px"
	 width="140px" height="140px" viewBox="0 0 140 140" enable-background="new 0 0 140 140" xml:space="preserve">
<g>
	<path d="M1.8,48.746c1.206,1.24,2.815,1.923,4.533,1.923h8.631V38H6.333c-1.699,0-3.292,0.657-4.486,1.848l-0.003,0.001
		C0.665,41.032,0.009,42.612,0,44.307l0.004,0.198C0.05,46.096,0.682,47.592,1.8,48.746z"/>
	<g>
		<g>
			<path d="M104.253,55.66H8.691C3.892,55.66,0,59.62,0,64.504v55.652C0,125.04,3.892,129,8.691,129h95.562
				c4.8,0,8.692-3.96,8.692-8.844V64.504C112.945,59.62,109.054,55.66,104.253,55.66z M56.742,115.364
				c-12.665,0-22.931-10.266-22.931-22.93c0-12.665,10.266-22.931,22.931-22.931c12.664,0,22.929,10.266,22.929,22.931
				C79.671,105.099,69.405,115.364,56.742,115.364z"/>
		</g>
	</g>
	<circle cx="56.472" cy="92.331" r="16.378"/>
</g>
</svg>
