<?xml version="1.0" encoding="utf-8"?>
<!-- Generator: Adobe Illustrator 15.0.2, SVG Export Plug-In . SVG Version: 6.00 Build 0)  -->
<!DOCTYPE svg PUBLIC "-//W3C//DTD SVG 1.1//EN" "http://www.w3.org/Graphics/SVG/1.1/DTD/svg11.dtd">
<svg version="1.1" id="Ebene_1" xmlns="http://www.w3.org/2000/svg" xmlns:xlink="http://www.w3.org/1999/xlink" x="0px" y="0px"
	 width="96px" height="96px" viewBox="0 0 96 96" enable-background="new 0 0 96 96" xml:space="preserve">
<g>
	<path d="M5.424,31.503c0.954,0.98,2.228,1.521,3.586,1.521h6.828V23H9.01c-1.344,0-2.605,0.52-3.547,1.464H5.461
		C4.526,25.399,4.01,26.649,4,27.991l0.003,0.156C4.039,29.405,4.54,30.588,5.424,31.503z"/>
	<g>
		<g>
			<path d="M86.482,36.974H10.876C7.079,36.974,4,40.106,4,43.971v44.031C4,91.866,7.082,95,10.876,95h75.606
				c3.801,0,6.878-3.134,6.878-6.998V43.971C93.36,40.106,90.281,36.974,86.482,36.974z M48.894,84.209
				c-10.021,0-18.143-8.121-18.143-18.142c0-10.019,8.122-18.145,18.143-18.145c10.019,0,18.14,8.126,18.14,18.145
				C67.033,76.089,58.912,84.209,48.894,84.209z"/>
		</g>
	</g>
	<circle cx="48.68" cy="65.987" r="12.958"/>
</g>
</svg>
