<?xml version="1.0" encoding="utf-8"?>
<!-- Generator: Adobe Illustrator 15.0.2, SVG Export Plug-In . SVG Version: 6.00 Build 0)  -->
<!DOCTYPE svg PUBLIC "-//W3C//DTD SVG 1.1//EN" "http://www.w3.org/Graphics/SVG/1.1/DTD/svg11.dtd">
<svg version="1.1" id="Ebene_1" xmlns="http://www.w3.org/2000/svg" xmlns:xlink="http://www.w3.org/1999/xlink" x="0px" y="0px"
	 width="114px" height="96px" viewBox="0 0 114 96" enable-background="new 0 0 114 96" xml:space="preserve">
<path d="M79.147,0c-8.757,0-16.944,3.434-23.234,9.7c-5.911-4.978-13.223-7.669-21.122-7.669C18.181,2.031,1,14.554,1,35.512
	C1,42.317,3.702,49.213,9.238,56.5c-0.047,0.057-0.105,0.107-0.151,0.164l-0.163,0.163l0.02,0.019
	c-2.338,3.037-2.896,6.806-1.462,10.396c1.716,4.294,6.01,7.304,10.47,7.354c0.097,1.001,0.343,2.007,0.743,2.999
	c1.702,4.221,5.94,7.169,10.308,7.169c1.657,0,3.271-0.418,4.726-1.203c1.723,3.853,5.682,6.509,9.773,6.509
	c0.713,0,1.418-0.08,2.105-0.235c0.053,0.145,0.111,0.288,0.172,0.432C47.258,93.695,50.704,96,54.354,96
	c2.447,0,4.729-1.033,6.413-2.896l2.749-3.019c2.825-2.185,6.006-4.495,9.367-6.937c18.02-13.09,40.446-29.38,40.113-49.707
	C112.646,12.509,95.511,0,79.147,0z M34.792,12.031c6.963,0,13.292,3.013,17.82,8.483l10.35,9.634
	c0.025,0.024,0.047,0.044,0.062,0.062c-0.088,0.306-0.542,0.772-0.773,0.793c-0.002,0-0.129-0.039-0.359-0.26l-9.458-9.082
	c-1.243-1.237-2.882-1.917-4.628-1.917c-0.444,0-0.882,0.047-1.311,0.134L46.206,19.6l-0.492,0.491
	c-0.907,0.303-1.751,0.796-2.471,1.469L15.98,48.781C12.636,43.971,11,39.599,11,35.512C11,20.813,23.097,12.031,34.792,12.031z
	 M18.394,64.378c-0.082,0.081-0.232,0.217-0.331,0.217c-0.35,0-1.048-0.446-1.294-1.063c-0.082-0.206-0.152-0.383,0.36-0.87
	l5.48-5.217l-0.061-0.092l23.787-23.751l0.969,0.933L23.161,59.628L18.394,64.378z M69.16,73.492l9.328-8.994
	c1.966-1.868,2.594-4.681,1.602-7.165c-1.014-2.536-3.5-4.24-6.188-4.24c-1.681,0-3.295,0.66-4.552,1.866L46.965,76.531L43.42,80.03
	c-0.002,0.002-0.003,0.003-0.005,0.005c-0.211-0.095-0.479-0.359-0.56-0.557c0.033-0.046,0.091-0.116,0.189-0.21l1.986-1.893
	l23.574-24.084c1.905-1.928,2.449-4.656,1.42-7.122c-1.034-2.478-3.506-4.142-6.151-4.142c-1.743,0-3.397,0.702-4.677,1.996
	l-25.393,25.94l-4.644,4.649c-0.104,0.104-0.176,0.148-0.157,0.149c-0.229-0.001-0.821-0.385-1.033-0.909
	c-0.074-0.184-0.127-0.316,0.31-0.738l3.291-3.169l25.807-26.799c0.333-0.346,0.623-0.717,0.869-1.107
	c0.783,0.149,1.581,0.224,2.391,0.224c5.624,0,11.046-3.835,13.185-9.326c2.035-5.223,0.737-10.648-3.464-14.507l-4.475-4.125
	C69.767,11.504,74.341,10,79.147,10c11.529,0,23.603,8.832,23.851,23.609C103.234,48.068,84.882,62.044,69.16,73.492z"/>
</svg>
