<?xml version="1.0" encoding="utf-8"?>
<!-- Generator: Adobe Illustrator 15.0.2, SVG Export Plug-In . SVG Version: 6.00 Build 0)  -->
<!DOCTYPE svg PUBLIC "-//W3C//DTD SVG 1.1//EN" "http://www.w3.org/Graphics/SVG/1.1/DTD/svg11.dtd">
<svg version="1.1" id="Ebene_1" xmlns="http://www.w3.org/2000/svg" xmlns:xlink="http://www.w3.org/1999/xlink" x="0px" y="0px"
	 width="128px" height="140px" viewBox="0 0 128 140" enable-background="new 0 0 128 140" xml:space="preserve">
<g transform="scale(0.03125 0.03125)">
	<path d="M1789.453,2759.312c-47.969,0-95.938-18.188-132.531-54.75c-342.734-342.719-342.734-900.562,0-1243.281L2348.688,769.5
		c166.031-166.062,386.875-257.484,621.594-257.484c234.875,0,455.625,91.422,621.594,257.484
		c342.875,342.75,342.875,900.5,0,1243.25l-316.188,316.281c-73.188,73.125-191.719,73.125-264.906,0
		c-73.125-73.203-73.125-191.875,0-265l316.188-316.219c196.688-196.688,196.688-516.672,0-713.359
		c-95.219-95.25-221.906-147.734-356.688-147.734c-134.594,0-261.312,52.484-356.688,147.734l-691.75,691.75
		c-196.578,196.688-196.578,516.672,0,713.391c73.172,73.125,73.172,191.844,0,264.969
		C1885.344,2741.125,1837.422,2759.312,1789.453,2759.312z"/>
	<path d="M1125.609,4114.875c-234.766,0-455.562-91.438-621.641-257.469c-342.703-342.75-342.703-900.469,0-1243.219
		l316.297-316.156c73.062-73.234,191.734-73.234,264.922,0c73.172,73.125,73.172,191.812,0,265l-316.281,316.094
		c-196.609,196.688-196.609,516.656,0,713.344c95.359,95.25,222.016,147.75,356.703,147.75c134.766,0,261.438-52.5,356.688-147.75
		l691.781-691.719c196.672-196.688,196.672-516.656,0-713.359c-73.203-73.203-73.203-191.828,0-264.953
		c73.156-73.172,191.828-73.172,264.859,0c342.875,342.75,342.875,900.5,0.156,1243.25l-691.875,691.719
		C1581.266,4023.438,1360.453,4114.875,1125.609,4114.875z"/>
</g>
</svg>
