<?xml version="1.0" encoding="utf-8"?>
<!-- Generator: Adobe Illustrator 15.0.2, SVG Export Plug-In . SVG Version: 6.00 Build 0)  -->
<!DOCTYPE svg PUBLIC "-//W3C//DTD SVG 1.1//EN" "http://www.w3.org/Graphics/SVG/1.1/DTD/svg11.dtd">
<svg version="1.1" id="Ebene_1" xmlns="http://www.w3.org/2000/svg" xmlns:xlink="http://www.w3.org/1999/xlink" x="0px" y="0px"
	 width="96px" height="96px" viewBox="0 0 96 96" enable-background="new 0 0 96 96" xml:space="preserve">
<g transform="scale(0.03125 0.03125)">
	<path d="M1315.219,1916.188c-40.906,0-81.781-15.5-113-46.688C910,1577.281,910,1101.641,1202.219,809.406l589.844-589.844
		C1933.625,77.969,2121.938,0,2322.062,0c200.281,0,388.5,77.969,530.031,219.562c292.344,292.25,292.344,767.812,0,1060.062
		l-269.625,269.688c-62.375,62.344-163.469,62.344-225.875,0c-62.344-62.438-62.344-163.609,0-225.969l269.625-269.625
		c167.688-167.703,167.688-440.547,0-608.25C2545.031,364.25,2437,319.516,2322.062,319.516
		c-114.75,0-222.781,44.734-304.125,125.953l-589.812,589.812c-167.625,167.719-167.625,440.562,0,608.281
		c62.375,62.375,62.375,163.594,0,225.938C1397,1900.688,1356.125,1916.188,1315.219,1916.188z"/>
	<path d="M749.188,3072c-200.156,0-388.438-77.938-530.031-219.531c-292.219-292.219-292.219-767.781,0-1060.031l269.688-269.562
		c62.312-62.438,163.5-62.438,225.875,0c62.406,62.344,62.406,163.562,0,225.938l-269.656,269.531
		c-167.656,167.719-167.656,440.531,0,608.25c81.312,81.219,189.281,125.969,304.125,125.969
		c114.906,0,222.938-44.75,304.156-125.969l589.812-589.812c167.719-167.719,167.719-440.531,0-608.266
		c-62.406-62.391-62.406-163.547,0-225.891c62.406-62.406,163.594-62.406,225.875,0c292.344,292.25,292.344,767.812,0.125,1060.062
		l-589.938,589.781C1137.719,2994.062,949.438,3072,749.188,3072z"/>
</g>
</svg>
