<?xml version="1.0" encoding="utf-8"?>
<!-- Generator: Adobe Illustrator 15.0.2, SVG Export Plug-In . SVG Version: 6.00 Build 0)  -->
<!DOCTYPE svg PUBLIC "-//W3C//DTD SVG 1.1//EN" "http://www.w3.org/Graphics/SVG/1.1/DTD/svg11.dtd">
<svg version="1.1" id="Ebene_1" xmlns="http://www.w3.org/2000/svg" xmlns:xlink="http://www.w3.org/1999/xlink" x="0px" y="0px"
	 width="120px" height="96px" viewBox="0.5 0.5 120 96" enable-background="new 0.5 0.5 120 96" xml:space="preserve">
<g>
	<path d="M83.585,74.992c0-12.918-10.473-23.391-23.388-23.391S36.811,62.072,36.811,74.992c0,1.068,0.096,2.109,0.235,3.139
		L60.197,82.3l23.152-4.169C83.487,77.103,83.585,76.061,83.585,74.992z"/>
	<path d="M108.528,52.226c0.09-1.198,0.148-2.405,0.148-3.626h-0.018c-0.203-26.556-21.86-48.1-48.46-48.1
		c-26.601,0-48.255,21.543-48.458,48.1h-0.002c0,0.016,0.001,0.03,0.001,0.045c-0.001,0.11-0.008,0.219-0.008,0.328h0.016
		c0.009,1.092,0.06,2.173,0.14,3.246C5.073,56.263,0.5,63.689,0.5,72.191c0,10.4,6.842,19.203,16.27,22.153V66.95h5.497v28.401
		c0.477,0.029,0.956,0.049,1.44,0.049c2.224,0,4.375-0.311,6.413-0.897V49.88c-2.038-0.585-4.189-0.897-6.413-0.897
		c-0.485,0-0.963,0.02-1.44,0.049v5.339c-0.284-1.872-0.447-3.782-0.45-5.73c0.181-21.017,17.326-38.062,38.382-38.062
		c21.151,0,38.362,17.197,38.39,38.344c-0.016,1.885-0.178,3.734-0.456,5.548v-5.438c-0.476-0.029-0.954-0.049-1.437-0.049
		c-2.225,0-4.375,0.312-6.414,0.897v44.623c2.039,0.587,4.189,0.897,6.414,0.897c0.482,0,0.961-0.02,1.437-0.049V66.95h5.497v27.396
		c9.43-2.949,16.273-11.752,16.273-22.154C119.903,63.695,115.337,56.271,108.528,52.226z"/>
</g>
</svg>
