<?xml version="1.0" encoding="utf-8"?>
<!-- Generator: Adobe Illustrator 15.0.2, SVG Export Plug-In . SVG Version: 6.00 Build 0)  -->
<!DOCTYPE svg PUBLIC "-//W3C//DTD SVG 1.1//EN" "http://www.w3.org/Graphics/SVG/1.1/DTD/svg11.dtd">
<svg version="1.1" id="Ebene_1" xmlns="http://www.w3.org/2000/svg" xmlns:xlink="http://www.w3.org/1999/xlink" x="0px" y="0px"
	 width="99px" height="96px" viewBox="0.5 0.5 99 96" enable-background="new 0.5 0.5 99 96" xml:space="preserve">
<g transform="translate(0,-952.36218)">
	<g>
		<path d="M43.332,976.821c0-2.538,0.56-4.906,1.521-7.072l-19.662-7.886v72.421l33.948,13.578v-34.089l-14.463-30.021
			C43.947,981.826,43.332,979.013,43.332,976.821z"/>
		<polygon points="0.5,969.233 0.5,1041.654 18.926,1034.284 18.926,961.863 		"/>
		<path d="M79.728,969.714c0.981,2.178,1.556,4.554,1.556,7.107c0,2.191-0.611,5.003-1.343,6.931l-14.536,30.162v33.948
			l33.951-13.578v-72.421L79.728,969.714z"/>
		<path d="M76.984,975.032c0-8.394-6.623-15.17-14.748-15.17s-14.676,6.776-14.676,15.17c0,1.929,0.537,4.387,1.168,6.082
			l13.545,28.537l13.542-28.537C76.451,979.419,76.984,976.961,76.984,975.032z M62.273,981.362c-3.75,0-6.791-3.04-6.791-6.789
			c0-3.75,3.041-6.789,6.791-6.789c3.748,0,6.789,3.039,6.789,6.789C69.062,978.322,66.021,981.362,62.273,981.362z"/>
	</g>
</g>
</svg>
