<?xml version="1.0" encoding="utf-8"?>
<!-- Generator: Adobe Illustrator 15.0.2, SVG Export Plug-In . SVG Version: 6.00 Build 0)  -->
<!DOCTYPE svg PUBLIC "-//W3C//DTD SVG 1.1//EN" "http://www.w3.org/Graphics/SVG/1.1/DTD/svg11.dtd">
<svg version="1.1" id="Ebene_1" xmlns="http://www.w3.org/2000/svg" xmlns:xlink="http://www.w3.org/1999/xlink" x="0px" y="0px"
	 width="110px" height="96px" viewBox="0 0 110 96" enable-background="new 0 0 110 96" xml:space="preserve">
<g>
	<path d="M82.991,78.938c-0.231-0.588-0.763-0.998-1.392-1.078l-41.486-5.186V12.625c0-1.452-1.173-2.625-2.625-2.625
		c-1.452,0-2.625,1.173-2.625,2.625v59.391L3.941,68.15c-0.632-0.08-1.257,0.197-1.625,0.713c-0.367,0.52-0.417,1.201-0.133,1.771
		l10.308,20.617C13.328,92.936,15.052,94,16.935,94h51.713c1.878,0,3.657-0.832,4.857-2.273l9.208-11.049
		C83.117,80.189,83.224,79.523,82.991,78.938z"/>
	<path d="M31.256,14.783l0.982-2.158l-12.169,12.17C9.372,35.491,3.363,49.998,3.363,65.125l28.875,2.625
		C23.936,51.146,23.576,31.683,31.256,14.783z"/>
	<path d="M63.737,73c0-15.016-6.482-29.295-17.779-39.184L42.738,31l0.856,2.282c4.504,12.012,4.2,25.301-0.856,37.094L63.737,73z"
		/>
</g>
<path d="M109.688,0h-3.75v0.015c-0.893-0.038-1.826,0.262-2.661,1.062L91.592,12.762L71.143,7.211c-0.294,0-8.034,3.798,1.169,7.888
	l10.954,5.989L71.58,32.772c-2.045-0.146-7.156-0.584-7.449,0c-1.169,2.483,5.843,4.382,7.157,5.842
	c1.461,1.315,3.359,8.326,5.842,7.157c0.731-0.439,0.146-5.988,0-7.887l11.539-11.539l5.989,11.1
	c3.943,9.202,7.739,1.461,7.739,1.169l-5.55-20.448l11.686-11.686c0.886-0.886,1.209-1.883,1.146-2.825h0.009V0z"/>
</svg>
