<?xml version="1.0" encoding="utf-8"?>
<!-- Generator: Adobe Illustrator 15.0.2, SVG Export Plug-In . SVG Version: 6.00 Build 0)  -->
<!DOCTYPE svg PUBLIC "-//W3C//DTD SVG 1.1//EN" "http://www.w3.org/Graphics/SVG/1.1/DTD/svg11.dtd">
<svg version="1.1" id="Ebene_1" xmlns="http://www.w3.org/2000/svg" xmlns:xlink="http://www.w3.org/1999/xlink" x="0px" y="0px"
	 width="120px" height="96px" viewBox="0 0 120 96" enable-background="new 0 0 120 96" xml:space="preserve">
<path d="M24.61,47.525c13.036,0,23.611,10.56,23.611,23.562c0,13.004-10.576,23.565-23.611,23.565C11.576,94.65,1,84.093,1,71.087
	C1,58.085,11.576,47.525,24.61,47.525z M95.445,47.525c13.035,0,23.611,10.478,23.611,23.366c0,12.905-10.578,23.363-23.611,23.363
	c-13.035,0-23.611-10.458-23.611-23.363C71.834,58.003,82.41,47.525,95.445,47.525z M30.105,42.917
	c-1.574-0.705-2.836-2.083-3.328-3.87c-0.837-3.146,1.033-6.395,4.181-7.231l42.994-11.527c3.146-0.836,6.375,1.034,7.23,4.181
	c0.77,2.918-0.789,5.919-3.527,7.001l-2.916,5.067h22.873c2.18,0,3.934,1.771,3.934,3.935c0,2.18-1.754,3.935-3.934,3.935h-29.68
	c-0.361,0-0.738-0.048-1.115-0.148c-0.311-0.098-0.605-0.229-0.885-0.393l0,0h-0.016l0,0l0,0c-0.607-0.362-1.084-0.854-1.412-1.411
	c-0.328-0.59-0.525-1.262-0.525-1.967l0,0l0,0v-0.016l0,0c0-0.294,0.033-0.591,0.1-0.885l0,0l0,0l0,0l0,0
	c0.098-0.394,0.244-0.772,0.439-1.1l2.348-4.082l-24.416,6.542l27.35,15.792c1.264,0.738,1.969,2.066,1.969,3.427
	c0,0.655-0.18,1.328-0.525,1.949l-12.92,22.368c-1.082,1.887-3.493,2.525-5.377,1.443c-1.869-1.081-2.525-3.493-1.426-5.378
	l10.937-18.955L30.105,42.917L30.105,42.917z M86.293,7.331c4.639-1.306,9.477,1.375,10.816,6.022
	c1.348,4.664-1.34,9.536-6.002,10.882s-9.535-1.342-10.883-6.003c-0.314-1.087-0.406-2.169-0.305-3.24l-8.518-1.482
	c-0.449-0.076-0.777-0.442-0.801-0.877c-0.023-0.438,0.268-0.846,0.693-0.97c5.545-1.603,14.934-4.314,14.934-4.314L86.293,7.331z"
	/>
</svg>
