<?xml version="1.0" encoding="utf-8"?>
<!-- Generator: Adobe Illustrator 15.0.2, SVG Export Plug-In . SVG Version: 6.00 Build 0)  -->
<!DOCTYPE svg PUBLIC "-//W3C//DTD SVG 1.1//EN" "http://www.w3.org/Graphics/SVG/1.1/DTD/svg11.dtd">
<svg version="1.1" id="Ebene_1" xmlns="http://www.w3.org/2000/svg" xmlns:xlink="http://www.w3.org/1999/xlink" x="0px" y="0px"
	 width="110px" height="96px" viewBox="0 0 110 96" enable-background="new 0 0 110 96" xml:space="preserve">
<g>
	<path d="M38.427,27.651c0.08-0.588,0.246-1.138,0.404-1.692L27.306,24.73l-0.409,3.838l9.825,11.672L38.427,27.651z"/>
	<path d="M36.178,44.25l-9.723-11.552l-1.437,13.48c-0.356,3.342,2.063,6.339,5.406,6.696l5.81,0.621
		c-0.58-1.704-0.829-3.543-0.572-5.445L36.178,44.25z"/>
	<path d="M55.861,25.196c-0.843-2.334-3.419-3.549-5.755-2.702c-2.334,0.843-3.544,3.418-2.7,5.754l5.455,15.107
		c0.495,1.374,1.627,2.422,3.039,2.808l14.138,3.888c0.398,0.109,0.8,0.162,1.193,0.162c1.974,0,3.783-1.31,4.332-3.306
		c0.659-2.395-0.749-4.868-3.143-5.526l-11.893-3.27L55.861,25.196z"/>
	<path d="M28.537,23.616l10.905,1.133l1.382,0.144c0.679,0.07,1.352,0.005,2.004-0.141c-0.724,1.066-1.243,2.284-1.431,3.636
		l-1.769,12.723l7.665-4.23l-2.709-7.31c-0.726-1.958-0.525-4.013,0.361-5.739c0.113-0.078,0.238-0.136,0.346-0.222
		c0.759-0.597,1.326-1.368,1.715-2.221c0.254-0.558,0.445-1.146,0.514-1.763c0.053-0.475,0.029-0.938-0.031-1.391
		c-0.211-1.587-1.075-2.998-2.34-3.944c0.149-0.257,0.292-0.514,0.426-0.768c0.139,0.562,0.33,1.12,0.582,1.666
		c0,0,8.309-4.134,7.272-7.82c3.266,4.535,9.782,0.002,9.784,0.002c-2.158-4.71-7.727-6.778-12.436-4.619
		c-0.146,0.066-0.288,0.138-0.43,0.209c0.07-0.728-0.085-1.354-0.499-1.921c-0.258-0.344-0.647-0.668-1.187-0.864
		c-0.539-0.197-1.247-0.24-1.881-0.067c-0.642,0.166-1.15,0.5-1.544,0.812c-0.402,0.323-0.693,0.64-0.946,0.951
		c-0.492,0.618-0.823,1.184-1.105,1.731c-0.559,1.09-0.931,2.103-1.252,3.09c-0.318,0.988-0.565,1.948-0.805,2.867
		c-0.234,0.917-0.461,1.804-0.704,2.592c-0.088,0.274-0.184,0.538-0.282,0.778l4.837,1.406c-0.298,0.5-0.627,1.014-1.041,1.521
		c-0.422,0.519-0.928,1.048-1.593,1.513c-0.651,0.466-1.532,0.824-2.412,0.86c-0.887,0.033-1.682-0.205-2.281-0.572
		c-0.606-0.362-1.062-0.819-1.406-1.324c-0.175-0.255-0.332-0.514-0.453-0.796c-0.06-0.141-0.117-0.284-0.173-0.425
		c-0.043-0.154-0.091-0.295-0.124-0.457c0.165-0.005,0.314,0.014,0.472,0.013c0.143,0.009,0.285,0.018,0.43,0.021
		c0.284,0.009,0.554,0.027,0.812,0.029c0.512,0.014,0.967-0.003,1.33-0.078c0.364-0.08,0.593-0.208,0.699-0.348
		c0.11-0.136,0.155-0.242,0.282-0.413c0.153-0.212,0.332-0.571,0.506-0.996l-10.207-1.061c-1.604-0.167-3.209,0.294-4.465,1.281
		c-1.254,0.988-2.056,2.419-2.227,3.987C22.774,20.347,25.194,23.268,28.537,23.616z"/>
	<path d="M64.771,85.437l-17.587,4.69c1.335-0.645,2.394-1.836,2.801-3.38l4.393-16.698c0.249-0.953,0.227-1.957-0.067-2.896
		l-1.881-6.036l6.338,4.234L60.28,75.79c0.38,2.612,2.621,4.494,5.186,4.493c0.25,0,0.504-0.019,0.757-0.055
		c2.87-0.413,4.855-3.075,4.439-5.941l-1.849-12.751c-0.212-1.472-1.042-2.785-2.277-3.61l-7.494-5.005l-2.632-1.758
		c0.011-0.077,0.025-0.174,0.044-0.299l0.188-1.387l-1.54-0.423c-2.347-0.646-4.234-2.392-5.062-4.681l-1.714-4.746l-9.203,5.212
		c0,0-0.366,2.706-0.489,3.609c-0.103,0.762-0.124,3.269,0.214,4.351c0.533,1.712,2.134,6.844,2.134,6.844l2.866,9.192L39.84,84.079
		c-0.737,2.803,0.937,5.671,3.738,6.407c0.448,0.116,0.896,0.174,1.337,0.174c0.132,0,0.261-0.022,0.392-0.033l-3.719,0.992H10V96
		h32.162l23.182-6.182h33.52v-4.381L64.771,85.437L64.771,85.437z"/>
</g>
</svg>
