<?xml version="1.0" encoding="utf-8"?>
<!-- Generator: Adobe Illustrator 15.0.2, SVG Export Plug-In . SVG Version: 6.00 Build 0)  -->
<!DOCTYPE svg PUBLIC "-//W3C//DTD SVG 1.1//EN" "http://www.w3.org/Graphics/SVG/1.1/DTD/svg11.dtd">
<svg version="1.1" id="Ebene_1" xmlns="http://www.w3.org/2000/svg" xmlns:xlink="http://www.w3.org/1999/xlink" x="0px" y="0px"
	 width="110px" height="96px" viewBox="0 0 110 96" enable-background="new 0 0 110 96" xml:space="preserve">
<g>
	<path d="M36.348,81.158c-1.657-1.657-1.76-4.248-0.206-6.01l-8.29-8.289c-1.659,1.451-4.353,1.451-6.011-0.206
		c-1.657-1.659-1.76-4.25-0.206-6.011l-3.522-3.522c-4.145,7.874-2.695,17.615,3.729,24.039c3.834,3.835,9.118,6.01,14.508,6.01
		c3.315,0.001,6.527-0.724,9.43-2.384l-3.419-3.419C40.597,82.921,38.005,82.816,36.348,81.158z"/>
	<path d="M73.653,14.842c1.658,1.658,1.761,4.248,0.206,6.01l8.29,8.29c1.658-1.451,4.354-1.451,6.011,0.206
		c1.656,1.658,1.76,4.249,0.207,6.011l3.937,3.938c5.804-8.082,5.182-19.272-2.071-26.525c-3.835-3.833-9.118-6.009-14.508-6.01
		c-4.352,0-8.6,1.348-12.021,3.938l3.938,3.938C69.403,13.081,71.995,13.184,73.653,14.842z"/>
	<path d="M38.422,50.072c1.658,1.658,1.76,4.249,0.208,6.01l8.289,8.289c1.658-1.45,4.352-1.45,6.009,0.207
		c1.657,1.657,1.76,4.249,0.208,6.011l4.144,4.144l24.351-24.35l-4.144-4.145c-1.658,1.451-4.354,1.449-6.01-0.207
		c-1.658-1.657-1.761-4.249-0.208-6.009l-8.289-8.29c-1.658,1.451-4.352,1.451-6.01-0.207c-1.658-1.658-1.761-4.249-0.208-6.01
		l-4.145-4.145l-24.35,24.352l4.144,4.145C34.173,48.312,36.764,48.415,38.422,50.072z"/>
	<path d="M102.147,46.445L98.003,42.3c-1.14-1.14-3.005-1.14-4.145,0l-1.348,1.348l-8.289-8.29l1.865-1.865
		c0.518-0.518,0.623-1.45,0-2.072c-0.517-0.517-1.553-0.516-2.071,0.002l-1.865,1.864L69.716,20.852l1.865-1.864
		c0.518-0.518,0.621-1.451,0-2.073c-0.52-0.518-1.555-0.518-2.072,0l-1.865,1.866l-8.291-8.291l1.347-1.347
		c1.14-1.139,1.14-3.004,0-4.144l-4.145-4.145c-1.14-1.139-3.004-1.139-4.145,0l-9.325,9.325c-1.14,1.14-1.14,3.005,0,4.146
		l4.144,4.145c1.14,1.14,3.005,1.139,4.146-0.001l1.346-1.347l8.291,8.291l-1.865,1.865c-0.519,0.52-0.518,1.555,0,2.073
		c0.622,0.621,1.554,0.518,2.072,0l1.865-1.866l12.436,12.435l-1.865,1.865c-0.52,0.519-0.519,1.554,0,2.072
		c0.62,0.621,1.552,0.518,2.071-0.001l1.864-1.865l8.291,8.29l-1.347,1.348c-1.141,1.14-1.141,3.005-0.001,4.145l4.145,4.145
		c1.14,1.141,3.005,1.141,4.146,0l9.326-9.326C103.289,49.45,103.288,47.585,102.147,46.445z"/>
	<path d="M66.916,81.675l-4.145-4.145c-1.14-1.139-3.005-1.14-4.145,0.001l-1.348,1.348l-8.29-8.289l1.865-1.865
		c0.519-0.519,0.622-1.452,0-2.072c-0.518-0.518-1.553-0.518-2.072,0.002l-1.865,1.865L34.483,56.084l1.865-1.865
		c0.518-0.519,0.622-1.451,0-2.072c-0.518-0.52-1.553-0.52-2.072,0l-1.865,1.864l-8.29-8.289l1.348-1.348
		c1.14-1.141,1.14-3.005,0-4.145l-4.145-4.144c-1.14-1.14-3.004-1.14-4.145,0l-9.325,9.326c-1.139,1.139-1.14,3.005,0,4.145
		l4.145,4.145c1.14,1.14,3.004,1.14,4.145-0.001l1.347-1.348l8.29,8.291l-1.865,1.864c-0.519,0.52-0.518,1.554,0,2.073
		c0.622,0.62,1.554,0.518,2.073,0l1.865-1.866l12.435,12.435l-1.865,1.865c-0.519,0.519-0.519,1.555-0.001,2.071
		c0.622,0.621,1.553,0.518,2.071,0l1.865-1.865l8.291,8.291l-1.348,1.346c-1.139,1.14-1.141,3.006-0.001,4.145l4.144,4.145
		c1.14,1.14,3.005,1.141,4.147,0l9.325-9.325C68.058,84.679,68.057,82.814,66.916,81.675z"/>
</g>
</svg>
