<?xml version="1.0" encoding="utf-8"?>
<!-- Generator: Adobe Illustrator 15.0.2, SVG Export Plug-In . SVG Version: 6.00 Build 0)  -->
<!DOCTYPE svg PUBLIC "-//W3C//DTD SVG 1.1//EN" "http://www.w3.org/Graphics/SVG/1.1/DTD/svg11.dtd">
<svg version="1.1" id="Ebene_1" xmlns="http://www.w3.org/2000/svg" xmlns:xlink="http://www.w3.org/1999/xlink" x="0px" y="0px"
	 width="110px" height="96px" viewBox="0 0 110 96" enable-background="new 0 0 110 96" xml:space="preserve">
<g>
	<path d="M51.117,43.681c0-0.668,0.143-1.265,0.427-1.778c0.283-0.518,0.658-0.938,1.124-1.274c0.464-0.334,0.986-0.589,1.566-0.761
		c0.58-0.169,1.163-0.255,1.752-0.255c0.587,0,1.171,0.086,1.752,0.255c0.578,0.172,1.101,0.426,1.563,0.761
		c0.468,0.337,0.842,0.756,1.126,1.274c0.286,0.515,0.427,1.11,0.427,1.778v8.797c0,0.683-0.142,1.28-0.427,1.788
		c-0.284,0.508-0.658,0.928-1.126,1.263c-0.465,0.338-0.985,0.593-1.563,0.761c-0.581,0.17-1.166,0.257-1.752,0.257
		c-0.59,0-1.173-0.087-1.752-0.257c-0.581-0.168-1.103-0.423-1.566-0.761c-0.466-0.335-0.842-0.755-1.124-1.263
		c-0.284-0.508-0.427-1.105-0.427-1.788V43.681z M53.91,52.481c0,0.573,0.32,1.001,0.711,1.273c0.388,0.273,0.85,0.419,1.382,0.419
		c0.528,0,0.991-0.146,1.381-0.419c0.389-0.271,0.609-0.699,0.609-1.273v-8.796c0-0.576-0.221-1-0.609-1.273
		c-0.39-0.273-0.853-0.457-1.381-0.457c-0.532,0-0.994,0.184-1.382,0.457c-0.391,0.271-0.711,0.698-0.711,1.273V52.481z"/>
	<polygon points="46.081,39.594 46.081,46.739 41.625,46.739 41.625,39.594 39.188,39.594 39.188,56.553 41.625,56.553 
		41.625,49.406 46.081,49.406 46.081,56.553 48.701,56.553 48.701,39.594 	"/>
	<polygon points="72.384,39.594 62.711,39.594 62.711,42.089 66.287,42.089 66.243,56.553 68.816,56.553 68.816,42.089 
		72.384,42.089 	"/>
	<path d="M90.319,54.715H110L98.233,41.462L86.517,28.211L74.799,15H15.93l11.716,13.211H7.921l11.718,13.251l0.09,0.089H0
		l11.764,13.253l11.722,13.249l11.716,13.213h58.869L82.35,68.054l-0.086-0.13h19.728L90.319,54.715z M54.999,70.151
		c-13.144,0-23.798-9.857-23.798-22.018c0-12.162,10.654-22.022,23.798-22.022c13.146,0,23.802,9.86,23.802,22.022
		C78.801,60.294,68.145,70.151,54.999,70.151z"/>
</g>
<rect width="11" height="11"/>
<rect y="85" width="11" height="11"/>
<rect x="99" width="11" height="11"/>
<rect x="99" y="85" width="11" height="11"/>
</svg>
