<?xml version="1.0" encoding="utf-8"?>
<!-- Generator: Adobe Illustrator 15.0.2, SVG Export Plug-In . SVG Version: 6.00 Build 0)  -->
<!DOCTYPE svg PUBLIC "-//W3C//DTD SVG 1.1//EN" "http://www.w3.org/Graphics/SVG/1.1/DTD/svg11.dtd">
<svg version="1.1" id="Ebene_1" xmlns="http://www.w3.org/2000/svg" xmlns:xlink="http://www.w3.org/1999/xlink" x="0px" y="0px"
	 width="110px" height="96px" viewBox="0 0 110 96" enable-background="new 0 0 110 96" xml:space="preserve">
<g>
	<g>
		<g id="g4205" transform="matrix(0.26458333,0,0,0.26458333,73.554167,119.36016)">
			<path d="M98.425-279.33c0,0,2.772-16.641,10.693-37.646c7.928-21.003,16.251-42.4,16.251-42.4s-7.533-24.174-11.889-47.156
				c-4.363-22.982-13.073-40.815-13.073-40.815s-38.438,14.264-50.319,16.641c-11.892,2.379-33.296,8.325-33.296,8.325
				c1.694-0.463,3.495,2.643,5.333,7.897c15.668,4.461,30.458,12.835,42.793,25.17c38.637,38.639,38.637,101.278,0,139.913
				c-11.139,11.139-24.286,19.049-38.264,23.766l9.962,57.656L16.401-95.85c0,0,20.607-4.359,41.209-9.117
				c20.603-4.754,42.003-12.682,42.003-12.682s-1.188-7.921,6.736-38.829c7.925-30.915,13.867-44.387,13.867-44.387
				s-0.786-7.138-5.942-31.307C109.118-256.347,98.425-279.33,98.425-279.33z"/>
			<g>
				<path fill="#CCCCCC" d="M-59.917-401.689c21.743-14.526,47.96-19.501,72.785-14.958c-1.561-3.92-3.086-6.133-4.529-5.736
					c0,0-15.45-6.736-34.868-13.474c-19.418-6.736-47.156-8.718-47.156-8.718C-68.354-444.102-63.818-423.482-59.917-401.689z"/>
				<path fill="#CCCCCC" d="M-62.637-238.918l6.385,41.221l-17.827,78.47c0,0,8.714,0.794,35.662,9.899
					c26.944,9.12,46.362,13.479,46.362,13.479l20.212-72.129l-9.56-55.298C-8.904-216.536-38.731-221.763-62.637-238.918z"/>
			</g>
			<g>
				<path d="M-189.067-110.835c-5.898-3.248-8.633-4.444-13.752-9.563c5.121,5.119,7.411,8.585,8.109,15.214l-0.077,0.078
					c19.403,3.525,31.55,6.094,31.55,6.094l1.093-38.74L-189.067-110.835z"/>
				<path d="M-161.331-185.215l-18.946-71.922l25.362-94.713c-3.523-24.534-14.373-47.621-22.589-70.927
					c0,0-29.323-14.267-49.929-18.228c-12.88-2.48-24.543-3.1-31.751-3.121c-4.33-0.011-7.033,0.199-7.478,0.345
					c0,0,11.887,20.607,18.623,43.987c6.74,23.378,9.906,40.418,9.906,40.418s-8.716,20.212-13.077,39.231
					c-4.357,19.021-9.113,36.456-9.113,36.456s9.113,25.361,14.662,47.558c5.549,22.19,5.94,38.434,5.94,38.434
					s-6.335,16.244-11.887,38.441c-5.547,22.197-7.923,48.746-7.923,48.746s14.661-3.174,45.172,1.978
					c2.949,0.495,5.774,0.985,8.526,1.458c-1.88-1.129-3.748-2.598-5.73-4.577c-5.123-5.123-7.053-9.681-8.115-15.214l1.641-1.639
					c6.633,0.321,10.095,2.979,15.216,8.105c-5.119-5.127-6.313-7.862-9.563-13.76L-161.331-185.215z"/>
			</g>
			<path fill="#CCCCCC" d="M-82.55-257.886c-30.882-38.836-28.378-95.501,7.55-131.427c0.091-0.092,0.188-0.179,0.281-0.269
				c-4.346-25.578-9.554-54.43-15.869-54.991c0,0-5.155,5.549-34.872,12.678c-29.719,7.135-43.592,9.117-43.592,9.117
				c8.216,23.307,19.073,46.393,22.589,70.927l-25.359,94.715l17.183,65.234l40.082-40.095c6.446,1.24,10.093,2.99,15.218,8.109
				c5.117,5.119,7.223,9.128,8.104,15.221l-62.215,62.218l-1.332,47.432c0,0,20.208-4.366,38.041-9.918
				c17.831-5.54,25.755-10.294,25.755-10.294l17.831-76.882L-82.55-257.886z"/>
		</g>
		<g id="g6060" transform="matrix(0.26458333,0,0,0.26458333,74.347905,123.52735)">
			<path id="path5604" fill="#1A171B" d="M-80.573-263.043c-40.244-40.25-40.244-105.506,0-145.752
				c40.248-40.244,105.504-40.244,145.754,0c40.246,40.246,40.246,105.502,0,145.752C24.931-222.789-40.324-222.789-80.573-263.043z
				 M-76.195-267.42c38.635,38.652,99.82,40.098,138.457,1.465c38.641-38.646,37.186-99.829-1.462-138.466
				c-38.637-38.639-99.822-40.093-138.458-1.46C-116.297-367.24-114.837-306.059-76.195-267.42z"/>
			<path id="path5604-9-1-8-8" d="M-93.919-291.786l-8.513,6.064c5.003,9.417,11.388,18.051,18.946,25.595
				c7.746,7.744,16.399,14.066,25.593,18.949l6.061-8.519c-8.999-4.595-17.226-10.575-24.362-17.728
				C-83.547-274.765-89.422-283.007-93.919-291.786z"/>
			<path d="M-102.34-239.635c2.571,2.565,4.381,4.857,5.656,7.279l21.854-21.854c-1.578-3.126-3.637-5.987-6.103-8.467
				c-2.486-2.477-5.344-4.532-8.471-6.101l-22.552,22.541C-108.557-244.968-105.774-243.068-102.34-239.635z"/>
		</g>
	</g>
</g>
</svg>
