<?xml version="1.0" encoding="utf-8"?>
<!-- Generator: Adobe Illustrator 15.0.2, SVG Export Plug-In . SVG Version: 6.00 Build 0)  -->
<!DOCTYPE svg PUBLIC "-//W3C//DTD SVG 1.1//EN" "http://www.w3.org/Graphics/SVG/1.1/DTD/svg11.dtd">
<svg version="1.1" id="Ebene_1" xmlns="http://www.w3.org/2000/svg" xmlns:xlink="http://www.w3.org/1999/xlink" x="0px" y="0px"
	 width="110px" height="96px" viewBox="0 0 110 96" enable-background="new 0 0 110 96" xml:space="preserve">
<path d="M79.723,84.828c5.626-2.448,8.943-8.332,8.129-14.414l-5.493-40.837c-0.744-5.442-5.385-9.503-10.877-9.521H38.519
	c-5.494,0.014-10.139,4.072-10.889,9.515l-5.494,40.842c-0.813,6.084,2.512,11.968,8.142,14.414l-7.439,7.449
	c-1.092,1.055-1.121,2.793-0.067,3.883c1.054,1.093,2.793,1.122,3.884,0.069c0.022-0.021,0.045-0.045,0.068-0.069l10.186-10.179
	h36.182l10.18,10.179c1.055,1.093,2.794,1.122,3.884,0.069c1.093-1.054,1.122-2.793,0.068-3.886
	c-0.021-0.021-0.044-0.043-0.068-0.066L79.723,84.828z M32.238,36.538H77.76l2.945,21.975H29.294L32.238,36.538z M38.518,77.741
	c-3.034,0-5.494-2.459-5.494-5.493c0-3.032,2.46-5.494,5.494-5.494c3.035,0,5.494,2.462,5.494,5.494
	C44.011,75.282,41.553,77.741,38.518,77.741z M65.987,72.248c0-3.032,2.46-5.494,5.494-5.494s5.494,2.462,5.494,5.494
	c0,3.034-2.46,5.493-5.494,5.493S65.987,75.282,65.987,72.248z"/>
<rect x="36.273" y="12.682" transform="matrix(-0.7071 0.7071 -0.7071 -0.7071 104.651 -13.5383)" width="37.712" height="4.446"/>
<rect x="49.185" y="14.682" transform="matrix(-0.7071 0.7071 -0.7071 -0.7071 128.1065 -19.2561)" width="37.712" height="4.444"/>
</svg>
