<?xml version="1.0" encoding="utf-8"?>
<!-- Generator: Adobe Illustrator 15.0.2, SVG Export Plug-In . SVG Version: 6.00 Build 0)  -->
<!DOCTYPE svg PUBLIC "-//W3C//DTD SVG 1.1//EN" "http://www.w3.org/Graphics/SVG/1.1/DTD/svg11.dtd">
<svg version="1.1" id="Ebene_1" xmlns="http://www.w3.org/2000/svg" xmlns:xlink="http://www.w3.org/1999/xlink" x="0px" y="0px"
	 width="110px" height="96px" viewBox="0 0 110 96" enable-background="new 0 0 110 96" xml:space="preserve">
<path d="M110.25,36.5c0-3.712-3.038-6.75-6.75-6.75h-7.164l-5.905-16.028c-0.856-2.322-3.458-4.915-5.783-5.761
	C84.647,7.962,76.5,5,55.124,5C33.749,5,25.603,7.962,25.603,7.962c-2.326,0.846-4.928,3.438-5.784,5.761L13.913,29.75H6.75
	C3.038,29.75,0,32.788,0,36.5c0,3.713,3.038,6.75,6.75,6.75H8.94l-1.759,4.778c-0.856,2.322-1.556,6.247-1.556,8.722v29.251
	c0,4.95,4.05,8.999,9,8.999c4.95,0,9-4.049,9-8.999V81.5h62.999v4.501c0,4.95,4.051,8.999,9.001,8.999s8.999-4.049,8.999-8.999
	V56.75c0-2.475-0.698-6.399-1.556-8.722l-1.758-4.778h2.19C107.212,43.25,110.25,40.213,110.25,36.5z M29.25,16.25H81l6.751,20.25
	H22.5L29.25,16.25z M21.375,63.501c-3.727,0-6.75-3.025-6.75-6.751s3.022-6.751,6.75-6.751s6.75,3.025,6.75,6.751
	C28.125,60.478,25.102,63.501,21.375,63.501z M69.4,73.769H40.85V68.08H69.4V73.769z M88.875,63.501c-3.728,0-6.75-3.023-6.75-6.751
	s3.022-6.751,6.75-6.751c3.729,0,6.751,3.023,6.751,6.751S92.604,63.501,88.875,63.501z"/>
</svg>
