<?xml version="1.0" encoding="utf-8"?>
<!-- Generator: Adobe Illustrator 15.0.2, SVG Export Plug-In . SVG Version: 6.00 Build 0)  -->
<!DOCTYPE svg PUBLIC "-//W3C//DTD SVG 1.1//EN" "http://www.w3.org/Graphics/SVG/1.1/DTD/svg11.dtd">
<svg version="1.1" id="Ebene_1" xmlns="http://www.w3.org/2000/svg" xmlns:xlink="http://www.w3.org/1999/xlink" x="0px" y="0px"
	 width="110px" height="96px" viewBox="0 0 110 96" enable-background="new 0 0 110 96" xml:space="preserve">
<path d="M109.944,96v-5.285c-0.061,0.004-0.117,0.006-0.157-0.008c-0.049-0.018,0.047-0.053,0-0.066
	c-0.103-0.035-0.513,0.033-0.615,0c-0.049-0.018,0.049-0.053,0-0.068c-0.097-0.031-0.312,0.031-0.41,0
	c-0.05-0.016,0.05-0.051,0-0.068c-0.103-0.033-0.512,0.035-0.614,0c-0.05-0.016,0.049-0.053,0-0.066
	c-0.057-0.02-0.709,0.018-0.819,0c-0.087-0.016-0.12-0.055-0.204-0.068c-0.062-0.01-0.157,0.018-0.205,0
	c-0.049-0.016,0.049-0.051,0-0.066c-0.042-0.014-0.534,0.014-0.614,0c-0.089-0.014-0.12-0.055-0.203-0.066
	c-0.167-0.027-0.452,0.025-0.616,0c-0.087-0.016-0.12-0.055-0.205-0.068c-0.165-0.027-0.45,0.027-0.614,0
	c-0.086-0.016-0.119-0.053-0.205-0.068c-0.128-0.02-0.69,0.021-0.819,0c-0.086-0.014-0.118-0.053-0.205-0.066
	c-0.062-0.012-0.145,0.01-0.206,0c-0.084-0.014-0.116-0.053-0.203-0.066c-0.062-0.012-0.156,0.016-0.203,0
	c-0.049-0.018,0.048-0.055,0-0.068c-0.05-0.016-0.146,0.01-0.207,0c-0.053-0.01-0.587-0.186-0.613-0.201
	c-0.029-0.021,0.048-0.055,0-0.07c-0.049-0.014-0.136,0-0.204,0l-1.024-0.336c-0.067,0-0.158,0.016-0.205,0
	c-0.049-0.016,0.03-0.049,0-0.068c-0.044-0.027-0.138-0.045-0.206-0.066c-0.066-0.021-0.118-0.053-0.203-0.068
	c-0.06-0.01-0.143,0.012-0.203,0c-0.089-0.014-0.12-0.053-0.205-0.066c-0.062-0.01-0.145,0.01-0.205,0
	c-0.087-0.016-0.119-0.055-0.205-0.066c-0.062-0.012-0.157,0.016-0.204,0c-0.049-0.018,0.047-0.053,0-0.068
	c-0.049-0.016-0.77,0.016-0.82,0c-0.048-0.016,0.049-0.051,0-0.068c-0.048-0.018-0.77,0.018-0.82,0
	c-0.047-0.016,0.051-0.053,0-0.066c-0.055-0.02-0.706,0.018-0.817,0c-0.086-0.016-0.12-0.055-0.204-0.068
	c-0.276-0.045-0.243-0.016-0.191,0.008c-0.043-0.016-0.11-0.037-0.22-0.074c-0.122-0.021-0.287,0.02-0.409,0
	c-0.088-0.016-0.119-0.055-0.205-0.068c-0.062-0.01-0.145,0.012-0.204,0c-0.173-0.027-0.237-0.107-0.41-0.135
	c-0.123-0.02-0.314,0.031-0.412,0c-0.047-0.016,0.051-0.051,0-0.068c-0.047-0.014-0.143,0.012-0.203,0
	c-0.087-0.012-0.119-0.051-0.206-0.066c-0.06-0.01-0.143,0.012-0.205,0c-0.086-0.014-0.116-0.053-0.202-0.066
	c-0.06-0.012-0.159,0.016-0.204,0c-0.05-0.018,0.047-0.053,0-0.068c-0.05-0.016-0.145,0.01-0.207,0
	c-0.084-0.016-0.115-0.053-0.203-0.068c-0.062-0.01-0.156,0.018-0.204,0c-0.048-0.016,0.048-0.051,0-0.066
	c-0.049-0.016-0.145,0.012-0.205,0c-0.173-0.027-0.237-0.107-0.411-0.135c-0.061-0.01-0.156,0.016-0.203,0
	c-0.049-0.016,0.047-0.051,0-0.068c-0.049-0.014-0.145,0.012-0.205,0c-0.22-0.035-0.191-0.098-0.41-0.133
	c-0.061-0.012-0.157,0.016-0.204,0c-0.049-0.018,0.048-0.053,0-0.068c-0.049-0.016-0.158,0.016-0.207,0
	c-0.422-0.141,0.649,0.006-0.202-0.135c-0.06-0.01-0.159,0.016-0.204,0c-0.05-0.016,0.029-0.047,0-0.068
	c-0.125-0.08-0.492-0.121-0.615-0.201c-0.029-0.02,0.05-0.053,0-0.066c-0.049-0.016-0.158,0.016-0.204,0
	c-0.05-0.018,0.047-0.053,0-0.068c-0.05-0.016-0.158,0.016-0.205,0c-0.049-0.016,0.047-0.051,0-0.068
	c-0.049-0.016-0.156,0.018-0.206,0c-0.422-0.139,0.647,0.008-0.203-0.135c-0.061-0.01-0.156,0.018-0.205,0
	c-0.047-0.016,0.05-0.051,0-0.066c-0.049-0.016-0.145,0.01-0.206,0c-0.086-0.014-0.118-0.053-0.204-0.066
	c-0.059-0.012-0.156,0.016-0.203,0c-0.049-0.018,0.048-0.053,0-0.068c-0.049-0.016-0.144,0.01-0.206,0
	c-0.084-0.016-0.117-0.053-0.203-0.066c-0.123-0.021-0.314,0.031-0.411,0c-0.05-0.018,0.048-0.053,0-0.068
	c-0.05-0.016-0.157,0.016-0.203,0c-0.049-0.016,0.047-0.051,0-0.066c-0.138-0.047-0.274,0.043-0.412,0
	c-0.049-0.018,0.049-0.055,0-0.068c-0.04-0.014-0.532,0.014-0.612,0c-0.088-0.016-0.12-0.055-0.205-0.068
	c-0.123-0.02-0.314,0.033-0.412,0c-0.421-0.139,0.648,0.006-0.202-0.133c-0.062-0.012-0.145,0.01-0.205,0
	c-0.173-0.029-0.238-0.107-0.412-0.137c-0.058-0.01-0.156,0.018-0.202,0c-0.052-0.016,0.047-0.051,0-0.066
	c-0.098-0.031-0.312,0.031-0.411,0c-0.049-0.016,0.048-0.053,0-0.066c-0.049-0.018-0.156,0.016-0.204,0
	c-0.049-0.018,0.049-0.053,0-0.068s-0.144,0.01-0.204,0c-0.854-0.141,0.218,0.004-0.205-0.135c-0.049-0.018-0.158,0.016-0.207,0
	c-0.047-0.018,0.049-0.053,0-0.066c-0.421-0.141,0.018,0.213-0.407-0.068c-0.142-0.092,0.246-0.061-0.207-0.135
	c-0.061-0.012-0.136,0-0.205,0c0-0.023,0.052-0.053,0-0.068c-0.047-0.016-0.156,0.018-0.203,0c-0.05-0.016,0.048-0.051,0-0.066
	c-0.05-0.018-0.157,0.016-0.205,0c-0.048-0.018,0.049-0.053,0-0.068c-0.048-0.016-0.157,0.018-0.202,0
	c-0.05-0.016,0.047-0.051,0-0.066c-0.05-0.018-0.159,0.016-0.205,0c-0.05-0.018,0.047-0.053,0-0.066c-0.05-0.018-0.145,0.01-0.207,0
	c-0.087-0.016-0.115-0.055-0.203-0.07c-0.122-0.018-0.288,0.021-0.411,0c-0.086-0.014-0.117-0.053-0.203-0.066
	c-0.123-0.02-0.314,0.031-0.411,0c-0.048-0.016,0.049-0.053,0-0.066c-0.096-0.031-0.286,0.02-0.409,0
	c-0.088-0.014-0.119-0.055-0.206-0.068c-0.059-0.01-0.156,0.018-0.203,0c-0.048-0.016,0.048-0.051,0-0.066
	c-0.097-0.031-0.313,0.031-0.412,0c-0.047-0.018,0.05-0.053,0-0.068c-0.047-0.016-0.143,0.012-0.204,0
	c-0.086-0.014-0.118-0.053-0.203-0.066c-0.062-0.012-0.145,0.01-0.204,0c-0.088-0.016-0.119-0.053-0.205-0.068
	c-0.061-0.01-0.158,0.016-0.207,0c-0.047-0.016,0.05-0.051,0-0.068c-0.095-0.031-0.31,0.033-0.409,0
	c-0.047-0.016,0.049-0.051,0-0.066c-0.042-0.014-0.532,0.014-0.613,0c-0.087-0.014-0.119-0.053-0.206-0.066
	c-0.121-0.021-0.312,0.031-0.408,0c-0.051-0.018,0.047-0.053,0-0.068c-0.051-0.016-0.145,0.01-0.206,0
	c-0.086-0.014-0.137-0.045-0.203-0.066c-0.069-0.021-0.162-0.039-0.204-0.068c-0.032-0.02,0.047-0.051,0-0.066
	c-0.052-0.016-0.159,0.016-0.207,0s0.05-0.053,0-0.068c-0.048-0.016-0.143,0.01-0.202,0c-0.088-0.014-0.12-0.055-0.207-0.068
	c-0.029-0.004-0.383-0.002-0.616,0c-0.011-0.018-0.138,0-0.201,0c-0.094,0-0.554-0.01-0.616,0c-0.086,0.016-0.117,0.055-0.203,0.068
	c-0.129,0.021-0.896-0.02-1.025,0c-0.086,0.016-0.118,0.053-0.205,0.068c-0.06,0.01-0.52,0-0.613,0h-1.229
	c-0.209,0-1.117-0.014-1.229,0c-0.092,0.01-0.119,0.053-0.205,0.066c-0.126,0.021-1.106-0.02-1.23,0
	c-0.086,0.014-0.117,0.053-0.203,0.068c-0.063,0.01-0.522,0-0.614,0h-1.23c-0.091,0-0.552-0.012-0.615,0
	c-0.086,0.016-0.118,0.053-0.205,0.066c-0.123,0.021-1.103-0.02-1.229,0c-0.087,0.016-0.118,0.055-0.205,0.068
	c-0.121,0.02-0.312-0.033-0.41,0c-0.047,0.016,0.051,0.051,0,0.066c-0.101,0.033-0.511-0.033-0.613,0
	c-0.049,0.016,0.048,0.053,0,0.066c-0.097,0.033-0.289-0.018-0.41,0c-0.086,0.016-0.118,0.055-0.204,0.068
	c-0.124,0.02-0.314-0.031-0.412,0c-0.047,0.016,0.05,0.051,0,0.068c-0.094,0.031-0.31-0.031-0.408,0
	c-0.049,0.016,0.047,0.051,0,0.066c-0.098,0.031-0.313-0.031-0.41,0c-0.049,0.016,0.048,0.053,0,0.068
	c-0.097,0.031-0.313-0.031-0.41,0c-0.048,0.016,0.048,0.053,0,0.066c-0.097,0.033-0.288-0.02-0.41,0
	c-0.086,0.016-0.118,0.055-0.204,0.068c-0.062,0.01-0.155-0.016-0.206,0c-0.048,0.016,0.051,0.051,0,0.066
	c-0.096,0.031-0.285-0.02-0.409,0c-0.086,0.016-0.118,0.055-0.204,0.066c-0.062,0.012-0.145-0.01-0.206,0
	c-0.086,0.016-0.118,0.055-0.205,0.07c-0.061,0.01-0.143-0.012-0.203,0c-0.087,0.014-0.12,0.053-0.206,0.066
	c-0.122,0.02-0.286-0.02-0.409,0c-0.086,0.014-0.118,0.053-0.205,0.066c-0.061,0.012-0.144-0.01-0.205,0
	c-0.086,0.016-0.117,0.055-0.205,0.068c-0.061,0.01-0.143-0.01-0.204,0c-0.086,0.016-0.12,0.053-0.205,0.066
	c-0.061,0.01-0.144-0.01-0.205,0c-0.087,0.016-0.118,0.055-0.204,0.068c-0.062,0.01-0.157-0.016-0.206,0
	c-0.047,0.016,0.049,0.051,0,0.066c-0.096,0.031-0.312-0.031-0.409,0c-0.047,0.018,0.049,0.053,0,0.068
	c-0.097,0.033-0.288-0.02-0.409,0c-0.087,0.016-0.118,0.053-0.205,0.068c-0.122,0.018-0.312-0.033-0.41,0
	c-0.047,0.016,0.049,0.051,0,0.066c-0.047,0.016-0.157-0.018-0.205,0c-0.048,0.016,0.048,0.053,0,0.066
	c-0.096,0.033-0.314-0.031-0.409,0c-0.048,0.018,0.048,0.053,0,0.068c-0.097,0.031-0.313-0.033-0.41,0
	c-0.048,0.016,0.048,0.051,0,0.068c-0.048,0.016-0.157-0.018-0.205,0c-0.048,0.016,0.048,0.051,0,0.066s-0.145-0.012-0.205,0
	c-0.086,0.014-0.119,0.053-0.205,0.066c-0.061,0.012-0.144-0.01-0.205,0c-0.172,0.029-0.236,0.107-0.41,0.137
	c-0.06,0.01-0.144-0.012-0.205,0c-0.086,0.014-0.119,0.053-0.204,0.066c-0.062,0.01-0.156-0.016-0.206,0
	c-0.047,0.016,0.05,0.053,0,0.066c-0.047,0.018-0.143-0.01-0.204,0c-0.087,0.016-0.119,0.055-0.206,0.068
	c-0.061,0.01-0.157-0.018-0.204,0c-0.048,0.016,0.047,0.051,0,0.068c-0.098,0.031-0.288-0.02-0.41,0
	c-0.086,0.014-0.119,0.053-0.205,0.066c-0.061,0.012-0.156-0.016-0.205,0c-0.048,0.016,0.031,0.047,0,0.068
	c-0.044,0.027-0.162,0.039-0.204,0.066c-0.031,0.02,0.048,0.053,0,0.068c-0.049,0.016-0.158-0.018-0.205,0
	c-0.049,0.016,0.048,0.051,0,0.066c-0.049,0.016-0.144-0.01-0.205,0c-0.173,0.029-0.237,0.105-0.409,0.135
	c-0.062,0.01-0.144-0.01-0.206,0c-0.173,0.027-0.236,0.105-0.41,0.135c-0.061,0.01-0.144-0.012-0.204,0
	c-0.173,0.027-0.237,0.105-0.411,0.135c-0.061,0.01-0.144-0.01-0.205,0c-0.173,0.029-0.237,0.105-0.409,0.135
	c-0.277,0.047-0.243,0.018-0.191-0.008c-0.041,0.016-0.108,0.039-0.219,0.074c-0.061,0.01-0.156-0.016-0.205,0
	c-0.047,0.018,0.049,0.053,0,0.068c-0.096,0.031-0.312-0.031-0.409,0c-0.274,0.09,0.34,0.066-0.205,0.066
	c-0.049,0.018,0.049,0.053,0,0.068c-0.049,0.016-0.144-0.01-0.204,0c-0.086,0.014-0.119,0.053-0.205,0.068
	c-0.061,0.01-0.156-0.018-0.205,0c-0.049,0.016,0.048,0.051,0,0.066c-0.095,0.031-0.313-0.031-0.409,0
	c-0.05,0.018,0.047,0.053,0,0.066c-0.103,0.035-0.513-0.033-0.615,0c-0.048,0.018,0,0.047,0,0.068c-0.068,0-0.157-0.016-0.206,0
	c-0.047,0.016,0.049,0.053,0,0.066c-0.095,0.033-0.312-0.029-0.409,0c-0.049,0.018,0.048,0.053,0,0.068
	c-0.049,0.018-0.144-0.01-0.205,0c-0.087,0.016-0.119,0.055-0.206,0.068c-0.061,0.01-0.144-0.012-0.205,0
	c-0.087,0.014-0.119,0.051-0.206,0.066c-0.122,0.021-0.312-0.031-0.41,0c-0.048,0.018,0.049,0.053,0,0.068
	c-0.096,0.031-0.313-0.033-0.409,0c-0.049,0.016,0.048,0.051,0,0.066c-0.049,0.018-0.144-0.01-0.206,0
	c-0.086,0.016-0.118,0.055-0.204,0.068c-0.123,0.02-0.288-0.02-0.411,0c-0.172,0.027-0.237,0.105-0.41,0.135
	c-0.062,0.01-0.144-0.01-0.205,0c-0.086,0.014-0.119,0.053-0.206,0.066c-0.122,0.02-0.313-0.031-0.41,0
	c-0.047,0.018,0.05,0.053,0,0.068c-0.095,0.031-0.286-0.021-0.409,0c-0.087,0.014-0.12,0.053-0.205,0.066
	c-0.061,0.01-0.144-0.01-0.205,0c-0.087,0.016-0.119,0.055-0.205,0.068c-0.062,0.01-0.144-0.012-0.205,0
	c-0.087,0.014-0.137,0.045-0.205,0.066c-0.068,0-0.144-0.01-0.206,0c-0.086,0.016-0.118,0.053-0.204,0.068
	c-0.062,0.01-0.144-0.012-0.205,0c-0.087,0.014-0.118,0.053-0.205,0.068c-0.123,0.02-0.287-0.021-0.41,0
	c-0.086,0.012-0.119,0.053-0.205,0.066c-0.061,0.01-0.144-0.01-0.205,0c-0.086,0.014-0.118,0.053-0.205,0.066
	c-0.123,0.02-0.313-0.031-0.41,0c-0.048,0.018,0.048,0.053,0,0.068c-0.097,0.031-0.312-0.033-0.409,0
	c-0.048,0.016,0.049,0.051,0,0.066c-0.048,0.018-0.144-0.01-0.204,0c-0.086,0.016-0.119,0.055-0.205,0.068
	c-0.062,0.01-0.144-0.01-0.205,0c-0.086,0.014-0.136,0.045-0.204,0.066c-0.068,0.023-0.118,0.053-0.205,0.068
	c-0.061,0.01-0.144-0.012-0.205,0c-0.087,0.014-0.117,0.055-0.204,0.068c-0.062,0.01-0.144-0.012-0.204,0
	c-0.086,0.012-0.119,0.053-0.206,0.066c-0.061,0.01-0.144-0.01-0.204,0c-0.853,0.139,0.219-0.006-0.205,0.135
	c-0.097,0.031-0.288-0.02-0.411,0c-0.086,0.014-0.119,0.053-0.204,0.066c-0.062,0.01-0.144-0.01-0.205,0
	c-0.246,0.041-0.369,0.162-0.614,0.203c-0.061,0.01-0.144-0.01-0.206,0c-0.086,0.016-0.119,0.055-0.206,0.066
	c-0.061,0.012-0.144-0.01-0.204,0c-0.087,0.016-0.119,0.055-0.205,0.068c-0.061,0.01-0.145-0.01-0.206,0
	c-0.086,0.014-0.118,0.053-0.205,0.066c-0.061,0.012-0.155-0.016-0.205,0c-0.049,0.018,0.049,0.053,0,0.068s-0.145-0.012-0.205,0
	c-0.085,0.014-0.118,0.053-0.205,0.066c-0.122,0.02-0.288-0.02-0.409,0c-0.087,0.016-0.119,0.055-0.205,0.068
	c-0.062,0.01-0.144-0.01-0.205,0c-0.086,0.014-0.118,0.053-0.205,0.066c-0.061,0.012-0.144-0.01-0.206,0
	c-0.085,0.016-0.117,0.053-0.204,0.068c-0.061,0.01-0.144-0.01-0.204,0c-0.087,0.016-0.12,0.055-0.206,0.066
	c-0.081,0.014-0.574-0.012-0.614,0c-0.048,0.018,0.047,0.053,0,0.068c-0.042,0.014-0.534-0.014-0.615,0
	c-0.086,0.014-0.119,0.053-0.204,0.066c-0.122,0.021-0.312-0.031-0.41,0c-0.049,0.018,0.049,0.053,0,0.068
	c-0.042,0.014-0.534-0.014-0.615,0c-0.086,0.014-0.119,0.053-0.206,0.068c-0.164,0.027-0.451-0.027-0.614,0
	c-0.087,0.014-0.119,0.053-0.205,0.066c-0.129,0.021-0.69-0.021-0.819,0c-0.087,0.016-0.12,0.053-0.204,0.068
	c-0.082,0.014-0.574-0.016-0.616,0c-0.048,0.016,0.049,0.051,0,0.066c-0.041,0.016-0.532-0.014-0.613,0
	c-0.087,0.016-0.12,0.055-0.205,0.066c-0.123,0.021-0.313-0.031-0.41,0c-0.048,0.018,0.049,0.053,0,0.068
	c-0.097,0.033-0.288-0.02-0.409,0c-0.086,0.016-0.119,0.053-0.206,0.068c-0.061,0.01-0.156-0.018-0.205,0
	c-0.049,0.016,0.048,0.053,0,0.066c-0.049,0.018-0.145-0.012-0.206,0c-0.086,0.014-0.118,0.053-0.205,0.068
	c-0.122,0.02-0.313-0.033-0.409,0c-0.048,0.016,0.048,0.051,0,0.066c-0.137,0.045-0.273-0.045-0.41,0
	c-0.049,0.016,0.049,0.053,0,0.068c-0.097,0.031-0.288-0.02-0.41,0c-0.085,0.014-0.118,0.053-0.205,0.066
	c-0.061,0.01-0.156-0.018-0.204,0c-0.048,0.018,0.048,0.053,0,0.068s-0.144-0.01-0.205,0c-0.087,0.014-0.119,0.053-0.205,0.066
	c-0.122,0.02-0.313-0.031-0.41,0c-0.048,0.016,0.048,0.053,0,0.068c-0.048,0.016-0.137,0-0.205,0h-1.024
	c-0.068,0-0.157-0.018-0.205,0c-0.048,0.016,0.048,0.053,0,0.066c-0.048,0.018-0.156-0.016-0.205,0
	c-0.048,0.018,0.049,0.053,0,0.068c-0.048,0.016-0.144-0.01-0.205,0c-0.086,0.014-0.118,0.053-0.204,0.066
	c-0.273,0.045-0.244,0.018-0.192-0.006c-0.042,0.014-0.108,0.037-0.218,0.074c-0.165,0.025-0.451-0.027-0.615,0
	c-0.087,0.014-0.119,0.053-0.206,0.068c-0.061,0.008-0.156-0.018-0.205,0c-0.048,0.016,0.048,0.051,0,0.066
	c-0.096,0.031-0.287-0.02-0.409,0c-0.087,0.014-0.12,0.053-0.206,0.066c-0.122,0.02-0.287-0.02-0.409,0
	c-0.087,0.014-0.12,0.053-0.205,0.068c-0.164,0.027-0.451-0.027-0.615,0c-0.086,0.014-0.119,0.053-0.206,0.066
	c-0.121,0.021-0.287-0.02-0.409,0c-0.086,0.016-0.119,0.055-0.205,0.068c-0.163,0.025-0.451-0.027-0.614,0
	c-0.086,0.014-0.119,0.053-0.205,0.066c-0.142,0.023-0.953-0.021-1.024,0c-0.049,0.018,0.048,0.053,0,0.066
	c-0.007,0.004-0.565,0-0.615,0H8.606c-0.092,0-0.552-0.01-0.614,0c-0.087,0.016-0.118,0.055-0.205,0.07c-0.062,0.01-0.137,0-0.205,0
	H6.137c-0.068,0-0.156-0.018-0.204,0c-0.049,0.016,0.048,0.051,0,0.066c-0.051,0.016-0.771-0.016-0.82,0
	c-0.049,0.016,0.048,0.051,0,0.066c-0.137,0.047-0.273-0.045-0.411,0c-0.048,0.018,0.049,0.053,0,0.068
	c-0.048,0.018-0.157-0.018-0.204,0c-0.049,0.018,0.048,0.053,0,0.066c-0.424,0.141,0.017-0.213-0.411,0.068
	c-0.031,0.02,0.049,0.051,0,0.066c-0.048,0.018-0.156-0.016-0.205,0c-0.048,0.018,0.048,0.053,0,0.068
	c-0.097,0.031-0.313-0.031-0.411,0c-0.047,0.016,0.049,0.053,0,0.068c-0.047,0.016-0.155-0.018-0.204,0
	c-0.049,0.016,0.048,0.051,0,0.066c-0.049,0.016-0.157-0.018-0.205,0c-0.048,0.016,0.047,0.053,0,0.066
	c-0.048,0.018-0.156-0.016-0.206,0c-0.048,0.016,0.05,0.053,0,0.068c-0.095,0.031-0.286-0.02-0.409,0
	c-0.173,0.027-0.237,0.105-0.411,0.135c-0.061,0.01-0.136,0-0.204,0H0.812c-0.137,0-0.287-0.02-0.41,0
	c-0.062,0.01,0.048,0.051,0,0.066c-0.049,0.018-0.144-0.01-0.206,0c-0.086,0.016-0.119,0.055-0.204,0.068c-0.002,0-0.014,0-0.018,0
	v2.322h109.97V96z"/>
<g>
	<g>
		<polygon points="0,72.727 20.406,52.317 27.828,49.721 34.136,56.028 31.539,63.449 11.13,83.857 		"/>
		<polygon points="73.023,0 52.99,20.408 50.021,28.199 56.328,34.507 64.119,31.539 84.527,11.502 		"/>
		<path d="M39.179,58.625l-18.182-17.81c-1.856-1.855-1.856-4.824,0-6.308L34.354,21.15c1.485-1.855,4.453-1.855,6.31,0
			l17.809,18.18c2.227,2.227,1.484,4.823-0.742,6.679l1.855,1.856c1.113,1.112,1.113,3.339,0,4.823l-7.051,7.05
			c-1.483,1.113-3.709,1.113-4.822,0l-1.856-1.855C44.002,60.109,41.405,60.852,39.179,58.625z M49.938,57.142l7.05-7.051
			l-1.486-1.483l-7.049,7.05L49.938,57.142z M55.875,41.557l-17.809-17.81c-0.372-0.371-1.114-0.371-1.484,0L23.595,36.733
			c-0.371,0.372-0.371,1.113,0,1.484l17.81,17.811c0.372,0.372,1.113,0.372,1.484,0l12.986-12.987
			C56.246,42.67,56.246,41.928,55.875,41.557z"/>
		<path d="M58.844,75.695c-1.486-0.742-1.855-1.855-0.373-2.969c7.793-1.486,13.73-7.793,15.213-15.585
			c1.113-0.741,2.227-0.741,2.969,0.37C75.168,66.787,68.119,73.84,58.844,75.695z"/>
		<path d="M58.473,70.5c-1.855-0.742-2.227-1.484-0.371-2.969c5.193-1.115,9.275-5.566,10.389-10.761
			c1.484-1.484,2.227-1.113,2.967,0.371C70.346,63.818,65.15,69.016,58.473,70.5z"/>
		<path d="M57.729,65.676c-1.484-0.742-1.854-1.484-0.371-2.969c3.34-0.742,5.566-3.34,6.68-6.679
			c1.113-1.484,2.229-1.112,2.598,0.372C65.893,60.852,62.184,64.562,57.729,65.676z"/>
		<path d="M59.666,60.109c-1.113,0-2.227-1.112-2.227-2.227c0-1.112,1.113-1.854,2.227-1.854s1.855,0.742,1.855,1.854
			C61.521,58.997,60.779,60.109,59.666,60.109z"/>
	</g>
	<rect x="25.363" y="27.655" transform="matrix(-0.7071 -0.7071 0.7071 -0.7071 40.7116 95.4549)" width="29.524" height="23.282"/>
</g>
</svg>
