<?xml version="1.0" encoding="utf-8"?>
<!-- Generator: Adobe Illustrator 15.0.2, SVG Export Plug-In . SVG Version: 6.00 Build 0)  -->
<!DOCTYPE svg PUBLIC "-//W3C//DTD SVG 1.1//EN" "http://www.w3.org/Graphics/SVG/1.1/DTD/svg11.dtd">
<svg version="1.1" id="Ebene_1" xmlns="http://www.w3.org/2000/svg" xmlns:xlink="http://www.w3.org/1999/xlink" x="0px" y="0px"
	 width="110px" height="96px" viewBox="0 0 110 96" enable-background="new 0 0 110 96" xml:space="preserve">
<path d="M106,37.143c0-3.434-2.812-6.245-6.245-6.245h-6.628l-5.463-14.829c-0.792-2.148-3.2-4.547-5.35-5.33
	C82.312,10.74,74.775,8,54.999,8c-19.776,0-27.312,2.74-27.312,2.74c-2.153,0.783-4.56,3.181-5.352,5.33l-5.464,14.828h-6.627
	C6.811,30.898,4,33.709,4,37.143c0,3.436,2.811,6.245,6.245,6.245h2.026l-1.627,4.42c-0.792,2.148-1.439,5.78-1.439,8.07v27.062
	c0,4.58,3.747,8.325,8.327,8.325s8.327-3.745,8.327-8.325v-4.164h58.285v4.164c0,4.58,3.747,8.325,8.327,8.325
	c4.579,0,8.325-3.745,8.325-8.325V55.878c0-2.29-0.646-5.92-1.439-8.07l-1.626-4.42h2.025C103.188,43.388,106,40.578,106,37.143z
	 M31.061,18.408h47.877l6.246,18.734H24.816L31.061,18.408z M23.776,62.123c-3.449,0-6.245-2.798-6.245-6.245
	c0-3.448,2.795-6.246,6.245-6.246c3.449,0,6.244,2.798,6.244,6.246C30.02,59.327,27.224,62.123,23.776,62.123z M68.208,71.624
	H41.793v-5.265h26.415V71.624z M86.225,62.123c-3.449,0-6.245-2.796-6.245-6.245c0-3.45,2.796-6.246,6.245-6.246
	c3.45,0,6.246,2.796,6.246,6.246C92.471,59.327,89.675,62.123,86.225,62.123z"/>
</svg>
