<?xml version="1.0" encoding="utf-8"?>
<!-- Generator: Adobe Illustrator 15.0.2, SVG Export Plug-In . SVG Version: 6.00 Build 0)  -->
<!DOCTYPE svg PUBLIC "-//W3C//DTD SVG 1.1//EN" "http://www.w3.org/Graphics/SVG/1.1/DTD/svg11.dtd">
<svg version="1.1" id="Ebene_1" xmlns="http://www.w3.org/2000/svg" xmlns:xlink="http://www.w3.org/1999/xlink" x="0px" y="0px"
	 width="110px" height="96px" viewBox="0 0 110 96" enable-background="new 0 0 110 96" xml:space="preserve">
<g>
	<g>
		<path fill="#010002" d="M93.231,80.801C74.271,70.229,60.069,56.983,60.069,56.983c-0.06,0.003-0.125,0.006-0.188,0.006
			c-2.165,0-4.176-1.989-4.176-1.989l-2.552,1.806c0.056-0.356-0.707-0.479-1.771-0.479c-2.304,0-6.051,0.573-6.051,0.573
			c-9.109,6.988-18.271,12.962-26.985,18.034c-3.947,2.3-7.811,4.435-11.521,6.36c1.195,0.953,2.223,1.759,2.458,1.759
			C9.867,83.054-1,89.888-1,89.888l8.699-3.449v1v0.506l6.795-1.756l7.087-2.161l-6.66,5.86l10.956-5.86l2.178,2.917l6.434-8.781
			l-0.965,7.528l4.866-3.517c0,0-7.382,10.036-6.8,10.283c0.006,0.006,0.015,0.006,0.025,0.006c0.818,0,11.248-9.786,11.248-9.786
			s-4.311,7.524-3.225,8.03c0.091,0.038,0.268,0.059,0.517,0.059c2.75,0,14.484-2.528,20.009-7.592
			c1.896-1.732,3.368-2.326,4.494-2.326c2.462,0,3.278,2.834,3.278,2.834l8.942,6.02l-3.695-4.387c0,0,0.607-0.071,1.53-0.071
			c1.84,0,4.956,0.282,7.023,1.95c0.581,0.465,0.94,0.655,1.148,0.655c0.918,0-1.148-3.664-1.148-3.664s14.386,6.27,15.942,6.522
			c0.044,0.006,0.077,0.012,0.109,0.012c1.122,0-4.581-4.275-4.581-4.275l9.331,2.259l8.395,1.073
			c0.025-0.244,0.05-0.488,0.067-0.732C104.825,86.8,98.826,83.915,93.231,80.801z"/>
		<path fill="#010002" d="M95.079,50c0-20.953-17.514-38-39.04-38S17,29.047,17,50c0,5.603,1.224,10.999,3.639,16.038l2.015-0.914
			c0.46-0.162,0.948-0.292,1.493-0.342c7.598-5.242,14.906-10.807,21.77-16.752c0.135-0.116,0.288-0.191,0.448-0.221
			c0.155-0.026,3.83-0.659,6.175-0.659c0.824,0,1.403,0.074,1.824,0.257l1.93-1.548c0.174-0.139,0.366-0.209,0.557-0.209
			c0.245,0,0.494,0,0.697,0.228c0.018,0.019,1.749,1.785,3.479,1.785l0.143-0.239h0.045c0.244,0,0.481,0.346,0.676,0.553
			c0.148,0.158,9.747,10.267,23.527,20.421c-0.008,0.013-0.015,0.026-0.023,0.039l0.562,0.354c0.222,0.162,0.441,0.324,0.665,0.486
			c0.008-0.018,0.019-0.034,0.026-0.052l2.198,1.384C92.923,64.47,95.079,57.343,95.079,50z"/>
	</g>
</g>
</svg>
