<?xml version="1.0" encoding="utf-8"?>
<!-- Generator: Adobe Illustrator 15.0.2, SVG Export Plug-In . SVG Version: 6.00 Build 0)  -->
<!DOCTYPE svg PUBLIC "-//W3C//DTD SVG 1.1//EN" "http://www.w3.org/Graphics/SVG/1.1/DTD/svg11.dtd">
<svg version="1.1" id="Ebene_1" xmlns="http://www.w3.org/2000/svg" xmlns:xlink="http://www.w3.org/1999/xlink" x="0px" y="0px"
	 width="110px" height="96px" viewBox="0 0 110 96" enable-background="new 0 0 110 96" xml:space="preserve">
<path d="M109.998,49.503c-0.059,0.02-0.117,0.029-0.156-0.031c-0.051-0.073,0.048-0.239,0-0.312c-0.104-0.158-0.514,0.157-0.615,0
	c-0.049-0.074,0.049-0.241,0-0.314c-0.096-0.149-0.314,0.148-0.41,0c-0.049-0.073,0.049-0.24,0-0.313
	c-0.102-0.158-0.513,0.158-0.614,0c-0.05-0.074,0.049-0.241,0-0.315c-0.058-0.085-0.709,0.086-0.819,0
	c-0.089-0.065-0.12-0.248-0.206-0.314c-0.06-0.045-0.156,0.075-0.204,0c-0.048-0.074,0.048-0.24,0-0.313
	c-0.042-0.064-0.533,0.062-0.614,0c-0.086-0.066-0.118-0.248-0.204-0.314c-0.164-0.127-0.452,0.125-0.614,0
	c-0.087-0.066-0.12-0.25-0.206-0.314c-0.163-0.127-0.45,0.125-0.614,0c-0.087-0.067-0.12-0.248-0.205-0.315
	c-0.127-0.1-0.69,0.099-0.819,0c-0.087-0.066-0.116-0.248-0.203-0.314c-0.062-0.047-0.146,0.047-0.206,0
	c-0.086-0.066-0.119-0.248-0.205-0.314c-0.061-0.046-0.156,0.073-0.205,0c-0.046-0.074,0.049-0.24,0-0.314
	c-0.047-0.073-0.144,0.047-0.203,0c-0.055-0.042-0.589-0.859-0.615-0.942c-0.03-0.094,0.048-0.241,0-0.316
	c-0.049-0.071-0.136,0-0.204,0l-1.025-1.57c-0.067,0-0.157,0.075-0.202,0c-0.051-0.073,0.029-0.22,0-0.314
	c-0.045-0.133-0.139-0.209-0.207-0.315c-0.068-0.104-0.118-0.247-0.204-0.313c-0.061-0.046-0.145,0.047-0.205,0
	c-0.088-0.067-0.118-0.248-0.203-0.314c-0.062-0.047-0.146,0.047-0.207,0c-0.086-0.066-0.116-0.248-0.203-0.314
	c-0.062-0.047-0.157,0.074-0.204,0c-0.048-0.074,0.048-0.241,0-0.315c-0.05-0.076-0.771,0.075-0.82,0
	c-0.048-0.074,0.049-0.24,0-0.314c-0.05-0.076-0.771,0.076-0.819,0c-0.048-0.074,0.048-0.239,0-0.314
	c-0.056-0.086-0.709,0.084-0.819,0c-0.086-0.067-0.117-0.249-0.203-0.315c-0.275-0.212-0.243-0.078-0.192,0.031
	c-0.042-0.068-0.108-0.174-0.219-0.345c-0.122-0.094-0.288,0.094-0.41,0c-0.087-0.065-0.119-0.247-0.206-0.313
	c-0.06-0.047-0.142,0.047-0.203,0c-0.173-0.132-0.235-0.497-0.411-0.63c-0.121-0.092-0.312,0.149-0.409,0
	c-0.05-0.072,0.05-0.239,0-0.313c-0.05-0.075-0.143,0.047-0.204,0c-0.086-0.067-0.118-0.249-0.205-0.314
	c-0.062-0.047-0.144,0.046-0.203,0c-0.088-0.067-0.12-0.248-0.206-0.315c-0.062-0.046-0.157,0.074-0.205,0
	c-0.047-0.073,0.048-0.24,0-0.313c-0.047-0.074-0.143,0.046-0.205,0c-0.086-0.066-0.118-0.248-0.204-0.314
	c-0.061-0.047-0.155,0.074-0.205,0c-0.046-0.074,0.05-0.241,0-0.314c-0.047-0.074-0.144,0.047-0.203,0
	c-0.174-0.133-0.237-0.497-0.411-0.63c-0.06-0.047-0.157,0.075-0.205,0c-0.047-0.074,0.05-0.239,0-0.314
	c-0.047-0.074-0.144,0.047-0.203,0c-0.219-0.167-0.192-0.46-0.411-0.629c-0.06-0.047-0.156,0.074-0.203,0
	c-0.051-0.072,0.047-0.239,0-0.314c-0.051-0.074-0.157,0.074-0.205,0c-0.424-0.651,0.646,0.027-0.205-0.629
	c-0.062-0.047-0.157,0.074-0.204,0c-0.049-0.074,0.03-0.22,0-0.314c-0.123-0.377-0.491-0.565-0.615-0.943
	c-0.03-0.093,0.048-0.239,0-0.313c-0.048-0.076-0.157,0.073-0.203,0c-0.049-0.075,0.047-0.24,0-0.315
	c-0.049-0.073-0.158,0.074-0.206,0c-0.048-0.073,0.049-0.24,0-0.316c-0.048-0.073-0.157,0.076-0.204,0
	c-0.423-0.649,0.647,0.027-0.204-0.627c-0.062-0.046-0.157,0.075-0.205,0c-0.05-0.074,0.049-0.241,0-0.313
	c-0.05-0.074-0.145,0.046-0.206,0c-0.087-0.067-0.118-0.249-0.204-0.316c-0.061-0.046-0.157,0.075-0.205,0
	c-0.048-0.072,0.049-0.239,0-0.313c-0.048-0.074-0.143,0.047-0.204,0c-0.085-0.066-0.119-0.248-0.204-0.314
	c-0.122-0.093-0.313,0.148-0.411,0c-0.048-0.074,0.049-0.241,0-0.314c-0.048-0.074-0.155,0.073-0.203,0
	c-0.049-0.074,0.049-0.24,0-0.314c-0.137-0.21-0.273,0.209-0.41,0c-0.049-0.074,0.049-0.24,0-0.315
	c-0.043-0.063-0.533,0.063-0.615,0c-0.086-0.066-0.118-0.248-0.204-0.313c-0.123-0.094-0.312,0.147-0.41,0
	c-0.424-0.65,0.647,0.025-0.205-0.628c-0.061-0.047-0.144,0.047-0.204,0c-0.173-0.133-0.236-0.497-0.411-0.628
	c-0.061-0.048-0.156,0.074-0.203,0c-0.049-0.074,0.047-0.24,0-0.314c-0.098-0.147-0.312,0.149-0.411,0
	c-0.048-0.074,0.049-0.241,0-0.314c-0.048-0.074-0.156,0.073-0.204,0c-0.049-0.074,0.05-0.24,0-0.314
	c-0.049-0.074-0.144,0.047-0.205,0c-0.852-0.654,0.22,0.021-0.204-0.628c-0.051-0.075-0.157,0.073-0.205,0
	c-0.048-0.075,0.049-0.241,0-0.315c-0.423-0.65,0.017,0.994-0.409-0.314c-0.142-0.433,0.248-0.281-0.205-0.627
	c-0.061-0.048-0.138,0-0.204,0c0-0.105,0.048-0.241,0-0.314c-0.048-0.074-0.158,0.073-0.204,0c-0.05-0.074,0.047-0.24,0-0.315
	c-0.05-0.074-0.158,0.075-0.206,0c-0.048-0.074,0.05-0.24,0-0.313c-0.048-0.074-0.156,0.073-0.204,0
	c-0.049-0.074,0.048-0.241,0-0.314c-0.049-0.076-0.158,0.074-0.204,0c-0.049-0.076,0.048-0.241,0-0.314
	c-0.049-0.076-0.144,0.047-0.206,0c-0.086-0.067-0.118-0.249-0.205-0.315c-0.121-0.094-0.287,0.094-0.408,0
	c-0.087-0.067-0.119-0.249-0.206-0.314c-0.123-0.094-0.312,0.147-0.409,0c-0.049-0.074,0.049-0.241,0-0.316
	c-0.097-0.147-0.286,0.094-0.41,0c-0.087-0.065-0.118-0.248-0.203-0.313c-0.061-0.048-0.158,0.073-0.206,0
	c-0.049-0.074,0.048-0.24,0-0.315c-0.097-0.148-0.312,0.148-0.411,0c-0.047-0.074,0.049-0.24,0-0.316
	c-0.047-0.071-0.144,0.048-0.203,0c-0.086-0.065-0.118-0.247-0.206-0.313c-0.061-0.048-0.143,0.046-0.203,0
	c-0.088-0.065-0.118-0.248-0.204-0.315c-0.062-0.046-0.158,0.074-0.206,0c-0.047-0.074,0.048-0.24,0-0.313
	c-0.094-0.149-0.312,0.147-0.41,0c-0.047-0.074,0.049-0.241,0-0.315c-0.041-0.064-0.533,0.062-0.614,0
	c-0.087-0.066-0.119-0.249-0.205-0.315c-0.122-0.094-0.312,0.149-0.409,0c-0.049-0.074,0.049-0.239,0-0.313
	c-0.049-0.074-0.145,0.046-0.205,0c-0.087-0.067-0.135-0.21-0.203-0.314c-0.068-0.106-0.164-0.182-0.206-0.316
	c-0.031-0.092,0.049-0.239,0-0.313c-0.05-0.075-0.156,0.074-0.203,0c-0.048-0.074,0.048-0.24,0-0.314
	c-0.049-0.074-0.146,0.047-0.206,0c-0.087-0.067-0.118-0.248-0.204-0.313c-0.032-0.024-0.385-0.015-0.618-0.007
	c-0.012-0.086-0.135,0.007-0.201,0.007c-0.093,0-0.553-0.048-0.616,0c-0.085,0.065-0.117,0.248-0.203,0.313
	c-0.13,0.099-0.896-0.099-1.026,0c-0.086,0.066-0.116,0.247-0.202,0.314c-0.063,0.048-0.524,0-0.615,0h-1.23
	c-0.205,0-1.116-0.058-1.229,0c-0.091,0.047-0.119,0.248-0.206,0.313c-0.123,0.097-1.104-0.095-1.229,0
	c-0.086,0.067-0.116,0.249-0.203,0.316c-0.062,0.047-0.523,0-0.615,0h-1.229c-0.093,0-0.553-0.049-0.614,0
	c-0.088,0.066-0.118,0.247-0.205,0.314c-0.125,0.094-1.105-0.094-1.229,0c-0.088,0.066-0.119,0.248-0.205,0.313
	c-0.124,0.094-0.313-0.147-0.41,0c-0.048,0.074,0.05,0.242,0,0.315c-0.103,0.156-0.513-0.157-0.614,0
	c-0.049,0.073,0.048,0.24,0,0.315c-0.097,0.147-0.288-0.095-0.409,0c-0.086,0.066-0.119,0.246-0.203,0.313
	c-0.124,0.095-0.314-0.148-0.411,0c-0.049,0.074,0.048,0.24,0,0.315c-0.098,0.148-0.313-0.149-0.41,0
	c-0.049,0.073,0.047,0.241,0,0.313c-0.098,0.149-0.312-0.146-0.411,0c-0.048,0.076,0.048,0.241,0,0.316
	c-0.097,0.148-0.312-0.148-0.409,0c-0.049,0.074,0.047,0.24,0,0.315c-0.097,0.147-0.287-0.095-0.41,0
	c-0.088,0.065-0.12,0.248-0.205,0.313c-0.062,0.047-0.155-0.073-0.205,0c-0.048,0.074,0.051,0.241,0,0.316
	c-0.096,0.147-0.286-0.094-0.408,0c-0.088,0.065-0.12,0.247-0.206,0.314c-0.061,0.046-0.144-0.047-0.204,0
	c-0.087,0.066-0.119,0.248-0.204,0.315c-0.061,0.047-0.144-0.047-0.205,0c-0.088,0.066-0.119,0.247-0.205,0.314
	c-0.121,0.094-0.287-0.095-0.409,0c-0.088,0.065-0.119,0.248-0.206,0.314c-0.061,0.047-0.145-0.047-0.204,0
	c-0.086,0.066-0.117,0.248-0.204,0.313c-0.062,0.048-0.145-0.046-0.204,0c-0.087,0.067-0.119,0.248-0.206,0.315
	c-0.06,0.046-0.144-0.047-0.204,0c-0.088,0.065-0.118,0.248-0.204,0.314c-0.062,0.045-0.158-0.074-0.206,0
	c-0.047,0.074,0.05,0.24,0,0.313c-0.095,0.148-0.312-0.148-0.408,0c-0.05,0.074,0.048,0.24,0,0.314c-0.098,0.148-0.289-0.094-0.41,0
	c-0.088,0.066-0.119,0.249-0.206,0.314c-0.123,0.094-0.312-0.147-0.41,0c-0.049,0.075,0.049,0.241,0,0.315
	c-0.049,0.073-0.157-0.075-0.205,0c-0.05,0.073,0.049,0.24,0,0.313c-0.096,0.149-0.313-0.147-0.411,0
	c-0.048,0.075,0.049,0.241,0,0.315c-0.096,0.147-0.313-0.149-0.409,0c-0.049,0.074,0.047,0.24,0,0.314
	c-0.049,0.073-0.158-0.074-0.205,0c-0.048,0.073,0.048,0.239,0,0.314c-0.048,0.074-0.144-0.046-0.204,0
	c-0.087,0.067-0.119,0.248-0.205,0.314c-0.061,0.046-0.143-0.048-0.204,0c-0.172,0.132-0.237,0.495-0.411,0.628
	c-0.061,0.047-0.144-0.047-0.204,0c-0.087,0.065-0.119,0.248-0.205,0.312c-0.061,0.049-0.156-0.072-0.206,0
	c-0.047,0.074,0.05,0.241,0,0.316c-0.047,0.072-0.142-0.046-0.203,0c-0.087,0.066-0.119,0.248-0.206,0.313
	c-0.061,0.047-0.157-0.074-0.205,0c-0.048,0.075,0.049,0.24,0,0.315c-0.096,0.148-0.287-0.095-0.41,0
	c-0.086,0.066-0.119,0.248-0.205,0.313c-0.06,0.047-0.156-0.073-0.205,0c-0.048,0.074,0.031,0.222,0,0.315
	c-0.043,0.133-0.162,0.18-0.204,0.314c-0.031,0.094,0.049,0.24,0,0.313c-0.049,0.075-0.156-0.072-0.205,0
	c-0.048,0.075,0.049,0.241,0,0.316c-0.048,0.072-0.143-0.047-0.205,0c-0.173,0.131-0.236,0.494-0.41,0.628
	c-0.061,0.046-0.143-0.047-0.204,0c-0.173,0.133-0.236,0.496-0.411,0.629c-0.06,0.047-0.143-0.047-0.204,0
	c-0.172,0.133-0.236,0.494-0.411,0.627c-0.061,0.047-0.145-0.046-0.205,0c-0.172,0.133-0.237,0.497-0.409,0.63
	c-0.277,0.212-0.243,0.077-0.191-0.031c-0.041,0.068-0.108,0.175-0.219,0.345c-0.061,0.047-0.157-0.074-0.205,0
	c-0.048,0.074,0.049,0.24,0,0.314c-0.096,0.149-0.312-0.147-0.41,0c-0.273,0.418,0.343,0.315-0.204,0.315
	c-0.048,0.073,0.049,0.239,0,0.314c-0.048,0.075-0.144-0.047-0.204,0c-0.087,0.066-0.12,0.249-0.206,0.314
	c-0.06,0.047-0.157-0.072-0.204,0c-0.049,0.074,0.048,0.241,0,0.316c-0.096,0.146-0.313-0.148-0.41,0
	c-0.049,0.072,0.048,0.239,0,0.313c-0.103,0.157-0.512-0.158-0.615,0c-0.048,0.074,0,0.21,0,0.314c-0.069,0-0.157-0.074-0.205,0
	c-0.048,0.075,0.048,0.241,0,0.314c-0.096,0.149-0.313-0.147-0.41,0c-0.048,0.074,0.049,0.24,0,0.315
	c-0.048,0.073-0.144-0.046-0.204,0c-0.087,0.066-0.12,0.248-0.206,0.314c-0.061,0.047-0.143-0.047-0.204,0
	c-0.087,0.066-0.119,0.248-0.205,0.314c-0.122,0.094-0.313-0.148-0.41,0c-0.048,0.074,0.049,0.241,0,0.313
	c-0.096,0.147-0.313-0.146-0.409,0c-0.05,0.074,0.047,0.242,0,0.315c-0.05,0.073-0.144-0.047-0.205,0
	c-0.087,0.065-0.119,0.247-0.205,0.314c-0.123,0.094-0.289-0.094-0.41,0c-0.172,0.133-0.237,0.496-0.41,0.63
	c-0.061,0.045-0.144-0.047-0.204,0c-0.087,0.064-0.119,0.247-0.206,0.313c-0.122,0.094-0.313-0.148-0.41,0
	c-0.049,0.074,0.049,0.238,0,0.313c-0.096,0.149-0.288-0.094-0.41,0c-0.088,0.067-0.12,0.248-0.205,0.314
	c-0.061,0.046-0.145-0.045-0.205,0c-0.087,0.067-0.119,0.249-0.206,0.313c-0.06,0.048-0.144-0.046-0.204,0
	c-0.086,0.068-0.137,0.21-0.205,0.315c-0.068,0-0.144-0.047-0.206,0c-0.085,0.067-0.117,0.249-0.204,0.314
	c-0.061,0.046-0.143-0.048-0.204,0c-0.087,0.066-0.12,0.248-0.206,0.315c-0.123,0.094-0.287-0.094-0.41,0
	c-0.086,0.066-0.119,0.248-0.205,0.314c-0.061,0.047-0.144-0.047-0.205,0c-0.086,0.066-0.118,0.248-0.204,0.314
	c-0.123,0.094-0.313-0.148-0.41,0c-0.048,0.073,0.049,0.239,0,0.313c-0.096,0.149-0.312-0.146-0.409,0
	c-0.048,0.074,0.048,0.241,0,0.315c-0.048,0.073-0.143-0.046-0.204,0c-0.086,0.065-0.119,0.248-0.206,0.314
	c-0.061,0.047-0.144-0.046-0.204,0c-0.087,0.066-0.137,0.209-0.205,0.314c-0.069,0.106-0.119,0.248-0.205,0.316
	c-0.06,0.044-0.144-0.05-0.205,0c-0.086,0.064-0.118,0.246-0.204,0.313c-0.062,0.047-0.144-0.046-0.206,0
	c-0.086,0.065-0.119,0.248-0.205,0.314c-0.061,0.046-0.144-0.047-0.204,0c-0.853,0.653,0.219-0.022-0.205,0.63
	c-0.096,0.147-0.287-0.094-0.41,0c-0.086,0.065-0.12,0.248-0.204,0.313c-0.061,0.047-0.144-0.046-0.205,0
	c-0.245,0.188-0.369,0.754-0.614,0.942c-0.061,0.047-0.144-0.046-0.205,0c-0.087,0.066-0.119,0.249-0.205,0.314
	c-0.061,0.047-0.144-0.047-0.204,0c-0.087,0.066-0.118,0.248-0.205,0.314c-0.06,0.047-0.144-0.047-0.205,0
	c-0.087,0.068-0.118,0.248-0.204,0.315c-0.061,0.047-0.157-0.074-0.205,0c-0.048,0.073,0.049,0.24,0,0.314
	c-0.048,0.075-0.145-0.047-0.205,0c-0.087,0.066-0.119,0.248-0.204,0.314c-0.124,0.093-0.289-0.095-0.41,0
	c-0.087,0.067-0.119,0.247-0.205,0.313c-0.062,0.048-0.144-0.045-0.205,0c-0.087,0.066-0.119,0.25-0.204,0.315
	c-0.062,0.047-0.145-0.046-0.205,0c-0.087,0.066-0.119,0.248-0.205,0.313c-0.062,0.048-0.144-0.045-0.204,0
	c-0.088,0.066-0.12,0.25-0.205,0.313c-0.082,0.062-0.573-0.062-0.615,0c-0.048,0.075,0.048,0.24,0,0.315
	c-0.042,0.063-0.533-0.063-0.614,0c-0.086,0.065-0.119,0.248-0.205,0.312c-0.124,0.095-0.313-0.146-0.411,0
	c-0.049,0.075,0.048,0.241,0,0.314c-0.042,0.064-0.533-0.062-0.615,0c-0.085,0.065-0.118,0.25-0.205,0.314
	c-0.163,0.126-0.451-0.125-0.614,0c-0.087,0.066-0.119,0.248-0.204,0.314c-0.128,0.1-0.69-0.099-0.819,0
	c-0.087,0.067-0.119,0.246-0.205,0.312c-0.081,0.062-0.573-0.062-0.616,0c-0.048,0.074,0.049,0.24,0,0.316
	c-0.042,0.062-0.532-0.062-0.614,0c-0.086,0.064-0.118,0.247-0.204,0.312c-0.123,0.095-0.312-0.149-0.411,0
	c-0.048,0.074,0.049,0.239,0,0.314c-0.095,0.149-0.287-0.095-0.409,0c-0.087,0.065-0.119,0.247-0.205,0.314
	c-0.061,0.046-0.158-0.075-0.205,0c-0.049,0.074,0.049,0.239,0,0.312c-0.049,0.074-0.145-0.047-0.204,0
	c-0.086,0.065-0.119,0.249-0.206,0.314c-0.122,0.094-0.313-0.147-0.41,0c-0.048,0.072,0.049,0.241,0,0.315
	c-0.136,0.208-0.272-0.211-0.41,0c-0.049,0.072,0.048,0.237,0,0.311c-0.098,0.151-0.289-0.093-0.411,0
	c-0.086,0.068-0.119,0.25-0.205,0.316c-0.06,0.047-0.156-0.075-0.204,0c-0.048,0.073,0.049,0.24,0,0.314
	c-0.048,0.074-0.144-0.048-0.204,0c-0.087,0.066-0.119,0.247-0.204,0.314c-0.123,0.092-0.313-0.151-0.41,0
	c-0.048,0.074,0.049,0.239,0,0.312c-0.048,0.074-0.136,0-0.204,0h-1.026c-0.068,0-0.157-0.073-0.205,0
	c-0.048,0.074,0.049,0.24,0,0.313c-0.048,0.074-0.156-0.073-0.204,0c-0.049,0.074,0.048,0.24,0,0.315
	c-0.049,0.073-0.144-0.048-0.206,0c-0.086,0.066-0.118,0.246-0.204,0.313c-0.274,0.208-0.245,0.079-0.193-0.028
	c-0.041,0.067-0.108,0.173-0.217,0.343c-0.164,0.126-0.452-0.125-0.615,0c-0.087,0.064-0.119,0.249-0.206,0.314
	c-0.06,0.048-0.157-0.074-0.204,0c-0.049,0.074,0.048,0.238,0,0.313c-0.096,0.149-0.287-0.095-0.41,0
	c-0.087,0.066-0.119,0.248-0.205,0.312c-0.124,0.094-0.288-0.092-0.41,0c-0.087,0.067-0.119,0.249-0.205,0.315
	c-0.163,0.127-0.451-0.124-0.615,0c-0.087,0.066-0.119,0.248-0.205,0.315c-0.122,0.093-0.287-0.096-0.41,0
	c-0.087,0.064-0.119,0.246-0.204,0.312c-0.163,0.125-0.451-0.125-0.615,0c-0.086,0.067-0.119,0.249-0.205,0.312
	c-0.141,0.11-0.952-0.108-1.025,0c-0.048,0.074,0.049,0.241,0,0.314c-0.006,0.011-0.564,0-0.614,0H8.623
	c-0.092,0-0.553-0.046-0.614,0c-0.087,0.066-0.12,0.249-0.206,0.315c-0.061,0.047-0.137,0-0.204,0H6.164
	c-0.068,0-0.157-0.074-0.204,0c-0.048,0.074,0.048,0.238,0,0.313c-0.051,0.075-0.772-0.075-0.819,0c-0.049,0.074,0.047,0.24,0,0.313
	c-0.136,0.209-0.273-0.208-0.411,0c-0.049,0.075,0.049,0.24,0,0.314c-0.049,0.075-0.157-0.074-0.205,0
	c-0.048,0.075,0.049,0.24,0,0.314c-0.423,0.648,0.017-0.994-0.411,0.314c-0.03,0.091,0.05,0.239,0,0.313
	c-0.048,0.074-0.156-0.074-0.204,0c-0.049,0.074,0.049,0.239,0,0.313c-0.097,0.146-0.313-0.147-0.411,0
	c-0.048,0.073,0.049,0.24,0,0.314c-0.048,0.073-0.156-0.074-0.205,0c-0.049,0.073,0.049,0.239,0,0.313
	c-0.049,0.074-0.157-0.074-0.205,0c-0.048,0.074,0.048,0.24,0,0.314c-0.048,0.075-0.156-0.074-0.205,0
	c-0.048,0.073,0.049,0.239,0,0.314c-0.096,0.147-0.288-0.094-0.41,0c-0.172,0.133-0.237,0.496-0.411,0.627
	c-0.061,0.049-0.136,0-0.205,0H0.836c-0.137,0-0.288-0.091-0.411,0c-0.06,0.049,0.05,0.241,0,0.316
	c-0.048,0.073-0.143-0.047-0.204,0c-0.086,0.065-0.119,0.246-0.204,0.313C0.015,63.293,0.003,63.293,0,63.294v31.894h110V49.503
	H109.998z"/>
</svg>
