<?xml version="1.0" encoding="utf-8"?>
<!-- Generator: Adobe Illustrator 15.0.2, SVG Export Plug-In . SVG Version: 6.00 Build 0)  -->
<!DOCTYPE svg PUBLIC "-//W3C//DTD SVG 1.1//EN" "http://www.w3.org/Graphics/SVG/1.1/DTD/svg11.dtd">
<svg version="1.1" id="Ebene_1" xmlns="http://www.w3.org/2000/svg" xmlns:xlink="http://www.w3.org/1999/xlink" x="0px" y="0px"
	 width="96px" height="96px" viewBox="0 0 96 96" enable-background="new 0 0 96 96" xml:space="preserve">
<g>
	<path d="M5.078,57.672c0-6.595,1.439-12.864,4.32-18.808c2.88-5.944,6.59-10.918,11.129-14.922
		c4.539-4.004,9.643-7.175,15.312-9.513c5.669-2.338,11.311-3.507,16.926-3.507c3.864,0,7.875,0.684,12.031,2.05
		s8.176,3.389,12.059,6.068s7.072,6.472,9.57,11.38c2.497,4.908,3.746,10.455,3.746,16.639c0,7.681-1.678,14.407-5.031,20.176
		c-3.354,5.771-8.24,8.655-14.656,8.655c-2.479,0-4.558-0.747-6.234-2.242c-1.678-1.494-2.844-3.135-3.5-4.922
		c-1.131,2.078-3.018,3.792-5.66,5.141c-2.644,1.35-5.843,2.023-9.598,2.023c-5.688,0-10.172-1.331-13.453-3.994
		c-3.281-2.662-4.922-6.316-4.922-10.961c0-1.955,0.318-3.809,0.957-5.561c0.638-1.752,1.795-3.514,3.473-5.284
		c1.677-1.771,4.293-3.181,7.848-4.232c3.555-1.051,7.902-1.577,13.043-1.577c1.275,0,3.189,0.073,5.742,0.219
		c-0.073-2.178-0.711-3.816-1.914-4.915c-1.203-1.098-3.555-1.647-7.055-1.647c-5.906,0-11.102,0.738-15.586,2.213l1.586-8.98
		c6.125-1.798,11.119-2.714,14.984-2.748c12.396,0,18.594,5.156,18.594,15.466c0,1.801-0.283,4.577-0.848,8.327
		c-0.565,3.749-0.848,6.69-0.848,8.822c0,4.835,1.494,7.252,4.484,7.252c2.552,0,5.095-1.857,7.629-5.573
		c2.533-3.715,3.801-8.935,3.801-15.657c0-5.804-1.604-10.964-4.812-15.479c-3.209-4.514-7.092-7.855-11.648-10.023
		c-4.558-2.167-9.261-3.252-14.109-3.252c-10.464,0-19.742,3.944-27.836,11.831c-8.094,7.888-12.141,17.169-12.141,27.842
		c0,4.604,0.802,8.776,2.406,12.514c1.604,3.738,3.563,6.647,5.879,8.729c2.314,2.081,4.912,3.821,7.793,5.221
		c2.88,1.399,5.404,2.339,7.574,2.818c2.169,0.478,4.037,0.718,5.605,0.718c9.406,0,17.955-1.896,25.648-5.688l-1.258,8.148
		c-6.709,3.135-14.803,4.703-24.281,4.703c-3.865,0-7.82-0.698-11.867-2.094c-4.047-1.396-7.994-3.48-11.84-6.254
		c-3.847-2.774-6.982-6.687-9.406-11.736C6.29,70.006,5.078,64.211,5.078,57.672z M37.891,60.731c0,2.413,2.533,3.62,7.602,3.62
		c4.047,0,6.854-0.782,8.422-2.346c1.567-1.563,2.533-4.248,2.898-8.057c-0.984-0.066-2.443-0.118-4.375-0.152
		C42.739,53.797,37.891,56.108,37.891,60.731z"/>
</g>
</svg>
