<?xml version="1.0" encoding="utf-8"?>
<!-- Generator: Adobe Illustrator 15.0.2, SVG Export Plug-In . SVG Version: 6.00 Build 0)  -->
<!DOCTYPE svg PUBLIC "-//W3C//DTD SVG 1.1//EN" "http://www.w3.org/Graphics/SVG/1.1/DTD/svg11.dtd">
<svg version="1.1" id="Ebene_1" xmlns="http://www.w3.org/2000/svg" xmlns:xlink="http://www.w3.org/1999/xlink" x="0px" y="0px"
	 width="96px" height="96px" viewBox="0 0 96 96" enable-background="new 0 0 96 96" xml:space="preserve">
<g transform="scale(0.03125 0.03125)">
	<path d="M1088,453.75C1088,203.188,1291.156,0,1541.719,0c250.594,0,453.719,203.188,453.719,453.75
		c0,250.578-203.125,453.766-453.719,453.766C1291.156,907.516,1088,704.328,1088,453.75z M1088,1536.031
		c0-250.625,203.156-453.75,453.719-453.75c250.594,0,453.719,203.125,453.719,453.75c0,250.594-203.125,453.75-453.719,453.75
		C1291.156,1989.781,1088,1786.625,1088,1536.031z M1088,2618.281c0-250.562,203.156-453.688,453.719-453.688
		c250.594,0,453.719,203.125,453.719,453.688c0,250.594-203.125,453.719-453.719,453.719C1291.156,3072,1088,2868.875,1088,2618.281
		z"/>
</g>
</svg>
