<?xml version="1.0" encoding="utf-8"?>
<!-- Generator: Adobe Illustrator 15.0.2, SVG Export Plug-In . SVG Version: 6.00 Build 0)  -->
<!DOCTYPE svg PUBLIC "-//W3C//DTD SVG 1.1//EN" "http://www.w3.org/Graphics/SVG/1.1/DTD/svg11.dtd">
<svg version="1.1" id="Ebene_1" xmlns="http://www.w3.org/2000/svg" xmlns:xlink="http://www.w3.org/1999/xlink" x="0px" y="0px"
	 width="128px" height="140px" viewBox="0 0 128 140" enable-background="new 0 0 128 140" xml:space="preserve">
<g transform="scale(0.03125 0.03125)">
	<path d="M1527.422,520.609c0-287.484,233.094-520.594,520.578-520.594c287.531,0,520.594,233.109,520.594,520.594
		c0,287.5-233.062,520.625-520.594,520.625C1760.516,1041.234,1527.422,808.109,1527.422,520.609z M1527.422,2082.438
		c0-287.547,233.094-520.625,520.578-520.625c287.531,0,520.594,233.078,520.594,520.625c0,287.531-233.062,520.594-520.594,520.594
		C1760.516,2603.031,1527.422,2369.969,1527.422,2082.438z M1527.422,3644.219c0-287.5,233.094-520.562,520.578-520.562
		c287.531,0,520.594,233.062,520.594,520.562S2335.531,4164.781,2048,4164.781
		C1760.516,4164.781,1527.422,3931.719,1527.422,3644.219z"/>
</g>
</svg>
