<?xml version="1.0" encoding="utf-8"?>
<!-- Generator: Adobe Illustrator 15.0.2, SVG Export Plug-In . SVG Version: 6.00 Build 0)  -->
<!DOCTYPE svg PUBLIC "-//W3C//DTD SVG 1.1//EN" "http://www.w3.org/Graphics/SVG/1.1/DTD/svg11.dtd">
<svg version="1.1" id="Ebene_1" xmlns="http://www.w3.org/2000/svg" xmlns:xlink="http://www.w3.org/1999/xlink" x="0px" y="0px"
	 width="96px" height="96px" viewBox="0 0 96 96" enable-background="new 0 0 96 96" xml:space="preserve">
<g>
	<path d="M78.127,38.593c0-2.605-2.119-4.725-4.727-4.725H57.23l-0.688,0.092l-0.48,0.641c-0.172,0.258-0.355,0.513-0.547,0.758
		l-0.246,0.323c-0.277,0.339-0.576,0.669-0.896,0.984l-4.223,4.227c-0.238,0.238-0.5,0.452-0.789,0.639
		c-0.076,0.032-0.148,0.071-0.254,0.135c-0.195,0.112-0.386,0.228-0.596,0.315c-0.091,0.034-0.185,0.057-0.278,0.08l-0.456,0.136
		c-0.062,0.019-0.121,0.044-0.184,0.056c-0.122,0.021-0.245,0.025-0.368,0.034l-0.444,0.04c-0.046,0.007-0.094,0.016-0.14,0.016
		h-0.055c-0.225-0.003-0.444-0.042-0.666-0.071c-0.076-0.008-0.157-0.016-0.236-0.019c-0.239-0.043-0.473-0.129-0.704-0.21
		c-0.076-0.025-0.153-0.048-0.216-0.056c-0.243-0.103-0.473-0.236-0.701-0.37l-0.168-0.086c-0.279-0.181-0.541-0.395-0.78-0.628
		l-4.527-4.531L28.575,46.388c-0.712,0.707-1.948,0.707-2.66,0c-0.731-0.738-0.731-1.929,0-2.66l9.856-9.859H21.724
		c-2.604,0-4.724,2.121-4.724,4.727v51.68C17,92.881,19.118,95,21.725,95h34.261V74.744c0-1.039,0.846-1.88,1.881-1.88h20.26V38.593
		z M25.367,60.412c0-1.038,0.842-1.882,1.881-1.882h24.705c1.033,0,1.883,0.844,1.883,1.882c0,1.036-0.848,1.88-1.883,1.88H27.248
		C26.211,62.291,25.367,61.448,25.367,60.412z M27.248,69.815h8.091c1.036,0,1.881,0.842,1.881,1.881
		c0,1.04-0.841,1.882-1.881,1.882h-8.091c-1.037,0-1.881-0.842-1.881-1.882C25.367,70.657,26.211,69.815,27.248,69.815z"/>
	<path d="M68.818,16.429c0.67,0,1.301-0.259,1.771-0.735c0.641-0.638,0.736-1.385,0.736-1.771c0-0.389-0.096-1.139-0.736-1.775
		L60.152,1.706c-0.949-0.942-2.6-0.942-3.547,0.004c-0.977,0.977-0.977,2.566-0.002,3.544l10.441,10.442
		C67.518,16.168,68.148,16.429,68.818,16.429z"/>
	<path d="M33.196,25.689l13.461,13.436L51.723,34c0.812-0.801,1.459-1.732,1.92-2.765c0.574-1.25,0.871-2.581,0.871-3.962
		c0-0.438-0.031-0.89-0.094-1.346c-0.08-0.579,0.117-1.176,0.533-1.586l7.705-7.709l-6.99-6.985l-7.711,7.701
		c-0.419,0.416-0.998,0.61-1.586,0.531c-2.948-0.416-5.945,0.579-8.074,2.699L33.196,25.689z"/>
	<polygon points="75.674,77.375 59.959,77.375 59.959,93.087 	"/>
</g>
</svg>
