<?xml version="1.0" encoding="utf-8"?>
<!-- Generator: Adobe Illustrator 15.0.2, SVG Export Plug-In . SVG Version: 6.00 Build 0)  -->
<!DOCTYPE svg PUBLIC "-//W3C//DTD SVG 1.1//EN" "http://www.w3.org/Graphics/SVG/1.1/DTD/svg11.dtd">
<svg version="1.1" id="Ebene_1" xmlns="http://www.w3.org/2000/svg" xmlns:xlink="http://www.w3.org/1999/xlink" x="0px" y="0px"
	 width="96px" height="96px" viewBox="0 0 96 96" enable-background="new 0 0 96 96" xml:space="preserve">
<g>
	<path d="M12.133,70.736h59.872V5H12.133V70.736z M58.701,25.758v19.168c0,1.295-1.055,2.351-2.352,2.351H27.787
		c-1.296,0-2.348-1.056-2.348-2.351V25.758c0-1.293,1.054-2.348,2.348-2.348H56.35C57.646,23.41,58.701,24.462,58.701,25.758z"/>
	<rect x="30.135" y="28.107" width="23.872" height="14.469"/>
	<path d="M7.438,70.891V7.602L7.307,5.04L4.995,6.295C4.834,6.375,4.68,6.457,4.469,6.59C4.38,6.645,4.291,6.698,4.206,6.757
		C3.753,7.074,3.325,7.425,2.94,7.803C2.876,7.865,2.813,7.933,2.716,8.04c-0.32,0.338-0.614,0.697-0.9,1.094
		C1.741,9.24,1.659,9.35,1.587,9.464c-0.328,0.506-0.591,0.988-0.795,1.469c-0.031,0.072-0.055,0.144-0.074,0.198
		c-0.179,0.449-0.327,0.918-0.452,1.456c-0.032,0.144-0.063,0.286-0.092,0.438C0.056,13.681,0,14.236,0,14.783v59.436l2.37-1.424
		c1.212-0.729,2.52-1.27,3.884-1.605L7.438,70.891z"/>
	<path d="M0,85.215C0,90.605,4.39,95,9.785,95h62.22v-7.438H9.785c-1.295,0-2.348-1.061-2.348-2.351
		c0-1.293,1.054-2.354,2.348-2.354h62.22V75.42H9.785C4.39,75.432,0,79.82,0,85.215z"/>
</g>
<g>
	<path d="M78.473,4.91V2.871l2.953-1.875h1.969v16.008H81.66V2.801L78.473,4.91z"/>
</g>
<g>
	<path d="M78.899,73.997c0-0.658,0.1-1.295,0.3-1.909c0.199-0.614,0.502-1.192,0.908-1.732c0.407-0.54,0.977-0.969,1.707-1.286
		c0.731-0.316,1.578-0.476,2.54-0.476c3.629,0,5.443,2.512,5.443,7.535c0,1.523-0.189,2.852-0.567,3.984
		c-0.379,1.133-0.832,2.004-1.358,2.613s-1.152,1.094-1.878,1.453c-0.727,0.359-1.353,0.586-1.879,0.68
		C83.588,84.953,83.053,85,82.506,85c-0.812,0-1.59-0.094-2.332-0.281V83.09c0.633,0.188,1.316,0.281,2.051,0.281
		c0.031,0,0.062,0,0.094,0c0.367,0,0.726-0.023,1.076-0.07c0.352-0.047,0.794-0.173,1.328-0.38c0.535-0.207,1.004-0.492,1.41-0.854
		s0.786-0.896,1.141-1.597c0.355-0.703,0.579-1.533,0.673-2.493c-0.944,0.714-2.142,1.07-3.592,1.07
		c-1.682,0-3.011-0.452-3.989-1.356C79.389,76.786,78.899,75.555,78.899,73.997z M80.634,74.008c0,1.086,0.319,1.926,0.96,2.52
		c0.639,0.594,1.56,0.891,2.761,0.891c1.614,0,2.851-0.457,3.709-1.371c-0.016-1.102-0.123-2.045-0.321-2.83
		c-0.199-0.785-0.424-1.365-0.674-1.74c-0.249-0.375-0.572-0.666-0.971-0.873c-0.397-0.207-0.704-0.322-0.918-0.346
		c-0.215-0.023-0.49-0.035-0.825-0.035c-0.796,0-1.466,0.148-2.013,0.445c-0.546,0.297-0.93,0.68-1.152,1.148
		s-0.371,0.871-0.444,1.207C80.671,73.359,80.634,73.688,80.634,74.008z"/>
</g>
</svg>
