<?xml version="1.0" encoding="utf-8"?>
<!-- Generator: Adobe Illustrator 15.0.2, SVG Export Plug-In . SVG Version: 6.00 Build 0)  -->
<!DOCTYPE svg PUBLIC "-//W3C//DTD SVG 1.1//EN" "http://www.w3.org/Graphics/SVG/1.1/DTD/svg11.dtd">
<svg version="1.1" id="Ebene_1" xmlns="http://www.w3.org/2000/svg" xmlns:xlink="http://www.w3.org/1999/xlink" x="0px" y="0px"
	 width="96px" height="96px" viewBox="0 0 96 96" enable-background="new 0 0 96 96" xml:space="preserve">
<g>
	<g>
		<path d="M7.975,61.99V50.371l-1.241,0.018c-1.529,0.019-2.967,0.617-4.023,1.686C1.605,53.17,1,54.628,1,56.188
			c0,3.158,2.57,5.767,5.734,5.799L7.975,61.99z"/>
	</g>
	<g>
		<path d="M89.223,50.385l-1.24-0.014V61.99l1.24-0.016c1.528-0.019,2.965-0.623,4.021-1.686c1.1-1.098,1.708-2.553,1.708-4.114
			C94.956,53.018,92.383,50.418,89.223,50.385z"/>
	</g>
	<g>
		<path d="M73.206,18.074H22.739v7.387h24.62c0.124,0,0.235,0.015,0.354,0.037l0,0l0.054,0.011c0.115,0.027,0.252,0.083,0.499,0.21
			c0.173,0.099,0.3,0.188,0.396,0.282l16.613,16.62c0.094,0.096,0.186,0.219,0.285,0.387l0.053,0.107
			c0.072,0.149,0.125,0.276,0.162,0.423l0.004,0.029c0.021,0.116,0.037,0.238,0.037,0.355v18.055h7.389L73.206,18.074L73.206,18.074
			z"/>
	</g>
	<g>
		<path d="M11.665,61.979h12.994l0.91-0.114l0.29-0.82l0.057-0.194c0.095-0.359,0.214-0.718,0.342-1.062l0.086-0.235
			c0.163-0.403,0.361-0.811,0.589-1.222l0.181-0.301c0.18-0.305,0.377-0.596,0.624-0.938l0.199-0.268
			c0.332-0.417,0.623-0.752,0.916-1.051c2.149-2.148,5.014-3.336,8.051-3.336c3.04,0,5.902,1.188,8.053,3.336
			c0.294,0.297,0.586,0.627,0.916,1.045c0.067,0.092,0.135,0.182,0.238,0.326c0.206,0.285,0.403,0.578,0.586,0.888l0.179,0.295
			c0.234,0.416,0.421,0.812,0.615,1.3l0.054,0.159c0.128,0.348,0.246,0.703,0.342,1.065c0.017,0.066,0.041,0.129,0.065,0.199
			l0.235,0.928h13.947V45.77H47.361c-1.02,0-1.846-0.827-1.846-1.848V29.153h-33.85V61.979z"/>
	</g>
	<g>
		<polygon points="59.518,42.08 49.207,31.768 49.207,42.08 		"/>
	</g>
	<g>
		<path d="M11.665,95H62.13V65.671H49.135l-0.911,0.114l-0.288,0.818L47.877,66.8c-0.094,0.359-0.212,0.718-0.344,1.068
			l-0.086,0.233c-0.162,0.399-0.359,0.811-0.588,1.221l-0.177,0.297c-0.182,0.302-0.377,0.597-0.62,0.93l-0.198,0.271
			c-0.337,0.427-0.63,0.761-0.918,1.051c-2.408,2.41-5.77,3.607-9.139,3.281l-0.339-0.045c-0.241-0.027-0.484-0.064-0.718-0.109
			c-0.125-0.025-0.245-0.055-0.382-0.084c-0.221-0.053-0.435-0.105-0.644-0.166c-0.13-0.037-0.264-0.078-0.388-0.121
			c-0.213-0.07-0.417-0.152-0.624-0.232l-0.352-0.141c-0.232-0.1-0.453-0.212-0.674-0.324l-0.246-0.125
			c-0.3-0.162-0.593-0.342-0.937-0.578l-0.133-0.099c-0.21-0.147-0.415-0.304-0.619-0.458l-0.281-0.244
			c-0.162-0.142-0.329-0.289-0.479-0.437c-0.096-0.093-0.194-0.19-0.292-0.289c-0.145-0.155-0.283-0.306-0.442-0.487
			c-0.081-0.09-0.162-0.188-0.234-0.275c-0.142-0.18-0.271-0.361-0.408-0.543l-0.2-0.285c-0.167-0.254-0.329-0.52-0.531-0.879
			c-0.161-0.299-0.307-0.604-0.448-0.924l-0.118-0.297c-0.091-0.224-0.168-0.447-0.242-0.671l-0.452-1.673H11.665V95z"/>
	</g>
	<g>
		<rect x="65.82" y="65.67" width="7.388" height="18.251"/>
	</g>
	<g>
		<rect x="76.898" y="65.67" width="7.385" height="7.176"/>
	</g>
	<g>
		<path d="M84.283,7h-50.46v7.387h41.231c1.021,0,1.852,0.827,1.852,1.845v45.747h7.387L84.283,7L84.283,7z"/>
	</g>
	<g>
		<path d="M31.458,58.385c-1.454,1.456-2.249,3.387-2.249,5.443c0,4.242,3.451,7.693,7.691,7.693c2.054,0,3.985-0.806,5.439-2.254
			c1.456-1.455,2.251-3.385,2.251-5.439c0-2.057-0.799-3.986-2.249-5.443c-1.454-1.453-3.386-2.249-5.441-2.249
			C34.842,56.13,32.909,56.932,31.458,58.385z"/>
	</g>
</g>
<g>
	<path d="M8.973,16.406v-2.039l2.953-1.875h1.969V28.5H12.16V14.297L8.973,16.406z"/>
</g>
</svg>
