<?xml version="1.0" encoding="utf-8"?>
<!-- Generator: Adobe Illustrator 15.0.2, SVG Export Plug-In . SVG Version: 6.00 Build 0)  -->
<!DOCTYPE svg PUBLIC "-//W3C//DTD SVG 1.1//EN" "http://www.w3.org/Graphics/SVG/1.1/DTD/svg11.dtd">
<svg version="1.1" id="Ebene_1" xmlns="http://www.w3.org/2000/svg" xmlns:xlink="http://www.w3.org/1999/xlink" x="0px" y="0px"
	 width="96px" height="96px" viewBox="0 0 96 96" enable-background="new 0 0 96 96" xml:space="preserve">
<g>
	<path d="M59.5,28.617c0,3.738,3.031,6.77,6.77,6.77c3.737,0,6.769-3.031,6.769-6.77c0-0.309-0.027-0.61-0.067-0.909l-6.701-1.207
		l-6.699,1.207C59.527,28.007,59.5,28.308,59.5,28.617z"/>
</g>
<g>
	<g>
		<polygon points="35.5,11.5 60.5,11.5 60.5,16 67.5,16 67.5,4.5 28.5,4.5 28.5,16 35.5,16 		"/>
	</g>
	<g>
		<path d="M23.5,16V9.704C24.965,9.109,26,7.678,26,6c0-2.209-1.791-4-4-4s-4,1.791-4,4c0,1.678,1.035,3.109,2.5,3.704V16H16v80h20
			V84h24v12h20V16H23.5z M45,79.318H21V65h24V79.318z M45,58.318H21V44h24V58.318z M45,37.317H21V23h24V37.317z M75,79.318H51V65h24
			V79.318z M75,58.318H51V44h24V58.318z M75,37.317H51V23h24V37.317z"/>
	</g>
</g>
<g>
	<circle cx="22.25" cy="5.25" r="5.25"/>
</g>
<g>
	<rect y="92" width="12.5" height="4"/>
</g>
<g>
	<rect x="83.5" y="92" width="12.5" height="4"/>
</g>
</svg>
