<?xml version="1.0" encoding="utf-8"?>
<!-- Generator: Adobe Illustrator 15.0.2, SVG Export Plug-In . SVG Version: 6.00 Build 0)  -->
<!DOCTYPE svg PUBLIC "-//W3C//DTD SVG 1.1//EN" "http://www.w3.org/Graphics/SVG/1.1/DTD/svg11.dtd">
<svg version="1.1" id="Ebene_1" xmlns="http://www.w3.org/2000/svg" xmlns:xlink="http://www.w3.org/1999/xlink" x="0px" y="0px"
	 width="128px" height="140px" viewBox="0 0 128 140" enable-background="new 0 0 128 140" xml:space="preserve">
<g>
	<g>
		<g id="g4205" transform="matrix(0.26458333,0,0,0.26458333,73.554167,119.36016)">
			<path d="M133.256-168.827c0,0,2.779-16.67,10.715-37.712c7.939-21.04,16.277-42.474,16.277-42.474s-7.544-24.216-11.907-47.239
				c-4.37-23.022-13.099-40.886-13.099-40.886s-38.504,14.289-50.407,16.67c-11.911,2.383-33.351,8.34-33.351,8.34
				c1.694-0.465,3.499,2.646,5.341,7.91c15.694,4.468,30.513,12.857,42.867,25.215c38.707,38.707,38.707,101.455,0,140.158
				c-11.161,11.158-24.327,19.082-38.331,23.807l9.977,57.76L51.088,14.975c0,0,20.643-4.366,41.283-9.131
				c20.64-4.765,42.077-12.704,42.077-12.704s-1.192-7.936,6.747-38.899c7.939-30.967,13.893-44.465,13.893-44.465
				s-0.79-7.149-5.953-31.362C143.971-145.803,133.256-168.827,133.256-168.827z"/>
			<g>
				<path fill="#CCCCCC" d="M-25.36-291.402c21.782-14.548,48.043-19.534,72.913-14.982c-1.565-3.927-3.093-6.144-4.536-5.745
					c0,0-15.48-6.749-34.931-13.498c-19.451-6.747-47.239-8.733-47.239-8.733C-33.816-333.888-29.271-313.232-25.36-291.402z"/>
				<path fill="#CCCCCC" d="M-28.084-128.345l6.395,41.294L-39.548-8.444c0,0,8.733,0.794,35.723,9.918
					c26.992,9.135,46.443,13.501,46.443,13.501l20.249-72.254l-9.574-55.397C25.739-105.922-4.139-111.16-28.084-128.345z"/>
			</g>
			<g>
				<path d="M-154.737-0.036c-5.909-3.255-8.648-4.451-13.776-9.582c5.129,5.13,7.423,8.6,8.122,15.244l-0.078,0.078
					c19.438,3.529,31.606,6.101,31.606,6.101l1.093-38.807L-154.737-0.036z"/>
				<path d="M-126.954-74.545l-18.979-72.051l25.407-94.878c-3.529-24.578-14.397-47.706-22.627-71.053
					c0,0-29.374-14.291-50.018-18.259c-12.902-2.484-24.585-3.106-31.807-3.126c-4.337-0.011-7.046,0.199-7.491,0.345
					c0,0,11.907,20.643,18.656,44.064c6.751,23.419,9.923,40.49,9.923,40.49s-8.731,20.247-13.099,39.299
					c-4.365,19.056-9.13,36.52-9.13,36.52s9.13,25.405,14.688,47.639c5.559,22.231,5.953,38.504,5.953,38.504
					s-6.348,16.273-11.909,38.508c-5.557,22.234-7.936,48.831-7.936,48.831s14.686-3.178,45.251,1.982
					c2.955,0.498,5.784,0.986,8.541,1.462c-1.884-1.133-3.756-2.606-5.741-4.588c-5.132-5.13-7.064-9.696-8.127-15.24l1.642-1.642
					c6.646,0.325,10.113,2.986,15.244,8.12c-5.13-5.134-6.326-7.873-9.58-13.782L-126.954-74.545z"/>
			</g>
			<path fill="#CCCCCC" d="M-48.034-147.346c-30.936-38.904-28.428-95.668,7.563-131.658c0.09-0.092,0.188-0.179,0.281-0.268
				c-4.355-25.623-9.572-54.528-15.897-55.089c0,0-5.164,5.559-34.933,12.702c-29.771,7.146-43.668,9.13-43.668,9.13
				c8.231,23.347,19.106,46.475,22.627,71.053l-25.403,94.88l17.213,65.348l40.154-40.165c6.457,1.244,10.11,2.997,15.244,8.124
				c5.127,5.13,7.236,9.146,8.118,15.247l-62.324,62.329l-1.336,47.514c0,0,20.245-4.374,38.107-9.932
				C-64.425-3.683-56.486-8.444-56.486-8.444l17.862-77.019L-48.034-147.346z"/>
		</g>
		<g id="g6060" transform="matrix(0.26458333,0,0,0.26458333,74.347905,123.52735)">
			<path id="path5604" fill="#1A171B" d="M-46.047-152.484c-40.316-40.32-40.316-105.69,0-146.007
				c40.318-40.316,105.688-40.316,146.008,0c40.316,40.316,40.316,105.687,0,146.007C59.641-112.161-5.729-112.161-46.047-152.484z
				 M-41.663-156.869c38.701,38.718,99.993,40.169,138.7,1.469c38.707-38.714,37.249-100.006-1.462-138.71
				c-38.707-38.707-99.999-40.163-138.704-1.463C-81.835-256.864-80.373-195.576-41.663-156.869z"/>
			<path id="path5604-9-1-8-8" d="M-59.418-181.277l-8.528,6.075c5.012,9.434,11.409,18.082,18.979,25.637
				c7.758,7.758,16.425,14.092,25.637,18.983l6.07-8.533c-9.015-4.603-17.255-10.593-24.403-17.757
				C-49.028-164.229-54.913-172.482-59.418-181.277z"/>
			<path d="M-67.854-129.036c2.576,2.569,4.389,4.868,5.666,7.293l21.893-21.891c-1.58-3.134-3.643-6.001-6.114-8.486
				c-2.49-2.477-5.354-4.536-8.485-6.112l-22.59,22.581C-74.082-134.376-71.294-132.472-67.854-129.036z"/>
		</g>
	</g>
</g>
</svg>
