<?xml version="1.0" encoding="utf-8"?>
<!-- Generator: Adobe Illustrator 15.0.2, SVG Export Plug-In . SVG Version: 6.00 Build 0)  -->
<!DOCTYPE svg PUBLIC "-//W3C//DTD SVG 1.1//EN" "http://www.w3.org/Graphics/SVG/1.1/DTD/svg11.dtd">
<svg version="1.1" id="Ebene_1" xmlns="http://www.w3.org/2000/svg" xmlns:xlink="http://www.w3.org/1999/xlink" x="0px" y="0px"
	 width="96px" height="96px" viewBox="0 0 96 96" enable-background="new 0 0 96 96" xml:space="preserve">
<g>
	<path d="M7.975,61.99V50.371l-1.241,0.018c-1.529,0.018-2.967,0.617-4.023,1.685C1.605,53.17,1,54.628,1,56.187
		c0,3.159,2.57,5.767,5.734,5.799L7.975,61.99z"/>
	<path d="M89.223,50.385l-1.241-0.014V61.99l1.241-0.016c1.528-0.018,2.964-0.622,4.021-1.685c1.1-1.097,1.708-2.553,1.708-4.114
		C94.956,53.018,92.383,50.418,89.223,50.385z"/>
	<path d="M73.206,18.074H22.739v7.387h24.62c0.124,0,0.235,0.015,0.354,0.037l0,0l0.054,0.011c0.115,0.027,0.252,0.083,0.499,0.21
		c0.173,0.099,0.301,0.188,0.396,0.282l16.614,16.62c0.093,0.096,0.185,0.219,0.284,0.387l0.054,0.107
		c0.072,0.149,0.124,0.276,0.161,0.423l0.004,0.029c0.021,0.116,0.038,0.238,0.038,0.355v18.054h7.388L73.206,18.074L73.206,18.074z
		"/>
	<path d="M11.665,61.978h12.994l0.91-0.114l0.29-0.82l0.057-0.194c0.095-0.36,0.214-0.718,0.342-1.063l0.086-0.235
		c0.163-0.403,0.361-0.811,0.589-1.222l0.181-0.3c0.18-0.305,0.377-0.597,0.624-0.938l0.199-0.268
		c0.332-0.417,0.623-0.752,0.916-1.05c2.149-2.149,5.014-3.337,8.051-3.337c3.04,0,5.902,1.188,8.053,3.337
		c0.294,0.297,0.586,0.627,0.916,1.044c0.067,0.092,0.135,0.182,0.238,0.327c0.206,0.284,0.403,0.577,0.586,0.887l0.179,0.295
		c0.234,0.416,0.421,0.812,0.615,1.3l0.054,0.159c0.128,0.348,0.246,0.703,0.342,1.065c0.017,0.067,0.041,0.13,0.065,0.2
		l0.235,0.928h13.947V45.77H47.361c-1.02,0-1.846-0.827-1.846-1.848V29.153H11.665V61.978z"/>
	<polygon points="59.517,42.08 49.207,31.768 49.207,42.08 	"/>
	<path d="M11.665,95H62.13V65.671H49.135l-0.911,0.114l-0.288,0.818l-0.059,0.197c-0.094,0.359-0.212,0.718-0.344,1.068
		l-0.086,0.234c-0.162,0.399-0.359,0.81-0.588,1.22l-0.177,0.297c-0.182,0.302-0.377,0.597-0.62,0.93l-0.198,0.271
		c-0.337,0.427-0.63,0.761-0.918,1.051c-2.408,2.41-5.77,3.608-9.139,3.282l-0.339-0.046c-0.241-0.027-0.484-0.064-0.718-0.109
		c-0.125-0.026-0.245-0.055-0.382-0.084c-0.221-0.053-0.435-0.106-0.644-0.166c-0.13-0.037-0.264-0.078-0.388-0.121
		c-0.213-0.07-0.417-0.153-0.624-0.232l-0.352-0.141c-0.232-0.099-0.453-0.212-0.674-0.324l-0.246-0.125
		c-0.3-0.163-0.593-0.342-0.937-0.579l-0.133-0.098c-0.21-0.148-0.415-0.304-0.619-0.458l-0.281-0.244
		c-0.162-0.142-0.329-0.289-0.479-0.437c-0.096-0.092-0.194-0.19-0.292-0.289c-0.145-0.155-0.283-0.305-0.442-0.487
		c-0.081-0.09-0.162-0.187-0.234-0.276c-0.142-0.179-0.271-0.361-0.408-0.543l-0.2-0.285c-0.167-0.253-0.329-0.519-0.531-0.879
		c-0.161-0.299-0.307-0.604-0.448-0.924l-0.118-0.296c-0.091-0.224-0.168-0.448-0.242-0.671l-0.452-1.673H11.665V95z"/>
	<rect x="65.821" y="65.67" width="7.387" height="18.251"/>
	<rect x="76.899" y="65.67" width="7.384" height="7.175"/>
	<path d="M84.283,7h-50.46v7.387h41.232c1.021,0,1.851,0.827,1.851,1.845v45.747h7.387L84.283,7L84.283,7z"/>
	<path d="M31.458,58.385c-1.454,1.456-2.249,3.387-2.249,5.443c0,4.243,3.451,7.693,7.691,7.693c2.054,0,3.985-0.805,5.439-2.253
		c1.456-1.456,2.251-3.385,2.251-5.44c0-2.057-0.799-3.986-2.249-5.443c-1.454-1.454-3.386-2.249-5.441-2.249
		C34.842,56.13,32.909,56.932,31.458,58.385z"/>
</g>
</svg>
