<?xml version="1.0" encoding="utf-8"?>
<!-- Generator: Adobe Illustrator 15.0.2, SVG Export Plug-In . SVG Version: 6.00 Build 0)  -->
<!DOCTYPE svg PUBLIC "-//W3C//DTD SVG 1.1//EN" "http://www.w3.org/Graphics/SVG/1.1/DTD/svg11.dtd">
<svg version="1.1" id="Ebene_1" xmlns="http://www.w3.org/2000/svg" xmlns:xlink="http://www.w3.org/1999/xlink" x="0px" y="0px"
	 width="140px" height="140px" viewBox="0 0 140 140" enable-background="new 0 0 140 140" xml:space="preserve">
<path d="M8.09,90.738V77.27l-1.44,0.018c-1.775,0.02-3.436,0.715-4.664,1.953C0.705,80.51,0,82.202,0,84.007
	c0,3.663,2.982,6.681,6.648,6.718L8.09,90.738z"/>
<path d="M102.264,77.286l-1.441-0.017v13.469l1.441-0.018c1.775-0.019,3.435-0.716,4.662-1.953c1.278-1.268,1.983-2.959,1.983-4.764
	C108.909,80.339,105.927,77.324,102.264,77.286z"/>
<path d="M83.7,39.838H25.207v8.56h28.535c0.139,0,0.273,0.017,0.409,0.044l0,0l0.065,0.011c0.133,0.033,0.294,0.098,0.579,0.245
	c0.204,0.114,0.349,0.218,0.458,0.327l19.259,19.263c0.109,0.111,0.213,0.253,0.327,0.449l0.065,0.125
	c0.084,0.172,0.142,0.319,0.186,0.49l0.005,0.035c0.027,0.133,0.044,0.275,0.044,0.411v20.925H83.7V39.838L83.7,39.838z"/>
<path d="M12.37,90.723h15.059l1.052-0.131l0.335-0.951l0.069-0.225c0.113-0.418,0.248-0.832,0.4-1.234l0.097-0.277
	c0.188-0.463,0.417-0.936,0.683-1.416l0.209-0.342c0.209-0.354,0.436-0.696,0.721-1.088l0.229-0.309
	c0.383-0.484,0.72-0.871,1.063-1.217c2.492-2.492,5.808-3.867,9.332-3.867c3.525,0,6.84,1.375,9.333,3.867
	c0.34,0.344,0.678,0.727,1.058,1.21c0.079,0.106,0.157,0.211,0.278,0.379c0.239,0.33,0.465,0.669,0.678,1.028l0.206,0.342
	c0.271,0.482,0.492,0.941,0.713,1.507l0.065,0.183c0.151,0.405,0.286,0.816,0.398,1.237c0.021,0.077,0.048,0.149,0.077,0.231
	l0.271,1.074h16.167V71.938H53.742c-1.183,0-2.14-0.959-2.14-2.141V52.679H12.37V90.723z"/>
<polygon points="67.834,67.659 55.881,55.708 55.881,67.659 "/>
<path d="M12.37,129h58.493V95.005h-15.06l-1.054,0.132l-0.334,0.948l-0.071,0.228c-0.113,0.418-0.247,0.832-0.401,1.24l-0.097,0.271
	c-0.188,0.463-0.416,0.938-0.68,1.414l-0.207,0.344c-0.21,0.35-0.436,0.691-0.716,1.078l-0.234,0.314
	c-0.386,0.496-0.726,0.881-1.062,1.219c-2.792,2.793-6.69,4.182-10.592,3.803l-0.392-0.053c-0.28-0.032-0.559-0.075-0.832-0.127
	c-0.145-0.03-0.283-0.061-0.445-0.096c-0.254-0.061-0.502-0.123-0.746-0.193c-0.152-0.043-0.303-0.09-0.451-0.139
	c-0.246-0.082-0.485-0.175-0.72-0.268l-0.41-0.163c-0.268-0.114-0.528-0.245-0.782-0.375l-0.287-0.146
	c-0.346-0.191-0.687-0.397-1.086-0.67l-0.154-0.115c-0.245-0.172-0.483-0.348-0.717-0.532l-0.326-0.283
	c-0.189-0.164-0.382-0.335-0.555-0.506c-0.112-0.108-0.221-0.218-0.336-0.335c-0.167-0.178-0.331-0.355-0.51-0.566
	c-0.094-0.104-0.187-0.215-0.273-0.322c-0.165-0.207-0.316-0.418-0.47-0.629l-0.235-0.33c-0.196-0.293-0.381-0.599-0.615-1.016
	c-0.191-0.348-0.36-0.703-0.52-1.074l-0.134-0.34c-0.104-0.259-0.199-0.521-0.284-0.781L28.55,95H12.37V129z"/>
<rect x="75.141" y="95.005" width="8.561" height="21.154"/>
<rect x="87.981" y="95.005" width="8.557" height="8.315"/>
<path d="M96.538,27H38.049v8.561H85.84c1.182,0,2.143,0.958,2.143,2.139v53.022h8.557L96.538,27L96.538,27z"/>
<path d="M35.312,86.559c-1.685,1.684-2.61,3.926-2.61,6.305c0,4.918,4,8.918,8.917,8.918c2.38,0,4.619-0.928,6.301-2.611
	c1.686-1.688,2.612-3.924,2.612-6.307c0-2.379-0.925-4.621-2.609-6.305s-3.924-2.611-6.304-2.611
	C39.233,83.945,36.994,84.875,35.312,86.559z"/>
</svg>
