<?xml version="1.0" encoding="utf-8"?>
<!-- Generator: Adobe Illustrator 15.0.2, SVG Export Plug-In . SVG Version: 6.00 Build 0)  -->
<!DOCTYPE svg PUBLIC "-//W3C//DTD SVG 1.1//EN" "http://www.w3.org/Graphics/SVG/1.1/DTD/svg11.dtd">
<svg version="1.1" id="Ebene_1" xmlns="http://www.w3.org/2000/svg" xmlns:xlink="http://www.w3.org/1999/xlink" x="0px" y="0px"
	 width="96px" height="96px" viewBox="0 0 96 96" enable-background="new 0 0 96 96" xml:space="preserve">
<g>
	<polygon points="59.518,42.006 49.207,31.694 49.207,42.006 	"/>
	<path d="M25.388,18h-2.649H18v44.052h7.388V25.387h21.971c0.124,0,0.235,0.015,0.354,0.037l0.054,0.011
		c0.115,0.027,0.252,0.083,0.499,0.21c0.173,0.099,0.3,0.188,0.396,0.282l16.613,16.62c0.094,0.096,0.186,0.219,0.285,0.387
		l0.053,0.107c0.072,0.149,0.125,0.276,0.162,0.423l0.004,0.029c0.021,0.116,0.037,0.238,0.037,0.355v18.055h7.389L73.206,18H25.388
		z"/>
	<polygon points="73.208,65 65.82,65 65.82,84 25.388,84 25.388,65 18,65 18,84 18,84.654 18,91.388 73.205,91.388 73.205,84.654 
		73.208,84.654 	"/>
</g>
</svg>
