<?xml version="1.0" encoding="utf-8"?>
<!-- Generator: Adobe Illustrator 15.0.2, SVG Export Plug-In . SVG Version: 6.00 Build 0)  -->
<!DOCTYPE svg PUBLIC "-//W3C//DTD SVG 1.1//EN" "http://www.w3.org/Graphics/SVG/1.1/DTD/svg11.dtd">
<svg version="1.1" id="Ebene_1" xmlns="http://www.w3.org/2000/svg" xmlns:xlink="http://www.w3.org/1999/xlink" x="0px" y="0px"
	 width="96px" height="96px" viewBox="2.982 0 96 96" enable-background="new 2.982 0 96 96" xml:space="preserve">
<g>
	<path d="M36.416,50.574l0.167,0.129c0.068,0.057,0.143,0.113,0.309,0.233c2.958,2.289,6.495,3.818,10.22,4.434
		c1.21,0.207,2.489,0.316,3.804,0.316c5.277,0,10.43-1.819,14.51-5.117c5.482-4.396,8.627-10.97,8.627-18.021V20.97
		C74.053,11.612,66.438,4,57.07,4H44.75c-6.553,0-12.577,3.829-15.347,9.752c-1.079,2.251-1.624,4.682-1.624,7.218v11.575
		C27.783,39.599,30.925,46.165,36.416,50.574z"/>
	<path d="M67.779,53.514l-0.709,0.493c-0.492,0.341-0.996,0.663-1.506,0.965l-0.438,0.241c-0.393,0.229-0.793,0.449-1.195,0.661
		l-0.645,0.312c-0.35,0.164-0.697,0.332-1.049,0.486c-0.234,0.106-0.469,0.192-0.709,0.29c-0.346,0.142-0.697,0.276-1.051,0.396
		c-0.238,0.086-0.488,0.169-0.732,0.251c-0.361,0.111-0.727,0.225-1.09,0.321l-0.715,0.197c-0.406,0.104-0.822,0.192-1.23,0.276
		l-0.617,0.129c-0.617,0.11-1.246,0.215-1.865,0.285c-1.791,0.202-3.697,0.233-5.549,0.078l-0.751-0.086
		c-0.506-0.053-1.012-0.11-1.521-0.193c-0.193-0.027-0.381-0.067-0.57-0.106l-0.306-0.062c-0.456-0.091-0.918-0.188-1.372-0.3
		c-0.273-0.064-0.54-0.145-0.891-0.234c-0.44-0.123-0.878-0.258-1.31-0.405c-0.295-0.1-0.584-0.199-0.881-0.309
		c-0.428-0.159-0.842-0.331-1.372-0.557c-0.249-0.107-0.492-0.215-0.743-0.32c-0.422-0.195-0.836-0.41-1.25-0.633l-0.252-0.131
		c-0.177-0.092-0.352-0.187-0.526-0.277c-0.451-0.254-0.881-0.529-1.319-0.812l-1.424-0.923l-0.983,0.272
		c-0.158,0.036-0.32,0.077-0.493,0.136c-7.662,2.554-13.033,9.406-13.667,17.454c-0.046,0.535-0.064,1.072-0.064,1.607l0.004,11.403
		l0.019,0.193c0.108,5.464,4.654,9.903,10.134,9.903h43.689c5.594,0,10.154-4.555,10.154-10.154V73.03
		c0-8.83-5.908-16.745-14.359-19.255L67.779,53.514z"/>
</g>
</svg>
