<?xml version="1.0" encoding="utf-8"?>
<!-- Generator: Adobe Illustrator 15.0.2, SVG Export Plug-In . SVG Version: 6.00 Build 0)  -->
<!DOCTYPE svg PUBLIC "-//W3C//DTD SVG 1.1//EN" "http://www.w3.org/Graphics/SVG/1.1/DTD/svg11.dtd">
<svg version="1.1" id="Ebene_1" xmlns="http://www.w3.org/2000/svg" xmlns:xlink="http://www.w3.org/1999/xlink" x="0px" y="0px"
	 width="104px" height="96px" viewBox="0 0 104 96" enable-background="new 0 0 104 96" xml:space="preserve">
<path d="M69.553,41.501L67.354,20.25h7.583c2.381,0,4.312-1.93,4.312-4.312V7.312C79.25,4.93,77.318,3,74.938,3H26.062
	C23.68,3,21.75,4.93,21.75,7.312v8.625c0,2.382,1.93,4.312,4.312,4.312h7.583l-2.198,21.251C22.732,45.554,16,52.818,16,61.938
	c0,2.381,1.93,4.312,4.312,4.312H44.75v18.688c0,0.225,0.052,0.443,0.151,0.646l4.312,8.625c0.529,1.056,2.043,1.056,2.572,0
	l4.312-8.625c0.101-0.202,0.151-0.421,0.151-0.646V66.25h24.438c2.381,0,4.312-1.932,4.312-4.312
	C85,52.74,78.175,45.51,69.553,41.501z"/>
</svg>
