<?xml version="1.0" encoding="utf-8"?>
<!-- Generator: Adobe Illustrator 15.0.2, SVG Export Plug-In . SVG Version: 6.00 Build 0)  -->
<!DOCTYPE svg PUBLIC "-//W3C//DTD SVG 1.1//EN" "http://www.w3.org/Graphics/SVG/1.1/DTD/svg11.dtd">
<svg version="1.1" id="Ebene_1" xmlns="http://www.w3.org/2000/svg" xmlns:xlink="http://www.w3.org/1999/xlink" x="0px" y="0px"
	 width="96px" height="96px" viewBox="0 0 96 96" enable-background="new 0 0 96 96" xml:space="preserve">
<path d="M70.307,58.244l-1.205-1.276l-1.205,1.276c-2.572,2.712-6.023,4.199-9.725,4.199c-3.703,0-7.158-1.492-9.725-4.199
	l-1.205-1.276l-1.205,1.276c-2.57,2.712-6.025,4.206-9.726,4.206s-7.157-1.494-9.724-4.206l-1.205-1.276l-1.205,1.276
	c-1.652,1.744-3.74,3.019-6.035,3.674l-1.203,0.341V95h19.61v-8.621c0-5.895,4.799-10.69,10.695-10.69
	c5.889,0,10.688,4.796,10.688,10.69V95h19.619V62.264l-1.205-0.342C74.049,61.263,71.959,59.988,70.307,58.244z"/>
<path d="M47.239,80.673c-3.146,0-5.709,2.557-5.709,5.705v8.619h11.415v-8.619C52.943,83.229,50.385,80.673,47.239,80.673z"/>
<rect x="21.341" y="7" width="49.968" height="5.816"/>
<polygon points="8.189,35.598 23.69,35.598 30.803,17.796 20.174,17.796 "/>
<polygon points="44.746,17.796 36.17,17.796 29.053,35.598 44.746,35.598 "/>
<polygon points="49.727,17.796 49.727,35.598 65.426,35.598 58.303,17.796 "/>
<polygon points="85.973,35.598 72.562,17.796 63.668,17.796 70.789,35.598 "/>
<path d="M22.879,49.025v-8.442H6v8.442c0,4.653,3.788,8.44,8.442,8.44C19.094,57.467,22.879,53.679,22.879,49.025z"/>
<path d="M27.864,49.025c0,4.653,3.792,8.44,8.44,8.44c4.656,0,8.438-3.788,8.438-8.44v-8.442H27.864V49.025L27.864,49.025z"/>
<path d="M71.592,49.025c0,4.653,3.787,8.44,8.439,8.44c4.654,0,8.439-3.788,8.439-8.44v-8.442H71.59v8.442H71.592z"/>
<path d="M49.727,49.025c0,4.653,3.791,8.44,8.443,8.44c4.656,0,8.439-3.788,8.439-8.44v-8.442H49.727V49.025z"/>
</svg>
