<?xml version="1.0" encoding="utf-8"?>
<!-- Generator: Adobe Illustrator 15.0.2, SVG Export Plug-In . SVG Version: 6.00 Build 0)  -->
<!DOCTYPE svg PUBLIC "-//W3C//DTD SVG 1.1//EN" "http://www.w3.org/Graphics/SVG/1.1/DTD/svg11.dtd">
<svg version="1.1" id="Ebene_1" xmlns="http://www.w3.org/2000/svg" xmlns:xlink="http://www.w3.org/1999/xlink" x="0px" y="0px"
	 width="96px" height="96px" viewBox="0 0 96 96" enable-background="new 0 0 96 96" xml:space="preserve">
<g transform="scale(0.03125 0.03125)">
	<path d="M1536.031,0C687.703,0,0,687.766,0,1536.031C0,2384.312,687.703,3072,1536.031,3072
		C2384.312,3072,3072,2384.312,3072,1536.031C3072,687.766,2384.312,0,1536.031,0z M908.516,2502.469
		c33.266-92,51.453-191.062,51.453-294.5c0-373-236.391-690.906-567.5-811.859c30.469-254.672,144.688-490.469,328.891-674.734
		C938.953,503.797,1228.312,384,1536.031,384s596.906,119.797,814.594,337.375c184.188,184.266,298.312,420.062,329.062,674.734
		c-331.25,120.953-567.75,438.859-567.75,811.859c0,103.438,18.188,202.5,51.562,294.5
		c-185.125,120.625-401.312,185.5-627.469,185.5C1309.844,2687.969,1093.641,2623.094,908.516,2502.469z M1655.188,1922.969
		c41.625,10.531,72.812,48.219,72.812,93.062v191.938c0,52.812-43.25,96.062-96.062,96.062h-191.906
		c-52.828,0-96.094-43.25-96.094-96.062v-191.938c0-44.844,31.188-82.531,72.797-93.062l71.266-1347h95.938L1655.188,1922.969z"/>
</g>
</svg>
