<?xml version="1.0" encoding="utf-8"?>
<!-- Generator: Adobe Illustrator 15.0.2, SVG Export Plug-In . SVG Version: 6.00 Build 0)  -->
<!DOCTYPE svg PUBLIC "-//W3C//DTD SVG 1.1//EN" "http://www.w3.org/Graphics/SVG/1.1/DTD/svg11.dtd">
<svg version="1.1" id="Ebene_1" xmlns="http://www.w3.org/2000/svg" xmlns:xlink="http://www.w3.org/1999/xlink" x="0px" y="0px"
	 width="96px" height="96px" viewBox="0 0 96 96" enable-background="new 0 0 96 96" xml:space="preserve">
<path d="M15.682,96H81.04c3.134,0,5.682-2.55,5.682-5.682V40.937c0-3.133-2.548-5.681-5.682-5.681H15.682
	c-3.137,0-5.682,2.548-5.682,5.681v49.381C10,93.45,12.545,96,15.682,96z M18.382,65.627c0-6.757,5.498-12.255,12.256-12.255H66.08
	c6.757,0,12.253,5.498,12.253,12.255c0,6.758-5.496,12.255-12.253,12.255H30.638C23.88,77.883,18.382,72.386,18.382,65.627z"/>
<path d="M30.638,73.161H66.08c4.158,0,7.531-3.382,7.531-7.531c0-4.156-3.378-7.53-7.531-7.53H30.638
	c-4.156,0-7.529,3.377-7.529,7.53C23.105,69.78,26.485,73.161,30.638,73.161z M45.999,65.627c0-0.618,0.252-1.229,0.686-1.677
	c0.422-0.42,1.054-0.629,1.68-0.629c0.62,0,1.237,0.204,1.656,0.615c0.444,0.461,0.7,1.069,0.7,1.688c0,0.61-0.254,1.22-0.688,1.673
	c-0.914,0.882-2.476,0.852-3.337,0.013C46.251,66.855,45.999,66.244,45.999,65.627z M64.667,67.297L64.667,67.297
	c-0.856,0.855-2.457,0.872-3.333,0c-0.443-0.445-0.702-1.058-0.702-1.669c0-0.618,0.257-1.228,0.702-1.676
	c0.404-0.402,1.018-0.634,1.675-0.634h0.007c0.653,0.003,1.25,0.228,1.651,0.637c0.436,0.435,0.685,1.046,0.685,1.673
	C65.354,66.249,65.104,66.86,64.667,67.297z M32.052,63.95c0.401-0.401,1.009-0.638,1.669-0.638c0.001,0,0.005,0,0.01,0
	c0.647,0.006,1.25,0.229,1.652,0.638c0.447,0.447,0.704,1.059,0.704,1.677c0,0.611-0.256,1.223-0.704,1.67
	c-0.876,0.876-2.444,0.867-3.326,0c-0.437-0.436-0.688-1.048-0.688-1.67C31.364,64.999,31.615,64.39,32.052,63.95z"/>
<path d="M70.375,30.537v-8.518C70.375,9.881,60.499,0,48.359,0C36.217,0,26.342,9.881,26.342,22.019v8.518h7.867v-8.518
	c0-7.802,6.348-14.146,14.151-14.146c7.801,0,14.146,6.346,14.146,14.146v8.518L70.375,30.537L70.375,30.537z"/>
</svg>
