<?xml version="1.0" encoding="utf-8"?>
<!-- Generator: Adobe Illustrator 15.0.2, SVG Export Plug-In . SVG Version: 6.00 Build 0)  -->
<!DOCTYPE svg PUBLIC "-//W3C//DTD SVG 1.1//EN" "http://www.w3.org/Graphics/SVG/1.1/DTD/svg11.dtd">
<svg version="1.1" id="Ebene_1" xmlns="http://www.w3.org/2000/svg" xmlns:xlink="http://www.w3.org/1999/xlink" x="0px" y="0px"
	 width="128px" height="140px" viewBox="0 0 128 140" enable-background="new 0 0 128 140" xml:space="preserve">
<path d="M24.853,128.996h78.294c3.754,0,6.805-3.053,6.805-6.805V63.036c0-3.752-3.051-6.804-6.805-6.804H24.853
	c-3.755-0.001-6.805,3.052-6.805,6.804v59.155C18.048,125.943,21.098,128.996,24.853,128.996z M28.09,92.611
	c0-8.094,6.585-14.678,14.68-14.678h42.457c8.095,0,14.677,6.584,14.677,14.678c0,8.096-6.582,14.682-14.677,14.682H42.77
	C34.675,107.295,28.09,100.709,28.09,92.611z"/>
<path d="M42.77,101.637h42.457c4.978,0,9.023-4.049,9.023-9.025c0-4.979-4.048-9.021-9.023-9.021H42.77
	c-4.979,0-9.022,4.045-9.022,9.021C33.748,97.588,37.796,101.637,42.77,101.637z M61.171,92.611c0-0.74,0.303-1.473,0.822-2.006
	c0.506-0.506,1.262-0.756,2.012-0.756c0.743,0,1.485,0.246,1.987,0.741c0.531,0.548,0.834,1.281,0.834,2.021
	c0,0.731-0.299,1.461-0.821,2.004c-1.095,1.057-2.967,1.018-3.998,0.014C61.475,94.084,61.171,93.352,61.171,92.611z M83.533,94.613
	L83.533,94.613c-1.025,1.025-2.944,1.043-3.992,0c-0.531-0.535-0.842-1.269-0.842-2c0-0.74,0.309-1.471,0.842-2.006
	c0.486-0.482,1.218-0.76,2.006-0.76h0.007c0.783,0.004,1.499,0.276,1.979,0.764c0.521,0.521,0.822,1.252,0.822,2.002
	C84.359,93.359,84.059,94.09,83.533,94.613z M44.465,90.605c0.482-0.482,1.209-0.763,1.999-0.763c0.002,0,0.006,0,0.013,0
	c0.775,0.002,1.497,0.275,1.976,0.763c0.535,0.533,0.842,1.266,0.842,2.006c0,0.733-0.305,1.465-0.842,2.002
	c-1.048,1.049-2.928,1.037-3.987,0c-0.525-0.523-0.825-1.254-0.825-2.002C43.64,91.861,43.94,91.131,44.465,90.605z"/>
<path d="M90.373,50.578V40.376C90.373,25.836,78.543,14,63.999,14S37.624,25.836,37.624,40.376v10.202h9.424V40.376
	c0-9.346,7.603-16.946,16.951-16.946c9.347,0,16.948,7.601,16.948,16.946v10.202H90.373z"/>
</svg>
