<?xml version="1.0" encoding="utf-8"?>
<!-- Generator: Adobe Illustrator 15.0.2, SVG Export Plug-In . SVG Version: 6.00 Build 0)  -->
<!DOCTYPE svg PUBLIC "-//W3C//DTD SVG 1.1//EN" "http://www.w3.org/Graphics/SVG/1.1/DTD/svg11.dtd">
<svg version="1.1" id="Ebene_1" xmlns="http://www.w3.org/2000/svg" xmlns:xlink="http://www.w3.org/1999/xlink" x="0px" y="0px"
	 width="96px" height="96px" viewBox="0 0 96 96" enable-background="new 0 0 96 96" xml:space="preserve">
<g>
	<path d="M65.795,54l-0.709,0.493c-0.492,0.341-0.996,0.663-1.506,0.966l-0.438,0.24c-0.395,0.229-0.793,0.449-1.195,0.661
		l-0.645,0.312c-0.352,0.164-0.697,0.332-1.051,0.486c-0.232,0.105-0.469,0.192-0.709,0.29c-0.346,0.142-0.695,0.276-1.051,0.396
		c-0.238,0.086-0.488,0.17-0.73,0.252c-0.361,0.111-0.729,0.225-1.092,0.32l-0.715,0.197c-0.404,0.104-0.82,0.191-1.229,0.275
		l-0.617,0.13c-0.617,0.11-1.246,0.215-1.865,0.284c-1.791,0.203-3.697,0.233-5.549,0.078l-0.751-0.086
		c-0.506-0.053-1.012-0.109-1.521-0.192c-0.193-0.027-0.381-0.067-0.57-0.106l-0.306-0.062c-0.456-0.091-0.918-0.188-1.372-0.3
		c-0.273-0.064-0.54-0.146-0.891-0.234c-0.44-0.123-0.878-0.258-1.31-0.405c-0.295-0.1-0.584-0.198-0.881-0.309
		c-0.428-0.159-0.842-0.331-1.372-0.558c-0.249-0.106-0.492-0.215-0.743-0.319c-0.422-0.195-0.836-0.41-1.25-0.634l-0.252-0.131
		c-0.177-0.092-0.352-0.187-0.526-0.276c-0.451-0.255-0.881-0.529-1.319-0.812l-1.424-0.924l-0.983,0.271
		c-0.158,0.037-0.32,0.078-0.493,0.137c-7.662,2.554-13.033,9.406-13.667,17.454C17.018,72.43,17,72.967,17,73.502l0.004,11.403
		l0.019,0.192c0.108,5.465,4.654,9.904,10.134,9.904h43.688C76.439,95.002,81,90.446,81,84.848V73.516
		c0-8.829-5.908-16.744-14.359-19.254L65.795,54z"/>
</g>
<g>
	<g>
		<path d="M0,0v54h40.31c-1.923-0.775-3.74-1.799-5.375-3.064c-0.166-0.119-0.241-0.176-0.309-0.232l-0.167-0.129
			c-5.491-4.409-8.633-10.975-8.637-18.029V20.97c0-2.536,0.545-4.967,1.624-7.218C30.215,7.829,36.239,4,42.792,4h12.32
			c9.367,0,16.982,7.612,16.982,16.97v11.578c0,7.052-3.145,13.625-8.627,18.021c-1.784,1.443-3.782,2.584-5.897,3.432H96V0H0z"/>
	</g>
</g>
</svg>
