<?xml version="1.0" encoding="utf-8"?>
<!-- Generator: Adobe Illustrator 15.0.2, SVG Export Plug-In . SVG Version: 6.00 Build 0)  -->
<!DOCTYPE svg PUBLIC "-//W3C//DTD SVG 1.1//EN" "http://www.w3.org/Graphics/SVG/1.1/DTD/svg11.dtd">
<svg version="1.1" id="Ebene_1" xmlns="http://www.w3.org/2000/svg" xmlns:xlink="http://www.w3.org/1999/xlink" x="0px" y="0px"
	 width="140px" height="140px" viewBox="0 0 140 140" enable-background="new 0 0 140 140" xml:space="preserve">
<path d="M20.057,86.882c0.38,6.438,1.791,12.726,4.194,18.683c3.487,8.619,9.076,16.438,16.17,22.604l0.341,0.294l2.492,0.207
	V85.414H19.969L20.057,86.882z"/>
<path d="M0.251,88.495c1.863,16.405,12.607,30.532,28.041,36.86l5.005,2.054l-3.401-4.208c-3.988-4.935-7.188-10.345-9.503-16.075
	c-2.63-6.52-4.152-13.381-4.521-20.399l-0.07-1.312H0l0.143,1.852C0.174,87.683,0.207,88.098,0.251,88.495z"/>
<path d="M15.872,79.938c0.373-7.015,1.892-13.88,4.523-20.394c2.315-5.732,5.514-11.143,9.497-16.075l3.401-4.208l-5.004,2.053
	C12.858,47.645,2.114,61.762,0.257,78.152c-0.05,0.417-0.083,0.847-0.116,1.277L0,81.251h15.807L15.872,79.938z"/>
<path d="M40.426,38.496c-7.099,6.166-12.688,13.982-16.175,22.606c-2.403,5.958-3.814,12.241-4.197,18.681l-0.088,1.471h23.29V38
	l-2.494,0.201L40.426,38.496z"/>
<path d="M70.351,85.414H47.067v43.256l2.492-0.207l0.339-0.294c7.092-6.167,12.682-13.985,16.169-22.606
	c2.402-5.955,3.815-12.244,4.196-18.683L70.351,85.414z"/>
<path d="M90.176,87.266l0.144-1.852H74.519l-0.07,1.311c-0.371,7.021-1.893,13.88-4.521,20.401
	c-2.317,5.728-5.515,11.137-9.503,16.075l-3.401,4.208l5.005-2.054c15.432-6.328,26.178-20.455,28.038-36.86
	C90.11,88.098,90.144,87.683,90.176,87.266z"/>
<path d="M74.514,81.248h15.806l-0.142-1.818c-0.034-0.431-0.067-0.861-0.116-1.277c-1.856-16.391-12.603-30.511-28.033-36.841
	l-5.005-2.053l3.401,4.208c3.984,4.933,7.183,10.344,9.5,16.074c2.629,6.517,4.148,13.38,4.52,20.397L74.514,81.248z"/>
<path d="M49.557,38.201L47.063,38v43.251h23.289l-0.087-1.469c-0.383-6.439-1.796-12.726-4.198-18.683
	c-3.487-8.622-9.077-16.438-16.174-22.606L49.557,38.201z"/>
</svg>
