<?xml version="1.0" encoding="utf-8"?>
<!-- Generator: Adobe Illustrator 15.0.2, SVG Export Plug-In . SVG Version: 6.00 Build 0)  -->
<!DOCTYPE svg PUBLIC "-//W3C//DTD SVG 1.1//EN" "http://www.w3.org/Graphics/SVG/1.1/DTD/svg11.dtd">
<svg version="1.1" id="Ebene_1" xmlns="http://www.w3.org/2000/svg" xmlns:xlink="http://www.w3.org/1999/xlink" x="0px" y="0px"
	 width="96px" height="96px" viewBox="0 0 96 96" enable-background="new 0 0 96 96" xml:space="preserve">
<path d="M21.799,51.677c0.395,6.675,1.857,13.194,4.348,19.37c3.611,8.936,9.406,17.04,16.764,23.433l0.354,0.305l2.584,0.215
	V50.155h-24.14L21.799,51.677z"/>
<path d="M1.268,53.351c1.928,17.008,13.066,31.653,29.07,38.213l5.188,2.13l-3.523-4.363c-4.135-5.116-7.451-10.725-9.855-16.665
	c-2.725-6.76-4.3-13.872-4.685-21.146l-0.073-1.361H1.008l0.15,1.922C1.187,52.509,1.221,52.938,1.268,53.351z"/>
<path d="M17.462,44.479c0.387-7.273,1.96-14.385,4.685-21.144c2.398-5.941,5.719-11.553,9.846-16.666l3.525-4.362l-5.189,2.129
	C14.327,11,3.189,25.635,1.268,42.628c-0.055,0.432-0.086,0.878-0.119,1.323L1,45.834h16.389L17.462,44.479z"/>
<path d="M42.916,1.514c-7.36,6.394-13.156,14.497-16.77,23.438c-2.49,6.177-3.953,12.689-4.352,19.367l-0.092,1.525H45.85V1
	l-2.586,0.208L42.916,1.514z"/>
<path d="M73.938,50.156H49.802V95l2.582-0.215l0.354-0.305c7.352-6.394,13.149-14.497,16.761-23.435
	c2.489-6.174,3.955-12.694,4.35-19.37L73.938,50.156z"/>
<path d="M94.492,52.076l0.149-1.921H78.261l-0.07,1.359c-0.383,7.278-1.967,14.391-4.688,21.149
	c-2.401,5.939-5.719,11.548-9.854,16.665l-3.522,4.363l5.188-2.13c16.002-6.56,27.143-21.205,29.068-38.213
	C94.423,52.938,94.457,52.509,94.492,52.076z"/>
<path d="M78.255,45.837h16.387l-0.147-1.884c-0.037-0.448-0.069-0.893-0.12-1.324c-1.921-16.988-13.065-31.628-29.06-38.19
	L60.125,2.31l3.522,4.362c4.129,5.115,7.449,10.726,9.849,16.665c2.726,6.758,4.299,13.872,4.688,21.146L78.255,45.837z"/>
<path d="M52.382,1.208L49.798,1v44.84h24.142l-0.089-1.523c-0.396-6.675-1.862-13.194-4.352-19.368
	C65.888,16.01,60.09,7.907,52.729,1.511L52.382,1.208z"/>
</svg>
