<?xml version="1.0" encoding="utf-8"?>
<!-- Generator: Adobe Illustrator 15.0.2, SVG Export Plug-In . SVG Version: 6.00 Build 0)  -->
<!DOCTYPE svg PUBLIC "-//W3C//DTD SVG 1.1//EN" "http://www.w3.org/Graphics/SVG/1.1/DTD/svg11.dtd">
<svg version="1.1" id="Ebene_1" xmlns="http://www.w3.org/2000/svg" xmlns:xlink="http://www.w3.org/1999/xlink" x="0px" y="0px"
	 width="107px" height="96px" viewBox="0.5 0.5 107 96" enable-background="new 0.5 0.5 107 96" xml:space="preserve">
<g>
	<g>
		<path d="M38.892,29.5c0.435,5,0.238,8.111-0.588,11.288c-0.829,3.18-2.024,5.789-3.591,8.094c-1.567,2.308-3.31,4.221-5.224,5.873
			c-1.916,1.656-3.722,3.232-5.419,4.799c-1.698,1.568-3.134,3.178-4.309,4.863c-1.175,1.686-1.763,3.687-1.763,6.022
			c0,3.023,0.87,5.461,2.612,7.32c1.74,1.857,4.787,2.785,9.141,2.785c1.392,0,2.873-0.152,4.439-0.457
			c1.567-0.307,3.134-0.742,4.702-1.307c1.566-0.568,3.068-1.221,4.505-1.959c1.437-0.74,2.72-1.547,3.852-2.416L53.648,87
			c-3.311,2.285-7.097,4.174-11.361,5.668c-4.267,1.494-9.447,2.238-15.54,2.238c-8.184,0-14.605-1.957-19.262-5.875
			C2.828,85.115,0.5,79.76,0.5,72.971c0-4.441,0.587-8.096,1.763-10.969s2.655-5.332,4.44-7.379
			c1.783-2.043,3.699-3.852,5.745-5.418c2.045-1.567,3.96-3.242,5.746-5.027c1.784-1.784,3.265-3.585,4.44-5.936
			c1.175-2.351,1.763-4.742,1.763-8.742H38.892z M20.74,10.424c0-3.046,0.957-5.462,2.873-7.247c1.914-1.783,4.44-2.677,7.574-2.677
			c3.307,0,5.919,0.894,7.834,2.677c1.915,1.785,2.873,4.201,2.873,7.247c0,3.047-0.958,5.484-2.873,7.312
			c-1.916,1.828-4.527,2.742-7.834,2.742c-3.134,0-5.661-0.914-7.574-2.742C21.697,15.908,20.74,13.471,20.74,10.424z"/>
	</g>
	<g>
		<path d="M68.593,68.5c-0.436-4-0.218-8.802,0.653-11.981c0.87-3.176,2.067-6.132,3.591-8.438c1.522-2.305,3.266-4.415,5.224-6.113
			c1.959-1.697,3.787-3.383,5.484-4.949c1.698-1.567,3.112-3.227,4.244-4.924c1.13-1.698,1.698-3.735,1.698-6.086
			c0-3.046-0.85-5.49-2.547-7.318c-1.697-1.827-4.724-2.745-9.076-2.745c-1.393,0-2.872,0.151-4.439,0.456
			c-1.566,0.307-3.134,0.739-4.701,1.305c-1.566,0.566-3.068,1.219-4.505,1.958c-1.437,0.74-2.722,1.5-3.853,2.285L53.838,9.412
			c3.308-2.262,7.116-4.134,11.425-5.615c4.311-1.479,9.512-2.219,15.606-2.219c8.181,0,14.579,1.98,19.194,5.941
			c4.613,3.962,6.92,9.293,6.92,15.996c0,4.44-0.587,8.119-1.762,11.034c-1.175,2.918-2.635,5.399-4.375,7.444
			c-1.742,2.046-3.656,3.852-5.745,5.418c-2.089,1.566-4.005,3.244-5.745,5.027c-1.742,1.785-3.221,4.278-4.439,6.628
			c-1.221,2.35-1.828,5.435-1.828,9.435H68.593z M65.981,86.191c0-3.045,0.957-5.461,2.873-7.246
			c1.914-1.783,4.439-2.678,7.574-2.678c3.308,0,5.92,0.895,7.835,2.678c1.913,1.785,2.872,4.201,2.872,7.246
			c0,3.049-0.959,5.484-2.872,7.312c-1.915,1.828-4.527,2.742-7.835,2.742c-3.135,0-5.66-0.914-7.574-2.742
			C66.938,91.676,65.981,89.24,65.981,86.191z"/>
	</g>
</g>
</svg>
