<?xml version="1.0" encoding="utf-8"?>
<!-- Generator: Adobe Illustrator 15.0.2, SVG Export Plug-In . SVG Version: 6.00 Build 0)  -->
<!DOCTYPE svg PUBLIC "-//W3C//DTD SVG 1.1//EN" "http://www.w3.org/Graphics/SVG/1.1/DTD/svg11.dtd">
<svg version="1.1" id="Ebene_1" xmlns="http://www.w3.org/2000/svg" xmlns:xlink="http://www.w3.org/1999/xlink" x="0px" y="0px"
	 width="128px" height="140px" viewBox="0 0 128 140" enable-background="new 0 0 128 140" xml:space="preserve">
<g>
	<g>
		<path d="M64,16C32.831,16,7.563,41.268,7.563,72.438c0,31.169,25.268,56.436,56.437,56.436s56.437-25.267,56.437-56.436
			C120.437,41.268,95.169,16,64,16z M64,115.259c-23.65,0-42.822-19.172-42.822-42.822c0-23.649,19.172-42.821,42.822-42.821
			c23.649,0,42.821,19.172,42.821,42.821C106.821,96.087,87.649,115.259,64,115.259z"/>
	</g>
</g>
<g>
	<path d="M51.365,55.656v-7.194c3.516-2.275,7.268-3.414,11.26-3.414c2.695,0,5.039,0.396,7.033,1.188
		c1.992,0.792,3.539,1.879,4.641,3.261c1.102,1.383,1.916,2.872,2.443,4.467s0.793,3.314,0.793,5.157
		c0,1.934-0.367,3.661-1.102,5.181s-1.645,2.776-2.729,3.766l-3.24,2.936c-1.066,0.967-1.963,2.15-2.695,3.554
		s-1.098,2.988-1.098,4.757v2.475H60.66v-2.688c0-2.451,0.344-4.62,1.033-6.507c0.689-1.886,1.549-3.382,2.576-4.491
		c1.029-1.108,2.041-2.121,3.035-3.041c0.994-0.919,1.852-1.874,2.574-2.865c0.721-0.99,1.082-2.039,1.082-3.147
		c0-5.163-2.959-7.745-8.873-7.745C58.197,51.306,54.622,52.756,51.365,55.656z M60.309,93.635v-6.258h6.715v6.258H60.309z"/>
</g>
</svg>
