<?xml version="1.0" encoding="utf-8"?>
<!-- Generator: Adobe Illustrator 15.0.2, SVG Export Plug-In . SVG Version: 6.00 Build 0)  -->
<!DOCTYPE svg PUBLIC "-//W3C//DTD SVG 1.1//EN" "http://www.w3.org/Graphics/SVG/1.1/DTD/svg11.dtd">
<svg version="1.1" id="Ebene_1" xmlns="http://www.w3.org/2000/svg" xmlns:xlink="http://www.w3.org/1999/xlink" x="0px" y="0px"
	 width="96px" height="96px" viewBox="0 0 96 96" enable-background="new 0 0 96 96" xml:space="preserve">
<g enable-background="new    ">
	<path d="M23.816,56.73v-1.455c1.664-1.457,3.276-3.849,4.836-7.177c1.56-3.328,2.34-7.176,2.34-11.544
		c0-2.01-0.312-3.64-0.936-4.888c-0.624-1.248-1.526-2.6-2.704-4.056c-1.04-1.248-1.82-2.356-2.34-3.328
		c-0.52-0.97-0.78-2.184-0.78-3.64c0-2.08,0.676-3.778,2.028-5.096c1.352-1.316,3.068-1.976,5.148-1.976
		c2.08,0,3.986,0.798,5.72,2.392c1.732,1.596,3.102,3.71,4.108,6.344c1.004,2.636,1.508,5.444,1.508,8.424
		c0,4.646-0.816,8.996-2.444,13.052c-1.63,4.056-3.624,7.489-5.98,10.295c-2.358,2.809-4.612,4.803-6.76,5.98h-0.104L23.816,56.73z
		 M52.729,56.73v-1.455c1.664-1.457,3.275-3.849,4.836-7.177c1.56-3.328,2.34-7.176,2.34-11.544c0-2.01-0.312-3.64-0.937-4.888
		c-0.624-1.248-1.526-2.6-2.704-4.056c-1.039-1.248-1.82-2.356-2.34-3.328c-0.52-0.97-0.779-2.184-0.779-3.64
		c0-2.08,0.676-3.778,2.027-5.096c1.352-1.316,3.032-1.976,5.044-1.976c2.08,0,4.004,0.798,5.772,2.392
		c1.768,1.596,3.154,3.71,4.16,6.344c1.004,2.636,1.508,5.444,1.508,8.424c0,4.646-0.816,8.996-2.444,13.052
		c-1.63,4.056-3.624,7.489-5.979,10.295c-2.358,2.809-4.612,4.803-6.76,5.98h-0.104L52.729,56.73z"/>
</g>
</svg>
