<?xml version="1.0" encoding="utf-8"?>
<!-- Generator: Adobe Illustrator 15.0.2, SVG Export Plug-In . SVG Version: 6.00 Build 0)  -->
<!DOCTYPE svg PUBLIC "-//W3C//DTD SVG 1.1//EN" "http://www.w3.org/Graphics/SVG/1.1/DTD/svg11.dtd">
<svg version="1.1" id="Ebene_1" xmlns="http://www.w3.org/2000/svg" xmlns:xlink="http://www.w3.org/1999/xlink" x="0px" y="0px"
	 width="96px" height="96px" viewBox="0 0 96 96" enable-background="new 0 0 96 96" xml:space="preserve">
<g enable-background="new    ">
	<path d="M18.688,66.963l-7.68-2.176L4.352,61.65l3.52-6.207l6.08,4.287l5.952,5.377l-2.048-7.553l-0.768-7.615h7.488l-0.64,7.424
		l-1.728,7.551l5.76-5.375l6.08-4.288l3.712,6.144l-6.528,3.264l-7.808,2.305l7.808,2.176l6.656,3.008l-3.776,6.4l-5.824-4.225
		l-6.08-5.312l2.048,7.552l0.768,7.553H17.6l0.576-7.553l1.664-7.615l-5.76,5.504l-5.952,4.352l-3.712-6.208l6.592-3.265
		L18.688,66.963z"/>
</g>
<g enable-background="new    ">
	<path d="M46.592,56.73v-1.455c1.664-1.457,3.276-3.849,4.835-7.177c1.561-3.328,2.341-7.176,2.341-11.544
		c0-2.01-0.312-3.64-0.937-4.888c-0.623-1.248-1.525-2.6-2.703-4.056c-1.041-1.248-1.82-2.356-2.34-3.328
		c-0.52-0.97-0.78-2.184-0.78-3.64c0-2.08,0.676-3.778,2.028-5.096c1.353-1.316,3.068-1.976,5.148-1.976
		c2.079,0,3.985,0.798,5.72,2.392c1.732,1.596,3.102,3.71,4.107,6.344c1.005,2.636,1.509,5.444,1.509,8.424
		c0,4.646-0.815,8.996-2.444,13.052c-1.63,4.056-3.623,7.489-5.98,10.295c-2.357,2.809-4.611,4.803-6.76,5.98h-0.104L46.592,56.73z
		 M75.504,56.73v-1.455c1.664-1.457,3.276-3.849,4.836-7.177c1.561-3.328,2.34-7.176,2.34-11.544c0-2.01-0.312-3.64-0.936-4.888
		c-0.623-1.248-1.525-2.6-2.703-4.056c-1.041-1.248-1.82-2.356-2.341-3.328c-0.521-0.97-0.78-2.184-0.78-3.64
		c0-2.08,0.676-3.778,2.028-5.096c1.353-1.316,3.032-1.976,5.044-1.976c2.08,0,4.004,0.798,5.772,2.392
		c1.768,1.596,3.154,3.71,4.16,6.344c1.004,2.636,1.508,5.444,1.508,8.424c0,4.646-0.816,8.996-2.444,13.052
		c-1.63,4.056-3.624,7.489-5.979,10.295c-2.358,2.809-4.612,4.803-6.761,5.98h-0.104L75.504,56.73z"/>
</g>
</svg>
