<?xml version="1.0" encoding="utf-8"?>
<!-- Generator: Adobe Illustrator 15.0.2, SVG Export Plug-In . SVG Version: 6.00 Build 0)  -->
<!DOCTYPE svg PUBLIC "-//W3C//DTD SVG 1.1//EN" "http://www.w3.org/Graphics/SVG/1.1/DTD/svg11.dtd">
<svg version="1.1" id="Ebene_1" xmlns="http://www.w3.org/2000/svg" xmlns:xlink="http://www.w3.org/1999/xlink" x="0px" y="0px"
	 width="104px" height="96px" viewBox="0.5 0.5 104 96" enable-background="new 0.5 0.5 104 96" xml:space="preserve">
<g>
	<path d="M75.295,24.891C75.295,11.973,64.824,1.5,51.91,1.5c-12.917,0-23.387,10.472-23.387,23.391
		c0,1.067,0.095,2.109,0.234,3.138l23.153,4.17l23.15-4.17C75.199,27,75.295,25.958,75.295,24.891z"/>
	<g>
		<path d="M8.908,61.053V48.714l-1.317,0.019c-1.626,0.02-3.149,0.654-4.275,1.789C2.144,51.687,1.5,53.235,1.5,54.891
			c0,3.355,2.73,6.123,6.091,6.157L8.908,61.053z"/>
		<path d="M98.094,48.729l-1.318-0.015v12.339l1.318-0.016c1.625-0.02,3.148-0.659,4.271-1.789c1.168-1.164,1.814-2.711,1.814-4.369
			C104.184,51.525,101.447,48.764,98.094,48.729z"/>
		<polygon points="52.041,96.336 95.873,88.385 94.635,81.56 51.965,89.299 9.296,81.56 8.058,88.385 51.893,96.336 51.896,96.361 
			51.965,96.35 52.035,96.361 		"/>
	</g>
</g>
</svg>
