<?xml version="1.0" encoding="utf-8"?>
<!-- Generator: Adobe Illustrator 15.0.2, SVG Export Plug-In . SVG Version: 6.00 Build 0)  -->
<!DOCTYPE svg PUBLIC "-//W3C//DTD SVG 1.1//EN" "http://www.w3.org/Graphics/SVG/1.1/DTD/svg11.dtd">
<svg version="1.1" id="Ebene_1" xmlns="http://www.w3.org/2000/svg" xmlns:xlink="http://www.w3.org/1999/xlink" x="0px" y="0px"
	 width="140px" height="96px" viewBox="0 0 140 96" enable-background="new 0 0 140 96" xml:space="preserve">
<path d="M95.432,4c-9.543,0-18.265,3.494-24.975,9.258C63.612,6.898,54.444,3,44.361,3C23.175,3,6,20.174,6,41.362
	c0,21.185,17.175,38.359,38.361,38.359c0.352,0,0.7-0.018,1.05-0.027C51.147,86.974,60.034,91.661,70,91.661
	c9.51,0,18.036-4.268,23.781-10.982c0.548,0.022,1.097,0.042,1.65,0.042c21.187,0,38.36-17.174,38.36-38.359
	C133.792,21.174,116.617,4,95.432,4z M70,84.661c-6.181,0-11.827-2.323-16.12-6.138c5.792-1.481,11.052-4.284,15.451-8.064
	c4.433,4.121,9.844,7.198,15.843,8.862C81.012,82.658,75.737,84.661,70,84.661z M70.397,66.771L44.538,40.987l24.856-24.79
	l25.86,25.79L70.397,66.771z"/>
</svg>
