<?xml version="1.0" encoding="utf-8"?>
<!-- Generator: Adobe Illustrator 15.0.2, SVG Export Plug-In . SVG Version: 6.00 Build 0)  -->
<!DOCTYPE svg PUBLIC "-//W3C//DTD SVG 1.1//EN" "http://www.w3.org/Graphics/SVG/1.1/DTD/svg11.dtd">
<svg version="1.1" id="Ebene_1" xmlns="http://www.w3.org/2000/svg" xmlns:xlink="http://www.w3.org/1999/xlink" x="0px" y="0px"
	 width="96px" height="96px" viewBox="0 0 96 96" enable-background="new 0 0 96 96" xml:space="preserve">
<g>
	<g>
		<path d="M47.688,15C24.111,15,5,30.528,5,49.684c0,10.883,6.173,20.596,15.827,26.953c0.117,0.782,0.18,1.58,0.18,2.393
			c0,5.828-4.957,10.928-10.671,13.727V95c10.582-0.242,21.526-1.887,30.696-11.055c2.169,0.275,4.391,0.422,6.655,0.422
			c23.576,0,42.688-15.529,42.688-34.684C90.375,30.528,71.264,15,47.688,15z M23.688,61c-3.313,0-6-2.687-6-6s2.687-6,6-6
			s6,2.687,6,6S27.001,61,23.688,61z M47.688,61c-3.313,0-6-2.687-6-6s2.687-6,6-6s6,2.687,6,6S51.001,61,47.688,61z M71.688,61
			c-3.313,0-6-2.687-6-6s2.687-6,6-6s6,2.687,6,6S75.001,61,71.688,61z"/>
	</g>
</g>
</svg>
