<?xml version="1.0" encoding="utf-8"?>
<!-- Generator: Adobe Illustrator 15.0.2, SVG Export Plug-In . SVG Version: 6.00 Build 0)  -->
<!DOCTYPE svg PUBLIC "-//W3C//DTD SVG 1.1//EN" "http://www.w3.org/Graphics/SVG/1.1/DTD/svg11.dtd">
<svg version="1.1" id="Ebene_1" xmlns="http://www.w3.org/2000/svg" xmlns:xlink="http://www.w3.org/1999/xlink" x="0px" y="0px"
	 width="128px" height="140px" viewBox="0 0 128 140" enable-background="new 0 0 128 140" xml:space="preserve">
<path d="M127.92,127.019v-6.148c-0.07,0.005-0.137,0.008-0.184-0.008c-0.057-0.019,0.055-0.061,0-0.078
	c-0.119-0.04-0.596,0.039-0.715,0c-0.057-0.019,0.057-0.061,0-0.079c-0.113-0.037-0.363,0.037-0.477,0
	c-0.057-0.019,0.057-0.06,0-0.078c-0.119-0.04-0.596,0.039-0.715,0c-0.057-0.019,0.057-0.061,0-0.079
	c-0.066-0.021-0.824,0.021-0.953,0c-0.1-0.017-0.139-0.062-0.238-0.078c-0.072-0.012-0.182,0.019-0.238,0s0.057-0.061,0-0.079
	c-0.049-0.016-0.621,0.016-0.715,0c-0.102-0.016-0.139-0.062-0.236-0.078c-0.193-0.031-0.525,0.031-0.717,0
	c-0.1-0.017-0.139-0.062-0.238-0.078c-0.191-0.031-0.523,0.031-0.715,0c-0.1-0.017-0.139-0.062-0.238-0.079
	c-0.148-0.024-0.803,0.025-0.953,0c-0.1-0.017-0.137-0.062-0.238-0.078c-0.072-0.012-0.168,0.012-0.24,0
	c-0.098-0.017-0.135-0.062-0.236-0.078c-0.072-0.012-0.182,0.019-0.238,0s0.057-0.061,0-0.079s-0.168,0.012-0.24,0
	c-0.061-0.011-0.682-0.215-0.713-0.235c-0.035-0.023,0.055-0.061,0-0.079c-0.057-0.018-0.158,0-0.238,0l-1.191-0.392
	c-0.078,0-0.184,0.019-0.238,0c-0.057-0.019,0.035-0.056,0-0.079c-0.051-0.033-0.16-0.052-0.24-0.078
	c-0.078-0.026-0.137-0.062-0.236-0.079c-0.07-0.012-0.166,0.012-0.238,0c-0.102-0.017-0.139-0.062-0.238-0.078
	c-0.072-0.012-0.168,0.012-0.238,0c-0.102-0.017-0.139-0.062-0.238-0.078c-0.072-0.012-0.184,0.019-0.238,0
	c-0.057-0.019,0.055-0.061,0-0.079c-0.057-0.019-0.895,0.019-0.953,0c-0.057-0.019,0.055-0.06,0-0.078
	c-0.057-0.02-0.896,0.019-0.955,0c-0.055-0.019,0.059-0.061,0-0.079c-0.064-0.021-0.822,0.021-0.951,0
	c-0.1-0.017-0.139-0.062-0.238-0.078c-0.322-0.053-0.283-0.02-0.223,0.008c-0.049-0.018-0.127-0.044-0.254-0.087
	c-0.143-0.023-0.334,0.023-0.477,0c-0.102-0.017-0.139-0.062-0.238-0.078c-0.072-0.012-0.168,0.012-0.238,0
	c-0.201-0.033-0.275-0.124-0.477-0.157c-0.143-0.023-0.365,0.037-0.479,0c-0.055-0.018,0.059-0.06,0-0.078
	c-0.055-0.019-0.166,0.012-0.236,0c-0.102-0.017-0.139-0.062-0.24-0.078c-0.07-0.012-0.166,0.012-0.238,0
	c-0.1-0.017-0.135-0.062-0.236-0.079c-0.07-0.012-0.184,0.019-0.238,0c-0.057-0.019,0.055-0.06,0-0.078
	c-0.057-0.019-0.168,0.012-0.24,0c-0.098-0.017-0.135-0.062-0.236-0.079c-0.072-0.012-0.182,0.019-0.238,0s0.057-0.06,0-0.078
	s-0.168,0.012-0.238,0c-0.201-0.033-0.277-0.124-0.479-0.157c-0.07-0.012-0.182,0.019-0.236,0c-0.057-0.019,0.055-0.06,0-0.078
	c-0.057-0.019-0.168,0.012-0.238,0c-0.256-0.042-0.223-0.115-0.477-0.157c-0.07-0.012-0.184,0.019-0.238,0
	c-0.057-0.019,0.055-0.061,0-0.079c-0.057-0.019-0.184,0.019-0.24,0c-0.492-0.162,0.754,0.007-0.236-0.157
	c-0.07-0.011-0.184,0.02-0.238,0c-0.057-0.018,0.035-0.055,0-0.078c-0.145-0.094-0.572-0.141-0.715-0.235
	c-0.035-0.023,0.057-0.06,0-0.078s-0.184,0.019-0.238,0c-0.057-0.019,0.055-0.061,0-0.079c-0.057-0.019-0.184,0.019-0.238,0
	c-0.057-0.019,0.055-0.06,0-0.078c-0.057-0.019-0.182,0.019-0.24,0c-0.49-0.163,0.754,0.006-0.236-0.157
	c-0.07-0.012-0.182,0.019-0.238,0s0.057-0.061,0-0.078c-0.057-0.019-0.168,0.012-0.24,0c-0.1-0.017-0.137-0.062-0.238-0.079
	c-0.068-0.012-0.182,0.019-0.236,0c-0.057-0.018,0.055-0.06,0-0.078c-0.057-0.019-0.168,0.012-0.24,0
	c-0.098-0.017-0.137-0.062-0.236-0.078c-0.143-0.023-0.365,0.037-0.479,0c-0.057-0.019,0.057-0.061,0-0.079s-0.182,0.019-0.236,0
	c-0.057-0.019,0.055-0.06,0-0.078c-0.16-0.053-0.318,0.052-0.479,0c-0.057-0.019,0.057-0.061,0-0.079
	c-0.047-0.016-0.619,0.016-0.713,0c-0.102-0.017-0.139-0.062-0.238-0.078c-0.143-0.023-0.365,0.037-0.479,0
	c-0.49-0.162,0.754,0.006-0.236-0.157c-0.072-0.012-0.168,0.012-0.238,0c-0.201-0.033-0.277-0.124-0.479-0.157
	c-0.068-0.012-0.182,0.019-0.236,0c-0.059-0.019,0.055-0.06,0-0.078c-0.113-0.037-0.363,0.037-0.477,0
	c-0.057-0.019,0.055-0.061,0-0.078c-0.057-0.019-0.182,0.018-0.238,0c-0.057-0.019,0.057-0.061,0-0.079s-0.168,0.012-0.238,0
	c-0.992-0.163,0.254,0.006-0.238-0.157c-0.057-0.019-0.184,0.019-0.24,0c-0.055-0.019,0.057-0.06,0-0.078
	c-0.49-0.162,0.02,0.248-0.475-0.078c-0.164-0.108,0.287-0.07-0.24-0.157c-0.07-0.012-0.158,0-0.238,0c0-0.026,0.059-0.061,0-0.079
	c-0.055-0.019-0.182,0.019-0.236,0c-0.059-0.019,0.055-0.06,0-0.078c-0.059-0.019-0.184,0.019-0.24,0
	c-0.055-0.019,0.057-0.06,0-0.078c-0.055-0.019-0.182,0.019-0.236,0c-0.057-0.019,0.055-0.061,0-0.079
	c-0.057-0.019-0.184,0.019-0.238,0c-0.057-0.019,0.055-0.06,0-0.078c-0.057-0.019-0.168,0.012-0.24,0
	c-0.102-0.017-0.135-0.062-0.236-0.079c-0.143-0.023-0.336,0.023-0.479,0c-0.1-0.017-0.137-0.062-0.236-0.078
	c-0.143-0.023-0.365,0.037-0.479,0c-0.055-0.019,0.057-0.061,0-0.079c-0.111-0.036-0.332,0.023-0.475,0
	c-0.102-0.016-0.139-0.062-0.24-0.078c-0.068-0.012-0.182,0.019-0.236,0c-0.057-0.019,0.055-0.06,0-0.078
	c-0.113-0.037-0.365,0.037-0.479,0c-0.055-0.019,0.057-0.061,0-0.079c-0.055-0.019-0.166,0.012-0.238,0
	c-0.1-0.017-0.137-0.062-0.236-0.078c-0.072-0.012-0.168,0.012-0.238,0c-0.102-0.017-0.139-0.062-0.238-0.079
	c-0.07-0.012-0.184,0.019-0.24,0c-0.055-0.019,0.057-0.06,0-0.078c-0.111-0.037-0.361,0.037-0.477,0
	c-0.055-0.019,0.057-0.061,0-0.079c-0.049-0.016-0.619,0.017-0.713,0c-0.102-0.016-0.139-0.062-0.24-0.078
	c-0.141-0.023-0.363,0.037-0.475,0c-0.059-0.019,0.055-0.06,0-0.078c-0.059-0.019-0.168,0.012-0.24,0
	c-0.1-0.017-0.158-0.053-0.236-0.078c-0.08-0.026-0.189-0.046-0.238-0.079c-0.037-0.023,0.055-0.06,0-0.078
	c-0.059-0.019-0.184,0.019-0.24,0c-0.055-0.019,0.057-0.061,0-0.079c-0.055-0.019-0.166,0.012-0.236,0
	c-0.102-0.017-0.139-0.062-0.24-0.078c-0.035-0.006-0.445-0.004-0.717-0.002c-0.012-0.021-0.16,0.002-0.234,0.002
	c-0.109,0-0.645-0.012-0.717,0c-0.1,0.017-0.137,0.062-0.236,0.078c-0.15,0.025-1.043-0.024-1.193,0
	c-0.1,0.017-0.137,0.062-0.238,0.079c-0.07,0.012-0.605,0-0.713,0h-1.43c-0.242,0-1.299-0.015-1.43,0
	c-0.107,0.012-0.139,0.062-0.238,0.078c-0.146,0.024-1.287-0.023-1.432,0c-0.1,0.017-0.137,0.062-0.236,0.079
	c-0.074,0.012-0.607,0-0.715,0h-1.432c-0.105,0-0.641-0.013-0.715,0c-0.1,0.017-0.137,0.062-0.238,0.078
	c-0.143,0.023-1.283-0.023-1.43,0c-0.1,0.017-0.137,0.062-0.238,0.078c-0.141,0.023-0.363-0.037-0.477,0
	c-0.055,0.019,0.059,0.061,0,0.078c-0.117,0.04-0.594-0.039-0.713,0c-0.057,0.019,0.055,0.061,0,0.079
	c-0.113,0.037-0.336-0.023-0.477,0c-0.1,0.017-0.137,0.062-0.238,0.078c-0.143,0.023-0.365-0.037-0.479,0
	c-0.055,0.019,0.057,0.061,0,0.079c-0.109,0.037-0.361-0.037-0.475,0c-0.057,0.019,0.055,0.06,0,0.078
	c-0.114,0.037-0.365-0.037-0.477,0c-0.057,0.019,0.056,0.061,0,0.079c-0.113,0.037-0.365-0.037-0.477,0
	c-0.056,0.019,0.056,0.06,0,0.078c-0.112,0.037-0.335-0.023-0.477,0c-0.101,0.017-0.138,0.062-0.238,0.078
	c-0.071,0.012-0.181-0.018-0.239,0c-0.056,0.019,0.058,0.061,0,0.079c-0.112,0.037-0.333-0.023-0.476,0
	c-0.101,0.017-0.138,0.062-0.238,0.078c-0.071,0.012-0.168-0.012-0.239,0c-0.1,0.017-0.138,0.062-0.238,0.079
	c-0.071,0.012-0.167-0.012-0.238,0c-0.101,0.017-0.139,0.062-0.239,0.078c-0.142,0.023-0.333-0.023-0.476,0
	c-0.101,0.017-0.138,0.062-0.238,0.079c-0.071,0.012-0.168-0.012-0.239,0c-0.1,0.017-0.137,0.062-0.238,0.078
	c-0.071,0.012-0.167-0.012-0.238,0c-0.101,0.017-0.139,0.062-0.238,0.078c-0.071,0.012-0.168-0.012-0.239,0
	c-0.101,0.017-0.137,0.062-0.238,0.079c-0.071,0.012-0.183-0.019-0.239,0c-0.055,0.019,0.057,0.06,0,0.078
	c-0.111,0.037-0.363-0.037-0.476,0c-0.056,0.019,0.057,0.061,0,0.079c-0.113,0.037-0.335-0.023-0.476,0
	c-0.102,0.017-0.138,0.062-0.239,0.078c-0.142,0.023-0.363-0.037-0.477,0c-0.055,0.019,0.057,0.06,0,0.078
	c-0.055,0.019-0.182-0.019-0.238,0s0.056,0.061,0,0.079c-0.112,0.037-0.365-0.037-0.476,0c-0.056,0.019,0.056,0.06,0,0.078
	c-0.113,0.037-0.364-0.037-0.477,0c-0.056,0.019,0.056,0.061,0,0.079c-0.056,0.018-0.183-0.019-0.238,0
	c-0.056,0.018,0.056,0.06,0,0.078s-0.168-0.012-0.238,0c-0.1,0.017-0.138,0.062-0.238,0.078c-0.071,0.012-0.167-0.012-0.238,0
	c-0.201,0.033-0.275,0.124-0.477,0.157c-0.07,0.012-0.167-0.012-0.238,0c-0.1,0.017-0.138,0.062-0.238,0.078
	c-0.071,0.013-0.181-0.018-0.239,0c-0.055,0.019,0.058,0.061,0,0.079c-0.055,0.019-0.166-0.012-0.237,0
	c-0.101,0.017-0.138,0.062-0.239,0.078c-0.071,0.012-0.183-0.019-0.238,0c-0.056,0.019,0.055,0.061,0,0.079
	c-0.113,0.037-0.335-0.023-0.477,0c-0.1,0.017-0.138,0.062-0.238,0.078c-0.071,0.012-0.182-0.019-0.239,0
	c-0.056,0.019,0.036,0.056,0,0.079c-0.051,0.033-0.188,0.045-0.237,0.078c-0.036,0.023,0.056,0.061,0,0.078
	c-0.057,0.019-0.183-0.018-0.238,0c-0.057,0.019,0.056,0.061,0,0.079c-0.057,0.018-0.167-0.012-0.239,0
	c-0.201,0.032-0.275,0.123-0.476,0.156c-0.072,0.012-0.167-0.012-0.239,0c-0.202,0.033-0.275,0.124-0.477,0.157
	c-0.071,0.012-0.167-0.012-0.237,0c-0.201,0.033-0.276,0.124-0.478,0.157c-0.071,0.012-0.167-0.012-0.238,0
	c-0.201,0.033-0.276,0.124-0.476,0.157c-0.322,0.053-0.282,0.02-0.222-0.008c-0.048,0.017-0.126,0.044-0.255,0.086
	c-0.071,0.012-0.182-0.019-0.239,0c-0.055,0.019,0.058,0.061,0,0.078c-0.111,0.038-0.363-0.036-0.476,0
	c-0.318,0.105,0.396,0.079-0.238,0.079c-0.057,0.019,0.057,0.06,0,0.078s-0.167-0.011-0.238,0c-0.1,0.017-0.138,0.062-0.238,0.079
	c-0.071,0.012-0.182-0.019-0.238,0c-0.057,0.019,0.056,0.06,0,0.078c-0.111,0.037-0.365-0.037-0.476,0
	c-0.058,0.019,0.055,0.061,0,0.079c-0.12,0.039-0.597-0.04-0.715,0c-0.056,0.019,0,0.052,0,0.078c-0.08,0-0.183-0.019-0.239,0
	c-0.055,0.019,0.057,0.061,0,0.078c-0.111,0.037-0.364-0.036-0.476,0c-0.057,0.019,0.056,0.061,0,0.079
	c-0.057,0.019-0.167-0.012-0.238,0c-0.101,0.017-0.139,0.062-0.24,0.078c-0.071,0.012-0.167-0.012-0.238,0
	c-0.101,0.017-0.138,0.062-0.239,0.079c-0.142,0.023-0.363-0.037-0.477,0c-0.056,0.019,0.057,0.06,0,0.078
	c-0.112,0.037-0.364-0.037-0.476,0c-0.057,0.019,0.056,0.061,0,0.079c-0.057,0.018-0.167-0.012-0.239,0
	c-0.101,0.017-0.137,0.062-0.237,0.078c-0.143,0.023-0.335-0.023-0.478,0c-0.2,0.033-0.276,0.124-0.476,0.157
	c-0.072,0.011-0.167-0.012-0.239,0c-0.1,0.016-0.138,0.062-0.239,0.078c-0.142,0.023-0.364-0.037-0.477,0
	c-0.055,0.019,0.058,0.06,0,0.078c-0.111,0.037-0.333-0.023-0.476,0c-0.101,0.017-0.139,0.062-0.238,0.079
	c-0.071,0.012-0.167-0.012-0.238,0c-0.101,0.017-0.138,0.062-0.238,0.078c-0.072,0.012-0.167-0.012-0.238,0
	c-0.101,0.017-0.159,0.053-0.238,0.079c-0.08,0-0.167-0.012-0.239,0c-0.1,0.017-0.137,0.062-0.238,0.078
	c-0.071,0.012-0.167-0.012-0.238,0c-0.101,0.017-0.138,0.062-0.239,0.079c-0.142,0.023-0.333-0.024-0.476,0
	c-0.101,0.016-0.138,0.062-0.238,0.078c-0.071,0.012-0.167-0.012-0.239,0c-0.1,0.017-0.137,0.062-0.238,0.078
	c-0.143,0.023-0.365-0.037-0.477,0c-0.056,0.019,0.056,0.061,0,0.079c-0.112,0.037-0.363-0.037-0.476,0
	c-0.056,0.019,0.057,0.06,0,0.078c-0.056,0.019-0.167-0.012-0.237,0c-0.101,0.017-0.139,0.062-0.239,0.079
	c-0.071,0.011-0.167-0.012-0.238,0c-0.101,0.016-0.159,0.052-0.238,0.078s-0.137,0.062-0.238,0.079c-0.07,0.011-0.167-0.013-0.238,0
	c-0.101,0.016-0.137,0.062-0.238,0.078c-0.071,0.012-0.167-0.012-0.237,0c-0.101,0.016-0.139,0.062-0.239,0.078
	c-0.071,0.012-0.167-0.012-0.238,0c-0.992,0.163,0.255-0.006-0.238,0.157c-0.113,0.037-0.335-0.023-0.478,0
	c-0.1,0.017-0.138,0.062-0.237,0.078c-0.072,0.012-0.167-0.012-0.238,0c-0.286,0.047-0.43,0.188-0.715,0.236
	c-0.071,0.012-0.167-0.012-0.239,0c-0.1,0.017-0.138,0.062-0.239,0.078c-0.071,0.012-0.167-0.012-0.237,0
	c-0.101,0.017-0.138,0.062-0.238,0.078c-0.071,0.012-0.168-0.012-0.239,0c-0.1,0.017-0.137,0.062-0.238,0.079
	c-0.071,0.012-0.181-0.019-0.238,0s0.057,0.06,0,0.078s-0.168-0.012-0.239,0c-0.099,0.017-0.137,0.062-0.238,0.078
	c-0.142,0.023-0.335-0.023-0.476,0c-0.101,0.018-0.138,0.062-0.239,0.079c-0.072,0.012-0.167-0.012-0.238,0
	c-0.101,0.017-0.138,0.062-0.238,0.078c-0.071,0.012-0.168-0.012-0.24,0c-0.099,0.017-0.136,0.062-0.237,0.079
	c-0.071,0.012-0.167-0.012-0.238,0c-0.101,0.017-0.139,0.062-0.239,0.078c-0.094,0.016-0.667-0.016-0.714,0
	c-0.056,0.019,0.055,0.061,0,0.079c-0.049,0.016-0.621-0.016-0.715,0c-0.1,0.016-0.138,0.062-0.237,0.078
	c-0.142,0.023-0.364-0.037-0.477,0c-0.057,0.019,0.057,0.06,0,0.078c-0.048,0.017-0.621-0.016-0.715,0
	c-0.1,0.017-0.138,0.062-0.239,0.079c-0.19,0.031-0.524-0.031-0.714,0c-0.101,0.017-0.138,0.062-0.238,0.078
	c-0.15,0.025-0.803-0.024-0.953,0c-0.101,0.017-0.139,0.062-0.238,0.079c-0.095,0.016-0.667-0.017-0.716,0
	c-0.056,0.019,0.057,0.06,0,0.078c-0.048,0.017-0.619-0.016-0.714,0c-0.101,0.017-0.139,0.062-0.238,0.078
	c-0.143,0.024-0.364-0.037-0.477,0c-0.056,0.02,0.057,0.061,0,0.079c-0.112,0.037-0.335-0.023-0.476,0
	c-0.1,0.017-0.138,0.062-0.239,0.078c-0.071,0.012-0.182-0.019-0.238,0c-0.057,0.019,0.056,0.061,0,0.078
	c-0.057,0.02-0.168-0.012-0.239,0c-0.1,0.017-0.137,0.062-0.238,0.079c-0.141,0.023-0.365-0.037-0.476,0
	c-0.056,0.019,0.056,0.061,0,0.078c-0.159,0.053-0.318-0.052-0.477,0c-0.057,0.019,0.057,0.061,0,0.079
	c-0.113,0.037-0.335-0.023-0.477,0c-0.1,0.017-0.137,0.062-0.238,0.078c-0.071,0.012-0.182-0.019-0.238,0
	c-0.056,0.019,0.057,0.061,0,0.079c-0.056,0.019-0.167-0.012-0.238,0c-0.101,0.017-0.138,0.062-0.238,0.078
	c-0.142,0.023-0.364-0.037-0.477,0c-0.056,0.019,0.056,0.061,0,0.078c-0.056,0.019-0.159,0-0.238,0h-1.192
	c-0.079,0-0.182-0.018-0.238,0c-0.056,0.019,0.056,0.061,0,0.079c-0.056,0.019-0.181-0.019-0.238,0s0.057,0.06,0,0.078
	s-0.167-0.012-0.239,0c-0.1,0.017-0.137,0.062-0.237,0.079c-0.318,0.052-0.284,0.02-0.224-0.008
	c-0.048,0.018-0.125,0.044-0.253,0.086c-0.191,0.031-0.524-0.031-0.715,0c-0.101,0.017-0.139,0.062-0.239,0.079
	c-0.07,0.011-0.182-0.019-0.238,0c-0.056,0.018,0.056,0.06,0,0.078c-0.112,0.037-0.334-0.023-0.476,0
	c-0.101,0.017-0.139,0.062-0.239,0.078c-0.142,0.023-0.334-0.023-0.476,0c-0.101,0.017-0.139,0.062-0.238,0.079
	c-0.191,0.031-0.525-0.031-0.715,0c-0.101,0.016-0.139,0.062-0.24,0.078c-0.141,0.023-0.334-0.023-0.476,0
	c-0.1,0.017-0.138,0.062-0.238,0.078c-0.19,0.032-0.524-0.031-0.714,0c-0.101,0.017-0.139,0.062-0.239,0.079
	c-0.165,0.027-1.108-0.027-1.191,0c-0.057,0.019,0.056,0.06,0,0.078c-0.008,0.003-0.657,0-0.715,0h-1.667
	c-0.107,0-0.642-0.012-0.714,0c-0.101,0.017-0.138,0.062-0.239,0.079c-0.071,0.012-0.159,0-0.238,0H7.167
	c-0.079,0-0.181-0.019-0.237,0c-0.057,0.019,0.056,0.06,0,0.078c-0.059,0.019-0.897-0.019-0.953,0c-0.057,0.019,0.055,0.06,0,0.078
	c-0.16,0.053-0.318-0.052-0.478,0c-0.056,0.02,0.057,0.061,0,0.079c-0.056,0.019-0.182-0.019-0.237,0
	c-0.057,0.019,0.056,0.06,0,0.078c-0.493,0.162,0.019-0.248-0.478,0.079c-0.036,0.022,0.057,0.06,0,0.078
	c-0.056,0.019-0.182-0.019-0.238,0s0.056,0.06,0,0.079c-0.113,0.036-0.364-0.037-0.478,0c-0.055,0.018,0.057,0.06,0,0.078
	c-0.055,0.019-0.181-0.019-0.237,0c-0.057,0.019,0.056,0.06,0,0.078c-0.057,0.019-0.183-0.019-0.238,0
	c-0.056,0.019,0.055,0.061,0,0.079c-0.056,0.019-0.182-0.019-0.239,0c-0.056,0.018,0.058,0.06,0,0.078
	c-0.111,0.037-0.333-0.023-0.476,0c-0.201,0.033-0.276,0.124-0.478,0.157c-0.071,0.012-0.158,0-0.237,0H0.973
	c-0.159,0-0.334-0.023-0.477,0c-0.071,0.012,0.056,0.06,0,0.078c-0.057,0.019-0.167-0.012-0.239,0
	c-0.1,0.017-0.138,0.062-0.237,0.079c-0.003,0-0.016,0-0.021,0.001v2.7H127.92z"/>
<g>
	<g>
		<polygon points="10,97.598 33.737,73.857 42.37,70.836 49.708,78.174 46.687,86.806 22.947,110.546 		"/>
		<polygon points="94.944,13 71.638,36.739 68.185,45.802 75.522,53.14 84.585,49.687 108.324,26.38 		"/>
		<path d="M55.574,81.195L34.425,60.477c-2.159-2.158-2.159-5.611,0-7.337l15.536-15.538c1.728-2.158,5.18-2.158,7.34,0
			L78.017,58.75c2.59,2.59,1.727,5.611-0.863,7.769l2.158,2.159c1.295,1.294,1.295,3.884,0,5.611L71.11,82.49
			c-1.726,1.295-4.315,1.295-5.61,0l-2.159-2.159C61.184,82.922,58.163,83.785,55.574,81.195z M68.089,79.469l8.201-8.201
			l-1.727-1.727l-8.201,8.201L68.089,79.469z M74.995,61.34L54.28,40.623c-0.433-0.432-1.296-0.432-1.727,0L37.446,55.729
			c-0.432,0.432-0.432,1.295,0,1.726l20.717,20.718c0.432,0.433,1.295,0.433,1.727,0l15.106-15.107
			C75.427,62.635,75.427,61.772,74.995,61.34z"/>
		<path d="M78.448,101.051c-1.727-0.863-2.158-2.159-0.432-3.453c9.064-1.728,15.97-9.064,17.696-18.129
			c1.294-0.862,2.589-0.862,3.452,0.432C97.438,90.69,89.238,98.892,78.448,101.051z"/>
		<path d="M78.017,95.008c-2.158-0.863-2.59-1.727-0.432-3.453c6.042-1.296,10.79-6.475,12.085-12.518
			c1.726-1.727,2.589-1.295,3.452,0.432C91.827,87.237,85.785,93.281,78.017,95.008z"/>
		<path d="M77.153,89.396c-1.727-0.862-2.158-1.726-0.432-3.453c3.885-0.862,6.475-3.884,7.769-7.769
			c1.295-1.726,2.591-1.294,3.021,0.433C86.648,83.785,82.333,88.102,77.153,89.396z"/>
		<path d="M79.406,82.922c-1.295,0-2.591-1.294-2.591-2.591c0-1.294,1.296-2.157,2.591-2.157s2.158,0.863,2.158,2.157
			C81.564,81.628,80.701,82.922,79.406,82.922z"/>
	</g>
	<rect x="39.503" y="45.169" transform="matrix(0.7071 0.7071 -0.7071 0.7071 58.1145 -22.8795)" width="34.344" height="27.083"/>
</g>
</svg>
