<?xml version="1.0" encoding="utf-8"?>
<!-- Generator: Adobe Illustrator 15.0.2, SVG Export Plug-In . SVG Version: 6.00 Build 0)  -->
<!DOCTYPE svg PUBLIC "-//W3C//DTD SVG 1.1//EN" "http://www.w3.org/Graphics/SVG/1.1/DTD/svg11.dtd">
<svg version="1.1" id="Ebene_1" xmlns="http://www.w3.org/2000/svg" xmlns:xlink="http://www.w3.org/1999/xlink" x="0px" y="0px"
	 width="96px" height="96px" viewBox="0 0 96 96" enable-background="new 0 0 96 96" xml:space="preserve">
<g>
	<g>
		<path d="M39,66c4.687,0,8.5-3.812,8.5-8.5S43.687,49,39,49s-8.5,3.812-8.5,8.5S34.313,66,39,66z M39,54c1.93,0,3.5,1.57,3.5,3.5
			S40.93,61,39,61s-3.5-1.57-3.5-3.5S37.07,54,39,54z"/>
	</g>
	<g>
		<path d="M57,66c4.688,0,8.5-3.812,8.5-8.5S61.688,49,57,49s-8.5,3.812-8.5,8.5S52.312,66,57,66z M57,54c1.93,0,3.5,1.57,3.5,3.5
			S58.93,61,57,61s-3.5-1.57-3.5-3.5S55.07,54,57,54z"/>
	</g>
	<g>
		<path d="M88,3c-4.137,0-7.5,3.364-7.5,7.5c0,3.258,2.092,6.03,5,7.062v30.989C78.346,35.148,64.227,26,48,26
			c-15.855,0-29.699,8.732-37,21.636V17.562c2.908-1.033,5-3.804,5-7.062C16,6.364,12.636,3,8.5,3S1,6.364,1,10.5
			c0,3.258,2.092,6.03,5,7.062v44.542C5.708,64.031,5.536,65.998,5.513,68H5.5v9h85v-9h-0.014c-0.014-1.18-0.088-2.346-0.195-3.5
			H90.5V17.562c2.908-1.033,5-3.804,5-7.062C95.5,6.364,92.137,3,88,3z M8.5,8C9.879,8,11,9.122,11,10.5S9.879,13,8.5,13
			S6,11.878,6,10.5S7.121,8,8.5,8z M28.5,61.999V54c0-3.412,1.591-5.5,2.458-5.5h34.084c0.866,0,2.458,2.088,2.458,5.5v7.999
			c0,3.412-1.592,5.501-2.458,5.501H30.958C30.091,67.5,28.5,65.411,28.5,61.999z M71.195,68c0.824-1.691,1.305-3.751,1.305-6.001
			V54c0-5.888-3.275-10.5-7.458-10.5H30.958c-4.182,0-7.458,4.612-7.458,10.5v7.999c0,2.25,0.481,4.31,1.305,6.001H14.513
			C14.782,49.759,29.696,35,48,35c18.305,0,33.218,14.759,33.486,33H71.195z M88,13c-1.379,0-2.5-1.122-2.5-2.5S86.621,8,88,8
			s2.5,1.122,2.5,2.5S89.379,13,88,13z"/>
	</g>
</g>
<g>
	<path d="M46.979,95c-10.946,0-19.521-6.479-19.521-14.75h7c0,4.201,5.734,7.75,12.521,7.75c6.787,0,12.521-3.549,12.521-7.75h7
		C66.5,88.521,57.926,95,46.979,95z"/>
</g>
</svg>
