<?xml version="1.0" encoding="utf-8"?>
<!-- Generator: Adobe Illustrator 15.0.2, SVG Export Plug-In . SVG Version: 6.00 Build 0)  -->
<!DOCTYPE svg PUBLIC "-//W3C//DTD SVG 1.1//EN" "http://www.w3.org/Graphics/SVG/1.1/DTD/svg11.dtd">
<svg version="1.1" id="Ebene_1" xmlns="http://www.w3.org/2000/svg" xmlns:xlink="http://www.w3.org/1999/xlink" x="0px" y="0px"
	 width="122px" height="96px" viewBox="0.5 0.5 122 96" enable-background="new 0.5 0.5 122 96" xml:space="preserve">
<g>
	<rect x="35.113" y="47.724" width="4.406" height="4.106"/>
	<path d="M44.294,22.866c-0.724-0.907-1.738-1.621-3.046-2.14c-1.309-0.52-2.847-0.779-4.615-0.779c-2.62,0-5.082,0.747-7.39,2.24
		v4.721c2.138-1.903,4.484-2.854,7.037-2.854c3.881,0,5.822,1.694,5.822,5.082c0,0.728-0.236,1.416-0.71,2.065
		c-0.474,0.65-1.037,1.276-1.689,1.879c-0.652,0.604-1.316,1.269-1.992,1.996c-0.674,0.728-1.237,1.71-1.689,2.947
		c-0.452,1.239-0.678,2.662-0.678,4.271v1.763h3.945v-1.624c0-1.16,0.238-2.2,0.72-3.121c0.48-0.921,1.069-1.698,1.769-2.332
		l2.126-1.927c0.712-0.649,1.309-1.474,1.791-2.471c0.481-0.998,0.724-2.131,0.724-3.4c0-1.209-0.175-2.337-0.521-3.385
		C45.551,24.75,45.016,23.773,44.294,22.866z"/>
	<path d="M9.435,37.919c0-15.519,12.581-28.1,28.101-28.1s28.101,12.581,28.101,28.1c0,10.085-5.315,18.924-13.295,23.882
		l6.443,6.442C68.327,61.545,74.57,50.465,74.57,37.92c0-20.454-16.581-37.035-37.035-37.035S0.5,17.466,0.5,37.92
		s16.581,37.035,37.035,37.035c2.355,0,4.658-0.229,6.893-0.65l-8.319-8.32C21.251,65.242,9.435,52.961,9.435,37.919z"/>
	<path d="M111.65,32.729L67.9,76.479l-3.41-3.409c-4.145,2.926-8.785,5.189-13.775,6.641L67.89,96.885l0.016-0.015l0.011,0.011
		l53.942-53.944L111.65,32.729z"/>
</g>
</svg>
