<?xml version="1.0" encoding="utf-8"?>
<!-- Generator: Adobe Illustrator 15.0.2, SVG Export Plug-In . SVG Version: 6.00 Build 0)  -->
<!DOCTYPE svg PUBLIC "-//W3C//DTD SVG 1.1//EN" "http://www.w3.org/Graphics/SVG/1.1/DTD/svg11.dtd">
<svg version="1.1" id="Ebene_1" xmlns="http://www.w3.org/2000/svg" xmlns:xlink="http://www.w3.org/1999/xlink" x="0px" y="0px"
	 width="122px" height="96px" viewBox="0 0 122 96" enable-background="new 0 0 122 96" xml:space="preserve">
<g>
	<rect x="75.392" y="46.15" width="4.341" height="4.047"/>
	<path d="M79.914,31.725c-0.643,0.595-1.297,1.25-1.963,1.966c-0.664,0.717-1.219,1.685-1.664,2.903
		c-0.446,1.22-0.668,2.622-0.668,4.207v1.737h3.887v-1.6c0-1.143,0.235-2.168,0.709-3.075c0.473-0.907,1.053-1.672,1.742-2.297
		l2.095-1.898c0.7-0.64,1.289-1.452,1.765-2.435c0.474-0.983,0.712-2.099,0.712-3.349c0-1.191-0.172-2.303-0.513-3.334
		c-0.341-1.031-0.868-1.994-1.579-2.887c-0.713-0.894-1.713-1.597-3.001-2.108c-1.289-0.512-2.804-0.768-4.547-0.768
		c-2.58,0-5.006,0.736-7.279,2.207v4.651c2.105-1.875,4.418-2.812,6.933-2.812c3.823,0,5.735,1.669,5.735,5.007
		c0,0.716-0.232,1.395-0.699,2.035C81.111,30.514,80.557,31.13,79.914,31.725z"/>
	<path d="M93.884,3.755C75.803-5.14,53.935,2.307,45.04,20.387c-4.743,9.64-4.828,20.352-1.144,29.604l-1.984,1.985l-1.734,1.734
		l-1.736-1.734L28.247,41.781l-0.085-0.083L8,41.761l11.246,11.245l10.818,10.818l-8.713,8.711l0,0L8,85.887L18.113,96
		l22.064-22.063L62.241,96l10.112-10.113L59.001,72.535l0,0l-8.711-8.711l10.817-10.818l11.244-11.245l-20.16-0.063l-0.085,0.083
		l-1.224,1.225c-1.478-6.077-0.921-12.684,2.056-18.734c6.749-13.718,23.341-19.368,37.06-12.619
		c13.718,6.749,19.368,23.341,12.619,37.06C96.076,62.009,80.29,67.726,66.834,61.922l-10.973,3.736
		c1.792,1.344,3.728,2.547,5.811,3.572c18.08,8.895,39.948,1.449,48.843-16.632C119.41,34.518,111.963,12.65,93.884,3.755z"/>
</g>
</svg>
