<?xml version="1.0" encoding="utf-8"?>
<!-- Generator: Adobe Illustrator 15.0.2, SVG Export Plug-In . SVG Version: 6.00 Build 0)  -->
<!DOCTYPE svg PUBLIC "-//W3C//DTD SVG 1.1//EN" "http://www.w3.org/Graphics/SVG/1.1/DTD/svg11.dtd">
<svg version="1.1" id="Ebene_1" xmlns="http://www.w3.org/2000/svg" xmlns:xlink="http://www.w3.org/1999/xlink" x="0px" y="0px"
	 width="96px" height="96px" viewBox="0 0 96 96" enable-background="new 0 0 96 96" xml:space="preserve">
<path d="M48,0C21.49,0,0,21.49,0,48s21.49,48,48,48s48-21.49,48-48S74.51,0,48,0z M75.159,64c0.858-4.045,1.399-8.34,1.575-12.8
	h12.745c-0.334,4.419-1.362,8.711-3.068,12.8H75.159z M20.841,32c-0.858,4.045-1.399,8.339-1.576,12.8H6.521
	C6.854,40.38,7.883,36.088,9.588,32H20.841z M68.604,32c0.961,4.096,1.54,8.385,1.729,12.8H51.2V32H68.604L68.604,32z M51.2,25.6
	V6.866c1.459,0.425,2.904,1.137,4.323,2.137c2.658,1.874,5.201,4.761,7.354,8.348c1.488,2.48,2.775,5.242,3.85,8.249H51.2L51.2,25.6
	z M33.123,17.352c2.153-3.588,4.696-6.475,7.354-8.349c1.418-1,2.864-1.712,4.323-2.137V25.6H29.273
	C30.348,22.593,31.635,19.832,33.123,17.352z M44.8,32v12.8H25.668c0.188-4.415,0.767-8.704,1.728-12.8H44.8z M9.589,64
	c-1.706-4.089-2.734-8.381-3.068-12.8h12.745c0.176,4.46,0.718,8.755,1.576,12.8H9.589z M25.668,51.2H44.8V64H27.396
	C26.435,59.904,25.856,55.615,25.668,51.2L25.668,51.2z M44.8,70.4v18.733c-1.458-0.425-2.904-1.137-4.323-2.137
	c-2.658-1.874-5.201-4.761-7.354-8.349c-1.488-2.48-2.775-5.242-3.85-8.248H44.8L44.8,70.4z M62.877,78.648
	c-2.152,3.588-4.696,6.475-7.354,8.349c-1.419,1-2.864,1.712-4.323,2.137V70.4h15.526C65.652,73.406,64.365,76.168,62.877,78.648z
	 M51.2,64V51.2h19.132c-0.188,4.415-0.768,8.704-1.729,12.8H51.2L51.2,64z M76.734,44.8c-0.176-4.46-0.717-8.754-1.575-12.8h11.252
	c1.706,4.088,2.734,8.38,3.068,12.8H76.734z M83.066,25.6h-9.591c-1.863-5.876-4.438-11.029-7.531-15.143
	c4.253,2.034,8.105,4.762,11.472,8.127C79.563,20.732,81.451,23.078,83.066,25.6z M18.584,18.584
	c3.366-3.366,7.218-6.093,11.471-8.127c-3.094,4.114-5.667,9.267-7.531,15.143h-9.59C14.548,23.078,16.437,20.732,18.584,18.584z
	 M12.935,70.4h9.59c1.864,5.876,4.438,11.029,7.532,15.143c-4.254-2.034-8.106-4.762-11.472-8.127
	C16.437,75.268,14.548,72.922,12.935,70.4z M77.416,77.416c-3.366,3.365-7.219,6.093-11.472,8.127
	c3.094-4.113,5.668-9.267,7.531-15.143h9.591C81.451,72.922,79.563,75.268,77.416,77.416z"/>
</svg>
