<?xml version="1.0" encoding="utf-8"?>
<!-- Generator: Adobe Illustrator 15.0.2, SVG Export Plug-In . SVG Version: 6.00 Build 0)  -->
<!DOCTYPE svg PUBLIC "-//W3C//DTD SVG 1.1//EN" "http://www.w3.org/Graphics/SVG/1.1/DTD/svg11.dtd">
<svg version="1.1" id="Ebene_1" xmlns="http://www.w3.org/2000/svg" xmlns:xlink="http://www.w3.org/1999/xlink" x="0px" y="0px"
	 width="130px" height="96px" viewBox="0 0 130 96" enable-background="new 0 0 130 96" xml:space="preserve">
<path d="M119.245,0l-1.258,1.255c-3.271,3.264-12.727,6.059-24.022,8.498c-2.503-5.478-8.018-9.292-14.435-9.292
	c-8.415,0-15.284,6.554-15.822,14.834c-33.019,5.62-50.242,9.252-50.242,19.805c0,11.312,20.152,14.752,45.692,19.115
	c10.879,1.856,32.965,5.627,36.947,9.127c-1.209,0.901-5.09,2.894-17.399,5.633c-9.83,2.188-21.659,4.121-31.163,5.673
	c-13.642,2.23-23.948,4.021-32.05,5.838l7.547-15.905c0.517-1.38,0.953-3.385,0.953-4.959c0-6.845-5.401-12.369-12.026-12.369
	C5.341,47.253,0,52.777,0,59.622c0,1.574,0.438,3.579,0.953,4.959l10.055,21.185c-0.644,0.168-1.288,0.338-1.899,0.509L10.714,92
	c10.046-2.818,25.134-5.282,38.445-7.456c37.671-6.157,57.328-9.894,57.328-21.106c0-11.311-20.15-14.75-45.693-19.109
	c-10.896-1.861-33.036-5.643-36.967-9.147c4.432-3.614,29.092-7.891,42.429-10.153c2.836,4.323,7.719,7.183,13.274,7.183
	c7.577,0,13.904-5.311,15.486-12.411c15.562-3.303,27.429-7.233,31.721-13.492l2.301-3.354L119.245,0z M13.965,83.888L13.74,84.18
	l0.196-0.414L13.965,83.888z M6.46,59.249c0-3.059,2.479-5.536,5.538-5.536c3.055,0,5.536,2.478,5.536,5.536
	c0,3.056-2.48,5.535-5.536,5.535C8.939,64.784,6.46,62.305,6.46,59.249z"/>
</svg>
