<?xml version="1.0" encoding="utf-8"?>
<!-- Generator: Adobe Illustrator 15.0.2, SVG Export Plug-In . SVG Version: 6.00 Build 0)  -->
<!DOCTYPE svg PUBLIC "-//W3C//DTD SVG 1.1//EN" "http://www.w3.org/Graphics/SVG/1.1/DTD/svg11.dtd">
<svg version="1.1" id="Ebene_1" xmlns="http://www.w3.org/2000/svg" xmlns:xlink="http://www.w3.org/1999/xlink" x="0px" y="0px"
	 width="130px" height="96px" viewBox="0 0 130 96" enable-background="new 0 0 130 96" xml:space="preserve">
<g>
	<g>
		<g>
			<path d="M15.412,60.203V37.306h40.304V12.76C50.65,10.352,44.983,9,39,9C17.462,9,0,26.461,0,47.999C0,69.539,17.462,87,39,87
				c5.983,0,11.65-1.35,16.717-3.758V60.203H15.412z"/>
		</g>
	</g>
</g>
<path d="M102.156,35.048h27.624C124.426,19.893,109.964,9,93,9C71.495,9,54,26.495,54,48c0,21.505,17.495,39,39,39
	c16.964,0,31.425-10.893,36.78-26.048h-27.624V35.048z"/>
</svg>
