<?xml version="1.0" encoding="utf-8"?>
<!-- Generator: Adobe Illustrator 15.0.2, SVG Export Plug-In . SVG Version: 6.00 Build 0)  -->
<!DOCTYPE svg PUBLIC "-//W3C//DTD SVG 1.1//EN" "http://www.w3.org/Graphics/SVG/1.1/DTD/svg11.dtd">
<svg version="1.1" id="Ebene_1" xmlns="http://www.w3.org/2000/svg" xmlns:xlink="http://www.w3.org/1999/xlink" x="0px" y="0px"
	 width="120px" height="96px" viewBox="-12 0 120 96" enable-background="new -12 0 120 96" xml:space="preserve">
<polygon points="38.938,51.354 57.062,51.354 57.062,30.329 78.329,30.329 48,0 17.671,30.329 38.938,30.329 "/>
<g>
	<g>
		<path d="M96.333,47H57.062v24.167H38.938V47H-0.333C-5.672,47-10,51.326-10,56.667v29c0,5.338,4.328,9.666,9.667,9.666h96.667
			c5.339,0,9.667-4.328,9.667-9.666v-29C106,51.326,101.672,47,96.333,47z M88.177,90.38c-4.002,0-7.25-3.248-7.25-7.25
			c0-4.003,3.248-7.25,7.25-7.25c4.003,0,7.25,3.247,7.25,7.25C95.427,87.132,92.18,90.38,88.177,90.38z"/>
	</g>
</g>
</svg>
