<?xml version="1.0" encoding="utf-8"?>
<!-- Generator: Adobe Illustrator 15.0.2, SVG Export Plug-In . SVG Version: 6.00 Build 0)  -->
<!DOCTYPE svg PUBLIC "-//W3C//DTD SVG 1.1//EN" "http://www.w3.org/Graphics/SVG/1.1/DTD/svg11.dtd">
<svg version="1.1" id="Ebene_1" xmlns="http://www.w3.org/2000/svg" xmlns:xlink="http://www.w3.org/1999/xlink" x="0px" y="0px"
	 width="100px" height="96px" viewBox="0.5 0.5 100 96" enable-background="new 0.5 0.5 100 96" xml:space="preserve">
<g>
	<path d="M70.912,95.5c3.914,0,7.1-3.183,7.1-7.098V54.704c0-3.915-3.184-7.1-7.1-7.1H7.598c-3.915,0-7.098,3.185-7.098,7.1v33.698
		c0,3.915,3.184,7.098,7.098,7.098H70.912L70.912,95.5z M17.251,73.85V60.32c0-1.438,1.167-2.604,2.602-2.604h38.805
		c1.434,0,2.604,1.167,2.604,2.604V73.85c0,1.437-1.17,2.602-2.604,2.602H19.854C18.419,76.451,17.251,75.286,17.251,73.85z"/>
	<polygon points="83.217,78.252 100.221,85.306 100.221,57.794 83.217,64.854 	"/>
	<path d="M20.619,16.72c-7.081,0-12.839,5.759-12.839,12.842c0,7.075,5.759,12.833,12.839,12.833
		c7.078,0,12.838-5.758,12.838-12.833C33.457,22.478,27.697,16.72,20.619,16.72z"/>
	<path d="M56.613,6.5c-9.898,0-17.946,8.054-17.946,17.953c0,9.896,8.05,17.949,17.946,17.949c9.9,0,17.949-8.053,17.949-17.949
		C74.562,14.553,66.512,6.5,56.613,6.5z M56.613,34.208c-5.379,0-9.753-4.378-9.753-9.756c0-5.383,4.374-9.757,9.753-9.757
		c5.377,0,9.752,4.374,9.752,9.757C66.365,29.83,61.99,34.208,56.613,34.208z"/>
	<path d="M56.613,19.901c2.512,0,4.551,2.035,4.551,4.55c0,2.513-2.039,4.546-4.551,4.546c-2.514,0-4.551-2.034-4.551-4.546
		C52.061,21.936,54.1,19.901,56.613,19.901z"/>
	<rect x="22.457" y="62.922" width="33.596" height="8.327"/>
</g>
</svg>
