<?xml version="1.0" encoding="utf-8"?>
<!-- Generator: Adobe Illustrator 15.0.2, SVG Export Plug-In . SVG Version: 6.00 Build 0)  -->
<!DOCTYPE svg PUBLIC "-//W3C//DTD SVG 1.1//EN" "http://www.w3.org/Graphics/SVG/1.1/DTD/svg11.dtd">
<svg version="1.1" id="Ebene_1" xmlns="http://www.w3.org/2000/svg" xmlns:xlink="http://www.w3.org/1999/xlink" x="0px" y="0px"
	 width="120px" height="96px" viewBox="0.5 0.5 120 96" enable-background="new 0.5 0.5 120 96" xml:space="preserve">
<g>
	<g>
		<g>
			<path d="M112.034,49.584c-1.364,2.789-2.871,5.465-4.537,8.041c-0.188,0.281-0.373,0.577-0.561,0.857
				c-0.331,0.514,0.719-1.039,0.23-0.346c-0.086,0.133-0.174,0.248-0.258,0.379c-0.445,0.662-0.92,1.306-1.38,1.934
				c-0.875,1.172-1.78,2.327-2.713,3.434c-1.911,2.279-3.95,4.426-6.104,6.407c-0.245,0.231-0.488,0.446-0.733,0.66
				c-0.432,0.396,0.92-0.809,0.303-0.263c-0.115,0.098-0.217,0.197-0.33,0.279c-0.575,0.496-1.164,0.992-1.769,1.47
				c-1.104,0.893-2.226,1.735-3.388,2.544c-2.671,1.865-5.457,3.5-8.33,4.889c0.346-0.166,0.691-0.332,1.035-0.496
				c-5.084,2.443-10.428,4.129-15.897,4.986c0.388-0.065,0.761-0.115,1.148-0.182c-5.63,0.858-11.346,0.858-16.989,0
				c0.388,0.066,0.761,0.116,1.149,0.182c-5.472-0.857-10.814-2.543-15.899-4.986c0.345,0.164,0.69,0.33,1.035,0.496
				c-2.557-1.24-5.042-2.677-7.44-4.277c-1.162-0.777-2.297-1.604-3.417-2.479c-0.545-0.43-1.078-0.857-1.609-1.288
				c-0.273-0.229-0.56-0.462-0.833-0.71c-0.114-0.099-0.215-0.197-0.33-0.28c-0.115-0.099-0.215-0.198-0.33-0.28
				c0.187,0.166,0.359,0.33,0.546,0.479c-2.212-1.866-4.266-4.062-6.189-6.291c-0.948-1.091-1.867-2.229-2.758-3.386
				c-0.431-0.562-0.862-1.14-1.279-1.717c-0.214-0.313-0.444-0.612-0.659-0.925c-0.087-0.132-0.173-0.248-0.259-0.379
				c-0.086-0.134-0.172-0.248-0.258-0.381c0.144,0.215,0.273,0.412,0.417,0.628C11.666,55.842,10,52.688,8.492,49.6
				c0,1.667,0,3.336,0,5.003c1.364-2.79,2.872-5.466,4.538-8.042c0.187-0.28,0.373-0.577,0.56-0.857
				c0.331-0.514-0.719,1.04-0.23,0.346c0.087-0.132,0.172-0.248,0.258-0.38c0.446-0.66,0.919-1.305,1.379-1.932
				c0.876-1.172,1.78-2.327,2.713-3.434c1.911-2.279,3.95-4.426,6.104-6.408c0.245-0.231,0.488-0.445,0.733-0.66
				c0.431-0.396-0.92,0.809-0.302,0.264c0.115-0.098,0.215-0.198,0.331-0.281c0.574-0.496,1.162-0.99,1.767-1.469
				c1.105-0.892,2.226-1.734,3.388-2.542c2.672-1.866,5.458-3.502,8.331-4.889c-0.345,0.166-0.69,0.331-1.035,0.496
				c5.083-2.444,10.428-4.128,15.898-4.986c-0.389,0.064-0.762,0.115-1.148,0.181c5.629-0.859,11.345-0.859,16.989,0
				c-0.388-0.065-0.761-0.116-1.148-0.181c5.471,0.858,10.812,2.542,15.897,4.986c-0.346-0.165-0.69-0.33-1.035-0.496
				c2.557,1.239,5.042,2.675,7.438,4.277c1.164,0.776,2.299,1.602,3.418,2.477c0.545,0.43,1.078,0.859,1.607,1.288
				c0.274,0.232,0.562,0.463,0.836,0.71c0.113,0.099,0.215,0.198,0.328,0.28c0.116,0.101,0.217,0.199,0.33,0.282
				c-0.187-0.166-0.357-0.331-0.545-0.479c2.211,1.849,4.266,4.062,6.189,6.292c0.948,1.09,1.867,2.229,2.758,3.385
				c0.431,0.562,0.861,1.14,1.279,1.718c0.215,0.313,0.443,0.61,0.659,0.924c0.085,0.132,0.171,0.248,0.257,0.38
				c0.088,0.133,0.174,0.248,0.26,0.379c-0.144-0.214-0.273-0.412-0.418-0.627c1.982,2.742,3.648,5.895,5.156,9
				c1.105,2.263,3.964,3.204,5.889,1.783c1.982-1.47,2.729-4.358,1.552-6.77c-4.653-9.512-10.987-17.736-18.511-24.374
				c-7.268-6.407-15.755-11.081-24.644-13.557c-9.593-2.675-19.603-2.874-29.282-0.71c-9.034,2.032-17.78,6.341-25.29,12.434
				c-7.727,6.209-14.29,14.135-19.274,23.383c-0.975,1.8-2.195,3.749-1.939,5.945c0.202,1.717,1.265,3.368,2.055,4.837
				c1.248,2.312,2.627,4.525,4.079,6.688c2.771,4.129,5.858,7.96,9.305,11.361c7.21,7.134,15.583,12.55,24.674,15.769
				c9.249,3.271,19.101,4.081,28.68,2.611c9.319-1.438,18.367-5.119,26.351-10.832c8.042-5.748,14.921-13.377,20.35-22.277
				c1.235-2.031,2.384-4.129,3.433-6.292c1.105-2.263,0.531-5.515-1.551-6.77C115.898,46.56,113.212,47.172,112.034,49.584z"/>
		</g>
	</g>
	<path d="M36.881,43.398c0,12.916,10.472,23.39,23.386,23.39c12.916,0,23.388-10.472,23.388-23.39c0-1.068-0.096-2.11-0.234-3.139
		l-23.153-4.17l-23.15,4.17C36.978,41.288,36.881,42.33,36.881,43.398z"/>
</g>
</svg>
